<svg width="20" height="18" viewBox="0 0 20 18" fill="none" xmlns="http://www.w3.org/2000/svg">
<path d="M9.99963 6.80586V10.1392M9.99963 13.4725H10.008M8.84573 2.54896L1.99166 14.3878C1.61149 15.0445 1.4214 15.3728 1.4495 15.6423C1.474 15.8773 1.59714 16.0909 1.78828 16.2299C2.00741 16.3892 2.38679 16.3892 3.14556 16.3892H16.8537C17.6125 16.3892 17.9919 16.3892 18.211 16.2299C18.4021 16.0909 18.5253 15.8773 18.5498 15.6423C18.5779 15.3728 18.3878 15.0445 18.0076 14.3878L11.1535 2.54896C10.7747 1.89465 10.5853 1.5675 10.3382 1.45763C10.1227 1.36178 9.8766 1.36178 9.66105 1.45763C9.41394 1.5675 9.22454 1.89466 8.84573 2.54896Z" stroke="#F58E07" stroke-width="1.66667" stroke-linecap="round" stroke-linejoin="round"/>
</svg>
