<svg width="24" height="24" viewBox="0 0 24 24" fill="none" xmlns="http://www.w3.org/2000/svg">
<path d="M11.6998 18.09C15.9248 18.09 19.3498 14.665 19.3498 10.44C19.3498 6.21506 15.9248 2.79004 11.6998 2.79004C7.47483 2.79004 4.0498 6.21506 4.0498 10.44C4.0498 14.665 7.47483 18.09 11.6998 18.09Z" stroke="#BEC1C3" stroke-width="1.3" stroke-linecap="round" stroke-linejoin="round"/>
<path d="M18.58 14L21.27 17.67C21.42 17.88 21.27 18.16 21.01 18.14L18 17.9C17.85 17.89 17.72 17.99 17.69 18.13L17.01 21.07C16.95 21.32 16.63 21.38 16.48 21.18L13.96 17.74" stroke="#BEC1C3" stroke-width="1.3" stroke-linecap="round" stroke-linejoin="round"/>
<path d="M5.21009 14.3398L2.77009 17.6798C2.62009 17.8898 2.77009 18.1698 3.03009 18.1498L6.04009 17.9098C6.19009 17.8998 6.32009 17.9998 6.35009 18.1398L7.03009 21.0798C7.09009 21.3298 7.41009 21.3898 7.56009 21.1898L9.96009 17.8998" stroke="#BEC1C3" stroke-width="1.3" stroke-linecap="round" stroke-linejoin="round"/>
<path d="M11.5999 13.3103L9.0999 14.6203C8.8699 14.7403 8.6099 14.5503 8.6499 14.3003L9.1299 11.5203C9.1499 11.4203 9.1099 11.3203 9.0399 11.2503L7.0199 9.28027C6.8399 9.10027 6.9399 8.79027 7.1899 8.75027L9.9799 8.34027C10.0799 8.33027 10.1699 8.26027 10.2099 8.17027L11.4599 5.64027C11.5699 5.41027 11.8999 5.41027 12.0099 5.64027L13.2599 8.17027C13.2999 8.26027 13.3899 8.32027 13.4899 8.34027L16.2799 8.75027C16.5299 8.79027 16.6299 9.10027 16.4499 9.28027L14.4299 11.2503C14.3599 11.3203 14.3199 11.4203 14.3399 11.5203L14.8199 14.3003C14.8599 14.5503 14.5999 14.7403 14.3699 14.6203L11.8699 13.3103C11.7799 13.2603 11.6699 13.2603 11.5799 13.3103H11.5999Z" stroke="#BEC1C3" stroke-width="1.3" stroke-linecap="round" stroke-linejoin="round"/>
</svg>
