<svg width="16" height="16" viewBox="0 0 16 16" fill="none" xmlns="http://www.w3.org/2000/svg">
<path d="M7.52827 3.80604C7.65329 3.93106 7.82286 4.0013 7.99967 4.0013C8.17649 4.0013 8.34605 3.93106 8.47108 3.80604C8.5961 3.68102 8.66634 3.51145 8.66634 3.33464C8.66634 3.15782 8.5961 2.98826 8.47108 2.86323C8.34605 2.73821 8.17649 2.66797 7.99967 2.66797C7.82286 2.66797 7.65329 2.73821 7.52827 2.86323C7.40325 2.98826 7.33301 3.15782 7.33301 3.33464C7.33301 3.51145 7.40325 3.68102 7.52827 3.80604Z" fill="white"/>
<path d="M7.52827 8.47271C7.65329 8.59773 7.82286 8.66797 7.99967 8.66797C8.17649 8.66797 8.34605 8.59773 8.47108 8.47271C8.5961 8.34768 8.66634 8.17811 8.66634 8.0013C8.66634 7.82449 8.5961 7.65492 8.47108 7.5299C8.34605 7.40487 8.17649 7.33464 7.99967 7.33464C7.82286 7.33464 7.65329 7.40487 7.52827 7.5299C7.40325 7.65492 7.33301 7.82449 7.33301 8.0013C7.33301 8.17811 7.40325 8.34768 7.52827 8.47271Z" fill="white"/>
<path d="M7.52827 13.1394C7.65329 13.2644 7.82286 13.3346 7.99967 13.3346C8.17649 13.3346 8.34605 13.2644 8.47108 13.1394C8.5961 13.0143 8.66634 12.8448 8.66634 12.668C8.66634 12.4912 8.5961 12.3216 8.47108 12.1966C8.34605 12.0715 8.17649 12.0013 7.99967 12.0013C7.82286 12.0013 7.65329 12.0715 7.52827 12.1966C7.40325 12.3216 7.33301 12.4912 7.33301 12.668C7.33301 12.8448 7.40325 13.0143 7.52827 13.1394Z" fill="white"/>
<path d="M7.99967 3.33464V3.3413M7.99967 8.0013V8.00797M7.99967 12.668V12.6746M7.99967 4.0013C7.82286 4.0013 7.65329 3.93106 7.52827 3.80604C7.40325 3.68102 7.33301 3.51145 7.33301 3.33464C7.33301 3.15782 7.40325 2.98826 7.52827 2.86323C7.65329 2.73821 7.82286 2.66797 7.99967 2.66797C8.17649 2.66797 8.34605 2.73821 8.47108 2.86323C8.5961 2.98826 8.66634 3.15782 8.66634 3.33464C8.66634 3.51145 8.5961 3.68102 8.47108 3.80604C8.34605 3.93106 8.17649 4.0013 7.99967 4.0013ZM7.99967 8.66797C7.82286 8.66797 7.65329 8.59773 7.52827 8.47271C7.40325 8.34768 7.33301 8.17811 7.33301 8.0013C7.33301 7.82449 7.40325 7.65492 7.52827 7.5299C7.65329 7.40487 7.82286 7.33464 7.99967 7.33464C8.17649 7.33464 8.34605 7.40487 8.47108 7.5299C8.5961 7.65492 8.66634 7.82449 8.66634 8.0013C8.66634 8.17811 8.5961 8.34768 8.47108 8.47271C8.34605 8.59773 8.17649 8.66797 7.99967 8.66797ZM7.99967 13.3346C7.82286 13.3346 7.65329 13.2644 7.52827 13.1394C7.40325 13.0143 7.33301 12.8448 7.33301 12.668C7.33301 12.4912 7.40325 12.3216 7.52827 12.1966C7.65329 12.0715 7.82286 12.0013 7.99967 12.0013C8.17649 12.0013 8.34605 12.0715 8.47108 12.1966C8.5961 12.3216 8.66634 12.4912 8.66634 12.668C8.66634 12.8448 8.5961 13.0143 8.47108 13.1394C8.34605 13.2644 8.17649 13.3346 7.99967 13.3346Z" stroke="#616364" stroke-width="2" stroke-linecap="round" stroke-linejoin="round"/>
</svg>
