<svg width="27" height="24" viewBox="0 0 27 24" fill="none" xmlns="http://www.w3.org/2000/svg">
<path d="M11.8988 18.91H4.9459C4.01741 18.91 3.26166 18.21 3.26166 17.35V7.13001C3.26166 6.27001 4.01741 5.57001 4.9459 5.57001H20.7626C21.6911 5.57001 22.4469 6.27001 22.4469 7.13001V10.53" stroke="#616364" stroke-width="1.2" stroke-miterlimit="10" stroke-linecap="round"/>
<path d="M7.70966 10.3101H14.6409" stroke="#616364" stroke-miterlimit="10" stroke-linecap="round"/>
<path d="M7.70966 13.3101H14.6409" stroke="#616364" stroke-miterlimit="10" stroke-linecap="round"/>
<path d="M17.8368 20.71L15.2565 20.64C14.8138 20.63 14.4575 20.3 14.4467 19.89L14.3712 17.5C14.3712 17.29 14.4575 17.08 14.6195 16.93L19.2511 12.64C19.9313 12.01 21.0325 12.01 21.7127 12.64L23.0947 13.92C23.7748 14.55 23.7748 15.57 23.0947 16.2L18.463 20.49C18.301 20.64 18.0743 20.72 17.8476 20.72L17.8368 20.71Z" stroke="#616364" stroke-width="1.2" stroke-miterlimit="10"/>
</svg>
