<svg width="27" height="24" viewBox="0 0 27 24" fill="none" xmlns="http://www.w3.org/2000/svg">
<path d="M16.1141 14.1213C16.7215 13.5587 17.0628 12.7956 17.0628 12C17.0628 11.2044 16.7215 10.4413 16.1141 9.87868C15.5067 9.31607 14.6829 9 13.8239 9C12.9648 9 12.141 9.31607 11.5336 9.87868C10.9262 10.4413 10.5849 11.2044 10.5849 12C10.5849 12.7956 10.9262 13.5587 11.5336 14.1213C12.141 14.6839 12.9648 15 13.8239 15C14.6829 15 15.5067 14.6839 16.1141 14.1213Z" stroke="#616364" stroke-width="1.2" stroke-linecap="round" stroke-linejoin="round"/>
<path d="M3.52191 12C4.89737 7.943 8.99029 5 13.8238 5C18.6585 5 22.7503 7.943 24.1258 12C22.7503 16.057 18.6585 19 13.8238 19C8.99029 19 4.89737 16.057 3.52191 12Z" stroke="#616364" stroke-width="1.2" stroke-linecap="round" stroke-linejoin="round"/>
</svg>
