<svg width="24" height="24" viewBox="0 0 24 24" fill="none" xmlns="http://www.w3.org/2000/svg">
<path d="M5.77979 21.5498C3.98979 21.5498 2.52979 20.0898 2.52979 18.2998C2.52979 16.5098 3.98979 15.0498 5.77979 15.0498C7.56979 15.0498 9.02979 16.5098 9.02979 18.2998C9.02979 20.0898 7.56979 21.5498 5.77979 21.5498Z" stroke="#BEC1C3" stroke-width="1.5" stroke-miterlimit="10"/>
<path d="M18.2798 9.0498C16.4898 9.0498 15.0298 7.5898 15.0298 5.7998C15.0298 4.0098 16.4898 2.5498 18.2798 2.5498C20.0698 2.5498 21.5298 4.0098 21.5298 5.7998C21.5298 7.5898 20.0698 9.0498 18.2798 9.0498Z" stroke="#BEC1C3" stroke-width="1.5" stroke-miterlimit="10"/>
<path d="M8.08008 16.0904L16.2001 7.90039" stroke="#BEC1C3" stroke-width="1.5" stroke-miterlimit="10"/>
<path d="M6.7998 11.0703C5.0098 11.0703 3.5498 9.61031 3.5498 7.82031C3.5498 6.03031 5.0098 4.57031 6.7998 4.57031C8.5898 4.57031 10.0498 6.03031 10.0498 7.82031C10.0498 9.61031 8.5898 11.0703 6.7998 11.0703Z" stroke="#BEC1C3" stroke-width="1.5" stroke-miterlimit="10"/>
<path d="M11.0102 3.53027L8.74023 5.88027" stroke="#BEC1C3" stroke-width="1.5" stroke-miterlimit="10"/>
<path d="M17.5801 19.5801C15.7901 19.5801 14.3301 18.1201 14.3301 16.3301C14.3301 14.5401 15.7901 13.0801 17.5801 13.0801C19.3701 13.0801 20.8301 14.5401 20.8301 16.3301C20.8301 18.1201 19.3701 19.5801 17.5801 19.5801Z" stroke="#BEC1C3" stroke-width="1.5" stroke-miterlimit="10"/>
<path d="M13.3701 20.6303L15.6401 18.2803" stroke="#BEC1C3" stroke-width="1.5" stroke-miterlimit="10"/>
</svg>
