<svg width="22" height="21" viewBox="0 0 22 21" fill="none" xmlns="http://www.w3.org/2000/svg">
<path fill-rule="evenodd" clip-rule="evenodd" d="M8.36537 4.64431C9.39783 2.54227 11.5603 1.09375 14.0625 1.09375C17.5661 1.09375 20.4062 3.93394 20.4062 7.4375C20.4062 8.37558 20.2022 9.26779 19.8355 10.0707C19.7398 10.2802 19.7211 10.4781 19.7637 10.6372L19.8751 11.0537C20.2319 12.3871 19.0121 13.6069 17.6787 13.2501L17.2622 13.1387C17.1438 13.107 17.0039 13.1092 16.8537 13.1519C16.4074 16.9553 13.1733 19.9062 9.25 19.9062C8.06878 19.9062 6.9483 19.6383 5.94766 19.1592C5.74957 19.0644 5.55453 19.0452 5.39408 19.0881L4.3213 19.3751C2.98795 19.7319 1.76811 18.5121 2.12487 17.1787L2.41191 16.1059C2.45484 15.9455 2.4356 15.7504 2.34076 15.5523C1.86171 14.5517 1.59375 13.4312 1.59375 12.25C1.59375 8.32077 4.55364 5.08285 8.36537 4.64431ZM9.89311 4.62038C13.6773 4.9351 16.68 8.00197 16.894 11.8139C17.1237 11.792 17.3625 11.8068 17.6014 11.8708L18.0179 11.9822C18.3757 12.0779 18.7029 11.7507 18.6072 11.3929L18.4958 10.9764C18.3583 10.4625 18.4479 9.94946 18.6416 9.52534C18.9317 8.89019 19.0938 8.18366 19.0938 7.4375C19.0938 4.65882 16.8412 2.40625 14.0625 2.40625C12.3283 2.40625 10.7981 3.28373 9.89311 4.62038ZM9.25 5.90625C5.74644 5.90625 2.90625 8.74644 2.90625 12.25C2.90625 13.2309 3.12843 14.1581 3.52459 14.9856C3.73057 15.4158 3.81694 15.9326 3.67981 16.4452L3.39277 17.5179C3.29706 17.8757 3.62433 18.2029 3.98206 18.1072L5.05484 17.8202C5.56735 17.6831 6.08417 17.7694 6.51441 17.9754C7.34191 18.3716 8.26909 18.5938 9.25 18.5938C12.7536 18.5938 15.5938 15.7536 15.5938 12.25C15.5938 8.74644 12.7536 5.90625 9.25 5.90625Z" fill="#BEC1C3"/>
<path d="M7.0625 12.25C7.0625 12.7332 6.67075 13.125 6.1875 13.125C5.70425 13.125 5.3125 12.7332 5.3125 12.25C5.3125 11.7668 5.70425 11.375 6.1875 11.375C6.67075 11.375 7.0625 11.7668 7.0625 12.25Z" fill="#BEC1C3"/>
<path d="M10.125 12.25C10.125 12.7332 9.73325 13.125 9.25 13.125C8.76675 13.125 8.375 12.7332 8.375 12.25C8.375 11.7668 8.76675 11.375 9.25 11.375C9.73325 11.375 10.125 11.7668 10.125 12.25Z" fill="#BEC1C3"/>
<path d="M13.1875 12.25C13.1875 12.7332 12.7957 13.125 12.3125 13.125C11.8293 13.125 11.4375 12.7332 11.4375 12.25C11.4375 11.7668 11.8293 11.375 12.3125 11.375C12.7957 11.375 13.1875 11.7668 13.1875 12.25Z" fill="#BEC1C3"/>
</svg>
