<svg width="20" height="20" viewBox="0 0 20 20" fill="none" xmlns="http://www.w3.org/2000/svg">
<path fill-rule="evenodd" clip-rule="evenodd" d="M10.65 4.16666C10.65 3.80768 10.359 3.51666 10 3.51666C9.64101 3.51666 9.35 3.80768 9.35 4.16666V9.35H4.16666C3.80768 9.35 3.51666 9.64101 3.51666 10C3.51666 10.359 3.80768 10.65 4.16666 10.65H9.35V15.8333C9.35 16.1923 9.64101 16.4833 10 16.4833C10.359 16.4833 10.65 16.1923 10.65 15.8333V10.65H15.8333C16.1923 10.65 16.4833 10.359 16.4833 10C16.4833 9.64101 16.1923 9.35 15.8333 9.35H10.65V4.16666Z" fill="white"/>
</svg>
