<svg width="33" height="32" viewBox="0 0 33 32" fill="none" xmlns="http://www.w3.org/2000/svg">
<path d="M4.94355 14.565L4.54917 14.6625L4.69793 15.2643L5.19034 14.8877L4.94355 14.565ZM5.86439 13.8608L5.9875 13.4737L5.78576 13.4095L5.6176 13.5381L5.86439 13.8608ZM8.69189 14.76L9.09791 14.7464L9.08827 14.4598L8.815 14.3729L8.69189 14.76ZM8.73522 16.0492L8.3292 16.0628L8.33836 16.3353L8.59396 16.4301L8.73522 16.0492ZM10.6527 19.635L10.2482 19.6732L10.2488 19.6788L10.6527 19.635ZM10.1111 22.0183L9.77876 21.7846L9.32868 22.4246H10.1111V22.0183ZM15.1919 22.0183V22.4246H15.219L15.246 22.421L15.1919 22.0183ZM19.5794 19.0933L19.9296 19.2993L19.9719 19.2273L19.9824 19.1444L19.5794 19.0933ZM20.0127 15.67L19.7661 15.3471L19.631 15.4503L19.6097 15.619L20.0127 15.67ZM25.9277 11.1525L26.1743 11.4754L26.3397 11.3491L26.3338 11.1411L25.9277 11.1525ZM19.6986 11.705L19.4791 12.0469L19.6616 12.164L19.8605 12.0776L19.6986 11.705ZM18.8211 11.1417L18.5548 11.4485L18.5769 11.4677L18.6016 11.4835L18.8211 11.1417ZM12.6569 11.1417L12.5554 11.535L12.6664 11.5637L12.776 11.5301L12.6569 11.1417ZM13.1986 9.1375L13.5676 9.30738L13.7222 8.97156L13.4024 8.78608L13.1986 9.1375ZM12.1152 8.50917L12.319 8.15775L12.2588 8.12279L12.1903 8.10991L12.1152 8.50917ZM9.40689 8L9.48195 7.60074L9.36032 7.57788L9.2466 7.62671L9.40689 8ZM4.45606 12.3117L4.15154 12.0428L3.89891 12.3288L4.16869 12.5988L4.45606 12.3117ZM11.6646 21.8907C11.5941 22.1036 11.7096 22.3335 11.9225 22.404C12.1355 22.4745 12.3654 22.359 12.4359 22.146L11.6646 21.8907ZM13.3827 18.2159L13.7526 18.384L13.7529 18.3832L13.3827 18.2159ZM12.9386 16.7967L13.1892 16.477C13.1702 16.4621 13.1499 16.4489 13.1285 16.4376L12.9386 16.7967ZM6.2869 13.85L6.16372 14.2372L6.16433 14.2373L6.2869 13.85ZM5.59356 14.0017L5.85965 14.3087L5.86346 14.3053L5.59356 14.0017ZM8.9519 8.18418L8.72379 7.84802L8.72341 7.84828L8.9519 8.18418ZM9.98106 8.03251L9.94536 8.4372L9.94841 8.43745L9.98106 8.03251ZM13.0686 8.99668L12.8415 9.33354L12.8432 9.3347L13.0686 8.99668ZM13.1119 9.64669L12.8681 9.32169C12.8612 9.32686 12.8545 9.33226 12.8479 9.33787L13.1119 9.64669ZM11.8444 10.73L12.0921 11.052C12.0976 11.0478 12.103 11.0434 12.1083 11.0388L11.8444 10.73ZM11.5411 11.1742L11.1533 11.053C11.1507 11.0612 11.1484 11.0696 11.1464 11.0779L11.5411 11.1742ZM11.3244 12.0625L10.9297 11.9663L10.9292 11.9684L11.3244 12.0625ZM11.6061 12.5934L11.7495 12.2132L11.7403 12.2099L11.6061 12.5934ZM13.1568 13.5963C13.3696 13.6672 13.5997 13.5522 13.6706 13.3393C13.7416 13.1265 13.6266 12.8964 13.4137 12.8255L13.1568 13.5963ZM11.8528 10.7441C11.6333 10.6976 11.4177 10.8378 11.3711 11.0573C11.3246 11.2768 11.4648 11.4924 11.6843 11.539L11.8528 10.7441ZM15.1076 12.2648C15.3271 12.3113 15.5428 12.1711 15.5893 11.9516C15.6358 11.7321 15.4956 11.5165 15.2761 11.47L15.1076 12.2648ZM5.00857 9.55465C4.7842 9.55465 4.60232 9.73653 4.60232 9.9609C4.60232 10.1853 4.7842 10.3671 5.00857 10.3671V9.55465ZM6.69857 10.3671C6.92293 10.3671 7.10482 10.1853 7.10482 9.9609C7.10482 9.73653 6.92293 9.55465 6.69857 9.55465V10.3671ZM12.2697 10.4224C12.0459 10.4389 11.8779 10.6336 11.8943 10.8574C11.9108 11.0811 12.1056 11.2492 12.3293 11.2327L12.2697 10.4224ZM16.8603 10.4917L16.8902 10.8969C16.8999 10.8962 16.9097 10.8951 16.9194 10.8936L16.8603 10.4917ZM18.767 11.0659L19.0702 10.7955C19.0612 10.7854 19.0518 10.7759 19.0419 10.7668L18.767 11.0659ZM19.482 11.8675L19.1788 12.138C19.3002 12.2741 19.4974 12.3126 19.6611 12.2322L19.482 11.8675ZM20.717 11.2609L20.8962 11.6257L20.9066 11.6202L20.717 11.2609ZM24.0212 9.95005L24.1039 10.3478L24.1055 10.3475L24.0212 9.95005ZM25.5378 10.2967L25.8789 10.076C25.8642 10.0534 25.8474 10.0322 25.8285 10.0129L25.5378 10.2967ZM25.7762 10.6651L26.137 10.4784C26.131 10.4668 26.1244 10.4554 26.1172 10.4444L25.7762 10.6651ZM25.7328 11.4884L25.9729 11.8161C25.9896 11.8039 26.0054 11.7903 26.0201 11.7756L25.7328 11.4884ZM20.0237 15.6701L19.7836 15.3423C19.6902 15.4107 19.6304 15.5157 19.6193 15.6309L20.0237 15.6701ZM19.7312 18.6926L19.3268 18.6534C19.3233 18.6895 19.3247 18.7259 19.3308 18.7616L19.7312 18.6926ZM19.157 19.6026L18.8774 19.3078L18.8759 19.3093L19.157 19.6026ZM10.512 21.7855C10.2876 21.7855 10.1057 21.9673 10.1057 22.1917C10.1057 22.4161 10.2876 22.598 10.512 22.598V21.7855ZM7.20766 15.533L7.24116 15.1282L7.20766 15.533ZM10.6381 20.1868L10.2332 20.1533L10.6381 20.1868ZM6.48943 24.2134L6.52293 23.8085L6.48943 24.2134ZM3.05899 19.5597L2.65412 19.5262L3.05899 19.5597ZM28.9093 19.4114L29.3142 19.4449L28.9093 19.4114ZM21.1575 18.77L21.5623 18.8035L21.1575 18.77ZM19.6292 11.4299C19.4774 11.2648 19.2204 11.254 19.0552 11.4059C18.8901 11.5577 18.8793 11.8147 19.0312 11.9799L19.6292 11.4299ZM19.8978 12.9224C20.0497 13.0875 20.3067 13.0983 20.4719 12.9464C20.637 12.7946 20.6478 12.5376 20.4959 12.3724L19.8978 12.9224ZM4.06952 12.407L4.54618 14.6495L5.34093 14.4805L4.86427 12.238L4.06952 12.407ZM5.19034 14.8877L6.11117 14.1835L5.6176 13.5381L4.69677 14.2423L5.19034 14.8877ZM5.74127 14.248L8.56877 15.1472L8.815 14.3729L5.9875 13.4737L5.74127 14.248ZM8.28587 14.7737L8.3292 16.0628L9.14124 16.0355L9.09791 14.7464L8.28587 14.7737ZM8.73522 16.0492C8.59396 16.4301 8.59368 16.43 8.5934 16.4299C8.59332 16.4298 8.59305 16.4297 8.59288 16.4297C8.59255 16.4295 8.59224 16.4294 8.59195 16.4293C8.59138 16.4291 8.5909 16.4289 8.59052 16.4288C8.58975 16.4285 8.58936 16.4283 8.58933 16.4283C8.58928 16.4283 8.59068 16.4289 8.59346 16.43C8.59903 16.4324 8.61006 16.4373 8.62588 16.4452C8.65753 16.4608 8.70822 16.4881 8.77249 16.5303C8.90082 16.6144 9.08391 16.758 9.27844 16.9876C9.66407 17.4426 10.1145 18.2587 10.2483 19.6732L11.0572 19.5968C10.9092 18.0322 10.401 17.0554 9.89826 16.4622C9.64862 16.1677 9.40514 15.9735 9.21795 15.8508C9.12446 15.7895 9.04515 15.7461 8.98624 15.717C8.95678 15.7024 8.9324 15.6913 8.91386 15.6834C8.90459 15.6794 8.89677 15.6762 8.89051 15.6737C8.88738 15.6725 8.88464 15.6714 8.8823 15.6705C8.88113 15.67 8.88006 15.6696 8.87909 15.6693C8.8786 15.6691 8.87814 15.6689 8.87771 15.6687C8.87749 15.6687 8.87718 15.6685 8.87707 15.6685C8.87677 15.6684 8.87648 15.6683 8.73522 16.0492ZM10.6527 19.635C10.2488 19.6788 10.2488 19.6787 10.2488 19.6786C10.2488 19.6786 10.2488 19.6785 10.2488 19.6785C10.2488 19.6783 10.2488 19.6783 10.2488 19.6782C10.2488 19.6781 10.2488 19.678 10.2488 19.6781C10.2488 19.6781 10.2488 19.6785 10.2489 19.6792C10.249 19.6807 10.2493 19.6834 10.2496 19.6873C10.2503 19.6952 10.2514 19.708 10.2526 19.7252C10.255 19.7597 10.2579 19.8118 10.2594 19.8782C10.2625 20.0113 10.2601 20.1993 10.2378 20.4153C10.1924 20.8549 10.0688 21.3722 9.77876 21.7846L10.4434 22.252C10.8466 21.6786 10.9938 21.0043 11.046 20.4987C11.0725 20.242 11.0754 20.0191 11.0717 19.8594C11.0699 19.7793 11.0663 19.7146 11.0632 19.6688C11.0616 19.6459 11.0601 19.6276 11.0589 19.6146C11.0583 19.608 11.0578 19.6028 11.0574 19.5989C11.0572 19.5969 11.057 19.5953 11.0569 19.594C11.0568 19.5934 11.0568 19.5928 11.0567 19.5923C11.0567 19.5921 11.0567 19.5919 11.0567 19.5917C11.0566 19.5916 11.0566 19.5915 11.0566 19.5914C11.0566 19.5913 11.0566 19.5912 10.6527 19.635ZM10.1111 22.4246H15.1919V21.6121H10.1111V22.4246ZM15.1919 22.0183C15.246 22.421 15.2461 22.4209 15.2462 22.4209C15.2463 22.4209 15.2464 22.4209 15.2465 22.4209C15.2467 22.4208 15.247 22.4208 15.2472 22.4208C15.2476 22.4207 15.2481 22.4207 15.2487 22.4206C15.2498 22.4204 15.251 22.4202 15.2525 22.42C15.2554 22.4196 15.259 22.4191 15.2633 22.4184C15.2718 22.4171 15.2832 22.4152 15.2972 22.4127C15.3253 22.4076 15.3641 22.3999 15.4129 22.3888C15.5106 22.3664 15.6483 22.3299 15.8202 22.2719C16.164 22.1558 16.6439 21.9537 17.2126 21.6068L16.7895 20.9132C16.2749 21.2271 15.8502 21.4042 15.5603 21.5021C15.4153 21.551 15.3038 21.5802 15.2315 21.5968C15.1954 21.605 15.169 21.6102 15.1532 21.613C15.1452 21.6145 15.1399 21.6153 15.1374 21.6157C15.1361 21.6159 15.1354 21.616 15.1355 21.616C15.1356 21.616 15.1358 21.616 15.1361 21.6159C15.1363 21.6159 15.1366 21.6159 15.1368 21.6158C15.137 21.6158 15.1371 21.6158 15.1373 21.6158C15.1374 21.6157 15.1375 21.6157 15.1375 21.6157C15.1377 21.6157 15.1378 21.6157 15.1919 22.0183ZM17.2126 21.6068C17.7621 21.2716 18.3148 20.9038 18.789 20.5213C19.2579 20.1432 19.6761 19.7302 19.9296 19.2993L19.2292 18.8874C19.0494 19.1931 18.7201 19.5331 18.2789 19.8889C17.8431 20.2404 17.3234 20.5875 16.7895 20.9132L17.2126 21.6068ZM19.9824 19.1444L20.4158 15.721L19.6097 15.619L19.1764 19.0423L19.9824 19.1444ZM20.2593 15.9929L26.1743 11.4754L25.6811 10.8296L19.7661 15.3471L20.2593 15.9929ZM25.9277 11.1525C26.3338 11.1411 26.3338 11.1409 26.3338 11.1407C26.3338 11.1406 26.3338 11.1405 26.3338 11.1403C26.3338 11.14 26.3338 11.1397 26.3338 11.1394C26.3337 11.1388 26.3337 11.138 26.3337 11.1372C26.3336 11.1355 26.3336 11.1335 26.3335 11.131C26.3332 11.1262 26.3329 11.1199 26.3325 11.1122C26.3316 11.0969 26.3302 11.076 26.3279 11.0505C26.3233 10.9995 26.3151 10.9291 26.3006 10.8462C26.2721 10.6834 26.2166 10.4584 26.1058 10.2361C25.995 10.0134 25.818 9.77285 25.5375 9.61484C25.2502 9.45295 24.8988 9.40298 24.4914 9.48716L24.6558 10.2829C24.9037 10.2316 25.0494 10.2724 25.1388 10.3227C25.2351 10.377 25.3148 10.4702 25.3786 10.5983C25.4425 10.7268 25.4798 10.8694 25.5003 10.9865C25.5103 11.0437 25.5158 11.0913 25.5187 11.1234C25.5201 11.1394 25.5209 11.1513 25.5213 11.1584C25.5215 11.1619 25.5216 11.1642 25.5217 11.1652C25.5217 11.1656 25.5217 11.1658 25.5217 11.1656C25.5217 11.1655 25.5217 11.1653 25.5217 11.165C25.5217 11.1649 25.5217 11.1647 25.5217 11.1646C25.5217 11.1645 25.5216 11.1643 25.5216 11.1643C25.5216 11.1641 25.5216 11.1639 25.9277 11.1525ZM24.4914 9.48716C23.794 9.63125 22.5401 10.1016 21.4939 10.5193C20.9634 10.7311 20.4744 10.9342 20.1182 11.0844C19.94 11.1595 19.7949 11.2214 19.6942 11.2645C19.6438 11.2861 19.6046 11.303 19.5778 11.3146C19.5645 11.3204 19.5542 11.3248 19.5473 11.3278C19.5438 11.3293 19.5412 11.3304 19.5394 11.3312C19.5385 11.3316 19.5378 11.3319 19.5374 11.3321C19.5371 11.3322 19.537 11.3323 19.5368 11.3323C19.5368 11.3324 19.5367 11.3324 19.5367 11.3324C19.5366 11.3324 19.5366 11.3324 19.6986 11.705C19.8605 12.0776 19.8605 12.0776 19.8605 12.0776C19.8605 12.0776 19.8606 12.0775 19.8606 12.0775C19.8607 12.0775 19.8608 12.0774 19.861 12.0773C19.8614 12.0772 19.8621 12.0769 19.8629 12.0765C19.8645 12.0758 19.867 12.0747 19.8703 12.0733C19.877 12.0704 19.8869 12.0661 19.9 12.0605C19.9261 12.0492 19.9647 12.0326 20.0144 12.0113C20.1137 11.9687 20.2573 11.9074 20.4337 11.8331C20.7867 11.6843 21.2707 11.4832 21.7951 11.2739C22.8587 10.8492 24.0423 10.4096 24.6558 10.2829L24.4914 9.48716ZM19.918 11.3631L19.0405 10.7998L18.6016 11.4835L19.4791 12.0469L19.918 11.3631ZM18.8211 11.1417C19.0873 10.8349 19.0872 10.8348 19.0871 10.8346C19.087 10.8346 19.0869 10.8345 19.0868 10.8344C19.0865 10.8342 19.0863 10.834 19.0861 10.8338C19.0856 10.8333 19.085 10.8328 19.0843 10.8323C19.083 10.8312 19.0815 10.8298 19.0796 10.8283C19.0759 10.8251 19.071 10.821 19.065 10.8161C19.053 10.8063 19.0364 10.7931 19.0155 10.777C18.9736 10.7449 18.914 10.7014 18.8377 10.6511C18.6853 10.5505 18.4649 10.422 18.1847 10.3032C17.6238 10.0653 16.8185 9.86501 15.8453 10.0143L15.9685 10.8174C16.7611 10.6958 17.4129 10.8584 17.8676 11.0512C18.0952 11.1477 18.2722 11.2514 18.3904 11.3293C18.4493 11.3682 18.4932 11.4004 18.5211 11.4218C18.535 11.4324 18.5448 11.4403 18.5505 11.445C18.5533 11.4473 18.5551 11.4488 18.5558 11.4494C18.5562 11.4497 18.5563 11.4498 18.5561 11.4496C18.556 11.4496 18.5559 11.4494 18.5556 11.4492C18.5555 11.4491 18.5554 11.449 18.5553 11.4489C18.5552 11.4488 18.5551 11.4487 18.555 11.4487C18.5549 11.4486 18.5548 11.4485 18.8211 11.1417ZM15.8453 10.0143C14.9465 10.1521 14.1212 10.3365 13.5214 10.4861C13.2211 10.561 12.9765 10.6274 12.8064 10.6753C12.7213 10.6992 12.6549 10.7185 12.6093 10.7319C12.5865 10.7386 12.569 10.7438 12.557 10.7475C12.551 10.7493 12.5464 10.7507 12.5431 10.7516C12.5415 10.7521 12.5403 10.7525 12.5394 10.7528C12.539 10.7529 12.5386 10.753 12.5383 10.7531C12.5382 10.7532 12.5381 10.7532 12.538 10.7532C12.538 10.7532 12.5379 10.7532 12.5379 10.7532C12.5378 10.7533 12.5378 10.7533 12.6569 11.1417C12.776 11.5301 12.7759 11.5301 12.7759 11.5301C12.7759 11.5301 12.7759 11.5301 12.7759 11.5301C12.7759 11.5301 12.7759 11.5301 12.776 11.5301C12.7761 11.53 12.7763 11.53 12.7765 11.5299C12.7771 11.5297 12.778 11.5295 12.7793 11.5291C12.7818 11.5283 12.7857 11.5271 12.791 11.5255C12.8016 11.5224 12.8176 11.5176 12.8389 11.5113C12.8814 11.4988 12.9447 11.4804 13.0264 11.4574C13.1897 11.4115 13.4265 11.3472 13.718 11.2745C14.3017 11.1289 15.1014 10.9504 15.9685 10.8174L15.8453 10.0143ZM12.6569 11.1417C12.7584 10.7483 12.7585 10.7483 12.7586 10.7484C12.7587 10.7484 12.7588 10.7484 12.7589 10.7484C12.759 10.7485 12.7591 10.7485 12.7592 10.7485C12.7594 10.7486 12.7596 10.7486 12.7597 10.7486C12.7599 10.7487 12.7599 10.7487 12.7596 10.7486C12.7592 10.7485 12.7578 10.7482 12.7558 10.7476C12.7516 10.7464 12.7444 10.7443 12.7348 10.7414C12.7155 10.7354 12.6874 10.7261 12.6552 10.7137C12.5855 10.6868 12.5185 10.6537 12.4745 10.6206C12.4217 10.5809 12.4666 10.5924 12.4724 10.6672C12.4791 10.7548 12.4211 10.754 12.5317 10.6589L12.0021 10.0428C11.8039 10.2131 11.6403 10.4438 11.6623 10.7295C11.6833 11.0023 11.8643 11.1784 11.9862 11.27C12.1168 11.3683 12.2631 11.4333 12.3631 11.4718C12.4156 11.4921 12.4614 11.5073 12.4948 11.5176C12.5115 11.5228 12.5254 11.5268 12.5357 11.5297C12.5408 11.5311 12.5451 11.5323 12.5484 11.5332C12.5501 11.5336 12.5515 11.534 12.5526 11.5343C12.5532 11.5345 12.5537 11.5346 12.5542 11.5347C12.5544 11.5348 12.5546 11.5348 12.5548 11.5349C12.5549 11.5349 12.5551 11.535 12.5551 11.535C12.5552 11.535 12.5554 11.535 12.6569 11.1417ZM12.5317 10.6589C12.878 10.3612 13.1348 10.0254 13.3038 9.76821C13.3889 9.63867 13.4534 9.52664 13.4971 9.44574C13.519 9.40523 13.5359 9.37235 13.5476 9.34877C13.5535 9.33697 13.5581 9.32749 13.5614 9.32052C13.5631 9.31704 13.5644 9.31419 13.5654 9.31199C13.566 9.31089 13.5664 9.30995 13.5667 9.30918C13.5669 9.3088 13.5671 9.30845 13.5672 9.30815C13.5673 9.308 13.5674 9.30786 13.5674 9.30773C13.5675 9.30767 13.5675 9.30758 13.5675 9.30755C13.5675 9.30746 13.5676 9.30738 13.1986 9.1375C12.8295 8.96763 12.8296 8.96755 12.8296 8.96748C12.8296 8.96745 12.8296 8.96738 12.8297 8.96734C12.8297 8.96725 12.8297 8.96717 12.8298 8.9671C12.8298 8.96697 12.8299 8.96687 12.8299 8.96682C12.83 8.96671 12.8299 8.96676 12.8298 8.96697C12.8296 8.96738 12.8291 8.96843 12.8284 8.97007C12.8268 8.97336 12.824 8.97906 12.8201 8.98697C12.8122 9.00278 12.7997 9.02737 12.7825 9.05913C12.7481 9.12279 12.6954 9.21456 12.6248 9.322C12.4824 9.53873 12.2733 9.8096 12.0021 10.0428L12.5317 10.6589ZM13.4024 8.78608L12.319 8.15775L11.9114 8.86059L12.9947 9.48892L13.4024 8.78608ZM12.1903 8.10991L9.48195 7.60074L9.33183 8.39926L12.0402 8.90842L12.1903 8.10991ZM9.40689 8C9.2466 7.62671 9.24641 7.62679 9.24621 7.62688C9.24613 7.62691 9.24593 7.627 9.24578 7.62706C9.24548 7.62719 9.24515 7.62733 9.2448 7.62749C9.24409 7.62779 9.24327 7.62815 9.24233 7.62856C9.24047 7.62938 9.23816 7.6304 9.2354 7.63164C9.2299 7.6341 9.22262 7.63742 9.21359 7.64163C9.19553 7.65006 9.17047 7.66211 9.13854 7.67823C9.07467 7.71049 8.98336 7.75907 8.86574 7.82774C8.63046 7.96508 8.29004 8.18271 7.85341 8.5107C6.98016 9.16669 5.72246 10.2638 4.15154 12.0428L4.76057 12.5806C6.29882 10.8386 7.51653 9.77997 8.34141 9.16033C8.75385 8.85051 9.06816 8.65038 9.27536 8.52942C9.37897 8.46894 9.45583 8.42823 9.50483 8.40348C9.52933 8.39111 9.54687 8.38272 9.5573 8.37785C9.56252 8.37541 9.56597 8.37386 9.56762 8.37312C9.56845 8.37274 9.56882 8.37258 9.56875 8.37261C9.56872 8.37263 9.56857 8.37269 9.56831 8.37281C9.56818 8.37286 9.56802 8.37293 9.56783 8.37301C9.56774 8.37305 9.56757 8.37312 9.56753 8.37314C9.56736 8.37321 9.56718 8.37329 9.40689 8ZM4.16869 12.5988L4.17952 12.6097L4.75426 12.0354L4.74343 12.0245L4.16869 12.5988ZM10.2465 19.8733C10.2465 21.9392 8.72193 23.5512 6.91529 23.5512V24.3637C9.23699 24.3637 11.059 22.3186 11.059 19.8733H10.2465ZM6.91529 23.5512C5.10866 23.5512 3.58405 21.9392 3.58405 19.8733H2.77155C2.77155 22.3186 4.5936 24.3637 6.91529 24.3637V23.5512ZM3.58405 19.8733C3.58405 17.8074 5.10867 16.1954 6.91529 16.1954V15.3829C4.59359 15.3829 2.77155 17.428 2.77155 19.8733H3.58405ZM6.91529 16.1954C8.72192 16.1954 10.2465 17.8074 10.2465 19.8733H11.059C11.059 17.428 9.23699 15.3829 6.91529 15.3829V16.1954ZM28.349 19.1367C28.349 21.2026 26.8244 22.8146 25.0178 22.8146V23.6271C27.3394 23.6271 29.1615 21.582 29.1615 19.1367H28.349ZM25.0178 22.8146C23.2111 22.8146 21.6865 21.2026 21.6865 19.1367H20.874C20.874 21.582 22.6961 23.6271 25.0178 23.6271V22.8146ZM21.6865 19.1367C21.6865 17.0708 23.2111 15.4588 25.0178 15.4588V14.6463C22.6961 14.6463 20.874 16.6914 20.874 19.1367H21.6865ZM25.0178 15.4588C26.8244 15.4588 28.349 17.0708 28.349 19.1367H29.1615C29.1615 16.6914 27.3395 14.6463 25.0178 14.6463V15.4588ZM12.0502 22.0183C12.4359 22.146 12.4359 22.146 12.4359 22.146C12.4359 22.146 12.4359 22.1459 12.4359 22.1459C12.436 22.1458 12.436 22.1457 12.4361 22.1455C12.4362 22.1451 12.4364 22.1445 12.4366 22.1438C12.4372 22.1422 12.4379 22.14 12.4389 22.1369C12.4409 22.1309 12.4439 22.1219 12.4478 22.1101C12.4556 22.0866 12.4671 22.052 12.4819 22.0076C12.5113 21.919 12.5538 21.7917 12.6056 21.637C12.7092 21.3275 12.8501 20.9089 12.9994 20.4719C13.3024 19.5846 13.6276 18.6589 13.7526 18.384L13.0129 18.0478C12.867 18.3686 12.5259 19.3442 12.2305 20.2092C12.0805 20.6483 11.939 21.0686 11.8351 21.379C11.7831 21.5343 11.7405 21.6621 11.7109 21.7511C11.6961 21.7957 11.6845 21.8305 11.6766 21.8542C11.6727 21.8661 11.6697 21.8752 11.6677 21.8813C11.6667 21.8844 11.6659 21.8867 11.6654 21.8883C11.6651 21.889 11.6649 21.8896 11.6648 21.89C11.6647 21.8902 11.6647 21.8904 11.6646 21.8905C11.6646 21.8905 11.6646 21.8906 11.6646 21.8906C11.6646 21.8906 11.6646 21.8907 12.0502 22.0183ZM13.7529 18.3832C14.0065 17.8223 13.8383 17.3216 13.6418 16.9985C13.5437 16.8373 13.4334 16.71 13.3489 16.6234C13.3062 16.5797 13.2689 16.5451 13.2411 16.5206C13.2272 16.5083 13.2156 16.4985 13.2068 16.4912C13.2024 16.4875 13.1986 16.4845 13.1957 16.4821C13.1942 16.481 13.1929 16.4799 13.1918 16.4791C13.1913 16.4786 13.1908 16.4782 13.1904 16.4779C13.1901 16.4777 13.1899 16.4775 13.1897 16.4774C13.1896 16.4773 13.1895 16.4772 13.1894 16.4772C13.1893 16.4771 13.1892 16.477 12.9386 16.7967C12.688 17.1164 12.6878 17.1163 12.6877 17.1162C12.6877 17.1162 12.6876 17.1161 12.6875 17.1161C12.6873 17.1159 12.6872 17.1158 12.6871 17.1157C12.6868 17.1155 12.6866 17.1154 12.6864 17.1152C12.6861 17.115 12.686 17.1149 12.686 17.1149C12.6861 17.115 12.6868 17.1156 12.6882 17.1167C12.691 17.119 12.6962 17.1234 12.7035 17.1299C12.7182 17.1428 12.7407 17.1635 12.7675 17.191C12.8222 17.247 12.89 17.3261 12.9477 17.4209C13.0626 17.6097 13.1165 17.8185 13.0125 18.0485L13.7529 18.3832ZM13.1285 16.4376C9.56537 14.5525 7.28953 13.7412 6.40947 13.4627L6.16433 14.2373C6.99594 14.5005 9.22676 15.2926 12.7486 17.1558L13.1285 16.4376ZM6.41008 13.4629C6.0332 13.343 5.62424 13.4309 5.32366 13.698L5.86346 14.3053C5.95288 14.2258 6.06393 14.2054 6.16372 14.2372L6.41008 13.4629ZM5.32749 13.6947L4.67749 14.258L5.20962 14.872L5.85963 14.3087L5.32749 13.6947ZM4.94355 14.565C5.33793 14.4675 5.33793 14.4675 5.33793 14.4675C5.33793 14.4675 5.33793 14.4675 5.33792 14.4675C5.33791 14.4674 5.33789 14.4673 5.33786 14.4672C5.33781 14.467 5.33773 14.4667 5.33762 14.4662C5.3374 14.4654 5.33707 14.464 5.33663 14.4622C5.33574 14.4587 5.33443 14.4533 5.3327 14.4463C5.32925 14.4323 5.32418 14.4116 5.31771 14.3851C5.30477 14.3322 5.28627 14.2561 5.26405 14.1638C5.21959 13.979 5.16039 13.7297 5.10126 13.4711C5.04201 13.2118 4.98341 12.9457 4.93984 12.7263C4.91801 12.6164 4.90053 12.5212 4.88868 12.4459C4.88276 12.4083 4.8786 12.3779 4.87601 12.3545C4.87318 12.3292 4.87314 12.3203 4.87314 12.3225H4.06064C4.06064 12.4499 4.10102 12.6737 4.14291 12.8846C4.1887 13.1151 4.24928 13.39 4.30919 13.6521C4.36923 13.9148 4.42919 14.1672 4.4741 14.3539C4.49657 14.4472 4.5153 14.5242 4.52843 14.578C4.535 14.6048 4.54016 14.6259 4.5437 14.6403C4.54547 14.6475 4.54682 14.653 4.54775 14.6567C4.54821 14.6586 4.54856 14.66 4.5488 14.661C4.54892 14.6615 4.54901 14.6618 4.54907 14.6621C4.5491 14.6622 4.54913 14.6623 4.54914 14.6624C4.54915 14.6624 4.54916 14.6624 4.54916 14.6625C4.54917 14.6625 4.54917 14.6625 4.94355 14.565ZM4.87314 12.3225C4.87314 12.4102 4.83893 12.4581 4.85514 12.4278C4.86228 12.4144 4.87921 12.3869 4.91131 12.3429C4.97463 12.2561 5.07369 12.137 5.20705 11.9894C5.47213 11.6961 5.84963 11.3159 6.28898 10.9027C7.16937 10.0747 8.27328 9.13713 9.18039 8.52008L8.72341 7.84828C7.76718 8.49873 6.62859 9.46787 5.73232 10.3109C5.28333 10.7331 4.88895 11.1296 4.60424 11.4446C4.4627 11.6013 4.34239 11.7442 4.25505 11.8638C4.21183 11.9231 4.17062 11.9848 4.13844 12.045C4.11534 12.0883 4.06064 12.1942 4.06064 12.3225H4.87314ZM9.18001 8.52034C9.34702 8.40701 9.55792 8.40301 9.94536 8.43719L10.0168 7.62784C9.66754 7.59702 9.16344 7.54968 8.72379 7.84802L9.18001 8.52034ZM9.94841 8.43745C10.5972 8.48977 11.9645 8.74229 12.8415 9.33353L13.2957 8.65983C12.2443 7.95107 10.7083 7.68359 10.0137 7.62758L9.94841 8.43745ZM12.8432 9.3347C12.8457 9.33639 12.8476 9.33839 12.8491 9.34105C12.8509 9.34421 12.8516 9.34725 12.8517 9.34878C12.8518 9.35022 12.8513 9.34701 12.8541 9.3403C12.8555 9.33687 12.8577 9.3331 12.8605 9.32944C12.8634 9.32572 12.8662 9.32315 12.8681 9.32169L13.3556 9.97169C13.8327 9.61391 13.7157 8.93987 13.2939 8.65866L12.8432 9.3347ZM12.8479 9.33787L11.5804 10.4212L12.1083 11.0388L13.3758 9.95551L12.8479 9.33787ZM11.5967 10.408C11.384 10.5716 11.2302 10.807 11.1533 11.053L11.9288 11.2954C11.9603 11.1947 12.0231 11.1051 12.0921 11.052L11.5967 10.408ZM11.1464 11.0779L10.9297 11.9663L11.7191 12.1588L11.9357 11.2705L11.1464 11.0779ZM10.9292 11.9684C10.8292 12.3885 11.0492 12.8289 11.4719 12.9768L11.7403 12.2099C11.732 12.207 11.7267 12.2024 11.7228 12.195C11.7187 12.1871 11.7154 12.1743 11.7196 12.1566L10.9292 11.9684ZM11.4626 12.9734C12.0294 13.1873 12.5618 13.3979 13.1568 13.5963L13.4137 12.8255C12.8387 12.6338 12.331 12.4327 11.7495 12.2133L11.4626 12.9734ZM11.6843 11.539L15.1076 12.2648L15.2761 11.47L11.8528 10.7441L11.6843 11.539ZM5.00857 10.3671H6.69857V9.55465H5.00857V10.3671ZM12.3293 11.2327L16.8902 10.8969L16.8305 10.0866L12.2697 10.4224L12.3293 11.2327ZM16.8603 10.4917C16.9194 10.8936 16.9193 10.8937 16.9191 10.8937C16.9191 10.8937 16.919 10.8937 16.9189 10.8937C16.9187 10.8938 16.9186 10.8938 16.9184 10.8938C16.9182 10.8938 16.918 10.8939 16.9178 10.8939C16.9176 10.8939 16.9175 10.8939 16.9178 10.8939C16.9182 10.8938 16.9197 10.8936 16.9221 10.8933C16.9269 10.8928 16.9355 10.8918 16.9476 10.8906C16.9718 10.8883 17.0097 10.8854 17.0585 10.8839C17.1567 10.8807 17.2966 10.883 17.458 10.9051C17.7838 10.9496 18.1721 11.071 18.4921 11.365L19.0419 10.7668C18.5602 10.3241 17.9951 10.1584 17.568 10.1C17.353 10.0706 17.1665 10.0675 17.0325 10.0718C16.9652 10.074 16.9105 10.078 16.8711 10.0817C16.8514 10.0836 16.8355 10.0854 16.8238 10.0868C16.8179 10.0875 16.813 10.0882 16.8093 10.0887C16.8074 10.0889 16.8058 10.0891 16.8044 10.0893C16.8037 10.0894 16.8031 10.0895 16.8026 10.0896C16.8023 10.0896 16.8021 10.0897 16.8019 10.0897C16.8017 10.0897 16.8016 10.0897 16.8015 10.0897C16.8014 10.0898 16.8012 10.0898 16.8603 10.4917ZM18.4638 11.3363L19.1788 12.138L19.7852 11.5971L19.0702 10.7955L18.4638 11.3363ZM19.6611 12.2322L20.8961 11.6255L20.5379 10.8962L19.3029 11.5029L19.6611 12.2322ZM20.717 11.2609C20.9066 11.6202 20.9066 11.6202 20.9066 11.6202C20.9066 11.6202 20.9066 11.6202 20.9066 11.6202C20.9066 11.6202 20.9066 11.6201 20.9067 11.6201C20.9069 11.62 20.9071 11.6199 20.9075 11.6197C20.9083 11.6193 20.9096 11.6186 20.9112 11.6177C20.9146 11.6159 20.9198 11.6132 20.9268 11.6096C20.9407 11.6024 20.9616 11.5916 20.9888 11.5776C21.0432 11.5497 21.1229 11.5093 21.2229 11.4598C21.4232 11.3607 21.7042 11.2257 22.0265 11.0822C22.6788 10.7917 23.4717 10.4793 24.1039 10.3478L23.9384 9.55232C23.2164 9.7025 22.3572 10.0455 21.696 10.34C21.3615 10.4889 21.0704 10.6288 20.8627 10.7315C20.7588 10.7829 20.6756 10.8251 20.6181 10.8546C20.5893 10.8693 20.567 10.8809 20.5516 10.8889C20.544 10.8929 20.5381 10.896 20.534 10.8981C20.532 10.8992 20.5304 10.9 20.5293 10.9006C20.5287 10.9009 20.5283 10.9011 20.528 10.9013C20.5278 10.9014 20.5277 10.9014 20.5276 10.9015C20.5275 10.9015 20.5275 10.9015 20.5275 10.9016C20.5274 10.9016 20.5274 10.9016 20.717 11.2609ZM24.1055 10.3475C24.2483 10.3172 24.4678 10.2953 24.6904 10.3266C24.9122 10.3578 25.1071 10.437 25.2471 10.5805L25.8285 10.0129C25.5244 9.70141 25.1397 9.56935 24.8036 9.52204C24.4682 9.47482 24.1515 9.50712 23.9369 9.55265L24.1055 10.3475ZM25.1967 10.5174L25.4351 10.8857L26.1172 10.4444L25.8789 10.076L25.1967 10.5174ZM25.4153 10.8517C25.461 10.9401 25.4893 10.9924 25.5111 11.0426C25.5313 11.0891 25.5323 11.1043 25.5322 11.1032C25.5316 11.0947 25.5348 11.0879 25.5321 11.0936C25.5265 11.1055 25.5063 11.1403 25.4456 11.2011L26.0201 11.7756C26.227 11.5687 26.3642 11.3321 26.3424 11.0422C26.3328 10.9151 26.2938 10.805 26.2562 10.7185C26.2201 10.6356 26.1725 10.5471 26.137 10.4784L25.4153 10.8517ZM25.4928 11.1606L19.7836 15.3423L20.2637 15.9978L25.9729 11.8161L25.4928 11.1606ZM19.6193 15.6309L19.3268 18.6534L20.1355 18.7317L20.428 15.7092L19.6193 15.6309ZM19.7312 18.6926C19.3308 18.7616 19.3307 18.7611 19.3307 18.7607C19.3306 18.7606 19.3306 18.7601 19.3305 18.7598C19.3304 18.7593 19.3303 18.7587 19.3302 18.7581C19.33 18.757 19.3299 18.7558 19.3297 18.7547C19.3293 18.7525 19.329 18.7503 19.3287 18.7482C19.3282 18.744 19.3277 18.7401 19.3274 18.7364C19.3266 18.7291 19.3263 18.7229 19.3261 18.7178C19.3259 18.7075 19.3265 18.7021 19.3266 18.7017C19.3267 18.7004 19.3244 18.7215 19.3058 18.7653C19.2681 18.854 19.1628 19.0371 18.8775 19.3078L19.4365 19.8973C19.7795 19.5721 19.9613 19.3003 20.0536 19.083C20.1 18.9737 20.1234 18.8791 20.133 18.8003C20.1378 18.761 20.1391 18.7264 20.1384 18.6967C20.138 18.6818 20.1371 18.6682 20.1359 18.656C20.1353 18.6499 20.1346 18.6442 20.1338 18.6387C20.1335 18.636 20.1331 18.6334 20.1327 18.6309C20.1325 18.6296 20.1323 18.6284 20.1321 18.6271C20.132 18.6265 20.1319 18.6259 20.1318 18.6253C20.1318 18.625 20.1317 18.6246 20.1316 18.6244C20.1316 18.624 20.1315 18.6235 19.7312 18.6926ZM18.8759 19.3093C18.4831 19.6856 17.8288 20.3185 17.1406 20.8577C16.7965 21.1273 16.4538 21.3655 16.1399 21.5346C15.8166 21.7087 15.5671 21.7855 15.3978 21.7855V22.598C15.7702 22.598 16.1639 22.4445 16.5252 22.2499C16.8958 22.0504 17.279 21.7815 17.6417 21.4972C18.3673 20.9287 19.0508 20.267 19.4381 19.8959L18.8759 19.3093ZM15.3978 21.7855H10.512V22.598H15.3978V21.7855ZM7.17416 15.9379C8.99363 16.0885 10.4175 17.9265 10.2332 20.1533L11.043 20.2203C11.2554 17.653 9.60752 15.324 7.24116 15.1282L7.17416 15.9379ZM10.2332 20.1533C10.049 22.38 8.3424 23.9591 6.52293 23.8085L6.45593 24.6182C8.82229 24.814 10.8306 22.7875 11.043 20.2203L10.2332 20.1533ZM6.52293 23.8085C4.70346 23.658 3.27961 21.8199 3.46385 19.5932L2.65412 19.5262C2.4417 22.0934 4.08958 24.4224 6.45593 24.6182L6.52293 23.8085ZM3.46385 19.5932C3.6481 17.3664 5.35469 15.7874 7.17416 15.9379L7.24116 15.1282C4.87481 14.9324 2.86654 16.9589 2.65412 19.5262L3.46385 19.5932ZM25.3662 15.069C27.2343 15.2236 28.6925 17.1046 28.5045 19.3779L29.3142 19.4449C29.5306 16.8288 27.8462 14.459 25.4332 14.2593L25.3662 15.069ZM28.5045 19.3779C28.3164 21.6512 26.5688 23.267 24.7006 23.1124L24.6336 23.9221C27.0467 24.1218 29.0977 22.061 29.3142 19.4449L28.5045 19.3779ZM24.7006 23.1124C22.8325 22.9578 21.3743 21.0768 21.5623 18.8035L20.7526 18.7365C20.5362 21.3526 22.2206 23.7225 24.6336 23.9221L24.7006 23.1124ZM21.5623 18.8035C21.7504 16.5302 23.498 14.9145 25.3662 15.069L25.4332 14.2593C23.0201 14.0597 20.9691 16.1204 20.7526 18.7365L21.5623 18.8035ZM19.0312 11.9799L19.8978 12.9224L20.4959 12.3724L19.6292 11.4299L19.0312 11.9799Z" fill="#75848D"/>
</svg>
