<svg width="20" height="20" viewBox="0 0 20 20" fill="none" xmlns="http://www.w3.org/2000/svg">
<path d="M12.9417 14.9417L13.9167 15.7083C14.0417 15.8083 14.2167 15.7833 14.325 15.6667L15.9416 13.7" fill="white"/>
<path d="M12.9417 14.9417L13.9167 15.7083C14.0417 15.8083 14.2167 15.7833 14.325 15.6667L15.9416 13.7" stroke="#616364" stroke-width="1.3" stroke-linecap="round" stroke-linejoin="round"/>
<path d="M14.5167 17.7583C16.2932 17.7583 17.7333 16.3555 17.7333 14.625C17.7333 12.8945 16.2932 11.4916 14.5167 11.4916C12.7401 11.4916 11.3 12.8945 11.3 14.625C11.3 16.3555 12.7401 17.7583 14.5167 17.7583Z" stroke="#616364" stroke-width="1.3" stroke-linecap="round" stroke-linejoin="round"/>
<path d="M15.8333 10.0417V4.01668C15.8333 3.08335 15.075 2.32501 14.1417 2.32501H5.75002C4.81668 2.32501 4.05835 3.08335 4.05835 4.01668V14.9167C4.05835 15.85 4.81668 16.6083 5.75002 16.6083H10.2" stroke="#616364" stroke-width="1.3" stroke-linecap="round" stroke-linejoin="round"/>
<path d="M6.09998 5.57501H13.7916" stroke="#616364" stroke-width="1.3" stroke-linecap="round" stroke-linejoin="round"/>
<path d="M6.09998 8.82501H12.375" stroke="#616364" stroke-width="1.3" stroke-linecap="round" stroke-linejoin="round"/>
<path d="M6.09998 12.075H9.14164" stroke="#616364" stroke-width="1.3" stroke-linecap="round" stroke-linejoin="round"/>
</svg>
