<svg width="20" height="20" viewBox="0 0 20 20" fill="none" xmlns="http://www.w3.org/2000/svg">
<path d="M11.1834 17.1583H6.24172C5.30838 17.1583 4.55005 16.4 4.55005 15.4667V4.01668C4.55005 3.08335 5.30838 2.32501 6.24172 2.32501H14.6334C15.5667 2.32501 16.325 3.08335 16.325 4.01668V10.2833" fill="white"/>
<path d="M11.1834 17.1583H6.24172C5.30838 17.1583 4.55005 16.4 4.55005 15.4667V4.01668C4.55005 3.08335 5.30838 2.32501 6.24172 2.32501H14.6334C15.5667 2.32501 16.325 3.08335 16.325 4.01668V10.2833" stroke="#616364" stroke-width="1.3" stroke-linecap="round" stroke-linejoin="round"/>
<path d="M6.59167 5.57501H14.2833" stroke="#616364" stroke-width="1.3" stroke-linecap="round" stroke-linejoin="round"/>
<path d="M6.59167 8.82501H14.2833" stroke="#616364" stroke-width="1.3" stroke-linecap="round" stroke-linejoin="round"/>
<path d="M6.59167 12.075H9.63334" stroke="#616364" stroke-width="1.3" stroke-linecap="round" stroke-linejoin="round"/>
<path d="M15.1167 13.9833C14.7917 13.8917 14.4667 13.7917 14.175 13.6917C13.775 13.5417 13.5917 13.4333 13.5917 13.1083C13.5917 12.625 14.05 12.4667 14.45 12.4667C14.9833 12.4667 15.2917 12.675 15.5 12.8917C15.65 13.0417 15.8 13.1 15.9417 13.1C16.225 13.1 16.4417 12.8583 16.4417 12.5667C16.4417 12.4333 16.3917 12.2833 16.2833 12.15C16.0417 11.8333 15.525 11.6167 14.825 11.5833V11.0167C14.825 10.825 14.675 10.675 14.4833 10.675C14.2917 10.675 14.1417 10.825 14.1417 11.0167V11.5833C13.075 11.6917 12.4583 12.2667 12.4583 13.1333C12.4583 14.35 13.3417 14.6083 14.2083 14.85C15.0333 15.0833 15.425 15.2667 15.425 15.75C15.425 16.2667 14.8667 16.45 14.4583 16.45C14.225 16.45 13.9833 16.4167 13.7667 16.3333C13.55 16.25 13.35 16.125 13.2083 15.9417C13.125 15.8333 13.075 15.7 13 15.5833C12.925 15.4667 12.8083 15.4083 12.675 15.4083C12.4417 15.4083 12.2417 15.625 12.275 15.8583C12.2917 16.0083 12.375 16.1333 12.45 16.2583C12.525 16.3833 12.6083 16.5083 12.7 16.625C12.725 16.65 12.75 16.6833 12.775 16.7083C12.9417 16.875 13.1333 17.0083 13.3417 17.1083C13.55 17.2083 13.7917 17.275 14.0333 17.3083C14.0667 17.3083 14.1083 17.3167 14.1417 17.325V17.825C14.1417 18.0167 14.2917 18.1667 14.4833 18.1667C14.675 18.1667 14.825 18.0167 14.825 17.825V17.325C15.9667 17.175 16.5833 16.4333 16.5833 15.6583C16.5833 14.625 16 14.2583 15.1167 13.9833Z" fill="#616364"/>
</svg>
