<svg width="21" height="21" viewBox="0 0 21 21" fill="none" xmlns="http://www.w3.org/2000/svg">
<path fill-rule="evenodd" clip-rule="evenodd" d="M10.5 1.09375C6.75485 1.09375 3.71878 4.12982 3.71878 7.875V8.49109C3.71878 9.1009 3.53828 9.69706 3.20002 10.2044L2.19499 11.712C1.02853 13.4617 1.91903 15.8399 3.9478 16.3932C4.60896 16.5736 5.2757 16.7261 5.94631 16.8508L5.94797 16.8553C6.62084 18.6507 8.41924 19.9062 10.5 19.9062C12.5807 19.9062 14.3791 18.6507 15.052 16.8553L15.0536 16.8508C15.7243 16.7261 16.3911 16.5736 17.0523 16.3932C19.081 15.8399 19.9715 13.4617 18.8051 11.712L17.8 10.2044C17.4618 9.69706 17.2813 9.1009 17.2813 8.49109V7.875C17.2813 4.12982 14.2452 1.09375 10.5 1.09375ZM13.4544 17.0948C11.4918 17.3293 9.50814 17.3293 7.54555 17.0948C8.16764 17.9887 9.24964 18.5938 10.5 18.5938C11.7503 18.5938 12.8323 17.9887 13.4544 17.0948ZM5.03128 7.875C5.03128 4.85469 7.47973 2.40625 10.5 2.40625C13.5203 2.40625 15.9688 4.85469 15.9688 7.875V8.49109C15.9688 9.36002 16.226 10.2095 16.708 10.9325L17.713 12.44C18.3825 13.4443 17.8714 14.8094 16.7069 15.127C12.6432 16.2353 8.35686 16.2353 4.29314 15.127C3.12866 14.8094 2.61753 13.4443 3.28706 12.44L4.29209 10.9325C4.77408 10.2095 5.03128 9.36002 5.03128 8.49109V7.875Z" fill="#616364"/>
</svg>
