<svg width="22" height="21" viewBox="0 0 22 21" fill="none" xmlns="http://www.w3.org/2000/svg">
<path d="M17.125 7.65625C15.3138 7.65625 13.8438 6.18625 13.8438 4.375C13.8438 2.56375 15.3138 1.09375 17.125 1.09375C18.9362 1.09375 20.4062 2.56375 20.4062 4.375C20.4062 6.18625 18.9362 7.65625 17.125 7.65625ZM17.125 2.40625C16.04 2.40625 15.1562 3.29 15.1562 4.375C15.1562 5.46 16.04 6.34375 17.125 6.34375C18.21 6.34375 19.0938 5.46 19.0938 4.375C19.0938 3.29 18.21 2.40625 17.125 2.40625Z" fill="#BEC1C3"/>
<path d="M11 19.9062C5.81125 19.9062 1.59375 15.6888 1.59375 10.5C1.59375 5.31125 5.81125 1.09375 11 1.09375C11.6388 1.09375 12.2775 1.155 12.8988 1.28625C13.2575 1.35625 13.485 1.70625 13.4062 2.065C13.3363 2.42375 12.9862 2.65125 12.6362 2.5725C12.1025 2.45875 11.5513 2.40625 11 2.40625C6.5375 2.40625 2.90625 6.0375 2.90625 10.5C2.90625 14.9625 6.5375 18.5938 11 18.5938C15.4625 18.5938 19.0938 14.9625 19.0938 10.5C19.0938 9.9575 19.0413 9.415 18.9362 8.89C18.8662 8.53125 19.0938 8.19 19.4525 8.12C19.8112 8.04125 20.1525 8.2775 20.2225 8.63625C20.345 9.24875 20.4062 9.87875 20.4062 10.5087C20.4062 15.6888 16.1888 19.9062 11 19.9062Z" fill="#BEC1C3"/>
<path d="M11.6938 11.9589V14V14.1H11.5938H10.909H10.809V14V11.9564C10.7329 11.9559 10.6533 11.9555 10.5744 11.9551C10.3332 11.954 10.0987 11.9529 9.9902 11.9495L7.71494 11.9545C7.50501 11.9651 7.2898 11.9178 7.09166 11.8049L7.09071 11.8044C6.71145 11.5829 6.51241 11.1817 6.52562 10.7762C6.52564 10.7757 6.52566 10.7751 6.52567 10.7746L6.62562 10.778L11.6938 11.9589ZM11.6938 11.9589C11.7691 11.9584 11.848 11.958 11.9263 11.9577C12.1669 11.9565 12.4019 11.9554 12.5101 11.952L14.7854 11.957C14.9975 11.9676 15.2132 11.9205 15.4072 11.8069L15.4074 11.8068C15.7836 11.5854 15.9887 11.1839 15.9721 10.7764L15.9721 10.7757C15.9694 10.7193 15.964 10.6685 15.9588 10.6266L15.9589 10.6266L15.958 10.6214C15.8751 10.1579 15.712 9.69965 15.4636 9.26749L15.4634 9.2671C15.2115 8.83355 14.8446 8.42307 14.4832 8.1211L14.4833 8.121L14.4791 8.11783C14.2373 7.93645 13.9389 7.8576 13.6432 7.90208C13.5092 7.58958 13.245 7.3299 12.9448 7.20123L12.9448 7.20112L12.9403 7.19943C12.4133 7.00308 11.8353 6.9 11.2476 6.9C10.6604 6.9 10.0912 7.0029 9.56553 7.19078C9.51433 7.20713 9.46123 7.23707 9.41601 7.26322C9.14936 7.39745 8.94372 7.63162 8.83706 7.91099L11.6938 11.9589ZM11.2527 7.78231C11.7238 7.78231 12.1763 7.86261 12.5948 8.00981L12.6545 8.03482C12.7751 8.08541 12.8559 8.20141 12.8559 8.33682C12.8559 8.41041 12.8331 8.47373 12.7937 8.52888L12.7934 8.52863L12.7887 8.53667L11.3533 11.0006L11.3529 11.0003L11.349 11.0088C11.3324 11.0445 11.2944 11.0697 11.2527 11.0697C11.2064 11.0697 11.1649 11.0422 11.1456 11.0024L11.1459 11.0023L11.1421 10.9957L9.71685 8.53437L9.71746 8.53401L9.71031 8.52448C9.67207 8.4735 9.65197 8.40694 9.65197 8.33682C9.65197 8.20904 9.72775 8.09538 9.83632 8.04228C10.3043 7.86792 10.7662 7.78231 11.2527 7.78231ZM7.8064 9.71109C8.00101 9.37473 8.24229 9.08587 8.51862 8.84874H8.52332L8.55077 8.82664C8.61936 8.77143 8.72797 8.76075 8.82155 8.81226C8.87067 8.8429 8.90417 8.88104 8.92543 8.92711L8.92508 8.92727L8.92949 8.93495L10.0818 10.944L10.0817 10.944L10.0842 10.9479C10.1004 10.9733 10.103 11.0021 10.0917 11.0287C10.0727 11.054 10.0415 11.0669 10.0173 11.0649L10.0174 11.0646L10.0092 11.0646L7.69182 11.0697L7.69182 11.0691L7.681 11.0703C7.63412 11.0755 7.58357 11.0648 7.54288 11.0394L7.54293 11.0393L7.5389 11.037C7.456 10.9904 7.40901 10.8975 7.41255 10.802C7.48424 10.4075 7.60922 10.047 7.80608 9.71163L7.8064 9.71109ZM13.959 8.82807L13.9694 8.83609C14.2524 9.07595 14.5037 9.36919 14.7014 9.71091C14.8943 10.0479 15.0239 10.409 15.0905 10.8024C15.0962 10.897 15.0499 10.9901 14.9665 11.037L14.9664 11.0369L14.9625 11.0394C14.9222 11.0646 14.8716 11.0756 14.8215 11.0702L14.8215 11.0697L14.811 11.0697L12.4937 11.0646L12.4937 11.0643L12.4852 11.065C12.465 11.0667 12.4342 11.0549 12.4144 11.0262C12.4009 11.0015 12.4024 10.9755 12.4194 10.9506L12.4197 10.9507L12.4235 10.9441L13.5784 8.93504L13.579 8.93541L13.5838 8.92416C13.6022 8.88053 13.6345 8.84304 13.6838 8.81226C13.7765 8.76126 13.8839 8.77045 13.959 8.82807Z" fill="#BEC1C3" stroke="black" stroke-width="0.2"/>
</svg>
