<svg width="24" height="24" viewBox="0 0 24 24" fill="none" xmlns="http://www.w3.org/2000/svg">
<path d="M20.4398 8.0498H3.61979C3.01779 8.0498 2.52979 8.53781 2.52979 9.1398V14.9598C2.52979 15.5618 3.01779 16.0498 3.61979 16.0498H20.4398C21.0418 16.0498 21.5298 15.5618 21.5298 14.9598V9.1398C21.5298 8.53781 21.0418 8.0498 20.4398 8.0498Z" stroke="#BEC1C3" stroke-width="1.5" stroke-miterlimit="10"/>
<path d="M21.53 2.53027V4.56027C21.53 5.16027 21.04 5.65027 20.44 5.65027H3.63004C3.03004 5.65027 2.54004 5.16027 2.54004 4.56027V2.59027" stroke="#BEC1C3" stroke-width="1.5" stroke-miterlimit="10" stroke-linecap="round"/>
<path d="M2.52979 21.58V19.55C2.52979 18.95 3.01979 18.46 3.61979 18.46H20.4298C21.0298 18.46 21.5198 18.95 21.5198 19.55V21.52" stroke="#BEC1C3" stroke-width="1.5" stroke-miterlimit="10" stroke-linecap="round"/>
</svg>
