<svg width="20" height="21" viewBox="0 0 20 21" fill="none" xmlns="http://www.w3.org/2000/svg">
<path fill-rule="evenodd" clip-rule="evenodd" d="M9.99984 16.9727C13.6817 16.9727 16.6665 13.9879 16.6665 10.306C16.6665 6.62409 13.6817 3.63932 9.99984 3.63932C6.31794 3.63932 3.33317 6.62409 3.33317 10.306C3.33317 13.9879 6.31794 16.9727 9.99984 16.9727ZM9.99984 18.6393C14.6022 18.6393 18.3332 14.9084 18.3332 10.306C18.3332 5.70362 14.6022 1.97266 9.99984 1.97266C5.39746 1.97266 1.6665 5.70362 1.6665 10.306C1.6665 14.9084 5.39746 18.6393 9.99984 18.6393Z" fill="#818080"/>
<path fill-rule="evenodd" clip-rule="evenodd" d="M9.27747 8.22261C9.04701 8.62099 8.53724 8.75713 8.13886 8.52668C7.74047 8.29622 7.60434 7.78645 7.83479 7.38807C8.26579 6.64299 9.07342 6.13867 9.99982 6.13867C11.3805 6.13867 12.4998 7.25796 12.4998 8.63867C12.4998 9.55344 11.9387 10.3003 11.2498 10.722C10.6965 11.0607 11.0415 11.972 9.99764 11.972C9.5374 11.972 9.16431 11.5989 9.16431 11.1387C9.16431 11.1094 9.16581 11.0805 9.16876 11.052C9.19187 10.6113 9.38839 10.2527 9.60236 9.99196C9.82833 9.71657 10.1254 9.49176 10.3526 9.35671C11.6165 8.60534 10.075 7.06817 9.27747 8.22261ZM9.99764 12.8053C9.5374 12.8053 9.16431 13.1784 9.16431 13.6387C9.16431 14.0989 9.5374 14.472 9.99764 14.472C10.4579 14.472 10.831 14.0989 10.831 13.6387C10.831 13.1784 10.4579 12.8053 9.99764 12.8053Z" fill="#818080"/>
</svg>
