<svg width="20" height="20" viewBox="0 0 20 20" fill="none" xmlns="http://www.w3.org/2000/svg">
<path d="M10 11.6654V3.33203V11.6654Z" fill="white"/>
<path d="M6.66667 5.83203H4.16667C3.72464 5.83203 3.30072 6.00763 2.98816 6.32019C2.67559 6.63275 2.5 7.05667 2.5 7.4987V14.9987C2.5 15.4407 2.67559 15.8646 2.98816 16.1772C3.30072 16.4898 3.72464 16.6654 4.16667 16.6654H15.8333C16.2754 16.6654 16.6993 16.4898 17.0118 16.1772C17.3244 15.8646 17.5 15.4407 17.5 14.9987V7.4987C17.5 7.05667 17.3244 6.63275 17.0118 6.32019C16.6993 6.00763 16.2754 5.83203 15.8333 5.83203H13.3333M12.5 9.16536L10 11.6654M10 11.6654L7.5 9.16536M10 11.6654V3.33203" stroke="#616364" stroke-width="2" stroke-linecap="round" stroke-linejoin="round"/>
</svg>
