<svg width="24" height="24" viewBox="0 0 24 24" fill="none" xmlns="http://www.w3.org/2000/svg">
<path fill-rule="evenodd" clip-rule="evenodd" d="M9.87791 5.36628C6.28163 5.36628 3.36628 8.28163 3.36628 11.8779C3.36628 15.4742 6.28163 18.3895 9.87791 18.3895C13.4742 18.3895 16.3895 15.4742 16.3895 11.8779C16.3895 8.28163 13.4742 5.36628 9.87791 5.36628ZM2.25 11.8779C2.25 7.66513 5.66513 4.25 9.87791 4.25C14.0907 4.25 17.5058 7.66513 17.5058 11.8779C17.5058 13.7834 16.8071 15.5257 15.6519 16.8626L18.0865 19.2972C18.3045 19.5152 18.3045 19.8686 18.0865 20.0865C17.8686 20.3045 17.5152 20.3045 17.2972 20.0865L14.8626 17.6519C13.5257 18.8071 11.7834 19.5058 9.87791 19.5058C5.66513 19.5058 2.25 16.0907 2.25 11.8779Z" fill="#BEC1C3" stroke="#BEC1C3" stroke-width="0.2" stroke-linecap="round"/>
</svg>
