<svg width="24" height="24" viewBox="0 0 24 24" fill="none" xmlns="http://www.w3.org/2000/svg">
<path fill-rule="evenodd" clip-rule="evenodd" d="M7.87791 3.36628C4.28163 3.36628 1.36628 6.28163 1.36628 9.87791C1.36628 13.4742 4.28163 16.3895 7.87791 16.3895C11.4742 16.3895 14.3895 13.4742 14.3895 9.87791C14.3895 6.28163 11.4742 3.36628 7.87791 3.36628ZM0.25 9.87791C0.25 5.66513 3.66513 2.25 7.87791 2.25C12.0907 2.25 15.5058 5.66513 15.5058 9.87791C15.5058 11.7834 14.8071 13.5257 13.6519 14.8626L16.0865 17.2972C16.3045 17.5152 16.3045 17.8686 16.0865 18.0865C15.8686 18.3045 15.5152 18.3045 15.2972 18.0865L12.8626 15.6519C11.5257 16.8071 9.7834 17.5058 7.87791 17.5058C3.66513 17.5058 0.25 14.0907 0.25 9.87791Z" fill="#616364"/>
</svg>
