<svg width="18" height="18" viewBox="0 0 18 18" fill="none" xmlns="http://www.w3.org/2000/svg">
<path fill-rule="evenodd" clip-rule="evenodd" d="M7.1998 3.60147C6.24503 3.60147 5.32935 3.98076 4.65422 4.65589C3.97909 5.33102 3.5998 6.24669 3.5998 7.20147C3.5998 8.15625 3.97909 9.07193 4.65422 9.74706C5.32935 10.4222 6.24503 10.8015 7.1998 10.8015C8.15458 10.8015 9.07026 10.4222 9.74539 9.74706C10.4205 9.07193 10.7998 8.15625 10.7998 7.20147C10.7998 6.24669 10.4205 5.33102 9.74539 4.65589C9.07026 3.98076 8.15458 3.60147 7.1998 3.60147ZM1.7998 7.20147C1.7997 6.3516 2.00018 5.51371 2.38496 4.75594C2.76974 3.99817 3.32793 3.34191 4.01416 2.84054C4.70039 2.33918 5.49526 2.00686 6.33414 1.87062C7.17301 1.73438 8.0322 1.79806 8.84182 2.05649C9.65145 2.31491 10.3886 2.76078 10.9935 3.35784C11.5983 3.95489 12.0536 4.68627 12.3225 5.49249C12.5913 6.29871 12.6661 7.157 12.5407 7.99757C12.4153 8.83813 12.0933 9.63723 11.6008 10.3299L15.9361 14.6652C16.1 14.8349 16.1908 15.0623 16.1887 15.2982C16.1867 15.5342 16.092 15.7599 15.9251 15.9268C15.7583 16.0937 15.5325 16.1883 15.2966 16.1904C15.0606 16.1924 14.8332 16.1017 14.6635 15.9378L10.3291 11.6034C9.52123 12.1778 8.57082 12.5188 7.58201 12.589C6.59321 12.6591 5.60417 12.4558 4.72327 12.0011C3.84238 11.5465 3.10362 10.8582 2.58796 10.0116C2.07229 9.16498 1.79961 8.19276 1.7998 7.20147Z" fill="white"/>
</svg>
