<svg width="18" height="18" viewBox="0 0 18 18" fill="none" xmlns="http://www.w3.org/2000/svg">
<path fill-rule="evenodd" clip-rule="evenodd" d="M12.5303 11.0947C12.2374 10.8018 11.7626 10.8018 11.4697 11.0947L9.375 13.1893L7.28033 11.0947C6.98744 10.8018 6.51256 10.8018 6.21967 11.0947C5.92678 11.3876 5.92678 11.8624 6.21967 12.1553L8.84467 14.7803C9.13756 15.0732 9.61244 15.0732 9.90533 14.7803L12.5303 12.1553C12.8232 11.8624 12.8232 11.3876 12.5303 11.0947Z" fill="#818080"/>
<path fill-rule="evenodd" clip-rule="evenodd" d="M6.21967 6.90533C6.51256 7.19822 6.98744 7.19822 7.28033 6.90533L9.375 4.81066L11.4697 6.90533C11.7626 7.19822 12.2374 7.19822 12.5303 6.90533C12.8232 6.61244 12.8232 6.13756 12.5303 5.84467L9.90533 3.21967C9.61244 2.92678 9.13756 2.92678 8.84467 3.21967L6.21967 5.84467C5.92678 6.13756 5.92678 6.61244 6.21967 6.90533Z" fill="#818080"/>
</svg>
