<svg width="24" height="24" viewBox="0 0 24 24" fill="none" xmlns="http://www.w3.org/2000/svg">
<path fill-rule="evenodd" clip-rule="evenodd" d="M22 11.5C22 17.299 17.299 22 11.5 22C5.70101 22 1 17.299 1 11.5C1 5.70101 5.70101 1 11.5 1C17.299 1 22 5.70101 22 11.5ZM15.7318 8.31815C16.0394 8.62569 16.0394 9.12431 15.7318 9.43185L10.4818 14.6818C10.1743 14.9894 9.67569 14.9894 9.36815 14.6818L7.26815 12.5818C6.96062 12.2743 6.96062 11.7757 7.26815 11.4682C7.57569 11.1606 8.07431 11.1606 8.38185 11.4682L9.925 13.0113L12.2716 10.6647L14.6182 8.31815C14.9257 8.01061 15.4243 8.01061 15.7318 8.31815Z" fill="#D81E05"/>
</svg>
