<svg width="27" height="24" viewBox="0 0 27 24" fill="none" xmlns="http://www.w3.org/2000/svg">
<path d="M11.0646 11V17M15.3832 11V17M4.58676 7H21.861M20.7814 7L19.8453 19.142C19.8065 19.6466 19.5628 20.1188 19.1631 20.4636C18.7634 20.8083 18.2376 21 17.6914 21H8.75633C8.21019 21 7.68432 20.8083 7.28466 20.4636C6.885 20.1188 6.64123 19.6466 6.60245 19.142L5.6664 7H20.7814ZM16.4628 7V4C16.4628 3.73478 16.3491 3.48043 16.1466 3.29289C15.9441 3.10536 15.6695 3 15.3832 3H11.0646C10.7783 3 10.5037 3.10536 10.3012 3.29289C10.0987 3.48043 9.98496 3.73478 9.98496 4V7H16.4628Z" stroke="#616364" stroke-width="1.2" stroke-linecap="round" stroke-linejoin="round"/>
</svg>
