<svg width="33" height="32" viewBox="0 0 33 32" fill="none" xmlns="http://www.w3.org/2000/svg">
<path d="M12.1208 22.0921L12.2375 21.7033L12.1804 21.6862H12.1208V22.0921ZM13.5942 21.3012L13.9629 21.4709L13.9873 21.418L13.9958 21.3604L13.5942 21.3012ZM16.0858 18.8313L16.3687 18.5401L16.2531 18.4278L16.092 18.4254L16.0858 18.8313ZM17.115 20.1638L16.7455 20.3317L16.8536 20.5697H17.115V20.1638ZM25.175 20.1638V20.5697H25.3664L25.4882 20.422L25.175 20.1638ZM26.6483 19.1888V19.5947H26.6837L26.7186 19.5886L26.6483 19.1888ZM28.2408 20.4779L27.8659 20.6335L28.0467 21.0695L28.4507 20.8254L28.2408 20.4779ZM28.7608 20.1638V19.7578H28.6477L28.5509 19.8163L28.7608 20.1638ZM30.5483 20.1638V20.5698L30.5579 20.5696L30.5483 20.1638ZM31.4692 9.0596L31.0673 9.00219L31.0632 9.03075V9.0596H31.4692ZM7.09416 10.5763V10.9822H7.50008V10.5763H7.09416ZM4.80833 10.5763V10.1703H4.76313L4.71903 10.1803L4.80833 10.5763ZM3.2375 12.1796L2.85365 12.0476L2.84442 12.0744L2.83901 12.1022L3.2375 12.1796ZM2.30583 16.9788L1.90735 16.9014L1.90072 16.9355L1.9 16.9703L2.30583 16.9788ZM2.21916 21.1171L1.81331 21.1086L1.81327 21.1123L2.21916 21.1171ZM3.2375 22.0921V22.498L3.25883 21.6867L3.2375 22.0921ZM16.6166 19.9252L16.9791 19.7425L16.2107 18.2177V19.9252H16.6166ZM17.115 22.1027L16.7205 22.0068L16.5985 22.5086H17.115V22.1027ZM24.8391 22.1027V22.5086H25.2319L25.2448 22.1161L24.8391 22.1027ZM25.175 20.1744L25.462 20.4614L26.155 19.7684H25.175V20.1744ZM17.115 20.1744L16.9398 20.5406L17.0229 20.5803H17.115V20.1744ZM16.6166 19.936H16.2107V20.1919L16.4415 20.3023L16.6166 19.936ZM28.4791 21.9405L28.0801 21.8657L27.99 22.3464H28.4791V21.9405ZM29.1401 21.9405V22.3464H29.2165L29.2878 22.3186L29.1401 21.9405ZM29.8335 21.4854L29.5043 21.248L29.4276 21.3543V21.4854H29.8335ZM30.7871 20.1635L31.1163 20.401L31.5804 19.7576H30.7871V20.1635ZM31.4692 19.1886L31.8041 19.418L31.8751 19.3143V19.1886H31.4692ZM16.6058 20.1636L16.2287 20.3138L16.3306 20.5695L16.6058 20.5695L16.6058 20.1636ZM16.075 18.8311L15.7188 18.6363L15.6273 18.8039L15.6979 18.9813L16.075 18.8311ZM16.6058 17.3469L17.0084 17.3988L17.0118 17.373V17.3469H16.6058ZM16.6058 11.6486H17.0118V11.5781L16.988 11.5118L16.6058 11.6486ZM15.425 10.4677V10.0618L15.4197 10.0618L15.425 10.4677ZM7.08336 10.5761L7.07809 10.1702L7.07609 10.9819L7.08336 10.5761ZM11.8272 10.6581C11.8665 10.4374 11.7194 10.2266 11.4987 10.1874C11.2779 10.1481 11.0672 10.2952 11.0279 10.5159L11.8272 10.6581ZM10.2901 16.9787L9.89041 16.9076L9.88906 16.9152L9.88799 16.9228L10.2901 16.9787ZM10.2034 18.1487H9.7974L9.79753 18.156L10.2034 18.1487ZM10.2575 21.1603L10.6624 21.19L10.6637 21.1715L10.6634 21.153L10.2575 21.1603ZM10.9942 22.092L10.9183 22.4908L10.9559 22.4979H10.9942V22.092ZM12.3267 22.4979C12.5509 22.4979 12.7326 22.3162 12.7326 22.092C12.7326 21.8678 12.5509 21.6861 12.3267 21.6861V22.4979ZM15.1974 19.0912V19.4971H15.2437L15.2887 19.4867L15.1974 19.0912ZM15.7607 18.9612L15.852 19.3567L15.8552 19.356L15.7607 18.9612ZM3.29159 11.822L3.69038 11.8989L3.69249 11.8856L3.29159 11.822ZM2.29492 16.9895L1.89634 16.9127L1.89447 16.9224L1.89308 16.9321L2.29492 16.9895ZM12.5216 22.092V21.6861H12.5216L12.5216 22.092ZM13.4316 21.4854L13.0543 21.3356L13.0524 21.3404L13.4316 21.4854ZM13.9733 20.1203L13.5969 19.9682L13.5959 19.9706L13.9733 20.1203ZM15.1866 19.0912V18.6852H15.1395L15.0936 18.696L15.1866 19.0912ZM24.9691 20.5694C25.1933 20.5694 25.375 20.3877 25.375 20.1635C25.375 19.9393 25.1933 19.7576 24.9691 19.7576L24.9691 20.5694ZM28.8366 21.5346C28.6125 21.5346 28.4307 21.7163 28.4307 21.9405C28.4307 22.1647 28.6125 22.3464 28.8366 22.3464V21.5346ZM30.7762 20.1635L31.1074 20.3981L31.5612 19.7576H30.7762V20.1635ZM28.1215 19.7576C27.8973 19.7576 27.7156 19.9393 27.7156 20.1635C27.7156 20.3877 27.8973 20.5694 28.1215 20.5694V19.7576ZM17.3315 21.5344C17.1074 21.5344 16.9256 21.7161 16.9256 21.9403C16.9256 22.1645 17.1074 22.3462 17.3315 22.3462V21.5344ZM24.4382 22.3462C24.6624 22.3462 24.8441 22.1645 24.8441 21.9403C24.8441 21.7161 24.6624 21.5344 24.4382 21.5344V22.3462ZM6.68817 10.2944C6.68817 10.5186 6.86991 10.7004 7.0941 10.7004C7.31828 10.7004 7.50002 10.5186 7.50002 10.2944H6.68817ZM28.7499 19.7577C28.5257 19.7577 28.344 19.9394 28.344 20.1636C28.344 20.3878 28.5257 20.5695 28.7499 20.5695V19.7577ZM17.7923 20.1636C17.7923 20.3878 17.9741 20.5695 18.1983 20.5695C18.4224 20.5695 18.6042 20.3878 18.6042 20.1636H17.7923ZM19.8233 8.47953C20.0474 8.47953 20.2292 8.29779 20.2292 8.0736C20.2292 7.84942 20.0474 7.66768 19.8233 7.66768V8.47953ZM10.3901 16.3745C10.5891 16.2712 10.6667 16.0262 10.5634 15.8272C10.4602 15.6283 10.2152 15.5507 10.0162 15.6539L10.3901 16.3745ZM9.34731 16.4584L9.16033 16.0981L9.15826 16.0992L9.34731 16.4584ZM8.66483 16.6209L8.65814 17.0268H8.66483V16.6209ZM4.06066 16.5451L4.06734 16.1392H4.06066V16.5451ZM3.03148 16.1984L3.35766 15.9564L3.34916 15.9457L3.03148 16.1984ZM2.97 15.469C2.83045 15.2936 2.57508 15.2645 2.39963 15.4041C2.22418 15.5436 2.19509 15.799 2.33464 15.9744L2.97 15.469ZM12.9167 13.0785C12.9167 12.8543 12.7349 12.6725 12.5108 12.6725C12.2866 12.6725 12.1048 12.8543 12.1048 13.0785H12.9167ZM12.1048 15.1585C12.1048 15.3827 12.2866 15.5644 12.5108 15.5644C12.7349 15.5644 12.9167 15.3827 12.9167 15.1585H12.1048ZM3.8441 21.166C3.61991 21.166 3.43817 21.3477 3.43817 21.5719C3.43817 21.7961 3.61991 21.9778 3.8441 21.9778V21.166ZM8.46993 21.9778C8.69412 21.9778 8.87586 21.7961 8.87586 21.5719C8.87586 21.3477 8.69412 21.166 8.46993 21.166V21.9778ZM2.51162 17.9377C2.28743 17.9377 2.10569 18.1194 2.10569 18.3436C2.10569 18.5678 2.28743 18.7495 2.51162 18.7495V17.9377ZM8.46995 18.7495C8.69414 18.7495 8.87587 18.5678 8.87587 18.3436C8.87587 18.1194 8.69414 17.9377 8.46995 17.9377V18.7495ZM3.22667 22.498H12.1208V21.6862H3.22667V22.498ZM12.1208 22.0921C12.0042 22.4809 12.0044 22.481 12.0046 22.481C12.0047 22.4811 12.005 22.4811 12.0051 22.4812C12.0054 22.4813 12.0058 22.4814 12.0061 22.4815C12.0069 22.4817 12.0076 22.4819 12.0085 22.4822C12.0102 22.4827 12.0121 22.4832 12.0143 22.4838C12.0186 22.485 12.024 22.4865 12.0303 22.4881C12.0429 22.4914 12.0593 22.4953 12.0792 22.4996C12.1188 22.508 12.1729 22.5176 12.2383 22.5245C12.3679 22.5383 12.5484 22.542 12.7516 22.5007C13.1773 22.414 13.6567 22.1366 13.9629 21.4709L13.2254 21.1316C13.0333 21.5493 12.776 21.6672 12.5897 21.7052C12.4868 21.7261 12.3924 21.7245 12.3237 21.7172C12.2898 21.7136 12.2638 21.7088 12.2482 21.7055C12.2405 21.7039 12.2354 21.7026 12.2335 21.7021C12.2325 21.7019 12.2324 21.7018 12.233 21.702C12.2333 21.7021 12.2338 21.7022 12.2346 21.7024C12.235 21.7025 12.2354 21.7027 12.2359 21.7028C12.2361 21.7029 12.2364 21.703 12.2366 21.703C12.2368 21.7031 12.237 21.7031 12.237 21.7032C12.2372 21.7032 12.2375 21.7033 12.1208 22.0921ZM13.5942 21.3012C13.9958 21.3604 13.9957 21.3605 13.9957 21.3607C13.9957 21.3607 13.9957 21.3608 13.9957 21.3609C13.9957 21.361 13.9956 21.3611 13.9956 21.3612C13.9956 21.3614 13.9956 21.3613 13.9956 21.3612C13.9957 21.3609 13.9958 21.36 13.996 21.3586C13.9965 21.3557 13.9974 21.3505 13.9986 21.3433C14.0012 21.3289 14.0054 21.3062 14.0116 21.2764C14.024 21.2168 14.0442 21.1293 14.0748 21.0235C14.1365 20.8103 14.2377 20.531 14.3956 20.2564C14.709 19.7116 15.2163 19.2239 16.0796 19.2371L16.092 18.4254C14.8321 18.4061 14.0935 19.1534 13.6919 19.8517C13.4923 20.1987 13.3687 20.5429 13.2949 20.798C13.2578 20.9263 13.2327 21.0341 13.2167 21.1111C13.2087 21.1497 13.2029 21.1807 13.199 21.203C13.1971 21.2141 13.1956 21.223 13.1945 21.2296C13.194 21.2329 13.1936 21.2356 13.1932 21.2377C13.1931 21.2387 13.1929 21.2396 13.1928 21.2404C13.1928 21.2407 13.1927 21.2411 13.1927 21.2414C13.1927 21.2415 13.1926 21.2417 13.1926 21.2418C13.1926 21.242 13.1926 21.2421 13.5942 21.3012ZM16.0858 18.8313C15.803 19.1224 15.803 19.1224 15.8029 19.1224C15.8029 19.1223 15.8029 19.1223 15.8029 19.1223C15.8029 19.1223 15.8029 19.1223 15.8029 19.1223C15.8029 19.1223 15.8029 19.1223 15.803 19.1224C15.8032 19.1226 15.8036 19.123 15.8041 19.1235C15.8052 19.1246 15.807 19.1263 15.8094 19.1287C15.8143 19.1335 15.8218 19.141 15.8316 19.1508C15.8513 19.1705 15.8802 19.1998 15.9159 19.2369C15.9875 19.3115 16.0857 19.4168 16.1917 19.5394C16.4111 19.7934 16.6355 20.0899 16.7455 20.3317L17.4845 19.9958C17.3236 19.6418 17.0335 19.272 16.806 19.0087C16.6886 18.8727 16.5803 18.7566 16.5012 18.6744C16.4616 18.6332 16.4291 18.6002 16.4063 18.5773C16.3948 18.5659 16.3858 18.5569 16.3794 18.5506C16.3762 18.5475 16.3737 18.545 16.3719 18.5432C16.371 18.5424 16.3703 18.5417 16.3697 18.5411C16.3695 18.5409 16.3692 18.5407 16.3691 18.5405C16.369 18.5404 16.3689 18.5403 16.3688 18.5403C16.3688 18.5402 16.3688 18.5402 16.3687 18.5402C16.3687 18.5401 16.3687 18.5401 16.0858 18.8313ZM17.115 20.5697H25.175V19.7578H17.115V20.5697ZM25.175 20.1638C25.5444 20.332 25.5443 20.3322 25.5443 20.3323C25.5442 20.3324 25.5442 20.3325 25.5441 20.3326C25.544 20.3328 25.544 20.333 25.5439 20.3331C25.5438 20.3334 25.5436 20.3337 25.5435 20.3339C25.5434 20.3343 25.5433 20.3344 25.5433 20.3344C25.5433 20.3343 25.5438 20.3334 25.5446 20.3316C25.5463 20.3282 25.5497 20.3215 25.5546 20.3122C25.5645 20.2935 25.5808 20.2643 25.6037 20.2282C25.6498 20.1551 25.7201 20.0575 25.8152 19.9609C26.0045 19.7683 26.2748 19.5947 26.6483 19.5947V18.7828C25.9927 18.7828 25.5263 19.0968 25.2363 19.3917C25.0916 19.5388 24.9866 19.6849 24.9173 19.7947C24.8824 19.8499 24.856 19.8969 24.8376 19.9315C24.8284 19.9488 24.8211 19.9632 24.8158 19.974C24.8132 19.9794 24.811 19.9839 24.8093 19.9875C24.8084 19.9893 24.8077 19.9909 24.8071 19.9922C24.8068 19.9929 24.8065 19.9935 24.8063 19.994C24.8061 19.9943 24.806 19.9946 24.8059 19.9948C24.8059 19.9949 24.8058 19.9951 24.8057 19.9952C24.8057 19.9953 24.8056 19.9955 25.175 20.1638ZM26.6483 19.1888C26.7186 19.5886 26.7183 19.5886 26.718 19.5887C26.7179 19.5887 26.7176 19.5887 26.7175 19.5888C26.7171 19.5888 26.7167 19.5889 26.7164 19.5889C26.7157 19.5891 26.715 19.5892 26.7144 19.5893C26.7133 19.5895 26.7123 19.5896 26.7115 19.5897C26.71 19.59 26.7093 19.59 26.7094 19.59C26.7096 19.59 26.7129 19.5896 26.719 19.5892C26.7312 19.5884 26.7541 19.5876 26.7856 19.5896C26.8484 19.5937 26.9439 19.609 27.0559 19.6574C27.2689 19.7496 27.5974 19.9861 27.8659 20.6335L28.6158 20.3224C28.2776 19.5073 27.8099 19.0992 27.3783 18.9124C27.168 18.8214 26.9791 18.7886 26.8381 18.7795C26.7676 18.7749 26.7089 18.7762 26.6648 18.7792C26.6427 18.7806 26.6242 18.7825 26.6097 18.7843C26.6024 18.7852 26.5961 18.7861 26.5908 18.7869C26.5882 18.7873 26.5858 18.7877 26.5836 18.788C26.5826 18.7882 26.5816 18.7884 26.5806 18.7885C26.5802 18.7886 26.5797 18.7887 26.5793 18.7888C26.5791 18.7888 26.5788 18.7889 26.5787 18.7889C26.5783 18.7889 26.578 18.789 26.6483 19.1888ZM28.4507 20.8254L28.9707 20.5112L28.5509 19.8163L28.0309 20.1305L28.4507 20.8254ZM28.7608 20.5697H30.5483V19.7578H28.7608V20.5697ZM30.5483 20.1638C30.5579 20.5696 30.5582 20.5696 30.5585 20.5696C30.5586 20.5696 30.5589 20.5695 30.5591 20.5695C30.5595 20.5695 30.5599 20.5695 30.5603 20.5695C30.5612 20.5695 30.5621 20.5695 30.5631 20.5694C30.5651 20.5693 30.5674 20.5693 30.5698 20.5691C30.5748 20.5689 30.5807 20.5686 30.5874 20.5681C30.6009 20.5671 30.6181 20.5656 30.6383 20.563C30.6787 20.558 30.7323 20.549 30.7947 20.5327C30.9188 20.5003 31.0838 20.4377 31.2492 20.3161C31.5998 20.0583 31.8751 19.5941 31.8751 18.8313H31.0632C31.0632 19.3792 30.8781 19.5813 30.7683 19.662C30.7035 19.7097 30.6383 19.7345 30.5898 19.7471C30.5658 19.7533 30.5475 19.7562 30.5375 19.7575C30.5325 19.7581 30.5299 19.7583 30.5299 19.7583C30.53 19.7583 30.5307 19.7582 30.5321 19.7582C30.5328 19.7581 30.5338 19.7581 30.5349 19.7581C30.5354 19.758 30.536 19.758 30.5367 19.758C30.537 19.758 30.5373 19.758 30.5377 19.758C30.5379 19.758 30.5381 19.758 30.5382 19.758C30.5385 19.758 30.5388 19.758 30.5483 20.1638ZM31.8751 18.8313V9.0596H31.0632V18.8313H31.8751ZM31.4692 9.0596C31.871 9.117 31.871 9.11672 31.8711 9.11643C31.8711 9.11633 31.8711 9.11604 31.8712 9.11583C31.8712 9.11543 31.8713 9.11501 31.8713 9.11457C31.8715 9.11369 31.8716 9.11275 31.8717 9.11174C31.872 9.10973 31.8723 9.10745 31.8726 9.10492C31.8732 9.09985 31.8738 9.09377 31.8745 9.08671C31.8758 9.07263 31.8772 9.0546 31.878 9.03315C31.8797 8.99046 31.8794 8.93307 31.8728 8.86561C31.8596 8.73202 31.8201 8.54873 31.7116 8.36238C31.4762 7.95823 30.9969 7.66783 30.18 7.66783V8.47968C30.7931 8.47968 30.9584 8.6822 31.0101 8.77097C31.0451 8.83108 31.0598 8.89425 31.0649 8.94551C31.0673 8.97047 31.0672 8.99009 31.0668 9.00132C31.0666 9.00683 31.0663 9.00997 31.0663 9.01033C31.0663 9.0105 31.0663 9.00995 31.0665 9.00862C31.0665 9.00795 31.0666 9.00709 31.0668 9.00602C31.0669 9.00549 31.0669 9.0049 31.067 9.00426C31.0671 9.00394 31.0671 9.00361 31.0672 9.00327C31.0672 9.00309 31.0672 9.00282 31.0672 9.00274C31.0673 9.00247 31.0673 9.00219 31.4692 9.0596ZM30.18 7.66783H9.05499V8.47968H30.18V7.66783ZM9.05499 8.07376C9.16308 7.68249 9.1629 7.68244 9.16272 7.68239C9.16265 7.68237 9.16246 7.68232 9.16232 7.68228C9.16203 7.6822 9.16171 7.68211 9.16137 7.68202C9.16067 7.68183 9.15986 7.68161 9.15892 7.68136C9.15705 7.68086 9.1547 7.68023 9.15188 7.6795C9.14625 7.67802 9.13874 7.67611 9.12947 7.67384C9.11097 7.66931 9.08537 7.66336 9.05369 7.65674C8.99051 7.64355 8.90207 7.62752 8.79649 7.61498C8.5889 7.59032 8.29788 7.57703 7.99645 7.63615C7.69333 7.6956 7.35572 7.83355 7.09528 8.13068C6.83176 8.43133 6.68824 8.84807 6.68824 9.38458H7.50008C7.50008 8.99484 7.60167 8.78461 7.7058 8.66581C7.81302 8.54348 7.96562 8.46951 8.1527 8.43282C8.34148 8.39579 8.54067 8.40214 8.70073 8.42116C8.77898 8.43045 8.84373 8.44226 8.88778 8.45146C8.90972 8.45604 8.92625 8.45991 8.93647 8.46241C8.94157 8.46366 8.94507 8.46456 8.94685 8.46503C8.94774 8.46526 8.9482 8.46538 8.94822 8.46539C8.94822 8.46539 8.94812 8.46536 8.9479 8.4653C8.94779 8.46527 8.94765 8.46523 8.94749 8.46519C8.94741 8.46516 8.94726 8.46512 8.94722 8.46511C8.94706 8.46507 8.9469 8.46503 9.05499 8.07376ZM6.68824 9.38458V10.5763H7.50008V9.38458H6.68824ZM7.09416 10.1703H4.80833V10.9822H7.09416V10.1703ZM4.80833 10.5763C4.71903 10.1803 4.71882 10.1803 4.7186 10.1804C4.71853 10.1804 4.7183 10.1804 4.71815 10.1805C4.71784 10.1805 4.71751 10.1806 4.71716 10.1807C4.71647 10.1809 4.7157 10.181 4.71487 10.1812C4.71321 10.1816 4.71127 10.1821 4.70907 10.1826C4.70466 10.1837 4.69918 10.1851 4.69268 10.1868C4.67969 10.1902 4.66262 10.1949 4.64191 10.2012C4.60053 10.2138 4.54439 10.2327 4.47714 10.2597C4.34289 10.3136 4.16257 10.4007 3.96654 10.5364C3.57106 10.8102 3.11846 11.2778 2.85365 12.0476L3.62134 12.3116C3.82237 11.7273 4.15519 11.3932 4.42866 11.2039C4.5671 11.108 4.69215 11.0482 4.77965 11.013C4.82327 10.9955 4.8571 10.9843 4.87796 10.978C4.88838 10.9748 4.8955 10.9729 4.89893 10.972C4.90064 10.9715 4.90142 10.9714 4.90122 10.9714C4.90112 10.9714 4.90078 10.9715 4.90018 10.9716C4.89988 10.9717 4.89952 10.9718 4.89909 10.9719C4.89888 10.972 4.89865 10.972 4.8984 10.9721C4.89828 10.9721 4.89809 10.9721 4.89803 10.9721C4.89783 10.9722 4.89762 10.9722 4.80833 10.5763ZM2.83901 12.1022L1.90735 16.9014L2.70431 17.0561L3.63598 12.257L2.83901 12.1022ZM1.9 16.9703L1.81333 21.1086L2.625 21.1256L2.71166 16.9873L1.9 16.9703ZM2.21916 21.1171C1.81327 21.1123 1.81326 21.1126 1.81326 21.1128C1.81326 21.1129 1.81326 21.1131 1.81326 21.1133C1.81325 21.1136 1.81325 21.1139 1.81325 21.1143C1.81324 21.115 1.81324 21.1158 1.81324 21.1166C1.81323 21.1183 1.81323 21.1202 1.81325 21.1223C1.81327 21.1265 1.81334 21.1317 1.8135 21.1378C1.81381 21.1499 1.81444 21.1655 1.81571 21.1842C1.81824 21.2215 1.82332 21.2718 1.83356 21.331C1.85376 21.4478 1.89551 21.6084 1.98394 21.7748C2.17335 22.1312 2.5522 22.4625 3.21616 22.4975L3.25883 21.6867C2.89363 21.6675 2.76331 21.5113 2.70084 21.3938C2.66333 21.3232 2.64347 21.2502 2.63354 21.1927C2.62871 21.1647 2.6266 21.1426 2.6257 21.1293C2.62525 21.1227 2.62512 21.1186 2.62508 21.1171C2.62507 21.1164 2.62507 21.1164 2.62508 21.1172C2.62508 21.1176 2.62508 21.1182 2.62508 21.1189C2.62508 21.1193 2.62508 21.1198 2.62507 21.1203C2.62507 21.1205 2.62507 21.1208 2.62507 21.121C2.62506 21.1212 2.62506 21.1214 2.62506 21.1214C2.62506 21.1217 2.62506 21.1219 2.21916 21.1171ZM3.2375 21.6862H3.22667V22.498H3.2375V21.6862ZM16.5358 21.4853C16.5358 22.1219 16.381 22.6784 16.152 23.0622C15.918 23.4545 15.6519 23.6036 15.4358 23.6036V24.4154C16.0514 24.4154 16.5382 23.9995 16.8492 23.4782C17.1653 22.9484 17.3476 22.2429 17.3476 21.4853H16.5358ZM15.4358 23.6036C15.2198 23.6036 14.9537 23.4545 14.7197 23.0622C14.4907 22.6784 14.3359 22.1219 14.3359 21.4853H13.5241C13.5241 22.2429 13.7064 22.9484 14.0224 23.4782C14.3334 23.9995 14.8203 24.4154 15.4358 24.4154V23.6036ZM14.3359 21.4853C14.3359 20.8488 14.4907 20.2923 14.7197 19.9084C14.9537 19.5162 15.2198 19.3671 15.4358 19.3671V18.5552C14.8203 18.5552 14.3334 18.9712 14.0224 19.4925C13.7064 20.0223 13.5241 20.7278 13.5241 21.4853H14.3359ZM15.4358 19.3671C15.6519 19.3671 15.918 19.5162 16.152 19.9084C16.381 20.2923 16.5358 20.8488 16.5358 21.4853H17.3476C17.3476 20.7278 17.1653 20.0223 16.8492 19.4925C16.5382 18.9712 16.0514 18.5552 15.4358 18.5552V19.3671ZM27.7481 21.4853C27.7481 22.1219 27.5933 22.6784 27.3643 23.0622C27.1303 23.4545 26.8642 23.6036 26.6482 23.6036V24.4154C27.2637 24.4154 27.7506 23.9995 28.0616 23.4782C28.3776 22.9484 28.5599 22.2429 28.5599 21.4853H27.7481ZM26.6482 23.6036C26.4321 23.6036 26.166 23.4545 25.932 23.0622C25.703 22.6784 25.5483 22.1219 25.5483 21.4853H24.7364C24.7364 22.2429 24.9187 22.9484 25.2348 23.4782C25.5458 23.9995 26.0326 24.4154 26.6482 24.4154V23.6036ZM25.5483 21.4853C25.5483 20.8488 25.703 20.2923 25.932 19.9084C26.166 19.5162 26.4321 19.3671 26.6482 19.3671V18.5552C26.0326 18.5552 25.5458 18.9712 25.2348 19.4925C24.9187 20.0223 24.7364 20.7278 24.7364 21.4853H25.5483ZM26.6482 19.3671C26.8642 19.3671 27.1303 19.5162 27.3643 19.9084C27.5933 20.2923 27.7481 20.8488 27.7481 21.4853H28.5599C28.5599 20.7278 28.3776 20.0223 28.0616 19.4925C27.7506 18.9712 27.2638 18.5552 26.6482 18.5552V19.3671ZM16.6166 19.9252C16.2541 20.1079 16.2541 20.1078 16.2541 20.1078C16.2541 20.1078 16.2541 20.1077 16.254 20.1077C16.254 20.1077 16.254 20.1076 16.254 20.1076C16.254 20.1076 16.2541 20.1077 16.2541 20.1079C16.2543 20.1082 16.2546 20.1089 16.2551 20.1098C16.2561 20.1118 16.2577 20.115 16.2598 20.1194C16.2641 20.1282 16.2707 20.1418 16.2793 20.1598C16.2963 20.1957 16.3209 20.2489 16.3501 20.3155C16.4086 20.4492 16.4844 20.6347 16.5541 20.8424C16.6241 21.0513 16.6854 21.275 16.7183 21.4866C16.7519 21.7028 16.7515 21.8795 16.7205 22.0068L17.5094 22.1987C17.5759 21.9251 17.562 21.6292 17.5205 21.3619C17.4782 21.0901 17.4027 20.8196 17.3238 20.5843C17.2445 20.3478 17.1591 20.1392 17.0938 19.9899C17.061 19.915 17.033 19.8544 17.0128 19.812C17.0028 19.7908 16.9947 19.7741 16.9889 19.7623C16.9861 19.7565 16.9838 19.7518 16.9821 19.7485C16.9813 19.7469 16.9806 19.7455 16.9801 19.7445C16.9799 19.744 16.9797 19.7436 16.9795 19.7433C16.9794 19.7431 16.9794 19.743 16.9793 19.7428C16.9793 19.7428 16.9792 19.7427 16.9792 19.7427C16.9792 19.7426 16.9791 19.7425 16.6166 19.9252ZM17.115 22.5086H24.8391V21.6968H17.115V22.5086ZM24.8391 22.1027C25.2448 22.1161 25.2448 22.1161 25.2448 22.1161C25.2448 22.1161 25.2448 22.1161 25.2448 22.1161C25.2448 22.1161 25.2448 22.1161 25.2448 22.116C25.2448 22.1159 25.2449 22.1157 25.2449 22.1154C25.2449 22.1148 25.2449 22.1138 25.245 22.1124C25.2451 22.1097 25.2452 22.1054 25.2454 22.0997C25.2459 22.0884 25.2466 22.0714 25.2475 22.0495C25.2495 22.0057 25.2526 21.9423 25.2572 21.8652C25.2664 21.7106 25.2815 21.503 25.305 21.2882C25.3286 21.0713 25.3597 20.8571 25.3992 20.6856C25.419 20.5996 25.4389 20.5335 25.4572 20.4872C25.4786 20.433 25.4855 20.4378 25.462 20.4614L24.8879 19.8873C24.794 19.9813 24.7376 20.0992 24.7021 20.1889C24.6635 20.2866 24.633 20.3953 24.6081 20.5034C24.5582 20.7199 24.523 20.9701 24.4979 21.2001C24.4726 21.4323 24.4565 21.6539 24.4468 21.8168C24.4419 21.8985 24.4386 21.966 24.4365 22.0133C24.4354 22.037 24.4347 22.0557 24.4342 22.0686C24.4339 22.075 24.4338 22.0801 24.4336 22.0836C24.4336 22.0853 24.4335 22.0867 24.4335 22.0876C24.4335 22.0881 24.4335 22.0885 24.4334 22.0888C24.4334 22.089 24.4334 22.0891 24.4334 22.0892C24.4334 22.0892 24.4334 22.0893 24.4334 22.0893C24.4334 22.0893 24.4334 22.0894 24.8391 22.1027ZM25.175 19.7684H17.115V20.5803H25.175V19.7684ZM17.2901 19.8081L16.7918 19.5698L16.4415 20.3023L16.9398 20.5406L17.2901 19.8081ZM17.0226 19.936V19.9252H16.2107V19.936H17.0226ZM28.154 20.1635C27.7798 20.3207 27.7798 20.3206 27.7797 20.3206C27.7797 20.3206 27.7797 20.3205 27.7797 20.3205C27.7797 20.3205 27.7797 20.3204 27.7797 20.3204C27.7796 20.3204 27.7797 20.3204 27.7797 20.3205C27.7798 20.3207 27.78 20.3211 27.7803 20.3218C27.7808 20.3232 27.7818 20.3256 27.7832 20.329C27.7859 20.3357 27.7901 20.3461 27.7956 20.36C27.8066 20.3879 27.8225 20.4294 27.8414 20.4816C27.8793 20.5866 27.9285 20.733 27.9737 20.8988C28.0691 21.2484 28.127 21.6158 28.0801 21.8657L28.8781 22.0153C28.9612 21.5718 28.8566 21.0506 28.7569 20.6852C28.7046 20.4933 28.6482 20.3256 28.6049 20.2057C28.5831 20.1455 28.5645 20.0969 28.5511 20.0628C28.5444 20.0457 28.5389 20.0322 28.535 20.0227C28.5331 20.018 28.5315 20.0142 28.5304 20.0114C28.5298 20.0101 28.5294 20.0089 28.529 20.0081C28.5288 20.0077 28.5287 20.0073 28.5286 20.007C28.5285 20.0069 28.5285 20.0067 28.5284 20.0066C28.5284 20.0066 28.5284 20.0065 28.5283 20.0065C28.5283 20.0064 28.5283 20.0063 28.154 20.1635ZM28.4791 22.3464H29.1401V21.5346H28.4791V22.3464ZM29.1401 21.9405C29.2878 22.3186 29.2878 22.3186 29.2878 22.3186C29.2879 22.3186 29.2879 22.3186 29.288 22.3185C29.288 22.3185 29.2881 22.3185 29.2882 22.3184C29.2884 22.3184 29.2887 22.3183 29.2889 22.3182C29.2895 22.3179 29.2903 22.3176 29.2911 22.3173C29.2929 22.3166 29.2954 22.3156 29.2984 22.3144C29.3045 22.312 29.3131 22.3085 29.3237 22.3042C29.345 22.2955 29.3748 22.283 29.4103 22.2676C29.4807 22.237 29.5768 22.1931 29.675 22.1417C29.7698 22.0921 29.8823 22.0273 29.9766 21.9529C30.0234 21.9161 30.0796 21.866 30.1273 21.803C30.1717 21.7443 30.2395 21.6342 30.2395 21.4854H29.4276C29.4276 21.3828 29.4737 21.3214 29.4802 21.3128C29.49 21.2998 29.492 21.3012 29.4737 21.3156C29.438 21.3438 29.3772 21.3813 29.2986 21.4224C29.2234 21.4618 29.1462 21.4971 29.0865 21.5231C29.0571 21.5359 29.0327 21.5461 29.016 21.5529C29.0077 21.5563 29.0013 21.5588 28.9973 21.5605C28.9953 21.5613 28.9938 21.5619 28.993 21.5622C28.9926 21.5623 28.9923 21.5624 28.9922 21.5625C28.9921 21.5625 28.9921 21.5625 28.9922 21.5625C28.9922 21.5625 28.9922 21.5625 28.9922 21.5625C28.9923 21.5625 28.9923 21.5624 28.9923 21.5624C28.9923 21.5624 28.9924 21.5624 29.1401 21.9405ZM30.1628 21.7229L31.1163 20.401L30.4579 19.926L29.5043 21.248L30.1628 21.7229ZM30.7871 19.7576H28.154V20.5694H30.7871V19.7576ZM7.09416 9.38458C7.48234 9.26588 7.48244 9.26619 7.48253 9.26649C7.48256 9.26659 7.48265 9.26689 7.4827 9.26708C7.48282 9.26746 7.48293 9.26782 7.48303 9.26817C7.48324 9.26886 7.48342 9.26948 7.48358 9.27004C7.48391 9.27115 7.48414 9.27198 7.4843 9.27256C7.48462 9.27371 7.48464 9.27383 7.48443 9.27299C7.48401 9.27129 7.48275 9.26593 7.48125 9.25747C7.4782 9.24025 7.47454 9.21224 7.47435 9.17753C7.47396 9.10751 7.48748 9.02128 7.53779 8.93674C7.62509 8.79004 7.93356 8.47968 9.05499 8.47968V7.66783C7.81475 7.66783 7.14282 8.01289 6.84011 8.5216C6.69542 8.76476 6.66155 9.00624 6.66251 9.182C6.663 9.27018 6.6722 9.34458 6.68185 9.39904C6.6867 9.42643 6.69174 9.44923 6.69604 9.46673C6.69819 9.47549 6.70017 9.48297 6.70186 9.48908C6.70271 9.49214 6.70348 9.49486 6.70417 9.49723C6.70452 9.49841 6.70484 9.49951 6.70515 9.50052C6.7053 9.50102 6.70544 9.50151 6.70558 9.50197C6.70565 9.5022 6.70575 9.50253 6.70579 9.50264C6.70588 9.50297 6.70598 9.50328 7.09416 9.38458ZM30.18 8.07376C30.2308 8.47649 30.2305 8.47652 30.2302 8.47656C30.2301 8.47657 30.2298 8.47661 30.2297 8.47663C30.2293 8.47668 30.2289 8.47672 30.2286 8.47676C30.2279 8.47684 30.2273 8.47691 30.2268 8.47697C30.2258 8.47709 30.225 8.47717 30.2245 8.47722C30.2234 8.47733 30.2235 8.47731 30.2245 8.47724C30.2265 8.47709 30.2323 8.47671 30.2413 8.47658C30.2595 8.47632 30.2896 8.47706 30.3274 8.48213C30.4036 8.49237 30.5033 8.51909 30.6021 8.5838C30.7755 8.6974 31.0633 9.00833 31.0633 9.92606H31.8751C31.8751 8.82879 31.5183 8.21356 31.0471 7.90476C30.8235 7.75828 30.6009 7.69973 30.4355 7.67751C30.3524 7.66635 30.2817 7.66406 30.2295 7.66482C30.2032 7.6652 30.1813 7.66636 30.1645 7.66761C30.156 7.66824 30.1488 7.66889 30.1429 7.66948C30.1399 7.66978 30.1373 7.67007 30.135 7.67033C30.1339 7.67046 30.1328 7.67058 30.1318 7.6707C30.1314 7.67076 30.1309 7.67082 30.1304 7.67087C30.1302 7.6709 30.1299 7.67094 30.1298 7.67095C30.1295 7.67099 30.1292 7.67103 30.18 8.07376ZM31.0633 9.92606V19.1886H31.8751V9.92606H31.0633ZM31.4692 19.1886C31.1343 18.9592 31.1344 18.959 31.1345 18.9589C31.1345 18.9588 31.1346 18.9587 31.1347 18.9586C31.1348 18.9584 31.1349 18.9583 31.135 18.9581C31.1352 18.9578 31.1354 18.9575 31.1356 18.9573C31.1359 18.9569 31.1361 18.9566 31.1362 18.9565C31.1363 18.9563 31.1359 18.9568 31.1351 18.958C31.1334 18.9603 31.1297 18.9652 31.1242 18.9723C31.113 18.9866 31.0942 19.0096 31.0679 19.0384C31.015 19.0963 30.9333 19.176 30.8236 19.2561C30.6055 19.4154 30.2811 19.5735 29.8442 19.5735V20.3853C30.4906 20.3853 30.9787 20.148 31.3023 19.9118C31.4634 19.7942 31.5848 19.6762 31.6674 19.5859C31.7087 19.5406 31.7408 19.5017 31.7634 19.4728C31.7748 19.4583 31.7838 19.4462 31.7906 19.4369C31.794 19.4323 31.7968 19.4284 31.799 19.4252C31.8002 19.4236 31.8011 19.4222 31.802 19.421C31.8024 19.4204 31.8028 19.4198 31.8031 19.4193C31.8033 19.4191 31.8035 19.4188 31.8036 19.4186C31.8037 19.4185 31.8038 19.4183 31.8039 19.4183C31.804 19.4181 31.8041 19.418 31.4692 19.1886ZM29.8442 19.5735C29.2795 19.5735 28.8354 19.6215 28.5286 19.6706C28.3752 19.6952 28.2561 19.7201 28.1733 19.7395C28.132 19.7492 28.0997 19.7574 28.0767 19.7636C28.0653 19.7667 28.0561 19.7693 28.0494 19.7712C28.046 19.7722 28.0432 19.773 28.041 19.7736C28.0399 19.774 28.0389 19.7742 28.0381 19.7745C28.0377 19.7746 28.0374 19.7747 28.037 19.7748C28.0369 19.7749 28.0367 19.7749 28.0366 19.7749C28.0365 19.775 28.0364 19.775 28.0364 19.775C28.0363 19.775 28.0362 19.7751 28.154 20.1635C28.2719 20.5519 28.2718 20.552 28.2717 20.552C28.2717 20.552 28.2716 20.552 28.2715 20.552C28.2714 20.5521 28.2713 20.5521 28.2712 20.5521C28.2711 20.5522 28.2709 20.5522 28.2708 20.5523C28.2706 20.5523 28.2706 20.5523 28.2706 20.5523C28.2708 20.5523 28.2715 20.5521 28.2729 20.5517C28.2755 20.5509 28.2805 20.5495 28.2877 20.5476C28.3022 20.5437 28.3258 20.5376 28.3582 20.53C28.4231 20.5148 28.5234 20.4937 28.6571 20.4723C28.9245 20.4294 29.3255 20.3853 29.8442 20.3853V19.5735ZM28.154 20.1635C28.5146 19.9771 28.5145 19.9769 28.5144 19.9767C28.5144 19.9766 28.5142 19.9764 28.5142 19.9762C28.514 19.9759 28.5138 19.9755 28.5136 19.9752C28.5132 19.9744 28.5127 19.9735 28.5122 19.9724C28.5111 19.9703 28.5097 19.9677 28.508 19.9646C28.5046 19.9583 28.5001 19.95 28.4944 19.9399C28.4829 19.9196 28.4668 19.8919 28.4461 19.8585C28.4047 19.7918 28.3443 19.7011 28.2653 19.6005C28.1103 19.4033 27.869 19.1485 27.5434 18.9733C27.2081 18.793 26.7843 18.6988 26.3015 18.8364C25.8304 18.9708 25.3506 19.3126 24.8618 19.9056L25.4882 20.422C25.9148 19.9045 26.2651 19.691 26.5242 19.6172C26.7716 19.5466 26.9781 19.5911 27.1588 19.6883C27.3491 19.7907 27.5092 19.9523 27.6268 20.102C27.684 20.1749 27.7276 20.2403 27.7562 20.2864C27.7704 20.3093 27.7807 20.3272 27.787 20.3383C27.7902 20.3439 27.7923 20.3478 27.7934 20.3498C27.7939 20.3508 27.7942 20.3514 27.7942 20.3514C27.7942 20.3514 27.7942 20.3513 27.794 20.3511C27.794 20.3509 27.7939 20.3508 27.7938 20.3506C27.7937 20.3505 27.7937 20.3503 27.7936 20.3503C27.7936 20.3501 27.7935 20.3499 28.154 20.1635ZM25.175 19.7578L16.6059 19.7576L16.6058 20.5695L25.175 20.5697L25.175 19.7578ZM16.983 20.0133L16.4521 18.6808L15.6979 18.9813L16.2287 20.3138L16.983 20.0133ZM16.075 18.8311C16.4312 19.0258 16.4312 19.0257 16.4313 19.0257C16.4313 19.0256 16.4313 19.0256 16.4313 19.0255C16.4314 19.0255 16.4314 19.0254 16.4315 19.0252C16.4316 19.025 16.4318 19.0247 16.4319 19.0244C16.4323 19.0238 16.4327 19.0229 16.4333 19.0219C16.4344 19.0198 16.436 19.017 16.4379 19.0134C16.4417 19.0062 16.4472 18.996 16.4539 18.9831C16.4675 18.9572 16.4865 18.9202 16.5094 18.874C16.5552 18.7818 16.6169 18.6519 16.6816 18.4995C16.808 18.2018 16.9579 17.7902 17.0084 17.3988L16.2033 17.2949C16.1671 17.5753 16.0517 17.9057 15.9343 18.1822C15.8771 18.3169 15.8224 18.4321 15.7821 18.5132C15.7621 18.5537 15.7457 18.5854 15.7346 18.6066C15.7291 18.6172 15.7249 18.6251 15.7222 18.6302C15.7208 18.6327 15.7199 18.6345 15.7193 18.6355C15.719 18.636 15.7188 18.6364 15.7188 18.6365C15.7187 18.6366 15.7187 18.6366 15.7187 18.6366C15.7187 18.6366 15.7187 18.6365 15.7188 18.6365C15.7188 18.6365 15.7188 18.6364 15.7188 18.6364C15.7188 18.6364 15.7188 18.6363 16.075 18.8311ZM17.0118 17.3469V11.6486H16.1999V17.3469H17.0118ZM16.6058 11.6486C16.988 11.5118 16.988 11.5117 16.988 11.5116C16.9879 11.5116 16.9879 11.5114 16.9879 11.5113C16.9878 11.5112 16.9877 11.511 16.9877 11.5108C16.9875 11.5103 16.9873 11.5098 16.9871 11.5092C16.9867 11.5081 16.9862 11.5067 16.9855 11.5049C16.9843 11.5015 16.9826 11.497 16.9805 11.4914C16.9762 11.4802 16.9703 11.4648 16.9626 11.4459C16.9473 11.408 16.9251 11.3554 16.8961 11.293C16.8385 11.1691 16.7517 11.001 16.6357 10.8301C16.4231 10.5171 16.0218 10.0618 15.425 10.0618V10.8736C15.5865 10.8736 15.7757 11.0088 15.964 11.2861C16.0484 11.4105 16.1145 11.5376 16.1599 11.6352C16.1823 11.6834 16.199 11.7231 16.2098 11.7498C16.2152 11.7631 16.219 11.7731 16.2214 11.7792C16.2225 11.7823 16.2233 11.7844 16.2237 11.7854C16.2239 11.7859 16.224 11.7862 16.224 11.7862C16.224 11.7862 16.2239 11.7861 16.2239 11.786C16.2239 11.7859 16.2238 11.7858 16.2238 11.7857C16.2238 11.7856 16.2237 11.7855 16.2237 11.7855C16.2237 11.7854 16.2237 11.7853 16.6058 11.6486ZM15.4197 10.0618L7.07809 10.1702L7.08863 10.982L15.4303 10.8736L15.4197 10.0618ZM7.07609 10.9819L7.08689 10.9821L7.10143 10.1704L7.09063 10.1702L7.07609 10.9819ZM11.0279 10.5159L9.89041 16.9076L10.6897 17.0498L11.8272 10.6581L11.0279 10.5159ZM9.88799 16.9228C9.83183 17.3273 9.79747 17.7363 9.79747 18.1487H10.6093C10.6093 17.7811 10.64 17.4101 10.6921 17.0345L9.88799 16.9228ZM9.79753 18.156L9.85168 21.1676L10.6634 21.153L10.6092 18.1414L9.79753 18.156ZM9.8527 21.1307C9.80448 21.7898 10.2701 22.3673 10.9183 22.4908L11.0702 21.6933C10.8083 21.6434 10.6456 21.4192 10.6624 21.19L9.8527 21.1307ZM10.9942 22.4979H12.3267V21.6861H10.9942V22.4979ZM15.2887 19.4867L15.852 19.3567L15.6695 18.5656L15.1061 18.6956L15.2887 19.4867ZM15.8552 19.356C16.5255 19.1957 17.0117 18.618 17.0117 17.9212H16.1998C16.1998 18.221 15.9926 18.4884 15.6663 18.5664L15.8552 19.356ZM17.0117 17.9212V11.7245H16.1998V17.9212H17.0117ZM17.0117 11.7245C17.0117 10.855 16.2817 10.1811 15.4141 10.1811V10.9929C15.8681 10.9929 16.1998 11.3374 16.1998 11.7245H17.0117ZM15.4141 10.1811H4.79742V10.9929H15.4141V10.1811ZM4.79742 10.1811C3.89849 10.1811 3.03271 10.8636 2.89068 11.7584L3.69249 11.8856C3.76713 11.4154 4.26635 10.9929 4.79742 10.9929V10.1811ZM2.89301 11.7451L1.89634 16.9127L2.6935 17.0664L3.69016 11.8989L2.89301 11.7451ZM1.89308 16.9321C1.8367 17.3267 1.80233 17.7362 1.80233 18.1379H2.61418C2.61418 17.7812 2.6448 17.4107 2.69676 17.0469L1.89308 16.9321ZM1.80233 18.1379V21.117H2.61418V18.1379H1.80233ZM1.80233 21.117C1.80233 21.9 2.45661 22.498 3.22667 22.498V21.6862C2.87006 21.6862 2.61418 21.4174 2.61418 21.117H1.80233ZM3.22667 22.498L12.5216 22.4979L12.5216 21.6861L3.22667 21.6862L3.22667 22.498ZM12.5216 22.4979C13.0782 22.4979 13.6055 22.1671 13.8107 21.6303L13.0524 21.3404C12.976 21.5402 12.7666 21.6861 12.5216 21.6861V22.4979ZM13.8089 21.6351L14.3506 20.2701L13.5959 19.9706L13.0543 21.3356L13.8089 21.6351ZM14.3496 20.2725C14.5051 19.8878 14.853 19.5867 15.2796 19.4863L15.0936 18.696C14.4152 18.8557 13.8531 19.3346 13.5969 19.9682L14.3496 20.2725ZM15.1866 19.4971H15.1974V18.6852H15.1866V19.4971ZM24.9691 19.7576L17.115 19.7578L17.115 20.5697L24.9691 20.5694L24.9691 19.7576ZM28.8366 22.3464H29.3351V21.5346H28.8366V22.3464ZM29.3351 22.3464C29.4898 22.3464 29.6189 22.2859 29.7087 22.2299C29.802 22.1717 29.887 22.0969 29.9616 22.0215C30.1107 21.8708 30.2597 21.675 30.3963 21.4798C30.5347 21.2822 30.6711 21.0694 30.7926 20.879C30.9172 20.6839 31.0224 20.5181 31.1074 20.3981L30.445 19.9289C30.3458 20.0689 30.2275 20.2554 30.1083 20.4422C29.986 20.6338 29.8583 20.8327 29.7312 21.0143C29.6023 21.1984 29.4845 21.3493 29.3844 21.4505C29.3344 21.5011 29.2992 21.5285 29.279 21.5411C29.2554 21.5558 29.2779 21.5346 29.3351 21.5346V22.3464ZM30.7762 19.7576H28.1215V20.5694H30.7762V19.7576ZM17.3315 22.3462H24.4382V21.5344H17.3315V22.3462ZM28.073 21.7236C28.073 22.3444 27.8899 22.8899 27.6141 23.2702C27.338 23.6509 26.9913 23.8419 26.6481 23.8419V24.6537C27.316 24.6537 27.8848 24.2797 28.2713 23.7468C28.6581 23.2135 28.8849 22.4969 28.8849 21.7236H28.073ZM26.6481 23.8419C26.3049 23.8419 25.9582 23.6509 25.6821 23.2702C25.4063 22.8899 25.2232 22.3444 25.2232 21.7236H24.4114C24.4114 22.4969 24.6381 23.2135 25.0249 23.7468C25.4114 24.2797 25.9802 24.6537 26.6481 24.6537V23.8419ZM25.2232 21.7236C25.2232 21.1028 25.4063 20.5574 25.6821 20.1771C25.9582 19.7964 26.3049 19.6054 26.6481 19.6054V18.7935C25.9802 18.7935 25.4114 19.1676 25.0249 19.7004C24.6381 20.2338 24.4114 20.9504 24.4114 21.7236H25.2232ZM26.6481 19.6054C26.9913 19.6054 27.338 19.7964 27.6141 20.1771C27.8899 20.5574 28.073 21.1028 28.073 21.7236H28.8849C28.8849 20.9504 28.6581 20.2338 28.2713 19.7004C27.8848 19.1676 27.316 18.7935 26.6481 18.7935V19.6054ZM24.4383 22.3193C24.0323 22.3193 24.0323 22.3196 24.0324 22.3198C24.0324 22.3199 24.0324 22.3202 24.0324 22.3204C24.0324 22.3208 24.0324 22.3212 24.0324 22.3217C24.0324 22.3226 24.0324 22.3236 24.0324 22.3247C24.0324 22.327 24.0324 22.3298 24.0325 22.333C24.0326 22.3394 24.0329 22.3477 24.0333 22.3578C24.0341 22.3778 24.0357 22.4049 24.0386 22.438C24.0445 22.5041 24.0559 22.5951 24.0782 22.7029C24.1225 22.917 24.2116 23.2059 24.3927 23.4976C24.7708 24.1067 25.5043 24.6536 26.8324 24.6536V23.8417C25.7664 23.8417 25.3028 23.4245 25.0824 23.0694C24.9642 22.879 24.9037 22.6858 24.8732 22.5384C24.8581 22.4653 24.8508 22.4057 24.8473 22.3663C24.8455 22.3467 24.8448 22.3324 24.8444 22.3242C24.8443 22.3201 24.8442 22.3176 24.8442 22.3167C24.8442 22.3163 24.8442 22.3163 24.8442 22.3167C24.8442 22.3169 24.8442 22.3173 24.8442 22.3177C24.8442 22.3179 24.8442 22.3182 24.8442 22.3184C24.8442 22.3186 24.8442 22.3188 24.8442 22.3189C24.8442 22.3191 24.8442 22.3193 24.4383 22.3193ZM7.50002 10.2944V9.25443H6.68817V10.2944H7.50002ZM7.50002 9.25443C7.50002 9.04432 7.58479 8.86036 7.75002 8.72208C7.91928 8.58044 8.19695 8.46868 8.59993 8.46868V7.65684C8.04957 7.65684 7.57432 7.8105 7.229 8.09948C6.87965 8.39184 6.68817 8.80371 6.68817 9.25443H7.50002ZM8.59993 8.46868H30.4941V7.65684H8.59993V8.46868ZM30.4941 8.46868C30.5416 8.46868 30.6807 8.51416 30.8259 8.67903C30.9607 8.83212 31.0523 9.03755 31.0523 9.25443H31.8642C31.8642 8.81048 31.6796 8.42007 31.4352 8.14253C31.2012 7.87678 30.8582 7.65684 30.4941 7.65684V8.46868ZM31.0523 9.25443V19.2753H31.8642V9.25443H31.0523ZM31.0523 19.2753C31.0523 19.526 30.8352 19.7577 30.5374 19.7577V20.5695C31.258 20.5695 31.8642 19.9995 31.8642 19.2753H31.0523ZM30.5374 19.7577H28.7499V20.5695H30.5374V19.7577ZM18.6042 20.1636V9.29778H17.7923V20.1636H18.6042ZM18.6042 9.29778C18.6042 8.86612 18.9805 8.47953 19.4766 8.47953V7.66768C18.5644 7.66768 17.7923 8.3861 17.7923 9.29778H18.6042ZM19.4766 8.47953H19.8233V7.66768H19.4766V8.47953ZM16.7089 21.7236C16.7089 22.3519 16.5388 22.9023 16.285 23.2837C16.0294 23.668 15.721 23.8419 15.4357 23.8419V24.6537C16.0777 24.6537 16.6089 24.2626 16.961 23.7333C17.315 23.2012 17.5207 22.4895 17.5207 21.7236H16.7089ZM15.4357 23.8419C15.1503 23.8419 14.8419 23.668 14.5863 23.2837C14.3326 22.9022 14.1624 22.3519 14.1624 21.7236H13.3506C13.3506 22.4895 13.5563 23.2012 13.9103 23.7333C14.2624 24.2626 14.7936 24.6537 15.4357 24.6537V23.8419ZM14.1624 21.7236C14.1624 21.0954 14.3326 20.545 14.5863 20.1636C14.842 19.7793 15.1503 19.6054 15.4357 19.6054V18.7935C14.7936 18.7935 14.2624 19.1847 13.9103 19.7139C13.5563 20.2461 13.3506 20.9578 13.3506 21.7236H14.1624ZM15.4357 19.6054C15.721 19.6054 16.0294 19.7793 16.285 20.1636C16.5388 20.545 16.7089 21.0954 16.7089 21.7236H17.5207C17.5207 20.9578 17.315 20.2461 16.961 19.714C16.6089 19.1847 16.0777 18.7935 15.4357 18.7935V19.6054ZM13.2365 22.3193C12.8306 22.3193 12.8306 22.3196 12.8306 22.3198C12.8306 22.3199 12.8306 22.3201 12.8306 22.3203C12.8306 22.3207 12.8306 22.3211 12.8306 22.3215C12.8306 22.3223 12.8306 22.3233 12.8306 22.3244C12.8306 22.3266 12.8307 22.3292 12.8307 22.3323C12.8308 22.3385 12.831 22.3466 12.8314 22.3564C12.8322 22.376 12.8336 22.4026 12.8362 22.4351C12.8415 22.5002 12.8518 22.59 12.8721 22.6964C12.9122 22.9078 12.9932 23.1943 13.1588 23.4846C13.505 24.0919 14.1886 24.6537 15.4357 24.6537V23.8419C14.4836 23.8419 14.0675 23.4394 13.864 23.0825C13.7547 22.8907 13.6982 22.6951 13.6697 22.5449C13.6555 22.4705 13.6487 22.4097 13.6454 22.3692C13.6437 22.3491 13.643 22.3342 13.6427 22.3256C13.6425 22.3212 13.6425 22.3185 13.6424 22.3174C13.6424 22.3169 13.6424 22.3167 13.6424 22.3171C13.6424 22.3172 13.6424 22.3175 13.6424 22.3179C13.6424 22.3181 13.6424 22.3183 13.6424 22.3185C13.6424 22.3186 13.6424 22.3188 13.6424 22.3189C13.6424 22.3191 13.6424 22.3193 13.2365 22.3193ZM7.52524 22.0492C7.47295 22.5435 7.29355 22.9642 7.05517 23.2529C6.81693 23.5414 6.53878 23.6797 6.27107 23.6797V24.4915C6.83769 24.4915 7.32887 24.1964 7.68117 23.7698C8.03332 23.3433 8.26567 22.7671 8.33258 22.1346L7.52524 22.0492ZM6.27107 23.6797C5.73225 23.6797 5.16464 23.1356 5.02591 22.1645L4.22222 22.2793C4.38689 23.432 5.14122 24.4915 6.27107 24.4915V23.6797ZM4.07155 22.3085C3.66563 22.3086 3.66563 22.3088 3.66563 22.3091C3.66563 22.3092 3.66563 22.3094 3.66563 22.3096C3.66563 22.31 3.66563 22.3104 3.66564 22.3109C3.66564 22.3117 3.66565 22.3127 3.66566 22.3138C3.66568 22.316 3.66572 22.3187 3.66578 22.3218C3.6659 22.3279 3.66613 22.3358 3.66652 22.3453C3.6673 22.3642 3.66877 22.3896 3.67152 22.4207C3.67701 22.4826 3.68766 22.5676 3.70843 22.6682C3.74969 22.8681 3.83265 23.1379 4.00147 23.4107C4.355 23.9819 5.0398 24.4915 6.27107 24.4915V23.6797C5.30318 23.6797 4.88821 23.3008 4.69178 22.9834C4.58561 22.8119 4.53104 22.6375 4.50351 22.5041C4.48988 22.4381 4.48333 22.3843 4.4802 22.349C4.47865 22.3315 4.47796 22.3187 4.47767 22.3116C4.47752 22.3081 4.47747 22.306 4.47746 22.3054C4.47746 22.3051 4.47746 22.3052 4.47747 22.3057C4.47747 22.306 4.47747 22.3063 4.47747 22.3068C4.47747 22.307 4.47747 22.3072 4.47748 22.3075C4.47748 22.3076 4.47748 22.3079 4.47748 22.3079C4.47748 22.3082 4.47748 22.3084 4.07155 22.3085ZM10.0162 15.6539L9.16033 16.0981L9.5343 16.8187L10.3901 16.3745L10.0162 15.6539ZM9.15826 16.0992C9.0161 16.174 8.84364 16.215 8.66483 16.215V17.0268C8.96268 17.0268 9.26686 16.9594 9.53637 16.8176L9.15826 16.0992ZM8.67151 16.215L4.06734 16.1392L4.05398 16.9509L8.65814 17.0268L8.67151 16.215ZM4.06066 16.1392C3.6106 16.1392 3.46978 16.1079 3.35748 15.9565L2.70548 16.4403C3.09151 16.9606 3.66572 16.951 4.06066 16.951V16.1392ZM3.34916 15.9457L2.97 15.469L2.33464 15.9744L2.7138 16.4511L3.34916 15.9457ZM12.1048 13.0785V15.1585H12.9167V13.0785H12.1048ZM3.8441 21.9778H8.46993V21.166H3.8441V21.9778ZM2.51162 18.7495H8.46995V17.9377H2.51162V18.7495Z" fill="#FDFDFD"/>
</svg>
