<svg width="164" height="16" viewBox="0 0 164 16" fill="none" xmlns="http://www.w3.org/2000/svg">
<path d="M158.644 15.2846C157.539 15.2846 156.49 15.1046 155.498 14.7446C154.52 14.3708 153.762 13.8931 153.224 13.3115L153.713 12.5223C154.223 13.0346 154.917 13.4708 155.796 13.8308C156.688 14.1769 157.631 14.35 158.623 14.35C159.614 14.35 160.422 14.2254 161.046 13.9762C161.683 13.7131 162.151 13.3669 162.448 12.9377C162.76 12.5085 162.916 12.0308 162.916 11.5046C162.916 10.8815 162.746 10.3831 162.406 10.0092C162.066 9.63539 161.62 9.33769 161.067 9.11615C160.514 8.89462 159.912 8.70769 159.26 8.55538C158.608 8.40308 157.95 8.24385 157.284 8.07769C156.618 7.89769 156.008 7.66923 155.456 7.39231C154.903 7.11538 154.457 6.74154 154.117 6.27077C153.791 5.78615 153.628 5.16308 153.628 4.40154C153.628 3.70923 153.812 3.07231 154.18 2.49077C154.549 1.90923 155.123 1.43846 155.902 1.07846C156.681 0.718462 157.68 0.538462 158.899 0.538462C159.721 0.538462 160.528 0.656154 161.322 0.891539C162.13 1.12692 162.817 1.44539 163.384 1.84692L162.98 2.69846C162.356 2.28308 161.683 1.97846 160.961 1.78462C160.252 1.57692 159.565 1.47308 158.899 1.47308C157.95 1.47308 157.163 1.60462 156.54 1.86769C155.916 2.13077 155.456 2.48385 155.158 2.92692C154.86 3.35615 154.712 3.84077 154.712 4.38077C154.712 5.00385 154.875 5.50231 155.201 5.87615C155.541 6.25 155.987 6.54769 156.54 6.76923C157.092 6.99077 157.702 7.17769 158.368 7.33C159.034 7.48231 159.692 7.64846 160.344 7.82846C160.996 7.99462 161.598 8.21616 162.151 8.49308C162.704 8.77 163.15 9.14385 163.49 9.61462C163.83 10.0854 164 10.6946 164 11.4423C164 12.1208 163.809 12.7577 163.426 13.3531C163.044 13.9346 162.456 14.4054 161.662 14.7654C160.883 15.1115 159.877 15.2846 158.644 15.2846Z" fill="#D81E05"/>
<path d="M141.111 15.2846C140.006 15.2846 138.978 15.1046 138.029 14.7446C137.094 14.3708 136.272 13.8515 135.564 13.1869C134.869 12.5085 134.331 11.7262 133.948 10.84C133.566 9.94 133.374 8.96385 133.374 7.91154C133.374 6.85923 133.566 5.89 133.948 5.00385C134.331 4.10385 134.869 3.32154 135.564 2.65692C136.272 1.97846 137.094 1.45923 138.029 1.09923C138.978 0.725385 140.006 0.538462 141.111 0.538462C142.216 0.538462 143.237 0.725385 144.172 1.09923C145.121 1.45923 145.943 1.97154 146.637 2.63615C147.332 3.30077 147.87 4.08308 148.253 4.98308C148.649 5.86923 148.848 6.84539 148.848 7.91154C148.848 8.97769 148.649 9.96077 148.253 10.8608C147.87 11.7469 147.332 12.5223 146.637 13.1869C145.943 13.8515 145.121 14.3708 144.172 14.7446C143.237 15.1046 142.216 15.2846 141.111 15.2846ZM141.111 14.3085C142.06 14.3085 142.939 14.1492 143.747 13.8308C144.554 13.5123 145.256 13.0623 145.851 12.4808C146.446 11.8992 146.907 11.2208 147.232 10.4454C147.572 9.67 147.743 8.82539 147.743 7.91154C147.743 6.98385 147.572 6.13923 147.232 5.37769C146.907 4.60231 146.446 3.92385 145.851 3.34231C145.256 2.76077 144.554 2.31077 143.747 1.99231C142.939 1.67385 142.06 1.51462 141.111 1.51462C140.162 1.51462 139.283 1.67385 138.475 1.99231C137.668 2.31077 136.959 2.76077 136.35 3.34231C135.755 3.92385 135.287 4.60231 134.947 5.37769C134.621 6.13923 134.458 6.98385 134.458 7.91154C134.458 8.82539 134.621 9.67 134.947 10.4454C135.287 11.2208 135.755 11.8992 136.35 12.4808C136.959 13.0623 137.668 13.5123 138.475 13.8308C139.283 14.1492 140.162 14.3085 141.111 14.3085Z" fill="#D81E05"/>
<path d="M115.113 15.1808V0.642315H121C122.573 0.642315 123.955 0.953854 125.145 1.57693C126.335 2.20001 127.256 3.05847 127.908 4.15232C128.574 5.24616 128.907 6.49924 128.907 7.91155C128.907 9.32385 128.574 10.5769 127.908 11.6708C127.256 12.7646 126.335 13.6231 125.145 14.2462C123.955 14.8692 122.573 15.1808 121 15.1808H115.113ZM116.197 14.2254H120.915C122.318 14.2254 123.537 13.9554 124.571 13.4154C125.606 12.8754 126.406 12.1346 126.973 11.1931C127.54 10.2377 127.823 9.14385 127.823 7.91155C127.823 6.67924 127.54 5.59232 126.973 4.65078C126.406 3.69539 125.606 2.9477 124.571 2.4077C123.537 1.8677 122.318 1.5977 120.915 1.5977H116.197V14.2254Z" fill="#D81E05"/>
<path d="M95.5142 15.1808L102.358 0.642315H103.442L110.286 15.1808H109.117L102.656 1.30693H103.123L96.6832 15.1808H95.5142ZM98.0222 11.0892L98.3836 10.1962H107.289L107.651 11.0892H98.0222Z" fill="#D81E05"/>
<path d="M89.6069 15.1808V0.642315H90.6909V15.1808H89.6069Z" fill="#D81E05"/>
<path d="M75.0481 15.1808V0.642315H76.1321V14.2254H84.6978V15.1808H75.0481Z" fill="#D81E05"/>
<path d="M69.6729 15.1808L67.76 11.0892H59.1305L57.2388 15.1808H56.0698L62.9139 0.642316H63.9979L70.8419 15.1808H69.6729ZM59.5556 10.1962H67.3561L63.4452 1.80539L59.5556 10.1962Z" fill="#575F64"/>
<path d="M49.7263 0.642316H50.8103V15.1808H49.9176L39.7791 2.55309V15.1808H38.6951V0.642316H39.609L49.7263 13.27V0.642316Z" fill="#575F64"/>
<path d="M24.6479 15.2846C20.2056 15.2846 16.9111 12.1277 16.9111 7.91154C16.9111 3.69538 20.2056 0.538462 24.6479 0.538462C29.0689 0.538462 32.3846 3.67462 32.3846 7.91154C32.3846 12.1485 29.0689 15.2846 24.6479 15.2846ZM24.6479 14.3085C28.4313 14.3085 31.2794 11.5877 31.2794 7.91154C31.2794 4.23539 28.4313 1.51462 24.6479 1.51462C20.8433 1.51462 17.9951 4.23539 17.9951 7.91154C17.9951 11.5877 20.8433 14.3085 24.6479 14.3085Z" fill="#575F64"/>
<path d="M2.14557 14.2254H12.6242V15.1808H0.636475V14.4331L10.9026 1.5977H0.764004V0.642316H12.3904V1.39001L2.14557 14.2254Z" fill="#575F64"/>
</svg>
