<svg width="18" height="13" viewBox="0 0 18 13" fill="none" xmlns="http://www.w3.org/2000/svg">
<path fill-rule="evenodd" clip-rule="evenodd" d="M17.0479 0.851588C17.2729 1.07662 17.3993 1.38179 17.3993 1.69999C17.3993 2.01818 17.2729 2.32335 17.0479 2.54839L7.44791 12.1484C7.22288 12.3734 6.91771 12.4997 6.59951 12.4997C6.28132 12.4997 5.97615 12.3734 5.75111 12.1484L0.951112 7.34839C0.732522 7.12207 0.611569 6.81894 0.614303 6.50431C0.617037 6.18967 0.74324 5.8887 0.96573 5.66621C1.18822 5.44372 1.48919 5.31751 1.80383 5.31478C2.11847 5.31205 2.42159 5.433 2.64791 5.65159L6.59951 9.60319L15.3511 0.851588C15.5761 0.626623 15.8813 0.500244 16.1995 0.500244C16.5177 0.500244 16.8229 0.626623 17.0479 0.851588Z" fill="#D81E05"/>
</svg>
