<svg width="22" height="20" viewBox="0 0 22 20" fill="none" xmlns="http://www.w3.org/2000/svg">
<path fill-rule="evenodd" clip-rule="evenodd" d="M1.25 10C1.25 4.61522 5.61522 0.25 11 0.25C16.3848 0.25 20.75 4.61522 20.75 10V12.7927C20.8282 12.765 20.9123 12.75 21 12.75C21.4142 12.75 21.75 13.0858 21.75 13.5V15.5C21.75 15.9142 21.4142 16.25 21 16.25C20.9094 16.25 20.8225 16.2339 20.742 16.2045C20.7365 16.4049 20.7272 16.5895 20.7116 16.7587C20.6712 17.194 20.5841 17.5954 20.3689 17.9712C20.2257 18.2213 20.0455 18.448 19.8341 18.6429C19.5137 18.9382 19.1423 19.106 18.7312 19.2306C18.3426 19.3484 17.86 19.4436 17.2884 19.5563L17.2142 19.5709C16.8239 19.6479 16.4695 19.7178 16.1745 19.7411C15.8571 19.7661 15.4993 19.7486 15.1565 19.5557C14.9536 19.4415 14.7762 19.288 14.6334 19.1053C14.3961 18.8017 14.3167 18.4552 14.2824 18.1362C14.2499 17.8354 14.25 17.4644 14.25 17.0479V11.8117C14.25 11.4578 14.25 11.1398 14.2754 10.8788C14.3025 10.6002 14.3647 10.2991 14.5481 10.0202C14.6991 9.79045 14.9016 9.59775 15.1411 9.45969C15.4362 9.28963 15.7438 9.25197 16.0215 9.25008C16.2782 9.24833 16.5863 9.27873 16.9223 9.31189L16.9923 9.3188C17.578 9.37653 18.0707 9.42511 18.47 9.5042C18.7437 9.5584 19.0031 9.63197 19.2462 9.74855C19.1133 5.30853 15.4722 1.75 11 1.75C6.52777 1.75 2.88668 5.30853 2.75376 9.74855C2.99693 9.63197 3.25631 9.5584 3.52996 9.5042C3.92926 9.42511 4.42201 9.37653 5.00766 9.3188L5.07774 9.31189C5.41372 9.27873 5.7218 9.24833 5.97846 9.25008C6.25619 9.25197 6.56376 9.28963 6.85887 9.45969C7.09845 9.59775 7.30087 9.79045 7.45194 10.0202C7.63531 10.2991 7.6975 10.6002 7.72463 10.8788C7.75005 11.1398 7.75003 11.4578 7.75 11.8117V17.0479C7.75003 17.4644 7.75006 17.8354 7.71765 18.1362C7.68328 18.4552 7.60391 18.8017 7.36662 19.1053C7.22384 19.288 7.04645 19.4415 6.84347 19.5557C6.50067 19.7486 6.14291 19.7661 5.82548 19.7411C5.53055 19.7178 5.17612 19.6479 4.78584 19.5709L4.71157 19.5563C4.13998 19.4436 3.65744 19.3484 3.26885 19.2306C2.85769 19.106 2.48634 18.9382 2.1659 18.6429C1.95448 18.448 1.77432 18.2213 1.63113 17.9712C1.41589 17.5954 1.32879 17.194 1.28845 16.7587C1.27277 16.5895 1.26348 16.4049 1.25798 16.2045C1.17754 16.2339 1.09065 16.25 1 16.25C0.585786 16.25 0.25 15.9142 0.25 15.5V13.5C0.25 13.0858 0.585786 12.75 1 12.75C1.08766 12.75 1.17181 12.765 1.25 12.7927V10ZM2.75 15.1933C2.75 15.8449 2.75075 16.2825 2.78205 16.6203C2.8122 16.9456 2.86609 17.1093 2.93282 17.2259C3.00072 17.3444 3.08514 17.4502 3.18242 17.5398C3.27434 17.6245 3.41013 17.7061 3.70398 17.7951C4.01235 17.8886 4.42073 17.97 5.03738 18.0916C5.47899 18.1787 5.74625 18.2302 5.94334 18.2457C6.04961 18.2541 6.09804 18.2481 6.11422 18.2448C6.13915 18.2297 6.16292 18.2092 6.18363 18.183C6.1898 18.1709 6.21084 18.1188 6.22628 17.9755C6.24897 17.7649 6.25 17.476 6.25 17.0104V11.8446C6.25 11.4474 6.24917 11.2036 6.23169 11.0241C6.21948 10.8988 6.2026 10.8534 6.19802 10.8434C6.17461 10.8081 6.1457 10.7811 6.11498 10.7623C6.10182 10.7588 6.06058 10.7507 5.96825 10.75C5.80038 10.7489 5.57237 10.7704 5.19054 10.808C4.55982 10.8702 4.14042 10.9124 3.8214 10.9756C3.51569 11.0362 3.37392 11.1037 3.27863 11.1755C3.1388 11.2808 3.01933 11.4167 2.92927 11.5759C2.86481 11.6899 2.81135 11.8541 2.78152 12.1848C2.75071 12.5264 2.75 12.9699 2.75 13.6276V15.1933ZM19.25 13.6276C19.25 12.9699 19.2493 12.5264 19.2185 12.1848C19.1886 11.8541 19.1352 11.6899 19.0707 11.5759C18.9807 11.4167 18.8612 11.2808 18.7214 11.1755C18.6261 11.1037 18.4843 11.0362 18.1786 10.9756C17.8596 10.9124 17.4402 10.8702 16.8095 10.808C16.4276 10.7704 16.1996 10.7489 16.0318 10.75C15.9394 10.7507 15.8982 10.7588 15.885 10.7623C15.8543 10.7811 15.8254 10.8081 15.802 10.8434C15.7974 10.8534 15.7805 10.8988 15.7683 11.0241C15.7508 11.2036 15.75 11.4474 15.75 11.8446V17.0104C15.75 17.476 15.751 17.7649 15.7737 17.9755C15.7892 18.1188 15.8102 18.1709 15.8164 18.183C15.8371 18.2092 15.8609 18.2297 15.8858 18.2448C15.902 18.2481 15.9504 18.2541 16.0567 18.2457C16.2538 18.2302 16.521 18.1787 16.9626 18.0916C17.5793 17.97 17.9876 17.8886 18.296 17.7951C18.5899 17.7061 18.7257 17.6245 18.8176 17.5398C18.9149 17.4502 18.9993 17.3444 19.0672 17.2259C19.1339 17.1093 19.1878 16.9456 19.218 16.6203C19.2493 16.2825 19.25 15.8449 19.25 15.1933V13.6276Z" fill="#C9CFD3"/>
</svg>
