<svg width="24" height="24" viewBox="0 0 24 24" fill="none" xmlns="http://www.w3.org/2000/svg">
<path d="M15.99 19.8501C18.398 19.8501 20.35 17.9473 20.35 15.6001C20.35 13.2529 18.398 11.3501 15.99 11.3501C13.582 11.3501 11.63 13.2529 11.63 15.6001C11.63 17.9473 13.582 19.8501 15.99 19.8501Z" stroke="#BEC1C3" stroke-width="1.3" stroke-linecap="round" stroke-linejoin="round"/>
<path d="M7.46002 8.8999H14.02" stroke="#BEC1C3" stroke-width="1.3" stroke-linecap="round" stroke-linejoin="round"/>
<path d="M7.46002 12.54H10.74" stroke="#BEC1C3" stroke-width="1.3" stroke-linecap="round" stroke-linejoin="round"/>
<path d="M7.46002 16.4399H9.63002" stroke="#BEC1C3" stroke-width="1.3" stroke-linecap="round" stroke-linejoin="round"/>
<path d="M13.53 21.32H6.85997C5.91997 21.32 5.15997 20.46 5.15997 19.39V7.37004C5.15997 6.30004 5.91997 5.44004 6.85997 5.44004H8.03997L8.21997 5.25004V4.97004C8.21997 4.47004 8.56997 4.07004 9.00997 4.07004H9.26997C9.39997 4.07004 9.49997 3.95004 9.49997 3.80004V3.47004C9.49997 3.09004 9.76997 2.79004 10.1 2.79004H13.94C14.27 2.79004 14.54 3.10004 14.54 3.47004V3.80004C14.54 3.95004 14.64 4.07004 14.77 4.07004H15.03C15.47 4.07004 15.82 4.47004 15.82 4.97004V5.25004L16 5.44004H17.18C18.12 5.44004 18.88 6.30004 18.88 7.37004V10.1" stroke="#BEC1C3" stroke-width="1.3" stroke-linecap="round" stroke-linejoin="round"/>
<path d="M12.7 4.54988C12.7 4.91988 12.4 5.11988 12.03 5.11988C11.66 5.11988 11.36 4.91988 11.36 4.54988C11.36 4.17988 11.66 3.87988 12.03 3.87988C12.4 3.87988 12.7 4.17988 12.7 4.54988Z" fill="#BEC1C3"/>
<path d="M18.89 18.8799L21.41 21.4799" stroke="#BEC1C3" stroke-width="1.3" stroke-linecap="round" stroke-linejoin="round"/>
</svg>
