<svg width="24" height="24" viewBox="0 0 24 24" fill="none" xmlns="http://www.w3.org/2000/svg">
<path d="M4.30076 18.9056H5.21232C5.78486 18.9056 6.22934 18.4611 6.22934 17.8886V16.6606C7.8867 16.7586 10.1467 16.8188 12 16.8188C13.8457 16.8188 16.1057 16.7586 17.7631 16.6606V17.8886C17.7631 18.4611 18.2076 18.9056 18.7877 18.9056H19.6917C20.2717 18.9056 20.7162 18.4611 20.7162 17.8886V15.9073C20.9648 15.6135 21.1004 15.2217 21.1004 14.7396V13.4137C21.1004 12.0878 20.8669 11.342 20.1512 10.438L19.4807 9.59424C19.202 8.23821 18.7048 6.81438 18.4411 6.25691C18.0192 5.36795 17.2056 4.84061 16.166 4.69747C15.6161 4.62214 14.0039 4.58447 12 4.58447C9.99608 4.58447 8.37638 4.62967 7.83397 4.69747C6.79435 4.82554 5.9732 5.36795 5.55886 6.25691C5.29518 6.81438 4.79797 8.23821 4.51923 9.59424L3.84875 10.438C3.13307 11.342 2.89954 12.0878 2.89954 13.4137V14.7396C2.89954 15.2217 3.03514 15.6135 3.28374 15.9073V17.8886C3.28374 18.4611 3.72822 18.9056 4.30076 18.9056ZM12 15.5984C9.416 15.5984 6.20673 15.4779 4.98631 15.3348C4.33843 15.2594 4.09736 14.9279 4.09736 14.3554V13.3459C4.09736 12.3289 4.29323 11.8467 4.82057 11.1461L5.63419 10.0839C5.82253 9.07443 6.3122 7.50746 6.62108 6.83698C6.87721 6.30211 7.35936 5.99323 8.01477 5.91037C8.53458 5.84256 10.0036 5.7823 12 5.7823C13.9964 5.7823 15.488 5.8501 15.9701 5.91037C16.6481 5.99323 17.1152 6.30964 17.3714 6.84452C17.6953 7.49993 18.1699 9.05936 18.3582 10.0839L19.1719 11.1461C19.7067 11.8467 19.8951 12.3289 19.8951 13.3459V14.3554C19.8951 14.9279 19.654 15.2594 19.0137 15.3348C17.7932 15.4779 14.584 15.5984 12 15.5984ZM6.65874 9.33057C6.58341 9.63944 6.71901 9.78258 7.04295 9.76751C8.15037 9.69971 9.54407 9.63191 12 9.63191C14.4559 9.63191 15.8496 9.69971 16.9495 9.76751C17.281 9.78258 17.409 9.63944 17.3412 9.33057C17.1755 8.60735 16.8666 7.65813 16.6481 7.28146C16.4372 6.90479 16.1961 6.74658 15.7517 6.68631C15.2394 6.61851 14.0114 6.56578 12 6.56578C9.98854 6.56578 8.75305 6.61851 8.24831 6.68631C7.80383 6.74658 7.55523 6.90479 7.35182 7.28146C7.13335 7.65813 6.82448 8.60735 6.65874 9.33057ZM6.54574 14.6266C7.26896 14.6266 7.81137 14.0842 7.81137 13.3685C7.81137 12.6453 7.26896 12.1029 6.54574 12.1029C5.83006 12.1029 5.28765 12.6453 5.28765 13.3685C5.28765 14.0842 5.83006 14.6266 6.54574 14.6266ZM17.4467 14.6266C18.1699 14.6266 18.7123 14.0842 18.7123 13.3685C18.7123 12.6453 18.1699 12.1029 17.4467 12.1029C16.731 12.1029 16.1886 12.6453 16.1886 13.3685C16.1886 14.0842 16.731 14.6266 17.4467 14.6266ZM9.96594 14.3102H14.034C14.5689 14.3102 14.9456 13.9335 14.9456 13.3986C14.9456 12.8638 14.5689 12.4871 14.034 12.4871H9.96594C9.42353 12.4871 9.04686 12.8638 9.04686 13.3986C9.04686 13.9335 9.42353 14.3102 9.96594 14.3102Z" fill="#C9CFD3"/>
</svg>
