<svg width="20" height="15" viewBox="0 0 20 15" fill="none" xmlns="http://www.w3.org/2000/svg">
<path d="M2.30089 14.9056H3.21244C3.78498 14.9056 4.22946 14.4611 4.22946 13.8886V12.6606C5.88682 12.7586 8.14687 12.8188 10.0001 12.8188C11.8458 12.8188 14.1059 12.7586 15.7632 12.6606V13.8886C15.7632 14.4611 16.2077 14.9056 16.7878 14.9056H17.6918C18.2719 14.9056 18.7163 14.4611 18.7163 13.8886V11.9073C18.9649 11.6135 19.1006 11.2217 19.1006 10.7396V9.41371C19.1006 8.08782 18.867 7.34201 18.1513 6.43799L17.4809 5.59424C17.2021 4.23821 16.7049 2.81438 16.4412 2.25691C16.0194 1.36795 15.2057 0.840611 14.1661 0.697475C13.6162 0.62214 12.004 0.584473 10.0001 0.584473C7.9962 0.584473 6.3765 0.629674 5.83409 0.697475C4.79447 0.825544 3.97332 1.36795 3.55898 2.25691C3.29531 2.81438 2.7981 4.23821 2.51936 5.59424L1.84888 6.43799C1.1332 7.34201 0.899658 8.08782 0.899658 9.41371V10.7396C0.899658 11.2217 1.03526 11.6135 1.28387 11.9073V13.8886C1.28387 14.4611 1.72834 14.9056 2.30089 14.9056ZM10.0001 11.5984C7.41612 11.5984 4.20686 11.4779 2.98643 11.3348C2.33855 11.2594 2.09748 10.9279 2.09748 10.3554V9.34591C2.09748 8.32889 2.29335 7.84675 2.8207 7.14614L3.63431 6.08391C3.82265 5.07443 4.31233 3.50746 4.6212 2.83698C4.87734 2.30211 5.35948 1.99323 6.01489 1.91037C6.5347 1.84256 8.00373 1.7823 10.0001 1.7823C11.9965 1.7823 13.4881 1.8501 13.9703 1.91037C14.6483 1.99323 15.1153 2.30964 15.3715 2.84452C15.6954 3.49993 16.17 5.05936 16.3584 6.08391L17.172 7.14614C17.7069 7.84675 17.8952 8.32889 17.8952 9.34591V10.3554C17.8952 10.9279 17.6541 11.2594 17.0138 11.3348C15.7934 11.4779 12.5841 11.5984 10.0001 11.5984ZM4.65887 5.33057C4.58353 5.63944 4.71913 5.78258 5.04307 5.76751C6.1505 5.69971 7.54419 5.63191 10.0001 5.63191C12.456 5.63191 13.8497 5.69971 14.9496 5.76751C15.2811 5.78258 15.4091 5.63944 15.3413 5.33057C15.1756 4.60735 14.8667 3.65813 14.6483 3.28146C14.4373 2.90479 14.1963 2.74658 13.7518 2.68631C13.2395 2.61851 12.0115 2.56578 10.0001 2.56578C7.98867 2.56578 6.75317 2.61851 6.24843 2.68631C5.80396 2.74658 5.55535 2.90479 5.35195 3.28146C5.13348 3.65813 4.8246 4.60735 4.65887 5.33057ZM4.54586 10.6266C5.26908 10.6266 5.81149 10.0842 5.81149 9.36851C5.81149 8.6453 5.26908 8.10289 4.54586 8.10289C3.83018 8.10289 3.28777 8.6453 3.28777 9.36851C3.28777 10.0842 3.83018 10.6266 4.54586 10.6266ZM15.4468 10.6266C16.17 10.6266 16.7124 10.0842 16.7124 9.36851C16.7124 8.6453 16.17 8.10289 15.4468 8.10289C14.7311 8.10289 14.1887 8.6453 14.1887 9.36851C14.1887 10.0842 14.7311 10.6266 15.4468 10.6266ZM7.96606 10.3102H12.0341C12.569 10.3102 12.9457 9.93352 12.9457 9.39865C12.9457 8.86377 12.569 8.4871 12.0341 8.4871H7.96606C7.42365 8.4871 7.04698 8.86377 7.04698 9.39865C7.04698 9.93352 7.42365 10.3102 7.96606 10.3102Z" fill="#D81E05"/>
</svg>
