<svg width="24" height="24" viewBox="0 0 24 24" fill="none" xmlns="http://www.w3.org/2000/svg">
<path d="M8.02998 11.87C9.92431 11.87 11.46 10.3343 11.46 8.44001C11.46 6.54567 9.92431 5.01001 8.02998 5.01001C6.13564 5.01001 4.59998 6.54567 4.59998 8.44001C4.59998 10.3343 6.13564 11.87 8.02998 11.87Z" stroke="#BEC1C3" stroke-width="1.1" stroke-miterlimit="10"/>
<path d="M2.64001 19.0901C2.64001 19.0201 2.64001 17.5501 2.64001 17.4801C2.64001 14.5001 5.06001 12.0901 8.03001 12.0901C11 12.0901 13.42 14.5101 13.42 17.4801C13.42 17.5601 13.42 19.0101 13.42 19.0901" stroke="#BEC1C3" stroke-width="1.1" stroke-miterlimit="10" stroke-linecap="round"/>
<path d="M13.53 8.81006H21.53" stroke="#BEC1C3" stroke-width="1.1" stroke-miterlimit="10" stroke-linecap="round"/>
<path d="M13.53 12.8101H21.53" stroke="#BEC1C3" stroke-width="1.1" stroke-miterlimit="10" stroke-linecap="round"/>
<path d="M15.53 16.8101H21.53" stroke="#BEC1C3" stroke-width="1.1" stroke-miterlimit="10" stroke-linecap="round"/>
</svg>
