<svg width="19" height="19" viewBox="0 0 19 19" fill="none" xmlns="http://www.w3.org/2000/svg">
<path fill-rule="evenodd" clip-rule="evenodd" d="M6.86537 3.64431C7.89783 1.54227 10.0603 0.09375 12.5625 0.09375C16.0661 0.09375 18.9062 2.93394 18.9062 6.4375C18.9062 7.37558 18.7022 8.26779 18.3355 9.07067C18.2398 9.28021 18.2211 9.47813 18.2637 9.63717L18.3751 10.0537C18.7319 11.3871 17.5121 12.6069 16.1787 12.2501L15.7622 12.1387C15.6438 12.107 15.5039 12.1092 15.3537 12.1519C14.9074 15.9553 11.6733 18.9062 7.75 18.9062C6.56878 18.9062 5.4483 18.6383 4.44766 18.1592C4.24957 18.0644 4.05453 18.0452 3.89408 18.0881L2.8213 18.3751C1.48795 18.7319 0.268114 17.5121 0.624872 16.1787L0.91191 15.1059C0.954839 14.9455 0.935599 14.7504 0.840762 14.5523C0.361705 13.5517 0.09375 12.4312 0.09375 11.25C0.09375 7.32077 3.05364 4.08285 6.86537 3.64431ZM8.39311 3.62038C12.1773 3.9351 15.18 7.00197 15.394 10.8139C15.6237 10.792 15.8625 10.8068 16.1014 10.8708L16.5179 10.9822C16.8757 11.0779 17.2029 10.7507 17.1072 10.3929L16.9958 9.97641C16.8583 9.46249 16.9479 8.94946 17.1416 8.52534C17.4317 7.89019 17.5938 7.18366 17.5938 6.4375C17.5938 3.65882 15.3412 1.40625 12.5625 1.40625C10.8283 1.40625 9.29805 2.28373 8.39311 3.62038ZM7.75 4.90625C4.24644 4.90625 1.40625 7.74644 1.40625 11.25C1.40625 12.2309 1.62843 13.1581 2.02459 13.9856C2.23057 14.4158 2.31694 14.9326 2.17981 15.4452L1.89277 16.5179C1.79706 16.8757 2.12433 17.2029 2.48206 17.1072L3.55484 16.8202C4.06735 16.6831 4.58417 16.7694 5.01441 16.9754C5.84191 17.3716 6.76909 17.5938 7.75 17.5938C11.2536 17.5938 14.0938 14.7536 14.0938 11.25C14.0938 7.74644 11.2536 4.90625 7.75 4.90625Z" fill="#BEC1C3"/>
<path d="M5.5625 11.25C5.5625 11.7332 5.17075 12.125 4.6875 12.125C4.20425 12.125 3.8125 11.7332 3.8125 11.25C3.8125 10.7668 4.20425 10.375 4.6875 10.375C5.17075 10.375 5.5625 10.7668 5.5625 11.25Z" fill="#BEC1C3"/>
<path d="M8.625 11.25C8.625 11.7332 8.23325 12.125 7.75 12.125C7.26675 12.125 6.875 11.7332 6.875 11.25C6.875 10.7668 7.26675 10.375 7.75 10.375C8.23325 10.375 8.625 10.7668 8.625 11.25Z" fill="#BEC1C3"/>
<path d="M11.6875 11.25C11.6875 11.7332 11.2957 12.125 10.8125 12.125C10.3293 12.125 9.9375 11.7332 9.9375 11.25C9.9375 10.7668 10.3293 10.375 10.8125 10.375C11.2957 10.375 11.6875 10.7668 11.6875 11.25Z" fill="#BEC1C3"/>
</svg>
