<svg width="24" height="24" viewBox="0 0 24 24" fill="none" xmlns="http://www.w3.org/2000/svg">
<path d="M12.96 6.38989H19.66C20.56 6.38989 21.29 7.06989 21.29 7.91989V17.7099C21.29 18.5499 20.56 19.2399 19.66 19.2399H4.40002C3.50002 19.2399 2.77002 18.5599 2.77002 17.7099V8.01989C2.77002 7.15989 3.47002 6.45989 4.33002 6.45989H7.16002" stroke="#BEC1C3" stroke-width="1.3" stroke-linecap="round" stroke-linejoin="round"/>
<path d="M7.78003 15.55H18.86" stroke="#BEC1C3" stroke-width="1.3" stroke-linecap="round" stroke-linejoin="round"/>
<path d="M13.01 11.97H18.86" stroke="#BEC1C3" stroke-width="1.3" stroke-linecap="round" stroke-linejoin="round"/>
<path d="M7.15999 8.80002V10.57C7.15999 11.35 7.79999 11.99 8.57999 11.99H8.65999C9.43999 11.99 10.08 11.35 10.08 10.57V4.72002C10.08 3.64002 9.20999 2.77002 8.12999 2.77002C7.04999 2.77002 6.17999 3.64002 6.17999 4.72002V6.46002" stroke="#BEC1C3" stroke-width="1.3" stroke-linecap="round" stroke-linejoin="round"/>
</svg>
