<svg width="24" height="24" viewBox="0 0 24 24" fill="none" xmlns="http://www.w3.org/2000/svg">
<path d="M13.42 20.59H7.49002C6.37002 20.59 5.46002 19.68 5.46002 18.56V4.82004C5.46002 3.70004 6.37002 2.79004 7.49002 2.79004H17.56C18.68 2.79004 19.59 3.70004 19.59 4.82004V12.34" stroke="#BEC1C3" stroke-width="1.3" stroke-linecap="round" stroke-linejoin="round"/>
<path d="M7.90997 6.68994H17.14" stroke="#BEC1C3" stroke-width="1.3" stroke-linecap="round" stroke-linejoin="round"/>
<path d="M7.90997 10.5901H17.14" stroke="#BEC1C3" stroke-width="1.3" stroke-linecap="round" stroke-linejoin="round"/>
<path d="M7.90997 14.49H11.56" stroke="#BEC1C3" stroke-width="1.3" stroke-linecap="round" stroke-linejoin="round"/>
<path d="M18.14 16.7801C17.75 16.6701 17.36 16.5501 17.01 16.4301C16.53 16.2501 16.31 16.1201 16.31 15.7301C16.31 15.1501 16.86 14.9601 17.34 14.9601C17.98 14.9601 18.35 15.2101 18.6 15.4701C18.78 15.6501 18.96 15.7201 19.13 15.7201C19.47 15.7201 19.73 15.4301 19.73 15.0801C19.73 14.9201 19.67 14.7401 19.54 14.5801C19.25 14.2001 18.63 13.9401 17.79 13.9001V13.2201C17.79 12.9901 17.61 12.8101 17.38 12.8101C17.15 12.8101 16.97 12.9901 16.97 13.2201V13.9001C15.69 14.0301 14.95 14.7201 14.95 15.7601C14.95 17.2201 16.01 17.5301 17.05 17.8201C18.04 18.1001 18.51 18.3201 18.51 18.9001C18.51 19.5201 17.84 19.7401 17.35 19.7401C17.07 19.7401 16.78 19.7001 16.52 19.6001C16.26 19.5001 16.02 19.3501 15.85 19.1301C15.75 19.0001 15.69 18.8401 15.6 18.7001C15.51 18.5601 15.37 18.4901 15.21 18.4901C14.93 18.4901 14.69 18.7501 14.73 19.0301C14.75 19.2101 14.85 19.3601 14.94 19.5101C15.03 19.6601 15.13 19.8101 15.24 19.9501C15.27 19.9801 15.3 20.0201 15.33 20.0501C15.53 20.2501 15.76 20.4101 16.01 20.5301C16.26 20.6501 16.55 20.7301 16.84 20.7701C16.88 20.7701 16.93 20.7801 16.97 20.7901V21.3901C16.97 21.6201 17.15 21.8001 17.38 21.8001C17.61 21.8001 17.79 21.6201 17.79 21.3901V20.7901C19.16 20.6101 19.9 19.7201 19.9 18.7901C19.9 17.5501 19.2 17.1101 18.14 16.7801Z" fill="#BEC1C3"/>
</svg>
