<svg width="22" height="22" viewBox="0 0 22 22" fill="none" xmlns="http://www.w3.org/2000/svg">
<path fill-rule="evenodd" clip-rule="evenodd" d="M8 0.25C8.41421 0.25 8.75 0.585786 8.75 1V2.26272C9.216 2.25376 9.71536 2.25111 10.25 2.25032V1C10.25 0.585786 10.5858 0.25 11 0.25C11.4142 0.25 11.75 0.585786 11.75 1V2.25032C12.2846 2.25111 12.784 2.25376 13.25 2.26272V1C13.25 0.585786 13.5858 0.25 14 0.25C14.4142 0.25 14.75 0.585786 14.75 1V2.32709C15.0099 2.34691 15.2561 2.37182 15.489 2.40313C16.6614 2.56076 17.6104 2.89288 18.3588 3.64124C19.1071 4.38961 19.4392 5.33855 19.5969 6.51098C19.6282 6.7439 19.6531 6.99006 19.6729 7.25H21C21.4142 7.25 21.75 7.58579 21.75 8C21.75 8.41421 21.4142 8.75 21 8.75H19.7373C19.7462 9.216 19.7489 9.71536 19.7497 10.25H21C21.4142 10.25 21.75 10.5858 21.75 11C21.75 11.4142 21.4142 11.75 21 11.75H19.7497C19.7489 12.2846 19.7462 12.784 19.7373 13.25H21C21.4142 13.25 21.75 13.5858 21.75 14C21.75 14.4142 21.4142 14.75 21 14.75H19.6729C19.6531 15.0099 19.6282 15.2561 19.5969 15.489C19.4392 16.6614 19.1071 17.6104 18.3588 18.3588C17.6104 19.1071 16.6614 19.4392 15.489 19.5969C15.2561 19.6282 15.0099 19.6531 14.75 19.6729V21C14.75 21.4142 14.4142 21.75 14 21.75C13.5858 21.75 13.25 21.4142 13.25 21V19.7373C12.784 19.7462 12.2846 19.7489 11.75 19.7497V21C11.75 21.4142 11.4142 21.75 11 21.75C10.5858 21.75 10.25 21.4142 10.25 21V19.7497C9.71536 19.7489 9.216 19.7462 8.75 19.7373V21C8.75 21.4142 8.41421 21.75 8 21.75C7.58579 21.75 7.25 21.4142 7.25 21V19.6729C6.99006 19.6531 6.7439 19.6282 6.51098 19.5969C5.33855 19.4392 4.38961 19.1071 3.64124 18.3588C2.89288 17.6104 2.56076 16.6614 2.40313 15.489C2.37182 15.2561 2.34691 15.0099 2.32709 14.75H1C0.585786 14.75 0.25 14.4142 0.25 14C0.25 13.5858 0.585786 13.25 1 13.25H2.26272C2.25376 12.784 2.25111 12.2846 2.25032 11.75H1C0.585786 11.75 0.25 11.4142 0.25 11C0.25 10.5858 0.585786 10.25 1 10.25H2.25032C2.25111 9.71536 2.25376 9.216 2.26272 8.75H1C0.585786 8.75 0.25 8.41421 0.25 8C0.25 7.58579 0.585786 7.25 1 7.25H2.32709C2.34691 6.99006 2.37182 6.7439 2.40313 6.51098C2.56076 5.33855 2.89288 4.38961 3.64124 3.64124C4.38961 2.89288 5.33855 2.56076 6.51098 2.40313C6.7439 2.37182 6.99006 2.34691 7.25 2.32709V1C7.25 0.585786 7.58579 0.25 8 0.25ZM6.71085 3.88976C5.70476 4.02502 5.12511 4.27869 4.7019 4.7019C4.27869 5.12511 4.02502 5.70476 3.88976 6.71085C3.75159 7.73851 3.75 9.09318 3.75 11C3.75 12.9068 3.75159 14.2615 3.88976 15.2892C4.02502 16.2952 4.27869 16.8749 4.7019 17.2981C5.12511 17.7213 5.70476 17.975 6.71085 18.1102C7.73851 18.2484 9.09318 18.25 11 18.25C12.9068 18.25 14.2615 18.2484 15.2892 18.1102C16.2952 17.975 16.8749 17.7213 17.2981 17.2981C17.7213 16.8749 17.975 16.2952 18.1102 15.2892C18.2484 14.2615 18.25 12.9068 18.25 11C18.25 9.09318 18.2484 7.73851 18.1102 6.71085C17.975 5.70476 17.7213 5.12511 17.2981 4.7019C16.8749 4.27869 16.2952 4.02502 15.2892 3.88976C14.2615 3.75159 12.9068 3.75 11 3.75C9.09318 3.75 7.73851 3.75159 6.71085 3.88976ZM8.95063 5.25H13.0494C13.7142 5.24996 14.2871 5.24993 14.7458 5.31161C15.2375 5.3777 15.7087 5.52676 16.091 5.90901C16.4732 6.29126 16.6223 6.76252 16.6884 7.25416C16.7501 7.7129 16.75 8.28576 16.75 8.95063V13.0494C16.75 13.7142 16.7501 14.2871 16.6884 14.7458C16.6223 15.2375 16.4732 15.7087 16.091 16.091C15.7087 16.4732 15.2375 16.6223 14.7458 16.6884C14.2871 16.7501 13.7142 16.75 13.0494 16.75H8.95063C8.28576 16.75 7.7129 16.7501 7.25416 16.6884C6.76252 16.6223 6.29126 16.4732 5.90901 16.091C5.52676 15.7087 5.3777 15.2375 5.31161 14.7458C5.24993 14.2871 5.24996 13.7142 5.25 13.0494V8.95063C5.24996 8.28576 5.24993 7.7129 5.31161 7.25416C5.3777 6.76252 5.52676 6.29126 5.90901 5.90901C6.29126 5.52676 6.76252 5.3777 7.25416 5.31161C7.7129 5.24993 8.28576 5.24996 8.95063 5.25ZM7.45403 6.79823C7.12872 6.84197 7.02676 6.91258 6.96967 6.96967C6.91258 7.02676 6.84197 7.12872 6.79823 7.45403C6.75159 7.80091 6.75 8.27169 6.75 9V13C6.75 13.7283 6.75159 14.1991 6.79823 14.546C6.84197 14.8713 6.91258 14.9732 6.96967 15.0303C7.02676 15.0874 7.12872 15.158 7.45403 15.2018C7.80091 15.2484 8.27169 15.25 9 15.25H13C13.7283 15.25 14.1991 15.2484 14.546 15.2018C14.8713 15.158 14.9732 15.0874 15.0303 15.0303C15.0874 14.9732 15.158 14.8713 15.2018 14.546C15.2484 14.1991 15.25 13.7283 15.25 13V9C15.25 8.27169 15.2484 7.80091 15.2018 7.45403C15.158 7.12872 15.0874 7.02676 15.0303 6.96967C14.9732 6.91258 14.8713 6.84197 14.546 6.79823C14.1991 6.75159 13.7283 6.75 13 6.75H9C8.27169 6.75 7.80091 6.75159 7.45403 6.79823Z" fill="#C9CFD3"/>
</svg>
