<svg width="22" height="20" viewBox="0 0 22 20" fill="none" xmlns="http://www.w3.org/2000/svg">
<path d="M16.25 4.99992C16.25 4.58571 15.9142 4.24992 15.5 4.24992C15.0858 4.24992 14.75 4.58571 14.75 4.99992V6.24994H13.5C13.0858 6.24994 12.75 6.58573 12.75 6.99994C12.75 7.41415 13.0858 7.74994 13.5 7.74994L14.75 7.74994V8.99992C14.75 9.41414 15.0858 9.74992 15.5 9.74992C15.9142 9.74992 16.25 9.41414 16.25 8.99992V7.74994H17.5C17.9142 7.74994 18.25 7.41415 18.25 6.99994C18.25 6.58573 17.9142 6.24994 17.5 6.24994H16.25V4.99992Z" fill="#BEC1C3"/>
<path fill-rule="evenodd" clip-rule="evenodd" d="M21.75 7.31739C21.75 3.992 20.2676 1.50959 17.9609 0.606369C15.8252 -0.229894 13.2618 0.39579 11 2.5131C8.73815 0.39579 6.17479 -0.229894 4.0391 0.606374C1.73242 1.5096 0.25 3.99202 0.25 7.31742C0.25 9.43531 1.38041 11.5195 2.78729 13.3139C4.20863 15.1266 5.99671 16.7498 7.48914 17.9609L7.62327 18.0699C8.82386 19.0456 9.69056 19.7499 11 19.7499C12.3094 19.7499 13.1762 19.0456 14.3767 18.0699L14.5109 17.961C16.0033 16.7499 17.7914 15.1267 19.2127 13.3139C20.6196 11.5195 21.75 9.43532 21.75 7.31739ZM11.5478 4.08627C13.6596 1.82771 15.8491 1.39035 17.414 2.00311C18.9823 2.61722 20.25 4.4128 20.25 7.31739C20.25 8.92881 19.3707 10.6814 18.0323 12.3884C16.7084 14.0769 15.0156 15.6196 13.5657 16.7962C12.1731 17.9262 11.7229 18.2499 11 18.2499C10.2771 18.2499 9.82687 17.9262 8.43432 16.7962C6.98445 15.6196 5.29166 14.0769 3.96771 12.3883C2.62931 10.6813 1.75 8.9288 1.75 7.31742C1.75 4.41281 3.01766 2.61723 4.58602 2.00311C6.15092 1.39035 8.34039 1.8277 10.4522 4.08627C10.594 4.23795 10.7923 4.32404 11 4.32404C11.2077 4.32404 11.406 4.23795 11.5478 4.08627Z" fill="#BEC1C3"/>
</svg>
