<svg width="104" height="14" viewBox="0 0 104 14" fill="none" xmlns="http://www.w3.org/2000/svg">
<path d="M5.0492 0L8.39144 6.99874L11.7386 0H16.7927V14H11.7386V6.99874L8.39144 14L5.0492 6.99874V14H-0.00732422V0H5.0492Z" fill="#D81E05"/>
<path d="M28.2284 2.10013L26.174 9.4014H30.2778L28.2284 2.10013ZM19.8259 14L23.7596 0H32.6948L36.6259 14H31.5726L30.924 11.7007H25.5303L24.8842 14H19.8259Z" fill="#D81E05"/>
<path fill-rule="evenodd" clip-rule="evenodd" d="M46.1488 1.60432C47.3368 1.60432 48.489 2.22739 48.489 3.49622C48.489 4.76505 47.4728 5.79423 46.1488 5.79423H45.0095V1.60432H46.1488ZM49.5025 0C51.8017 0 53.6594 1.82883 53.6594 4.08396C53.6594 6.3391 51.7991 8.16541 49.5025 8.16541H44.9197V14H39.6594V0H49.5025Z" fill="#D81E05"/>
<path d="M55.9927 0H69.2927V2.2993H60.9948V5.85917H69.2927V8.15595H60.9948V14H55.9927V0Z" fill="#D81E05"/>
<path d="M95.0894 11.7007H103.826V14H89.8259V0H103.826V2.2993H95.0894V5.85917H103.826V8.15595H95.0894V11.7007Z" fill="#D81E05"/>
<path fill-rule="evenodd" clip-rule="evenodd" d="M78.8165 1.60432C79.974 1.60432 81.1571 2.22739 81.1571 3.49622C81.1571 4.76505 80.1125 5.79423 78.8165 5.79423H77.6796V1.60432H78.8165ZM86.3259 10.3852V10.4987C86.3259 10.4609 86.3259 10.4231 86.3259 10.3852ZM86.3259 10.4987V14H81.1545V10.6123C81.1545 10.5744 81.1545 10.5341 81.1545 10.4987C81.1545 9.23243 80.1049 8.20072 78.8139 8.20072H77.677V14H72.3259V0H82.7637C84.7322 0 86.3259 1.56649 86.3259 3.49874C86.3259 5.43099 84.7347 6.99748 82.7637 6.99748C84.6911 6.99748 86.2643 8.50342 86.3259 10.3852C86.3259 10.4231 86.3259 10.4609 86.3259 10.4987Z" fill="#D81E05"/>
</svg>
