<svg width="24" height="24" viewBox="0 0 24 24" fill="none" xmlns="http://www.w3.org/2000/svg">
<path d="M20.46 9.80005H9.07C8.47905 9.80005 8 10.2791 8 10.87V13.23C8 13.821 8.47905 14.3 9.07 14.3H20.46C21.0509 14.3 21.53 13.821 21.53 13.23V10.87C21.53 10.2791 21.0509 9.80005 20.46 9.80005Z" stroke="#BEC1C3" stroke-width="1.2" stroke-miterlimit="10"/>
<path d="M20.46 2.55005H9.07C8.47905 2.55005 8 3.0291 8 3.62005V5.98005C8 6.57099 8.47905 7.05005 9.07 7.05005H20.46C21.0509 7.05005 21.53 6.57099 21.53 5.98005V3.62005C21.53 3.0291 21.0509 2.55005 20.46 2.55005Z" stroke="#BEC1C3" stroke-width="1.2" stroke-miterlimit="10"/>
<path d="M20.46 17.05H9.07C8.47905 17.05 8 17.5291 8 18.1201V20.48C8 21.071 8.47905 21.55 9.07 21.55H20.46C21.0509 21.55 21.53 21.071 21.53 20.48V18.1201C21.53 17.5291 21.0509 17.05 20.46 17.05Z" stroke="#BEC1C3" stroke-width="1.2" stroke-miterlimit="10"/>
<path d="M2.53003 2.55005V18.05C2.53003 18.7 3.05003 19.22 3.70003 19.22H7.53003" stroke="#BEC1C3" stroke-width="1.2" stroke-miterlimit="10" stroke-linecap="round"/>
<path d="M7.73 12.05H2.56" stroke="#BEC1C3" stroke-width="1.2" stroke-miterlimit="10"/>
<path d="M8.03003 4.80005H2.78003" stroke="#BEC1C3" stroke-width="1.2" stroke-miterlimit="10"/>
</svg>
