<svg width="16" height="20" viewBox="0 0 16 20" fill="none" xmlns="http://www.w3.org/2000/svg">
<path fill-rule="evenodd" clip-rule="evenodd" d="M11.5 2C10.1193 2 9 3.11929 9 4.5V15.5C9 17.9853 6.98528 20 4.5 20C2.01472 20 0 17.9853 0 15.5V8C0 7.44772 0.447715 7 1 7C1.55228 7 2 7.44772 2 8V15.5C2 16.8807 3.11929 18 4.5 18C5.88071 18 7 16.8807 7 15.5V4.5C7 2.01472 9.01472 0 11.5 0C13.9853 0 16 2.01472 16 4.5V11C16 11.5523 15.5523 12 15 12C14.4477 12 14 11.5523 14 11V4.5C14 3.11929 12.8807 2 11.5 2Z" fill="#BEC1C3"/>
</svg>
