<svg width="19" height="19" viewBox="0 0 19 19" fill="none" xmlns="http://www.w3.org/2000/svg">
<path fill-rule="evenodd" clip-rule="evenodd" d="M9.49994 6.21875C7.68776 6.21875 6.21869 7.68782 6.21869 9.5C6.21869 11.3122 7.68776 12.7812 9.49994 12.7812C11.3121 12.7812 12.7812 11.3122 12.7812 9.5C12.7812 7.68782 11.3121 6.21875 9.49994 6.21875ZM7.53119 9.5C7.53119 8.41269 8.41263 7.53125 9.49994 7.53125C10.5873 7.53125 11.4687 8.41269 11.4687 9.5C11.4687 10.5873 10.5873 11.4688 9.49994 11.4688C8.41263 11.4688 7.53119 10.5873 7.53119 9.5Z" fill="#BEC1C3"/>
<path fill-rule="evenodd" clip-rule="evenodd" d="M9.47784 0.0937502C9.08893 0.0937438 8.76427 0.0937385 8.49774 0.111924C8.22027 0.130855 7.95819 0.171668 7.7041 0.276915C7.1145 0.521135 6.64607 0.989569 6.40185 1.57917C6.2747 1.88611 6.24027 2.2096 6.22712 2.56122C6.21655 2.84387 6.07391 3.0797 5.8634 3.20123C5.65288 3.32277 5.37733 3.32839 5.12727 3.19622C4.81618 3.0318 4.51881 2.89987 4.18942 2.8565C3.5567 2.77321 2.91681 2.94466 2.41051 3.33316C2.19231 3.50059 2.02593 3.70715 1.8708 3.93798C1.72178 4.15971 1.55946 4.44088 1.36501 4.77768L1.34291 4.81596C1.14846 5.15275 0.986125 5.43391 0.868607 5.67383C0.746271 5.92358 0.650573 6.17096 0.614675 6.44363C0.531376 7.07635 0.702835 7.71625 1.09133 8.22254C1.29356 8.48609 1.55645 8.67764 1.85434 8.86481C2.09389 9.01533 2.22683 9.25685 2.22682 9.49998C2.22681 9.7431 2.09387 9.98457 1.85434 10.1351C1.55642 10.3223 1.29349 10.5138 1.09125 10.7774C0.70275 11.2837 0.531291 11.9236 0.614589 12.5563C0.650487 12.829 0.746185 13.0764 0.868522 13.3261C0.986038 13.566 1.14837 13.8472 1.34282 14.184L1.36492 14.2223C1.55937 14.5591 1.7217 14.8402 1.87072 15.062C2.02584 15.2928 2.19223 15.4994 2.41042 15.6668C2.91672 16.0553 3.55661 16.2267 4.18933 16.1434C4.51871 16.1001 4.81606 15.9682 5.12713 15.8038C5.37723 15.6716 5.65282 15.6772 5.86335 15.7987C6.07389 15.9203 6.21655 16.1561 6.22713 16.4388C6.24028 16.7904 6.27471 17.1139 6.40185 17.4208C6.64607 18.0104 7.1145 18.4789 7.7041 18.7231C7.95819 18.8283 8.22027 18.8691 8.49774 18.8881C8.76427 18.9063 9.08893 18.9063 9.47783 18.9062H9.52203C9.91093 18.9063 10.2356 18.9063 10.5021 18.8881C10.7796 18.8691 11.0417 18.8283 11.2958 18.7231C11.8854 18.4789 12.3538 18.0104 12.598 17.4208C12.7252 17.1139 12.7596 16.7904 12.7727 16.4388C12.7833 16.1561 12.9259 15.9203 13.1365 15.7987C13.347 15.6772 13.6226 15.6715 13.8727 15.8037C14.1837 15.9681 14.4811 16.1 14.8104 16.1434C15.4432 16.2267 16.0831 16.0552 16.5894 15.6667C16.8075 15.4993 16.9739 15.2927 17.1291 15.0619C17.2781 14.8402 17.4404 14.559 17.6348 14.2223L17.6569 14.184C17.8514 13.8472 18.0137 13.566 18.1313 13.3261C18.2536 13.0763 18.3493 12.8289 18.3852 12.5562C18.4685 11.9235 18.297 11.2836 17.9085 10.7773C17.7063 10.5138 17.4434 10.3222 17.1455 10.135C16.9059 9.98454 16.773 9.74306 16.773 9.49996C16.7731 9.25688 16.906 9.01544 17.1455 8.86496C17.4434 8.67776 17.7064 8.48619 17.9086 8.2226C18.2971 7.71631 18.4686 7.07641 18.3853 6.4437C18.3494 6.17102 18.2537 5.92364 18.1313 5.67389C18.0138 5.43399 17.8515 5.15285 17.6571 4.81608L17.635 4.77778C17.4405 4.44097 17.2782 4.15977 17.1291 3.93804C16.974 3.70721 16.8076 3.50065 16.5894 3.33322C16.0831 2.94472 15.4432 2.77327 14.8105 2.85656C14.4812 2.89993 14.1838 3.03184 13.8727 3.19625C13.6226 3.32844 13.347 3.32282 13.1365 3.20126C12.926 3.07971 12.7833 2.84385 12.7727 2.56117C12.7596 2.20957 12.7252 1.8861 12.598 1.57917C12.3538 0.989569 11.8854 0.521135 11.2958 0.276915C11.0417 0.171668 10.7796 0.130855 10.5021 0.111924C10.2356 0.0937385 9.91093 0.0937438 9.52203 0.0937502H9.47784ZM8.20637 1.48951C8.27388 1.46154 8.37644 1.43575 8.58708 1.42138C8.80361 1.40661 9.08325 1.40625 9.49993 1.40625C9.91661 1.40625 10.1963 1.40661 10.4128 1.42138C10.6234 1.43575 10.726 1.46154 10.7935 1.48951C11.0615 1.60052 11.2744 1.81344 11.3854 2.08144C11.4204 2.16598 11.4495 2.29776 11.4612 2.61022C11.4871 3.30355 11.845 3.97113 12.4803 4.33792C13.1156 4.70472 13.8726 4.68085 14.486 4.35664C14.7625 4.21054 14.8911 4.16978 14.9818 4.15784C15.2694 4.11997 15.5603 4.19791 15.7904 4.3745C15.8484 4.41898 15.922 4.49491 16.0398 4.67014C16.1609 4.85027 16.301 5.09227 16.5093 5.45313C16.7177 5.81398 16.8572 6.05633 16.9527 6.25124C17.0455 6.44084 17.0745 6.54256 17.084 6.61501C17.1219 6.90261 17.0439 7.19347 16.8673 7.42361C16.8116 7.49621 16.712 7.58724 16.4472 7.75362C15.8598 8.12271 15.4606 8.76636 15.4605 9.49989C15.4605 10.2335 15.8597 10.8772 16.4472 11.2464C16.7119 11.4127 16.8116 11.5037 16.8673 11.5763C17.0438 11.8065 17.1218 12.0973 17.0839 12.3849C17.0744 12.4574 17.0454 12.5591 16.9526 12.7487C16.8571 12.9436 16.7176 13.186 16.5092 13.5468C16.3009 13.9077 16.1608 14.1497 16.0397 14.3298C15.9219 14.505 15.8483 14.581 15.7904 14.6254C15.5602 14.802 15.2694 14.88 14.9818 14.8421C14.891 14.8302 14.7624 14.7894 14.486 14.6433C13.8726 14.3191 13.1154 14.2952 12.4801 14.6621C11.8449 15.0289 11.4871 15.6964 11.4612 16.3897C11.4495 16.7022 11.4204 16.834 11.3854 16.9186C11.2744 17.1866 11.0615 17.3995 10.7935 17.5105C10.726 17.5385 10.6234 17.5643 10.4128 17.5786C10.1963 17.5934 9.91661 17.5938 9.49993 17.5938C9.08325 17.5938 8.80361 17.5934 8.58708 17.5786C8.37644 17.5643 8.27388 17.5385 8.20637 17.5105C7.93837 17.3995 7.72545 17.1866 7.61444 16.9186C7.57942 16.834 7.5504 16.7022 7.53871 16.3898C7.51278 15.6964 7.15491 15.0289 6.5196 14.6621C5.88429 14.2953 5.12723 14.3192 4.51382 14.6434C4.23738 14.7895 4.10874 14.8302 4.01802 14.8422C3.73042 14.88 3.43956 14.8021 3.20942 14.6255C3.15145 14.581 3.07783 14.5051 2.96007 14.3299C2.83901 14.1497 2.69888 13.9077 2.49054 13.5469C2.2822 13.186 2.14269 12.9437 2.04722 12.7488C1.95434 12.5592 1.9254 12.4574 1.91586 12.385C1.878 12.0974 1.95593 11.8065 2.13252 11.5764C2.18823 11.5038 2.28785 11.4128 2.55261 11.2464C3.14007 10.8773 3.53928 10.2336 3.53932 9.50006C3.53936 8.7664 3.14014 8.12264 2.55262 7.75348C2.28791 7.58716 2.18831 7.49613 2.13261 7.42355C1.95602 7.19341 1.87808 6.90255 1.91595 6.61495C1.92548 6.5425 1.95443 6.44078 2.0473 6.25118C2.14277 6.05627 2.28228 5.81392 2.49062 5.45307C2.69896 5.09221 2.83909 4.85021 2.96015 4.67008C3.07792 4.49485 3.15154 4.41892 3.20951 4.37444C3.43964 4.19785 3.7305 4.11991 4.0181 4.15778C4.10883 4.16972 4.23748 4.21048 4.51395 4.35661C5.12733 4.68081 5.88436 4.70467 6.51964 4.3379C7.15492 3.97112 7.51278 3.30357 7.53871 2.61027C7.55039 2.29778 7.57942 2.16598 7.61444 2.08144C7.72545 1.81344 7.93837 1.60052 8.20637 1.48951Z" fill="#BEC1C3"/>
</svg>
