<svg width="22" height="22" viewBox="0 0 22 22" fill="none" xmlns="http://www.w3.org/2000/svg">
<path d="M8.34458 7.23084C8.03703 6.92329 7.53839 6.92329 7.23084 7.23084C6.92329 7.53839 6.92329 8.03703 7.23084 8.34458C7.53839 8.65213 8.03703 8.65213 8.34458 8.34458C8.65213 8.03703 8.65213 7.53839 8.34458 7.23084Z" fill="#BEC1C3"/>
<path d="M11.1289 8.15895C10.8214 7.8514 10.3227 7.8514 10.0152 8.15895C9.70764 8.4665 9.70764 8.96514 10.0152 9.27269C10.3227 9.58024 10.8214 9.58024 11.1289 9.27269C11.4365 8.96514 11.4365 8.4665 11.1289 8.15895Z" fill="#BEC1C3"/>
<path d="M14.8414 11.8714C15.1489 12.179 15.1489 12.6776 14.8414 12.9852C14.5338 13.2927 14.0352 13.2927 13.7277 12.9852C13.4201 12.6776 13.4201 12.179 13.7277 11.8714C14.0352 11.5639 14.5338 11.5639 14.8414 11.8714Z" fill="#BEC1C3"/>
<path d="M15.7695 15.7695C16.0771 15.462 16.0771 14.9633 15.7695 14.6558C15.462 14.3482 14.9633 14.3482 14.6558 14.6558C14.3482 14.9633 14.3482 15.462 14.6558 15.7695C14.9633 16.0771 15.462 16.0771 15.7695 15.7695Z" fill="#BEC1C3"/>
<path d="M12.057 12.057C12.3646 11.7495 12.3646 11.2509 12.057 10.9433C11.7495 10.6358 11.2509 10.6358 10.9433 10.9433C10.6358 11.2509 10.6358 11.7495 10.9433 12.057C11.2509 12.3646 11.7495 12.3646 12.057 12.057Z" fill="#BEC1C3"/>
<path d="M12.9852 13.7277C13.2927 14.0352 13.2927 14.5338 12.9852 14.8414C12.6776 15.1489 12.179 15.1489 11.8714 14.8414C11.5639 14.5338 11.5639 14.0352 11.8714 13.7277C12.179 13.4201 12.6776 13.4201 12.9852 13.7277Z" fill="#BEC1C3"/>
<path d="M8.15895 10.0152C8.4665 9.70763 8.96514 9.70763 9.27269 10.0152C9.58024 10.3227 9.58024 10.8214 9.27269 11.1289C8.96514 11.4365 8.4665 11.4365 8.15895 11.1289C7.8514 10.8214 7.8514 10.3227 8.15895 10.0152Z" fill="#BEC1C3"/>
<path fill-rule="evenodd" clip-rule="evenodd" d="M13.3986 1.68287C15.3091 -0.227625 18.4066 -0.227624 20.3171 1.68287C22.2276 3.59337 22.2276 6.6909 20.3171 8.6014L17.9185 11L20.3171 13.3986C22.2276 15.3091 22.2276 18.4066 20.3171 20.3171C18.4066 22.2276 15.3091 22.2276 13.3986 20.3171L11 17.9185L8.6014 20.3171C6.6909 22.2276 3.59337 22.2276 1.68287 20.3171C-0.227624 18.4066 -0.227624 15.3091 1.68287 13.3986L4.08148 11L1.68287 8.6014C-0.227624 6.6909 -0.227625 3.59337 1.68287 1.68287C3.59337 -0.227624 6.6909 -0.227624 8.6014 1.68287L11 4.08148L13.3986 1.68287ZM19.2565 14.4593C20.5812 15.784 20.5812 17.9318 19.2565 19.2565C17.9318 20.5812 15.784 20.5812 14.4593 19.2565L2.74353 7.54074C1.41882 6.21603 1.41882 4.06824 2.74353 2.74353C4.06824 1.41882 6.21603 1.41882 7.54074 2.74353L19.2565 14.4593ZM19.2565 7.54074L16.8579 9.93934L12.0607 5.14214L14.4593 2.74353C15.784 1.41882 17.9318 1.41882 19.2565 2.74353C20.5812 4.06825 20.5812 6.21603 19.2565 7.54074ZM2.74353 14.4593L5.14214 12.0607L9.93934 16.8579L7.54074 19.2565C6.21603 20.5812 4.06825 20.5812 2.74353 19.2565C1.41882 17.9318 1.41882 15.784 2.74353 14.4593Z" fill="#BEC1C3"/>
</svg>
