<svg width="21" height="21" viewBox="0 0 21 21" fill="none" xmlns="http://www.w3.org/2000/svg">
<path d="M17.7188 3.28125H3.28125C2.93315 3.28125 2.59931 3.41953 2.35317 3.66567C2.10703 3.91181 1.96875 4.24565 1.96875 4.59375V16.4062C1.96875 16.7543 2.10703 17.0882 2.35317 17.3343C2.59931 17.5805 2.93315 17.7188 3.28125 17.7188H17.7188C18.0668 17.7188 18.4007 17.5805 18.6468 17.3343C18.893 17.0882 19.0312 16.7543 19.0312 16.4062V4.59375C19.0312 4.24565 18.893 3.91181 18.6468 3.66567C18.4007 3.41953 18.0668 3.28125 17.7188 3.28125ZM3.28125 12.4688H4.59375C4.7678 12.4688 4.93472 12.3996 5.05779 12.2765C5.18086 12.1535 5.25 11.9865 5.25 11.8125C5.25 11.6385 5.18086 11.4715 5.05779 11.3485C4.93472 11.2254 4.7678 11.1562 4.59375 11.1562H3.28125V9.84375H4.59375C4.7678 9.84375 4.93472 9.77461 5.05779 9.65154C5.18086 9.52847 5.25 9.36155 5.25 9.1875C5.25 9.01345 5.18086 8.84653 5.05779 8.72346C4.93472 8.60039 4.7678 8.53125 4.59375 8.53125H3.28125V7.21875H4.59375C4.7678 7.21875 4.93472 7.14961 5.05779 7.02654C5.18086 6.90347 5.25 6.73655 5.25 6.5625C5.25 6.38845 5.18086 6.22153 5.05779 6.09846C4.93472 5.97539 4.7678 5.90625 4.59375 5.90625H3.28125V4.59375H6.5625V16.4062H3.28125V12.4688ZM17.7188 16.4062H7.875V4.59375H17.7188V16.4062Z" fill="#616364"/>
</svg>
