<svg width="24" height="24" viewBox="0 0 24 24" fill="none" xmlns="http://www.w3.org/2000/svg">
<path d="M19.57 4.57007H4.49003C3.40755 4.57007 2.53003 5.44759 2.53003 6.53007V18.5501C2.53003 19.6325 3.40755 20.5101 4.49003 20.5101H19.57C20.6525 20.5101 21.53 19.6325 21.53 18.5501V6.53007C21.53 5.44759 20.6525 4.57007 19.57 4.57007Z" stroke="#BEC1C3" stroke-miterlimit="10"/>
<path d="M18.28 6.55005H5.78003C5.08967 6.55005 4.53003 7.10969 4.53003 7.80005C4.53003 8.4904 5.08967 9.05005 5.78003 9.05005H18.28C18.9704 9.05005 19.53 8.4904 19.53 7.80005C19.53 7.10969 18.9704 6.55005 18.28 6.55005Z" stroke="#BEC1C3" stroke-miterlimit="10"/>
<path d="M7.71003 11.86C7.71003 11.69 7.57003 11.55 7.40003 11.55H5.78003C5.09003 11.55 4.53003 12.11 4.53003 12.8C4.53003 13.49 5.09003 14.05 5.78003 14.05H7.40003C7.57003 14.05 7.71003 13.91 7.71003 13.74V11.86Z" stroke="#BEC1C3" stroke-miterlimit="10"/>
<path d="M18.28 11.5601H10.34C10.17 11.5601 10.03 11.7001 10.03 11.8701V13.7501C10.03 13.9201 10.17 14.0601 10.34 14.0601H18.28C18.97 14.0601 19.53 13.5001 19.53 12.8101C19.53 12.1201 18.97 11.5601 18.28 11.5601Z" stroke="#BEC1C3" stroke-miterlimit="10"/>
<path d="M7.71003 16.3701C7.71003 16.2001 7.57003 16.0601 7.40003 16.0601H5.78003C5.09003 16.0601 4.53003 16.6201 4.53003 17.3101C4.53003 18.0001 5.09003 18.5601 5.78003 18.5601H7.40003C7.57003 18.5601 7.71003 18.4201 7.71003 18.2501V16.3701Z" stroke="#BEC1C3" stroke-miterlimit="10"/>
<path d="M18.28 16.0601H10.34C10.17 16.0601 10.03 16.2001 10.03 16.3701V18.2501C10.03 18.4201 10.17 18.5601 10.34 18.5601H18.28C18.97 18.5601 19.53 18.0001 19.53 17.3101C19.53 16.6201 18.97 16.0601 18.28 16.0601Z" stroke="#BEC1C3" stroke-miterlimit="10"/>
</svg>
