<svg width="19" height="19" viewBox="0 0 19 19" fill="none" xmlns="http://www.w3.org/2000/svg">
<path fill-rule="evenodd" clip-rule="evenodd" d="M2.375 9.5C2.375 7.80275 2.96845 6.24411 3.95916 5.02025L6.26314 7.32423C5.84462 7.94572 5.60034 8.69429 5.60034 9.49992C5.60034 10.3056 5.84467 11.0543 6.26327 11.6758L3.95923 13.9798C2.96848 12.756 2.375 11.1973 2.375 9.5ZM5.01987 15.0405L7.32382 12.7366C7.94548 13.1554 8.69436 13.3999 9.50035 13.3999C10.306 13.3999 11.0546 13.1556 11.6762 12.737L13.9799 15.0407C12.756 16.0315 11.1973 16.625 9.5 16.625C7.80257 16.625 6.24378 16.0314 5.01987 15.0405ZM15.0406 13.9801C16.0314 12.7562 16.625 11.1974 16.625 9.5C16.625 7.80263 16.0315 6.24388 15.0406 5.01999L12.7371 7.32353C13.1559 7.94516 13.4004 8.69399 13.4004 9.49992C13.4004 10.3059 13.1558 11.0548 12.737 11.6765L15.0406 13.9801ZM11.6764 6.26293L13.98 3.95933C12.7561 2.96851 11.1973 2.375 9.5 2.375C7.80253 2.375 6.2437 2.9686 5.01978 3.95955L7.32363 6.2634C7.94533 5.84446 8.69428 5.59991 9.50035 5.59991C10.3061 5.59991 11.0548 5.84427 11.6764 6.26293ZM9.5 0.875C4.73654 0.875 0.875 4.73654 0.875 9.5C0.875 14.2635 4.73654 18.125 9.5 18.125C14.2635 18.125 18.125 14.2635 18.125 9.5C18.125 4.73654 14.2635 0.875 9.5 0.875ZM7.10034 9.49992C7.10034 8.17444 8.17486 7.09991 9.50035 7.09991C10.8258 7.09991 11.9004 8.17444 11.9004 9.49992C11.9004 10.8254 10.8258 11.8999 9.50035 11.8999C8.17486 11.8999 7.10034 10.8254 7.10034 9.49992Z" fill="#BEC1C3"/>
</svg>
