<svg width="8" height="12" viewBox="0 0 8 12" fill="none" xmlns="http://www.w3.org/2000/svg">
<path d="M6.65316 5.46673L6.65389 5.46745C6.72419 5.53717 6.77998 5.62012 6.81806 5.71152C6.85614 5.80291 6.87574 5.90094 6.87574 5.99995C6.87574 6.09896 6.85614 6.19699 6.81806 6.28838C6.77998 6.37978 6.72419 6.46273 6.65389 6.53245L6.65317 6.53317L2.41389 10.7725C2.41376 10.7726 2.41363 10.7727 2.4135 10.7728C2.3435 10.8422 2.26053 10.897 2.16932 10.9343C2.07794 10.9716 1.98009 10.9905 1.88139 10.9899L1.8785 10.99C1.77979 10.9905 1.68195 10.9716 1.59057 10.9343C1.49946 10.8971 1.41657 10.8423 1.34662 10.7731C1.20732 10.6326 1.12915 10.4428 1.12915 10.2449C1.12915 10.047 1.20743 9.85702 1.34692 9.71653C1.34703 9.71642 1.34714 9.71631 1.34724 9.7162L4.88672 6.17673L5.0635 5.99995L4.88672 5.82317L1.34724 2.2837C1.34716 2.28362 1.34708 2.28354 1.347 2.28346C1.20747 2.14296 1.12915 1.95297 1.12915 1.75495C1.12915 1.55681 1.20756 1.36672 1.34724 1.2262L1.34744 1.226C1.41717 1.1557 1.50012 1.09991 1.59151 1.06183C1.6829 1.02375 1.78093 1.00415 1.87994 1.00415C1.97895 1.00415 2.07698 1.02375 2.16838 1.06183C2.25977 1.09991 2.34272 1.1557 2.41244 1.226L2.41244 1.226L2.41317 1.22673L6.65316 5.46673Z" fill="#D81E05" stroke="#D81E05" stroke-width="0.5"/>
</svg>
