<svg width="12" height="8" viewBox="0 0 12 8" fill="none" xmlns="http://www.w3.org/2000/svg">
<path d="M5.46673 1.34677L5.46745 1.34605C5.53717 1.27575 5.62012 1.21995 5.71152 1.18188C5.80291 1.1438 5.90094 1.1242 5.99995 1.1242C6.09896 1.1242 6.19699 1.1438 6.28838 1.18188C6.37978 1.21995 6.46273 1.27575 6.53245 1.34605L6.53317 1.34677L10.7725 5.58605C10.7726 5.58618 10.7727 5.58631 10.7728 5.58644C10.8422 5.65644 10.897 5.73941 10.9343 5.83062C10.9716 5.922 10.9905 6.01984 10.9899 6.11855L10.99 6.12144C10.9905 6.22015 10.9716 6.31799 10.9343 6.40937C10.8971 6.50048 10.8423 6.58337 10.7731 6.65332C10.6326 6.79262 10.4428 6.87079 10.2449 6.87079C10.047 6.87079 9.85702 6.7925 9.71653 6.65302C9.71642 6.65291 9.71631 6.6528 9.7162 6.65269L6.17673 3.11322L5.99995 2.93644L5.82317 3.11322L2.2837 6.65269C2.28362 6.65277 2.28354 6.65286 2.28346 6.65294C2.14296 6.79247 1.95297 6.87079 1.75495 6.87079C1.55681 6.87079 1.36672 6.79238 1.2262 6.65269L1.226 6.6525C1.1557 6.58277 1.09991 6.49982 1.06183 6.40843C1.02375 6.31703 1.00415 6.21901 1.00415 6.12C1.00415 6.02099 1.02375 5.92296 1.06183 5.83156C1.09991 5.74017 1.1557 5.65722 1.226 5.5875L1.226 5.5875L1.22673 5.58677L5.46673 1.34677Z" fill="#BEC1C3" stroke="#BEC1C3" stroke-width="0.5"/>
</svg>
