<svg width="8" height="12" viewBox="0 0 8 12" fill="none" xmlns="http://www.w3.org/2000/svg">
<path d="M6.65323 5.46673L6.65395 5.46745C6.72425 5.53717 6.78005 5.62012 6.81812 5.71152C6.8562 5.80291 6.8758 5.90094 6.8758 5.99995C6.8758 6.09896 6.8562 6.19699 6.81812 6.28838C6.78005 6.37978 6.72425 6.46273 6.65395 6.53245L6.65323 6.53317L2.41395 10.7725C2.41382 10.7726 2.41369 10.7727 2.41356 10.7728C2.34356 10.8422 2.26059 10.897 2.16938 10.9343C2.078 10.9716 1.98015 10.9905 1.88145 10.9899L1.87856 10.99C1.77985 10.9905 1.68201 10.9716 1.59063 10.9343C1.49952 10.8971 1.41663 10.8423 1.34668 10.7731C1.20738 10.6326 1.12921 10.4428 1.12921 10.2449C1.12921 10.047 1.2075 9.85702 1.34698 9.71653C1.34709 9.71642 1.3472 9.71631 1.34731 9.7162L4.88678 6.17673L5.06356 5.99995L4.88678 5.82317L1.34731 2.2837C1.34723 2.28362 1.34714 2.28354 1.34706 2.28346C1.20753 2.14296 1.12921 1.95297 1.12921 1.75495C1.12921 1.55681 1.20762 1.36672 1.34731 1.2262L1.3475 1.226C1.41723 1.1557 1.50018 1.09991 1.59157 1.06183C1.68297 1.02375 1.78099 1.00415 1.88 1.00415C1.97901 1.00415 2.07704 1.02375 2.16844 1.06183C2.25983 1.09991 2.34278 1.1557 2.4125 1.226L2.4125 1.226L2.41323 1.22673L6.65323 5.46673Z" fill="#BEC1C3" stroke="#BEC1C3" stroke-width="0.5"/>
</svg>
