<?xml version="1.0" encoding="UTF-8"?>
<svg id="Capa_1" xmlns="http://www.w3.org/2000/svg" version="1.1" viewBox="0 0 32 32">
  <!-- Generator: Adobe Illustrator 30.0.0, SVG Export Plug-In . SVG Version: 2.1.1 Build 123)  -->
  <defs>
    <style>
      .st0 {
        fill-rule: evenodd;
      }
    </style>
  </defs>
  <path class="st0" d="M23.11,17.16h-2.4c-.55,0-1,.45-1,1s.45,1,1,1h2.4c.55,0,1-.45,1-1s-.45-1-1-1Z"/>
  <path class="st0" d="M11.27,17.16h-2.4c-.55,0-1,.45-1,1s.45,1,1,1h2.4c.55,0,1-.45,1-1s-.45-1-1-1Z"/>
  <path class="st0" d="M27.81,14.2l-.39-.54c.23-.03.46-.06.69-.09.55-.08.93-.59.85-1.13-.08-.55-.58-.93-1.13-.85-.57.08-1.15.16-1.72.23v-.02s-1.41-3.89-1.41-3.89c-.47-1.34-1.69-2.35-3.09-2.58l-.7-.1c-3.48-.48-7.03-.44-10.51.11-1.4.23-2.6,1.24-3.07,2.57l-1.4,3.88s-.01.02-.01.03c-.59-.07-1.18-.15-1.77-.23-.55-.08-1.06.3-1.13.85-.08.54.3,1.05.84,1.13.26.03.51.07.76.1l-.44.6c-.75,1.03-1.15,2.28-1.15,3.55l-.02,6.94c0,1.29,1.04,2.34,2.33,2.34h2.64c1.29,0,2.34-1.04,2.34-2.33v-.55c0-.18.15-.33.33-.33h10.68c.19,0,.34.15.34.33v.55c0,1.29,1.04,2.33,2.33,2.33h2.66c1.29,0,2.34-1.04,2.34-2.33v-6.97c-.01-1.29-.42-2.56-1.19-3.6ZM9.21,8.58c.23-.65.83-1.16,1.51-1.27,3.51-.55,7.07-.55,10.57,0,.69.11,1.3.63,1.53,1.28l1.24,3.45c-5.35.51-10.74.51-16.09,0l1.24-3.46ZM19.41,14.36l-1.26,1.33-2.26.51-1.14-1.79c1.55.03,3.11.01,4.66-.05ZM12.25,21.89h-1.6c-1.29,0-2.33,1.05-2.33,2.33v.55c0,.18-.15.33-.34.33h-2.64c-.18,0-.33-.15-.33-.33l.02-6.95c0-.85.27-1.68.77-2.37l1.09-1.51c1.81.19,3.62.33,5.44.41l1.97,3.07-2.05,4.47ZM27,24.77c0,.18-.15.33-.34.33h-2.66c-.18,0-.33-.15-.33-.33v-.55c0-1.28-1.05-2.33-2.34-2.33h-6.88l1.7-3.7,2.75-.62c.19-.04.36-.15.5-.29l2.92-3.09c.93-.07,1.87-.15,2.81-.25l1.07,1.45c.45.61.72,1.33.78,2.09l.02.32v6.97Z"/>
</svg>