<svg width="32" height="32" viewBox="0 0 32 32" fill="none" xmlns="http://www.w3.org/2000/svg">
<path d="M27.2773 17.3273C27.2773 15.8035 26.746 14.6608 25.9492 13.8976C25.1451 13.1275 24.0035 12.6795 22.6797 12.6789C22.1276 12.6786 21.6797 12.231 21.6797 11.6789C21.6796 10.7752 21.3091 9.31819 20.3919 8.10596C19.5055 6.9345 18.1182 5.99663 16 5.99658C13.8815 5.99658 12.4932 6.9343 11.6068 8.10596C10.6897 9.31816 10.3204 10.7752 10.3203 11.6789C10.3203 12.2278 9.87704 12.6742 9.32812 12.6789C8.00072 12.6903 6.85609 13.1398 6.05078 13.908C5.25392 14.6685 4.72266 15.8047 4.72266 17.3273C4.72284 19.2112 5.8435 20.835 7.45833 21.5643C7.96122 21.7918 8.18425 22.3841 7.95703 22.8872C7.72959 23.3903 7.13732 23.6145 6.63411 23.3872C4.32857 22.3459 2.72284 20.0248 2.72266 17.3273C2.72266 15.3088 3.44176 13.6328 4.66927 12.4614C5.67491 11.5018 6.97672 10.9232 8.39453 10.7414C8.5731 9.54798 9.08202 8.12779 10.0117 6.89893C11.232 5.28601 13.1852 3.99658 16 3.99658C18.8145 3.99663 20.7667 5.28627 21.987 6.89893C22.915 8.12555 23.4247 9.54282 23.6042 10.7349C25.0257 10.9096 26.3283 11.491 27.3333 12.4536C28.5598 13.6285 29.2773 15.3102 29.2773 17.3273C29.2772 20.0251 27.6696 22.346 25.3659 23.3872C24.8627 23.6146 24.2705 23.3903 24.043 22.8872C23.8156 22.384 24.0385 21.7918 24.5417 21.5643C26.1557 20.8349 27.2772 19.2109 27.2773 17.3273Z" fill="black"/>
<path d="M14.7697 15.7531C15.6826 14.4953 17.6704 15.142 17.6707 16.6945V19.2049H19.991C21.3012 19.2049 22.0572 20.6913 21.2879 21.7505L17.2293 27.3403C16.316 28.5996 14.3283 27.9502 14.3283 26.3989V23.8885H12.008C10.6986 23.8885 9.94121 22.4028 10.7111 21.3429L14.7697 15.7531ZM12.7866 21.8885H15.3283C15.8805 21.8885 16.3282 22.3363 16.3283 22.8885V25.1776L19.2137 21.2049H16.6707C16.1185 21.2049 15.6709 20.7571 15.6707 20.2049V17.9159L12.7866 21.8885Z" fill="black"/>
</svg>
