<svg width="32" height="32" viewBox="0 0 32 32" fill="none" xmlns="http://www.w3.org/2000/svg">
<path fill-rule="evenodd" clip-rule="evenodd" d="M22.6923 21.2052L22.7377 21.2508C22.7282 21.2399 22.7178 21.2299 22.7073 21.2199C22.7023 21.215 22.6972 21.2102 22.6923 21.2052ZM21.2353 21.2438C21.2434 21.2347 21.2522 21.2262 21.261 21.2178C21.2652 21.2137 21.2694 21.2097 21.2735 21.2056L21.2353 21.2438ZM21.2735 21.2056C21.461 21.0173 21.7177 20.9075 21.9834 20.9074C22.2492 20.9074 22.5046 21.017 22.6923 21.2052C22.5111 21.0228 22.2608 20.9074 21.9834 20.9074C21.7059 20.9074 21.4546 21.0229 21.2735 21.2056Z" fill="black"/>
<path d="M22.3798 12.2279H25.5321V16.7514C25.5321 17.3037 25.9798 17.7514 26.5321 17.7514C27.0844 17.7514 27.5321 17.3037 27.5321 16.7514V11.8569C27.5321 10.8686 27.1497 9.91725 26.4644 9.20451L21.2287 3.75008C20.5059 2.99811 19.5094 2.57313 18.4657 2.573L10.661 2.5743C7.30064 2.56212 4.54901 5.24095 4.46829 8.60034V23.1095C4.39401 26.5243 7.10092 29.353 10.5152 29.4272C11.067 29.439 11.5238 29.0011 11.536 28.4493C11.548 27.8971 11.1103 27.4392 10.5581 27.4272C8.32107 27.3785 6.5321 25.5821 6.46829 23.3686V8.64722C6.5232 6.37417 8.38547 4.56317 10.6571 4.573H18.0022V7.83862L18.0074 8.06388C18.1233 10.379 20.0357 12.2231 22.3798 12.2279ZM24.673 10.2279H22.3837C21.0674 10.2252 20.0016 9.15601 20.0022 7.83992V5.36076L24.673 10.2279Z" fill="black"/>
<path d="M22.9834 24.3106C23.3731 24.5861 23.9159 24.55 24.2656 24.2017C24.6568 23.812 24.6579 23.1789 24.2682 22.7876L22.7377 21.2508L22.6923 21.2052C22.5046 21.017 22.2492 20.9074 21.9834 20.9074C21.7177 20.9075 21.461 21.0173 21.2735 21.2056L21.2353 21.2438L19.6979 22.7876C19.3084 23.179 19.3105 23.8121 19.7018 24.2017C20.0514 24.5498 20.5939 24.5862 20.9834 24.311V25.8319C20.9834 26.3842 21.4312 26.8319 21.9834 26.8319C22.5357 26.8319 22.9834 26.3842 22.9834 25.8319V24.3106Z" fill="black"/>
<path d="M25.967 23.8697C25.967 21.6697 24.1839 19.8856 21.9839 19.8854C19.7837 19.8854 17.9995 21.6695 17.9995 23.8697C17.9998 26.0697 19.7838 27.8528 21.9839 27.8528C24.1837 27.8525 25.9667 26.0696 25.967 23.8697ZM27.9592 24.177C27.799 27.3386 25.1853 29.8526 21.9839 29.8528L21.6753 29.845C18.6156 29.6898 16.1624 27.2367 16.0073 24.177L15.9995 23.8697C15.9995 20.5649 18.6791 17.8854 21.9839 17.8854L22.2912 17.8932C25.453 18.0534 27.967 20.6681 27.967 23.8697L27.9592 24.177Z" fill="black"/>
</svg>
