<svg width="32" height="32" viewBox="0 0 32 32" fill="none" xmlns="http://www.w3.org/2000/svg">
<path d="M17.3333 15.8855C17.3333 16.6219 16.7363 17.2188 16 17.2188C15.2636 17.2188 14.6666 16.6219 14.6666 15.8855C14.6666 15.1491 15.2636 14.5522 16 14.5522C16.7363 14.5522 17.3333 15.1491 17.3333 15.8855Z" fill="black"/>
<path d="M4.85449 11.1926C4.30221 11.1926 3.85449 11.6403 3.85449 12.1926L3.85449 19.578C3.85449 20.1303 4.30221 20.578 4.85449 20.578C4.87339 20.578 4.89217 20.5775 4.91081 20.5765C5.24443 20.5975 5.58095 20.451 5.78902 20.1588C6.41358 19.2812 7.24433 18.2549 8.20438 17.2642C9.26324 18.1902 10.4267 19.0287 11.6445 19.6262C13.2409 20.4095 15.0223 20.8262 16.8059 20.3788C18.6077 19.9267 20.2243 18.6407 21.569 16.3997C21.7589 16.083 21.7589 15.6876 21.569 15.371C20.2243 13.13 18.6077 11.844 16.8059 11.3918C15.0223 10.9445 13.2409 11.3612 11.6445 12.1444C10.4267 12.742 9.26195 13.5792 8.20308 14.5051C7.24381 13.5151 6.41323 12.4902 5.78902 11.6132C5.58167 11.3219 5.24665 11.1749 4.91408 11.1944C4.89437 11.1932 4.8745 11.1926 4.85449 11.1926ZM5.85449 14.9077C6.13881 15.2316 6.4397 15.5594 6.75517 15.8853C6.67501 15.9682 6.59578 16.0515 6.51754 16.1344C6.28791 16.3779 6.0665 16.6214 5.85449 16.863L5.85449 14.9077ZM12.5247 13.94C13.8661 13.2819 15.1498 13.0382 16.3203 13.3319C17.3639 13.594 18.4674 14.3229 19.5234 15.8853C18.4674 17.4479 17.3639 18.1767 16.3203 18.4387C15.1498 18.7324 13.8661 18.4888 12.5247 17.8306C11.5361 17.3455 10.568 16.6594 9.66532 15.8853C10.5679 15.1113 11.5362 14.4251 12.5247 13.94Z" fill="black"/>
<path d="M24.4387 6.2395L24.4387 16.5365C23.4393 16.9214 22.7302 17.8908 22.7302 19.0259C22.7302 20.1609 23.4393 21.1303 24.4387 21.5152V23.2629C24.4386 24.0927 23.7659 24.7654 22.9361 24.7655C22.1062 24.7655 21.4336 24.0928 21.4335 23.2629V21.3997C21.4335 20.8475 20.9856 20.3999 20.4335 20.3997C19.8812 20.3997 19.4335 20.8474 19.4335 21.3997V23.2629C19.4336 25.1974 21.0016 26.7655 22.9361 26.7655C24.8705 26.7654 26.4386 25.1973 26.4387 23.2629V21.4814C27.3938 21.0756 28.0635 20.129 28.0635 19.0259C28.0635 17.9228 27.3938 16.9762 26.4387 16.5704L26.4387 6.2395C26.4387 5.68722 25.991 5.2395 25.4387 5.2395C24.8864 5.2395 24.4387 5.68722 24.4387 6.2395Z" fill="black"/>
</svg>
