<svg width="32" height="32" viewBox="0 0 32 32" fill="none" xmlns="http://www.w3.org/2000/svg">
<path d="M15.616 21.672C16.1683 21.672 16.616 22.1197 16.616 22.672C16.616 23.2242 16.1683 23.672 15.616 23.672H12.6134C12.0611 23.672 11.6134 23.2242 11.6134 22.672C11.6134 22.1197 12.0611 21.672 12.6134 21.672H15.616Z" fill="black"/>
<path fill-rule="evenodd" clip-rule="evenodd" d="M18.5742 15.8608C19.0697 15.3287 19.2995 14.6231 19.2995 13.8933V11.0678C19.2995 10.3379 19.0698 9.63248 18.5742 9.10034C18.0713 8.56038 17.3709 8.28143 16.6003 8.28133H11.6224C10.8525 8.28133 10.1513 8.56117 9.64844 9.10034C9.15309 9.63174 8.92188 10.3368 8.92188 11.0678V13.8933C8.9219 14.6231 9.1516 15.3286 9.64714 15.8608C10.1502 16.4007 10.8517 16.6798 11.6224 16.6798H16.6003C17.3708 16.6797 18.0713 16.4005 18.5742 15.8608ZM17.2995 11.0678C17.2995 10.751 17.2031 10.5629 17.1107 10.4636C17.0258 10.3724 16.8769 10.2814 16.6003 10.2813H11.6224C11.3484 10.2813 11.1981 10.3715 11.112 10.4636C11.0188 10.5636 10.9219 10.7524 10.9219 11.0678V13.8933C10.9219 14.21 11.0182 14.3982 11.1107 14.4975C11.1956 14.5887 11.3456 14.6798 11.6224 14.6798H13.0663L13.8934 12.2787C14.0733 11.7566 14.6421 11.4791 15.1642 11.6589C15.6863 11.8388 15.9638 12.4076 15.784 12.9298L15.1812 14.6798H16.6003C16.8766 14.6797 17.0257 14.5886 17.1107 14.4975C17.2031 14.3982 17.2995 14.21 17.2995 13.8933V11.0678Z" fill="black"/>
<path d="M20.6087 9.2605V25.9272H7.61263V9.2605C7.61268 8.24142 7.92887 7.45276 8.41732 6.92847C8.89853 6.41203 9.61922 6.07307 10.5957 6.073H17.623C18.6039 6.073 19.3252 6.41271 19.8053 6.92847C20.2928 7.45225 20.6087 8.24057 20.6087 9.2605ZM22.6087 25.9272V18.7774H22.8146C23.0171 18.7774 23.1829 18.9422 23.1831 19.1446V20.8842C23.1833 22.1929 24.2452 23.2514 25.5516 23.2514C26.8595 23.2511 27.9186 22.1921 27.9188 20.8842V11.7397C27.9188 11.4745 27.8133 11.2202 27.6258 11.0326L25.381 8.78784C24.9905 8.39758 24.3574 8.39741 23.967 8.78784C23.5768 9.1783 23.5768 9.81144 23.967 10.2019L25.9188 12.1537V20.8842C25.9186 21.0876 25.7549 21.2511 25.5516 21.2514C25.3486 21.2514 25.1833 21.0872 25.1831 20.8842V19.1446C25.1829 17.8377 24.1218 16.7774 22.8146 16.7774H22.6087V9.2605C22.6087 7.82728 22.1595 6.52178 21.2689 5.56519C20.3707 4.60049 19.0981 4.073 17.623 4.073H10.5957C9.12362 4.07307 7.85193 4.60127 6.95378 5.56519C6.06314 6.52124 5.61268 7.82647 5.61263 9.2605V25.9272H5.08203C4.52975 25.9272 4.08203 26.3749 4.08203 26.9272C4.08203 27.4794 4.52975 27.9272 5.08203 27.9272H23.1419C23.6942 27.9271 24.1419 27.4794 24.1419 26.9272C24.1419 26.3749 23.6942 25.9272 23.1419 25.9272H22.6087Z" fill="black"/>
</svg>
