<svg width="32" height="32" viewBox="0 0 32 32" fill="none" xmlns="http://www.w3.org/2000/svg">
<path d="M8.33097 7.69922C8.33097 6.77912 9.08187 6.03125 9.99764 6.03125C10.9135 6.0313 11.6643 6.77921 11.6643 7.69922C11.664 8.61829 10.914 9.36453 9.99764 9.36458C9.08143 9.36458 8.33132 8.61839 8.33097 7.69922ZM6.33097 7.69922C6.33132 9.72695 7.98085 11.3646 9.99764 11.3646C12.0144 11.3645 13.664 9.72698 13.6643 7.69922C13.6643 5.67182 12.0153 4.0313 9.99764 4.03125C7.97999 4.03125 6.33097 5.67186 6.33097 7.69922Z" fill="black"/>
<path d="M9.34229 25.2852C9.34229 25.7141 9.68945 26.0622 10.1183 26.0625C10.5475 26.0625 10.8957 25.7143 10.8957 25.2852V22.9948C10.8957 22.3883 11.3881 21.8958 11.9946 21.8958L12.13 21.8841C12.4411 21.8318 12.6999 21.603 12.7837 21.2904L12.8071 21.2005C12.9501 20.6671 13.4989 20.3505 14.0324 20.4935C14.5656 20.6365 14.8821 21.1842 14.7394 21.7174L14.7147 21.8086C14.4656 22.7372 13.7697 23.452 12.8957 23.7474V25.2852C12.8957 26.8189 11.652 28.0625 10.1183 28.0625C8.58488 28.0622 7.34229 26.8187 7.34229 25.2852V23.888C6.38519 23.8143 5.63135 23.0164 5.63135 22.0404V14.194C5.63135 13.3079 5.98336 12.4581 6.60921 11.8307C6.99927 11.4397 7.63229 11.4381 8.02327 11.8281C8.41417 12.2181 8.41436 12.8512 8.02458 13.2422C7.77277 13.4946 7.63135 13.8375 7.63135 14.194V21.9023C8.58831 21.9762 9.34229 22.7754 9.34229 23.7513V25.2852Z" fill="black"/>
<path fill-rule="evenodd" clip-rule="evenodd" d="M11.4904 12.5061L18.7065 19.3594L18.837 19.238C19.7118 18.5018 20.9641 18.4073 21.9402 19.003L22.1445 19.1408L25.7449 21.8195C26.3539 22.273 26.4558 23.1331 25.9971 23.7137L25.8974 23.8258L22.2927 27.4761L22.1828 27.5763C21.6112 28.0404 20.7547 27.9536 20.2912 27.357L17.5482 23.8267C16.8646 22.9468 16.8116 21.7579 17.3562 20.8352L10.1131 13.9563C9.7129 13.576 9.69643 12.943 10.0767 12.5426C10.4569 12.1422 11.09 12.126 11.4904 12.5061ZM20.0788 20.812C20.3122 20.5756 20.6837 20.5468 20.9503 20.7448L23.9355 22.9662L21.4039 25.5298L19.1279 22.5996C18.9228 22.3356 18.9447 21.9607 19.1794 21.7227L20.0788 20.812Z" fill="black"/>
</svg>
