<svg width="32" height="32" viewBox="0 0 32 32" fill="none" xmlns="http://www.w3.org/2000/svg">
<path d="M19.6135 21.2292V19.0964C19.6135 18.5441 20.0612 18.0964 20.6135 18.0964C21.1658 18.0964 21.6135 18.5441 21.6135 19.0964V21.2292C21.6135 21.7815 21.1658 22.2292 20.6135 22.2292C20.0612 22.2292 19.6135 21.7815 19.6135 21.2292Z" fill="black"/>
<path d="M20.6137 22.735C21.35 22.7351 21.9471 23.332 21.9471 24.0683C21.9471 24.8046 21.35 25.4015 20.6137 25.4017C19.8774 25.4017 19.2726 24.8047 19.2726 24.0683C19.2726 23.332 19.8774 22.735 20.6137 22.735Z" fill="black"/>
<path fill-rule="evenodd" clip-rule="evenodd" d="M19.6135 21.2292V19.0964C19.6135 18.5441 20.0612 18.0964 20.6135 18.0964C21.1658 18.0964 21.6135 18.5441 21.6135 19.0964V21.2292C21.6135 21.7815 21.1658 22.2292 20.6135 22.2292C20.0612 22.2292 19.6135 21.7815 19.6135 21.2292ZM20.6137 22.735C21.35 22.7351 21.9471 23.332 21.9471 24.0683C21.9471 24.8046 21.35 25.4015 20.6137 25.4017C19.8774 25.4017 19.2726 24.8047 19.2726 24.0683C19.2726 23.332 19.8774 22.735 20.6137 22.735Z" fill="black"/>
<path fill-rule="evenodd" clip-rule="evenodd" d="M26.6639 13.9194L26.9689 14.1609C27.4019 14.5036 28.0311 14.4297 28.3739 13.9968C28.7166 13.5638 28.6441 12.9347 28.2111 12.5919L24.2987 9.49502V6.92389C24.2987 6.3716 23.851 5.92389 23.2987 5.92389C22.7464 5.92389 22.2987 6.3716 22.2987 6.92389V7.91194L18.5171 4.91868L18.2346 4.71425C16.7838 3.75657 14.8648 3.8247 13.4806 4.91868L3.78664 12.5919C3.35373 12.9347 3.28113 13.5638 3.62388 13.9968C3.96667 14.4298 4.59582 14.5036 5.02883 14.1609L5.33579 13.9178V23.0241C5.33608 25.7553 7.55115 27.9695 10.2824 27.9695H15.5624C15.5938 27.9706 15.6254 27.9712 15.6573 27.9712H25.5544C27.4102 27.971 28.5758 25.9653 27.6534 24.3527L26.6639 22.6229V13.9194ZM24.6639 19.1263V12.3361L17.2762 6.48769C16.5272 5.89661 15.469 5.89486 14.7202 6.48639L7.33579 12.334V23.0241C7.33608 24.6508 8.65573 25.9695 10.2824 25.9695H13.273C13.1789 25.4435 13.258 24.8764 13.5583 24.3514L18.5114 15.7056C19.4408 14.0832 21.78 14.0847 22.708 15.7069L24.6639 19.1263ZM15.294 25.3462C15.1415 25.6136 15.3204 25.9426 15.618 25.9695C15.6309 25.9706 15.644 25.9712 15.6573 25.9712H25.5544C25.6111 25.9712 25.6641 25.9603 25.712 25.9409C25.8722 25.8761 25.9758 25.7158 25.9731 25.5458C25.972 25.4791 25.9546 25.4108 25.9177 25.3462L20.9724 16.7004C20.8118 16.4197 20.4077 16.4199 20.2471 16.7004L15.294 25.3462Z" fill="black"/>
</svg>
