<svg width="32" height="32" viewBox="0 0 32 32" fill="none" xmlns="http://www.w3.org/2000/svg">
<path d="M23.2148 13.1546C23.7671 13.1546 24.2148 13.6023 24.2148 14.1546C24.2148 14.7069 23.7671 15.1546 23.2148 15.1546H20.513C19.9607 15.1546 19.513 14.7069 19.513 14.1546C19.513 13.6023 19.9607 13.1546 20.513 13.1546H23.2148Z" fill="black"/>
<path fill-rule="evenodd" clip-rule="evenodd" d="M10.325 10.5973H9.98584C10.041 10.6067 10.0976 10.6117 10.1554 10.6117C10.2132 10.6117 10.2699 10.6067 10.325 10.5973ZM21.6785 10.5973C21.7337 10.6067 21.7903 10.6117 21.8481 10.6117C21.9058 10.6116 21.9623 10.6067 22.0173 10.5973H21.6785Z" fill="black"/>
<path fill-rule="evenodd" clip-rule="evenodd" d="M8.77458 24.1781H9.15413V24.3864C9.15413 26.403 10.7885 28.0374 12.8052 28.0374H19.1958C21.2117 28.0374 22.8468 26.4027 22.8468 24.3864V24.1781H23.2381C26.1302 24.178 28.4697 21.8384 28.4699 18.9463V13.8291C28.4696 11.0399 26.2757 8.74453 23.5076 8.60384L23.2381 8.59733H22.8481V7.61296C22.8481 5.59835 21.2142 3.96226 19.1984 3.96191H12.8065C10.7895 3.96199 9.15552 5.59785 9.15544 7.61296V8.59733H8.77458C5.88461 8.59733 3.53005 10.9461 3.52979 13.8291V18.9463C3.52995 21.8422 5.8863 24.1781 8.77458 24.1781ZM9.15413 22.1781H8.77458C6.98319 22.1781 5.52995 20.73 5.52979 18.9463V13.8291C5.53006 12.0549 6.985 10.5973 8.77458 10.5973H9.98584H10.325H21.6785H22.0173H23.2381L23.5688 10.6143C25.1991 10.7806 26.4696 12.1623 26.4699 13.8291V18.9463C26.4697 20.7337 25.0257 22.178 23.2381 22.1781H22.8468V20.5817H22.9648C23.517 20.5816 23.9648 20.1339 23.9648 19.5817C23.9648 19.0295 23.517 18.5818 22.9648 18.5817H9.03776C8.48548 18.5817 8.03776 19.0294 8.03776 19.5817C8.03776 20.134 8.48548 20.5817 9.03776 20.5817H9.15413V22.1781ZM11.1541 24.3864V20.5817H20.8468V24.3864C20.8468 25.2988 20.1064 26.0374 19.1958 26.0374H12.8052C11.8931 26.0374 11.1541 25.2985 11.1541 24.3864ZM20.8481 8.59733H11.1554V7.61296C11.1555 6.70182 11.8947 5.96199 12.8065 5.96191H19.1984C20.1084 5.96226 20.8481 6.70165 20.8481 7.61296V8.59733Z" fill="black"/>
</svg>
