<svg width="32" height="32" viewBox="0 0 32 32" fill="none" xmlns="http://www.w3.org/2000/svg">
<path d="M18.8978 10.51C18.8978 8.00736 16.8166 5.93999 14.2038 5.9397C11.5906 5.9397 9.50849 8.00718 9.50849 10.51C9.50849 13.0139 11.5904 15.0803 14.2038 15.0803C16.8168 15.08 18.8978 13.0137 18.8978 10.51ZM20.8978 10.51C20.8978 14.1599 17.8792 17.08 14.2038 17.0803C10.528 17.0803 7.50849 14.1601 7.50849 10.51C7.50849 6.86118 10.5279 3.9397 14.2038 3.9397C17.8793 3.93999 20.8978 6.86137 20.8978 10.51Z" fill="black"/>
<path d="M4.28662 26.54C4.28662 24.8487 4.96999 22.9706 6.59912 21.5269C8.22861 20.0831 10.7165 19.148 14.202 19.148C14.7542 19.1482 15.202 19.5958 15.202 20.148C15.202 20.7002 14.7542 21.1479 14.202 21.148C11.0695 21.148 9.09942 21.9846 7.92594 23.0243C6.75216 24.0645 6.28662 25.384 6.28662 26.54C6.28628 27.092 5.8387 27.54 5.28662 27.54C4.73455 27.54 4.28696 27.092 4.28662 26.54Z" fill="black"/>
<path d="M25.9387 22.2064C25.9387 20.1164 24.2449 18.4225 22.1549 18.4225C20.065 18.4225 18.3711 20.1164 18.371 22.2064C18.371 24.2959 20.065 25.9902 22.1549 25.9902C24.2448 25.9902 25.9387 24.2959 25.9387 22.2064ZM27.9387 22.2064C27.9387 25.4003 25.3495 27.9902 22.1549 27.9902C18.9603 27.9902 16.371 25.4003 16.371 22.2064C16.3711 19.0118 18.9604 16.4225 22.1549 16.4225C25.3494 16.4225 27.9387 19.0118 27.9387 22.2064Z" fill="black"/>
<path d="M21.158 24.6063V22.3211C21.158 21.7689 21.6057 21.3211 22.158 21.3211C22.7103 21.3211 23.158 21.7689 23.158 22.3211V24.6063C23.158 25.1586 22.7103 25.6063 22.158 25.6063C21.6057 25.6063 21.158 25.1586 21.158 24.6063ZM21.158 20.0242V19.9904C21.158 19.4381 21.6057 18.9904 22.158 18.9904C22.7103 18.9904 23.158 19.4381 23.158 19.9904V20.0242C23.1579 20.5764 22.7102 21.0242 22.158 21.0242C21.6058 21.0242 21.1581 20.5764 21.158 20.0242Z" fill="black"/>
</svg>
