<svg width="32" height="32" viewBox="0 0 32 32" fill="none" xmlns="http://www.w3.org/2000/svg">
<path d="M14.7078 9.67758C15.3269 8.78867 16.6719 8.78886 17.2911 9.67758L17.4122 9.88071L18.1701 11.395L19.8719 11.6398C21.1495 11.8243 21.6998 13.4032 20.7417 14.3234L19.519 15.4966L19.8081 17.1515L19.8315 17.3924C19.8609 18.4939 18.7489 19.2544 17.7378 18.9028L17.5229 18.8104L15.9995 18.02L14.4773 18.8104C13.3463 19.3983 11.9643 18.4624 12.1922 17.1515L12.4786 15.4966L11.2586 14.3234C10.3 13.4032 10.8506 11.8243 12.1284 11.6398L13.8289 11.3937L14.5867 9.88071L14.7078 9.67758ZM15.519 12.4901C15.3154 12.8971 14.9479 13.1894 14.519 13.3052L14.3315 13.3442L13.282 13.494L14.0307 14.214C14.4044 14.5736 14.5801 15.0973 14.4904 15.6125L14.3094 16.6437L15.2716 16.1463C15.728 15.9102 16.2726 15.909 16.7299 16.1463L17.6883 16.6437L17.5099 15.6125L17.4878 15.4185C17.4661 14.9685 17.6412 14.5299 17.9682 14.2153L18.7169 13.494L17.6674 13.3442C17.1582 13.2709 16.7133 12.9531 16.4812 12.4888L15.9995 11.5278L15.519 12.4901Z" fill="black"/>
<path d="M6.042 9.13672C6.04209 7.34785 6.7277 5.98193 7.95476 5.10286C9.12742 4.26282 10.6751 3.95312 12.2764 3.95312H19.5251C21.1794 3.95317 22.7399 4.28506 23.9066 5.17839C25.12 6.10757 25.7567 7.52623 25.7568 9.34635L25.762 25.9167L25.7451 26.1862C25.7102 26.4525 25.6242 26.7088 25.4925 26.9414C24.927 27.9439 23.6566 28.2945 22.6566 27.7318L15.9313 23.9323L9.14226 27.7396C8.83129 27.9135 8.47991 28.0052 8.12273 28.0052C6.97187 28.005 6.03971 27.0711 6.042 25.9206V9.13672ZM8.042 25.9245C8.04191 25.9681 8.07719 26.005 8.12273 26.0052L8.16569 25.9935L15.4456 21.9128L15.5628 21.8568C15.8422 21.7449 16.16 21.7651 16.4261 21.9154L23.6357 25.9883C23.6769 26.0115 23.7288 25.9962 23.7503 25.9583C23.7582 25.9443 23.762 25.9284 23.762 25.9167L23.7568 9.34766C23.7567 8.02882 23.3206 7.24954 22.6904 6.76693C22.0133 6.24843 20.9577 5.95317 19.5251 5.95312H12.2764C10.8857 5.95312 9.81522 6.22899 9.11882 6.72786C8.47709 7.18763 8.04208 7.91389 8.042 9.13672V25.9245Z" fill="black"/>
</svg>
