<svg width="32" height="32" viewBox="0 0 32 32" fill="none" xmlns="http://www.w3.org/2000/svg">
<path d="M26.0156 21.1004C26.0155 20.167 25.259 19.4104 24.3255 19.4103H7.67448C6.741 19.4104 5.98446 20.1669 5.98438 21.1004V24.2879C5.98447 25.2214 6.74101 25.9779 7.67448 25.978H24.3255C25.259 25.9779 26.0155 25.2214 26.0156 24.2879V21.1004ZM28.0156 24.2879C28.0155 26.3259 26.3635 27.9779 24.3255 27.978H7.67448C5.63644 27.9779 3.98447 26.326 3.98438 24.2879V21.1004C3.98446 19.0624 5.63643 17.4104 7.67448 17.4103H24.3255C26.3635 17.4104 28.0155 19.0624 28.0156 21.1004V24.2879Z" fill="black"/>
<path d="M26.0156 7.63688C26.0155 6.70342 25.259 5.94688 24.3255 5.94678H7.67448C6.741 5.94686 5.98446 6.7034 5.98438 7.63688V10.8244C5.98447 11.7579 6.74101 12.5144 7.67448 12.5145H24.3255C25.259 12.5144 26.0155 11.7578 26.0156 10.8244V7.63688ZM28.0156 10.8244C28.0155 12.8624 26.3635 14.5144 24.3255 14.5145H7.67448C5.63644 14.5144 3.98447 12.8624 3.98438 10.8244V7.63688C3.98446 5.59883 5.63643 3.94686 7.67448 3.94678H24.3255C26.3635 3.94688 28.0155 5.59885 28.0156 7.63688V10.8244Z" fill="black"/>
</svg>
