<svg width="32" height="32" viewBox="0 0 32 32" fill="none" xmlns="http://www.w3.org/2000/svg">
<path d="M12.8011 5.86339C14.2247 3.37813 17.8077 3.37982 19.2295 5.8647L28.6592 22.353L28.7829 22.586C29.9598 25.0119 28.1974 27.8959 25.4431 27.8959H6.57066C3.72523 27.8959 1.94326 24.8197 3.35582 22.3504L12.8011 5.86339ZM17.4938 6.85818C16.8397 5.71456 15.1905 5.71352 14.5355 6.85688L5.0915 23.3452C4.44184 24.4816 5.26206 25.8959 6.57066 25.8959H25.4431C26.7515 25.8959 27.5732 24.4809 26.9235 23.3452L17.4938 6.85818Z" fill="black"/>
<path d="M15.0033 17.6824V13.6147C15.0033 13.0624 15.451 12.6147 16.0033 12.6147C16.5556 12.6147 17.0033 13.0624 17.0033 13.6147V17.6824C17.0033 18.2347 16.5556 18.6824 16.0033 18.6824C15.451 18.6824 15.0033 18.2347 15.0033 17.6824Z" fill="black"/>
<path d="M16.0065 20.3959C16.7428 20.3959 17.3398 20.9929 17.3398 21.7293C17.3398 22.4657 16.7428 23.0626 16.0065 23.0626H15.9934C15.2571 23.0626 14.6601 22.4657 14.6601 21.7293C14.6601 20.9929 15.2571 20.3959 15.9934 20.3959H16.0065Z" fill="black"/>
</svg>
