<svg width="32" height="32" viewBox="0 0 32 32" fill="none" xmlns="http://www.w3.org/2000/svg">
<path d="M17.3729 27.0208V25.487C17.3729 24.5545 18.1029 23.7843 19.0344 23.7344L22.05 23.5924C22.1843 23.5832 22.2933 23.4904 22.3312 23.3633L22.4654 20.7799L22.468 20.7109L22.481 20.6432C22.6073 19.9852 22.996 19.5625 23.4315 19.3086C23.7974 19.0954 24.2305 18.9891 24.4354 18.931C24.4873 18.9163 24.5295 18.8994 24.5656 18.888C24.4245 18.4153 24.1877 17.9193 23.9081 17.3346C23.6153 16.7226 23.2584 15.9805 23.1125 15.2279L23.0187 14.6849C22.9335 14.1389 22.8724 13.5848 22.8104 13.0586C22.7258 12.3399 22.6377 11.6552 22.4888 10.9922C22.1963 9.68937 21.6792 8.52437 20.5357 7.5599C19.1322 6.37628 17.3929 6.02179 15.3846 6.06641C12.0811 6.13982 9.19757 7.52364 7.91718 10.4753C6.67212 13.3442 7.86463 15.6659 9.17109 18.8125C9.46782 19.5271 9.62202 20.4224 9.70494 21.2969C9.78941 22.188 9.80584 23.1345 9.79218 23.9896C9.77849 24.8468 9.73405 25.6278 9.69322 26.194C9.67277 26.4776 9.65317 26.7089 9.63854 26.8698C9.63122 26.9502 9.62591 27.0139 9.62161 27.0573C9.6195 27.0786 9.61759 27.0952 9.6164 27.1068C9.6158 27.1126 9.61544 27.1179 9.6151 27.1211C9.55687 27.6701 9.06382 28.0735 8.51484 28.0156C7.96563 27.9574 7.56727 27.4646 7.62552 26.9154C7.62552 26.9154 7.62636 26.9068 7.62682 26.9023C7.62778 26.893 7.62886 26.8782 7.63072 26.8594C7.63453 26.8209 7.64087 26.7634 7.64765 26.6888C7.66128 26.5389 7.67898 26.3205 7.69843 26.0508C7.7374 25.5104 7.78055 24.7674 7.79348 23.957C7.80645 23.1444 7.78913 22.2776 7.71406 21.4857C7.63741 20.6774 7.50532 20.0175 7.32343 19.5794C6.13262 16.7115 4.42954 13.4872 6.08255 9.67838C7.77141 5.78585 11.5348 4.15108 15.3391 4.06641C17.5917 4.01627 19.8974 4.4059 21.8247 6.03125C23.4063 7.36515 24.0874 8.98041 24.4406 10.5534C24.6146 11.3281 24.7115 12.1056 24.7961 12.8242C24.8611 13.3761 24.9186 13.8868 24.994 14.3711L25.076 14.8464L25.1151 15.0208C25.2229 15.4326 25.4361 15.8929 25.7128 16.4714C25.9682 17.0053 26.2815 17.6449 26.4823 18.3138L26.5604 18.6029L26.5708 18.6432L26.5773 18.6836C26.675 19.3024 26.5358 19.8973 26.0617 20.3268C25.6928 20.661 25.2108 20.7903 24.981 20.8555C24.6759 20.942 24.5463 20.9784 24.4549 21.0273L24.3234 23.5729L24.3208 23.6419L24.3078 23.7096C24.1068 24.7572 23.2167 25.5328 22.1516 25.5898L19.3729 25.7201V27.0208C19.3729 27.5731 18.9252 28.0208 18.3729 28.0208C17.8209 28.0206 17.3729 27.573 17.3729 27.0208Z" fill="black"/>
<path d="M15.3719 12.1576C15.6171 12.1594 15.8568 12.2324 16.0607 12.3698C16.2139 12.473 16.3418 12.6082 16.4357 12.7656L16.5191 12.931L16.5764 13.1068C16.6204 13.2853 16.6244 13.4717 16.5881 13.6523C16.5394 13.8945 16.4197 14.1165 16.2456 14.2904C16.071 14.4641 15.8473 14.5836 15.605 14.6315C15.4234 14.6674 15.2363 14.6632 15.0581 14.6185L14.8837 14.5599C14.6553 14.4651 14.4597 14.3049 14.3225 14.099C14.2199 13.945 14.1527 13.7708 14.1258 13.5898L14.1128 13.4062C14.1127 13.2431 14.1443 13.0811 14.2066 12.9297L14.26 12.8164C14.3184 12.7069 14.3932 12.6075 14.48 12.5208C14.5983 12.4029 14.7382 12.3107 14.8902 12.2487L15.0061 12.207C15.1229 12.1724 15.2498 12.157 15.3719 12.1576Z" fill="black"/>
<path d="M15.7696 8.78385C16.2756 8.48022 16.907 8.43343 17.4597 8.67838C17.7099 8.78917 17.9503 8.91816 18.1771 9.0651L18.4011 9.21875C18.8926 9.57571 19.1679 10.1492 19.1589 10.7396L19.1498 11.2161L19.5638 11.4466C20.1022 11.745 20.4468 12.2861 20.5078 12.8802L20.5274 13.1419C20.541 13.4034 20.5352 13.6646 20.5091 13.9245C20.4488 14.5184 20.1059 15.0619 19.5677 15.362L19.1498 15.5924L19.1589 16.0677C19.1681 16.6562 18.896 17.2302 18.405 17.5885C18.1125 17.8006 17.796 17.9841 17.4662 18.1315C16.9114 18.3777 16.2753 18.3301 15.7683 18.026L15.3607 17.7812L14.9545 18.0247C14.4482 18.3294 13.8157 18.3774 13.2617 18.1315C12.9278 17.9838 12.6124 17.8032 12.3203 17.5911C11.8287 17.2337 11.5546 16.6603 11.5638 16.069L11.5716 15.5924L11.1563 15.3633C10.6163 15.0639 10.2756 14.5208 10.2149 13.9284C10.1788 13.5808 10.1787 13.2311 10.2136 12.8854L10.2487 12.6654C10.3618 12.1592 10.6837 11.7106 11.155 11.4479L11.5716 11.2161L11.5638 10.7435C11.5547 10.1552 11.8258 9.58096 12.3164 9.22266C12.6089 9.01046 12.9258 8.82709 13.2552 8.67969C13.8098 8.43372 14.4459 8.48081 14.9532 8.78516L15.3594 9.02995L15.7696 8.78385ZM16.3438 10.7695C16.0191 10.9655 15.672 11.0333 15.3633 11.0326C15.0601 11.0326 14.708 10.9685 14.3815 10.7734L13.9961 10.543C13.8455 10.6151 13.7008 10.6977 13.5638 10.7917L13.5729 11.2383C13.5785 11.5947 13.4728 11.9091 13.336 12.1628C13.3264 12.1819 13.3155 12.2081 13.3047 12.2266C13.1527 12.4877 12.9216 12.7549 12.5899 12.9388L12.1992 13.1536C12.1859 13.3212 12.1869 13.4887 12.2005 13.6549L12.5899 13.8711C12.9209 14.0544 13.1491 14.3191 13.3008 14.5781C13.3043 14.584 13.3078 14.5904 13.3112 14.5964C13.4598 14.856 13.5789 15.1887 13.5729 15.5703L13.5638 16.0156C13.7023 16.1109 13.8468 16.1941 13.9974 16.2656L14.3789 16.0378C14.7009 15.8456 15.0491 15.7752 15.3581 15.776C15.6235 15.7761 15.9285 15.8258 16.2175 15.9687L16.3399 16.0365L16.724 16.2656C16.8745 16.1936 17.019 16.111 17.1563 16.0169L17.1498 15.5729C17.1439 15.1943 17.2596 14.8593 17.4115 14.5964C17.4136 14.5926 17.4146 14.5883 17.4167 14.5846C17.5694 14.3221 17.8003 14.0563 18.1302 13.8724L18.5209 13.6549C18.534 13.4875 18.5344 13.3211 18.5209 13.1549L18.1328 12.9388C17.7978 12.7532 17.5669 12.4845 17.4154 12.2227C17.4049 12.2045 17.3948 12.1855 17.3854 12.1667C17.2499 11.9143 17.1442 11.5945 17.1498 11.2396L17.1563 10.793C17.0173 10.6979 16.8737 10.614 16.724 10.543L16.3438 10.7695Z" fill="black"/>
</svg>
