<svg width="33" height="32" viewBox="0 0 33 32" fill="none" xmlns="http://www.w3.org/2000/svg">
<path fill-rule="evenodd" clip-rule="evenodd" d="M17.0219 7.35401C17.058 7.37615 17.0941 7.39946 17.1267 7.42626C18.7019 8.66352 18.8175 10.9636 18.8231 15.5568L18.8233 15.9942C18.8233 20.8812 18.7511 23.2874 17.1267 24.5645C17.0941 24.5901 17.058 24.6146 17.0207 24.6355C16.5383 24.9105 16.0477 25.0271 15.5583 25.0271C13.9375 25.0271 12.3307 23.7511 11.0792 22.7584C10.5141 22.3097 9.65995 21.6316 9.36514 21.6013C9.03072 21.5757 8.74175 21.5652 8.48656 21.5582C7.55671 21.5244 6.82145 21.4999 5.95685 20.7868C4.91653 19.93 4.82099 18.2322 4.81738 16.7358L4.81842 16.2459L4.81958 15.9942L4.81842 15.7425L4.81738 15.2526C4.82099 13.7564 4.91653 12.0596 5.95685 11.2028C6.82261 10.4896 7.55904 10.464 8.49122 10.4326C8.74524 10.4232 9.03305 10.4139 9.36747 10.3894C9.65995 10.358 10.5141 9.67981 11.0792 9.2312C12.7094 7.93663 14.9419 6.16898 17.0219 7.35401ZM26.3152 8.39317C29.4764 12.9422 29.4764 19.0515 26.3152 23.5971C26.145 23.8406 25.8735 23.9711 25.5974 23.9711C25.4249 23.9711 25.2513 23.9199 25.0987 23.8138C24.7025 23.5388 24.6046 22.9947 24.8808 22.5973C27.6692 18.5889 27.6692 13.4048 24.8808 9.38944C24.6046 8.99326 24.7025 8.4491 25.0998 8.17294C25.496 7.89678 26.039 7.99582 26.3152 8.39317ZM15.5467 8.7185C14.5353 8.7185 13.2419 9.74507 12.1652 10.6003C11.1293 11.4218 10.3113 12.072 9.49565 12.1326C9.13443 12.1583 8.82448 12.1699 8.55181 12.1792C7.68139 12.2084 7.46116 12.2282 7.06847 12.5521C6.61782 12.9222 6.56774 14.2915 6.56538 15.3189L6.56626 15.7344L6.56743 15.9919V15.9965L6.56626 16.254L6.56538 16.6699C6.56774 17.6981 6.61782 19.0673 7.06847 19.4375C7.45999 19.7614 7.68022 19.78 8.54832 19.8115C8.82215 19.8196 9.13326 19.8313 9.49565 19.8581C10.3113 19.9175 11.1293 20.5677 12.1652 21.3892C13.4504 22.4088 15.0421 23.6731 16.0978 23.1475C16.9526 22.4067 17.0686 20.4818 17.0752 16.4087L17.0755 15.9942C17.0755 11.6362 16.9811 9.60757 16.0978 8.84085C15.9266 8.75579 15.7413 8.7185 15.5467 8.7185ZM23.4394 11.2653C25.1115 14.1877 25.1115 17.8116 23.4394 20.7247C23.2774 21.0067 22.9838 21.164 22.6808 21.164C22.5328 21.164 22.3837 21.1267 22.2462 21.0475C21.8279 20.8074 21.6834 20.2726 21.9234 19.8554C23.2879 17.4772 23.2879 14.5198 21.9234 12.1346C21.6834 11.7151 21.829 11.1814 22.2473 10.9414C22.6668 10.706 23.1993 10.847 23.4394 11.2653Z" fill="black"/>
</svg>
