<svg width="32" height="32" viewBox="0 0 32 32" fill="none" xmlns="http://www.w3.org/2000/svg">
<path fill-rule="evenodd" clip-rule="evenodd" d="M15.999 5.33333C16.5512 5.33333 16.999 5.78105 16.999 6.33333V19.0988L21.0757 15.6978C21.4657 15.3066 22.0987 15.3055 22.4899 15.6955C22.8811 16.0854 22.8821 16.7186 22.4922 17.1096L16.7375 22.2485C16.5919 22.408 16.3954 22.5201 16.1738 22.5592C16.1158 22.5696 16.0566 22.5749 15.9968 22.5749C15.731 22.5748 15.476 22.4689 15.2884 22.2805L9.50784 17.1092C9.11816 16.7179 9.11952 16.0847 9.51088 15.6951C9.90224 15.3054 10.5354 15.3067 10.9251 15.698L14.999 19.1007V6.33333C14.999 5.78105 15.4467 5.33333 15.999 5.33333Z" fill="black"/>
<path fill-rule="evenodd" clip-rule="evenodd" d="M7.9834 25.6667C7.9834 25.1144 8.43111 24.6667 8.9834 24.6667H23.0175C23.5698 24.6667 24.0175 25.1144 24.0175 25.6667C24.0175 26.2189 23.5698 26.6667 23.0175 26.6667H8.9834C8.43111 26.6667 7.9834 26.2189 7.9834 25.6667Z" fill="black"/>
</svg>
