<svg width="32" height="32" viewBox="0 0 32 32" fill="none" xmlns="http://www.w3.org/2000/svg">
<path d="M26.0817 14.3486V11.7145C26.0817 10.2003 25.5943 8.98507 24.7887 8.15462C23.9873 7.32848 22.7931 6.80179 21.221 6.80176H10.8838C9.31804 6.8019 8.12425 7.329 7.32129 8.15592C6.51444 8.98696 6.02441 10.2016 6.02441 11.7145V16.4854C6.02454 17.9995 6.51218 19.2146 7.31738 20.0452C8.11844 20.8715 9.31204 21.398 10.8838 21.3981H15.6533C16.2054 21.3981 16.6531 21.8461 16.6533 22.3981C16.6533 22.9504 16.2056 23.3981 15.6533 23.3981H10.8838C8.84357 23.398 7.10675 22.7014 5.88118 21.4372C4.65984 20.1772 4.02454 18.4352 4.02441 16.4854V11.7145C4.02441 9.76317 4.66389 8.02182 5.88639 6.7627C7.11282 5.49966 8.84857 4.8019 10.8838 4.80176H21.221C23.2612 4.80179 24.9976 5.49886 26.2236 6.7627C27.4456 8.02244 28.0817 9.76422 28.0817 11.7145V14.3486C28.0816 14.9008 27.6339 15.3486 27.0817 15.3486C26.5297 15.3484 26.0818 14.9007 26.0817 14.3486Z" fill="black"/>
<path fill-rule="evenodd" clip-rule="evenodd" d="M25.4572 22.0162C25.4899 22.0241 25.5233 22.0303 25.5572 22.0349C25.525 22.0267 25.4917 22.0204 25.4572 22.0162ZM21.7424 22.0202C21.7183 22.024 21.6948 22.0287 21.6718 22.0346C21.6958 22.0313 21.7191 22.0252 21.7424 22.0202Z" fill="black"/>
<path d="M16.183 12.7147C16.8207 12.7774 17.3744 13.3031 17.3744 14.0154C17.3742 14.7798 16.7398 15.3211 16.0554 15.3214C15.413 15.3214 14.8152 14.8451 14.7429 14.1561L14.735 14.0154L14.7429 13.8748C14.8148 13.1894 15.4083 12.7082 16.0554 12.7082L16.183 12.7147Z" fill="black"/>
<path d="M20.971 12.7147C21.6126 12.7781 22.1598 13.3082 22.1598 14.0154C22.1597 14.7745 21.5323 15.3213 20.8421 15.3214C20.2007 15.3214 19.6021 14.8459 19.5296 14.1561L19.5218 14.0154L19.5296 13.8748C19.6017 13.1886 20.196 12.7082 20.8421 12.7082L20.971 12.7147Z" fill="black"/>
<path d="M11.3961 12.7147C12.034 12.7774 12.5875 13.3031 12.5875 14.0154C12.5874 14.7797 11.9531 15.3212 11.2685 15.3214C10.6265 15.3214 10.0284 14.8454 9.956 14.1561L9.94819 14.0154L9.956 13.8748C10.028 13.189 10.6218 12.7082 11.2685 12.7082L11.3961 12.7147Z" fill="black"/>
<path fill-rule="evenodd" clip-rule="evenodd" d="M20.5343 20.3528V19.7835L20.5551 19.4775C20.7363 17.973 22.0473 16.8575 23.5733 16.8395C25.2357 16.8191 26.6691 18.1032 26.6918 19.7952V20.3517C27.5134 20.8017 28.0851 21.6559 28.0851 22.6702V24.5479C28.085 26.0543 26.8237 27.2078 25.356 27.208H21.8716C20.4044 27.208 19.1439 26.0541 19.1437 24.5479V22.6702C19.1437 21.6569 19.7142 20.8031 20.5343 20.3528ZM21.7682 22.0164C21.7595 22.0175 21.751 22.0189 21.7424 22.0202C21.7183 22.024 21.6948 22.0287 21.6718 22.0346C21.3467 22.1172 21.1437 22.3963 21.1437 22.6702V24.5479C21.1439 24.8743 21.4322 25.208 21.8716 25.208H25.356C25.7967 25.2078 26.085 24.8737 26.0851 24.5479V22.6702C26.0851 22.3971 25.8826 22.1181 25.5572 22.0349C25.5233 22.0303 25.4899 22.0241 25.4572 22.0162C25.4244 22.0122 25.3907 22.0101 25.356 22.0101H21.8716C21.8361 22.0101 21.8016 22.0123 21.7682 22.0164ZM24.6853 19.7262L24.6918 19.8226V20.0101H22.5343V19.8174C22.543 19.3147 22.9792 18.8455 23.5981 18.8382C24.1945 18.831 24.6276 19.2516 24.6853 19.7262Z" fill="black"/>
</svg>
