<?xml version="1.0" encoding="UTF-8"?>
<svg id="Capa_1" xmlns="http://www.w3.org/2000/svg" version="1.1" viewBox="0 0 32 32">
  <!-- Generator: Adobe Illustrator 30.0.0, SVG Export Plug-In . SVG Version: 2.1.1 Build 123)  -->
  <defs>
    <style>
      .st0 {
        fill-rule: evenodd;
      }
    </style>
  </defs>
  <path class="st0" d="M26.53,14.69v-6.24c0-1.38-1.05-2.52-2.39-2.65h-.27s-18.57-.01-18.57-.01h-.27c-1.34.15-2.39,1.29-2.39,2.67v12.5c.15,1.34,1.29,2.39,2.67,2.39h12.58c1.06,1.64,2.86,2.76,4.93,2.86h.32c3.34,0,6.07-2.63,6.24-5.94v-.32c0-2.2-1.13-4.14-2.84-5.26ZM4.62,8.45c0-.37.3-.67.67-.67h18.57c.37,0,.67.3.67.67v1.6H4.62v-1.6ZM16.88,19.95v.32c.03.37.08.73.16,1.07H5.29c-.37,0-.67-.3-.67-.67v-8.62h19.9v1.79c-.35-.08-.71-.13-1.08-.15h-.32c-3.45,0-6.25,2.8-6.25,6.26ZM23.13,24.22c-.97,0-1.86-.32-2.57-.87-.66-.5-1.17-1.2-1.44-2-.15-.44-.23-.91-.23-1.39,0-2.36,1.91-4.27,4.25-4.27.49,0,.96.08,1.4.24.8.28,1.5.8,2,1.47.53.71.85,1.6.85,2.56,0,2.36-1.91,4.27-4.25,4.27Z"/>
  <path class="st0" d="M24.82,19.04h-.64v-.78c0-.55-.45-1-1-1s-1,.45-1,1v.78h-.74c-.55,0-1,.45-1,1s.45,1,1,1h.74v.6c0,.55.45,1,1,1s1-.45,1-1v-.6h.64c.55,0,1-.45,1-1s-.45-1-1-1Z"/>
</svg>