<?xml version="1.0" encoding="UTF-8"?>
<svg id="Capa_1" xmlns="http://www.w3.org/2000/svg" version="1.1" viewBox="0 0 32 32">
  <!-- Generator: Adobe Illustrator 30.0.0, SVG Export Plug-In . SVG Version: 2.1.1 Build 123)  -->
  <path d="M16,8.22c-4.3,0-7.78,3.48-7.78,7.78s3.48,7.78,7.78,7.78,7.78-3.48,7.78-7.78-3.48-7.78-7.78-7.78ZM16.99,10.3c1.63.28,3.03,1.24,3.89,2.58l-3.89,2.11v-4.69ZM14.99,10.3v4.48l-3.78-2.03c.86-1.27,2.21-2.18,3.78-2.45ZM10.22,16c0-.49.06-.96.17-1.41l4.05,2.17-2.91,2.91c-.82-1-1.32-2.28-1.32-3.67ZM16,21.78c-1.08,0-2.08-.29-2.94-.8l2.97-2.97,2.94,2.96c-.87.52-1.89.82-2.97.82ZM20.49,19.65l-2.77-2.78,3.93-2.13c.09.41.14.83.14,1.26,0,1.38-.49,2.65-1.3,3.65Z"/>
  <path d="M16,4.01c-6.64,0-12.03,5.39-12.03,12.03s5.39,12.03,12.03,12.03,12.03-5.39,12.03-12.03-5.39-12.03-12.03-12.03ZM16,26.07c-5.54,0-10.03-4.49-10.03-10.03S10.46,6.01,16,6.01s10.03,4.49,10.03,10.03-4.49,10.03-10.03,10.03Z"/>
</svg>