<?xml version="1.0" encoding="UTF-8"?>
<svg id="Capa_1" xmlns="http://www.w3.org/2000/svg" version="1.1" viewBox="0 0 32 32">
  <!-- Generator: Adobe Illustrator 30.0.0, SVG Export Plug-In . SVG Version: 2.1.1 Build 123)  -->
  <defs>
    <style>
      .st0 {
        fill-rule: evenodd;
      }
    </style>
  </defs>
  <path class="st0" d="M28.14,13.29l-2.06-2.99.97-.97.21-.23c.91-1.12.91-2.73,0-3.85l-.21-.23c-1.12-1.12-2.89-1.19-4.08-.21l-.23.21-.97.97-2.99-2.06-.2-.13c-1.03-.58-2.34-.42-3.2.44l-4.47,4.47c-.89.89-1.04,2.27-.36,3.32l2.03,3.16-7.74,7.74-.21.23c-.91,1.12-.91,2.73,0,3.85l.21.23c1.12,1.12,2.89,1.19,4.08.21l.23-.21,7.74-7.74,3.15,2.02c.99.63,2.27.54,3.15-.2l.17-.16,4.47-4.47c.91-.91,1.04-2.34.31-3.4ZM24.15,6.42c.41-.41,1.08-.41,1.49,0,.41.41.41,1.08,0,1.49l-.74.74c-.45-.54-.94-1.04-1.49-1.49l.74-.74ZM7.73,25.82c-.41.41-1.08.41-1.49,0-.41-.41-.41-1.08,0-1.49l7.48-7.48c.45.54.94,1.04,1.49,1.49l-7.48,7.48ZM26.42,15.27l-4.47,4.47c-.22.22-.57.26-.83.09l-3.82-2.44c-1.06-.68-1.95-1.57-2.63-2.63l-2.44-3.82c-.17-.26-.13-.61.09-.83l4.47-4.47c.23-.23.59-.26.85-.08l3.93,2.71c.87.6,1.62,1.35,2.22,2.22l2.71,3.93c.18.26.15.62-.08.85Z"/>
</svg>