<svg width="32" height="32" viewBox="0 0 32 32" fill="none" xmlns="http://www.w3.org/2000/svg">
<path fill-rule="evenodd" clip-rule="evenodd" d="M10.909 5.59772C10.909 4.68343 11.6202 3.94263 12.4979 3.94263H19.5016C20.3794 3.94263 21.0905 4.68341 21.0905 5.59772V10.697H25.9859C26.8637 10.697 27.5748 11.4378 27.5748 12.3521V19.6491C27.5748 20.5609 26.8648 21.3041 25.9859 21.3041H21.0905V26.4021C21.0905 27.3165 20.3794 28.0572 19.5016 28.0572H12.4979C11.6202 28.0572 10.909 27.3165 10.909 26.4021V21.3041H6.01369C5.13486 21.3041 4.4248 20.5609 4.4248 19.6491V12.3521C4.4248 11.4378 5.13597 10.697 6.01369 10.697H10.909V5.59772ZM12.6898 5.79759V11.6245C12.6898 12.1368 12.2912 12.552 11.7994 12.552H6.20557V19.4492H11.7994C12.2912 19.4492 12.6898 19.8644 12.6898 20.3767V26.2022H19.3098V20.3767C19.3098 19.8644 19.7084 19.4492 20.2002 19.4492H25.794V12.552H20.2002C19.7084 12.552 19.3098 12.1368 19.3098 11.6245V5.79759H12.6898Z" fill="black"/>
</svg>
