<svg width="32" height="32" viewBox="0 0 32 32" fill="none" xmlns="http://www.w3.org/2000/svg">
<path d="M17.0839 14.8219V12.4322C17.0839 11.8799 16.6362 11.4322 16.0839 11.4322C15.5316 11.4322 15.0839 11.8799 15.0839 12.4322V14.8219H12.4322C11.8799 14.8219 11.4322 15.2696 11.4322 15.8219C11.4322 16.3742 11.8799 16.8219 12.4322 16.8219H15.0839V19.5676C15.0839 20.1199 15.5316 20.5676 16.0839 20.5676C16.6362 20.5676 17.0839 20.1199 17.0839 19.5676V16.8219H19.5676C20.1199 16.8219 20.5676 16.3742 20.5676 15.8219C20.5676 15.2696 20.1199 14.8219 19.5676 14.8219H17.0839Z" fill="black"/>
<path d="M25.9155 16.0624C25.9155 10.5635 21.4716 6.11469 16.0002 6.1145C10.5285 6.1145 6.0835 10.5633 6.0835 16.0624C6.0835 21.5615 10.5285 26.0103 16.0002 26.0103C21.4716 26.0101 25.9155 21.5614 25.9155 16.0624ZM27.9155 16.0624C27.9155 22.661 22.5812 28.0101 16.0002 28.0103L15.3869 27.9947C9.09053 27.6748 4.0835 22.455 4.0835 16.0624C4.0835 9.46377 9.41896 4.1145 16.0002 4.1145L16.6134 4.13013C22.9095 4.45034 27.9155 9.67012 27.9155 16.0624Z" fill="black"/>
</svg>
