<svg width="32" height="32" viewBox="0 0 32 32" fill="none" xmlns="http://www.w3.org/2000/svg">
<path d="M17.5527 22.1757C17.5524 21.5234 17.024 20.9948 16.3717 20.9947H15.6816V23.358H16.3717C17.0242 23.3579 17.5527 22.8282 17.5527 22.1757ZM19.5527 22.1757C19.5527 23.9328 18.1288 25.3579 16.3717 25.358H15.6816V27.052C15.6816 27.6043 15.2339 28.052 14.6816 28.052C14.1293 28.052 13.6816 27.6043 13.6816 27.052V20.3176C13.6816 19.5872 14.2741 18.9947 15.0045 18.9947H16.3717C18.1286 18.9948 19.5524 20.4189 19.5527 22.1757Z" fill="black"/>
<path d="M26.7745 25.4231C26.7742 26.875 25.5963 28.052 24.1443 28.052C22.6925 28.0517 21.5156 26.8749 21.5154 25.4231V21.9947C21.5154 20.3379 22.8585 18.9947 24.5154 18.9947H25.7745C26.3266 18.9949 26.7745 19.4425 26.7745 19.9947C26.7745 20.5469 26.3266 20.9945 25.7745 20.9947H24.5154C23.9631 20.9947 23.5154 21.4424 23.5154 21.9947V25.4231C23.5156 25.7703 23.7971 26.0517 24.1443 26.052C24.4917 26.052 24.7742 25.7705 24.7745 25.4231V25.134C24.2233 25.1329 23.7773 24.6868 23.7771 24.1353C23.7771 23.5831 24.2248 23.1353 24.7771 23.1353H25.2875C26.1083 23.1353 26.7744 23.8003 26.7745 24.621V25.4231Z" fill="black"/>
<path d="M10.9504 24.9778V20.1197C10.9504 19.5674 10.5026 19.1197 9.95036 19.1197C9.39807 19.1197 8.95036 19.5674 8.95036 20.1197V24.9778C8.95036 25.5301 8.50264 25.9778 7.95036 25.9778H6.38525C5.83335 25.978 5.38556 26.4259 5.38525 26.9778C5.38525 27.5299 5.83316 27.9776 6.38525 27.9778H7.95036C9.60721 27.9778 10.9504 26.6346 10.9504 24.9778Z" fill="black"/>
<path d="M22.0288 12.9309H24.5402V17.1588C24.5402 17.7111 24.9879 18.1588 25.5402 18.1588C26.0922 18.1584 26.5402 17.7109 26.5402 17.1588V12.5416C26.5402 11.6209 26.1828 10.7348 25.5467 10.0715L20.8032 5.13143C20.1313 4.43216 19.2027 4.03652 18.2329 4.03638L11.1626 4.03768C8.06874 4.02817 5.5324 6.49307 5.45948 9.58846V17.1588C5.45948 17.7111 5.90719 18.1588 6.45948 18.1588C7.01176 18.1588 7.45948 17.7111 7.45948 17.1588V9.63534C7.50675 7.62849 9.15217 6.02865 11.16 6.03638H17.8361V8.72648C17.8345 11.045 19.7105 12.9261 22.0288 12.9309ZM23.5989 10.9309H22.0327C20.8938 10.9284 19.9596 10.0621 19.8478 8.95304L19.8361 8.72778V7.01214L23.5989 10.9309Z" fill="black"/>
</svg>
