<svg width="32" height="32" viewBox="0 0 32 32" fill="none" xmlns="http://www.w3.org/2000/svg">
<path fill-rule="evenodd" clip-rule="evenodd" d="M11.5385 25.4818C11.5589 25.483 11.5796 25.4837 11.6003 25.4837C11.648 25.4837 11.6949 25.4803 11.7408 25.4739C11.6732 25.4689 11.6053 25.4716 11.5385 25.4818Z" fill="black"/>
<path d="M14.6794 20.3297C14.6794 17.5519 16.3671 15.1794 18.7646 14.1637C19.0734 14.033 19.427 14.0661 19.7065 14.2512C19.986 14.4363 20.1548 14.7491 20.1549 15.0844L20.154 19.1015C20.154 19.1309 20.169 19.1571 20.1917 19.1724L21.3343 19.9356L21.3822 19.9504C21.3988 19.9503 21.4157 19.9452 21.4301 19.9356L22.5635 19.1761C22.5872 19.1601 22.6039 19.1315 22.604 19.1006V15.0844L22.6123 14.9601C22.6482 14.6738 22.8061 14.4142 23.0496 14.2521C23.3284 14.0667 23.6828 14.0332 23.9915 14.1628C26.3937 15.1712 28.0794 17.5543 28.0795 20.3297C28.0793 22.8593 26.6759 25.0533 24.6121 26.1946L24.6038 27.0776C24.598 27.6297 24.1458 28.0729 23.5938 28.0674C23.0415 28.0616 22.5972 27.6087 22.6031 27.0564L22.6196 25.563L22.6316 25.4166C22.6848 25.0808 22.9068 24.79 23.2255 24.6534C24.9057 23.9326 26.0795 22.2678 26.0797 20.3297C26.0796 18.9801 25.5109 17.7646 24.6029 16.9102L24.6038 19.1042C24.6025 19.7977 24.2582 20.448 23.6803 20.8361L22.5432 21.5975C21.8861 22.0375 21.0402 22.0655 20.3584 21.6813L20.2239 21.5985L19.0832 20.837C18.5013 20.4494 18.1542 19.7972 18.1542 19.1015L18.1533 16.9148C17.2453 17.7703 16.6792 18.9827 16.6792 20.3297C16.6794 22.2674 17.8523 23.9327 19.5399 24.6543C19.9097 24.8125 20.1488 25.1774 20.1466 25.5796L20.1383 27.0647C20.1353 27.6169 19.6851 28.0621 19.1329 28.0591C18.5807 28.0561 18.1355 27.6059 18.1385 27.0537L18.1431 26.1891C16.0789 25.0459 14.6796 22.8557 14.6794 20.3297Z" fill="black"/>
<path fill-rule="evenodd" clip-rule="evenodd" d="M10.4956 23.7214C10.5303 23.706 10.5652 23.6913 10.6003 23.6773V6.35841L6.41618 8.21879C5.90664 8.44501 5.57765 8.95017 5.57764 9.50785V25.4245C5.57793 25.6508 5.81031 25.8006 6.01514 25.7097L10.4956 23.7214ZM12.6003 23.6243V6.25028L19.1258 8.62113C19.2867 8.67936 19.4515 8.72282 19.6181 8.75158V12.2696C19.6181 12.8219 20.0658 13.2696 20.6181 13.2696C21.1704 13.2696 21.6181 12.8219 21.6181 12.2696V8.39837L25.7677 6.55342C25.9703 6.46238 26.2039 6.60787 26.2039 6.84118V12.6732C26.2041 13.2252 26.6519 13.6731 27.2039 13.6732C27.7561 13.6732 28.2037 13.2253 28.2039 12.6732V6.84118C28.2039 5.16659 26.4842 4.04155 24.9513 4.7279L20.4787 6.71618L20.3146 6.77087C20.1473 6.80902 19.9693 6.79892 19.8055 6.73962L12.661 4.14327C11.957 3.88659 11.1804 3.91376 10.4956 4.21748L5.60368 6.39066C4.37232 6.93757 3.57765 8.15905 3.57764 9.50785V25.4245C3.57793 27.0962 5.29815 28.2155 6.82633 27.5378L11.3068 25.5495C11.3811 25.5166 11.459 25.4939 11.5385 25.4818C11.6053 25.4716 11.6732 25.4689 11.7408 25.4739C11.8216 25.4798 11.9021 25.4967 11.98 25.5248L14.6961 26.5157C15.215 26.7045 15.7884 26.4369 15.9774 25.918C16.1663 25.3993 15.8995 24.826 15.381 24.6368L12.6584 23.6446C12.6391 23.6376 12.6197 23.6309 12.6003 23.6243Z" fill="black"/>
</svg>
