<svg width="32" height="32" viewBox="0 0 32 32" fill="none" xmlns="http://www.w3.org/2000/svg">
<path d="M26.0832 16.0208C26.0832 10.4515 21.5691 5.9375 15.9998 5.9375C10.4305 5.9375 5.9165 10.4515 5.9165 16.0208C5.9165 21.589 10.4306 26.1042 15.9998 26.1042C21.5691 26.1042 26.0832 21.589 26.0832 16.0208ZM28.0832 16.0208C28.0832 22.6934 22.6738 28.1042 15.9998 28.1042C9.32588 28.1042 3.9165 22.6934 3.9165 16.0208C3.9165 9.34695 9.32596 3.9375 15.9998 3.9375C22.6737 3.9375 28.0832 9.34695 28.0832 16.0208Z" fill="black"/>
<path d="M15.0063 20.5712V15.2757C15.0066 14.7237 15.4544 14.2759 16.0063 14.2757C16.5585 14.2757 17.0061 14.7236 17.0063 15.2757V20.5712C17.0062 21.1234 16.5586 21.5712 16.0063 21.5712C15.4544 21.571 15.0065 21.1232 15.0063 20.5712ZM14.9998 11.5335V11.4553C14.9998 10.9031 15.4476 10.4553 15.9998 10.4553C16.5521 10.4553 16.9998 10.9031 16.9998 11.4553V11.5335C16.9997 12.0856 16.552 12.5335 15.9998 12.5335C15.4476 12.5335 15 12.0856 14.9998 11.5335Z" fill="black"/>
</svg>
