<svg width="32" height="32" viewBox="0 0 32 32" fill="none" xmlns="http://www.w3.org/2000/svg">
<path d="M20.2317 13.9671L22.8142 11.6054C23.9606 12.7672 24.974 14.2403 25.7895 15.9985C23.5558 20.8142 19.8385 23.4909 15.9679 23.492C14.3536 23.4915 12.7658 23.0261 11.3012 22.1342L13.5835 20.047C14.2858 20.4534 15.1023 20.6859 15.9708 20.686C18.5696 20.686 20.7038 18.6039 20.7039 16.0076C20.7039 15.2747 20.534 14.5828 20.2317 13.9671ZM6.17423 26.8229L9.77315 23.5316C11.6359 24.7918 13.7382 25.4898 15.9601 25.492H15.9744C20.9847 25.4878 25.3869 21.9427 27.8052 16.3982C27.9162 16.1434 27.9163 15.8536 27.8052 15.5987C26.8918 13.5048 25.6955 11.696 24.2903 10.2554L27.393 7.41796C27.8005 7.04526 27.8281 6.41274 27.4555 6.0052C27.0828 5.59767 26.4503 5.56872 26.0427 5.9414L22.7885 8.91781C20.7736 7.37146 18.4437 6.505 15.9653 6.505C10.9562 6.50512 6.55021 10.0515 4.13068 15.5987C4.01954 15.8536 4.01964 16.1434 4.13068 16.3982C5.15952 18.7582 6.54747 20.7553 8.18855 22.2715L4.82527 25.3476C4.41773 25.7204 4.38874 26.3529 4.76146 26.7604C5.13415 27.1679 5.76669 27.1955 6.17423 26.8229ZM15.9653 8.505C17.8224 8.505 19.6443 9.12104 21.2841 10.2938L18.9829 12.3985C18.1625 11.7289 17.1115 11.3279 15.9708 11.3279C13.3711 11.3282 11.2378 13.4101 11.2378 16.0076C11.2378 17.0108 11.5564 17.9372 12.0973 18.6964L9.66986 20.9166C8.29691 19.6863 7.08848 18.0336 6.145 15.9985C8.37924 11.1817 12.0989 8.50512 15.9653 8.505ZM15.9708 13.3279C16.5309 13.3279 17.0489 13.4923 17.48 13.7732L13.5935 17.3279C13.3668 16.9368 13.2378 16.4855 13.2378 16.0076C13.2378 14.5421 14.448 13.3282 15.9708 13.3279ZM18.6385 15.4241C18.6814 15.6122 18.7039 15.8076 18.7039 16.0076C18.7038 17.4719 17.4927 18.686 15.9708 18.686C15.6997 18.6859 15.4384 18.6474 15.1922 18.5758L18.6385 15.4241Z" fill="black"/>
</svg>
