<svg width="32" height="32" viewBox="0 0 32 32" fill="none" xmlns="http://www.w3.org/2000/svg">
<path d="M14.2093 17.8998C13.8188 17.5093 13.1858 17.5093 12.7952 17.8998L6.08431 24.6107L6.09343 19.2943C6.09446 18.7423 5.64803 18.2931 5.09603 18.2917C4.54375 18.2907 4.09447 18.7381 4.09343 19.2904L4.0791 27.0287C4.07868 27.2944 4.18419 27.5491 4.37207 27.737C4.56013 27.925 4.81579 28.0306 5.08171 28.03L12.8187 28.0131C13.3709 28.0119 13.8184 27.5639 13.8174 27.0118C13.8162 26.4595 13.3671 26.0119 12.8148 26.0131L7.49968 26.0235L14.2093 19.3139C14.5998 18.9233 14.5998 18.2903 14.2093 17.8998Z" fill="black"/>
<path d="M19.2167 3.88404C18.6647 3.88545 18.2182 4.33453 18.2193 4.88664C18.2205 5.43885 18.6697 5.88518 19.2219 5.88404L24.5383 5.87232L17.8248 12.5846C17.4346 12.975 17.4347 13.6081 17.8248 13.9986C18.2152 14.3892 18.8483 14.389 19.2388 13.9986L25.9537 7.28638L25.9433 12.6041C25.9422 13.1563 26.3885 13.6055 26.9407 13.6067C27.4929 13.6077 27.9422 13.1603 27.9433 12.608L27.9576 4.86971C27.9579 4.60405 27.8525 4.34924 27.6646 4.16138C27.4766 3.97337 27.2209 3.86786 26.955 3.86841L19.2167 3.88404Z" fill="black"/>
</svg>
