<svg width="32" height="32" viewBox="0 0 32 32" fill="none" xmlns="http://www.w3.org/2000/svg">
<path fill-rule="evenodd" clip-rule="evenodd" d="M10.1575 10.4403C10.1657 10.438 10.1742 10.4356 10.1833 10.4335L10.1575 10.4403Z" fill="black"/>
<path fill-rule="evenodd" clip-rule="evenodd" d="M27.9906 20.8241C27.9906 22.8245 27.3663 24.617 26.1546 25.9179C24.9352 27.2269 23.1966 27.9543 21.1442 27.9543L19.3669 27.9583C19.0843 27.9585 18.8144 27.8394 18.6247 27.6301C18.4349 27.4207 18.3428 27.1405 18.3708 26.8593C18.4482 26.0807 18.2679 25.235 17.984 24.4947C17.6924 23.7343 17.3466 23.2236 17.221 23.0937C16.9557 22.8197 16.8694 22.4187 16.9984 22.0598C17.1274 21.7009 17.4488 21.4459 17.8278 21.4036C18.9591 21.2774 19.9323 21.0143 20.6221 20.4348C21.2632 19.8959 21.8122 18.9508 21.8122 17.1015C21.812 16.3009 21.5039 15.5322 20.9528 14.953C20.689 14.6759 20.6068 14.2724 20.7406 13.914C20.9109 13.4575 20.9564 12.9687 20.8838 12.4947C20.5226 12.6093 19.9698 12.8507 19.2067 13.3619C18.9662 13.523 18.6671 13.5718 18.3877 13.496C16.8256 13.072 15.1776 13.072 13.6156 13.496C13.3362 13.5718 13.0371 13.523 12.7965 13.3619C12.0338 12.8509 11.4806 12.6107 11.1195 12.496C11.0471 12.9701 11.0927 13.4584 11.2627 13.914C11.3963 14.2722 11.3138 14.6746 11.0505 14.9517C10.495 15.536 10.1867 16.3132 10.1911 17.1184C10.1912 18.9488 10.738 19.8905 11.3799 20.4283C12.0728 21.0085 13.0493 21.2767 14.1872 21.4179C14.5637 21.4646 14.8815 21.7202 15.0075 22.078C15.1333 22.4359 15.0464 22.8345 14.7822 23.1067C14.6559 23.2368 14.3087 23.7449 14.0166 24.5012C13.7324 25.2373 13.5513 26.0789 13.6286 26.8567C13.6565 27.1377 13.5642 27.4182 13.3747 27.6275C13.1852 27.8366 12.916 27.9556 12.6338 27.9556H10.8551C8.80791 27.9556 7.07019 27.226 5.84993 25.9179C4.63722 24.6177 4.00879 22.8258 4.00879 20.8241V11.1171C4.00879 9.10873 4.64102 7.3143 5.85514 6.01294C7.07639 4.70406 8.81319 3.97388 10.8551 3.97388H21.1572C23.2042 3.97403 24.9385 4.70385 26.1559 6.01424C27.3658 7.31676 27.9906 9.11153 27.9906 11.1171V20.8241ZM24.6911 7.37622C25.4981 8.24517 25.9906 9.52249 25.9906 11.1171V20.8241C25.9906 22.412 25.4992 23.687 24.6911 24.5546C23.8905 25.4141 22.7039 25.9556 21.1442 25.9556H20.363C20.2962 25.1599 20.0928 24.4085 19.8512 23.7786C19.7635 23.55 19.6677 23.328 19.5674 23.1184C20.3832 22.9047 21.205 22.5572 21.9098 21.9648C23.1111 20.9548 23.8122 19.3832 23.8122 17.1015C23.8121 15.9886 23.4482 14.9135 22.7874 14.0325C23.0238 13.0309 22.9382 11.9735 22.527 11.0168C22.4098 10.7442 22.1748 10.5376 21.8903 10.453L21.8773 10.4478C21.8773 10.4478 21.8804 10.4485 21.8773 10.4478C21.873 10.4469 21.8591 10.4439 21.8591 10.4439L21.8458 10.4403C21.8376 10.438 21.829 10.4356 21.82 10.4335C21.7918 10.4271 21.7594 10.421 21.7236 10.4153C21.652 10.4038 21.5656 10.3947 21.4645 10.3918C21.2615 10.3862 21.003 10.4064 20.6872 10.4765C20.1305 10.6 19.3989 10.8799 18.4697 11.457C16.8448 11.0866 15.1571 11.0865 13.5322 11.457C12.6035 10.8803 11.8726 10.6 11.3161 10.4765C11.0002 10.4064 10.7417 10.3862 10.5387 10.3918C10.4376 10.3947 10.3513 10.4038 10.2796 10.4153C10.2438 10.421 10.2115 10.4271 10.1833 10.4335C10.1742 10.4356 10.1657 10.438 10.1575 10.4403L10.1442 10.4439C10.1413 10.4447 10.129 10.4473 10.126 10.4478L10.1104 10.453C9.86113 10.527 9.65125 10.6942 9.52441 10.9179L9.47624 11.0181C9.06678 11.9737 8.97838 13.0306 9.21452 14.0325C8.54966 14.9197 8.18597 16.0044 8.19108 17.1249L8.19889 17.5416C8.28045 19.5872 8.96909 21.0177 10.0947 21.9609C10.7997 22.5515 11.6219 22.9002 12.4372 23.1184C12.3359 23.3283 12.2393 23.5504 12.1507 23.7799C11.9079 24.4086 11.7048 25.1596 11.6377 25.9556H10.8551C9.30208 25.9556 8.11616 25.4137 7.31348 24.5533C6.50348 23.685 6.00879 22.4107 6.00879 20.8241V11.1171C6.00879 9.52518 6.5056 8.24763 7.31738 7.37752C8.12204 6.51506 9.30879 5.97388 10.8551 5.97388H21.1572C22.7097 5.97403 23.8918 6.51574 24.6911 7.37622Z" fill="black"/>
</svg>
