<svg width="32" height="32" viewBox="0 0 32 32" fill="none" xmlns="http://www.w3.org/2000/svg">
<path d="M16.1383 14.3708C18.5669 11.9418 22.5046 11.9421 24.9339 14.3708C27.1231 16.5588 27.3387 19.9719 25.5837 22.4034L27.762 24.5818C28.1525 24.9723 28.1525 25.6053 27.762 25.9958C27.3715 26.3864 26.7385 26.3864 26.348 25.9958L24.1696 23.8175C21.738 25.5726 18.325 25.357 16.137 23.1677C13.708 20.7381 13.7085 16.7993 16.1383 14.3708ZM23.5199 15.7862C21.8712 14.1376 19.1997 14.1372 17.5524 15.7849C15.9047 17.4322 15.9039 20.105 17.5524 21.7537C19.1996 23.4019 21.8711 23.4024 23.5199 21.7537C25.1685 20.1049 25.168 17.4334 23.5199 15.7862Z" fill="black"/>
<path d="M10.224 23.0362C10.7762 23.0362 11.2238 23.4841 11.224 24.0362C11.224 24.5885 10.7762 25.0362 10.224 25.0362H4.44922C3.89693 25.0362 3.44922 24.5885 3.44922 24.0362C3.44936 23.4841 3.89702 23.0362 4.44922 23.0362H10.224ZM10.224 14.3735C10.7762 14.3735 11.2239 14.8212 11.224 15.3735C11.224 15.9257 10.7762 16.3735 10.224 16.3735H4.44922C3.89693 16.3735 3.44922 15.9257 3.44922 15.3735C3.44928 14.8212 3.89697 14.3735 4.44922 14.3735H10.224ZM27.5508 5.71069C28.1028 5.71095 28.5508 6.15857 28.5508 6.71069C28.5508 7.26282 28.1028 7.71044 27.5508 7.71069H4.44922C3.89693 7.71069 3.44922 7.26298 3.44922 6.71069C3.44922 6.15841 3.89693 5.71069 4.44922 5.71069H27.5508Z" fill="black"/>
</svg>
