<svg width="32" height="32" viewBox="0 0 32 32" fill="none" xmlns="http://www.w3.org/2000/svg">
<path fill-rule="evenodd" clip-rule="evenodd" d="M17.0129 14.6067C17.0127 15.1587 16.565 15.6067 16.0129 15.6067C15.4608 15.6067 15.0132 15.1587 15.0129 14.6067V10.0806C15.0132 9.5286 15.4608 9.08065 16.0129 9.08065C16.565 9.08065 17.0127 9.5286 17.0129 10.0806V14.6067Z" fill="black"/>
<path fill-rule="evenodd" clip-rule="evenodd" d="M17.0129 5.15304V4.802C17.0129 4.24972 16.5652 3.802 16.0129 3.802C15.4607 3.802 15.0129 4.24972 15.0129 4.802V5.1516C12.7596 5.28011 10.5256 5.84881 8.44311 6.8577L5.76212 8.15718L5.57462 8.25744C4.66187 8.79288 4.14596 9.8243 4.27905 10.8876L5.33504 19.3173L5.38842 19.6025C5.72101 20.8948 7.1345 21.605 8.3702 21.1012L8.63191 20.9749C9.68761 20.3783 10.8016 19.9265 11.9457 19.6183L13.8164 23.0901C13.3258 23.6203 13.0259 24.3296 13.0258 25.109C13.0258 26.6491 14.1964 27.9164 15.6964 28.0686L15.9998 28.0843C17.5398 28.0843 18.807 26.9135 18.9594 25.4137L18.975 25.109C18.9748 23.4665 17.6423 22.135 15.9998 22.135C15.8603 22.1351 15.7231 22.1447 15.5888 22.1633L14.0038 19.2215C14.3393 19.1818 14.6759 19.1538 15.0129 19.1375V19.8853C15.0129 20.4376 15.4607 20.8853 16.0129 20.8853C16.5652 20.8853 17.0129 20.4376 17.0129 19.8853V19.1783C19.1994 19.3732 21.3496 20.0614 23.2817 21.2353L23.5473 21.3733C24.8068 21.9305 26.2965 21.2229 26.6371 19.8916L26.6918 19.5973L27.7335 10.8785C27.8685 9.74898 27.2729 8.65709 26.2491 8.16108L23.5577 6.8577C21.4829 5.85251 19.2578 5.2843 17.0129 5.15304ZM9.31421 8.65718C11.1227 7.78095 13.0606 7.28009 15.0169 7.15456C15.0625 7.6647 15.491 8.06502 16.0129 8.06502C16.5343 8.06502 16.9624 7.6656 17.0088 7.15629C18.9562 7.28465 20.8848 7.78496 22.6853 8.65718L25.3767 9.96186C25.6325 10.0858 25.7814 10.358 25.7478 10.6402L24.7061 19.359C24.7 19.4101 24.6844 19.4403 24.6684 19.4619C24.6492 19.4876 24.6175 19.5149 24.5733 19.5361C24.4849 19.5784 24.3992 19.5741 24.3194 19.5257C22.0378 18.1394 19.4881 17.3481 16.9012 17.163C16.7348 16.8419 16.3995 16.6223 16.0129 16.6223C15.6396 16.6223 15.314 16.8272 15.1423 17.1305C14.4231 17.1554 13.7051 17.2271 12.9933 17.346L10.0021 11.7944C9.74009 11.3082 9.13358 11.1264 8.64738 11.3884C8.16118 11.6504 7.9794 12.2569 8.24137 12.7431L10.9744 17.8156C9.82883 18.1597 8.71252 18.6322 7.64754 19.234C7.51057 19.3111 7.33919 19.2246 7.31941 19.0686L6.26342 10.6389C6.22812 10.3557 6.37648 10.0813 6.63322 9.95666L9.31421 8.65718ZM16.5739 24.3219C16.8168 24.499 16.9749 24.7856 16.975 25.109C16.975 25.6472 16.5379 26.0843 15.9998 26.0843C15.4618 26.084 15.0258 25.647 15.0258 25.109L15.0261 25.0837C15.0398 24.5576 15.4704 24.1353 15.9998 24.135C16.2143 24.135 16.4128 24.2044 16.5739 24.3219Z" fill="black"/>
</svg>
