<svg width="32" height="32" viewBox="0 0 32 32" fill="none" xmlns="http://www.w3.org/2000/svg">
<path d="M25.9894 16.0052C25.9894 10.4877 21.5173 6.01562 15.9998 6.01562C10.4823 6.01562 6.01025 10.4877 6.01025 16.0052C6.01025 21.5216 10.4824 25.9948 15.9998 25.9948C21.5173 25.9948 25.9894 21.5216 25.9894 16.0052ZM27.9894 16.0052C27.9894 22.626 22.622 27.9948 15.9998 27.9948C9.37766 27.9948 4.01025 22.626 4.01025 16.0052C4.01025 9.38311 9.37774 4.01562 15.9998 4.01562C22.6219 4.01563 27.9894 9.38311 27.9894 16.0052Z" fill="black"/>
<path d="M13.2769 21.2208C12.9403 21.6586 12.3124 21.741 11.8746 21.4044C11.437 21.0679 11.3548 20.4399 11.691 20.0021C12.7134 18.6719 14.2544 17.8016 16.0009 17.8016C17.7474 17.8016 19.2882 18.6719 20.3108 20.0021C20.6473 20.4399 20.565 21.0679 20.1272 21.4044C19.6893 21.7409 19.0614 21.6587 18.7248 21.2208C18.0342 20.3224 17.0534 19.8016 16.0009 19.8016C14.9484 19.8016 13.9675 20.3224 13.2769 21.2208Z" fill="black"/>
<path d="M11.9996 11.0983C12.6987 11.0983 13.2756 11.6623 13.2756 12.373C13.2756 13.0767 12.7046 13.6477 12.0009 13.6477C11.3411 13.6477 10.7979 13.1458 10.7326 12.5032L10.7261 12.373C10.7248 11.6652 11.3002 11.0983 11.9996 11.0983Z" fill="black"/>
<path d="M19.9364 11.0983C20.6356 11.0983 21.2125 11.6623 21.2125 12.373C21.2125 13.0767 20.6414 13.6477 19.9377 13.6477C19.278 13.6477 18.7348 13.1458 18.6695 12.5032L18.663 12.373C18.6617 11.6652 19.237 11.0983 19.9364 11.0983Z" fill="black"/>
</svg>
