<svg width="32" height="32" viewBox="0 0 32 32" fill="none" xmlns="http://www.w3.org/2000/svg">
<path d="M23.8717 15.5841C23.8717 16.1307 23.4184 16.5841 22.8717 16.5841C20.5917 16.5841 19.2317 15.1174 18.1784 13.9574C17.925 13.6641 17.685 13.3974 17.4584 13.1574C16.8984 13.9041 16.445 14.6107 16.1917 15.3174C15.8984 16.1574 15.8984 17.0107 16.5117 17.9974C16.6984 18.2907 16.8984 18.5707 17.0984 18.8907C17.3117 19.1974 17.525 19.5307 17.7117 19.8774C18.0584 20.4907 18.3517 21.1974 18.4317 22.0374V22.4107C18.4717 24.3574 17.485 26.1174 16.725 27.4774C16.4584 27.9574 15.845 28.1307 15.365 27.8641C14.885 27.5974 14.7117 26.9841 14.9784 26.5041C15.7784 25.0641 16.4584 23.7707 16.445 22.4241V22.2241C16.3917 21.7441 16.2317 21.3174 15.965 20.8507C15.8184 20.5707 15.645 20.3041 15.445 20.0107C15.245 19.7174 15.0317 19.3974 14.8184 19.0641C13.845 17.5041 13.8317 16.0107 14.3117 14.6507C14.6584 13.6507 15.285 12.7307 15.9117 11.8907C15.6984 11.7707 15.485 11.6774 15.245 11.6241L15.0184 11.5841C13.485 11.3307 11.7784 12.2774 10.8317 13.6907C10.525 14.1574 9.89837 14.2774 9.44503 13.9707C8.97837 13.6774 8.85837 13.0507 9.16503 12.5841C10.4184 10.7041 12.8184 9.19741 15.3384 9.61074C17.4184 9.94408 18.685 11.5307 19.6717 12.6241C20.7384 13.8107 21.565 14.5841 22.8717 14.5841C23.4184 14.5841 23.8717 15.0241 23.8717 15.5841Z" fill="black"/>
<path d="M12.325 19.7307C12.7784 19.4107 13.3917 19.5041 13.725 19.9574C14.045 20.4107 13.9517 21.0241 13.4984 21.3574C12.6184 21.9974 11.5517 22.3041 10.5917 22.4507L10.1917 22.5041C9.2317 22.6107 8.2717 22.5707 7.3917 22.5307C6.84503 22.5041 6.41837 22.0374 6.44503 21.4774C6.4717 20.9307 6.93837 20.5041 7.49837 20.5307C8.37837 20.5707 9.1917 20.5974 9.97837 20.5174L10.3117 20.4774C11.085 20.3574 11.805 20.1307 12.325 19.7441V19.7307Z" fill="black"/>
<path d="M22.8184 7.41074C22.8184 6.63741 22.1917 6.01074 21.4184 6.01074C20.645 6.01074 20.0184 6.63741 20.0184 7.41074C20.0184 8.18408 20.6584 8.81074 21.4184 8.81074C22.1917 8.81074 22.8184 8.18408 22.8184 7.41074ZM24.8184 7.41074C24.8184 9.29074 23.285 10.8107 21.4184 10.8107C19.5384 10.8107 18.0184 9.29074 18.0184 7.41074C18.0184 5.53074 19.5517 4.01074 21.4184 4.01074C23.285 4.01074 24.8184 5.53074 24.8184 7.41074Z" fill="black"/>
<path d="M22.7917 21.0641C23.3384 21.0641 23.7917 21.5041 23.805 22.0507C23.805 22.5974 23.365 23.0507 22.8184 23.0641H20.605C20.0584 23.0907 19.605 22.6374 19.5917 22.0907C19.5917 21.5441 20.0317 21.0907 20.5784 21.0774H22.7917V21.0641Z" fill="black"/>
<path d="M22.1784 17.9041C22.6984 17.7307 23.2717 18.0107 23.445 18.5441C23.6184 19.0774 23.3384 19.6374 22.805 19.8107L20.7117 20.5041C20.1917 20.6774 19.6184 20.3974 19.445 19.8641C19.2717 19.3307 19.5517 18.7707 20.085 18.5974L22.1784 17.9041Z" fill="black"/>
<path d="M22.7784 24.3707C23.2984 24.5441 23.5784 25.1174 23.405 25.6374C23.2317 26.1574 22.6584 26.4374 22.1384 26.2641L20.045 25.5574C19.525 25.3841 19.245 24.8107 19.4184 24.2907C19.5917 23.7707 20.165 23.4907 20.685 23.6641L22.7784 24.3707Z" fill="black"/>
</svg>
