<svg width="32" height="32" viewBox="0 0 32 32" fill="none" xmlns="http://www.w3.org/2000/svg">
<path fill-rule="evenodd" clip-rule="evenodd" d="M27.956 4.99065C27.9324 4.88876 27.8933 4.79272 27.8411 4.70523C27.8956 4.79507 27.9334 4.89146 27.956 4.99065ZM27.9815 5.23363L27.9799 5.32426C27.982 5.3035 27.9818 5.28267 27.9816 5.26182C27.9815 5.25245 27.9814 5.243 27.9815 5.23363Z" fill="black"/>
<path d="M27.956 4.99065C27.9324 4.88876 27.8933 4.79272 27.8411 4.70523C27.6696 4.41741 27.3575 4.22214 26.9982 4.21598L22.8147 4.14468C22.2626 4.13522 21.807 4.57467 21.7974 5.12671C21.7879 5.67874 22.2275 6.13423 22.7794 6.14397L24.5139 6.17341L19.0965 11.2631L11.699 6.32978C11.3701 6.11039 10.948 6.10748 10.6198 6.30958L10.4859 6.40881L4.42516 11.7081C4.00981 12.0716 3.96757 12.7029 4.33066 13.1186C4.69421 13.5343 5.32667 13.577 5.74242 13.2135L11.2257 8.41679L18.6474 13.3685C19.0344 13.6266 19.5482 13.5834 19.8871 13.2649L25.9412 7.57601L25.9105 9.38317C25.9011 9.93527 26.3404 10.3909 26.8925 10.4004C27.4447 10.4099 27.9007 9.96936 27.9102 9.41716L27.9799 5.32426L27.9815 5.23363C27.9829 5.15002 27.974 5.06863 27.956 4.99065Z" fill="black"/>
<path fill-rule="evenodd" clip-rule="evenodd" d="M16.2794 23.3606C16.3396 23.9523 16.7871 24.4295 17.3643 24.5353V26.7135L17.3708 26.8502C17.4392 27.5223 18.0074 28.0468 18.6976 28.0468H27.1794C27.9158 28.0468 28.5128 27.4498 28.5128 26.7135V23.9166C28.5128 23.2628 28.0423 22.719 27.4214 22.6051V20.9988C28.0423 20.885 28.5128 20.3412 28.5128 19.6874V16.8905C28.5128 16.1542 27.9158 15.5572 27.1794 15.5572H18.6976C17.9612 15.5572 17.3643 16.1542 17.3643 16.8905V19.1156C16.7434 19.2294 16.2729 19.7732 16.2729 20.427V23.2239L16.2794 23.3606ZM19.3643 19.0207H26.5128V17.5572H19.3643V19.0207ZM18.2729 22.5572H25.4214V21.0937H18.2729V22.5572ZM19.3643 26.0468H26.5128V24.5832H19.3643V26.0468Z" fill="black"/>
<path fill-rule="evenodd" clip-rule="evenodd" d="M3.49382 23.3606C3.55407 23.9523 4.00156 24.4295 4.57869 24.5353V26.7135L4.58521 26.8502C4.65365 27.5223 5.2218 28.0468 5.91204 28.0468H14.3939C15.1303 28.0468 15.7272 27.4498 15.7272 26.7135V23.9166C15.7272 23.2628 15.2567 22.719 14.6358 22.6051V20.427C14.6358 19.6906 14.0389 19.0937 13.3025 19.0937H4.82065C4.08426 19.0937 3.4873 19.6906 3.4873 20.427V23.2239L3.49382 23.3606ZM5.48732 22.5572H12.6358V21.0937H5.48732V22.5572ZM6.57871 26.0468H13.7272V24.5832H6.57871V26.0468Z" fill="black"/>
</svg>
