<svg width="32" height="32" viewBox="0 0 32 32" fill="none" xmlns="http://www.w3.org/2000/svg">
<path d="M7.80339 22.1601C7.80339 21.6665 7.40388 21.2658 6.91016 21.2655C6.41621 21.2655 6.01562 21.6663 6.01562 22.1601V25.1887C6.01562 25.6826 6.41626 26.0833 6.91016 26.0833C7.40384 26.083 7.80339 25.6825 7.80339 25.1887V22.1601ZM9.80339 25.1887C9.80339 26.787 8.50842 28.083 6.91016 28.0833C5.31168 28.0833 4.01562 26.7872 4.01562 25.1887V22.1601C4.01562 20.5617 5.31172 19.2655 6.91016 19.2655C8.50837 19.2658 9.80339 20.5618 9.80339 22.1601V25.1887Z" fill="black"/>
<path d="M16.8928 17.6134C16.8928 17.1197 16.4932 16.7191 15.9995 16.7189C15.5056 16.7189 15.105 17.1195 15.105 17.6134V25.1876C15.105 25.6816 15.5056 26.0822 15.9995 26.0822C16.4932 26.0819 16.8928 25.6814 16.8928 25.1876V17.6134ZM18.8928 25.1876C18.8928 26.786 17.5978 28.0819 15.9995 28.0822C14.4011 28.0822 13.105 26.7861 13.105 25.1876V17.6134C13.105 16.0149 14.4011 14.7189 15.9995 14.7189C17.5978 14.7191 18.8928 16.0151 18.8928 17.6134V25.1876Z" fill="black"/>
<path d="M25.9835 7.00903C25.9835 6.51529 25.584 6.11475 25.0903 6.1145C24.5963 6.1145 24.1957 6.51513 24.1957 7.00903V25.1887C24.1957 25.6826 24.5964 26.0833 25.0903 26.0833C25.584 26.083 25.9835 25.6825 25.9835 25.1887V7.00903ZM27.9835 25.1887C27.9835 26.7871 26.6885 28.083 25.0903 28.0833C23.4918 28.0833 22.1957 26.7872 22.1957 25.1887V7.00903C22.1957 5.41056 23.4918 4.1145 25.0903 4.1145C26.6885 4.11475 27.9835 5.41071 27.9835 7.00903V25.1887Z" fill="black"/>
<path d="M15.8633 10.4179C15.8633 10.9702 15.4155 11.4179 14.8633 11.4179C14.3112 11.4176 13.8633 10.97 13.8633 10.4179V7.52856L5.72263 15.6692C5.33211 16.0597 4.6991 16.0597 4.30857 15.6692C3.91821 15.2787 3.9181 14.6456 4.30857 14.2551L12.4492 6.1145H9.56118C9.00904 6.11433 8.56118 5.66668 8.56118 5.1145C8.56118 4.56232 9.00904 4.11468 9.56118 4.1145H14.8633C15.4155 4.1145 15.8632 4.56223 15.8633 5.1145V10.4179Z" fill="black"/>
</svg>
