<?xml version="1.0" encoding="UTF-8"?>
<svg id="Capa_1" xmlns="http://www.w3.org/2000/svg" version="1.1" viewBox="0 0 32 32">
  <!-- Generator: Adobe Illustrator 30.0.0, SVG Export Plug-In . SVG Version: 2.1.1 Build 123)  -->
  <defs>
    <style>
      .st0 {
        fill-rule: evenodd;
      }
    </style>
  </defs>
  <path class="st0" d="M24.85,4.8h-2.17c-.73,0-1.45.24-2.04.68l-.9.67c-.39-.6-.9-1.13-1.56-1.51-1.46-.86-2.99-.82-4.42.03-.65.38-1.15.9-1.51,1.48l-.89-.67c-.59-.44-1.3-.68-2.04-.68h-2.17c-.55,0-1,.45-1,1s.45,1,1,1h2.17c.3,0,.6.1.84.28l1.35,1.01c-.04.24-.07.47-.09.71-.06.78.27,1.38.72,1.82-1.73,1.01-2.88,2.88-2.89,5.03v5.75c0,1.82,1.43,3.31,3.23,3.4.16,1.79,1.66,3.2,3.5,3.2,1.83,0,3.34-1.4,3.49-3.2,1.8-.09,3.23-1.58,3.23-3.4v-5.75c0-2.14-1.16-4.01-2.88-5.02.44-.43.75-1,.73-1.75,0-.26-.04-.52-.09-.78l1.34-1c.24-.18.54-.28.84-.28h2.17c.55,0,1-.45,1-1s-.45-1-1-1ZM13.57,8.08c.02-.07.04-.13.06-.2.22-.65.61-1.18,1.15-1.5l.31-.16c.71-.32,1.37-.28,2.08.14.54.32.95.85,1.19,1.49.04.1.07.19.09.29.07.26.11.53.12.8v.07c-.03.09-.14.25-.53.44-.47.22-1.15.36-1.9.37-.06,0-.12,0-.18,0-.03,0-.07,0-.1,0-.78-.02-1.48-.16-1.95-.39-.51-.25-.5-.44-.49-.49.02-.3.07-.59.15-.86ZM17.51,24.48c0,.83-.67,1.51-1.51,1.51-.83,0-1.51-.68-1.51-1.51v-4.7c0-.83.68-1.51,1.51-1.51.83,0,1.51.68,1.51,1.51v4.7ZM20.73,15.64v5.75c0,.71-.53,1.3-1.22,1.4v-3c0-1.94-1.57-3.51-3.51-3.51-1.94,0-3.51,1.57-3.51,3.51v3c-.69-.09-1.22-.68-1.22-1.4v-5.75c0-2.11,1.71-3.82,3.82-3.82h.77s.07,0,.11,0c.07,0,.14,0,.21,0h.74c2.11,0,3.82,1.71,3.82,3.82Z"/>
</svg>