<?xml version="1.0" encoding="UTF-8"?>
<svg id="Capa_1" xmlns="http://www.w3.org/2000/svg" version="1.1" viewBox="0 0 32 32">
  <!-- Generator: Adobe Illustrator 30.0.0, SVG Export Plug-In . SVG Version: 2.1.1 Build 123)  -->
  <defs>
    <style>
      .st0 {
        fill-rule: evenodd;
      }
    </style>
  </defs>
  <path class="st0" d="M12.33,15.63h-6.86c-1.5,0-2.72,1.22-2.72,2.72v4.29c0,1.5,1.22,2.72,2.72,2.72h6.86c1.5,0,2.72-1.22,2.72-2.72v-4.29c0-1.5-1.22-2.72-2.72-2.72ZM13.05,22.64c0,.4-.32.72-.72.72h-6.86c-.4,0-.72-.32-.72-.72v-4.29c0-.4.32-.72.72-.72h6.86c.4,0,.72.32.72.72v4.29Z"/>
  <path class="st0" d="M26.7,15.63h-6.86c-1.5,0-2.72,1.22-2.72,2.72v4.29c0,1.5,1.22,2.72,2.72,2.72h6.86c1.5,0,2.72-1.22,2.72-2.72v-4.29c0-1.5-1.22-2.72-2.72-2.72ZM27.42,22.64c0,.4-.32.72-.72.72h-6.86c-.4,0-.72-.32-.72-.72v-4.29c0-.4.32-.72.72-.72h6.86c.4,0,.72.32.72.72v4.29Z"/>
  <path class="st0" d="M12.83,26.01c-1.13-.39-2.55-.57-3.93-.57s-2.8.18-3.93.57c-.52.18-.8.75-.62,1.27.18.52.75.8,1.27.62.86-.3,2.04-.46,3.28-.46s2.42.16,3.28.46c.52.18,1.09-.1,1.27-.62.18-.52-.1-1.09-.62-1.27Z"/>
  <path class="st0" d="M27.2,26.01c-1.13-.39-2.55-.57-3.93-.57s-2.8.18-3.93.57c-.52.18-.8.75-.62,1.27.18.52.75.8,1.27.62.86-.3,2.04-.46,3.28-.46s2.42.16,3.28.46c.52.18,1.09-.1,1.27-.62.18-.52-.1-1.09-.62-1.27Z"/>
  <path class="st0" d="M5.12,13.2c.55,0,1-.45,1-1v-3.39c0-.58.47-1.04,1.04-1.04.55,0,1-.45,1-1s-.45-1-1-1c-1.68,0-3.04,1.36-3.04,3.04v3.39c0,.55.45,1,1,1Z"/>
  <path class="st0" d="M24.83,7.77c.58,0,1.04.47,1.04,1.04v3.39c0,.55.45,1,1,1s1-.45,1-1v-3.39c0-1.68-1.36-3.04-3.04-3.04-.55,0-1,.45-1,1s.45,1,1,1Z"/>
  <path class="st0" d="M20.34,13.24c.33-.3.64-.75.64-1.34v-2.65s0-.04,0-.06c0-.01,0-.03,0-.04v-2.67c0-.59-.31-1.04-.64-1.34-.32-.3-.74-.52-1.17-.69-.86-.34-1.98-.52-3.17-.52-1.19,0-2.31.19-3.17.52-.43.17-.84.39-1.17.69-.33.3-.63.75-.63,1.34v5.42c0,.59.31,1.04.63,1.34.32.3.74.52,1.17.69.86.34,1.98.52,3.17.52s2.31-.19,3.17-.52c.43-.17.84-.39,1.17-.69ZM13.55,6.32c.58-.22,1.44-.39,2.45-.39,1.01,0,1.87.16,2.45.39.15.06.26.11.35.16-.09.05-.2.11-.35.16-.58.22-1.44.39-2.45.39-1.01,0-1.87-.16-2.45-.39-.15-.06-.26-.11-.35-.16.09-.05.2-.11.35-.16ZM18.97,11.77c-.08.07-.25.18-.53.29-.58.22-1.44.39-2.45.39s-1.87-.16-2.45-.39c-.28-.11-.45-.22-.53-.29v-.48c.83.29,1.88.45,2.98.45,1.1,0,2.14-.16,2.97-.45v.48ZM18.91,9.12c-.09.07-.24.15-.46.24-.58.22-1.44.39-2.45.39-1.01,0-1.87-.16-2.45-.39-.22-.09-.37-.17-.46-.24l-.07-.05v-.48c.83.29,1.88.45,2.98.45,1.1,0,2.14-.16,2.98-.45v.48s-.07.06-.07.06Z"/>
</svg>