<svg width="32" height="32" viewBox="0 0 32 32" fill="none" xmlns="http://www.w3.org/2000/svg">
<path fill-rule="evenodd" clip-rule="evenodd" d="M11.0203 6.3581L11.021 6.39673L11.0203 6.43536C11.0208 6.42254 11.021 6.40966 11.021 6.39673C11.021 6.38379 11.0208 6.37091 11.0203 6.3581Z" fill="black"/>
<path d="M21.4546 19.7574C21.8452 19.367 22.4782 19.3669 22.8687 19.7574C23.2589 20.1479 23.259 20.781 22.8687 21.1715L20.7306 23.3082C20.3401 23.6985 19.707 23.6985 19.3166 23.3082L18.2189 22.2105C17.8284 21.82 17.8284 21.187 18.2189 20.7965C18.6094 20.406 19.2425 20.406 19.633 20.7965L20.0236 21.1871L21.4546 19.7574Z" fill="black"/>
<path d="M11.8477 19.9019C12.3999 19.9019 12.8477 20.3497 12.8477 20.9019C12.8477 21.4542 12.3999 21.9019 11.8477 21.9019H9.56771C9.01542 21.9019 8.56771 21.4542 8.56771 20.9019C8.56771 20.3497 9.01542 19.9019 9.56771 19.9019H11.8477Z" fill="black"/>
<path d="M11.8477 16.2821C12.3999 16.2821 12.8477 16.7299 12.8477 17.2821C12.8477 17.8344 12.3999 18.2821 11.8477 18.2821H9.56771C9.01542 18.2821 8.56771 17.8344 8.56771 17.2821C8.56771 16.7299 9.01542 16.2821 9.56771 16.2821H11.8477Z" fill="black"/>
<path d="M15.6133 12.4905C16.1654 12.4907 16.6133 12.9383 16.6133 13.4905C16.6133 14.0427 16.1654 14.4903 15.6133 14.4905H9.56771C9.01542 14.4905 8.56771 14.0428 8.56771 13.4905C8.56771 12.9382 9.01542 12.4905 9.56771 12.4905H15.6133Z" fill="black"/>
<path fill-rule="evenodd" clip-rule="evenodd" d="M11.0203 6.3581L11.021 6.39673L11.0203 6.43536C11.0208 6.42254 11.021 6.40966 11.021 6.39673C11.021 6.38379 11.0208 6.37091 11.0203 6.3581Z" fill="black"/>
<path d="M17.3588 9.46053C18.5812 9.46053 19.6104 8.63506 19.9207 7.5113C21.4658 7.91182 22.6069 9.31612 22.6069 10.9866V12.6194C22.6069 13.1715 23.0549 13.619 23.6069 13.6194C24.1592 13.6194 24.6069 13.1717 24.6069 12.6194V10.9866C24.6069 8.21441 22.5888 5.91314 19.9416 5.47274C19.6592 4.3082 18.6103 3.4436 17.3588 3.4436H11.6778C10.4264 3.44383 9.37728 4.30854 9.09499 5.4731C6.44872 5.91442 4.43118 8.21516 4.43115 10.9866V21.8642C4.43141 24.9508 6.93426 27.454 10.021 27.454H12.9546C13.5065 27.4537 13.9544 27.006 13.9546 26.454C13.9546 25.9019 13.5066 25.4543 12.9546 25.454H10.021C8.03886 25.454 6.43141 23.8463 6.43115 21.8642V10.9866C6.43118 9.31683 7.57176 7.91299 9.11614 7.5118C9.42666 8.63515 10.4558 9.46031 11.6778 9.46053H17.3588ZM11.0203 6.43536L11.021 6.39673L11.0203 6.3581V6.10116C11.0205 5.73798 11.3146 5.44386 11.6778 5.4436H17.3588C17.7223 5.4436 18.0161 5.73783 18.0164 6.10116V6.80168C18.0164 7.16523 17.7224 7.46053 17.3588 7.46053H11.6778C11.3145 7.46027 11.0203 7.16507 11.0203 6.80168V6.43536Z" fill="black"/>
<path d="M24.5693 21.5308C24.5691 19.308 22.7662 17.5061 20.5433 17.5061C18.3206 17.5063 16.5188 19.3081 16.5186 21.5308C16.5186 23.7537 18.3205 25.5567 20.5433 25.5569C22.7663 25.5569 24.5693 23.7539 24.5693 21.5308ZM26.5615 21.8407C26.4004 25.0245 23.7671 27.5569 20.5433 27.5569L20.2334 27.5491C17.05 27.3876 14.5186 24.7544 14.5186 21.5308C14.5188 18.2036 17.216 15.5063 20.5433 15.5061C23.8708 15.5061 26.5691 18.2034 26.5693 21.5308L26.5615 21.8407Z" fill="black"/>
</svg>
