<svg width="32" height="32" viewBox="0 0 32 32" fill="none" xmlns="http://www.w3.org/2000/svg">
<path d="M14.7271 20.6939C14.7271 20.1416 15.1748 19.6848 15.7271 19.6848C16.2793 19.6848 16.7271 20.1325 16.7271 20.6848C16.727 21.2371 16.2793 21.6939 15.7271 21.6939C15.1748 21.6939 14.7271 21.2462 14.7271 20.6939Z" fill="black"/>
<path d="M17.6704 13.9765C17.6704 13.0489 16.9211 12.3046 15.9985 12.3046C15.0693 12.3046 14.328 13.0461 14.328 13.9765C14.3279 14.5287 13.8802 14.9765 13.328 14.9765C12.7757 14.9765 12.328 14.5287 12.328 13.9765C12.328 11.9427 13.9635 10.3046 15.9985 10.3046C18.0211 10.3046 19.6704 11.9398 19.6704 13.9765C19.6704 15.4234 18.8348 16.4417 17.7746 17.026C17.3819 17.2496 17.1242 17.3818 16.9204 17.565C16.7624 17.7072 16.7233 17.8054 16.7251 17.94C16.7321 18.4921 16.2902 18.9458 15.7381 18.953C15.186 18.9602 14.7324 18.5182 14.7251 17.9661C14.7138 17.1053 15.1217 16.4935 15.5819 16.0793C15.9938 15.7086 16.5224 15.4376 16.7967 15.2812L16.8097 15.2734C17.3901 14.9535 17.6704 14.5299 17.6704 13.9765Z" fill="black"/>
<path d="M25.9559 15.9999C25.9559 10.5015 21.4986 6.04419 16.0002 6.04419C10.5018 6.04419 6.04443 10.5015 6.04443 15.9999C6.04443 18.3779 6.87685 20.5586 8.26709 22.2708C8.72254 22.8316 8.78019 23.6623 8.31266 24.2825L7.05094 25.9556H16.0002C21.4986 25.9556 25.9559 21.4984 25.9559 15.9999ZM27.9559 15.9999C27.9559 22.6029 22.6032 27.9556 16.0002 27.9556H6.99886C5.37021 27.9556 4.44215 26.0948 5.42204 24.7942L6.54053 23.3085C4.97714 21.2876 4.04443 18.752 4.04443 15.9999C4.04443 9.39696 9.3972 4.04419 16.0002 4.04419C22.6032 4.04419 27.9559 9.39696 27.9559 15.9999Z" fill="black"/>
</svg>
