<svg width="32" height="32" viewBox="0 0 32 32" fill="none" xmlns="http://www.w3.org/2000/svg">
<path d="M18.2666 21.2799V18.6145C18.2666 18.0623 18.7143 17.6145 19.2666 17.6145C19.8189 17.6145 20.2666 18.0623 20.2666 18.6145V21.2799C20.2665 21.8321 19.8188 22.2799 19.2666 22.2799C18.7143 22.2799 18.2666 21.8321 18.2666 21.2799Z" fill="black"/>
<path fill-rule="evenodd" clip-rule="evenodd" d="M13.6284 9.86715V11.9227C11.067 12.4148 9.13116 14.6675 9.13116 17.3737V22.5208C9.13145 25.5871 11.6172 28.0703 14.6819 28.0703H23.8512C26.9159 28.0702 29.4017 25.587 29.402 22.5208V17.3737C29.402 14.3072 26.9161 11.823 23.8512 11.8229H15.6284V9.86715C15.6282 6.3004 12.734 3.40907 9.16748 3.40752C5.71292 3.3946 2.88155 6.09428 2.69352 9.50647L2.68311 9.83981V12.444C2.68311 12.9963 3.13082 13.444 3.68311 13.444C4.23539 13.444 4.68311 12.9963 4.68311 12.444V9.84762C4.6941 7.38332 6.70457 5.39579 9.16748 5.40621C11.6306 5.40636 13.6282 7.40407 13.6284 9.86715ZM27.402 17.3737C27.402 15.4121 25.8119 13.823 23.8512 13.8229H14.6819C12.7212 13.8229 11.1312 15.4121 11.1312 17.3737V22.5208C11.1314 24.4822 12.7214 26.0703 14.6819 26.0703H23.8512C25.8117 26.0702 27.4017 24.4821 27.402 22.5208V17.3737ZM18.2666 18.6145V21.2799C18.2666 21.8321 18.7143 22.2799 19.2666 22.2799C19.8188 22.2799 20.2665 21.8321 20.2666 21.2799V18.6145C20.2666 18.0623 19.8189 17.6145 19.2666 17.6145C18.7143 17.6145 18.2666 18.0623 18.2666 18.6145Z" fill="black"/>
</svg>
