<svg width="32" height="32" viewBox="0 0 32 32" fill="none" xmlns="http://www.w3.org/2000/svg">
<path d="M13.5487 15.269C11.6269 14.5091 9.45429 14.7346 7.72966 15.8732L4.41455 18.062C3.95374 18.3662 3.82664 18.9865 4.1307 19.4474C4.43494 19.9082 5.05524 20.0353 5.51612 19.7312L8.83252 17.5424C10.0125 16.7635 11.4982 16.6085 12.813 17.1284L18.8078 19.4995C20.3543 20.111 22.0802 20.0892 23.6112 19.4396L27.425 17.8211C27.9332 17.6053 28.1706 17.0182 27.9549 16.5099C27.7391 16.0018 27.1519 15.7644 26.6437 15.9799L22.8299 17.5984C21.7824 18.0429 20.6016 18.0585 19.5435 17.6401L13.5487 15.269Z" fill="black"/>
<path d="M13.5487 19.0555C11.6269 18.2956 9.45429 18.521 7.72966 19.6596L4.41455 21.8484C3.95374 22.1527 3.82664 22.773 4.1307 23.2338C4.43494 23.6947 5.05524 23.8218 5.51612 23.5177L8.83252 21.3289C10.0125 20.55 11.4982 20.395 12.813 20.9148L18.8078 23.2859C20.3543 23.8974 22.0802 23.8756 23.6112 23.226L27.425 21.6075C27.9332 21.3918 28.1706 20.8047 27.9549 20.2963C27.7391 19.7883 27.1519 19.5509 26.6437 19.7664L22.8299 21.3849C21.7824 21.8293 20.6016 21.8449 19.5435 21.4266L13.5487 19.0555Z" fill="black"/>
<path d="M13.5487 23.2534C11.6269 22.4935 9.45429 22.719 7.72966 23.8575L4.41455 26.0463C3.95374 26.3506 3.82664 26.9709 4.1307 27.4318C4.43494 27.8926 5.05524 28.0197 5.51612 27.7156L8.83252 25.5268C10.0125 24.7479 11.4982 24.5929 12.813 25.1128L18.8078 27.4838C20.3543 28.0953 22.0802 28.0735 23.6112 27.4239L27.425 25.8055C27.9332 25.5897 28.1706 25.0026 27.9549 24.4943C27.7391 23.9862 27.1519 23.7488 26.6437 23.9643L22.8299 25.5828C21.7824 26.0273 20.6016 26.0429 19.5435 25.6245L13.5487 23.2534Z" fill="black"/>
<path d="M12.4215 4.24145C12.0508 3.89012 11.4747 3.87418 11.0856 4.20499L8.82517 6.12817C8.4044 6.48589 8.35286 7.11625 8.71059 7.53702C9.06818 7.95763 9.69867 8.00888 10.1194 7.6516L10.6377 7.21077V12.8105C10.6377 13.3627 11.0854 13.8105 11.6377 13.8105C12.19 13.8105 12.6377 13.3627 12.6377 12.8105V7.20039L13.0752 7.61514C13.476 7.99476 14.1081 7.97794 14.4879 7.57738C14.8679 7.17654 14.851 6.54324 14.4502 6.16332L12.4215 4.24145Z" fill="black"/>
<path d="M21.1865 4.24145C20.8158 3.89012 20.2397 3.87418 19.8506 4.20499L17.5901 6.12817C17.1694 6.48589 17.1178 7.11625 17.4756 7.53702C17.8332 7.95763 18.4636 8.00888 18.8844 7.6516L19.4026 7.21077V12.8105C19.4026 13.3627 19.8504 13.8105 20.4026 13.8105C20.9549 13.8105 21.4026 13.3627 21.4026 12.8105V7.20039L21.8401 7.61514C22.2409 7.99476 22.873 7.97794 23.2529 7.57738C23.6328 7.17654 23.616 6.54324 23.2151 6.16332L21.1865 4.24145Z" fill="black"/>
</svg>
