<svg width="32" height="32" viewBox="0 0 32 32" fill="none" xmlns="http://www.w3.org/2000/svg">
<path d="M23.9351 23.223V22.6761H24.4809C25.0332 22.6761 25.4809 22.2284 25.4809 21.6761C25.4809 21.1238 25.0332 20.6761 24.4809 20.6761H23.9351V20.0511C23.9351 19.7796 23.8269 19.5334 23.6513 19.3532C23.4697 19.1668 23.2159 19.0511 22.9351 19.0511C22.3828 19.0511 21.9351 19.4988 21.9351 20.0511V20.6761H21.309C20.7568 20.6761 20.309 21.1238 20.309 21.6761C20.309 22.2284 20.7568 22.6761 21.309 22.6761H21.9351V23.223C21.9351 23.7752 22.3828 24.223 22.9351 24.223C23.1388 24.223 23.3283 24.1621 23.4863 24.0575C23.7567 23.8785 23.9351 23.5715 23.9351 23.223Z" fill="black"/>
<path fill-rule="evenodd" clip-rule="evenodd" d="M23.9351 23.223V22.6761H24.4809C25.0332 22.6761 25.4809 22.2284 25.4809 21.6761C25.4809 21.1238 25.0332 20.6761 24.4809 20.6761H23.9351V20.0511C23.9351 19.7796 23.8269 19.5334 23.6513 19.3532C23.4697 19.1668 23.2159 19.0511 22.9351 19.0511C22.3828 19.0511 21.9351 19.4988 21.9351 20.0511V20.6761H21.309C20.7568 20.6761 20.309 21.1238 20.309 21.6761C20.309 22.2284 20.7568 22.6761 21.309 22.6761H21.9351V23.223C21.9351 23.7752 22.3828 24.223 22.9351 24.223C23.1388 24.223 23.3283 24.1621 23.4863 24.0575C23.7567 23.8785 23.9351 23.5715 23.9351 23.223Z" fill="black"/>
<path fill-rule="evenodd" clip-rule="evenodd" d="M20.9387 28.0274C21.3013 28.0273 21.6548 27.9883 21.9951 27.9141C22.2011 27.9451 22.4103 27.9662 22.6222 27.9769L22.949 27.9848C26.3462 27.9844 29.1205 25.3164 29.2902 21.9613L29.298 21.6358C29.298 19.187 27.9119 17.0614 25.8814 16.0018V13.9802L26.1861 14.2214C26.6191 14.5642 27.2483 14.4904 27.5911 14.0573C27.9336 13.6244 27.8609 12.9965 27.4283 12.6537L23.5185 9.55839V6.98961C23.5185 6.43733 23.0708 5.98961 22.5185 5.98961C21.9662 5.98961 21.5185 6.43733 21.5185 6.98961V7.97506L17.7408 4.98441C16.2653 3.81794 14.1813 3.81811 12.7056 4.98441L3.01684 12.6537C2.58434 12.9965 2.51166 13.6245 2.85408 14.0573C3.19687 14.4904 3.826 14.5642 4.25903 14.2214L4.56502 13.9792V23.0834C4.56517 25.8134 6.7789 28.0274 9.50903 28.0274H20.9387ZM18.3625 26.0274C17.3399 24.96 16.6862 23.5363 16.6065 21.9613L16.5987 21.6358C16.5987 18.1289 19.4422 15.2855 22.949 15.2855L23.2745 15.2933C23.4795 15.3036 23.682 15.3237 23.8814 15.3531V12.3969L16.4999 6.55342C15.7513 5.96159 14.6939 5.96159 13.9452 6.55342L6.56502 12.3959V23.0834C6.56517 24.7089 7.88348 26.0274 9.50903 26.0274H18.3625ZM23.8814 17.3858C23.5811 17.3201 23.2691 17.2855 22.949 17.2855C20.5467 17.2855 18.5987 19.2335 18.5987 21.6358C18.599 23.6816 20.0121 25.3974 21.9154 25.8612C22.2467 25.9419 22.5929 25.9847 22.949 25.9847C23.8536 25.9846 24.6937 25.7083 25.3896 25.2357C26.5412 24.4533 27.2978 23.1329 27.298 21.6358C27.298 20.3637 26.7519 19.2189 25.8814 18.4234C25.3272 17.9169 24.6415 17.552 23.8814 17.3858Z" fill="black"/>
</svg>
