<svg width="32" height="32" viewBox="0 0 32 32" fill="none" xmlns="http://www.w3.org/2000/svg">
<path fill-rule="evenodd" clip-rule="evenodd" d="M21.2688 22.1335C21.2688 22.1055 21.2677 22.0778 21.2654 22.0504C21.2656 22.0781 21.2667 22.1058 21.2688 22.1335Z" fill="black"/>
<path d="M14.0467 14.683C14.5988 14.6832 15.0467 15.1308 15.0467 15.683C15.0467 16.2351 14.5988 16.6827 14.0467 16.683H7.64046C7.08818 16.683 6.64046 16.2352 6.64046 15.683C6.64046 15.1307 7.08818 14.683 7.64046 14.683H14.0467Z" fill="black"/>
<path fill-rule="evenodd" clip-rule="evenodd" d="M17.6577 23.1244C17.6277 23.1244 17.598 23.1231 17.5687 23.1205H17.7467C17.7174 23.1231 17.6877 23.1244 17.6577 23.1244Z" fill="black"/>
<path fill-rule="evenodd" clip-rule="evenodd" d="M17.5687 23.1205H17.7467L19.399 23.1231C19.6059 23.8203 20.0404 24.4257 20.6282 24.8535L20.8547 25.0046C21.3945 25.3347 22.018 25.5097 22.6542 25.5098C23.3813 25.5098 24.0935 25.2815 24.6816 24.8535C25.2509 24.4392 25.6761 23.8584 25.8904 23.1891C26.2797 23.161 26.6635 23.0708 27.0267 22.9199C27.4706 22.7355 27.874 22.4648 28.2129 22.1244C28.5524 21.7833 28.8211 21.3785 29.0033 20.9343C29.1835 20.4947 29.2753 20.0255 29.2754 19.5515L29.3379 15.1348C29.3425 14.4547 29.1399 13.7883 28.7585 13.2246L28.7507 13.2129L25.054 7.91472C24.7503 7.47728 24.3459 7.11851 23.8743 6.87044C23.4602 6.65267 23.0054 6.52618 22.541 6.49674L22.3405 6.49023H6.32357C5.35244 6.49023 4.42144 6.87675 3.73503 7.56315C3.04863 8.24957 2.66211 9.18057 2.66211 10.1517V19.5371C2.66211 20.5083 3.04865 21.4392 3.73503 22.1257C4.39462 22.7852 5.28011 23.1679 6.21002 23.1968C6.42466 23.8437 6.82956 24.411 7.3737 24.8236C7.96193 25.2696 8.68698 25.5102 9.42372 25.5098L9.4375 25.5098C10.1649 25.4947 10.8688 25.2506 11.4505 24.8119C12.017 24.3848 12.4394 23.7948 12.6593 23.1205H17.5687ZM21.2654 22.0504C21.2677 22.0778 21.2688 22.1055 21.2688 22.1335C21.2709 22.162 21.2717 22.1908 21.2714 22.2194C21.2701 22.3329 21.2858 22.4478 21.3183 22.5593C21.398 22.8234 21.5659 23.0621 21.8053 23.2364C22.0462 23.4117 22.3438 23.5097 22.6542 23.5098C22.9652 23.5098 23.2638 23.4114 23.5045 23.2364C23.7411 23.064 23.9069 22.8277 23.9875 22.5671C24.018 22.4442 24.0362 22.3181 24.0383 22.1908C24.0387 22.1717 24.0395 22.1525 24.0409 22.1335C24.054 21.9588 24.0297 21.7831 23.9693 21.6179C23.9089 21.4522 23.8125 21.2979 23.6842 21.1647C23.5563 21.0322 23.3995 20.923 23.2219 20.8483C23.0448 20.7739 22.8502 20.735 22.6542 20.735C22.4585 20.7351 22.2661 20.774 22.0891 20.8483C21.912 20.9228 21.7538 21.0317 21.6256 21.1647C21.4974 21.2978 21.401 21.4522 21.3404 21.6179C21.2893 21.7579 21.2644 21.9043 21.2654 22.0504ZM27.2686 14.683H18.6577V8.49024H22.3353L22.4928 8.50065C22.6503 8.52009 22.803 8.56749 22.9434 8.64128C23.1309 8.73995 23.2939 8.88472 23.4147 9.05925L27.1022 14.3444C27.1732 14.4494 27.2291 14.5635 27.2686 14.683ZM27.3156 16.683L27.2754 19.5228V19.5423C27.2763 19.7599 27.2338 19.9749 27.1517 20.1752C27.0691 20.3767 26.9477 20.5595 26.7949 20.7129C26.6416 20.8669 26.46 20.9891 26.2598 21.0723C26.1522 21.117 26.04 21.1502 25.9251 21.1714C25.9027 21.0907 25.8771 21.0107 25.8482 20.9317C25.7299 20.6077 25.561 20.3061 25.3495 20.0358L25.1243 19.7767L24.873 19.541C24.6102 19.3194 24.3146 19.1382 23.9967 19.0046C23.5719 18.826 23.1146 18.735 22.6542 18.735C22.1942 18.7351 21.7376 18.8261 21.3131 19.0046C20.8883 19.1831 20.5043 19.446 20.1855 19.7767C19.8667 20.1075 19.6192 20.5013 19.4615 20.933C19.4389 20.9949 19.4183 21.0574 19.3997 21.1205H18.6577V16.683H27.3156ZM16.6577 8.49024H6.32357C5.88327 8.49024 5.46071 8.6656 5.14909 8.97722C4.83747 9.28884 4.66211 9.7114 4.66211 10.1517V19.5371C4.66211 19.9774 4.83745 20.3999 5.14909 20.7116C5.4214 20.9838 5.77843 21.1521 6.15793 21.1903C6.31533 20.6406 6.60968 20.1332 7.01953 19.7233C7.65514 19.0878 8.51749 18.7298 9.41667 18.7298C10.316 18.7299 11.1771 19.0881 11.8125 19.7233C12.2061 20.1171 12.4932 20.5979 12.6548 21.1205H16.6577V8.49024ZM10.7552 22.5007C10.7855 22.3718 10.8021 22.2409 10.8047 22.1101C10.802 21.7452 10.6567 21.3957 10.3984 21.1374C10.1375 20.8767 9.78473 20.7299 9.41667 20.7298C9.0482 20.7298 8.69436 20.8767 8.43359 21.1374C8.1729 21.3981 8.02604 21.752 8.02604 22.1205C8.02769 22.2437 8.04651 22.3667 8.08203 22.4851L8.08724 22.5046C8.1681 22.7934 8.34201 23.0478 8.58203 23.2298C8.81798 23.4088 9.10644 23.5061 9.40365 23.5085C9.70884 23.5005 10.0029 23.3988 10.2461 23.2155C10.4858 23.0348 10.6625 22.7849 10.7552 22.5007Z" fill="black"/>
</svg>
