<svg width="32" height="32" viewBox="0 0 32 32" fill="none" xmlns="http://www.w3.org/2000/svg">
<path d="M2.36816 14.996V12.7708C2.36816 12.2185 2.81592 11.7708 3.36816 11.7708C3.9204 11.7708 4.3681 12.2185 4.36816 12.7708V14.996C4.36823 15.5483 3.92045 15.9959 3.36816 15.996C2.81605 15.9959 2.36823 15.5482 2.36816 14.996ZM27.6325 14.996L27.6312 12.7708C27.6312 12.2186 28.0791 11.771 28.6312 11.7708C29.1835 11.7707 29.6311 12.2185 29.6312 12.7708L29.6325 14.996C29.6326 15.5481 29.1846 15.9957 28.6325 15.996C28.0802 15.9961 27.6326 15.5483 27.6325 14.996Z" fill="black"/>
<path d="M23.3325 20.7445C23.8848 20.7445 24.3325 21.1922 24.3325 21.7445C24.3325 22.2968 23.8848 22.7445 23.3325 22.7445H22.7206C22.1683 22.7445 21.7206 22.2968 21.7206 21.7445C21.7206 21.1922 22.1683 20.7445 22.7206 20.7445H23.3325Z" fill="black"/>
<path d="M9.27959 20.7445C9.83188 20.7445 10.2796 21.1922 10.2796 21.7445C10.2796 22.2968 9.83188 22.7445 9.27959 22.7445H8.66761C8.11533 22.7445 7.66761 22.2968 7.66761 21.7445C7.66761 21.1922 8.11533 20.7445 8.66761 20.7445H9.27959Z" fill="black"/>
<path d="M19.055 20.7445C19.6073 20.7445 20.055 21.1922 20.055 21.7445C20.055 22.2968 19.6073 22.7445 19.055 22.7445H12.9457C12.3934 22.7445 11.9457 22.2968 11.9457 21.7445C11.9457 21.1922 12.3934 20.7445 12.9457 20.7445H19.055Z" fill="black"/>
<path fill-rule="evenodd" clip-rule="evenodd" d="M26.9497 7.51554V25.7213C26.9497 26.9714 25.9363 27.9843 24.6867 27.9843H22.8846C22.0799 27.9843 21.3358 27.5569 20.9302 26.8619L20.4393 26.0194C20.3921 25.9389 20.305 25.8892 20.2114 25.8892H11.7856C11.692 25.8892 11.6049 25.9399 11.5578 26.0208L11.0669 26.8619C10.6613 27.5569 9.91711 27.9842 9.11246 27.9843H7.31298C6.06321 27.9842 5.05004 26.9711 5.04996 25.7213V7.51554C5.05014 5.56828 6.62874 3.98974 8.576 3.9895H23.4237C25.371 3.9895 26.9495 5.5681 26.9497 7.51554ZM7.04996 16.7829V9.70825H24.9497V16.7829C18.932 17.6065 13.0521 17.6053 7.04996 16.7829ZM7.04996 25.7213V18.8023C13.048 19.6005 18.9371 19.6015 24.9497 18.8021V25.7213L24.9445 25.7747C24.9198 25.8942 24.8139 25.9843 24.6867 25.9843H22.8846C22.7909 25.9843 22.7039 25.9349 22.6567 25.8541L22.1671 25.0129C21.7615 24.3176 21.0163 23.8892 20.2114 23.8892H11.7856C11.0814 23.8892 10.4231 24.2168 9.99788 24.7642L9.82991 25.0129L9.33902 25.8541C9.29188 25.9345 9.20578 25.9842 9.11246 25.9843H7.31298C7.16772 25.9842 7.05004 25.8665 7.04996 25.7213ZM7.04996 7.51554V7.70825H24.9497V7.51554C24.9495 6.67273 24.2665 5.9895 23.4237 5.9895H8.576C7.73331 5.98974 7.05014 6.67285 7.04996 7.51554Z" fill="black"/>
</svg>
