<svg width="32" height="32" viewBox="0 0 32 32" fill="none" xmlns="http://www.w3.org/2000/svg">
<path d="M15.4423 15.3685C15.7627 15.7613 15.7394 16.3409 15.3733 16.707L10.04 22.0404C9.64944 22.4309 9.01643 22.4309 8.6259 22.0404C8.23538 21.6498 8.23538 21.0168 8.6259 20.6263L13.2522 16L8.6259 11.3737C8.23538 10.9832 8.23538 10.3502 8.6259 9.95964C9.01643 9.56912 9.64944 9.56912 10.04 9.95964L15.3733 15.293L15.4423 15.3685ZM23.4423 15.3685C23.7627 15.7613 23.7394 16.3409 23.3733 16.707L18.04 22.0404C17.6494 22.4309 17.0164 22.4309 16.6259 22.0404C16.2354 21.6498 16.2354 21.0168 16.6259 20.6263L21.2522 16L16.6259 11.3737C16.2354 10.9832 16.2354 10.3502 16.6259 9.95964C17.0164 9.56912 17.6494 9.56912 18.04 9.95964L23.3733 15.293L23.4423 15.3685Z" fill="black"/>
</svg>
