<?xml version="1.0" encoding="UTF-8"?>
<svg id="Capa_1" xmlns="http://www.w3.org/2000/svg" version="1.1" viewBox="0 0 32 32">
  <!-- Generator: Adobe Illustrator 30.0.0, SVG Export Plug-In . SVG Version: 2.1.1 Build 123)  -->
  <defs>
    <style>
      .st0 {
        fill-rule: evenodd;
      }
    </style>
  </defs>
  <path class="st0" d="M28.69,15.85c-.33-1.15-1.08-2.14-2.11-2.76-.63-.38-1.36-.53-2.18-.61-.8-.07-1.82-.07-3.08-.07h-.66c.69-2.4.79-4.24.42-5.61-.42-1.58-1.47-2.48-2.71-2.74-.3-.06-.65-.08-.93-.08h-.06c-.31,0-.64,0-1.01.12-.24.08-.49.21-.7.37l-.2.17c-.28.27-.45.61-.61.93l-.04.08c-.57,1.1-1.51,2.85-2.49,4.32-.49.74-.97,1.36-1.4,1.8-.05.05-.09.09-.14.13-.27-.39-.64-.71-1.07-.92-.36-.18-.73-.25-1.1-.27-.34-.03-.75-.03-1.23-.03h-.31c-.47,0-.89,0-1.23.03-.37.03-.74.1-1.1.27-.55.28-1,.73-1.28,1.28-.18.36-.25.73-.27,1.1-.03.34-.03.75-.03,1.23v9.5c0,.47,0,.89.03,1.23.03.37.1.74.27,1.1.28.55.73,1.01,1.28,1.28.36.18.73.24,1.1.27.36.03.79.03,1.28.03h.2c.5,0,.93,0,1.28-.03.37-.03.74-.09,1.1-.27.55-.28,1.01-.73,1.28-1.28.02-.04.04-.08.05-.11l2.09,1.06c.35.18.61.31.89.4.25.09.52.15.78.19.28.04.57.04.95.04h5.89c1.19,0,2.06,0,2.82-.31.7-.28,1.31-.75,1.76-1.35l.18-.27c.38-.62.58-1.39.85-2.39l.69-2.56c.33-1.23.6-2.21.74-3.01.14-.81.19-1.55-.02-2.26ZM9.3,24.04c0,.53,0,.87-.02,1.12-.02.24-.05.33-.07.36-.08.17-.22.3-.39.39-.03.02-.12.05-.36.07-.26.02-.59.02-1.12.02h-.2c-.53,0-.87,0-1.12-.02-.24-.02-.33-.05-.36-.07-.17-.08-.3-.22-.39-.39-.02-.03-.05-.12-.07-.36-.02-.26-.02-.59-.02-1.12v-9.38c0-.53,0-.87.02-1.12.02-.24.05-.33.07-.36.08-.17.22-.3.39-.39.03-.02.12-.05.36-.07.26-.02.59-.02,1.12-.02h.2c.53,0,.87,0,1.12.02.24.02.33.05.36.07.17.08.3.22.39.39.02.03.05.12.07.36.02.26.02.59.02,1.12v9.38ZM26.73,17.76c-.12.7-.36,1.59-.71,2.87l-.63,2.35c-.38,1.42-.52,1.84-.75,2.15-.18.24-.4.43-.66.58l-.27.13c-.35.14-.8.16-2.27.16h-5.61c-.47,0-.62,0-.75-.02-.14-.02-.28-.05-.41-.1-.13-.04-.26-.11-.68-.32l-2.7-1.37v-9.59c0-.21,0-.4,0-.58.06-.03.11-.06.16-.09.32-.2.61-.46.89-.74.55-.56,1.11-1.31,1.63-2.09,1.04-1.56,2.03-3.39,2.6-4.52.11-.21.17-.33.22-.41.02-.04.04-.07.05-.08.03-.03.09-.07.13-.08,0,0,.02,0,.07-.01.07,0,.17,0,.36,0,.26,0,.44.02.54.04.46.1.95.41,1.19,1.3.26.97.22,2.61-.62,5.22-.03.08-.07.2-.09.31-.03.11-.07.34,0,.6.08.32.28.6.56.77.23.14.46.17.57.18.11,0,.23,0,.31,0h1.4c1.32,0,2.25,0,2.95.06.7.06,1.07.18,1.32.33.59.36,1.03.93,1.22,1.59.08.28.09.67-.03,1.36Z"/>
</svg>