<svg width="32" height="32" viewBox="0 0 32 32" fill="none" xmlns="http://www.w3.org/2000/svg">
<path d="M25.3057 10.422L25.5778 10.4076C26.8329 10.2801 27.8308 9.28264 27.958 8.02743L27.9723 7.75529V6.67716C27.9723 5.29652 26.9224 4.16147 25.5778 4.02482L25.3057 4.0105H6.61296L6.34082 4.02482C4.99592 4.16117 3.94629 5.2963 3.94629 6.67716V7.75529L3.96061 8.02743C4.08789 9.28283 5.08542 10.2804 6.34082 10.4076L6.61296 10.422H25.3057ZM25.9723 7.75529C25.9723 8.12326 25.6736 8.4216 25.3057 8.42196H6.61296C6.24477 8.42196 5.94629 8.12348 5.94629 7.75529V6.67716C5.94629 6.30898 6.24477 6.0105 6.61296 6.0105H25.3057C25.6736 6.01085 25.9723 6.30919 25.9723 6.67716V7.75529Z" fill="black"/>
<path d="M25.3057 19.2058L25.5778 19.1915C26.8329 19.0639 27.8308 18.0665 27.958 16.8113L27.9723 16.5391V15.461C27.9723 14.0804 26.9224 12.9453 25.5778 12.8087L25.3057 12.7944H6.61296L6.34082 12.8087C4.99592 12.945 3.94629 14.0802 3.94629 15.461V16.5391L3.96061 16.8113C4.08789 18.0667 5.08542 19.0642 6.34082 19.1915L6.61296 19.2058H25.3057ZM25.9723 16.5391C25.9723 16.9071 25.6736 17.2055 25.3057 17.2058H6.61296C6.24477 17.2058 5.94629 16.9073 5.94629 16.5391V15.461C5.94629 15.0928 6.24477 14.7944 6.61296 14.7944H25.3057C25.6736 14.7947 25.9723 15.093 25.9723 15.461V16.5391Z" fill="black"/>
<path d="M25.3057 27.9376L25.5778 27.9233C26.8329 27.7957 27.8308 26.7983 27.958 25.5431L27.9723 25.2709V24.1928C27.9723 22.8121 26.9224 21.6771 25.5778 21.5404L25.3057 21.5261H6.61296L6.34082 21.5404C4.99592 21.6768 3.94629 22.8119 3.94629 24.1928V25.2709L3.96061 25.5431C4.08789 26.7985 5.08542 27.796 6.34082 27.9233L6.61296 27.9376H25.3057ZM25.9723 25.2709C25.9723 25.6389 25.6736 25.9372 25.3057 25.9376H6.61296C6.24477 25.9376 5.94629 25.6391 5.94629 25.2709V24.1928C5.94629 23.8246 6.24477 23.5261 6.61296 23.5261H25.3057C25.6736 23.5265 25.9723 23.8248 25.9723 24.1928V25.2709Z" fill="black"/>
</svg>
