<svg width="32" height="32" viewBox="0 0 32 32" fill="none" xmlns="http://www.w3.org/2000/svg">
<path d="M4.05225 15.8803C4.05225 9.28164 9.40151 3.93237 16.0002 3.93237C16.5524 3.93237 17.0002 4.38009 17.0002 4.93237C17.0002 5.48466 16.5524 5.93237 16.0002 5.93237C10.5061 5.93237 6.05225 10.3862 6.05225 15.8803C6.05225 21.3744 10.5061 25.8282 16.0002 25.8282C16.5524 25.8282 17.0002 26.2759 17.0002 26.8282C17.0002 27.3805 16.5524 27.8282 16.0002 27.8282C9.40152 27.8282 4.05225 22.479 4.05225 15.8803Z" fill="black"/>
<path d="M22.1356 11.0675C22.5261 10.677 23.1591 10.677 23.5496 11.0675L27.6551 15.1729C28.0456 15.5635 28.0456 16.1965 27.6551 16.587L23.5496 20.6925C23.1591 21.083 22.5261 21.083 22.1356 20.6925C21.7451 20.302 21.7451 19.6689 22.1356 19.2784L24.534 16.88H13.2632C12.7109 16.88 12.2632 16.4323 12.2632 15.88C12.2632 15.3277 12.7109 14.88 13.2632 14.88H24.534L22.1356 12.4815C21.7451 12.091 21.7451 11.458 22.1356 11.0675Z" fill="black"/>
</svg>
