<svg width="32" height="32" viewBox="0 0 32 32" fill="none" xmlns="http://www.w3.org/2000/svg">
<path fill-rule="evenodd" clip-rule="evenodd" d="M25.0795 9.31695C25.0466 9.29908 25.0124 9.28287 24.9769 9.26849C25.0105 9.28586 25.0447 9.30203 25.0795 9.31695ZM21.6933 17.2833C21.7583 17.3074 21.8216 17.3356 21.8829 17.3679C21.8662 17.3624 21.8496 17.3565 21.833 17.3501C21.7841 17.3312 21.7374 17.3088 21.6933 17.2833Z" fill="black"/>
<path fill-rule="evenodd" clip-rule="evenodd" d="M10.1251 14.3053C10.1482 14.3123 10.1713 14.3201 10.1942 14.3289C10.2511 14.3506 10.3048 14.377 10.3551 14.4075C10.2986 14.3876 10.248 14.355 10.1942 14.3289C10.1725 14.3183 10.1464 14.3168 10.1251 14.3053ZM6.86595 22.6609C6.90696 22.6767 6.94608 22.6967 6.98561 22.7159C6.99348 22.7197 7.00253 22.721 7.01033 22.7249L6.98561 22.7159C6.94401 22.6999 6.90409 22.6815 6.86595 22.6609Z" fill="black"/>
<path fill-rule="evenodd" clip-rule="evenodd" d="M19.7045 18.1189C19.7155 18.1027 19.7261 18.0862 19.7362 18.0692C19.7636 18.0234 19.7868 17.9764 19.8061 17.9285C19.7679 17.9896 19.734 18.0532 19.7045 18.1189ZM12.2331 13.7298C12.254 13.695 12.271 13.658 12.2892 13.6217C12.2681 13.657 12.2494 13.6931 12.2331 13.7298Z" fill="black"/>
<path fill-rule="evenodd" clip-rule="evenodd" d="M6.98561 22.7159C6.98994 22.7172 7.00633 22.7229 7.01033 22.7249L6.98561 22.7159ZM6.98561 22.7159C6.9787 22.7125 6.97179 22.7091 6.96489 22.7058C6.93233 22.6898 6.89979 22.6739 6.86595 22.6609C6.90409 22.6815 6.94401 22.6999 6.98561 22.7159Z" fill="black"/>
<path fill-rule="evenodd" clip-rule="evenodd" d="M10.1613 14.3179C10.1488 14.3146 10.1363 14.3113 10.1251 14.3053C10.1414 14.3102 10.1451 14.3121 10.1613 14.3179C10.1572 14.3167 10.1656 14.3191 10.1613 14.3179ZM10.1942 14.3289C10.2125 14.3378 10.2305 14.3474 10.2484 14.3571C10.2832 14.3757 10.3179 14.3943 10.3551 14.4075C10.3048 14.377 10.2511 14.3506 10.1942 14.3289ZM12.2331 13.7298C12.2492 13.703 12.263 13.6749 12.2768 13.6468C12.2809 13.6384 12.285 13.63 12.2892 13.6217C12.2681 13.657 12.2494 13.6931 12.2331 13.7298ZM12.2892 13.6217L12.2966 13.6096C12.2995 13.6055 12.3024 13.6013 12.3045 13.5968C12.3013 13.6019 12.2923 13.6165 12.2892 13.6217Z" fill="black"/>
<path fill-rule="evenodd" clip-rule="evenodd" d="M27.1975 7.35463C26.9157 6.52823 26.0178 6.08786 25.192 6.36907C24.3653 6.65093 23.9248 7.54648 24.206 8.37332C24.3431 8.77601 24.6266 9.08754 24.9769 9.26849C25.0124 9.28287 25.0466 9.29908 25.0795 9.31695C25.4256 9.46548 25.8257 9.49145 26.2107 9.36054C27.0363 9.07939 27.4786 8.18033 27.1975 7.35463ZM25.2028 11.4106C25.7411 11.4868 26.3051 11.4411 26.8554 11.2538C28.7266 10.6166 29.7279 8.58123 29.0907 6.70993C28.4526 4.83712 26.4179 3.83883 24.5473 4.47583C22.6749 5.11377 21.6755 7.14563 22.3128 9.01803C22.5281 9.65048 22.903 10.1837 23.3773 10.5879L21.5875 15.2121C21.0662 15.147 20.5223 15.1961 19.9914 15.3769C19.4545 15.5598 18.9893 15.8577 18.6139 16.2338L14.372 13.7013C14.5127 13.0785 14.4886 12.4104 14.2678 11.762C13.6297 9.88924 11.5952 8.89084 9.72435 9.52792C7.85215 10.1658 6.85257 12.1977 7.48984 14.0701C7.71289 14.7251 8.10704 15.2737 8.60552 15.6827L6.73166 20.581C6.2126 20.5173 5.6715 20.5669 5.14346 20.7467C3.27128 21.3846 2.27164 23.4163 2.90895 25.2889C3.5466 27.1614 5.57894 28.162 7.45157 27.5246C9.32251 26.8875 10.3247 24.8538 9.68689 22.9808C9.46379 22.326 9.06999 21.7781 8.57217 21.3696L10.4452 16.4713C10.9638 16.5349 11.5045 16.4856 12.0325 16.3059C12.5675 16.1237 13.0314 15.8272 13.4062 15.453L17.651 17.9881C17.5123 18.6084 17.5371 19.2734 17.7569 19.9191L17.7657 19.945C18.4086 21.8053 20.4412 22.7925 22.3027 22.1523C24.1735 21.5134 25.1722 19.4827 24.5348 17.611C24.3126 16.959 23.9209 16.4126 23.4255 16.0044L25.2028 11.4106ZM21.6933 17.2833C21.7583 17.3074 21.8216 17.3356 21.8829 17.3679C22.2275 17.5494 22.506 17.858 22.6416 18.2557C22.9232 19.0828 22.4782 19.9812 21.6511 20.2628C20.884 20.5277 20.0506 20.1618 19.7162 19.4403L19.656 19.2916L19.6501 19.2744C19.5162 18.8807 19.5466 18.4707 19.7045 18.1189C19.734 18.0532 19.7679 17.9896 19.8061 17.9285C19.992 17.6304 20.2779 17.3922 20.6361 17.2701C20.9938 17.1483 21.3647 17.1619 21.6933 17.2833ZM10.3551 14.4075C10.2986 14.3876 10.248 14.355 10.1942 14.3289C10.1725 14.3183 10.1464 14.3168 10.1251 14.3053C9.78812 14.1223 9.51642 13.817 9.38308 13.4254C9.10187 12.5986 9.54247 11.703 10.3691 11.4212C11.195 11.1399 12.0928 11.5803 12.3745 12.4067C12.5129 12.8131 12.4761 13.2373 12.3045 13.5968C12.3003 13.6055 12.2935 13.613 12.2892 13.6217C12.271 13.658 12.254 13.695 12.2331 13.7298C12.0475 14.0393 11.7557 14.2873 11.3878 14.4126C11.0389 14.5313 10.6774 14.521 10.3551 14.4075ZM6.86595 22.6609C6.90696 22.6767 6.94608 22.6967 6.98561 22.7159C6.99348 22.7197 7.00253 22.721 7.01033 22.7249C7.36618 22.9045 7.65475 23.2181 7.79365 23.6255C8.07519 24.4522 7.63291 25.3501 6.80686 25.6314C5.97988 25.9126 5.08379 25.4711 4.80219 24.6442C4.52096 23.8173 4.96155 22.9217 5.78817 22.6399C6.15318 22.5156 6.53223 22.5322 6.86595 22.6609Z" fill="black"/>
</svg>
