<svg width="32" height="32" viewBox="0 0 32 32" fill="none" xmlns="http://www.w3.org/2000/svg">
<path fill-rule="evenodd" clip-rule="evenodd" d="M12.5952 9.21232L12.5225 9.21492L12.4499 9.21232C12.4739 9.21405 12.4981 9.21492 12.5225 9.21492C12.547 9.21492 12.5712 9.21405 12.5952 9.21232Z" fill="black"/>
<path fill-rule="evenodd" clip-rule="evenodd" d="M19.5494 9.21232L19.4767 9.21492L19.404 9.21232C19.428 9.21405 19.4523 9.21492 19.4767 9.21492C19.5012 9.21492 19.5254 9.21405 19.5494 9.21232Z" fill="black"/>
<path fill-rule="evenodd" clip-rule="evenodd" d="M19.5494 9.21232L19.4767 9.21492L19.404 9.21232C19.428 9.21405 19.4523 9.21492 19.4767 9.21492C19.5012 9.21492 19.5254 9.21405 19.5494 9.21232ZM12.5952 9.21232L12.5225 9.21492L12.4499 9.21232C12.4739 9.21405 12.4981 9.21492 12.5225 9.21492C12.547 9.21492 12.5712 9.21405 12.5952 9.21232Z" fill="black"/>
<path fill-rule="evenodd" clip-rule="evenodd" d="M8.08545 12.1329C8.08545 16.1656 11.1022 19.4943 14.9997 19.9853V23.6485C15.0106 25.7786 16.7652 27.4703 18.8916 27.4792H20.3421C20.842 27.4796 21.2132 27.8723 21.2132 28.3139C21.2132 28.8661 21.661 29.3138 22.2132 29.3139C22.7655 29.3139 23.2132 28.8662 23.2132 28.3139C23.2132 26.7295 21.9079 25.4796 20.3421 25.4792H18.8994C17.8999 25.4749 17.1092 24.736 17.0101 23.823L16.9997 23.6381V19.9858C21.0453 19.4797 23.9149 15.832 23.9149 11.836V9.74748C23.9149 8.34825 22.7825 7.21232 21.381 7.21232H20.4767V3.68628C20.4767 3.13399 20.029 2.68628 19.4767 2.68628C18.9244 2.68628 18.4767 3.13399 18.4767 3.68628V7.21232H13.5225V3.68628C13.5225 3.13399 13.0748 2.68628 12.5225 2.68628C11.9703 2.68628 11.5225 3.13399 11.5225 3.68628V7.21232H10.6193C9.21966 7.21232 8.08545 8.34766 8.08545 9.74748V12.1329ZM12.5225 9.21492L12.5952 9.21232H19.404L19.4767 9.21492L19.5494 9.21232H21.381C21.6756 9.21232 21.9149 9.45049 21.9149 9.74748V11.836C21.9149 14.9905 19.6097 17.7313 16.5841 18.0196C13.0524 18.3567 10.0854 15.592 10.0854 12.1329V9.74748C10.0854 9.45108 10.3254 9.21232 10.6193 9.21232H12.4499L12.5225 9.21492Z" fill="black"/>
</svg>
