<svg width="32" height="32" viewBox="0 0 32 32" fill="none" xmlns="http://www.w3.org/2000/svg">
<path d="M23.9095 16.7839C23.9095 14.913 23.9307 13.473 23.9499 12.3555C23.9693 11.2296 23.9866 10.4555 23.9825 9.8881C23.9782 9.30519 23.9484 9.04287 23.9122 8.90242C23.8941 8.83271 23.8862 8.81286 23.8106 8.73706L23.6882 8.62899C23.3239 8.33098 22.4081 7.72568 21.1114 7.16024C19.6576 6.52633 17.842 5.99499 15.9799 5.99487C14.1175 5.99487 12.3008 6.52628 10.847 7.16024C9.36585 7.80619 8.38236 8.50379 8.15043 8.73576C8.07406 8.81216 8.0643 8.83286 8.04626 8.90242C8.00993 9.04261 7.98031 9.30487 7.97595 9.8881C7.97172 10.4554 7.99047 11.2295 8.00981 12.3555C8.02899 13.473 8.04887 14.913 8.04887 16.7839C8.04887 20.1977 9.45717 22.4658 11.1426 23.8972C12.8705 25.3646 14.8783 25.9428 15.9799 25.9428C17.0821 25.9426 19.0885 25.3641 20.8158 23.8972C22.5011 22.4658 23.9095 20.1978 23.9095 16.7839ZM25.9095 16.7839C25.9095 20.8258 24.2118 23.638 22.1114 25.422C20.0536 27.1697 17.5957 27.9426 15.9799 27.9428C14.3647 27.9428 11.9064 27.1696 9.84835 25.422C7.74777 23.638 6.04887 20.8258 6.04887 16.7839C6.04887 14.9281 6.02888 13.5001 6.00981 12.3894C5.99088 11.2873 5.97277 10.4724 5.97725 9.87248C5.98163 9.28883 6.00551 8.80475 6.11007 8.40112C6.23293 7.9271 6.45341 7.60473 6.73507 7.323L6.95121 7.12638C7.53536 6.63494 8.65978 5.93211 10.0476 5.3269C11.6622 4.6228 13.7577 3.99487 15.9799 3.99487C18.2018 3.99499 20.2963 4.62288 21.9108 5.3269C23.2995 5.93241 24.4243 6.63526 25.0085 7.12638L25.2247 7.323L25.4239 7.54435C25.61 7.77608 25.7564 8.0459 25.8483 8.40112C25.9527 8.8046 25.9782 9.28875 25.9825 9.87248C25.9869 10.4723 25.9676 11.2873 25.9486 12.3894C25.9295 13.5001 25.9095 14.9281 25.9095 16.7839Z" fill="black"/>
<path d="M14.9795 17.8349V16.5653C14.9795 16.0131 15.4272 15.5653 15.9795 15.5653C16.5318 15.5653 16.9795 16.0131 16.9795 16.5653V17.8349C16.9793 18.387 16.5316 18.8349 15.9795 18.8349C15.4273 18.8349 14.9797 18.387 14.9795 17.8349Z" fill="black"/>
<path fill-rule="evenodd" clip-rule="evenodd" d="M14.9795 17.8349V16.5653C14.9795 16.0131 15.4272 15.5653 15.9795 15.5653C16.5318 15.5653 16.9795 16.0131 16.9795 16.5653V17.8349C16.9793 18.387 16.5316 18.8349 15.9795 18.8349C15.4273 18.8349 14.9797 18.387 14.9795 17.8349Z" fill="black"/>
<path fill-rule="evenodd" clip-rule="evenodd" d="M17.5857 12.8049H14.3734V12.6122C14.3773 11.7279 15.1019 11.0148 15.9854 11.0185C16.8687 11.0188 17.5855 11.7354 17.5857 12.6187V12.8049ZM19.5857 12.6187V13.1421C20.6199 13.6632 21.3298 14.7343 21.3299 15.9716V18.4221C21.3299 20.1717 19.9106 21.5901 18.1619 21.5901H13.796C12.0474 21.59 10.6294 20.1717 10.6294 18.4221V15.9716C10.6294 14.734 11.3391 13.6627 12.3734 13.1417V12.6031L12.3943 12.2346C12.5867 10.4212 14.1233 9.01358 15.9854 9.01977C17.9721 9.02148 19.5855 10.6317 19.5857 12.6187ZM18.1619 14.8049C18.8063 14.8049 19.3298 15.327 19.3299 15.9716V18.4221C19.3299 19.0668 18.8064 19.5901 18.1619 19.5901H13.796C13.1517 19.59 12.6294 19.0667 12.6294 18.4221V15.9716C12.6295 15.3271 13.1517 14.805 13.796 14.8049H18.1619Z" fill="black"/>
</svg>
