<svg width="32" height="32" viewBox="0 0 32 32" fill="none" xmlns="http://www.w3.org/2000/svg">
<path d="M14.7269 20.694C14.7269 20.1417 15.1746 19.6849 15.7269 19.6849C16.2792 19.6849 16.7269 20.1326 16.7269 20.6849C16.7269 21.2372 16.2792 21.694 15.7269 21.694C15.1746 21.694 14.7269 21.2463 14.7269 20.694Z" fill="black"/>
<path d="M17.6702 13.9766C17.6702 13.049 16.9209 12.3047 15.9984 12.3047C15.0691 12.3047 14.3278 13.0462 14.3278 13.9766C14.3278 14.5288 13.8801 14.9766 13.3278 14.9766C12.7755 14.9766 12.3278 14.5288 12.3278 13.9766C12.3278 11.9428 13.9633 10.3047 15.9984 10.3047C18.0209 10.3047 19.6702 11.9399 19.6702 13.9766C19.6702 15.4235 18.8346 16.4418 17.7744 17.026C17.3817 17.2497 17.1241 17.3819 16.9202 17.5651C16.7622 17.7073 16.7232 17.8055 16.7249 17.9401C16.732 18.4922 16.2901 18.9459 15.738 18.9531C15.1858 18.9603 14.7323 18.5183 14.7249 17.9661C14.7137 17.1054 15.1216 16.4936 15.5817 16.0794C15.9936 15.7087 16.5223 15.4376 16.7965 15.2812L16.8096 15.2734C17.3899 14.9535 17.6702 14.53 17.6702 13.9766Z" fill="black"/>
<path d="M25.875 16C25.875 10.5462 21.4538 6.125 16 6.125C10.5462 6.125 6.125 10.5462 6.125 16C6.125 21.4538 10.5462 25.875 16 25.875C21.4538 25.875 25.875 21.4538 25.875 16ZM27.875 16C27.875 22.5584 22.5584 27.875 16 27.875C9.44162 27.875 4.125 22.5584 4.125 16C4.125 9.44162 9.44162 4.125 16 4.125C22.5584 4.125 27.875 9.44162 27.875 16Z" fill="black"/>
</svg>
