<svg width="32" height="32" viewBox="0 0 32 32" fill="none" xmlns="http://www.w3.org/2000/svg">
<path d="M25.9894 16.0052C25.9894 10.4877 21.5173 6.01562 15.9998 6.01562C10.4823 6.01562 6.01025 10.4877 6.01025 16.0052C6.01025 21.5216 10.4824 25.9948 15.9998 25.9948C21.5173 25.9948 25.9894 21.5216 25.9894 16.0052ZM27.9894 16.0052C27.9894 22.626 22.622 27.9948 15.9998 27.9948C9.37766 27.9948 4.01025 22.626 4.01025 16.0052C4.01025 9.38311 9.37774 4.01562 15.9998 4.01562C22.6219 4.01563 27.9894 9.38311 27.9894 16.0052Z" fill="black"/>
<path d="M18.7254 18.1902C19.062 17.7525 19.6899 17.6701 20.1277 18.0066C20.5653 18.3432 20.6475 18.9712 20.3113 19.409C19.2888 20.7391 17.7479 21.6094 16.0014 21.6095C14.2548 21.6095 12.714 20.7392 11.6915 19.409C11.355 18.9711 11.4373 18.3432 11.8751 18.0066C12.313 17.6702 12.9409 17.7524 13.2774 18.1902C13.9681 19.0886 14.9489 19.6095 16.0014 19.6095C17.0539 19.6094 18.0348 19.0886 18.7254 18.1902Z" fill="black"/>
<path d="M11.9996 11.0983C12.6987 11.0983 13.2756 11.6623 13.2756 12.373C13.2756 13.0767 12.7046 13.6477 12.0009 13.6477C11.3411 13.6477 10.7979 13.1458 10.7326 12.5032L10.7261 12.373C10.7248 11.6652 11.3002 11.0983 11.9996 11.0983Z" fill="black"/>
<path d="M19.9364 11.0983C20.6356 11.0983 21.2125 11.6623 21.2125 12.373C21.2125 13.0767 20.6414 13.6477 19.9377 13.6477C19.278 13.6477 18.7348 13.1458 18.6695 12.5032L18.663 12.373C18.6617 11.6652 19.237 11.0983 19.9364 11.0983Z" fill="black"/>
</svg>
