<svg width="32" height="32" viewBox="0 0 32 32" fill="none" xmlns="http://www.w3.org/2000/svg">
<path d="M11.9923 13.994C11.9923 13.4417 12.44 12.981 12.9923 12.981C13.5446 12.981 13.9923 13.4287 13.9923 13.981C13.9923 14.5332 13.5446 14.994 12.9923 14.994C12.44 14.994 11.9923 14.5463 11.9923 13.994ZM18.004 13.994C18.004 13.4417 18.4517 12.981 19.004 12.981C19.5563 12.981 20.004 13.4287 20.004 13.981C20.004 14.5332 19.5563 14.994 19.004 14.994C18.4517 14.994 18.004 14.5462 18.004 13.994Z" fill="black"/>
<path d="M17.1281 17.9224C17.5142 17.5278 18.1473 17.5208 18.5422 17.9067C18.9367 18.2928 18.9437 18.926 18.5578 19.3208C17.3103 20.597 15.0101 20.7822 13.4757 19.3534C13.0717 18.977 13.0489 18.3447 13.425 17.9406C13.8013 17.5366 14.4336 17.5137 14.8377 17.8898C15.5622 18.5646 16.6247 18.4374 17.1281 17.9224Z" fill="black"/>
<path fill-rule="evenodd" clip-rule="evenodd" d="M8.63636 13.8446L8.63607 13.908C8.63636 13.898 8.63672 13.8816 8.63672 13.8716L8.63636 13.8446ZM8.63627 18.9026C8.63657 18.8927 8.63672 18.8828 8.63672 18.8729C8.63672 18.8695 8.63689 18.8763 8.63672 18.8729C8.63659 18.8702 8.63612 18.8573 8.63607 18.8547L8.63627 18.9026ZM8.63607 18.8547V18.8365C8.63619 18.8398 8.63611 18.8513 8.63607 18.8547Z" fill="black"/>
<path d="M16.005 25.5539C18.2564 25.5539 20.3401 26.0484 21.7876 26.8885C22.2653 27.1658 22.4281 27.778 22.1509 28.2557C21.8736 28.7332 21.2613 28.8949 20.7837 28.6177C19.7181 27.9993 18.0048 27.5539 16.005 27.5539C14.0031 27.5539 12.2798 28.0006 11.2134 28.619C10.7357 28.8956 10.1244 28.732 9.84749 28.2544C9.57062 27.7766 9.73306 27.1655 10.2108 26.8885C11.66 26.0483 13.7535 25.5539 16.005 25.5539Z" fill="black"/>
<path fill-rule="evenodd" clip-rule="evenodd" d="M8.63627 18.9026C8.64609 20.0422 9.00394 20.9352 9.56315 21.5356C10.1227 22.1362 10.9578 22.5251 12.0801 22.5252H19.9173C21.0409 22.5252 21.8772 22.1352 22.4368 21.5343C23.0037 20.9255 23.3639 20.0168 23.3639 18.8547V13.9015L23.3635 13.8349C23.35 12.7051 22.9929 11.8193 22.4368 11.2218C21.8772 10.6208 21.0413 10.231 19.9186 10.231H12.0801C10.9623 10.2311 10.1268 10.6201 9.56576 11.2218C9.00669 11.8215 8.64801 12.7111 8.63636 13.8446L8.63607 13.908V18.8365V18.8547L8.63627 18.9026ZM8.09961 22.8976C7.32646 22.0674 6.8562 20.9934 6.69702 19.7942C5.11938 19.4539 3.9375 18.0494 3.9375 16.3716C3.93775 14.692 5.12063 13.2889 6.69885 12.9498C6.86015 11.7551 7.33132 10.6856 8.10221 9.85856C9.06273 8.82827 10.4172 8.25198 11.9935 8.23152V6.44971C11.9935 5.89742 12.4412 5.44971 12.9935 5.44971C13.5458 5.44971 13.9935 5.89742 13.9935 6.44971V8.23096H18.0055V4.24658C18.0055 3.6943 18.4532 3.24658 19.0055 3.24658C19.5577 3.24658 20.0055 3.6943 20.0055 4.24658V8.23151C21.585 8.25184 22.9402 8.82736 23.9004 9.85856C24.6709 10.6861 25.1406 11.7559 25.3014 12.9501C26.879 13.2898 28.0618 14.6925 28.0621 16.3716C28.0621 18.049 26.8802 19.4532 25.303 19.794C25.1438 20.9932 24.6736 22.0674 23.9004 22.8976C22.9223 23.9476 21.5344 24.5252 19.9173 24.5252H12.0801C10.4637 24.5251 9.07733 23.9475 8.09961 22.8976ZM5.9375 16.3716C5.9375 16.9048 6.21626 17.3739 6.63607 17.6403V15.1036C6.21634 15.3694 5.93769 15.8379 5.9375 16.3716ZM26.0621 16.3716C26.0621 16.9043 25.7834 17.3732 25.3639 17.6397V15.1042C25.7834 15.3702 26.0619 15.8383 26.0621 16.3716Z" fill="black"/>
</svg>
