<svg width="32" height="32" viewBox="0 0 32 32" fill="none" xmlns="http://www.w3.org/2000/svg">
<path d="M26.0285 11.1796C26.0284 9.58191 25.5332 8.30049 24.7212 7.4283C23.9166 6.56418 22.7268 6.02088 21.1678 6.02075H10.8319C9.27893 6.02075 8.08868 6.56355 7.28239 7.4283C6.4689 8.30105 5.97129 9.58295 5.97119 11.1796V20.9192C5.9713 22.5171 6.46664 23.7983 7.27848 24.6705C8.08289 25.5346 9.27267 26.078 10.8319 26.078H21.1665C22.7262 26.0779 23.9164 25.5346 24.7212 24.6705C25.5333 23.7983 26.0284 22.5169 26.0285 20.9192V11.1796ZM28.0285 20.9192C28.0284 22.93 27.4001 24.7287 26.1847 26.0338C24.9619 27.3468 23.2202 28.0779 21.1665 28.078H10.8319C8.77848 28.078 7.03742 27.3457 5.81494 26.0325C4.60018 24.7274 3.9713 22.9298 3.97119 20.9192V11.1796C3.9713 9.16764 4.60295 7.36949 5.81885 6.06502C7.04211 4.75265 8.7832 4.02075 10.8319 4.02075H21.1678C23.2208 4.02088 24.9621 4.75206 26.1847 6.06502C27.3999 7.37005 28.0284 9.16876 28.0285 11.1796V20.9192Z" fill="black"/>
<path d="M16.6783 9.15861C17.0103 8.71766 17.6369 8.62917 18.0781 8.96069C18.5193 9.29281 18.6081 9.92047 18.276 10.3617L17.5077 11.3839C17.1756 11.825 16.5479 11.9126 16.1067 11.5805C15.6659 11.2484 15.577 10.6219 15.9088 10.1807L16.6783 9.15861Z" fill="black"/>
<path d="M17.6946 12.1447C19.0307 11.9063 20.3911 12.4017 21.261 13.4415C21.3871 13.5881 21.6588 13.9561 21.5565 14.4689C21.4654 14.9251 21.1209 15.1771 21.05 15.2319C21.0388 15.2406 21.0278 15.2497 21.0162 15.2579C20.5445 15.5913 20.2886 16.1462 20.33 16.7124L20.3664 16.9559L20.3729 16.9871C20.4629 17.4511 20.7547 17.85 21.1698 18.0756C21.1823 18.0824 21.1954 18.0905 21.2076 18.0978C21.2517 18.1242 21.3544 18.1843 21.4393 18.2475C21.529 18.3142 21.7382 18.482 21.8482 18.784C21.9582 19.0866 21.906 19.3508 21.8794 19.4611C21.8544 19.565 21.8133 19.6779 21.7961 19.7267L21.7909 19.741C21.4511 20.6661 20.9434 21.519 20.2948 22.2605C19.5066 23.3306 18.0438 23.6418 16.8899 22.9845C16.4512 22.7824 15.9419 22.7928 15.5123 23.0144C14.4617 23.6103 13.1371 23.3594 12.3755 22.4272C11.6014 21.6031 11.0028 20.6314 10.6164 19.5691C10.2823 18.7137 10.1058 17.8044 10.0943 16.8855L10.0839 16.4962C10.0962 15.6003 10.3576 14.7227 10.8404 13.9611C10.8433 13.9562 10.8453 13.9516 10.8482 13.9467C10.8504 13.9433 10.8525 13.9397 10.8547 13.9363C11.8283 12.3448 13.8029 11.7145 15.5005 12.4012L15.8391 12.5574C15.9947 12.6391 16.1839 12.6444 16.3482 12.5652C16.3542 12.5624 16.3604 12.5589 16.3664 12.5561C16.7898 12.362 17.2369 12.2249 17.6946 12.1447ZM18.0461 14.1121L18.0422 14.1134C17.7504 14.1644 17.4665 14.2515 17.1998 14.3738L17.1985 14.3725C16.4728 14.7158 15.6263 14.7049 14.9107 14.3296C14.0725 13.8924 13.0388 14.1825 12.5526 14.991C12.5475 14.9995 12.5424 15.0087 12.537 15.0171C12.2474 15.4681 12.0912 15.9903 12.0839 16.5236L12.0904 16.7527L12.093 16.8152C12.0961 17.5098 12.228 18.1992 12.4823 18.8478C12.4856 18.8561 12.4884 18.8654 12.4914 18.8738C12.75 19.5892 13.1358 20.2504 13.6281 20.8282L13.8456 21.0704L13.912 21.1499C14.0597 21.3431 14.3306 21.3948 14.5383 21.2697L14.5956 21.2371C15.5196 20.7603 16.604 20.7115 17.563 21.0965L17.7518 21.1798L17.856 21.2358C18.1366 21.4106 18.5066 21.3348 18.6972 21.06C18.7195 21.0278 18.7441 20.9969 18.7701 20.9676C19.1571 20.5296 19.4768 20.0388 19.7219 19.5105C19.0444 18.9821 18.5751 18.2227 18.4094 17.3673C18.1688 16.2612 18.4598 15.1238 19.1607 14.2762C18.8218 14.1053 18.4317 14.0433 18.0461 14.1121Z" fill="black"/>
</svg>
