<svg width="32" height="32" viewBox="0 0 32 32" fill="none" xmlns="http://www.w3.org/2000/svg">
<path fill-rule="evenodd" clip-rule="evenodd" d="M6.66913 27.2032C6.32498 27.0298 6.00007 26.8295 5.6962 26.6021L5.73503 26.6326C5.79764 26.6812 5.88416 26.7444 5.99415 26.8175C6.1628 26.9294 6.38786 27.0644 6.66913 27.2032Z" fill="black"/>
<path fill-rule="evenodd" clip-rule="evenodd" d="M6.94467 27.3318C7.76991 27.6957 8.97198 28.0422 10.5482 28.0453C9.21234 28.0428 7.99603 27.8052 6.94467 27.3318ZM6.74609 27.2406C6.71999 27.2281 6.69434 27.2156 6.66913 27.2032C6.71686 27.2273 6.76523 27.2502 6.81396 27.2726C6.79101 27.2619 6.76838 27.2512 6.74609 27.2406Z" fill="black"/>
<path fill-rule="evenodd" clip-rule="evenodd" d="M6.94467 27.3318C7.77216 27.6967 8.96566 28.0441 10.5482 28.0453C8.97198 28.0422 7.76991 27.6957 6.94467 27.3318Z" fill="black"/>
<path fill-rule="evenodd" clip-rule="evenodd" d="M5.6962 26.6021C6.00007 26.8295 6.32498 27.0298 6.66913 27.2032C6.75566 27.2459 6.84751 27.2889 6.94467 27.3318C7.76991 27.6957 8.97198 28.0422 10.5482 28.0453L23.1022 28.0453C25.1373 28.0452 26.8993 26.6134 27.3314 24.6248L28.9004 16.9073C29.1825 15.4449 28.8586 14.188 27.9616 13.3162C27.3211 12.6937 26.476 12.3544 25.5813 12.2232C25.3052 10.8696 24.7505 9.71795 23.7839 8.87769C22.6349 7.8791 21.064 7.4598 19.1497 7.45972H17.207C16.6914 7.4581 16.2039 7.21487 15.8945 6.80477L14.8451 5.40763C14.161 4.49509 13.0868 3.95581 11.944 3.95581H9.63932C7.37465 3.95581 5.63037 4.6326 4.49089 6.06258C3.38944 7.44498 3.00004 9.35454 3 11.504V20.4923C3 22.7504 3.67035 24.6693 5.02734 26.0235C5.23706 26.2327 5.46029 26.4256 5.6962 26.6021ZM15.8718 12.1586C13.8421 12.1586 12.082 13.5734 11.6465 15.557L9.92644 23.4841C9.78381 24.105 9.33658 24.7457 8.75847 25.0805C8.24138 25.3799 7.59663 25.4569 6.83664 24.9568C6.69547 24.8475 6.56333 24.7311 6.4401 24.6082C5.54666 23.7166 5 22.3576 5 20.4923V11.504C5.00004 9.53525 5.36789 8.17071 6.05469 7.30867C6.70378 6.4941 7.78005 5.95581 9.63932 5.95581H11.944C12.456 5.95581 12.9389 6.19816 13.2461 6.60815L14.2995 8.0092C14.9864 8.9197 16.061 9.45615 17.2005 9.45972H19.1497C20.7984 9.4598 21.8219 9.82243 22.4714 10.3868C22.9293 10.7848 23.2817 11.3533 23.5096 12.1586H15.8718ZM15.8718 14.1586C14.7802 14.1586 13.8348 14.918 13.6009 15.9828L11.8783 23.9203C11.7043 24.6776 11.2981 25.4419 10.7246 26.0453H23.1022C24.1957 26.0452 25.1419 25.283 25.3744 24.2133L26.9382 16.5193C27.1183 15.5737 26.8792 15.0531 26.5671 14.7498C26.212 14.4051 25.5744 14.1586 24.6699 14.1586H15.8718Z" fill="black"/>
</svg>
