<svg width="32" height="32" viewBox="0 0 32 32" fill="none" xmlns="http://www.w3.org/2000/svg">
<path d="M14.7118 8.55469C14.7116 7.14373 13.5668 6 12.1558 6C10.745 6.00027 9.60142 7.14389 9.60115 8.55469C9.60115 9.96571 10.7448 11.1104 12.1558 11.1107C13.567 11.1107 14.7118 9.96587 14.7118 8.55469ZM16.7118 8.55469C16.7118 11.0705 14.6715 13.1107 12.1558 13.1107C9.64024 13.1104 7.60115 11.0703 7.60115 8.55469C7.60142 6.03933 9.64041 4.00027 12.1558 4C14.6714 4 16.7116 6.03915 16.7118 8.55469Z" fill="black"/>
<path d="M21.0691 19.9336C21.4597 19.5432 22.0928 19.5431 22.4832 19.9336C22.8735 20.3241 22.8735 20.9572 22.4832 21.3477L20.0756 23.7539C19.6851 24.1441 19.052 24.1441 18.6616 23.7539L17.4259 22.5182C17.0355 22.1278 17.0356 21.4947 17.4259 21.1042C17.8164 20.7136 18.4494 20.7136 18.84 21.1042L19.3673 21.6315L21.0691 19.9336Z" fill="black"/>
<path fill-rule="evenodd" clip-rule="evenodd" d="M21.0691 19.9336C21.4597 19.5432 22.0928 19.5431 22.4832 19.9336C22.8735 20.3241 22.8735 20.9572 22.4832 21.3477L20.0756 23.7539C19.6851 24.1441 19.052 24.1441 18.6616 23.7539L17.4259 22.5182C17.0355 22.1278 17.0356 21.4947 17.4259 21.1042C17.8164 20.7136 18.4494 20.7136 18.84 21.1042L19.3673 21.6315L21.0691 19.9336Z" fill="black"/>
<path d="M14.1869 27.9115C15.0235 27.8312 15.7523 27.363 16.1832 26.6824C17.2401 27.4894 18.5607 27.9687 19.9932 27.9688C23.4635 27.9688 26.277 25.1554 26.277 21.6849C26.277 18.2144 23.4635 15.401 19.9932 15.401C19.0069 15.401 18.0736 15.6283 17.243 16.0332C16.9869 14.9566 16.0731 14.1219 14.9356 14L14.6479 13.9844H9.62703C8.06497 13.9845 6.83803 15.3212 6.97078 16.8776L7.70385 25.4831C7.81423 26.7768 8.83641 27.7901 10.1049 27.9115L10.3614 27.9232H13.9304L14.1869 27.9115ZM14.6245 24.9523L14.5945 25.3125C14.5654 25.6575 14.2767 25.9229 13.9304 25.9232H13.0896C13.0919 25.8953 13.0931 25.867 13.0931 25.8385V23.125C13.0931 22.5727 12.6454 22.125 12.0931 22.125C11.5408 22.125 11.0931 22.5727 11.0931 23.125L11.0931 25.8385C11.0931 25.867 11.0943 25.8953 11.0966 25.9232H10.3614C10.0154 25.9232 9.72708 25.6584 9.69734 25.3138L8.96297 16.7083C8.92977 16.3193 9.23659 15.9845 9.62703 15.9844H14.6479C15.0377 15.9846 15.3443 16.3185 15.3119 16.707L15.2396 17.5749C14.2861 18.6767 13.7093 20.1135 13.7093 21.6849C13.7093 22.8816 14.0438 24.0003 14.6245 24.9523ZM19.9932 17.401C22.359 17.401 24.277 19.319 24.277 21.6849C24.277 24.0508 22.359 25.9688 19.9932 25.9688C18.6563 25.9687 17.4625 25.3564 16.6769 24.397C16.0722 23.6584 15.7093 22.714 15.7093 21.6849C15.7093 20.3991 16.2758 19.2456 17.1728 18.4604C17.9263 17.8008 18.913 17.401 19.9932 17.401Z" fill="black"/>
</svg>
