<svg width="32" height="32" viewBox="0 0 32 32" fill="none" xmlns="http://www.w3.org/2000/svg">
<path d="M11.193 13.608H10.2217C8.76815 13.6083 7.38965 14.9808 7.38965 16.9348V22.6575C7.38965 24.6101 8.76799 25.9827 10.2217 25.983H21.7972C23.2511 25.983 24.6305 24.6104 24.6305 22.6575V16.9231C24.6305 14.9755 23.2561 13.608 21.8089 13.608H20.8284C20.2762 13.608 19.8284 13.1603 19.8284 12.608C19.8285 12.0557 20.2762 11.608 20.8284 11.608H21.8089C24.5822 11.608 26.6305 14.1064 26.6305 16.9231V22.6575C26.6305 25.4806 24.5763 27.983 21.7972 27.983H10.2217C7.44286 27.9827 5.38965 25.4804 5.38965 22.6575V16.9348C5.38965 14.1109 7.4427 11.6083 10.2217 11.608H11.193C11.7451 11.6083 12.193 12.0559 12.193 12.608C12.193 13.1601 11.7451 13.6077 11.193 13.608Z" fill="black"/>
<path fill-rule="evenodd" clip-rule="evenodd" d="M16.711 4.2742L16.7755 4.33897C16.7623 4.32282 16.7472 4.30858 16.732 4.29433C16.7249 4.28769 16.7179 4.28105 16.711 4.2742ZM16.711 4.2742C16.5233 4.08579 16.2656 3.96998 15.9997 3.96997C16.2782 3.96997 16.5297 4.09043 16.711 4.2742ZM15.9997 3.96997C15.7338 3.96999 15.4789 4.08277 15.2913 4.27117C15.4726 4.08737 15.7211 3.96997 15.9997 3.96997ZM15.2913 4.27117L15.2242 4.33859C15.2373 4.32254 15.2523 4.30837 15.2674 4.29419C15.2744 4.28759 15.2845 4.27798 15.2913 4.27117Z" fill="black"/>
<path d="M12.8212 9.58628L14.9997 7.39892L14.9997 15.9986C14.9997 16.5509 15.4474 16.9986 15.9997 16.9986C16.552 16.9986 16.9997 16.5509 16.9997 15.9986V7.3986L19.1793 9.58628C19.5691 9.97742 20.2021 9.97854 20.5934 9.58888C20.9845 9.19914 20.9856 8.56608 20.596 8.17482L16.7755 4.33897L16.711 4.2742C16.5233 4.08579 16.2656 3.96998 15.9997 3.96997C15.7338 3.96999 15.4789 4.08277 15.2913 4.27117L15.2242 4.33859L11.4046 8.17482C11.015 8.56612 11.0161 9.1992 11.4072 9.58888C11.7985 9.97845 12.4316 9.9774 12.8212 9.58628Z" fill="black"/>
</svg>
