<svg width="32" height="32" viewBox="0 0 32 32" fill="none" xmlns="http://www.w3.org/2000/svg">
<path fill-rule="evenodd" clip-rule="evenodd" d="M22.6914 21.2043L22.7377 21.2508C22.7282 21.2399 22.7178 21.2299 22.7073 21.2199L22.6914 21.2043ZM22.6914 21.2043C22.5037 21.0161 22.2492 20.9074 21.9834 20.9074C22.2608 20.9074 22.5102 21.0219 22.6914 21.2043ZM21.2735 21.2056L21.2353 21.2438C21.2434 21.2347 21.2522 21.2262 21.261 21.2178L21.2735 21.2056ZM21.9834 20.9074C21.7177 20.9075 21.461 21.0173 21.2735 21.2056C21.4546 21.0229 21.7059 20.9074 21.9834 20.9074Z" fill="black"/>
<path d="M13.2184 12.6993C13.2182 12.0999 12.7328 11.6147 12.1338 11.6147C11.5333 11.6148 11.048 12.1003 11.0478 12.6993C11.0478 13.2984 11.5332 13.7838 12.1338 13.7839C12.7329 13.7839 13.2184 13.2989 13.2184 12.6993ZM15.2184 12.6993C15.2184 14.4041 13.8368 15.7839 12.1338 15.7839C10.43 15.7838 9.04783 14.4044 9.04783 12.6993C9.04799 10.9942 10.4302 9.61476 12.1338 9.61466C13.8367 9.61466 15.2182 10.9946 15.2184 12.6993Z" fill="black"/>
<path fill-rule="evenodd" clip-rule="evenodd" d="M27.5279 14.5209C27.5286 14.541 27.5286 14.561 27.528 14.5808L27.5279 14.5209Z" fill="black"/>
<path fill-rule="evenodd" clip-rule="evenodd" d="M27.528 14.5808L27.5279 14.5209C27.5286 14.541 27.5286 14.561 27.528 14.5808Z" fill="black"/>
<path fill-rule="evenodd" clip-rule="evenodd" d="M27.528 14.5808L27.5279 14.5209C27.5286 14.541 27.5286 14.561 27.528 14.5808Z" fill="black"/>
<path fill-rule="evenodd" clip-rule="evenodd" d="M27.5279 14.5209C27.5286 14.541 27.5286 14.561 27.528 14.5808L27.5279 14.5209Z" fill="black"/>
<path fill-rule="evenodd" clip-rule="evenodd" d="M25.5321 16.7514V15.6084C19.404 16.0877 14.3165 19.0857 11.8691 23.1095C11.1149 24.3596 10.6182 25.695 10.412 27.1095C10.396 27.2188 10.3629 27.3214 10.3157 27.415C10.3959 27.4213 10.4767 27.4254 10.5581 27.4272C11.1103 27.4392 11.548 27.8971 11.536 28.4493C11.5238 29.0011 11.067 29.439 10.5152 29.4272C7.10092 29.353 4.39401 26.5243 4.46829 23.1095V8.60034C4.54901 5.24095 7.30064 2.56212 10.661 2.5743L18.4657 2.573C19.5094 2.57313 20.5059 2.99811 21.2287 3.75008L26.4644 9.20451C27.1497 9.91725 27.5321 10.8686 27.5321 11.8569V16.7514C27.5321 17.3037 27.0844 17.7514 26.5321 17.7514C25.9798 17.7514 25.5321 17.3037 25.5321 16.7514ZM10.6571 4.573H18.0022V7.83862L18.0074 8.06388C18.1233 10.379 20.0357 12.2231 22.3798 12.2279H25.5321V13.6019C20.162 13.9875 15.3846 16.1605 12.2214 19.4209C10.6783 17.9257 8.94803 16.8458 6.46829 16.5082V8.64722C6.5232 6.37417 8.38547 4.56317 10.6571 4.573ZM20.0022 5.36076L24.673 10.2279H22.3837C21.0674 10.2252 20.0016 9.15601 20.0022 7.83992V5.36076ZM10.1581 22.073C9.28022 23.5275 8.68621 25.1068 8.4365 26.7957C7.28364 26.0757 6.50986 24.8106 6.46829 23.3686V18.5306C8.32369 18.8411 9.63724 19.6802 10.9195 20.946C10.6478 21.3104 10.3918 21.6888 10.1581 22.073Z" fill="black"/>
<path d="M22.9834 24.3106C23.3731 24.5861 23.9159 24.55 24.2656 24.2017C24.6568 23.812 24.6579 23.1789 24.2682 22.7876L22.7377 21.2508L22.6914 21.2043C22.5037 21.0161 22.2492 20.9074 21.9834 20.9074C21.7177 20.9075 21.461 21.0173 21.2735 21.2056L21.2353 21.2438L19.6979 22.7876C19.3084 23.179 19.3105 23.8121 19.7018 24.2017C20.0514 24.5498 20.5939 24.5862 20.9834 24.311V25.8319C20.9834 26.3842 21.4312 26.8319 21.9834 26.8319C22.5357 26.8319 22.9834 26.3842 22.9834 25.8319V24.3106Z" fill="black"/>
<path d="M25.967 23.8697C25.967 21.6697 24.1839 19.8856 21.9839 19.8854C19.7837 19.8854 17.9995 21.6695 17.9995 23.8697C17.9998 26.0697 19.7838 27.8528 21.9839 27.8528C24.1837 27.8525 25.9667 26.0696 25.967 23.8697ZM27.9592 24.177C27.799 27.3386 25.1853 29.8526 21.9839 29.8528L21.6753 29.845C18.6156 29.6898 16.1624 27.2367 16.0073 24.177L15.9995 23.8697C15.9995 20.5649 18.6791 17.8854 21.9839 17.8854L22.2912 17.8932C25.453 18.0534 27.967 20.6681 27.967 23.8697L27.9592 24.177Z" fill="black"/>
</svg>
