<svg width="32" height="32" viewBox="0 0 32 32" fill="none" xmlns="http://www.w3.org/2000/svg">
<path d="M26.0977 15.9998C26.0975 10.4225 21.5773 5.9021 16 5.9021C10.4228 5.90223 5.90248 10.4226 5.90234 15.9998C5.90234 21.5758 10.4228 26.0973 16 26.0974C21.5773 26.0974 26.0977 21.5759 26.0977 15.9998ZM28.0977 15.9998C28.0977 22.6804 22.682 28.0974 16 28.0974C9.31811 28.0973 3.90234 22.6803 3.90234 15.9998C3.90248 9.31802 9.31827 3.90223 16 3.9021C22.6818 3.9021 28.0975 9.31794 28.0977 15.9998Z" fill="black"/>
<path d="M15.0002 10.5358C15.0002 9.98354 15.448 9.53583 16.0002 9.53583C16.5525 9.53583 17.0002 9.98354 17.0002 10.5358V14.9994H20.9651C21.5172 14.9994 21.9647 15.4474 21.9651 15.9994C21.9651 16.5517 21.5174 16.9994 20.9651 16.9994H16.0002C15.448 16.9994 15.0002 16.5517 15.0002 15.9994V10.5358Z" fill="black"/>
</svg>
