<svg width="32" height="32" viewBox="0 0 32 32" fill="none" xmlns="http://www.w3.org/2000/svg">
<path d="M15.9998 21.927C16.7199 21.927 17.3057 22.5109 17.3057 23.233C17.3055 23.9544 16.7208 24.539 15.9998 24.539C15.3234 24.539 14.767 24.0245 14.7003 23.3658L14.6938 23.233L14.7003 23.0989C14.7673 22.44 15.3245 21.927 15.9998 21.927Z" fill="black"/>
<path fill-rule="evenodd" clip-rule="evenodd" d="M24.7962 9.39836L24.7873 19.4843L24.7975 22.5637L24.791 22.8424C24.646 25.7095 22.2749 27.9895 19.3717 27.9895H12.627C9.725 27.9895 7.35408 25.7096 7.20898 22.8437L7.20247 22.565L7.21436 19.4843L7.20117 9.39966C7.20117 6.40324 9.63008 3.97392 12.6257 3.97388H19.3717C22.3671 3.97388 24.7962 6.40297 24.7962 9.39836ZM22.7971 18.4843L22.7962 9.39836C22.7962 7.50753 21.2626 5.97388 19.3717 5.97388H12.6257C10.735 5.97392 9.20117 7.50746 9.20117 9.39966L9.20207 18.4843H22.7971ZM9.20247 22.565L9.20227 20.4843H22.7973L22.7975 22.5637C22.7975 24.4558 21.2638 25.9895 19.3717 25.9895H12.627C10.7361 25.9895 9.2025 24.4558 9.20247 22.565ZM17.3057 23.233C17.3057 22.5109 16.7199 21.927 15.9998 21.927C15.3245 21.927 14.7673 22.44 14.7003 23.0989L14.6938 23.233L14.7003 23.3658C14.767 24.0245 15.3234 24.539 15.9998 24.539C16.7208 24.539 17.3055 23.9544 17.3057 23.233Z" fill="black"/>
</svg>
