<svg width="32" height="32" viewBox="0 0 32 32" fill="none" xmlns="http://www.w3.org/2000/svg">
<path d="M28.2238 7.92312L24.2733 7.01036C24.015 6.95078 23.7442 6.9963 23.5194 7.13666C23.3506 7.24204 23.2186 7.39418 23.1379 7.57286L23.0741 7.75905L22.1665 11.6874C22.0421 12.2255 22.3772 12.7622 22.9152 12.8867C23.4533 13.011 23.99 12.676 24.1144 12.138L24.507 10.4379C25.8668 12.5165 26.4713 15.0937 26.0148 17.7327C25.0578 23.2639 19.7987 26.9722 14.2674 26.0152C13.7232 25.9211 13.2053 26.2861 13.1112 26.8303C13.0172 27.3744 13.3822 27.8924 13.9263 27.9866C20.546 29.1319 26.8408 24.6934 27.9862 18.0738C28.519 14.9939 27.8427 11.9843 26.3021 9.53189L27.7733 9.87233C28.3114 9.99674 28.8494 9.66043 28.9738 9.12233C29.0978 8.58445 28.7617 8.04747 28.2238 7.92312Z" fill="black"/>
<path d="M4.01413 13.9265C3.48161 17.0049 4.15714 20.0131 5.69624 22.4648L4.22506 22.1248C3.687 22.0005 3.15024 22.3368 3.02584 22.8748C2.90173 23.4128 3.2366 23.9497 3.77454 24.0741L7.72506 24.9868C7.98346 25.0466 8.25531 25.001 8.48027 24.8605C8.70496 24.72 8.86457 24.4963 8.92428 24.2381L9.83313 20.3097C9.95749 19.7717 9.62121 19.2349 9.08313 19.1105C8.5452 18.9864 8.00827 19.3213 7.88391 19.8592L7.49054 21.5586C6.13271 19.4806 5.52931 16.9049 5.98548 14.2677C6.94245 8.73642 12.2017 5.02821 17.7329 5.98513C18.277 6.07927 18.7949 5.71414 18.8891 5.17003C18.9833 4.62583 18.6182 4.10793 18.074 4.01378C11.4544 2.86851 5.15941 7.30685 4.01413 13.9265Z" fill="black"/>
</svg>
