<?xml version="1.0" encoding="UTF-8"?>
<svg id="Capa_1" xmlns="http://www.w3.org/2000/svg" version="1.1" viewBox="0 0 32 32">
  <!-- Generator: Adobe Illustrator 30.0.0, SVG Export Plug-In . SVG Version: 2.1.1 Build 123)  -->
  <defs>
    <style>
      .st0 {
        fill-rule: evenodd;
      }
    </style>
  </defs>
  <path class="st0" d="M5.76,25.66c0-.53.39-.96.88-.96h18.72c.48,0,.88.43.88.96s-.39.96-.88.96H6.64c-.48,0-.88-.43-.88-.96Z"/>
  <path class="st0" d="M5.76,6.34c0-.53.39-.96.88-.96h18.72c.48,0,.88.43.88.96s-.39.96-.88.96H6.64c-.48,0-.88-.43-.88-.96Z"/>
  <path class="st0" d="M5.76,16c0-.53.39-.96.88-.96h18.72c.48,0,.88.43.88.96s-.39.96-.88.96H6.64c-.48,0-.88-.43-.88-.96Z"/>
</svg>