<svg width="32" height="32" viewBox="0 0 32 32" fill="none" xmlns="http://www.w3.org/2000/svg">
<path d="M4.66732 22.6746L4.66602 9.3256C4.6649 6.2948 7.123 3.83878 10.1517 3.83862H13.1595C13.7118 3.83862 14.1595 4.28634 14.1595 4.83862C14.1595 5.39091 13.7118 5.83862 13.1595 5.83862H10.1517C8.22679 5.83878 6.66506 7.40037 6.66602 9.3256L6.66732 22.6746C6.66741 24.6006 8.22855 26.1614 10.153 26.1615H16.9928C18.9188 26.1615 20.481 24.6004 20.4811 22.6746V19.3269C20.4814 18.7749 20.929 18.3269 21.4811 18.3269C22.033 18.3272 22.4808 18.7751 22.4811 19.3269V22.6746C22.481 25.7051 20.0233 28.1615 16.9928 28.1615H10.153C7.12366 28.1614 4.66741 25.7048 4.66732 22.6746Z" fill="black"/>
<path d="M13.6887 21.4441C14.3084 21.5069 14.7916 22.0305 14.7916 22.6667C14.7914 23.345 14.242 23.8944 13.5637 23.8946C12.9274 23.8946 12.4039 23.4114 12.3411 22.7917L12.3346 22.6667L12.3411 22.5404C12.4041 21.921 12.9276 21.4376 13.5637 21.4376L13.6887 21.4441Z" fill="black"/>
<path d="M16.1077 5.7644C18.8593 3.01306 23.4524 3.21091 25.9372 6.35295C27.8533 8.7761 27.7904 12.2999 25.7965 14.6563C24.4703 16.2242 22.6025 17.0063 20.7393 17.0001H16.2653C15.0273 17.0001 14.3044 15.6208 14.9867 14.6016C15.0821 14.4583 15.1948 14.2983 15.2992 14.1498C15.1205 13.8363 14.8929 13.4251 14.79 13.1889L14.7887 13.1902C14.7852 13.1826 14.7831 13.1743 14.7796 13.1667C14.7762 13.1587 14.771 13.1509 14.7679 13.1433L14.7692 13.142C13.671 10.7174 14.1079 7.76421 16.1077 5.7644ZM24.3695 7.59383C22.6357 5.40112 19.4373 5.26311 17.5218 7.17847C16.2104 8.4899 15.8608 10.3941 16.4697 12.0274L16.6038 12.3503L16.6234 12.3972C16.6234 12.3972 16.6272 12.405 16.639 12.4298C16.6501 12.4531 16.6646 12.4832 16.6833 12.5196C16.7207 12.5927 16.7687 12.6817 16.8226 12.78L17.1572 13.3725L17.2575 13.5808C17.4426 14.0455 17.3962 14.5697 17.1351 15.0001C18.5485 14.9995 20.2901 14.9986 20.7458 15.0001C22.044 15.0045 23.3419 14.4627 24.2705 13.3647C25.6509 11.7331 25.6935 9.26859 24.3695 7.59383Z" fill="black"/>
</svg>
