<?xml version="1.0" encoding="UTF-8"?>
<svg id="Capa_1" xmlns="http://www.w3.org/2000/svg" version="1.1" viewBox="0 0 32 32">
  <!-- Generator: Adobe Illustrator 30.0.0, SVG Export Plug-In . SVG Version: 2.1.1 Build 123)  -->
  <defs>
    <style>
      .st0 {
        fill-rule: evenodd;
      }
    </style>
  </defs>
  <path class="st0" d="M21.99,18.01c-.29-.11-.61-.17-.95-.17-.81,0-1.53.35-2.03.9-.45.49-.72,1.15-.72,1.86,0,.08,0,.17.01.25.13,1.41,1.31,2.51,2.75,2.51,1.52,0,2.76-1.24,2.76-2.76,0-.38-.08-.75-.22-1.08-.3-.7-.88-1.25-1.59-1.51ZM21.04,21.37c-.42,0-.76-.34-.76-.76,0-.02,0-.04,0-.06.03-.39.36-.7.76-.7.27,0,.51.14.65.36.07.12.11.25.11.4,0,.42-.34.76-.76.76Z"/>
  <path class="st0" d="M27.9,22.22c-.16-.58-.54-1.08-1.06-1.38-.06-.04-.11-.09-.13-.16-.02-.07,0-.15.03-.21.02-.04.06-.08.1-.1,1.04-.61,1.42-1.92.88-2.99-.02-.04-.04-.08-.06-.12l-.42-.72c-.16-.28-.38-.51-.62-.69v-6.87s0-.02,0-.02c-.01-.91-.49-1.68-1.13-2.27-.64-.59-1.52-1.08-2.52-1.47-2-.78-4.71-1.24-7.64-1.24-2.93,0-5.63.46-7.64,1.24-1,.39-1.88.88-2.52,1.47-.64.59-1.13,1.36-1.13,2.29v14.03c0,.93.49,1.7,1.13,2.3.64.59,1.52,1.08,2.52,1.47,2,.78,4.71,1.24,7.64,1.24,1.44,0,2.83-.11,4.11-.32.34.2.73.32,1.16.32h.84c.98,0,1.81-.62,2.13-1.49.48-.22.93-.47,1.32-.74.9.14,1.83-.28,2.31-1.11l.44-.73c.3-.52.39-1.15.23-1.73ZM24.65,15.49h-.03s-.03.02-.03.02c-.15.05-.3.11-.44.2-.06.04-.14.05-.21.03-.07-.02-.13-.07-.17-.13l-.02-.05s-.01-.04-.01-.06c0-.6-.22-1.18-.64-1.61-.38-.39-.87-.62-1.4-.68h-.03c.47-.14.92-.28,1.34-.45.6-.23,1.16-.51,1.65-.81v3.55ZM6.55,8.16c.4-.37,1.03-.74,1.89-1.08,1.72-.67,4.16-1.11,6.91-1.11,2.75,0,5.19.44,6.91,1.11.86.34,1.49.71,1.89,1.08.39.36.48.64.49.82,0,.18-.09.46-.49.83-.4.37-1.03.74-1.89,1.08-1.72.67-4.16,1.11-6.91,1.11s-5.19-.44-6.91-1.11c-.86-.34-1.49-.71-1.89-1.08-.4-.37-.49-.65-.49-.83,0-.18.09-.46.49-.82ZM6.07,11.94c.49.31,1.05.58,1.65.81,2,.78,4.71,1.24,7.64,1.24,1.33,0,2.61-.09,3.8-.27-.05.04-.1.09-.14.13-.42.42-.66,1-.66,1.59v.05c-.03.12-.14.21-.27.22-.04,0-.07-.01-.11-.03h-.01s-.21-.11-.21-.11c-1.05-.47-2.29-.08-2.89.92l-.45.73v.02c-.33.54-.39,1.16-.24,1.73-2.27-.1-4.27-.51-5.74-1.08-.86-.34-1.49-.71-1.89-1.08-.4-.37-.49-.65-.49-.83,0-.02,0-.05,0-.07v-3.99ZM15.36,26.02c-2.75,0-5.19-.44-6.91-1.11-.86-.34-1.49-.71-1.89-1.08-.4-.37-.49-.65-.49-.83v-4.06c.49.31,1.05.58,1.65.82,1.92.75,4.48,1.2,7.27,1.24-.89.68-1.16,1.94-.58,2.94l.42.73c.29.52.78.91,1.36,1.07.58.17,1.21.09,1.74-.2h.01c.06-.04.13-.05.2-.04.07.02.13.06.16.12h0s.02.05.02.07v.06s0,.06.01.09c-.94.12-1.94.18-2.99.18ZM25.94,22.94l-.43.72h0c-.08.14-.25.19-.38.11l-.26-.12c-.13-.06-.27-.1-.41-.13-.13-.03-.27-.04-.41-.05,0,0-.02,0-.02,0-.61,0-1.19.24-1.62.67-.26.26-.46.59-.56.94-.07.21-.1.44-.1.67,0,.15-.12.28-.28.28h-.84c-.15,0-.28-.14-.28-.29,0-.08,0-.16-.01-.23-.04-.31-.14-.61-.3-.88-.3-.52-.79-.89-1.37-1.05-.58-.15-1.19-.07-1.71.22-.06.04-.14.05-.21.03-.07-.02-.13-.07-.17-.13v-.02s-.43-.73-.43-.73c-.07-.13-.03-.29.1-.37.61-.35,1.01-.96,1.11-1.64.02-.11.02-.22.02-.34,0-.62-.25-1.2-.68-1.63-.13-.13-.29-.25-.45-.34-.13-.08-.18-.25-.1-.38l.44-.72v-.02c.08-.13.25-.18.39-.1.33.19.72.3,1.11.3,1.24,0,2.26-1.01,2.28-2.25,0-.07.03-.15.08-.2.05-.05.12-.08.19-.08h.84c.07,0,.15.03.2.08.05.05.08.14.08.21v.02c0,.39.11.78.31,1.11.24.41.6.73,1.03.92.11.05.23.09.35.12.4.1.82.1,1.22-.02.17-.05.34-.12.5-.21.13-.08.3-.03.38.1l.39.68v.02s.02.02.02.03c.08.13.03.3-.1.38-.34.2-.63.48-.82.82-.3.52-.39,1.14-.23,1.73.16.58.54,1.08,1.06,1.38.06.04.11.09.13.16.02.07,0,.14-.03.21Z"/>
</svg>