<svg width="32" height="32" viewBox="0 0 32 32" fill="none" xmlns="http://www.w3.org/2000/svg">
<path d="M14.08 8.55469C14.0797 7.14373 12.935 6 11.524 6C10.1132 6.00027 8.96958 7.14389 8.96932 8.55469C8.96932 9.96571 10.113 11.1104 11.524 11.1107C12.9351 11.1107 14.08 9.96587 14.08 8.55469ZM16.08 8.55469C16.08 11.0705 14.0397 13.1107 11.524 13.1107C9.00841 13.1104 6.96932 11.0703 6.96932 8.55469C6.96958 6.03933 9.00857 4.00027 11.524 4C14.0395 4 16.0797 6.03915 16.08 8.55469Z" fill="black"/>
<path fill-rule="evenodd" clip-rule="evenodd" d="M16.4581 15.5729C16.5093 15.6891 16.5525 15.8096 16.5868 15.9335C16.6066 15.81 16.6356 15.6895 16.6731 15.5729C16.9901 14.5881 17.9139 13.8752 19.0038 13.875H20.6952C21.7853 13.875 22.7091 14.588 23.0259 15.5729H23.9104C25.5742 15.5732 26.9089 16.9228 26.9091 18.5781V20.8333C26.909 21.1881 26.7203 21.5159 26.4143 21.6953C24.8741 22.5969 22.9423 23.1725 20.8498 23.3129V24.0065L20.8446 24.1081C20.7936 24.6126 20.3678 25.0065 19.8498 25.0065C19.3318 25.0065 18.9059 24.6126 18.855 24.1081L18.8498 24.0065V23.3133C17.9178 23.2511 17.0186 23.1025 16.1716 22.8772C15.4842 22.6943 14.8312 22.4609 14.2232 22.1821C13.8971 22.0326 13.584 21.8701 13.2854 21.6953C12.9792 21.5159 12.7907 21.1882 12.7906 20.8333V18.5716C12.7907 17.4851 13.3662 16.539 14.2265 16.0132C14.1604 15.9912 14.0897 15.9792 14.016 15.9792H8.99519C8.60475 15.9793 8.29794 16.3141 8.33113 16.7031L9.06551 25.3086C9.09525 25.6532 9.38359 25.9179 9.72957 25.918H10.4649C10.4625 25.8901 10.4613 25.8618 10.4613 25.8333V23.1198C10.4613 22.5675 10.9091 22.1198 11.4613 22.1198C12.0136 22.1198 12.4613 22.5675 12.4613 23.1198V25.8333C12.4613 25.8618 12.4601 25.8901 12.4578 25.918H13.1693C13.041 25.6139 12.9591 25.2847 12.9329 24.9388L12.8092 23.2943C12.7678 22.7437 13.1806 22.263 13.7311 22.2214C13.9022 22.2085 14.0665 22.2394 14.213 22.3048C14.538 22.4497 14.7753 22.7637 14.804 23.1432L14.9277 24.7878L14.9408 24.8958C15.0249 25.3818 15.4178 25.7557 15.9032 25.8187C15.9509 25.8249 15.9995 25.8281 16.0488 25.8281H23.6504C24.2378 25.8281 24.727 25.3749 24.7715 24.7878L24.8952 23.1432C24.9369 22.5927 25.4175 22.1799 25.9681 22.2214C26.5187 22.263 26.9314 22.7436 26.89 23.2943L26.7663 24.9388C26.6429 26.5681 25.2846 27.8281 23.6504 27.8281H16.0488C15.5662 27.8281 15.1077 27.7183 14.698 27.5214C14.3591 27.731 13.9704 27.8664 13.5551 27.9062L13.2986 27.918H9.72957L9.47306 27.9062C8.20457 27.7848 7.18239 26.7716 7.07202 25.4779L6.33894 16.8724C6.2062 15.316 7.43313 13.9793 8.99519 13.9792H14.016L14.3038 13.9948C15.275 14.0989 16.0832 14.7226 16.4581 15.5729ZM19.8498 21.3438C18.5878 21.3438 17.3977 21.1638 16.3413 20.8451C15.7853 20.6778 15.2656 20.4726 14.7906 20.2357V18.5716C14.7907 18.0208 15.2364 17.5731 15.7958 17.5729H23.9104C24.4611 17.5732 24.9089 18.0189 24.9091 18.5781V20.2357C23.5308 20.9228 21.775 21.3433 19.8498 21.3438Z" fill="black"/>
</svg>
