<svg width="32" height="32" viewBox="0 0 32 32" fill="none" xmlns="http://www.w3.org/2000/svg">
<path d="M25.9894 16.0365C25.9894 10.5189 21.5173 6.04687 15.9998 6.04687C10.4823 6.04687 6.01025 10.5189 6.01025 16.0365C6.01025 21.554 10.4823 26.026 15.9998 26.026C21.5173 26.026 25.9894 21.554 25.9894 16.0365ZM27.9894 16.0365C27.9894 22.6585 22.6219 28.026 15.9998 28.026C9.37774 28.026 4.01025 22.6585 4.01025 16.0365C4.01025 9.41436 9.37774 4.04688 15.9998 4.04688C22.6219 4.04688 27.9894 9.41436 27.9894 16.0365Z" fill="black"/>
<path d="M18.0355 12.5839C18.426 12.1934 19.059 12.1935 19.4495 12.5839C19.84 12.9744 19.8401 13.6074 19.4495 13.998L13.8974 19.55C13.5069 19.9406 12.8739 19.9406 12.4834 19.55C12.0929 19.1595 12.0929 18.5265 12.4834 18.136L18.0355 12.5839Z" fill="black"/>
<path d="M18.73 17.5541C19.3456 17.6169 19.8264 18.137 19.8264 18.7702C19.8262 19.4454 19.2793 19.9914 18.605 19.9916C17.9716 19.9916 17.4517 19.5109 17.3889 18.8952L17.3824 18.7702L17.3889 18.6452C17.4513 18.029 17.9717 17.5476 18.605 17.5476L18.73 17.5541Z" fill="black"/>
<path d="M13.3282 12.1528C13.944 12.2156 14.4246 12.7359 14.4246 13.369C14.4244 14.0441 13.8775 14.5901 13.2032 14.5903C12.5702 14.5903 12.0498 14.1098 11.9871 13.494L11.9806 13.369L11.9871 13.244C12.0495 12.6277 12.57 12.1463 13.2032 12.1463L13.3282 12.1528Z" fill="black"/>
</svg>
