<svg width="32" height="32" viewBox="0 0 32 32" fill="none" xmlns="http://www.w3.org/2000/svg">
<path fill-rule="evenodd" clip-rule="evenodd" d="M17.0135 5.11993V3.67993C17.0135 3.11993 16.5601 2.67993 16.0135 2.67993C15.4668 2.67993 15.0135 3.11993 15.0135 3.67993V5.11993C8.65347 5.6266 3.64014 10.9466 3.64014 17.4399C3.64014 17.9866 4.0668 18.4266 4.60014 18.4399C5.76014 18.4933 6.56014 18.5999 7.24014 18.8133C7.9068 19.0133 8.5068 19.3199 9.25347 19.8266C9.52014 20.0266 9.8668 20.0666 10.1868 19.9466C10.6401 19.7733 11.0668 19.6133 11.4668 19.4666C12.8135 19.0133 13.9335 18.7466 15.0135 18.6533V26.0933C15.0135 27.8799 16.4535 29.3199 18.2268 29.3199C20.0001 29.3199 21.4535 27.8799 21.4535 26.0933V25.6933C21.4535 25.1333 21.0001 24.6933 20.4535 24.6933C19.9068 24.6933 19.4535 25.1333 19.4535 25.6933V26.0933C19.4535 26.7733 18.9068 27.3199 18.2268 27.3199C17.5468 27.3199 17.0135 26.7733 17.0135 26.0933V18.6666C18.4001 18.7999 19.9068 19.2133 21.8401 19.9466C22.1468 20.0666 22.5068 20.0133 22.7868 19.8133C23.5735 19.2399 24.1868 18.9199 24.8401 18.7333C25.5068 18.5466 26.2668 18.4666 27.4001 18.4399C27.9468 18.4399 28.3735 17.9866 28.3735 17.4399C28.3735 10.9466 23.3735 5.6266 17.0135 5.11993ZM10.0935 17.8399C10.0935 17.8399 10.0001 17.8799 9.9468 17.8933C9.25347 17.4533 8.5868 17.1199 7.81347 16.8933C7.17347 16.6933 6.48014 16.5866 5.68014 16.5066C6.09347 11.9999 9.3868 8.31993 13.7068 7.3466C13.3735 7.81327 13.0268 8.35993 12.6801 8.9866C11.4668 11.1199 10.2401 14.1599 10.0935 17.8399ZM16.0001 16.5999C14.9817 16.5999 13.9632 16.7231 12.8947 16.9767C12.789 17.0018 12.683 17.0282 12.5763 17.0558C12.4341 17.0927 12.291 17.1319 12.1468 17.1733C12.3868 14.2266 13.4001 11.7733 14.4135 9.97327C15.0001 8.93327 15.5868 8.13327 16.0268 7.5866C16.0268 7.5797 16.0323 7.57443 16.0358 7.57098C16.038 7.56876 16.039 7.56322 16.0401 7.55993C16.4668 8.0666 17.0401 8.81326 17.6135 9.7866C18.6268 11.5333 19.6535 14.0133 19.8935 17.1866C18.5335 16.8133 17.2801 16.6133 16.0001 16.5999ZM24.2801 16.8133C23.8376 16.9408 23.4203 17.1062 23.007 17.3168C22.9612 17.3402 22.9155 17.3642 22.8698 17.3886C22.7228 17.4672 22.5759 17.5517 22.4284 17.6423C22.4201 17.6474 22.4118 17.6525 22.4035 17.6576C22.2831 17.732 22.1621 17.8105 22.0401 17.8933C22.0001 17.8799 21.9601 17.8666 21.9201 17.8533C21.7868 13.9333 20.5601 10.8933 19.3201 8.77326C19.2484 8.65164 19.1767 8.5322 19.1051 8.41546C18.9056 8.08999 18.7074 7.78551 18.5143 7.51311C18.4805 7.4655 18.4469 7.41886 18.4135 7.37327C22.6801 8.3866 25.9201 12.0266 26.3201 16.4799C25.5868 16.5333 24.9201 16.6266 24.2801 16.8133Z" fill="black"/>
</svg>
