<svg width="32" height="32" viewBox="0 0 32 32" fill="none" xmlns="http://www.w3.org/2000/svg">
<path fill-rule="evenodd" clip-rule="evenodd" d="M24.6756 6.62775C26.0627 7.03866 27.1214 8.1672 27.4777 9.57713C27.6838 10.2154 27.8154 11.2025 27.9002 12.2758C27.9891 13.3995 28.0326 14.7098 28.0324 16.0105C28.0321 17.3113 27.9881 18.616 27.8991 19.7286C27.8147 20.784 27.6839 21.7573 27.4764 22.3795C27.1199 23.7827 26.0675 24.9063 24.6885 25.3198C24.3359 25.4455 23.8406 25.5307 23.3134 25.5963C22.7434 25.6672 22.0502 25.7246 21.2822 25.7698C19.7447 25.8601 17.8685 25.9037 15.999 25.9022C14.1293 25.9008 12.2536 25.8544 10.7168 25.7634C9.94921 25.7178 9.25699 25.6607 8.68804 25.5908C8.16109 25.5263 7.66906 25.4431 7.32005 25.3225C5.96294 24.9292 4.91424 23.8494 4.52744 22.4824C4.31822 21.85 4.18558 20.8587 4.10028 19.7809C4.01142 18.6579 3.9677 17.3453 3.96777 16.0399C3.96785 14.7345 4.01173 13.4228 4.10063 12.3017C4.18526 11.2344 4.31644 10.2521 4.52301 9.62169C4.87914 8.2147 5.93253 7.09003 7.31575 6.6772C7.66562 6.55548 8.1599 6.47227 8.68866 6.40778C9.25766 6.3384 9.94989 6.28176 10.7174 6.23673C12.2539 6.14658 14.1292 6.10081 15.9982 6.09787C17.8672 6.09492 19.7421 6.13478 21.2776 6.21745C22.0447 6.25876 22.7358 6.31119 23.3034 6.3756C23.837 6.43616 24.3305 6.51419 24.6756 6.62775ZM8.91273 8.2453C8.37163 8.31128 8.05127 8.37926 7.91747 8.42785C7.89849 8.43475 7.8793 8.44102 7.85991 8.44666C7.10595 8.6659 6.5087 9.28809 6.31194 10.0985C6.30534 10.1257 6.29751 10.1526 6.28848 10.1791C6.15706 10.5642 6.0326 11.3553 5.94596 12.448C5.86177 13.5098 5.81897 14.7714 5.8189 16.04C5.81882 17.3087 5.86147 18.5711 5.94564 19.6348C6.0322 20.7288 6.15675 21.5235 6.28896 21.9131C6.29469 21.9299 6.29992 21.947 6.30466 21.9641C6.5212 22.748 7.11435 23.342 7.852 23.5494C7.87392 23.5556 7.89559 23.5625 7.917 23.5703C8.05143 23.619 8.37241 23.6871 8.91335 23.7535C9.42969 23.8168 10.08 23.8713 10.8264 23.9154C12.3177 24.0038 14.1559 24.0497 16.0003 24.0511C17.8449 24.0526 19.6827 24.0095 21.1736 23.9219C21.9197 23.8779 22.5693 23.8235 23.0848 23.7593C23.6256 23.6921 23.9434 23.6226 24.0743 23.5735C24.0959 23.5655 24.1179 23.5582 24.14 23.5518C24.893 23.3325 25.4915 22.7089 25.6882 21.8996C25.6954 21.8704 25.7038 21.8417 25.7137 21.8134C25.8429 21.4431 25.9671 20.666 26.0539 19.581C26.1381 18.5283 26.181 17.2741 26.1813 16.0103C26.1815 14.7465 26.1389 13.4862 26.0549 12.4216C25.9684 11.3279 25.8439 10.5268 25.71 10.1272C25.7017 10.1024 25.6944 10.0773 25.6882 10.0519C25.4915 9.24253 24.893 8.61895 24.14 8.39976C24.1271 8.396 24.1143 8.39197 24.1016 8.38767C23.9621 8.3404 23.6362 8.27637 23.0947 8.21491C22.5768 8.15614 21.9252 8.10612 21.1782 8.0659C19.6854 7.98554 17.846 7.94608 16.0011 7.94898C14.156 7.95189 12.3174 7.99716 10.8258 8.08468C10.0793 8.12848 9.42902 8.18235 8.91273 8.2453Z" fill="black"/>
<path fill-rule="evenodd" clip-rule="evenodd" d="M12.3227 13.2167C12.3227 11.9706 13.6673 11.1839 14.7535 11.8011L19.6511 14.5859C20.7447 15.2099 20.7489 16.791 19.6489 17.4153L14.7537 20.1989C13.6707 20.8145 12.3227 20.0343 12.3227 18.7847V13.2167ZM14.3227 13.8569L18.0917 16.0001L14.3227 18.1433V13.8569Z" fill="black"/>
</svg>
