<?xml version="1.0" encoding="UTF-8"?>
<svg id="Capa_1" xmlns="http://www.w3.org/2000/svg" version="1.1" viewBox="0 0 32 32">
  <!-- Generator: Adobe Illustrator 30.0.0, SVG Export Plug-In . SVG Version: 2.1.1 Build 123)  -->
  <defs>
    <style>
      .st0 {
        fill-rule: evenodd;
      }
    </style>
  </defs>
  <path class="st0" d="M27.6,17.73c-.55-.55-1.26-.9-2.02-1l-.4-1.39c.27-.08.53-.18.77-.3,1.71-.83,2.97-2.6,2.63-4.91-.2-1.39-.72-2.24-1.34-3.04-.15-.2-.31-.39-.46-.58-.46-.56-.92-1.13-1.42-2-.16-.28-.45-.47-.78-.49-.28-.02-.56.07-.77.27l-.08.09c-.7.83-1.09,1.72-1.31,2.47-.04-.08-.07-.15-.09-.21-.03-.06-.05-.11-.06-.14v-.03c-.1-.3-.33-.55-.63-.65-.26-.09-.55-.07-.79.05l-.1.06c-.42.28-.83.8-1.15,1.35-.34.58-.66,1.3-.85,2.1-.12.51-.18,1.06-.15,1.62h-5.25c-.44,0-.87.11-1.24.33-.38.22-.69.55-.9.94l-2.41,4.45h-1.89c-.82,0-1.61.28-2.24.8l-.26.23-.23.26c-.51.63-.8,1.42-.8,2.23v1.98c0,.94.37,1.83,1.03,2.49.55.55,1.27.9,2.04,1,.41,1.32,1.65,2.28,3.1,2.28,1.45,0,2.67-.95,3.09-2.25h6.68c.42,1.31,1.65,2.25,3.09,2.25,1.45,0,2.68-.95,3.1-2.27.79-.09,1.53-.44,2.1-1.01.66-.66,1.03-1.56,1.03-2.49v-1.98c0-.94-.37-1.83-1.03-2.49ZM20.69,9.81c.1-.45.27-.88.47-1.25.38.48.95.98,1.77,1.17.31.07.63,0,.87-.21.21-.18.34-.43.35-.7v-.11s0-.03,0-.04c0-.04,0-.1,0-.19,0-.17.04-.43.1-.73.06-.26.14-.56.27-.87.27.37.53.69.76.97l.11.14c.09.12.18.23.26.33.49.63.81,1.17.94,2.11.2,1.33-.48,2.32-1.52,2.82-.15.07-.3.13-.46.18l-.13-.46v-.03c-.19-.57-.55-1.06-1.03-1.42-.48-.35-1.06-.54-1.66-.54h-1.21c-.03-.38,0-.77.1-1.17ZM12.95,13.2c.03-.06.09-.13.15-.17.07-.04.14-.06.21-.06h8.48c.17,0,.34.06.48.16.09.06.16.14.22.23.03.05.06.11.08.17l.92,3.17h-12.44l1.89-3.5ZM9.53,25.99c-.69,0-1.25-.56-1.25-1.25,0-.69.56-1.25,1.25-1.25s1.25.56,1.25,1.24-.56,1.25-1.25,1.25ZM22.4,25.99c-.69,0-1.26-.56-1.26-1.25,0-.69.57-1.24,1.26-1.24s1.25.56,1.25,1.25-.56,1.25-1.25,1.25ZM26.63,22.21c0,.4-.16.79-.45,1.08-.2.2-.44.33-.71.4-.44-1.28-1.65-2.2-3.08-2.2s-2.67.94-3.09,2.24h-6.69c-.42-1.3-1.65-2.24-3.09-2.24s-2.63.91-3.07,2.19c-.24-.07-.47-.2-.65-.38-.29-.29-.45-.67-.45-1.08v-1.98c0-.4.16-.79.45-1.08.29-.29.67-.45,1.08-.45h18.22c.4,0,.79.16,1.08.45.29.29.45.67.45,1.08v1.98Z"/>
</svg>