<svg width="32" height="32" viewBox="0 0 32 32" fill="none" xmlns="http://www.w3.org/2000/svg">
<path d="M20.1048 22.0457C19.8379 21.8209 19.7182 21.4861 19.7559 21.1634C19.7779 20.9758 19.8532 20.7922 19.9837 20.6369C20.3395 20.2144 20.9714 20.1601 21.3939 20.5158L22.1387 21.1434L24.653 18.6291C24.7118 18.5703 24.7761 18.5204 24.8442 18.4793C25.2289 18.2474 25.7366 18.2973 26.0684 18.6291C26.4585 19.0195 26.4585 19.6527 26.0684 20.0431L22.9043 23.2072C22.5373 23.5739 21.9511 23.5985 21.5541 23.2645L20.1048 22.0457Z" fill="black"/>
<path fill-rule="evenodd" clip-rule="evenodd" d="M4.65332 14.0821C4.65334 10.2866 7.73017 7.20972 11.5257 7.20972C14.6445 7.2098 17.2806 9.28868 18.1195 12.1381C18.1989 12.4074 18.388 12.6309 18.6403 12.754C18.8929 12.8771 19.1864 12.8888 19.4476 12.7852C19.9295 12.594 20.4559 12.4884 21.0088 12.4884C22.5874 12.4886 23.9641 13.3525 24.6918 14.6333C24.3019 14.5348 23.8974 14.473 23.4822 14.4519L23.1606 14.4441C19.7089 14.4441 16.9106 17.2502 16.9106 20.711L16.9165 20.9545H11.5257C7.73016 20.9545 4.65332 17.8777 4.65332 14.0821ZM17.323 22.9545H11.5257C6.62559 22.9545 2.65332 18.9822 2.65332 14.0821C2.65334 9.18199 6.62561 5.20972 11.5257 5.20972C15.201 5.2098 18.3529 7.44368 19.7002 10.6264C20.1225 10.5361 20.5606 10.4884 21.0088 10.4884C24.1802 10.4887 26.7982 12.8567 27.191 15.9211C28.5484 17.0709 29.4106 18.7902 29.4106 20.711L29.4014 21.0326C29.2342 24.3435 26.5043 26.9765 23.1606 26.9766L22.8389 26.9688C20.3155 26.8407 18.1868 25.2117 17.323 22.9545ZM26.9168 18.7131C26.5329 17.9872 25.9464 17.3864 25.2337 16.9858C24.62 16.6407 23.9126 16.4441 23.1606 16.4441C20.8185 16.4441 18.9106 18.3498 18.9106 20.711C18.9106 20.7927 18.9129 20.8739 18.9174 20.9545C18.9585 21.6862 19.183 22.3679 19.5452 22.9545C20.2953 24.1694 21.636 24.9766 23.1606 24.9766C25.5023 24.9765 27.4102 23.0718 27.4106 20.711C27.4106 19.9885 27.2319 19.3087 26.9168 18.7131Z" fill="black"/>
</svg>
