<svg width="32" height="32" viewBox="0 0 32 32" fill="none" xmlns="http://www.w3.org/2000/svg">
<path fill-rule="evenodd" clip-rule="evenodd" d="M20.5855 9.97383L13.51 17.077C11.8882 16.1934 10.7886 14.474 10.7883 12.4973V10.3527C10.7885 10.1428 10.9583 9.97405 11.1659 9.97383H12.8601L12.8763 9.97396L12.8925 9.97383H19.1081L19.1243 9.97396L19.1404 9.97383H20.5855ZM15.711 17.7014L21.2128 12.178V12.2303C21.2126 15.0179 19.1767 17.4315 16.5162 17.6848C16.2435 17.7108 15.9746 17.7159 15.711 17.7014ZM6.29833 27.1509L13.9924 19.4266C14.3194 19.5212 14.6559 19.5933 15.0002 19.641V22.8464C15.0104 24.8176 16.6336 26.3811 18.5979 26.3893H19.9013C20.2964 26.3894 20.5836 26.699 20.5836 27.0378C20.5839 27.5898 21.0315 28.0378 21.5836 28.0378C22.1354 28.0374 22.5833 27.5896 22.5836 27.0378C22.5836 25.5561 21.3624 24.3894 19.9013 24.3893H18.6057C17.7582 24.3855 17.0926 23.7591 17.0093 22.9909L17.0002 22.8359V19.6399L17.0591 19.6327C20.6714 19.1021 23.2126 15.8172 23.2128 12.2303V10.3527C23.2128 10.2935 23.2106 10.2348 23.2064 10.1767L27.1898 6.17765C27.5795 5.78636 27.5783 5.1532 27.187 4.76343C26.7957 4.37367 26.1626 4.37491 25.7728 4.7662L22.1698 8.38332C21.7896 8.12489 21.3303 7.97383 20.8352 7.97383H20.1243V4.90625C20.1243 4.35397 19.6765 3.90625 19.1243 3.90625C18.572 3.90625 18.1243 4.35397 18.1243 4.90625V7.97383H13.8763V4.90625C13.8763 4.35397 13.4286 3.90625 12.8763 3.90625C12.324 3.90625 11.8763 4.35397 11.8763 4.90625V7.97383H11.1659C9.85257 7.97405 8.78848 9.03933 8.78831 10.3527V12.4973C8.78853 15.0246 10.0888 17.2486 12.0562 18.5365L4.88136 25.7394C4.4916 26.1307 4.49283 26.7639 4.88412 27.1537C5.27541 27.5434 5.90857 27.5422 6.29833 27.1509Z" fill="black"/>
</svg>
