<svg width="32" height="32" viewBox="0 0 32 32" fill="none" xmlns="http://www.w3.org/2000/svg">
<path fill-rule="evenodd" clip-rule="evenodd" d="M27.2442 15.8304L27.1943 8.56768C27.194 6.79162 25.7543 5.35191 23.9782 5.35156C22.6853 5.35156 21.5703 6.11436 21.0591 7.21446C19.7145 6.76064 18.1114 6.52345 16.2139 6.52344C11.8077 6.52344 8.92868 8.08424 7.21916 10.763C6.52489 11.851 6.04277 13.0953 5.71721 14.4404C4.02905 14.5385 2.69027 15.9384 2.68994 17.651C2.68994 19.1999 3.78459 20.4933 5.24243 20.7995L5.24243 23.3229L5.25936 23.6628C5.42957 25.3398 6.84604 26.6484 8.56795 26.6484C9.83824 26.6484 10.9423 25.9362 11.5024 24.8893H19.158C22.2373 24.8892 25.1401 23.4532 27.0082 21.0052C27.0232 20.9856 27.0373 20.9656 27.0506 20.9453H28.3778C28.9301 20.9453 29.3778 20.4976 29.3778 19.9453C29.3778 19.393 28.9301 18.9453 28.3778 18.9453H27.2952C27.2793 18.2396 27.2986 16.5157 27.2442 15.8304ZM23.9782 7.35154C23.4919 7.35154 23.0719 7.63682 22.8769 8.04914C22.8025 8.20643 22.7609 8.3822 22.7608 8.56768C22.7608 9.28785 21.8486 9.72133 21.1957 9.41747C21.056 9.35247 20.9111 9.2906 20.7608 9.232C19.6036 8.78097 18.1229 8.52345 16.2139 8.52344C12.3429 8.52344 10.1733 9.84955 8.90405 11.8385C8.4232 12.5921 8.05643 13.4632 7.78415 14.4349H12.3057C12.858 14.4349 13.3057 14.8826 13.3057 15.4349C13.3057 15.9872 12.858 16.4349 12.3057 16.4349H5.90606C5.69874 16.435 5.50354 16.487 5.33274 16.5785C4.95032 16.7835 4.69016 17.1869 4.68992 17.651C4.68992 18.0415 4.87383 18.3892 5.15974 18.612C5.2528 18.6846 5.35667 18.7439 5.46852 18.7871C5.60429 18.8396 5.75182 18.8684 5.90606 18.8685H13.3057L14.0363 18.9036C14.0697 18.9036 14.179 18.9101 14.3175 18.9183C14.6303 18.9367 15.0916 18.9639 15.1613 18.9453H25.2939C25.2771 18.2525 25.2959 16.5623 25.2442 15.9267L25.1943 10.2053V8.56768C25.194 7.89618 24.6497 7.35189 23.9782 7.35154ZM9.89347 22.8958L19.158 22.8893C21.0808 22.8893 22.9171 22.1871 24.3388 20.9453L11.8935 20.9531L9.89347 20.9453H7.24243V23.3229C7.24243 24.055 7.83589 24.6484 8.56795 24.6484C9.30002 24.6484 9.89347 24.055 9.89347 23.3229V22.8958Z" fill="black"/>
</svg>
