<svg width="32" height="32" viewBox="0 0 32 32" fill="none" xmlns="http://www.w3.org/2000/svg">
<path d="M23.3706 22.9301C23.3704 22.5872 23.0937 22.3172 22.7651 22.3168H19.5295C19.1998 22.317 18.9241 22.5867 18.924 22.9301V24.7556C18.9241 25.1 19.1993 25.3688 19.5295 25.3689H22.7651C23.0942 25.3685 23.3705 25.0995 23.3706 24.7556V22.9301ZM21.1349 19.2296C20.6378 19.2362 20.2256 19.6413 20.217 20.1554V20.3168H22.0789V20.1593L22.0568 19.9679C21.9638 19.5384 21.5816 19.2242 21.1349 19.2296ZM25.3706 24.7556C25.3705 26.1952 24.2076 27.3685 22.7651 27.3689H19.5295C18.0851 27.3688 16.9241 26.1949 16.924 24.7556V22.9301C16.9241 21.97 17.4426 21.128 18.217 20.6736V20.1215L18.2365 19.8285C18.4045 18.3805 19.6213 17.2482 21.1115 17.2296C22.7342 17.2102 24.0593 18.5141 24.0789 20.1345V20.6762C24.8515 21.1309 25.3705 21.971 25.3706 22.9301V24.7556Z" fill="black"/>
<path d="M3.13379 25.9926C3.1339 24.3535 3.77789 22.527 5.3252 21.1176C6.87565 19.7054 9.24201 18.7921 12.5492 18.7921C13.1014 18.7921 13.5492 19.2398 13.5492 19.7921C13.5492 20.3444 13.1014 20.7921 12.5492 20.7921C9.60882 20.7921 7.76689 21.5991 6.67155 22.5968C5.57376 23.597 5.1339 24.8702 5.13379 25.9926C5.13379 26.5449 4.68607 26.9926 4.13379 26.9926C3.5815 26.9926 3.13379 26.5449 3.13379 25.9926Z" fill="black"/>
<path d="M28.8659 18.7778C28.8659 17.7213 28.4501 16.5486 27.4609 15.6475C26.4687 14.7438 24.9902 14.1931 23.0013 14.1931C22.4492 14.1934 22.0013 14.641 22.0013 15.1931C22.0013 15.7452 22.4492 16.1928 23.0013 16.1931C24.6232 16.1931 25.5775 16.6363 26.1146 17.1254C26.6547 17.6173 26.8659 18.2378 26.8659 18.7778C26.8662 19.3298 27.3138 19.7778 27.8659 19.7778C28.418 19.7778 28.8656 19.3298 28.8659 18.7778Z" fill="black"/>
<path d="M15.7044 11.0343C15.7044 8.59699 13.7395 6.63062 11.3281 6.63062C8.91709 6.63095 6.95312 8.59721 6.95312 11.0343C6.95328 13.4702 8.9173 15.4376 11.3281 15.4379C13.7393 15.4379 15.7043 13.4704 15.7044 11.0343ZM17.7044 11.0343C17.7043 14.5653 14.8536 17.4379 11.3281 17.4379C7.80309 17.4376 4.95328 14.5651 4.95312 11.0343C4.95312 7.50207 7.80311 4.63095 11.3281 4.63062C14.8536 4.63062 17.7044 7.50188 17.7044 11.0343Z" fill="black"/>
<path d="M20.8953 9.2439C20.8953 8.06626 21.8434 7.1202 23.0021 7.1202C24.1606 7.12034 25.1089 8.06636 25.1089 9.2439C25.1086 10.4206 24.1603 11.3661 23.0021 11.3663C21.8437 11.3663 20.8957 10.4207 20.8953 9.2439ZM18.8953 9.2439C18.8957 11.5156 20.7295 13.3663 23.0021 13.3663C25.2745 13.3661 27.1085 11.5155 27.1089 9.2439C27.1089 6.97122 25.2746 5.12034 23.0021 5.1202C20.7294 5.1202 18.8953 6.97115 18.8953 9.2439Z" fill="black"/>
</svg>
