<?xml version="1.0" encoding="UTF-8"?>
<svg id="Capa_1" xmlns="http://www.w3.org/2000/svg" version="1.1" viewBox="0 0 32 32">
  <!-- Generator: Adobe Illustrator 30.0.0, SVG Export Plug-In . SVG Version: 2.1.1 Build 123)  -->
  <defs>
    <style>
      .st0 {
        fill-rule: evenodd;
      }
    </style>
  </defs>
  <path class="st0" d="M23.98,15.62c-.18,0-.36,0-.54.03l-2.17-7.22,1.83-.7c.52-.2.77-.78.58-1.29-.2-.52-.78-.77-1.29-.58l-2.7,1.03c-.49.19-.75.72-.6,1.22l1.18,3.93h-2.81c-1.56,0-3.07.42-4.37,1.2l-1.31-2.62h.53c.55,0,1-.45,1-1s-.45-1-1-1h-3.61c-.55,0-1,.45-1,1s.45,1,1,1h.84l1.93,3.86c-.36.36-.7.75-1,1.17l-.29.42c-.66-.3-1.4-.46-2.17-.46-2.92,0-5.29,2.37-5.29,5.29,0,2.92,2.37,5.29,5.29,5.29,2.92,0,5.29-2.37,5.29-5.29,0-1.43-.57-2.72-1.49-3.68l.3-.42c1.22-1.73,3.21-2.76,5.35-2.76h3.41l.65,2.18c-1.68.88-2.83,2.65-2.83,4.68,0,2.92,2.37,5.29,5.29,5.29,2.92,0,5.29-2.37,5.29-5.29,0-2.92-2.37-5.29-5.29-5.29ZM8.01,24.2c-1.82,0-3.29-1.47-3.29-3.29,0-1.82,1.47-3.29,3.29-3.29.34,0,.68.05.99.15l-1.12,1.6c-.32.45-.21,1.08.24,1.39.45.32,1.08.21,1.39-.25l1.12-1.6c.42.55.67,1.24.67,1.99,0,1.82-1.47,3.29-3.29,3.29ZM23.98,24.2c-1.82,0-3.29-1.47-3.29-3.29,0-1.12.56-2.12,1.43-2.71l.61,2.03c.16.53.72.83,1.24.67.53-.16.83-.72.67-1.24l-.61-2.04c1.79.03,3.24,1.49,3.24,3.29,0,1.82-1.47,3.29-3.29,3.29Z"/>
</svg>