<?xml version="1.0" encoding="UTF-8"?>
<svg id="Capa_1" xmlns="http://www.w3.org/2000/svg" version="1.1" viewBox="0 0 32 32">
  <!-- Generator: Adobe Illustrator 30.0.0, SVG Export Plug-In . SVG Version: 2.1.1 Build 123)  -->
  <defs>
    <style>
      .st0 {
        fill-rule: evenodd;
      }
    </style>
  </defs>
  <path class="st0" d="M26.81,25.96H7.89c-.94,0-1.7-.76-1.7-1.7v-1.03h8.35c1.3,0,2.35-1.05,2.35-2.35v-1.35c0-1.3-1.05-2.35-2.35-2.35H6.19v-2.73h15.22c1.3,0,2.35-1.05,2.35-2.35v-1.35c0-1.3-1.05-2.35-2.35-2.35H6.19v-3.05c0-.55-.45-1-1-1s-1,.45-1,1v18.92c0,2.05,1.66,3.7,3.7,3.7h18.92c.55,0,1-.45,1-1s-.45-1-1-1ZM6.19,10.39h15.22c.19,0,.35.16.35.35v1.35c0,.19-.16.35-.35.35H6.19v-2.05ZM6.19,19.17h8.35c.19,0,.35.16.35.35v1.35c0,.19-.16.35-.35.35H6.19v-2.05Z"/>
</svg>