<svg width="32" height="32" viewBox="0 0 32 32" fill="none" xmlns="http://www.w3.org/2000/svg">
<path d="M16.5571 16.6315C16.2367 16.2387 16.26 15.6591 16.6261 15.293L21.9595 9.95964C22.35 9.56912 22.983 9.56912 23.3735 9.95964C23.7641 10.3502 23.7641 10.9832 23.3735 11.3737L18.7472 16L23.3735 20.6263C23.7641 21.0168 23.7641 21.6498 23.3735 22.0404C22.983 22.4309 22.35 22.4309 21.9595 22.0404L16.6261 16.707L16.5571 16.6315ZM8.55712 16.6315C8.23671 16.2387 8.25999 15.6591 8.62613 15.293L13.9595 9.95964C14.35 9.56912 14.983 9.56912 15.3735 9.95964C15.7641 10.3502 15.7641 10.9832 15.3735 11.3737L10.7472 16L15.3735 20.6263C15.7641 21.0168 15.7641 21.6498 15.3735 22.0404C14.983 22.4309 14.35 22.4309 13.9595 22.0404L8.62613 16.707L8.55712 16.6315Z" fill="black"/>
</svg>
