<svg width="32" height="32" viewBox="0 0 32 32" fill="none" xmlns="http://www.w3.org/2000/svg">
<path d="M16.6516 17.5717C17.2035 17.572 17.6514 18.0198 17.6516 18.5717C17.6516 19.1238 17.2035 19.5714 16.6516 19.5717H10.8716C10.3193 19.5717 9.87161 19.124 9.87161 18.5717C9.87176 18.0195 10.3194 17.5717 10.8716 17.5717H16.6516ZM13.8872 12.5261C14.4395 12.5261 14.8872 12.9738 14.8872 13.5261C14.8872 14.0784 14.4395 14.5261 13.8872 14.5261H10.8703C10.318 14.5261 9.87031 14.0784 9.87031 13.5261C9.87031 12.9738 10.318 12.5261 10.8703 12.5261H13.8872Z" fill="black"/>
<path d="M21.7628 18.0834C22.3954 16.9879 23.7959 16.6124 24.8917 17.2449L25.8448 17.7944C26.9405 18.4271 27.3162 19.8286 26.6834 20.9246L23.7159 26.0652C23.3099 26.7684 22.6619 27.3002 21.893 27.5613L21.0987 27.8308C19.9894 28.2072 18.8026 27.521 18.574 26.3725L18.4099 25.5509C18.252 24.755 18.3884 23.9271 18.7941 23.224L21.7628 18.0834ZM23.8917 18.9766C23.77 18.9066 23.6182 18.934 23.5284 19.0352L23.4946 19.0834L20.5271 24.224C20.3638 24.5071 20.3085 24.8396 20.3722 25.1602L20.5206 25.9141L21.2498 25.6667L21.3631 25.6225C21.6226 25.5073 21.841 25.3131 21.9842 25.0652L24.9516 19.9246L24.975 19.8712C25.0181 19.7426 24.967 19.5967 24.8448 19.5261L23.8917 18.9766Z" fill="black"/>
<path d="M20.8293 12.7319H23.2583V13.9154C23.2586 14.4675 23.7062 14.9154 24.2583 14.9154C24.8102 14.9152 25.2581 14.4674 25.2583 13.9154V12.3256C25.2582 11.535 24.99 10.7703 24.5031 10.1537L24.2818 9.89852L19.6477 5.0717C18.9861 4.38186 18.0718 3.99487 17.119 3.99487L10.2115 3.99618C7.17469 3.98523 4.68751 6.40461 4.6151 9.44019V22.2839C4.54848 25.3683 6.99315 27.9255 10.0786 27.9936C10.0859 27.9937 10.0935 27.9936 10.1008 27.9936L10.1874 27.9936C10.4888 27.9939 11.5262 27.9946 12.5604 27.9949H14.9927C15.5449 27.995 15.9926 27.5471 15.9927 26.9949C15.9927 26.4427 15.5449 25.995 14.9927 25.9949H12.5604C11.7784 25.9947 10.987 25.9941 10.5208 25.9938L10.1229 25.9936C8.14246 25.9499 6.5723 24.3084 6.6151 22.3269V9.48836C6.66157 7.54035 8.25759 5.9868 10.2062 5.99487H16.7095V8.60295L16.7147 8.81519C16.8238 10.9943 18.6239 12.7273 20.8293 12.7319ZM22.3077 10.7319H20.8332C19.6589 10.7294 18.7088 9.77719 18.7095 8.60425V6.98401L22.3077 10.7319Z" fill="black"/>
</svg>
