<svg width="32" height="32" viewBox="0 0 32 32" fill="none" xmlns="http://www.w3.org/2000/svg">
<path fill-rule="evenodd" clip-rule="evenodd" d="M27.1636 18.6079C29.2241 17.4827 29.2249 14.523 27.1636 13.3966L10.6617 4.38011C8.40655 3.14886 5.75694 5.17032 6.35 7.67166L8.32677 16.0013L6.35 24.3329C5.75694 26.8343 8.40645 28.8557 10.6617 27.6244L27.1636 18.6079ZM26.2052 16.8521C26.877 16.485 26.8776 15.5203 26.2052 15.1524L9.70323 6.13591C8.96701 5.73389 8.10306 6.3935 8.29638 7.20946L10.1501 15.027L19.5706 14.9776C20.1228 14.9747 20.573 15.4197 20.576 15.9719C20.5789 16.5241 20.1337 16.9743 19.5816 16.9774L10.1384 17.0269L8.29638 24.7951C8.10315 25.6111 8.967 26.2706 9.70323 25.8686L26.2052 16.8521Z" fill="black"/>
</svg>
