<svg width="32" height="32" viewBox="0 0 32 32" fill="none" xmlns="http://www.w3.org/2000/svg">
<path d="M9.33057 22.1757C9.33029 21.5234 8.80189 20.9948 8.14958 20.9947H7.45947V23.358H8.14958C8.80206 23.3579 9.33057 22.8282 9.33057 22.1757ZM11.3306 22.1757C11.3306 23.9328 9.90663 25.3579 8.14958 25.358H7.45947V27.052C7.45947 27.6043 7.01176 28.052 6.45947 28.052C5.90719 28.052 5.45947 27.6043 5.45947 27.052V20.3176C5.45947 19.5872 6.05192 18.9947 6.78239 18.9947H8.14958C9.90646 18.9948 11.3303 20.4189 11.3306 22.1757Z" fill="black"/>
<path d="M26.7745 25.4231C26.7742 26.875 25.5963 28.052 24.1443 28.052C22.6925 28.0517 21.5156 26.8749 21.5154 25.4231V21.9947C21.5154 20.3379 22.8585 18.9947 24.5154 18.9947H25.7745C26.3266 18.9949 26.7745 19.4425 26.7745 19.9947C26.7745 20.5469 26.3266 20.9945 25.7745 20.9947H24.5154C23.9631 20.9947 23.5154 21.4424 23.5154 21.9947V25.4231C23.5156 25.7703 23.7971 26.0517 24.1443 26.052C24.4917 26.052 24.7742 25.7705 24.7745 25.4231V25.134C24.2233 25.1329 23.7773 24.6868 23.7771 24.1353C23.7771 23.583 24.2248 23.1353 24.7771 23.1353H25.2875C26.1083 23.1353 26.7744 23.8003 26.7745 24.621V25.4231Z" fill="black"/>
<path d="M13.0474 27.052V19.9947L13.0617 19.8267C13.1268 19.4435 13.4111 19.1257 13.7974 19.026C14.2388 18.912 14.7016 19.1115 14.9224 19.5103L16.951 23.177V19.9947C16.951 19.4426 17.399 18.995 17.951 18.9947C18.5033 18.9947 18.951 19.4424 18.951 19.9947V27.052C18.951 27.508 18.6425 27.9068 18.201 28.0207C17.7597 28.1344 17.2966 27.9352 17.076 27.5364L15.0474 23.8684V27.052C15.0474 27.6043 14.5996 28.052 14.0474 28.052C13.4951 28.052 13.0474 27.6043 13.0474 27.052Z" fill="black"/>
<path d="M22.0288 12.9309H24.5402V17.1588C24.5402 17.7111 24.9879 18.1588 25.5402 18.1588C26.0922 18.1584 26.5402 17.7109 26.5402 17.1588V12.5416C26.5402 11.6209 26.1828 10.7348 25.5467 10.0715L20.8032 5.13143C20.1313 4.43216 19.2027 4.03652 18.2329 4.03638L11.1626 4.03768C8.06874 4.02817 5.5324 6.49307 5.45948 9.58846V17.1588C5.45948 17.7111 5.90719 18.1588 6.45948 18.1588C7.01176 18.1588 7.45948 17.7111 7.45948 17.1588V9.63533C7.50675 7.62849 9.15217 6.02865 11.16 6.03638H17.8361V8.72648C17.8345 11.045 19.7105 12.9261 22.0288 12.9309ZM23.5989 10.9309H22.0327C20.8938 10.9284 19.9596 10.0621 19.8478 8.95304L19.8361 8.72778V7.01214L23.5989 10.9309Z" fill="black"/>
</svg>
