<svg width="32" height="32" viewBox="0 0 32 32" fill="none" xmlns="http://www.w3.org/2000/svg">
<path d="M22.4579 9.74452C26.2325 9.81159 29.2771 12.8554 29.343 16.6296C29.4095 20.4986 26.3276 23.6908 22.4579 23.7578L22.4404 23.7587L18.5431 23.7578C18.2079 23.7577 17.8734 23.7336 17.5441 23.6869C13.7135 23.1346 11.0551 19.5806 11.6073 15.7503C11.6863 15.2038 12.1932 14.8245 12.7398 14.9033C13.2863 14.9822 13.6655 15.4893 13.5869 16.0357C13.1922 18.773 15.0907 21.3127 17.8277 21.7073C18.0669 21.7412 18.3063 21.758 18.5431 21.758H22.4229C25.1878 21.7102 27.3909 19.4301 27.3432 16.6646C27.2962 13.9677 25.1203 11.7911 22.422 11.7434C21.8699 11.7336 21.4309 11.279 21.4405 10.7269C21.4503 10.1747 21.9057 9.73475 22.4579 9.74452Z" fill="black"/>
<path d="M14.4581 8.31351C18.2886 8.86588 20.9453 12.4199 20.393 16.2501C20.314 16.7965 19.8071 17.1759 19.2606 17.0971C18.7141 17.0183 18.335 16.5111 18.4135 15.9646C18.8082 13.2275 16.9096 10.6877 14.1727 10.293C13.9335 10.2592 13.6941 10.2424 13.4573 10.2424L9.57744 10.2406C6.81254 10.2883 4.60943 12.5702 4.65715 15.3358C4.70351 18.0332 6.87881 20.2087 9.57744 20.2561C10.1296 20.2657 10.5695 20.7213 10.5598 21.2735C10.5501 21.8255 10.0946 22.2655 9.54245 22.2559C5.76688 22.1897 2.72317 19.1451 2.65828 15.3699C2.59173 11.5007 5.67261 8.30943 9.54245 8.24262L9.55994 8.2417H13.4564C13.7917 8.24171 14.1287 8.26673 14.4581 8.31351Z" fill="black"/>
</svg>
