<?xml version="1.0" encoding="UTF-8"?>
<svg id="Capa_1" xmlns="http://www.w3.org/2000/svg" version="1.1" viewBox="0 0 32 32">
  <!-- Generator: Adobe Illustrator 30.0.0, SVG Export Plug-In . SVG Version: 2.1.1 Build 123)  -->
  <defs>
    <style>
      .st0 {
        fill-rule: evenodd;
      }
    </style>
  </defs>
  <path class="st0" d="M23.38,21.66c-.17-.14-.39-.22-.63-.22-.08,0-.15,0-.23.03-.44.1-.77.5-.77.97v1.45c0,.55.45,1,1,1s1-.45,1-1v-1.45c0-.25-.09-.47-.24-.65-.04-.05-.08-.09-.13-.13Z"/>
  <path class="st0" d="M27.03,18.76c.21-.89.32-1.81.32-2.76,0-1.96-.47-3.81-1.3-5.45-.04-.07-.08-.15-.12-.22-2.03-3.79-6.02-6.37-10.62-6.37s-8.63,2.6-10.65,6.42c-.02.04-.04.07-.06.11-.85,1.65-1.33,3.52-1.33,5.51,0,6.65,5.39,12.04,12.04,12.04,1.12,0,2.21-.15,3.25-.44.5.28,1.08.44,1.7.44h5c1.92,0,3.48-1.56,3.48-3.48v-2.81c0-1.27-.68-2.39-1.7-2.99ZM24.56,12.1c.36.86.61,1.78.72,2.74-.69-.56-1.56-.9-2.52-.9-.89,0-1.71.28-2.37.77-.03-.6-.07-1.18-.13-1.75,1.48-.2,2.92-.48,4.3-.86ZM24.74,17.92v.36h-3.97v-.37c0-1.09.9-1.97,1.99-1.97,1.09,0,1.98.89,1.98,1.98ZM13.34,8.55c.35-.93.74-1.62,1.12-2.05.38-.44.67-.53.85-.53.18,0,.47.09.85.53.38.43.77,1.12,1.12,2.05.28.76.52,1.65.71,2.64-1.78.13-3.59.13-5.36,0,.19-.99.43-1.88.71-2.64ZM6.05,19.9c-.5-1.2-.78-2.51-.78-3.89s.28-2.7.79-3.9c1.38.38,2.82.66,4.3.86-.1.97-.15,2-.15,3.05s.05,2.06.15,3.04c-1.48.2-2.92.48-4.3.86ZM7.04,21.71c1.15-.29,2.35-.52,3.59-.68.21,1.16.49,2.22.84,3.14.18.48.38.93.6,1.35-2.05-.7-3.81-2.05-5.02-3.8ZM11.46,7.85c-.34.92-.62,1.97-.83,3.13-1.23-.16-2.44-.39-3.58-.68,1.21-1.75,2.96-3.09,5.01-3.79-.22.42-.42.87-.6,1.35ZM16.77,24.6c-.2.38-.41.68-.62.92-.38.44-.67.53-.85.53-.18,0-.47-.09-.85-.53-.38-.43-.77-1.12-1.12-2.05-.28-.76-.53-1.66-.71-2.65,1.42-.11,2.86-.13,4.29-.06-.1.32-.15.66-.15,1.01v2.84ZM18.27,18.83c-1.97-.15-3.97-.15-5.94,0-.09-.9-.14-1.84-.14-2.83s.06-1.94.15-2.83c1.96.15,3.96.15,5.93,0,.09.9.14,1.85.14,2.84s-.05,1.93-.14,2.83ZM18.55,6.5c2.05.7,3.8,2.05,5.02,3.8-1.15.29-2.35.52-3.58.68-.21-1.16-.49-2.21-.83-3.13-.18-.48-.38-.93-.6-1.35ZM26.73,24.56c0,.82-.66,1.48-1.48,1.48h-5c-.53,0-1-.28-1.26-.7-.07-.12-.13-.25-.17-.39-.03-.12-.05-.26-.05-.39v-2.81c0-.32.1-.61.27-.85.21-.3.53-.52.91-.6.01,0,.04,0,.05-.01h.03s.03,0,.03,0h.02s.03,0,.04,0c.05,0,.1,0,.15,0h5c.09,0,.18,0,.27.02h.02s.02,0,.02,0c.08.02.17.04.24.07.22.09.41.22.56.4.23.26.37.6.37.98v2.81Z"/>
</svg>