<svg width="32" height="32" viewBox="0 0 32 32" fill="none" xmlns="http://www.w3.org/2000/svg">
<path fill-rule="evenodd" clip-rule="evenodd" d="M6.24745 11.6523C6.23732 11.6524 6.22719 11.6524 6.21704 11.6523H6.24745Z" fill="black"/>
<path d="M16.9995 11.8853C16.9995 11.3331 16.5518 10.8853 15.9995 10.8853C15.4473 10.8854 14.9995 11.3331 14.9995 11.8853V16.888C14.9995 17.2397 15.1846 17.5655 15.4865 17.7461L19.3615 20.0625C19.8354 20.3457 20.4491 20.1912 20.7326 19.7174C21.0159 19.2434 20.8616 18.6284 20.3875 18.345L16.9995 16.3203V11.8853Z" fill="black"/>
<path d="M19.7125 4.73947C15.0349 3.1247 10.0682 4.56367 6.9378 7.9912V6.62489C6.9378 6.07261 6.49008 5.62489 5.9378 5.62489C5.38551 5.62489 4.9378 6.07261 4.9378 6.62489V10.6523C4.9378 11.2046 5.38551 11.6523 5.9378 11.6523H6.21704H6.24745H9.94301C10.4953 11.6523 10.943 11.2046 10.943 10.6523C10.943 10.1 10.4953 9.65226 9.94301 9.65226H8.14091C10.7283 6.57027 15.024 5.23764 19.0589 6.6301C24.2637 8.43126 27.0311 14.1165 25.2308 19.319C23.4401 24.5333 17.7574 27.3034 12.542 25.5013C9.31593 24.3892 7.02688 21.8003 6.18129 18.7422C6.03411 18.2098 5.48313 17.8971 4.95082 18.0442C4.41873 18.1915 4.10709 18.7425 4.25421 19.2747C5.26899 22.945 8.01899 26.0573 11.8896 27.3919C18.1497 29.555 24.9713 26.2286 27.1214 19.9674C29.2812 13.7199 25.9574 6.90078 19.7125 4.73947Z" fill="black"/>
</svg>
