<?xml version="1.0" encoding="UTF-8"?>
<svg id="Capa_1" xmlns="http://www.w3.org/2000/svg" version="1.1" viewBox="0 0 32 32">
  <!-- Generator: Adobe Illustrator 30.0.0, SVG Export Plug-In . SVG Version: 2.1.1 Build 123)  -->
  <defs>
    <style>
      .st0 {
        fill-rule: evenodd;
      }
    </style>
  </defs>
  <path class="st0" d="M22.45,18.7c-.4-.23-.86-.35-1.35-.35-.49,0-.95.13-1.35.35-.7.4-1.21,1.1-1.35,1.93-.02.15-.04.3-.04.45,0,.57.18,1.11.48,1.55.49.72,1.32,1.19,2.26,1.19.99,0,1.86-.53,2.34-1.32.25-.41.4-.9.4-1.42,0-.33-.06-.64-.16-.94-.22-.61-.66-1.13-1.22-1.44ZM21.1,21.81c-.41,0-.73-.33-.73-.74,0-.17.06-.33.16-.45.13-.17.34-.28.58-.28.23,0,.44.11.58.28.1.12.16.28.16.45,0,.41-.33.74-.74.74Z"/>
  <path class="st0" d="M27.88,22.67c-.15-.58-.53-1.07-1.05-1.37-.06-.03-.1-.09-.12-.15-.02-.06,0-.14.03-.2.02-.04.06-.07.1-.09,1.03-.6,1.41-1.9.88-2.96-.02-.04-.04-.08-.06-.12l-.41-.71c-.52-.9-1.57-1.3-2.53-1.05v-7.55c0-2.43-1.97-4.39-4.39-4.39h-10.49c-2.43,0-4.39,1.97-4.39,4.39v8.25c-.84.06-1.5.76-1.5,1.62v.57c0,2.06,1.67,3.74,3.74,3.74h6.67c-.16.57-.11,1.2.21,1.75l.42.72c.29.52.78.9,1.35,1.06.58.16,1.2.09,1.72-.2h.01c.06-.04.13-.05.19-.03.06.02.12.06.15.12h0s.03.08.03.12c0,1.24,1.02,2.25,2.26,2.25h.83c1.24,0,2.25-1.01,2.26-2.26,0-.07.03-.13.07-.18.05-.05.11-.07.17-.07.04,0,.08.01.12.04,1.07.62,2.44.25,3.07-.81l.44-.73c.3-.52.38-1.14.23-1.71ZM7.67,20.62c-.96,0-1.74-.78-1.74-1.74v-.19h.45s.03,0,.05,0,.03,0,.05,0h7.77c-.06.72.23,1.45.8,1.93h-7.38ZM7.43,16.7v-8.24c0-1.32,1.07-2.39,2.39-2.39h10.49c1.32,0,2.39,1.07,2.39,2.39v5.64c-.29-.18-.62-.3-.97-.33h-.23s-.83-.01-.83-.01c-.6,0-1.17.24-1.6.66-.42.42-.65.99-.66,1.58v.05c-.03.11-.13.2-.25.2-.03,0-.07,0-.1-.03h-.01c-.95-.55-2.14-.33-2.83.48h-7.8ZM24.77,21.65s.03.1.04.14c.18.52.53.95,1.01,1.23.06.03.1.09.12.15.02.07,0,.13-.03.19l-.43.71h0c-.07.13-.23.18-.36.1l-.25-.12c-.26-.11-.54-.17-.82-.18h-.02c-.6,0-1.18.23-1.6.66-.42.42-.66,1-.66,1.59,0,.14-.12.26-.26.26h-.83c-.14,0-.26-.13-.26-.27,0-.38-.11-.76-.3-1.09-.3-.52-.79-.9-1.37-1.05-.57-.15-1.18-.07-1.7.22-.06.03-.13.04-.2.02-.07-.02-.12-.06-.16-.12v-.02s-.42-.72-.42-.72c-.07-.12-.03-.27.09-.34l.25-.17c.1-.07.18-.15.27-.24.39-.41.61-.96.61-1.55,0-.15-.02-.3-.05-.45-.13-.63-.52-1.18-1.08-1.5-.12-.07-.17-.23-.1-.35l.43-.7s0,0,0-.01c.07-.12.24-.18.36-.1.33.19.72.3,1.1.3,1,0,1.85-.65,2.15-1.55.07-.21.11-.44.11-.68v-.02c0-.07.03-.13.07-.18.05-.05.11-.07.18-.07h.83c.07,0,.14.03.19.08.05.05.07.12.07.19,0,.01,0,.03,0,.04,0,.22.04.44.1.64.05.16.12.31.2.46.16.28.38.52.64.7.22.15.47.27.73.34.37.1.76.1,1.12,0,.2-.05.39-.13.58-.24.12-.07.28-.03.35.1l.38.67v.02s.02.02.02.03c.06.11.04.24-.05.32l-.04.03c-.34.2-.62.48-.82.82-.3.52-.38,1.14-.23,1.71Z"/>
</svg>