<svg width="32" height="32" viewBox="0 0 32 32" fill="none" xmlns="http://www.w3.org/2000/svg">
<path fill-rule="evenodd" clip-rule="evenodd" d="M23.1736 23.7125C22.4677 23.43 21.7493 23.1905 21.0223 22.9942V26.581C21.0223 27.1333 20.5745 27.581 20.0223 27.581C19.47 27.581 19.0223 27.1333 19.0223 26.581V22.5656C17.018 22.2455 14.9757 22.2416 12.971 22.5539V26.581C12.971 27.1333 12.5233 27.581 11.971 27.581C11.4187 27.581 10.971 27.1333 10.971 26.581V22.9743C10.1809 23.1843 9.4009 23.4452 8.63586 23.7568C6.47225 24.638 4.07877 23.2548 3.72701 20.9846L3.69966 20.762L2.88716 12.0693C2.69136 9.97046 3.82154 7.98807 5.68925 7.07447L6.07336 6.9065C12.3932 4.43901 19.4934 4.45362 25.826 6.88827C27.9594 7.7085 29.3183 9.85996 29.1059 12.1357L28.3051 20.7073C28.0848 23.0656 25.727 24.5764 23.5161 23.8427L23.3025 23.7646L23.1736 23.7125ZM21.0223 20.9295V15.9708L21.4489 16.3975C21.8395 16.788 22.4726 16.788 22.8632 16.3975C23.2537 16.0069 23.2537 15.3738 22.8632 14.9832L20.7271 12.8472C20.3366 12.4567 19.7034 12.4567 19.3129 12.8472L17.1888 14.9713C16.7983 15.3618 16.7983 15.995 17.1888 16.3855C17.5793 16.776 18.2125 16.776 18.603 16.3855L19.0223 15.9663V20.5427C17.0157 20.253 14.9779 20.2497 12.971 20.5326V15.9709L13.3975 16.3975C13.788 16.788 14.4212 16.788 14.8117 16.3975C15.2022 16.0069 15.2022 15.3738 14.8117 14.9832L12.6757 12.8472C12.2851 12.4567 11.652 12.4567 11.2615 12.8472L9.13737 14.9713C8.74685 15.3618 8.74685 15.995 9.13737 16.3855C9.52789 16.776 10.1611 16.776 10.5516 16.3855L10.971 15.9661V20.9123C9.92384 21.1632 8.8911 21.4942 7.88196 21.9052C6.89087 22.3089 5.79024 21.6412 5.69055 20.5758L4.87935 11.8844C4.75317 10.5338 5.53638 9.26188 6.79992 8.76848C12.6488 6.4848 19.2345 6.4971 25.1085 8.75546C26.4201 9.25993 27.2428 10.583 27.115 11.9508L26.3143 20.5211C26.2111 21.6248 25.0752 22.3194 24.046 21.9078L23.9171 21.8557C22.9699 21.4766 22.0024 21.1679 21.0223 20.9295Z" fill="black"/>
</svg>
