<svg width="32" height="32" viewBox="0 0 32 32" fill="none" xmlns="http://www.w3.org/2000/svg">
<path fill-rule="evenodd" clip-rule="evenodd" d="M10.1218 4.84434C8.48414 4.97129 7.05048 5.51738 5.98096 6.53408C4.7404 7.71352 4.11768 9.40499 4.11768 11.4299V22.3726C4.1178 24.4212 4.73779 26.1349 5.97445 27.3336C7.20616 28.5274 8.92457 29.0886 10.8859 29.0888H21.1138C23.0754 29.0888 24.7923 28.5392 26.0239 27.3635C27.2626 26.1808 27.8819 24.4872 27.882 22.4638V11.4299C27.8877 9.40705 27.2723 7.71581 26.0343 6.53538C24.9662 5.51711 23.5313 4.97091 21.8896 4.84421V3.90625C21.8896 3.35397 21.4419 2.90625 20.8896 2.90625C20.3374 2.90625 19.8896 3.35397 19.8896 3.90625V4.81533H12.1218V3.90625C12.1218 3.35397 11.6741 2.90625 11.1218 2.90625C10.5695 2.90625 10.1218 3.35397 10.1218 3.90625V4.84434ZM20.8896 8.88542C20.3374 8.88542 19.8897 8.43767 19.8896 7.88542V6.81533H12.1218V7.88542C12.1218 8.43767 11.6741 8.88542 11.1218 8.88542C10.5696 8.88542 10.1219 8.43767 10.1218 7.88542V6.85171C8.91205 6.97122 7.9958 7.37896 7.35986 7.9833C6.60391 8.70191 6.11768 9.81893 6.11768 11.4299V11.8548H25.882V11.426C25.8869 9.81483 25.406 8.70036 24.6541 7.9833C24.0207 7.3795 23.1045 6.97093 21.8896 6.85152V7.88542C21.8896 8.43767 21.4419 8.88542 20.8896 8.88542ZM7.36637 25.8974C6.60664 25.161 6.1178 24.0165 6.11768 22.3726V13.8548H25.882V22.4638C25.8819 24.0761 25.3989 25.1959 24.6437 25.9169C23.8815 26.6447 22.7139 27.0888 21.1138 27.0888H10.8859C9.2969 27.0886 8.13112 26.6386 7.36637 25.8974Z" fill="black"/>
<path d="M14.9999 16.9975V18.9558H12.979C12.4267 18.9558 11.979 19.4036 11.979 19.9558C11.979 20.5081 12.4267 20.9558 12.979 20.9558H14.9999V23.0392C14.9999 23.5915 15.4476 24.0392 15.9999 24.0392C16.5521 24.0392 16.9999 23.5915 16.9999 23.0392V20.9558H19.0207C19.573 20.9558 20.0207 20.5081 20.0207 19.9558C20.0207 19.4036 19.573 18.9558 19.0207 18.9558H16.9999V16.9975C16.9999 16.4452 16.5521 15.9975 15.9999 15.9975C15.4476 15.9975 14.9999 16.4452 14.9999 16.9975Z" fill="black"/>
</svg>
