<svg width="32" height="32" viewBox="0 0 32 32" fill="none" xmlns="http://www.w3.org/2000/svg">
<path d="M13.5043 17.4892C13.7701 17.4887 14.0247 17.5943 14.2127 17.7822C14.4006 17.97 14.506 18.2248 14.5056 18.4905L14.4913 25.9983C14.4903 26.5506 14.0423 26.998 13.49 26.997C12.9377 26.996 12.4903 26.5467 12.4913 25.9944L12.5004 20.9072L6.04081 27.3681C5.65029 27.7586 5.01727 27.7586 4.62674 27.3681C4.23648 26.9776 4.23631 26.3445 4.62674 25.954L11.0864 19.4931L6.00044 19.5048C5.44827 19.5059 5.00033 19.0596 4.99914 18.5074C4.99798 17.9552 5.44427 17.506 5.99654 17.5048L13.5043 17.4892Z" fill="black"/>
<path d="M25.9607 4.63196C26.3513 4.24157 26.9843 4.24142 27.3748 4.63196C27.7651 5.02245 27.765 5.65555 27.3748 6.04602L20.9125 12.5057L25.9984 12.4952C26.5507 12.4941 26.9999 12.9417 27.0011 13.4939C27.002 14.0459 26.5556 14.4938 26.0037 14.4952L18.4958 14.5109C18.2299 14.5114 17.9743 14.4059 17.7862 14.2179C17.5984 14.0299 17.4928 13.7753 17.4932 13.5096L17.5076 6.00175C17.5089 5.4499 17.957 5.0036 18.5089 5.00435C19.061 5.0054 19.5084 5.45358 19.5076 6.00565L19.4971 11.0916L25.9607 4.63196Z" fill="black"/>
</svg>
