<svg width="32" height="32" viewBox="0 0 32 32" fill="none" xmlns="http://www.w3.org/2000/svg">
<path d="M25.4004 14.1781C25.4003 13.3933 25.047 12.6499 24.4382 12.1534L17.6478 6.62212C16.6881 5.84114 15.3119 5.84119 14.3522 6.62212L7.56185 12.1534C6.95302 12.6499 6.59965 13.3933 6.59961 14.1781V22.9177C6.59973 24.5997 7.96358 25.9646 9.64648 25.9646H22.3535C24.0364 25.9646 25.4003 24.5997 25.4004 22.9177V14.1781ZM27.4004 22.9177C27.4003 25.7039 25.1413 27.9646 22.3535 27.9646H9.64648C6.85863 27.9646 4.59973 25.7039 4.59961 22.9177V14.1781C4.59965 12.7918 5.22339 11.4799 6.29753 10.6039L13.0879 5.07134C14.7831 3.69141 17.2157 3.69136 18.9108 5.07134L25.7025 10.6039C26.7765 11.4799 27.4003 12.7918 27.4004 14.1781V22.9177Z" fill="black"/>
</svg>
