<svg width="32" height="32" viewBox="0 0 32 32" fill="none" xmlns="http://www.w3.org/2000/svg">
<path d="M22.4938 14.3008C23.0461 14.3008 23.4938 13.853 23.4938 13.3008C23.4937 12.7486 23.046 12.3008 22.4938 12.3008H9.50425C8.95206 12.3008 8.5044 12.7486 8.50425 13.3008C8.50425 13.853 8.95197 14.3008 9.50425 14.3008H22.4938ZM22.4938 18.7174C23.0461 18.7174 23.4938 18.2697 23.4938 17.7174C23.4938 17.1652 23.0461 16.7174 22.4938 16.7174H9.50425C8.95199 16.7174 8.50429 17.1652 8.50425 17.7174C8.50425 18.2697 8.95197 18.7174 9.50425 18.7174H22.4938ZM15.7699 23.1328C16.3222 23.1328 16.7699 22.6851 16.7699 22.1328C16.7699 21.5805 16.3222 21.1328 15.7699 21.1328H9.50425C8.95197 21.1328 8.50425 21.5805 8.50425 22.1328C8.50425 22.6851 8.95197 23.1328 9.50425 23.1328H15.7699Z" fill="black"/>
<path fill-rule="evenodd" clip-rule="evenodd" d="M28.3833 11.5325C28.3124 8.50865 25.9178 6.08432 22.9446 5.92874V4.96216C22.9446 4.40987 22.4969 3.96216 21.9446 3.96216C21.3923 3.96216 20.9446 4.40987 20.9446 4.96216V5.92179L17.0019 5.92179V4.96216C17.0019 4.41008 16.5539 3.96249 16.0019 3.96216C15.4496 3.96216 15.0019 4.40987 15.0019 4.96216V5.92179L11.0566 5.92179V4.96216C11.0566 4.40987 10.6089 3.96216 10.0566 3.96216C9.50437 3.96223 9.05659 4.40992 9.05659 4.96216V5.92781C6.00875 6.08431 3.60396 8.61167 3.6138 11.6822L3.6138 22.315C3.68163 25.3902 6.1526 27.8463 9.19192 27.9348L9.4888 27.9361H22.5331C25.6702 27.9548 28.2584 25.4846 28.3846 22.3502L28.3859 22.3098V16.9517C28.3858 14.2913 28.3846 11.5729 28.3833 11.5325ZM17.0019 7.92179H20.9446V9.16789C20.9446 9.72017 21.3923 10.1679 21.9446 10.1679C22.4969 10.1679 22.9446 9.72017 22.9446 9.16789V7.93328C24.836 8.08746 26.3428 9.65944 26.3846 11.5976L26.3848 12.0272C26.3851 12.8855 26.3858 14.9048 26.3859 16.9517V22.2838C26.296 24.3352 24.5981 25.9505 22.5409 25.9361H9.44453C7.37406 25.9805 5.65943 24.34 5.6138 22.2708L5.6125 11.6757C5.6052 9.76605 7.03163 8.17996 8.88724 7.94914L9.05659 7.93683V9.16789C9.05659 9.72013 9.50437 10.1678 10.0566 10.1679C10.6089 10.1679 11.0566 9.72017 11.0566 9.16789V7.92179H15.0019V9.16789C15.0019 9.72017 15.4496 10.1679 16.0019 10.1679C16.5539 10.1676 17.0019 9.71997 17.0019 9.16789V7.92179Z" fill="black"/>
</svg>
