<svg width="32" height="32" viewBox="0 0 32 32" fill="none" xmlns="http://www.w3.org/2000/svg">
<path d="M16.6021 4.50708C16.2458 4.23854 15.754 4.23851 15.3977 4.50708L15.3742 4.524C15.3614 4.53388 15.3434 4.54799 15.3208 4.56567C15.2758 4.60107 15.2119 4.6525 15.132 4.71801C14.9723 4.84914 14.7483 5.03983 14.481 5.28312C13.9472 5.76904 13.2341 6.47238 12.5227 7.34432C11.1279 9.05376 9.62161 11.5491 9.65678 14.3977L9.66069 14.7258C9.72789 16.356 10.5288 17.7951 11.6333 18.8248C12.801 19.9132 14.3819 20.6143 15.9888 20.6008C15.9932 20.6009 15.9962 20.6008 16.0005 20.6008C16.0044 20.6008 16.0084 20.6022 16.0123 20.6021C17.6186 20.6151 19.1989 19.9128 20.3664 18.8248C21.5447 17.7267 22.3775 16.1626 22.343 14.3977C22.3781 11.5491 20.8721 9.05374 19.4771 7.34432C18.7655 6.47238 18.0527 5.76904 17.5188 5.28312C17.2511 5.03957 17.0263 4.84918 16.8664 4.71801C16.7865 4.65244 16.7227 4.60105 16.6776 4.56567C16.6552 4.54806 16.637 4.53385 16.6242 4.524C16.618 4.51922 16.6059 4.50996 16.6021 4.50708ZM16.1724 6.76229C16.653 7.19968 17.2932 7.83131 17.9276 8.60864C19.2196 10.1917 20.3777 12.2382 20.343 14.3951C20.3428 14.4075 20.3427 14.4204 20.343 14.4329C20.364 15.5239 19.8486 16.5732 19.0031 17.3612C18.1525 18.154 17.0435 18.6153 16.0123 18.6021C16.004 18.602 15.9958 18.602 15.9875 18.6021C14.9563 18.6153 13.8469 18.1551 12.9966 17.3625C12.1516 16.5748 11.6363 15.5303 11.6568 14.4394V14.3951C11.6221 12.2381 12.7817 10.1917 14.0735 8.60864C14.7074 7.83173 15.3457 7.1996 15.8261 6.76229C15.8858 6.70792 15.9462 6.65931 16.0005 6.61124C16.0546 6.65906 16.113 6.70823 16.1724 6.76229Z" fill="black"/>
<path d="M13.6067 13.2948C13.0548 13.2769 12.5922 13.7103 12.5742 14.2623V14.2779C12.5351 16.2817 14.3997 17.5445 16.013 17.524C16.565 17.5168 17.0069 17.0631 17 16.511C16.9929 15.9587 16.5392 15.517 15.9869 15.524C15.1975 15.5339 14.5627 14.907 14.5742 14.317C14.5857 13.7702 14.1548 13.3127 13.6067 13.2948Z" fill="black"/>
<path d="M3.99316 22.5417C3.99322 21.3973 4.68279 20.4676 5.56348 19.7786C6.45373 19.0822 7.67026 18.5203 9.06348 18.1003C9.59208 17.9409 10.1499 18.2398 10.3096 18.7682C10.4689 19.2969 10.1701 19.8547 9.6416 20.0143C8.38611 20.3928 7.42236 20.8623 6.79525 21.3529C6.15874 21.8508 5.99322 22.2639 5.99316 22.5417C5.99316 22.7789 6.1101 23.1082 6.54264 23.5143C6.97733 23.9223 7.66085 24.3363 8.58822 24.7044C10.4374 25.4385 13.0608 25.9141 16.0088 25.9141C18.9564 25.914 21.579 25.4383 23.4281 24.7044C24.3555 24.3363 25.0389 23.9223 25.4736 23.5143C25.9065 23.108 26.0244 22.7789 26.0244 22.5417C26.0244 22.2757 25.873 21.8874 25.2992 21.4154C24.7306 20.9479 23.8517 20.493 22.6937 20.1146C22.169 19.9429 21.8829 19.3777 22.0544 18.8529C22.2261 18.3284 22.7902 18.0424 23.3148 18.2135C24.6108 18.637 25.7424 19.1904 26.57 19.8711C27.392 20.5472 28.0244 21.4472 28.0244 22.5417C28.0244 23.5119 27.524 24.3327 26.8421 24.9726C26.162 25.6109 25.2322 26.1407 24.1663 26.5638C22.0288 27.4123 19.1442 27.914 16.0088 27.9141C12.8731 27.9141 9.98757 27.4124 7.84994 26.5638C6.78414 26.1407 5.85419 25.6109 5.17415 24.9726C4.49244 24.3327 3.99316 23.5117 3.99316 22.5417Z" fill="black"/>
</svg>
