<svg width="32" height="32" viewBox="0 0 32 32" fill="none" xmlns="http://www.w3.org/2000/svg">
<path d="M17.8264 6.45296C17.8264 5.45381 17.0169 4.64332 16.0178 4.64307C15.0184 4.64307 14.2079 5.45364 14.2079 6.45296C14.2082 7.45206 15.0186 8.26156 16.0178 8.26156C17.0167 8.2613 17.8261 7.45189 17.8264 6.45296ZM19.8264 6.45296C19.8261 8.55647 18.1213 10.2613 16.0178 10.2616C13.914 10.2616 12.2082 8.55662 12.2079 6.45296C12.2079 4.34909 13.9139 2.64307 16.0178 2.64307C18.1214 2.64332 19.8264 4.34923 19.8264 6.45296Z" fill="black"/>
<path fill-rule="evenodd" clip-rule="evenodd" d="M17.5683 26.8178C17.5828 26.8055 17.5959 26.7917 17.6089 26.7779C17.6153 26.7712 17.6217 26.7645 17.6282 26.7579L17.5683 26.8178ZM17.7276 26.6423C17.8492 26.4776 17.9222 26.2753 17.9222 26.0548C17.9222 25.9551 17.9076 25.8588 17.8804 25.768C17.9667 26.0613 17.9157 26.3864 17.7276 26.6423Z" fill="black"/>
<path fill-rule="evenodd" clip-rule="evenodd" d="M9.81413 25.7566C11.1122 26.4057 12.7589 26.8409 14.5649 26.9939L13.9537 27.6056C13.5633 27.9961 13.5632 28.6292 13.9537 29.0196C14.3442 29.41 14.9773 29.41 15.3678 29.0196L17.5683 26.8178L17.6282 26.7579C17.8962 26.4899 17.9803 26.1076 17.8804 25.768C17.8347 25.6127 17.7507 25.4664 17.6282 25.3439L15.3678 23.0834C14.9772 22.6929 14.3442 22.6929 13.9537 23.0834C13.5632 23.474 13.5632 24.107 13.9537 24.4975L14.4284 24.9722C12.9618 24.8171 11.6786 24.4538 10.7087 23.9689C9.34266 23.2858 8.87828 22.5266 8.87793 21.9858C8.87793 21.4449 9.34211 20.6847 10.7087 20.0014C11.2138 19.7488 11.804 19.5292 12.4608 19.3549L12.4896 19.5715C12.7184 20.8248 13.8139 21.7561 15.112 21.7563H16.9037C18.2037 21.7563 19.3002 20.8228 19.5274 19.5675L19.5562 19.3503C20.22 19.5253 20.8162 19.7466 21.3258 20.0014C22.6924 20.6848 23.1566 21.4449 23.1566 21.9858C23.1564 22.3259 22.9864 22.7397 22.4899 23.1941C21.991 23.6507 21.2236 24.0853 20.2217 24.4207C19.6981 24.5961 19.4162 25.1627 19.5915 25.6863C19.767 26.2097 20.3336 26.4917 20.8571 26.3165C22.0353 25.9221 23.0756 25.3691 23.8402 24.6694C24.6069 23.9677 25.1564 23.0561 25.1566 21.9858C25.1566 20.2794 23.7994 19.0033 22.2204 18.2136C21.4885 17.8477 20.6459 17.5497 19.7264 17.332L20.0352 13.63C20.1647 12.0754 18.9378 10.742 17.3777 10.742H14.6277C13.0656 10.7422 11.8387 12.0788 11.9714 13.6353L12.287 17.337C11.3757 17.5543 10.5404 17.8505 9.81413 18.2136C8.23514 19.0033 6.87793 20.2795 6.87793 21.9858C6.87826 23.6918 8.23535 24.967 9.81413 25.7566ZM16.986 19.7513C17.2953 19.7133 17.5426 19.4635 17.5691 19.1457L18.0417 13.4647C18.0741 13.076 17.7677 12.742 17.3777 12.742H14.6277C14.2372 12.7422 13.9304 13.0769 13.9636 13.466L14.448 19.147C14.4738 19.4488 14.6983 19.689 14.986 19.7443V18.173C14.9862 17.6209 15.4339 17.173 15.986 17.173C16.5381 17.173 16.9857 17.6209 16.986 18.173V19.7513Z" fill="black"/>
</svg>
