<svg width="32" height="32" viewBox="0 0 32 32" fill="none" xmlns="http://www.w3.org/2000/svg">
<path d="M12.8899 15.221C12.8899 14.6687 13.3376 14.221 13.8899 14.221C14.4422 14.221 14.8899 14.6687 14.8899 15.221C14.8899 15.3989 14.9558 15.7165 15.1295 15.9606C15.2669 16.1534 15.496 16.3459 16.0006 16.346C16.5058 16.346 16.735 16.1531 16.8717 15.9606C17.0447 15.7168 17.11 15.3997 17.11 15.221C17.11 14.6687 17.5577 14.221 18.11 14.221C18.6623 14.221 19.11 14.6687 19.11 15.221C19.11 15.7264 18.9622 16.4716 18.5019 17.1195C18.0051 17.8187 17.179 18.346 16.0006 18.346C14.8228 18.3459 13.9966 17.8193 13.4993 17.1208C13.0384 16.4732 12.8899 15.7273 12.8899 15.221Z" fill="black"/>
<path d="M14.8899 12.4502C14.8899 13.0025 14.4422 13.4502 13.8899 13.4502C13.3376 13.4502 12.8899 13.0025 12.8899 12.4502C12.8899 12.4502 12.8896 12.4442 12.8873 12.428C12.8851 12.4125 12.8814 12.3935 12.8756 12.3734C12.8634 12.3308 12.8472 12.2996 12.8339 12.2809C12.8232 12.2659 12.8157 12.2614 12.8157 12.2614C12.8157 12.2614 12.7826 12.2432 12.6907 12.2432C12.6049 12.2432 12.5715 12.2591 12.567 12.2614C12.567 12.2614 12.5593 12.2649 12.5488 12.2796C12.5357 12.298 12.5193 12.3296 12.5071 12.3721C12.5013 12.3923 12.4976 12.4123 12.4954 12.428C12.4936 12.4411 12.4928 12.4502 12.4928 12.4502C12.4928 13.0025 12.0451 13.4502 11.4928 13.4502C10.9405 13.4502 10.4928 13.0025 10.4928 12.4502C10.4928 12.0928 10.5941 11.5772 10.9173 11.1221C11.2773 10.6154 11.8759 10.2432 12.6907 10.2432C13.5053 10.2432 14.1039 10.6146 14.4641 11.1208C14.7879 11.5757 14.8899 12.0917 14.8899 12.4502Z" fill="black"/>
<path d="M21.5071 12.4502C21.5071 13.0025 21.0594 13.4502 20.5071 13.4502C19.9548 13.4502 19.5071 13.0025 19.5071 12.4502C19.5071 12.4502 19.5068 12.4442 19.5045 12.428C19.5023 12.4125 19.4986 12.3935 19.4928 12.3734C19.4806 12.3308 19.4644 12.2996 19.4511 12.2809C19.4404 12.2659 19.4329 12.2614 19.4329 12.2614C19.4329 12.2614 19.3998 12.2432 19.3079 12.2432C19.2221 12.2432 19.1886 12.2591 19.1842 12.2614C19.1842 12.2614 19.1765 12.2649 19.166 12.2796C19.1529 12.298 19.1365 12.3296 19.1243 12.3721C19.1185 12.3923 19.1148 12.4123 19.1126 12.428C19.1107 12.4411 19.11 12.4502 19.11 12.4502C19.11 13.0025 18.6622 13.4502 18.11 13.4502C17.5577 13.4502 17.11 13.0025 17.11 12.4502C17.11 12.0928 17.2113 11.5772 17.5345 11.1221C17.8944 10.6154 18.4931 10.2432 19.3079 10.2432C20.1225 10.2432 20.7211 10.6146 21.0813 11.1208C21.4051 11.5757 21.5071 12.0917 21.5071 12.4502Z" fill="black"/>
<path fill-rule="evenodd" clip-rule="evenodd" d="M8.41573 14.6113C8.45919 14.6076 8.50619 14.6058 8.54915 14.6056C8.50417 14.6056 8.45967 14.6075 8.41573 14.6113Z" fill="black"/>
<path fill-rule="evenodd" clip-rule="evenodd" d="M13.2666 23.4389C13.6892 23.9558 14.2596 24.3474 14.9136 24.5486V28.3786C14.9136 28.9309 15.3613 29.3786 15.9136 29.3786C16.4659 29.3786 16.9136 28.9309 16.9136 28.3786V24.5536C17.5783 24.3531 18.1576 23.9563 18.5843 23.4311C19.1314 23.6854 19.7403 23.8308 20.3825 23.8308C22.7257 23.8308 24.6374 21.9419 24.6377 19.5977L24.6375 19.5755C24.6369 19.5433 24.6353 19.5111 24.6337 19.479L24.6312 19.4259C25.9959 18.943 26.9787 17.6504 26.9788 16.1199C26.9788 15.1333 26.5709 14.2436 25.9155 13.6062C26.5709 12.9695 26.9788 12.0804 26.9788 11.0938C26.9787 9.61268 26.0585 8.35485 24.7627 7.83732C24.7664 7.7667 24.7705 7.68734 24.7705 7.61597C24.7703 5.27178 22.8586 3.38289 20.5153 3.38289C19.8803 3.38292 19.2777 3.52455 18.7354 3.77352C18.1069 3.00461 17.1492 2.5144 16.0778 2.5144C15.0032 2.51456 14.0445 3.0087 13.4163 3.78133C12.8692 3.5269 12.2592 3.38289 11.6169 3.38289C9.2737 3.38307 7.36316 5.2719 7.36296 7.61597C7.36296 7.65563 7.36496 7.69529 7.36696 7.73478L7.36947 7.78784C6.00438 8.27058 5.02064 9.56305 5.02051 11.0938C5.02051 12.0804 5.42853 12.9695 6.08406 13.6062C5.42814 14.243 5.02051 15.1329 5.02051 16.1199C5.02067 17.6015 5.94277 18.8579 7.23926 19.3751L7.23553 19.4426C7.23269 19.4941 7.23014 19.5459 7.23014 19.5977C7.23045 21.9418 9.141 23.8306 11.484 23.8308C12.12 23.8308 12.7237 23.6885 13.2666 23.4389ZM23.4502 12.6056C24.3008 12.6056 24.9788 11.922 24.9788 11.0938C24.9787 10.2998 24.3552 9.63879 23.5544 9.58602C23.2479 9.56572 22.9671 9.40607 22.7939 9.15243C22.6209 8.89874 22.5749 8.57929 22.6676 8.28654C22.7345 8.07563 22.7705 7.85029 22.7705 7.61597C22.7703 6.38911 21.7668 5.38289 20.5153 5.38289C19.9474 5.38294 19.4317 5.58998 19.0361 5.93107C18.7831 6.14902 18.4374 6.22609 18.1156 6.1368C17.7938 6.04734 17.5377 5.803 17.4333 5.48576C17.2484 4.92422 16.7131 4.5144 16.0778 4.5144C15.4395 4.51463 14.9016 4.92997 14.7197 5.49618C14.6166 5.81657 14.3592 6.06383 14.0348 6.15373C13.7105 6.24351 13.3623 6.16446 13.109 5.94279C12.7117 5.59479 12.1908 5.38289 11.6169 5.38289C10.3655 5.38307 9.36316 6.38921 9.36296 7.61597C9.36296 7.84908 9.39854 8.07329 9.46452 8.28263L9.49316 8.39592C9.54422 8.66422 9.48312 8.94384 9.32129 9.16805C9.13643 9.4241 8.84147 9.57731 8.52572 9.58211C7.68701 9.59458 7.02067 10.2731 7.02051 11.0938C7.02051 11.9219 7.69874 12.6054 8.54915 12.6055C9.10144 12.6055 9.54915 13.0533 9.54915 13.6056C9.54909 14.1578 9.1014 14.6056 8.54915 14.6056C7.70344 14.6113 7.02051 15.2952 7.02051 16.1199C7.02072 16.9137 7.64433 17.5735 8.44499 17.6264L8.55827 17.6407C8.81987 17.6882 9.05371 17.8391 9.2054 18.0613C9.37849 18.315 9.42576 18.6344 9.33301 18.9272C9.26616 19.1382 9.23014 19.3636 9.23014 19.5977C9.23045 20.8244 10.2327 21.8306 11.484 21.8308C12.0521 21.8308 12.5676 21.6238 12.9632 21.2826C13.2163 21.0644 13.5618 20.9876 13.8838 21.0769C14.2057 21.1663 14.4616 21.4106 14.5661 21.7279C14.751 22.2895 15.2862 22.6993 15.9215 22.6993C16.5601 22.6993 17.0977 22.2838 17.2796 21.7175C17.3827 21.3971 17.6402 21.1499 17.9645 21.06C18.2889 20.9701 18.637 21.0493 18.8903 21.2709C19.2876 21.6189 19.8087 21.8308 20.3825 21.8308C21.634 21.8308 22.6374 20.8246 22.6377 19.5977C22.6377 19.3647 22.6021 19.1403 22.5361 18.9311C22.4413 18.6299 22.4934 18.3017 22.6781 18.0457C22.863 17.7895 23.159 17.635 23.4749 17.6303C24.3135 17.6176 24.9786 16.9404 24.9788 16.1199C24.9788 15.3386 24.3755 14.6837 23.593 14.6121C23.546 14.6078 23.4984 14.6056 23.4502 14.6056C22.898 14.6055 22.4503 14.1577 22.4502 13.6056C22.4502 13.0533 22.898 12.6056 23.4502 12.6056Z" fill="black"/>
</svg>
