<svg width="32" height="32" viewBox="0 0 32 32" fill="none" xmlns="http://www.w3.org/2000/svg">
<path d="M9.11064 4.08197C9.919 4.02281 10.7465 4.23168 11.5403 4.77598L11.8789 5.02989C13.6777 6.51134 14.6451 7.71228 14.9817 8.84499C15.3457 10.0702 14.9103 11.0073 14.595 11.6588C14.2629 12.3451 14.0842 12.7081 14.1471 13.2122C14.212 13.7308 14.578 14.5947 16.0039 16.0208C17.4298 17.4463 18.2925 17.8126 18.8112 17.8775C19.3155 17.9406 19.6792 17.7607 20.3658 17.4283C21.0171 17.1131 21.9535 16.678 23.1783 17.0416C24.311 17.3779 25.5097 18.3436 26.9908 20.1419C27.7241 21.0372 28.0089 21.9888 27.9414 22.9127C27.8761 23.8049 27.4923 24.5791 27.0677 25.1835C26.3231 26.2433 25.3088 26.9759 24.97 27.1952C24.1209 27.8026 22.5957 28.3393 20.263 27.6497C17.9838 26.9759 14.944 25.1405 10.9127 21.1093C6.88219 17.0783 5.04744 14.039 4.37366 11.7604C3.6842 9.4284 4.21795 7.9035 4.82418 7.05463C5.04197 6.71845 5.77794 5.70183 6.83981 4.95567C7.44421 4.531 8.21855 4.1473 9.11064 4.08197ZM9.25647 6.07676C8.84753 6.10672 8.4177 6.29153 7.98955 6.59239C7.56511 6.89064 7.19544 7.26647 6.92054 7.58978C6.66583 7.88941 6.5231 8.10695 6.50778 8.12884C6.49076 8.15881 6.4718 8.18803 6.45179 8.21608C6.21993 8.54066 5.76835 9.42422 6.29163 11.1939C6.83088 13.0173 8.40792 15.7746 12.3281 19.6953C16.2491 23.6162 19.007 25.1926 20.8307 25.7317C22.6004 26.2547 23.4829 25.8035 23.8073 25.5716L23.8971 25.5143C23.8713 25.5289 24.1022 25.3843 24.4349 25.1015C24.7579 24.8268 25.1329 24.458 25.431 24.0338C25.7317 23.6057 25.9166 23.176 25.9466 22.7669C25.9742 22.3894 25.8774 21.939 25.4453 21.4114C24.0212 19.6829 23.1428 19.1181 22.6093 18.9596C22.1679 18.8285 21.8483 18.9332 21.2369 19.2291C20.661 19.5079 19.7546 20.0107 18.5638 19.8619C17.3868 19.7147 16.1278 18.9738 14.5885 17.4348C13.0497 15.8957 12.31 14.6378 12.1627 13.4609C12.0138 12.2701 12.5154 11.3637 12.7942 10.7877C13.09 10.1765 13.1949 9.85685 13.0638 9.4153C12.9052 8.88142 12.3412 8.00228 10.6106 6.57676C10.0836 6.14504 9.63359 6.04914 9.25647 6.07676Z" fill="black"/>
</svg>
