<svg width="32" height="32" viewBox="0 0 32 32" fill="none" xmlns="http://www.w3.org/2000/svg">
<path fill-rule="evenodd" clip-rule="evenodd" d="M13.5579 4.70508C13.4242 4.293 13.0407 4.0138 12.6074 4.01367C12.2282 4.01367 11.8858 4.22706 11.7168 4.55664L11.6556 4.70508C10.5878 7.99851 8.00633 10.5799 4.71289 11.6478C4.30059 11.7815 4.02147 12.1662 4.02148 12.5996C4.0216 13.0329 4.30081 13.4164 4.71289 13.5501C8.00601 14.6177 10.5876 17.1995 11.6556 20.4941C11.7892 20.9065 12.1739 21.1868 12.6074 21.1868C13.0408 21.1867 13.4243 20.9064 13.5579 20.4941C14.6258 17.1994 17.2076 14.6178 20.5007 13.5501C20.9129 13.4165 21.1919 13.033 21.1921 12.5996C21.1921 12.1661 20.913 11.7815 20.5007 11.6478C17.2075 10.5798 14.6257 7.99834 13.5579 4.70508Z" fill="black"/>
<path d="M22.7958 17.5866C23.2292 17.5866 23.6139 17.8657 23.7476 18.278C24.2921 19.9573 25.6088 21.2739 27.288 21.8184C27.6999 21.9521 27.9791 22.3358 27.9794 22.7689C27.9794 23.2022 27.7001 23.5869 27.288 23.7207C25.609 24.265 24.2922 25.5811 23.7476 27.2611C23.614 27.6735 23.2293 27.9538 22.7958 27.9538C22.3625 27.9536 21.9789 27.6733 21.8453 27.2611C21.3009 25.5811 19.984 24.265 18.3049 23.7207C17.8927 23.587 17.6135 23.2023 17.6135 22.7689C17.6138 22.3357 17.8929 21.952 18.3049 21.8184C19.9842 21.2739 21.3009 19.9572 21.8453 18.278L21.9065 18.1296C22.0755 17.8002 22.4169 17.5868 22.7958 17.5866Z" fill="black"/>
</svg>
