<?xml version="1.0" encoding="UTF-8"?>
<svg id="Capa_1" xmlns="http://www.w3.org/2000/svg" version="1.1" viewBox="0 0 32 32">
  <!-- Generator: Adobe Illustrator 30.0.0, SVG Export Plug-In . SVG Version: 2.1.1 Build 123)  -->
  <defs>
    <style>
      .st0 {
        fill-rule: evenodd;
      }
    </style>
  </defs>
  <path class="st0" d="M28.77,9.61c-.85-1.02-2.34-1.23-3.43-.51l-.21.15-2.6,2.09c-.02-.27-.06-.53-.11-.78l4.55-4.3c.4-.38.42-1.01.04-1.41-.38-.4-1.01-.42-1.41-.04l-3.96,3.75c-.18-.29-.39-.56-.63-.81-1.03-1.09-2.5-1.69-4.2-1.69h-8.38c-1.7,0-3.17.6-4.2,1.69-1.03,1.08-1.55,2.57-1.55,4.23v7.77c0,1.65.52,3.14,1.55,4.23.18.19.37.36.58.52l-.51.48c-.4.38-.42,1.01-.04,1.41.38.4,1.01.42,1.41.04l1.04-.99c.54.15,1.11.22,1.72.22h8.38c1.71,0,3.17-.6,4.2-1.69.89-.94,1.41-2.19,1.53-3.59l2.58,2.08c.46.37,1.04.58,1.64.58,1.42,0,2.59-1.13,2.6-2.56v-9.24c.02-.6-.2-1.18-.58-1.64ZM6.27,23.09c-.23-.14-.43-.31-.6-.5-.62-.65-1-1.62-1-2.85v-7.77c0-1.23.39-2.2,1.01-2.85.61-.65,1.53-1.07,2.75-1.07h8.38c1.22,0,2.14.42,2.75,1.07.23.24.42.52.58.85l-13.86,13.12ZM20.56,13.28v6.46c0,1.23-.39,2.2-1.01,2.85-.61.65-1.53,1.07-2.75,1.07h-8.22l11.98-11.34v.96ZM27.34,20.47c0,.3-.26.57-.6.57-.14,0-.27-.05-.38-.13l-3.81-3.08v-3.94l3.82-3.08c.23-.18.55-.17.76,0l.09.08c.09.1.13.23.13.35l-.02,9.23Z"/>
</svg>