<?xml version="1.0" encoding="UTF-8"?>
<svg id="Capa_1" xmlns="http://www.w3.org/2000/svg" version="1.1" viewBox="0 0 32 32">
  <!-- Generator: Adobe Illustrator 30.0.0, SVG Export Plug-In . SVG Version: 2.1.1 Build 123)  -->
  <defs>
    <style>
      .st0 {
        fill-rule: evenodd;
      }
    </style>
  </defs>
  <path class="st0" d="M13.36,11.7c-.55,0-1,.45-1,1v1.92c.06.5.48.9,1,.9s.94-.39.99-.9v-.1s0-1.82,0-1.82c0-.55-.45-1-1-1Z"/>
  <path class="st0" d="M18.64,11.7c-.55,0-1,.45-1,1v1.92c.06.5.48.9,1,.9s.94-.39.99-.9v-.1s0-1.82,0-1.82c0-.55-.45-1-1-1Z"/>
  <path class="st0" d="M24.54,16.62v-3.17c0-1.6-.44-3.06-1.32-4.15-.9-1.1-2.2-1.74-3.75-1.74h-2.47v-2.6c0-.55-.45-1-1-1s-1,.45-1,1v2.6h-2.7c-1.54,0-2.85.64-3.74,1.74-.88,1.08-1.32,2.54-1.32,4.15v3.17c-1.94.1-3.48,1.7-3.48,3.66v4.07c0,.55.45,1,1,1s1-.45,1-1v-4.07c0-.81.58-1.48,1.34-1.63.05,0,.09-.02.14-.02,0,1.6.44,3.07,1.32,4.15.55.67,1.25,1.17,2.07,1.46,0,.04,0,.07,0,.11v2.78c0,.55.45,1,1,1s1-.45,1-1v-2.61h6.63v2.61c0,.55.45,1,1,1s1-.45,1-1v-2.78s0-.09,0-.14c.78-.29,1.46-.78,1.99-1.43.88-1.08,1.32-2.55,1.32-4.15.83.09,1.48.8,1.48,1.66v4.07c0,.55.45,1,1,1,.55,0,1-.45,1-1v-4.07c0-1.96-1.54-3.57-3.48-3.66ZM22.54,18.64c0,1.26-.34,2.24-.87,2.88-.51.62-1.24,1-2.2,1h-7.17c-.96,0-1.69-.38-2.2-1-.53-.64-.87-1.63-.87-2.88v-.02h13.3v.02ZM22.54,16.62h-13.3v-3.16c0-1.26.34-2.24.87-2.88.51-.63,1.24-1,2.19-1h7.17c.96,0,1.69.38,2.2,1,.53.64.87,1.63.87,2.88v3.16Z"/>
</svg>