<?xml version="1.0" encoding="UTF-8"?>
<svg id="Capa_1" xmlns="http://www.w3.org/2000/svg" version="1.1" viewBox="0 0 32 32">
  <!-- Generator: Adobe Illustrator 30.0.0, SVG Export Plug-In . SVG Version: 2.1.1 Build 123)  -->
  <defs>
    <style>
      .st0 {
        fill-rule: evenodd;
      }
    </style>
  </defs>
  <path class="st0" d="M25.01,19.06c1.68,0,3.06-1.36,3.06-3.05s-1.37-3.06-3.06-3.06-3.06,1.37-3.06,3.06,1.38,3.05,3.06,3.05ZM25.01,14.95c.58,0,1.06.47,1.06,1.06s-.48,1.05-1.06,1.05-1.06-.47-1.06-1.05.48-1.06,1.06-1.06Z"/>
  <path class="st0" d="M24.99,20.59l-.33-.07c-.76-.12-1.44.06-1.96.22-.16.05-.3.1-.43.14-.42.14-.72.23-1.04.25h-.22c-.22-.03-.46-.11-.75-.25-.16-.07-.31-.16-.49-.26l2.7-8.39c.42-1.29-.4-2.66-1.74-2.9-1.33-.24-2.57.73-2.65,2.08l-.52,8.94v.21s.02.06.02.09c-.22.49-.02,1.07.46,1.31.15.08.31.16.48.26l.13.08c.22.12.47.27.73.39.53.25,1.18.48,1.94.44.6-.04,1.22-.24,1.67-.38.1-.03.19-.06.28-.09.54-.16.88-.21,1.18-.13.6.16.97.64,1.01,1.32,0,1.2,0,1.45-.26,3.01-.09.54.28,1.06.82,1.15.54.09,1.06-.28,1.15-.82.28-1.7.29-2.03.29-3.38,0-.02,0-.04,0-.05-.08-1.45-.97-2.74-2.49-3.15ZM20.08,11.53c0-.15.15-.26.29-.23.15.03.24.18.19.32l-.6,1.88.12-1.97Z"/>
  <path class="st0" d="M17.61,8.5l-1.84-1.46v-1.1c0-.55-.45-1-1-1-.4,0-.75.24-.91.59l-1.27-1c-.88-.7-2.1-.74-3.02-.13l-.18.13-5.02,3.97c-.43.34-.51.97-.16,1.4.2.25.49.38.78.38v4c0,1.68,1.36,3.04,3.04,3.04h1.34s.03,0,.05,0,.03,0,.05,0h3.04s.03,0,.05,0,.03,0,.05,0h1.34c1.68,0,3.04-1.36,3.04-3.04v-4c.29,0,.58-.13.78-.38.34-.43.27-1.06-.16-1.4ZM11.56,15.33h-1.14v-1.48c0-.28,0-.44,0-.55,0,0,.01-.01.01-.01.11,0,.27,0,.55,0s.44,0,.55,0c0,0,.01.01.01.01,0,.11,0,.27,0,.55v1.48ZM14.99,14.28c0,.58-.47,1.04-1.04,1.04h-.39v-1.5c0-.24,0-.48-.02-.68-.01-.16-.04-.35-.1-.54l-.08-.19-.08-.15c-.2-.34-.5-.61-.85-.78-.26-.13-.52-.17-.74-.18-.2-.02-.44-.02-.68-.02h-.04c-.24,0-.48,0-.68.02-.22.02-.48.06-.74.18-.41.2-.74.53-.93.93-.13.26-.17.52-.18.74-.02.2-.02.44-.02.68v1.5h-.39c-.58,0-1.04-.47-1.04-1.04v-5.3l2.96-2.34-.19,1.17c-.05.32.05.65.29.88l2.01,1.98c.39.39,1.03.38,1.41-.01.39-.39.38-1.03-.01-1.41l-1.64-1.61.17-1.02,3.01,2.38v5.3Z"/>
</svg>