<?xml version="1.0" encoding="UTF-8"?>
<svg id="Capa_1" xmlns="http://www.w3.org/2000/svg" version="1.1" viewBox="0 0 32 32">
  <!-- Generator: Adobe Illustrator 30.0.0, SVG Export Plug-In . SVG Version: 2.1.1 Build 123)  -->
  <defs>
    <style>
      .st0 {
        fill-rule: evenodd;
      }
    </style>
  </defs>
  <path class="st0" d="M20.99,26.01h-9.99c-.55,0-1,.45-1,1s.45,1,1,1h9.99c.55,0,1-.45,1-1s-.45-1-1-1Z"/>
  <path class="st0" d="M27.93,17.85l-4.41-8.58s-.02-.04-.03-.06c0,0-.01-.02-.01-.03-.11-.21-.29-.36-.5-.45-.01,0-.03-.01-.04-.02-.1-.04-.2-.07-.31-.07-.01,0-.03,0-.04,0-.04,0-.07,0-.11,0-.02,0-.03,0-.05,0h-.01s-.02,0-.03,0l-5.19.83v-4.55c0-.55-.45-1-1-1-.55,0-1,.45-1,1v4.88l-5.95.96h-.04s-.09.02-.13.04c-.15.05-.28.12-.4.23-.05.05-.09.1-.13.15l-.07.12s0,.02-.01.02c0,.02-.02.04-.03.05l-4.36,8.58c-.15.29-.14.64.01.93,2.09,3.9,7.6,4.01,10.54.13.23-.31.27-.72.09-1.06l-3.83-7.44,9.92-1.6-3.51,6.91c-.15.29-.14.64.01.93,2.09,3.9,7.6,4.01,10.54.13.23-.31.27-.72.09-1.06ZM12.62,20.3c-2.1,2.26-5.15,1.95-6.52.08l.06-.12h6.44l.02.04ZM11.58,18.27h-4.4l2.19-4.3,2.21,4.3ZM22.97,8.73s-.02-.01-.03-.02c.01,0,.02.01.03.02ZM22.59,11.84l2.21,4.3h-4.4l2.19-4.3ZM19.33,18.26l.06-.12h6.44l.02.04c-2.1,2.26-5.15,1.95-6.52.08Z"/>
</svg>