<svg width="32" height="32" viewBox="0 0 32 32" fill="none" xmlns="http://www.w3.org/2000/svg">
<path d="M26.9819 13.6334C27.5342 13.6334 27.9819 14.0811 27.9819 14.6334C27.9819 15.1857 27.5342 15.6334 26.9819 15.6334L5.01709 15.6334C4.46481 15.6334 4.01709 15.1857 4.01709 14.6334C4.01709 14.0811 4.46481 13.6334 5.01709 13.6334L26.9819 13.6334Z" fill="black"/>
<path d="M25.3158 12.1073L25.588 12.093C26.9329 11.9567 27.9825 10.8215 27.9825 9.44067V8.10734C27.9825 6.63458 26.7886 5.44067 25.3158 5.44067H23.9825C22.5097 5.44067 21.3158 6.63458 21.3158 8.10734V9.44067L21.3302 9.71281C21.4574 10.9682 22.455 11.9657 23.7104 12.093L23.9825 12.1073H25.3158ZM25.9825 9.44067C25.9825 9.80886 25.684 10.1073 25.3158 10.1073H23.9825C23.6143 10.1073 23.3158 9.80886 23.3158 9.44067V8.10734C23.3158 7.73915 23.6143 7.44067 23.9825 7.44067H25.3158C25.684 7.44067 25.9825 7.73915 25.9825 8.10734V9.44067Z" fill="black"/>
<path d="M18.3093 18.5917C17.283 16.814 14.7173 16.8141 13.6908 18.5917L11.3171 22.7011C10.3228 24.4233 11.4963 26.5626 13.4369 26.6946L13.627 26.7011H18.3731L18.5632 26.6946C20.5035 26.5622 21.676 24.4232 20.6817 22.7011L18.3093 18.5917ZM18.95 23.7011C19.2065 24.1454 18.886 24.7007 18.3731 24.7011H13.627C13.1138 24.7011 12.7936 24.1455 13.0502 23.7011L15.4226 19.5917C15.6792 19.1474 16.321 19.1473 16.5776 19.5917L18.95 23.7011Z" fill="black"/>
<path d="M8.68376 8.77401C8.68376 8.03763 8.0868 7.44067 7.35042 7.44067C6.61404 7.44067 6.01709 8.03763 6.01709 8.77401C6.01709 9.51039 6.61404 10.1073 7.35042 10.1073C8.0868 10.1073 8.68376 9.51039 8.68376 8.77401ZM10.6838 8.77401C10.6838 10.615 9.19137 12.1073 7.35042 12.1073C5.50947 12.1073 4.01709 10.615 4.01709 8.77401C4.01709 6.93306 5.50947 5.44067 7.35042 5.44067C9.19137 5.44067 10.6838 6.93306 10.6838 8.77401Z" fill="black"/>
</svg>
