<svg width="32" height="32" viewBox="0 0 32 32" fill="none" xmlns="http://www.w3.org/2000/svg">
<path d="M11.1609 17.2084C11.7132 17.2084 12.1609 17.6561 12.1609 18.2084C12.1609 18.7607 11.7132 19.2084 11.1609 19.2084H8.70909C8.15681 19.2084 7.70909 18.7607 7.70909 18.2084C7.70909 17.6561 8.15681 17.2084 8.70909 17.2084H11.1609Z" fill="black"/>
<path fill-rule="evenodd" clip-rule="evenodd" d="M19.8491 22.8918C19.8423 22.8972 19.8348 22.9033 19.8271 22.9095L19.8067 22.926C19.8211 22.9144 19.8364 22.902 19.8491 22.8918Z" fill="black"/>
<path fill-rule="evenodd" clip-rule="evenodd" d="M4.39281 13.6003C4.1236 13.5647 3.85451 13.5278 3.58556 13.4897C3.03891 13.412 2.65908 12.9062 2.7366 12.3594C2.81428 11.8128 3.3201 11.433 3.86681 11.5105C4.47667 11.597 5.08723 11.6769 5.69837 11.7502C5.7062 11.7324 5.71351 11.7145 5.72024 11.6967L7.14602 7.73444C7.62476 6.37585 8.85608 5.34765 10.2775 5.11075C14.0736 4.51223 17.9399 4.51224 21.7359 5.11075C23.1642 5.34161 24.3989 6.37055 24.8804 7.73444L26.3127 11.711C26.3167 11.7221 26.3209 11.7332 26.3252 11.7441C26.9195 11.6725 27.5133 11.5946 28.1064 11.5105C28.6532 11.433 29.1603 11.8127 29.2379 12.3594C29.3154 12.9062 28.9344 13.4121 28.3876 13.4897C28.138 13.525 27.8882 13.5594 27.6384 13.5926L28.0679 14.1693C28.8471 15.2327 29.2725 16.5232 29.2736 17.8412C29.2741 18.3935 28.8272 18.842 28.2749 18.8425C27.7226 18.843 27.2741 18.3948 27.2736 17.8425C27.2727 16.9489 26.9878 16.0787 26.4598 15.3581L25.3489 13.8669C19.1392 14.5288 12.8767 14.5303 6.66681 13.8714L5.54316 15.4206C5.02801 16.1319 4.75116 16.9876 4.7528 17.866L4.73066 24.9727C4.73003 25.1744 4.89355 25.3386 5.09524 25.3386H7.79837C7.9995 25.3385 8.16295 25.175 8.16295 24.974V24.4154C8.16295 23.1099 9.22075 22.0511 10.5262 22.0508H11.9064C12.4587 22.0509 12.9064 22.4986 12.9064 23.0508C12.9064 23.6031 12.4587 24.0508 11.9064 24.0508H10.5262C10.3252 24.0511 10.163 24.2146 10.163 24.4154V24.974C10.163 26.2797 9.104 27.3385 7.79837 27.3386H5.09524C3.78682 27.3386 2.72692 26.276 2.73066 24.9675L2.7528 17.8647C2.75143 16.5651 3.1621 15.2972 3.92467 14.2449L4.39281 13.6003ZM24.2784 11.9663C18.7806 12.4968 13.2446 12.4984 7.74658 11.9713L9.02754 8.41283L9.13691 8.15762C9.42428 7.60386 9.98099 7.18614 10.5965 7.0834C14.1825 6.51885 17.8349 6.52105 21.4208 7.08601C22.1277 7.20032 22.7618 7.73686 22.9989 8.41283L24.2784 11.9663Z" fill="black"/>
<path d="M24.6386 15.1049C24.09 15.044 21.9531 15.0357 19.6698 15.7716L19.3742 15.8732C17.899 16.415 16.457 17.4483 15.6724 18.9708C15.2671 19.7565 14.9923 20.7706 15.149 21.8706C15.2595 22.6464 15.5788 23.4173 16.151 24.1393C15.7904 24.7352 15.4609 25.4187 15.2261 26.1808C15.0635 26.7085 15.3597 27.2684 15.8873 27.4312C16.4151 27.5938 16.9751 27.2977 17.1377 26.7699C17.2762 26.3204 17.4597 25.9008 17.6673 25.5153C18.6405 26.156 19.6263 26.4127 20.5643 26.3732C21.5354 26.3321 22.3819 25.9777 23.0461 25.5268L23.3196 25.3276C24.7627 24.2088 25.5234 22.4555 25.7349 20.8146C26.0418 18.4349 25.6451 16.3363 25.4849 15.8081L25.4315 15.67C25.2847 15.36 24.9863 15.1437 24.6386 15.1049ZM18.2479 21.6263C18.0271 21.8225 17.7366 22.0986 17.4192 22.4476C17.2548 22.1458 17.1676 21.8561 17.1294 21.588C17.0548 21.0631 17.1573 20.542 17.3586 20.0815L17.4511 19.8875C17.9832 18.8548 19.0645 18.0683 20.2831 17.6752C21.6397 17.238 22.9302 17.1119 23.7076 17.0854C23.8232 17.8541 23.9341 19.1447 23.7518 20.5581C23.5883 21.8273 23.0117 23.0356 22.0943 23.7469C21.6448 24.0957 21.0852 24.3489 20.4797 24.3745C20.0102 24.3942 19.45 24.2806 18.8203 23.8795C19.1135 23.5491 19.3822 23.2934 19.5759 23.1213C19.6752 23.0331 19.7548 22.9678 19.8067 22.926L19.8271 22.9095C19.8461 22.8942 19.8638 22.8799 19.8721 22.8734C20.3157 22.5446 20.4086 21.9188 20.0798 21.4752C19.7509 21.0316 19.1227 20.9393 18.679 21.2682L18.6669 21.2782L18.6275 21.3085C18.6071 21.3242 18.5812 21.3441 18.5509 21.3686C18.4763 21.4287 18.3728 21.5154 18.2479 21.6263Z" fill="black"/>
</svg>
