<svg width="32" height="32" viewBox="0 0 32 32" fill="none" xmlns="http://www.w3.org/2000/svg">
<path fill-rule="evenodd" clip-rule="evenodd" d="M16.6549 6.62232C16.834 6.80174 16.931 7.03241 16.9455 7.26721C16.9329 6.94577 16.7685 6.66332 16.522 6.48948L16.6549 6.62232Z" fill="black"/>
<path fill-rule="evenodd" clip-rule="evenodd" d="M15.2045 24.142C15.2448 24.0769 15.2924 24.0169 15.3465 23.9635C15.2914 24.0186 15.244 24.0786 15.2045 24.142ZM15.0538 24.6615L15.0535 24.6796C15.0536 24.8618 15.1044 25.0306 15.1909 25.1764C15.0979 25.018 15.0522 24.8396 15.0538 24.6615ZM15.3465 25.3775C15.3554 25.3865 15.364 25.3958 15.3726 25.4051C15.3914 25.4254 15.4102 25.4457 15.432 25.463L15.3465 25.3775Z" fill="black"/>
<path d="M23.8621 11.9218V20.0624C23.8621 21.2385 23.4546 22.1175 22.8218 22.707C22.1809 23.3038 21.2266 23.6796 20.0119 23.6796H18.4585L19.0457 23.0924C19.4363 22.7018 19.4363 22.0688 19.0457 21.6783C18.6552 21.288 18.0221 21.2879 17.6317 21.6783L15.3465 23.9635C15.1557 24.1543 15.0581 24.4114 15.0538 24.6615C15.0493 24.9231 15.147 25.1779 15.3465 25.3775L15.432 25.463L17.6447 27.6757C18.0352 28.066 18.6683 28.0661 19.0588 27.6757C19.449 27.2852 19.449 26.6521 19.0588 26.2616L18.4767 25.6796H20.0119C21.6397 25.6796 23.1113 25.1706 24.1851 24.1705C25.2669 23.1629 25.8621 21.7323 25.8621 20.0624V11.9218C25.862 10.2527 25.2666 8.82342 24.1851 7.81633C23.1112 6.81667 21.6396 6.30724 20.0119 6.30721C19.4596 6.30721 19.0119 6.75493 19.0119 7.30721C19.0119 7.8595 19.4596 8.30721 20.0119 8.30721C21.2268 8.30724 22.1809 8.68328 22.8218 9.27987C23.4545 9.86888 23.862 10.7466 23.8621 11.9218Z" fill="black"/>
<path d="M12.9426 5.7382L13.5116 6.30721H11.988C10.3591 6.30734 8.88788 6.81988 7.81478 7.82023C6.73418 8.82784 6.13782 10.2565 6.1377 11.9218V20.0637C6.13778 21.7331 6.73432 23.1631 7.81608 24.1705C8.88971 25.1701 10.3605 25.6795 11.988 25.6796C12.5402 25.6796 12.9879 25.2319 12.988 24.6796C12.988 24.1273 12.5402 23.6796 11.988 23.6796C10.7734 23.6795 9.8189 23.3037 9.17806 22.707C8.54526 22.1176 8.13778 21.239 8.1377 20.0637V11.9218C8.13781 10.7517 8.54572 9.87316 9.17936 9.28247C9.82077 8.68471 10.7747 8.30734 11.988 8.30721H13.5549L12.9556 8.90747C12.5653 9.29802 12.5652 9.93109 12.9556 10.3215C13.3462 10.7119 13.9793 10.7119 14.3697 10.3215L16.6549 8.03638C16.8658 7.82537 16.9626 7.54342 16.9455 7.26721C16.931 7.03241 16.834 6.80174 16.6549 6.62232L16.522 6.48948L14.3567 4.32414C13.9662 3.93362 13.3331 3.93362 12.9426 4.32414C12.5521 4.71467 12.5521 5.34768 12.9426 5.7382Z" fill="black"/>
</svg>
