<?xml version="1.0" encoding="UTF-8"?>
<svg id="Capa_1" xmlns="http://www.w3.org/2000/svg" version="1.1" viewBox="0 0 32 32">
  <!-- Generator: Adobe Illustrator 30.0.0, SVG Export Plug-In . SVG Version: 2.1.1 Build 123)  -->
  <defs>
    <style>
      .st0 {
        fill-rule: evenodd;
      }
    </style>
  </defs>
  <path class="st0" d="M25.11,16.38V6.69c0-1.38-1.05-2.52-2.39-2.65h-.27s-15.6-.01-15.6-.01h-.27c-1.34.15-2.39,1.29-2.39,2.67v18.68c0,1.47,1.19,2.67,2.67,2.67h14.79v-2.47c0-.4-.24-.76-.61-.92-1.3-.56-2.2-1.84-2.2-3.33,0-.87.3-1.66.81-2.28v1.29c0,.63.31,1.21.84,1.56l.92.62.12.07c.49.28,1.07.32,1.59.12.13-.05.26-.11.38-.2l.92-.62c.32-.22.56-.52.7-.87.08-.22.13-.45.13-.69v-1.29c.51.62.81,1.41.81,2.28,0,.94-.36,1.79-.94,2.43-.35.38-.77.68-1.25.89-.32.14-.54.43-.59.77v.15s-.01,2.35-.01,2.35c.5-.16.94-.46,1.26-.86.14-.17.29-.32.47-.45,1.57-1.06,3.07-3.32,3.07-5.28,0-2.14-1.19-3.99-2.94-4.94ZM13.52,26.04h-6.68c-.37,0-.67-.3-.67-.67v-10.17h7.34v10.83ZM13.52,13.2h-7.34v-1.08h7.34v1.08ZM13.52,10.12h-7.34v-.95h7.34v.95ZM13.52,7.17h-7.34v-.48c0-.37.3-.67.67-.67h6.68v1.14ZM23.11,20.35l-.67.45-.8-.54v-3.19c0-.34-.17-.65-.45-.83-.28-.19-.63-.22-.94-.09-2.01.85-3.42,2.84-3.42,5.17,0,1.98,1.03,3.72,2.58,4.72h-3.89v-10.83h7.59v5.15ZM23.11,13.2h-7.59v-1.08h7.59v1.08ZM23.11,10.12h-7.59v-.95h7.59v.95ZM23.11,7.17h-7.59v-1.14h6.92c.37,0,.67.3.67.67v.48Z"/>
</svg>