<svg width="32" height="32" viewBox="0 0 32 32" fill="none" xmlns="http://www.w3.org/2000/svg">
<path d="M27.0708 23.1673C27.6229 23.1676 28.0708 23.6152 28.0708 24.1673C28.0708 24.7195 27.6229 25.1671 27.0708 25.1673H10.7427C10.1904 25.1673 9.74271 24.7196 9.74271 24.1673C9.74271 23.6151 10.1904 23.1673 10.7427 23.1673H27.0708Z" fill="black"/>
<path d="M27.0708 15.0059C27.6229 15.0061 28.0708 15.4537 28.0708 16.0059C28.0708 16.558 27.6229 17.0057 27.0708 17.0059H10.7427C10.1904 17.0059 9.74271 16.5582 9.74271 16.0059C9.74271 15.4536 10.1904 15.0059 10.7427 15.0059H27.0708Z" fill="black"/>
<path d="M27.0708 6.84442C27.6229 6.84464 28.0708 7.29227 28.0708 7.84442C28.0708 8.39657 27.6229 8.84421 27.0708 8.84442H10.7427C10.1904 8.84442 9.74271 8.39671 9.74271 7.84442C9.74271 7.29214 10.1904 6.84442 10.7427 6.84442H27.0708Z" fill="black"/>
<path d="M5.45117 6.49137C6.13384 6.56052 6.66732 7.1373 6.66732 7.83903C6.66732 8.5874 6.06051 9.19315 5.31315 9.1932C4.61161 9.1932 4.0346 8.65991 3.96549 7.97705L3.95898 7.83903L3.96549 7.70101C4.0346 7.01815 4.6116 6.48486 5.31315 6.48486L5.45117 6.49137Z" fill="black"/>
<path d="M5.4512 14.8353C6.13367 14.9044 6.66735 15.481 6.66735 16.183C6.66731 16.9314 6.06051 17.5371 5.31318 17.5371C4.61166 17.5371 4.03467 17.0039 3.96553 16.321L3.95902 16.183L3.96553 16.0449C4.03461 15.3619 4.61184 14.8288 5.31318 14.8288L5.4512 14.8353Z" fill="black"/>
<path d="M5.45117 22.8147C6.13401 22.8838 6.66729 23.4609 6.66732 24.1623C6.66732 24.9104 6.06075 25.5164 5.31315 25.5165C4.56475 25.5165 3.95898 24.9097 3.95898 24.1623C3.95901 23.415 4.56477 22.8081 5.31315 22.8081L5.45117 22.8147Z" fill="black"/>
</svg>
