<?xml version="1.0" encoding="UTF-8"?>
<svg id="Capa_1" xmlns="http://www.w3.org/2000/svg" version="1.1" viewBox="0 0 32 32">
  <!-- Generator: Adobe Illustrator 30.0.0, SVG Export Plug-In . SVG Version: 2.1.1 Build 123)  -->
  <defs>
    <style>
      .st0 {
        fill-rule: evenodd;
      }
    </style>
  </defs>
  <path class="st0" d="M15.96,7.8c.55,0,1-.45,1-1v-1.89c0-.55-.45-1-1-1s-1,.45-1,1v1.89c0,.55.45,1,1,1Z"/>
  <path class="st0" d="M7.15,13.36l-1.64-.95c-.48-.28-1.09-.11-1.37.37-.28.48-.11,1.09.37,1.37l1.64.95c.48.28,1.09.11,1.37-.37.28-.48.11-1.09-.37-1.37Z"/>
  <path class="st0" d="M27.85,12.78c-.28-.48-.89-.64-1.37-.37l-1.64.95c-.48.28-.64.89-.37,1.37.28.48.89.64,1.37.37l1.64-.95c.48-.28.64-.89.37-1.37Z"/>
  <path class="st0" d="M24.84,7.1c-.39-.39-1.02-.39-1.41,0l-1.34,1.34c-.39.39-.39,1.02,0,1.41.39.39,1.02.39,1.41,0l1.34-1.34c.39-.39.39-1.02,0-1.41Z"/>
  <path class="st0" d="M9.95,9.85c.39-.39.39-1.02,0-1.41l-1.34-1.34c-.39-.39-1.02-.39-1.41,0s-.39,1.02,0,1.41l1.34,1.34c.39.39,1.02.39,1.41,0Z"/>
  <path class="st0" d="M14.46,9.3c-2.82.58-5.09,2.84-5.68,5.66-.71,3.41.98,6.58,3.7,8.05v1.48c0,1.93,1.58,3.51,3.51,3.51,1.93,0,3.51-1.58,3.51-3.51v-1.5c2.31-1.24,3.88-3.67,3.88-6.48,0-4.59-4.19-8.18-8.92-7.22ZM17.5,24.5c0,.83-.68,1.51-1.51,1.51-.83,0-1.51-.68-1.51-1.51v-1.1h3.02v1.1ZM15.1,16.56h1.85l-.78,4.84h-.3l-.78-4.84ZM18.25,21.4h-.05l.91-5.68c.05-.29-.04-.58-.23-.81-.19-.22-.47-.35-.76-.35h-4.2c-.29,0-.57.13-.76.35-.19.22-.27.52-.23.81l.91,5.68h-.12c-2.14-.99-3.53-3.4-2.98-6.03.43-2.04,2.08-3.69,4.12-4.1,3.47-.7,6.52,1.92,6.52,5.26,0,2.17-1.28,4.03-3.13,4.87Z"/>
</svg>