<svg width="33" height="32" viewBox="0 0 33 32" fill="none" xmlns="http://www.w3.org/2000/svg">
<path fill-rule="evenodd" clip-rule="evenodd" d="M6.8302 6.11644C8.03898 4.81961 9.76041 4.09375 11.793 4.09375H22.1495C24.1868 4.09375 25.909 4.8192 27.1173 6.11679C28.3186 7.40694 28.9432 9.18789 28.9432 11.1862V20.944C28.9432 22.9423 28.3186 24.7233 27.117 26.0135C25.9086 27.3111 24.1861 28.0365 22.1483 28.0365H11.793C9.75563 28.0365 8.0337 27.3109 6.82575 26.0134C5.62474 24.7232 5.00049 22.9422 5.00049 20.944V11.1862C5.00049 9.18687 5.62812 7.40608 6.8302 6.11644ZM8.17744 7.37221C7.34594 8.26428 6.84224 9.56928 6.84224 11.1862V20.944C6.84224 22.5621 7.34394 23.8669 8.17383 24.7584C8.99677 25.6426 10.2107 26.1947 11.793 26.1947H22.1483C23.7313 26.1947 24.9459 25.6424 25.7693 24.7583C26.5995 23.8667 27.1015 22.5619 27.1015 20.944V11.1862C27.1015 9.56826 26.5995 8.26343 25.7694 7.37186C24.9461 6.48771 23.7318 5.9355 22.1495 5.9355H11.793C10.2167 5.9355 9.00225 6.48732 8.17744 7.37221Z" fill="black"/>
<path fill-rule="evenodd" clip-rule="evenodd" d="M10.7039 11.1957C10.1546 10.3859 10.7348 9.29146 11.7133 9.29146H14.5113C15.0642 9.29146 15.5812 9.56549 15.8916 10.0231L23.3076 20.957C23.8568 21.7667 23.2768 22.8612 22.2982 22.8612H19.5002C18.9473 22.8612 18.4303 22.5872 18.1199 22.1296L10.7039 11.1957ZM12.8869 11.1332L19.5924 21.0195H21.1245L14.4191 11.1332H12.8869Z" fill="black"/>
<path fill-rule="evenodd" clip-rule="evenodd" d="M16.3906 16.4687C16.7724 16.8048 16.8094 17.3866 16.4734 17.7684L12.0371 22.8075C11.7011 23.1893 11.1192 23.2262 10.7374 22.8902C10.3557 22.5541 10.3187 21.9722 10.6547 21.5905L15.091 16.5515C15.427 16.1697 16.0089 16.1327 16.3906 16.4687Z" fill="black"/>
<path fill-rule="evenodd" clip-rule="evenodd" d="M22.7656 9.23557C23.1473 9.57164 23.1843 10.1535 22.8482 10.5353L18.6762 15.2743C18.3401 15.6561 17.7583 15.693 17.3765 15.357C16.9948 15.0209 16.9578 14.439 17.2939 14.0573L21.4659 9.31827C21.802 8.93653 22.3839 8.89951 22.7656 9.23557Z" fill="black"/>
</svg>
