<svg width="32" height="32" viewBox="0 0 32 32" fill="none" xmlns="http://www.w3.org/2000/svg">
<path d="M12.1873 20.6926C12.2258 20.7703 12.2666 20.8471 12.3095 20.9231C12.4818 21.2253 12.6813 21.5061 12.904 21.7629C13.9369 22.9547 15.4673 23.6337 17.079 23.5715C17.6307 23.5501 18.0612 23.0855 18.04 22.5338C18.0277 22.2151 17.8674 21.937 17.6278 21.7629C17.4527 21.6356 17.2352 21.564 17.0022 21.5728C16.1175 21.607 15.2721 21.2807 14.6456 20.6926H16.6997C17.2281 20.6923 17.6612 20.2822 17.6973 19.7629C17.6989 19.7397 17.6997 19.7163 17.6997 19.6926C17.6995 19.1407 17.2516 18.6929 16.6997 18.6926H13.6772C13.6756 18.6678 13.6742 18.6429 13.6731 18.6181C13.6717 18.5822 13.6709 18.5462 13.6707 18.5103C13.6704 18.44 13.6726 18.3696 13.6774 18.2994H16.6997C17.2517 18.2991 17.6997 17.8515 17.6997 17.2994C17.6997 16.7473 17.2517 16.2997 16.6997 16.2994H14.6483C15.2746 15.713 16.119 15.3877 17.0022 15.4218C17.5538 15.4427 18.0187 15.0125 18.04 14.4609C18.0612 13.9091 17.6307 13.4446 17.079 13.4231C15.1197 13.3475 13.2795 14.3729 12.3082 16.0754C12.2665 16.1493 12.2269 16.224 12.1892 16.2994H11.9445C11.3922 16.2994 10.9445 16.7471 10.9445 17.2994C10.9445 17.7593 11.255 18.1467 11.6778 18.2634C11.6764 18.2914 11.6753 18.3194 11.6745 18.3474L11.6738 18.3733C11.6714 18.4703 11.6718 18.5736 11.6752 18.6705L11.6776 18.7287C11.255 18.8455 10.9447 19.2329 10.9445 19.6926C10.9445 19.7077 10.9449 19.7226 10.9456 19.7375C10.946 19.746 10.9463 19.7545 10.9469 19.7629C10.983 20.2824 11.4159 20.6926 11.9445 20.6926H12.1873Z" fill="black"/>
<path fill-rule="evenodd" clip-rule="evenodd" d="M24.5968 24.039C24.5968 24.407 24.2982 24.7054 23.9302 24.7056H5.29606C4.92787 24.7056 4.62939 24.4072 4.62939 24.039V12.9036C4.62939 12.5354 4.92787 12.2369 5.29606 12.2369H23.9302C24.2982 12.2371 24.5968 12.5355 24.5968 12.9036V24.039ZM26.5968 24.039V21.7629H26.7039L26.9761 21.7486C28.2313 21.6212 29.229 20.6237 29.3563 19.3684L29.3706 19.0963V7.96086C29.3706 6.58013 28.3208 5.44505 26.9761 5.30851L26.7039 5.29419H8.06982L7.79769 5.30851C6.45279 5.44486 5.40316 6.57999 5.40316 7.96086V10.2369H5.29606L5.02393 10.2512C3.67902 10.3876 2.62939 11.5227 2.62939 12.9036V24.039C2.62939 25.5117 3.8233 26.7056 5.29606 26.7056H23.9302L24.2023 26.6913C25.4575 26.5639 26.4553 25.5664 26.5825 24.3111L26.5968 24.039ZM26.5968 19.7629V12.9036C26.5968 11.5228 25.547 10.3878 24.2023 10.2512L23.9302 10.2369H7.40316V7.96086C7.40316 7.59267 7.70163 7.29419 8.06982 7.29419H26.7039C27.0719 7.29441 27.3706 7.5928 27.3706 7.96086V19.0963C27.3706 19.4643 27.0719 19.7627 26.7039 19.7629H26.5968Z" fill="black"/>
</svg>
