<?xml version="1.0" encoding="UTF-8"?>
<svg id="Capa_1" xmlns="http://www.w3.org/2000/svg" version="1.1" viewBox="0 0 32 32">
  <!-- Generator: Adobe Illustrator 30.0.0, SVG Export Plug-In . SVG Version: 2.1.1 Build 123)  -->
  <defs>
    <style>
      .st0 {
        fill-rule: evenodd;
      }
    </style>
  </defs>
  <path class="st0" d="M25.83,11.1c0-.15-.03-.29-.09-.42-.14-.62-.46-1.2-.92-1.66l-4.12-4.12c-.65-.65-1.52-1.01-2.44-1.01h-8.64c-1.91,0-3.45,1.55-3.45,3.45v17.16c0,1.91,1.55,3.45,3.45,3.45h12.75c1.91,0,3.45-1.54,3.45-3.45v-13.06c0-.08,0-.15,0-.23,0-.04,0-.09,0-.13ZM19.74,6.79l3.32,3.31h-2.48c-.46,0-.84-.38-.84-.84v-2.48ZM23.83,24.52c0,.8-.65,1.45-1.45,1.45h-12.75c-.8,0-1.45-.65-1.45-1.45V7.36c0-.8.65-1.45,1.45-1.45h8.12v3.36c0,1.57,1.27,2.84,2.84,2.84h3.24v12.42Z"/>
  <path class="st0" d="M20,22.09h-8.01c-.55,0-1,.45-1,1s.45,1,1,1h8.01c.55,0,1-.45,1-1s-.45-1-1-1Z"/>
  <path class="st0" d="M20,18.78h-8.01c-.55,0-1,.45-1,1,0,.55.45,1,1,1h8.01c.55,0,1-.45,1-1,0-.55-.45-1-1-1Z"/>
  <path class="st0" d="M18.46,15.47c-.55,0-1,.45-1,1,0,.55.45,1,1,1h1.54c.55,0,1-.45,1-1,0-.55-.45-1-1-1h-1.54Z"/>
  <path class="st0" d="M17.56,12.22s0-.04,0-.07v-.02s0-.06,0-.1c0-2.43-1.97-4.39-4.39-4.39-.03,0-.05,0-.08,0-.01,0-.03,0-.04,0-.04,0-.07,0-.11,0-2.32.12-4.17,2.04-4.17,4.39,0,2.43,1.97,4.39,4.39,4.39,2.36,0,4.29-1.87,4.39-4.21ZM14.06,9.81c.61.24,1.1.73,1.34,1.34h-1.34v-1.34ZM10.78,12.04c0-.92.52-1.71,1.28-2.12v1.85c0,.76.62,1.38,1.38,1.38h1.86c-.4.76-1.2,1.28-2.12,1.28-1.32,0-2.39-1.07-2.39-2.39Z"/>
</svg>