<svg width="32" height="32" viewBox="0 0 32 32" fill="none" xmlns="http://www.w3.org/2000/svg">
<path d="M23.3356 18.0807V10.3737L25.695 12.7448C26.0847 13.1358 26.7178 13.1369 27.109 12.7474C27.5003 12.3577 27.5013 11.7247 27.1116 11.3333L23.0439 7.2474L22.8916 7.1224C22.7283 7.01311 22.5351 6.95313 22.3356 6.95312C22.0698 6.95316 21.8149 7.05905 21.6273 7.2474L17.5596 11.3333C17.1699 11.7247 17.1708 12.3577 17.5622 12.7474C17.9534 13.137 18.5865 13.1358 18.9762 12.7448L21.3356 10.3737V18.0807C21.3356 18.633 21.7834 19.0806 22.3356 19.0807C22.8879 19.0807 23.3356 18.633 23.3356 18.0807Z" fill="black"/>
<path d="M5.33301 23.0547C4.78085 23.0547 4.33322 23.5026 4.33301 24.0547C4.33301 24.607 4.78072 25.0547 5.33301 25.0547L26.6663 25.0547C27.2186 25.0547 27.6663 24.607 27.6663 24.0547C27.6661 23.5026 27.2185 23.0547 26.6663 23.0547L5.33301 23.0547ZM5.33431 15.4753C4.78203 15.4753 4.33431 15.923 4.33431 16.4753C4.33441 17.0275 4.78209 17.4753 5.33431 17.4753L13.9424 17.4753C14.4945 17.4752 14.9423 17.0274 14.9424 16.4753C14.9424 15.923 14.4946 15.4753 13.9424 15.4753L5.33431 15.4753ZM5.33431 7.64062C4.78203 7.64062 4.33431 8.08833 4.33431 8.64062C4.33431 9.1929 4.78203 9.64062 5.33431 9.64062L13.9424 9.64062C14.4946 9.64052 14.9424 9.19284 14.9424 8.64062C14.9424 8.08839 14.4946 7.64071 13.9424 7.64062L5.33431 7.64062Z" fill="black"/>
</svg>
