<svg width="32" height="32" viewBox="0 0 32 32" fill="none" xmlns="http://www.w3.org/2000/svg">
<path d="M14.5292 9.93021C15.2346 8.91851 16.7667 8.91827 17.4719 9.93021L17.6099 10.162L18.744 12.4289L21.2883 12.7961C22.7456 13.007 23.3674 14.8017 22.2792 15.8469L20.4485 17.6073L20.8808 20.0891C21.1376 21.5752 19.5702 22.6469 18.2779 21.9758L15.9992 20.7948L13.7232 21.9771C12.4314 22.6475 10.8615 21.5765 11.1203 20.0891L11.5513 17.6073L9.7206 15.8482C8.6317 14.8029 9.25362 13.0066 10.7115 12.7961L13.2558 12.4289L14.3912 10.162L14.5292 9.93021ZM14.9966 13.4211C14.732 13.9506 14.2237 14.3106 13.6438 14.3937L11.425 14.7128L13.0201 16.2453C13.4459 16.6547 13.6443 17.2494 13.5422 17.8352L13.1633 20.0135L15.1698 18.9745C15.6903 18.7052 16.3114 18.704 16.8326 18.9745L18.8365 20.0135L18.4576 17.8352C18.3555 17.2494 18.5539 16.6547 18.9797 16.2453L20.5735 14.7128L18.356 14.3937C17.8477 14.3207 17.3956 14.0356 17.1138 13.6112L17.0045 13.4211L15.9992 11.4146L14.9966 13.4211Z" fill="black"/>
<path d="M25.9325 16.0522C25.9325 10.5667 21.4856 6.11987 16.0002 6.11987C10.5147 6.11987 6.06787 10.5667 6.06787 16.0522C6.06787 21.5376 10.5147 25.9845 16.0002 25.9845C21.4856 25.9845 25.9325 21.5376 25.9325 16.0522ZM27.9325 16.0522C27.9325 22.6422 22.5902 27.9845 16.0002 27.9845C9.41014 27.9845 4.06787 22.6422 4.06787 16.0522C4.06787 9.46214 9.41014 4.11987 16.0002 4.11987C22.5902 4.11987 27.9325 9.46214 27.9325 16.0522Z" fill="black"/>
</svg>
