<svg width="32" height="32" viewBox="0 0 32 32" fill="none" xmlns="http://www.w3.org/2000/svg">
<path d="M25.8758 11.1985C25.8758 9.62568 25.3874 8.36553 24.5894 7.50838C23.7988 6.65936 22.6298 6.12437 21.0959 6.12427H10.9032C9.37502 6.12427 8.20577 6.65853 7.41357 7.50838C6.61411 8.36609 6.12451 9.62668 6.12451 11.1985V20.8014C6.12453 22.3743 6.61186 23.6344 7.40967 24.4915C8.19999 25.3405 9.36902 25.8756 10.9032 25.8756H21.0946C22.6292 25.8755 23.7987 25.3404 24.5894 24.4915C25.3876 23.6343 25.8758 22.3742 25.8758 20.8014V11.1985ZM27.8758 20.8014C27.8758 22.7873 27.2542 24.5647 26.0529 25.8547C24.8441 27.1526 23.123 27.8755 21.0946 27.8756H10.9032C8.87488 27.8756 7.15452 27.1516 5.94613 25.8534C4.74544 24.5634 4.12453 22.787 4.12451 20.8014V11.1985C4.12451 9.2116 4.74837 7.43451 5.95003 6.1451C7.1592 4.84786 8.87952 4.12427 10.9032 4.12427H21.0959C23.1239 4.12437 24.8443 4.8472 26.0529 6.1451C27.2541 7.4351 27.8758 9.21251 27.8758 11.1985V20.8014Z" fill="black"/>
<path d="M19.5229 12.4615C19.1324 12.071 18.4993 12.071 18.1088 12.4615L15.9973 14.573L13.8858 12.4615C13.4953 12.071 12.8623 12.071 12.4717 12.4615C12.0812 12.852 12.0813 13.485 12.4717 13.8756L14.583 15.9873L12.4747 18.0956C12.0842 18.4861 12.0842 19.1192 12.4747 19.5097C12.8652 19.9001 13.4983 19.9001 13.8888 19.5097L15.9969 17.4015L18.1097 19.5149C18.5002 19.9054 19.1345 19.9067 19.5251 19.5162C19.9157 19.1257 19.9156 18.4914 19.5251 18.1008L17.4114 15.9871L19.5229 13.8756C19.9133 13.485 19.9133 12.852 19.5229 12.4615Z" fill="black"/>
</svg>
