<?xml version="1.0" encoding="UTF-8"?>
<svg id="Capa_1" xmlns="http://www.w3.org/2000/svg" version="1.1" viewBox="0 0 32 32">
  <!-- Generator: Adobe Illustrator 30.0.0, SVG Export Plug-In . SVG Version: 2.1.1 Build 123)  -->
  <defs>
    <style>
      .st0 {
        fill-rule: evenodd;
      }
    </style>
  </defs>
  <path class="st0" d="M23.33,9.33v-4h-3.66c-1.24,0-2.42.27-3.47.76-1.06-.49-2.24-.76-3.48-.76h-3.66v4h-3.73v8l.02.48c.21,4.28,3.31,7.8,7.39,8.66.62.13,1.27.2,1.93.2h2.66c.66,0,1.31-.07,1.93-.2,4.08-.86,7.18-4.38,7.4-8.66v-.48s.01-8,.01-8h-3.34ZM19.35,7.34h.32s1.66-.01,1.66-.01v2h-.04c-.47,0-.94.03-1.4.08-.43-.72-.96-1.37-1.58-1.93.33-.07.68-.12,1.04-.14ZM11.06,7.33h1.99c.35.03.7.08,1.04.15.76.17,1.47.47,2.11.89.6.4,1.14.9,1.58,1.48-.62.18-1.21.41-1.78.68-.47-.22-.96-.42-1.46-.58-.66-.22-1.35-.39-2.07-.49-.46-.07-.93-.11-1.41-.12v-2.01ZM18.77,24.53c-.29.09-.6.14-.93.14h-3.68c-.33,0-.64-.05-.93-.14-1.65-.33-3.1-1.21-4.15-2.44-1.09-1.28-1.75-2.94-1.75-4.76v-6h3.38c.16,0,.33.01.49.02.15,0,.3.01.45.03.68.06,1.34.19,1.98.38.08.02.17.05.25.07.75.25,1.46.58,2.12.98.87.52,1.65,1.17,2.32,1.92.05.05.09.09.12.14.41.47.77.97,1.09,1.51.02.04.05.08.07.12.85,1.5,1.34,3.23,1.34,5.07,0,1.39-.91,2.56-2.17,2.96ZM24.67,17.33c0,1.82-.66,3.48-1.75,4.76,0-.04,0-.08.01-.11,0-.05,0-.1.01-.15v-.26c0-2.33-.65-4.5-1.78-6.36-.09-.15-.18-.29-.28-.44-.28-.42-.58-.81-.91-1.19-.32-.37-.65-.72-1.01-1.05-.27-.24-.55-.47-.84-.7.2-.06.41-.12.61-.17.65-.17,1.31-.27,2-.31.04,0,.08,0,.13,0,.11,0,.22-.01.33-.01h3.48v6Z"/>
</svg>