<?xml version="1.0" encoding="UTF-8"?>
<svg id="Capa_1" xmlns="http://www.w3.org/2000/svg" version="1.1" viewBox="0 0 32 32">
  <!-- Generator: Adobe Illustrator 30.0.0, SVG Export Plug-In . SVG Version: 2.1.1 Build 123)  -->
  <defs>
    <style>
      .st0 {
        fill-rule: evenodd;
      }
    </style>
  </defs>
  <path class="st0" d="M18.8,11.33c-.21-.35-.5-.73-.83-.95-.26-.18-.6-.22-.9-.11-.1.04-.2.09-.28.16-.14-.31-.32-.63-.57-.92-.21-.25-.53-.38-.85-.35-.28.02-.54.17-.71.39l-.07.1c-.09.16-.18.29-.26.42-.03.04-.05.07-.08.11-.06.09-.13.18-.19.26-.02.03-.05.06-.07.09-.17.22-.35.42-.53.66-.41.52-.76,1.11-.9,2.05-.24,1.61.65,2.85,1.83,3.42,1.15.56,2.66.51,3.83-.42,1.28-1.02,1.39-2.43,1.15-3.51-.12-.53-.34-1.01-.56-1.4ZM16.97,14.67c-.51.4-1.18.44-1.71.18-.5-.24-.81-.7-.72-1.33.07-.49.23-.76.5-1.11.05-.07.11-.14.17-.21,0,.09.01.18.01.24,0,.06,0,.1,0,.12,0,0,0,.02,0,.02-.03.32.1.63.34.84.24.21.57.29.88.22.39-.09.7-.29.95-.52,0,.02.01.04.02.06.14.6.04,1.11-.44,1.49Z"/>
  <path class="st0" d="M21.81,4.54l-.48-.12c-3.5-.84-7.15-.84-10.64,0l-.48.12c-1.2.29-2.04,1.36-2.04,2.59v12.54c.11,1.15.95,2.11,2.09,2.36.05,1.54,1.06,2.86,2.47,3.34v1.66c0,.55.45,1,1,1s1-.45,1-1v-1.41l1.24.07h.05s.05,0,.05,0l1.05-.06v1.4c0,.55.45,1,1,1s1-.45,1-1v-1.6c1.5-.43,2.6-1.79,2.66-3.4,1.13-.25,1.97-1.21,2.08-2.36v-.24s.01-12.3.01-12.3c0-1.23-.84-2.3-2.04-2.59ZM18.19,23.57l-2.19.12-2.19-.12c-.72-.04-1.31-.53-1.51-1.19,2.45.36,4.94.36,7.39,0-.2.66-.79,1.15-1.51,1.19ZM21.85,19.43c0,.32-.23.6-.55.66l-1.32.23c-2.63.45-5.32.45-7.95,0l-1.32-.23c-.32-.06-.55-.33-.55-.66V7.13c0-.31.21-.58.51-.65l.48-.12c3.19-.77,6.52-.77,9.7,0l.48.12c.3.07.51.34.51.65v12.3Z"/>
</svg>