<svg width="32" height="32" viewBox="0 0 32 32" fill="none" xmlns="http://www.w3.org/2000/svg">
<path fill-rule="evenodd" clip-rule="evenodd" d="M21.8068 12.2825H24.8763C26.9369 12.2825 28.6133 13.9484 28.6133 16.0103L28.6146 26.0572C28.6143 27.5926 26.8978 28.4911 25.6328 27.6392L22.9596 25.8398C22.8758 25.7833 22.7762 25.7526 22.6745 25.7525H13.9297C11.869 25.7525 10.1927 24.0866 10.1927 22.0247V17.5025H9.32633C9.22439 17.5025 9.12518 17.5332 9.04118 17.5898L6.368 19.3892C5.103 20.2412 3.38647 19.3427 3.38623 17.8072V7.76034C3.38623 5.69844 5.06258 4.03249 7.12321 4.03247H18.0711C20.1316 4.03278 21.8068 5.69863 21.8068 7.76034V12.2825ZM24.8763 14.2825H21.7725C21.5241 16.1031 19.9594 17.5022 18.0711 17.5025H12.1927V22.0247C12.1927 22.9757 12.9672 23.7525 13.9297 23.7525H22.6745C23.1737 23.7526 23.6626 23.902 24.0768 24.1809L26.6133 25.8879V16.0103C26.6133 15.0594 25.8387 14.2825 24.8763 14.2825ZM18.0711 6.03247C19.0334 6.03278 19.8068 6.80952 19.8068 7.76034V13.7747C19.8068 14.7255 19.0333 15.5022 18.0711 15.5025H9.32633C8.88924 15.5025 8.46073 15.6166 8.08285 15.832L7.92399 15.9309L5.38623 17.6379V7.76034C5.38623 6.80936 6.16079 6.03249 7.12321 6.03247H18.0711Z" fill="black"/>
</svg>
