<svg width="32" height="32" viewBox="0 0 32 32" fill="none" xmlns="http://www.w3.org/2000/svg">
<path fill-rule="evenodd" clip-rule="evenodd" d="M18.3158 5.45564C17.3653 3.55711 14.6348 3.55711 13.6843 5.45564L11.3327 10.1562C11.2508 10.3198 11.0867 10.4404 10.8913 10.4687L5.6283 11.2252C3.5246 11.5289 2.64555 14.1087 4.20122 15.6028L8.00721 19.2603L8.09445 19.3671C8.16683 19.4822 8.19437 19.6183 8.17127 19.7512L7.27414 24.914C6.90435 27.0362 9.14948 28.5917 11.0189 27.621L15.7221 25.1822C15.8965 25.0921 16.1063 25.092 16.278 25.1809L20.9812 27.6197C22.8512 28.5914 25.0944 27.0351 24.7273 24.914L23.8288 19.7512C23.798 19.574 23.8567 19.3914 23.9929 19.2603L27.7976 15.6041C29.3544 14.1102 28.4744 11.5292 26.3705 11.2252L21.1075 10.4687C20.9131 10.4407 20.7512 10.3196 20.6687 10.1549L18.3158 5.45564Z" fill="black"/>
</svg>
