<svg width="32" height="32" viewBox="0 0 32 32" fill="none" xmlns="http://www.w3.org/2000/svg">
<path d="M7.79639 22.0604C7.79626 21.5656 7.39429 21.1646 6.89925 21.1646C6.40438 21.1647 6.00355 21.5657 6.00342 22.0604V25.0929C6.00342 25.5879 6.40434 25.9899 6.89925 25.9901C7.39433 25.9901 7.79639 25.588 7.79639 25.0929V22.0604ZM9.79639 25.0929C9.79639 26.6926 8.4989 27.9901 6.89925 27.9901C5.29976 27.9899 4.00342 26.6925 4.00342 25.0929V22.0604C4.00355 20.461 5.29988 19.1647 6.89925 19.1646C8.49878 19.1646 9.79626 20.4609 9.79639 22.0604V25.0929Z" fill="black"/>
<path d="M16.896 17.5031C16.8958 17.0082 16.4938 16.6073 15.9988 16.6073C15.504 16.6075 15.1032 17.0083 15.103 17.5031V25.0864C15.103 25.5814 15.5039 25.9834 15.9988 25.9836C16.4939 25.9836 16.896 25.5815 16.896 25.0864V17.5031ZM18.896 25.0864C18.896 26.6861 17.5985 27.9836 15.9988 27.9836C14.3993 27.9834 13.103 26.686 13.103 25.0864V17.5031C13.1032 15.9037 14.3995 14.6075 15.9988 14.6073C17.5984 14.6073 18.8958 15.9036 18.896 17.5031V25.0864Z" fill="black"/>
<path d="M25.9969 6.88851C25.9967 6.3936 25.5947 5.99268 25.0998 5.99268C24.6049 5.99287 24.2041 6.39372 24.2039 6.88851V25.0903C24.2042 25.5851 24.605 25.986 25.0998 25.9862C25.5947 25.9862 25.9966 25.5852 25.9969 25.0903V6.88851ZM27.9969 25.0903C27.9966 26.6898 26.6993 27.9862 25.0998 27.9862C23.5004 27.986 22.2042 26.6897 22.2039 25.0903V6.88851C22.2041 5.28914 23.5004 3.99287 25.0998 3.99268C26.6993 3.99268 27.9967 5.28902 27.9969 6.88851V25.0903Z" fill="black"/>
<path d="M15.8628 10.3026C15.8625 10.8545 15.4148 11.3025 14.8628 11.3026C14.3107 11.3026 13.8631 10.8546 13.8628 10.3026V7.40674L5.71043 15.5591C5.31995 15.9494 4.68685 15.9494 4.29637 15.5591C3.9059 15.1686 3.90602 14.5356 4.29637 14.145L12.4487 5.99268H9.55418C9.00199 5.99256 8.55418 5.54489 8.55418 4.99268C8.55418 4.44046 9.00199 3.99279 9.55418 3.99268H14.8628L14.9643 3.99788C15.4687 4.04894 15.8628 4.47481 15.8628 4.99268V10.3026Z" fill="black"/>
</svg>
