<svg width="32" height="32" viewBox="0 0 32 32" fill="none" xmlns="http://www.w3.org/2000/svg">
<path fill-rule="evenodd" clip-rule="evenodd" d="M25.4418 22.8373C25.3485 22.9306 25.2552 23.0239 25.1752 23.1173C23.6285 24.6906 22.0685 26.2773 19.7485 27.1973C16.4018 28.5173 13.2952 27.9039 10.2152 27.2773C10.1618 27.2639 10.0952 27.2639 10.0418 27.2506C8.9085 27.0239 7.85516 26.9973 6.61516 26.9973C6.12183 26.9973 5.7085 26.5839 5.7085 26.0773C5.7085 25.5706 6.12183 25.1573 6.61516 25.1573C7.85516 25.1573 9.0685 25.1573 10.3885 25.4373C13.6018 26.0773 16.2418 26.6106 19.0818 25.4906C21.0418 24.7173 22.3485 23.3839 23.9485 21.7439C24.0152 21.6773 24.0952 21.6106 24.1618 21.5306C24.5752 21.1039 24.5752 20.4106 24.1618 19.9839C23.7885 19.5973 23.1885 19.5573 22.7618 19.8773C22.4685 20.1039 22.1752 20.3573 21.8552 20.6239C21.7752 20.6773 21.6952 20.7439 21.6152 20.8106C21.2152 21.1439 20.7885 21.4906 20.3352 21.8106C19.4285 22.4373 18.3618 22.9973 17.0952 23.0373C16.7752 23.0373 16.4552 23.0239 16.1618 23.0106H16.0418C15.9352 23.0106 15.8285 23.0106 15.7352 22.9973C15.4018 22.9973 15.1085 22.9973 14.8285 23.0106H14.4552C14.0818 23.0106 13.7618 22.7839 13.6152 22.4506C13.5885 22.3973 13.5752 22.3306 13.5618 22.2639C13.5485 22.1573 13.5485 22.0506 13.5618 21.9573C13.5752 21.9039 13.5885 21.8506 13.6018 21.7973C13.7218 21.5039 13.9885 21.2773 14.3218 21.2239C14.5085 21.1973 14.6952 21.1839 14.8685 21.1706H16.1618C16.9352 21.1706 17.4552 20.6239 17.4552 19.9573C17.4552 19.3839 17.0952 18.9039 16.4818 18.7439C15.0952 18.3973 13.7885 18.1439 12.4418 18.1706C10.6552 18.2239 9.36183 19.1039 7.72183 20.2373C7.52183 20.3706 7.33516 20.5039 7.12183 20.6506C6.7085 20.9306 6.1485 20.8106 5.8685 20.3973C5.5885 19.9706 5.69516 19.3973 6.12183 19.1173C6.3085 18.9839 6.5085 18.8506 6.69516 18.7173C8.29516 17.6106 10.0418 16.3973 12.4018 16.3306C13.9885 16.2906 15.4818 16.5973 16.9218 16.9706C18.2685 17.3039 19.2685 18.4773 19.2685 19.9573C19.2685 20.0906 19.2552 20.2106 19.2418 20.3306C19.2685 20.3306 19.2818 20.3039 19.3085 20.2906C19.6952 20.0239 20.0818 19.7173 20.4685 19.3839C20.5485 19.3306 20.6152 19.2639 20.6952 19.2106C21.0152 18.9439 21.3485 18.6639 21.6685 18.4106C22.8152 17.5306 24.4285 17.6506 25.4418 18.6906C26.5752 19.8373 26.5752 21.6906 25.4418 22.8373Z" fill="black"/>
<path d="M18.4018 14.4113C18.2685 14.4113 18.1485 14.3846 18.0285 14.3313C18.0254 14.3298 18.021 14.3276 18.0153 14.3248C17.7232 14.1805 14.0245 12.3544 13.1351 9.43796C12.9485 8.93129 12.8685 8.39796 12.8818 7.86462C12.8951 7.33129 13.0285 6.79796 13.2418 6.31796C13.4685 5.82462 13.7751 5.39796 14.1618 5.02462C14.5485 4.66462 15.0018 4.38462 15.5085 4.19796C16.0951 4.01129 16.7085 3.97129 17.3085 4.07796C17.7085 4.15796 18.0818 4.31796 18.4151 4.54462C18.7485 4.31796 19.1351 4.15796 19.5351 4.07796C20.1351 3.97129 20.7485 4.01129 21.3218 4.19796C21.8151 4.38462 22.2818 4.66462 22.6685 5.02462C23.0551 5.38462 23.3751 5.82462 23.5885 6.31796C23.8151 6.81129 23.9351 7.33129 23.9485 7.87796C23.9618 8.41129 23.8818 8.94463 23.6951 9.45129C22.7552 12.3754 19.1186 14.1749 18.8166 14.3241C18.8101 14.3272 18.8051 14.3296 18.8018 14.3313C18.6818 14.3846 18.5485 14.4246 18.4285 14.4246L18.4018 14.4113ZM16.6551 5.82462C16.6578 5.82461 16.6524 5.82463 16.6551 5.82462C16.4468 5.82572 16.2376 5.85268 16.0418 5.91796C15.9918 5.93797 15.9421 5.96042 15.8932 5.98495C15.7955 6.03397 15.7002 6.09161 15.609 6.15658C15.5787 6.17821 15.5486 6.20052 15.5192 6.22371C15.4529 6.27599 15.389 6.3321 15.3283 6.39144C15.3241 6.39554 15.3198 6.39951 15.3156 6.40365C15.3131 6.4061 15.3109 6.40883 15.3085 6.41129C15.0951 6.62462 14.9351 6.87796 14.8285 7.14462C14.7218 7.42462 14.6551 7.71796 14.6551 8.01129C14.6551 8.01345 14.6551 8.00913 14.6551 8.01129C14.6551 8.02636 14.6551 8.04794 14.6554 8.06307C14.6562 8.09989 14.6578 8.13688 14.6603 8.17391C14.6642 8.23061 14.6699 8.28749 14.6779 8.34408C14.7041 8.529 14.7534 8.71127 14.8285 8.87796C15.3218 10.4913 17.3085 11.878 18.4018 12.478C19.2685 11.998 21.4018 10.6513 21.9751 8.87796C21.9821 8.86168 21.9888 8.84532 21.9953 8.82894C22.0063 8.80121 22.0167 8.77339 22.0265 8.74544C22.047 8.68712 22.0647 8.62833 22.0798 8.56917C22.0838 8.55316 22.0878 8.53714 22.0915 8.52108C22.0928 8.51535 22.0946 8.50973 22.0959 8.50399C22.1114 8.43409 22.1233 8.36373 22.1318 8.29313C22.1323 8.28943 22.1327 8.28573 22.1331 8.28204C22.139 8.2308 22.1432 8.17943 22.1457 8.12801C22.1455 8.13145 22.1458 8.12457 22.1457 8.12801C22.1458 8.12463 22.1465 8.11016 22.1466 8.10677C22.1474 8.0873 22.148 8.06303 22.1483 8.04355C22.1484 8.0328 22.1485 8.02204 22.1485 8.01129C22.1485 7.87078 22.1362 7.72721 22.1103 7.58645C22.0821 7.43334 22.0376 7.28355 21.9751 7.14462C21.9353 7.04003 21.8858 6.93935 21.8288 6.84359C21.7929 6.78334 21.7539 6.72513 21.7121 6.66927C21.6807 6.62736 21.6478 6.58678 21.6134 6.54769C21.612 6.5461 21.6051 6.53805 21.6037 6.53646C21.5647 6.49281 21.5241 6.45095 21.4818 6.41129C21.4776 6.40709 21.4731 6.40292 21.4689 6.39876C21.3384 6.2702 21.1981 6.16118 21.0446 6.06893C20.9588 6.01738 20.869 5.9712 20.7746 5.92953C20.7692 5.92715 20.7639 5.92455 20.7585 5.9222C20.7552 5.9208 20.7517 5.91935 20.7485 5.91796C20.4418 5.82462 20.1218 5.79796 19.8018 5.85129C19.4818 5.95796 19.1885 6.13129 18.9218 6.35796C18.7618 6.47796 18.5751 6.54462 18.3885 6.54462C18.3813 6.54462 18.374 6.54447 18.3669 6.54427C18.1865 6.53936 17.9961 6.47333 17.8551 6.35796C17.6018 6.13129 17.2951 5.95796 16.9751 5.85129C16.8818 5.83962 16.7782 5.82776 16.6823 5.82503C16.6732 5.82477 16.6641 5.82466 16.6551 5.82462C16.6524 5.82462 16.6445 5.82462 16.6418 5.82462H16.6551Z" fill="black"/>
</svg>
