<svg width="32" height="32" viewBox="0 0 32 32" fill="none" xmlns="http://www.w3.org/2000/svg">
<path d="M7.79613 4.4557C8.58265 4.05335 9.35659 3.94367 10.1334 4.2018C10.8363 4.43549 11.422 4.93688 11.9407 5.44398C12.2093 5.70669 12.4909 6.00239 12.7805 6.30727C13.0741 6.61637 13.3841 6.9421 13.7271 7.28513C14.6267 8.18475 14.9707 9.09366 14.9003 10.0468C14.8682 10.4803 14.7538 10.8768 14.6347 11.2161C14.5748 11.3867 14.509 11.5548 14.4485 11.7096C14.3861 11.8692 14.3294 12.0149 14.2753 12.1627C14.0632 12.7428 13.9527 13.2288 14.0631 13.7825C14.1755 14.346 14.5482 15.1272 15.6151 16.194C16.6823 17.2609 17.4634 17.634 18.0266 17.7461C18.5801 17.8561 19.0665 17.7452 19.6464 17.5325C19.794 17.4784 19.9389 17.4205 20.0982 17.358C20.253 17.2974 20.4211 17.2319 20.5917 17.1718C20.931 17.0524 21.3275 16.9374 21.761 16.9049C22.7141 16.8337 23.6228 17.1777 24.5227 18.0768C24.8661 18.4201 25.1926 18.7306 25.5019 19.0247C25.8067 19.3146 26.1027 19.5955 26.3651 19.8646C26.8721 20.3843 27.3719 20.9712 27.6047 21.6745C27.8618 22.451 27.7526 23.2245 27.3508 24.0104C26.9708 24.7536 26.3103 25.5495 25.3951 26.4648C25.3692 26.4907 25.3417 26.5161 25.3131 26.539C25.3437 26.5145 25.3549 26.4983 25.2883 26.5664C25.242 26.6137 25.1722 26.6881 25.0865 26.7695C24.9122 26.9352 24.6693 27.1417 24.3508 27.3385C23.7005 27.7404 22.7863 28.0638 21.5565 27.9896C19.1564 27.8444 15.7153 26.2004 10.662 21.1484C5.60866 16.0963 3.96259 12.6554 3.81566 10.2552C3.74039 9.0252 4.0628 8.11036 4.4641 7.45961C4.66055 7.14109 4.86748 6.8984 5.03311 6.72393L5.28441 6.47263C5.28817 6.46898 5.27786 6.47991 5.26488 6.49607C5.28757 6.46781 5.31217 6.44096 5.3378 6.41534C6.25538 5.49777 7.05236 4.83623 7.79613 4.4557ZM9.50316 6.09893C9.33871 6.04426 9.12326 6.02312 8.70759 6.23565C8.24879 6.47035 7.62955 6.95172 6.75186 7.8294C6.70132 7.88391 6.65371 7.93061 6.63337 7.95049C6.58274 8 6.53558 8.04682 6.48363 8.10154C6.38255 8.20804 6.27099 8.34092 6.16722 8.50909C5.96765 8.83266 5.76466 9.3415 5.81306 10.1328C5.91363 11.7758 7.11078 14.7702 12.0761 19.7343C17.041 24.6979 20.0341 25.894 21.6763 25.9935C22.4672 26.0413 22.9764 25.838 23.3 25.638C23.4685 25.5339 23.6008 25.4205 23.7076 25.319C23.7623 25.267 23.809 25.22 23.8586 25.1692C23.8786 25.1488 23.9276 25.1027 23.9823 25.0521C24.8572 24.1772 25.3353 23.5583 25.5696 23.1002C25.7818 22.6851 25.761 22.469 25.7063 22.3034C25.6271 22.0643 25.414 21.7549 24.9328 21.2617C24.7014 21.0244 24.4341 20.7698 24.123 20.4739C23.816 20.182 23.4723 19.8556 23.1086 19.4922C22.5428 18.9269 22.1812 18.8781 21.9094 18.8984C21.7304 18.9118 21.5251 18.9638 21.2558 19.0586C21.1222 19.1056 20.984 19.1591 20.8287 19.22C20.6778 19.2792 20.5073 19.3465 20.3339 19.4101C19.6294 19.6684 18.7259 19.9238 17.636 19.707C16.5554 19.492 15.4369 18.8436 14.2011 17.608C12.9655 16.3726 12.3177 15.2548 12.1021 14.1745C11.8846 13.0843 12.1387 12.1801 12.3964 11.4752C12.4598 11.3019 12.5275 11.1326 12.5865 10.9817C12.6472 10.8265 12.6998 10.6882 12.7466 10.5547C12.8412 10.2851 12.8935 10.079 12.9068 9.89971C12.9269 9.62747 12.8775 9.26495 12.3118 8.69919C11.9482 8.33561 11.6218 7.99208 11.33 7.68487C11.034 7.37334 10.7794 7.10557 10.5422 6.87367C10.0494 6.39179 9.74161 6.17822 9.50316 6.09893Z" fill="black"/>
<path d="M18.0842 8.96589C18.1894 8.42386 18.7141 8.06926 19.2561 8.17422C21.7019 8.64889 23.6146 10.5606 24.0894 13.0063C24.1947 13.5484 23.8399 14.0728 23.2978 14.1781C22.7557 14.2834 22.2312 13.9298 22.1259 13.3878C21.8066 11.7429 20.5207 10.4572 18.8759 10.1378C18.3339 10.0326 17.9793 9.50791 18.0842 8.96589Z" fill="black"/>
<path d="M19.1767 4.06898C23.9145 4.59513 27.6569 8.33275 28.1884 13.0703C28.2499 13.6191 27.8544 14.1142 27.3056 14.1758C26.7569 14.2373 26.2619 13.8428 26.2001 13.2942C25.7729 9.48516 22.7643 6.47881 18.9553 6.05596C18.4066 5.99484 18.0116 5.50058 18.0725 4.9518C18.1336 4.40308 18.6279 4.00806 19.1767 4.06898Z" fill="black"/>
</svg>
