<svg width="32" height="32" viewBox="0 0 32 32" fill="none" xmlns="http://www.w3.org/2000/svg">
<path fill-rule="evenodd" clip-rule="evenodd" d="M20.4442 10.8791L17.6345 13.6888C17.2447 13.462 16.8035 13.3139 16.3326 13.2662L16.0006 13.2492C14.2023 13.2492 12.7441 14.7075 12.7441 16.5057L12.761 16.8378C12.9165 18.3704 14.1347 19.5884 15.6673 19.744L16.0006 19.7609C17.6864 19.7607 19.0723 18.4797 19.2389 16.8378L19.2558 16.5057C19.2558 16.0328 19.155 15.5835 18.9738 15.1779L21.8584 12.2933C22.2489 11.9028 22.2489 11.2696 21.8584 10.8791C21.4679 10.4886 20.8347 10.4886 20.4442 10.8791ZM17.2558 16.5057C17.2558 15.8122 16.6941 15.2495 16.0006 15.2492C15.3069 15.2492 14.7441 15.812 14.7441 16.5057C14.7443 17.1992 15.3071 17.7609 16.0006 17.7609C16.694 17.7607 17.2556 17.1991 17.2558 16.5057Z" fill="black"/>
<path d="M26.0106 16.5053C26.0106 10.9767 21.5288 6.49487 16.0002 6.49487C10.4716 6.49487 5.98975 10.9767 5.98975 16.5053C5.98975 22.0339 10.4716 26.5157 16.0002 26.5157C21.5288 26.5157 26.0106 22.0339 26.0106 16.5053ZM28.0106 16.5053C28.0106 23.1385 22.6333 28.5157 16.0002 28.5157C9.36699 28.5157 3.98975 23.1385 3.98975 16.5053C3.98975 9.87212 9.36699 4.49487 16.0002 4.49487C22.6333 4.49487 28.0106 9.87212 28.0106 16.5053Z" fill="black"/>
</svg>
