<svg width="32" height="32" viewBox="0 0 32 32" fill="none" xmlns="http://www.w3.org/2000/svg">
<path d="M16.4182 20.099C16.9702 20.0993 17.4182 20.5469 17.4182 21.099C17.4182 21.651 16.9702 22.0986 16.4182 22.099H11.3309C10.7786 22.099 10.3309 21.6512 10.3309 21.099C10.3309 20.5467 10.7786 20.099 11.3309 20.099H16.4182Z" fill="black"/>
<path fill-rule="evenodd" clip-rule="evenodd" d="M18.0198 11.2669C17.8323 11.0254 17.5413 10.8796 17.2281 10.8802C17.1733 10.8803 17.1197 10.8883 17.0667 10.8971C17.0576 10.8986 17.0485 10.8999 17.0394 10.9012C17.021 10.9038 17.0026 10.9063 16.9846 10.9109L17.0667 10.8971C17.4405 10.8345 17.8009 10.9882 18.0198 11.2669Z" fill="black"/>
<path fill-rule="evenodd" clip-rule="evenodd" d="M9.58645 12.5843L9.59517 12.5664C9.61194 12.5329 9.6312 12.5005 9.65122 12.4688C9.65632 12.4608 9.66007 12.4518 9.66548 12.444C9.76424 12.301 9.89548 12.1882 10.0574 12.1133C9.88739 12.193 9.74966 12.3165 9.65122 12.4688C9.6312 12.5005 9.61194 12.5329 9.59517 12.5664C9.59221 12.5723 9.5893 12.5783 9.58645 12.5843ZM18.1491 11.483L18.1266 11.4375L18.1334 11.451C18.1388 11.4615 18.1443 11.4721 18.1491 11.483Z" fill="black"/>
<path d="M21.5818 7.84366H21.9775V7.44434C21.9775 7.16507 22.092 6.91254 22.2766 6.73111C22.457 6.55375 22.7045 6.44434 22.9775 6.44434C23.5298 6.44434 23.9775 6.89205 23.9775 7.44434V7.84366H24.363C24.9153 7.84366 25.363 8.29138 25.363 8.84366C25.363 9.39595 24.9153 9.84366 24.363 9.84366H23.9775V10.2256C23.9775 10.4133 23.9258 10.5889 23.8358 10.739C23.6611 11.0305 23.3421 11.2256 22.9775 11.2256C22.4252 11.2256 21.9775 10.7779 21.9775 10.2256V9.84366H21.5818C21.0295 9.84366 20.5818 9.39595 20.5818 8.84366C20.5818 8.58832 20.6775 8.35534 20.8349 8.17861C21.0181 7.97309 21.2848 7.84366 21.5818 7.84366Z" fill="black"/>
<path fill-rule="evenodd" clip-rule="evenodd" d="M21.5818 7.84366H21.9775V7.44434C21.9775 7.16507 22.092 6.91254 22.2766 6.73111C22.457 6.55375 22.7045 6.44434 22.9775 6.44434C23.5298 6.44434 23.9775 6.89205 23.9775 7.44434V7.84366H24.363C24.9153 7.84366 25.363 8.29138 25.363 8.84366C25.363 9.39595 24.9153 9.84366 24.363 9.84366H23.9775V10.2256C23.9775 10.4133 23.9258 10.5889 23.8358 10.739C23.6611 11.0305 23.3421 11.2256 22.9775 11.2256C22.4252 11.2256 21.9775 10.7779 21.9775 10.2256V9.84366H21.5818C21.0295 9.84366 20.5818 9.39595 20.5818 8.84366C20.5818 8.58832 20.6775 8.35534 20.8349 8.17861C21.0181 7.97309 21.2848 7.84366 21.5818 7.84366Z" fill="black"/>
<path fill-rule="evenodd" clip-rule="evenodd" d="M18.0803 11.3541C18.0616 11.3238 18.0414 11.2947 18.0198 11.2669C17.8009 10.9882 17.4405 10.8345 17.0667 10.8971" fill="black"/>
<path fill-rule="evenodd" clip-rule="evenodd" d="M9.58645 12.5843L9.59517 12.5664L9.65122 12.4688C9.74991 12.3176 9.88966 12.1934 10.0574 12.1133C10.0692 12.1078 10.0811 12.1023 10.0932 12.0972C10.1307 12.081 10.1696 12.0669 10.2096 12.0552C10.236 12.0475 10.263 12.0409 10.2904 12.0352C10.3021 12.0329 10.3139 12.0307 10.3258 12.0286L10.4624 12.0057C10.4309 12.0067 10.4003 12.0133 10.3698 12.0198C10.3551 12.023 10.3405 12.0261 10.3258 12.0286C10.3139 12.0307 10.3021 12.0329 10.2904 12.0352C10.263 12.0409 10.236 12.0475 10.2096 12.0552C10.1722 12.0662 10.1285 12.0823 10.0932 12.0972C10.0787 12.1033 10.0715 12.1065 10.0574 12.1133C9.90099 12.1868 9.76449 12.2979 9.66548 12.444L9.65122 12.4688C9.6312 12.5005 9.61194 12.5329 9.59517 12.5664C9.59221 12.5723 9.5893 12.5783 9.58645 12.5843Z" fill="black"/>
<path fill-rule="evenodd" clip-rule="evenodd" d="M10.0788 12.1035C10.0727 12.1062 10.0634 12.1104 10.0574 12.1133C9.88739 12.193 9.74966 12.3165 9.65122 12.4688C9.68888 12.4109 9.73272 12.357 9.78187 12.308C9.861 12.2289 9.95387 12.1627 10.0574 12.1133C10.0605 12.1118 10.0543 12.1147 10.0574 12.1133C10.0603 12.1119 10.0758 12.1048 10.0788 12.1035Z" fill="black"/>
<path fill-rule="evenodd" clip-rule="evenodd" d="M9.59517 12.5664L9.65122 12.4688C9.74991 12.3176 9.88966 12.1934 10.0574 12.1133C9.88739 12.193 9.74966 12.3165 9.65122 12.4688C9.6312 12.5005 9.61194 12.5329 9.59517 12.5664Z" fill="black"/>
<path fill-rule="evenodd" clip-rule="evenodd" d="M17.0667 10.8971L16.9846 10.9109L14.9755 11.2474V9.39062C14.9755 8.8385 14.5276 8.39089 13.9755 8.39062C13.4233 8.39062 12.9755 8.83834 12.9755 9.39062V11.5833L10.4624 12.0057L10.3258 12.0286C10.2864 12.0354 10.2476 12.0443 10.2096 12.0552C10.1722 12.0662 10.1285 12.0823 10.0932 12.0972C10.0811 12.1023 10.0692 12.1078 10.0574 12.1133C9.88966 12.1934 9.74991 12.3176 9.65122 12.4688L9.59517 12.5664L9.58645 12.5843L7.35168 17.1641C7.2134 17.4474 7.21662 17.7795 7.3608 18.0599C8.61936 20.5071 11.9006 20.4884 13.573 18.1914C13.7918 17.8909 13.826 17.4935 13.6616 17.1602L11.9903 13.7764L15.4769 13.1918L14.0875 16.0391C13.9491 16.3226 13.9523 16.6557 14.0966 16.9362C15.3559 19.3826 18.6356 19.3641 20.3089 17.0677C20.5279 16.767 20.5621 16.3687 20.3974 16.0352L18.1491 11.483L18.1266 11.4375C18.1124 11.4088 18.0969 11.3809 18.0803 11.3541C18.0616 11.3238 18.0414 11.2947 18.0198 11.2669C17.8009 10.9882 17.4405 10.8345 17.0667 10.8971ZM10.4975 15.2734L11.5691 17.4414C10.8111 18.107 9.92079 17.992 9.41027 17.5026L10.4975 15.2734ZM17.2347 14.1484L18.305 16.3164C17.5465 16.9822 16.6568 16.8674 16.1461 16.3776L17.2347 14.1484Z" fill="black"/>
<path fill-rule="evenodd" clip-rule="evenodd" d="M22.9256 3.84375C21.5799 3.84384 20.3585 4.37651 19.4609 5.24248C17.8961 4.59587 15.9306 4.04688 13.8542 4.04688C11.6361 4.04697 9.54521 4.67353 7.93363 5.3763C6.35157 6.06622 5.1111 6.88357 4.62634 7.36849C4.34504 7.64982 4.12542 7.97198 4.00264 8.44531C3.89813 8.84853 3.87419 9.33257 3.86983 9.91536C3.8662 10.4006 3.87743 11.0266 3.89187 11.8319L3.90238 12.4271C3.92142 13.5357 3.94144 14.9614 3.94144 16.8138C3.94144 20.8486 5.63743 23.6553 7.73441 25.4362C9.78869 27.1807 12.2416 27.953 13.8542 27.9531C15.4674 27.9531 17.9221 27.1811 19.9766 25.4362C22.0733 23.6552 23.7683 20.8484 23.7683 16.8138C23.7683 15.6282 23.7765 14.6174 23.7874 13.7527C26.0512 13.3586 27.792 11.4392 27.9113 9.09245L27.9178 8.83464C27.9176 6.07822 25.6821 3.84375 22.9256 3.84375ZM18.3085 6.93642C18.0676 7.52159 17.9347 8.1626 17.9347 8.83464C17.9347 11.1996 19.5796 13.1812 21.7877 13.6964C21.7766 14.5746 21.7683 15.604 21.7683 16.8138C21.7683 20.2206 20.3627 22.4831 18.681 23.9115C16.957 25.3757 14.9538 25.9531 13.8542 25.9531C12.7551 25.9529 10.7527 25.3756 9.02868 23.9115C7.34684 22.4831 5.94144 20.2205 5.94144 16.8138C5.94144 14.9462 5.92154 13.5086 5.90238 12.3932C5.89781 12.1272 5.89327 11.8808 5.88906 11.6522C5.87548 10.9153 5.8653 10.3631 5.86853 9.93099C5.87288 9.34918 5.90267 9.08764 5.93884 8.94792C5.95678 8.87871 5.96546 8.85881 6.0417 8.78255C6.27222 8.55167 7.25387 7.85471 8.73311 7.20964C10.1838 6.577 11.9959 6.04697 13.8542 6.04688C15.4372 6.04688 16.9871 6.43143 18.3085 6.93642ZM21.8211 11.616C20.716 11.1763 19.9347 10.0964 19.9347 8.83464C19.9347 8.45966 20.0038 8.10081 20.1298 7.77008C20.3806 7.11207 20.8569 6.56539 21.4643 6.22456C21.8964 5.98209 22.3949 5.84381 22.9256 5.84375C24.5775 5.84375 25.9176 7.18279 25.9178 8.83464C25.9178 10.175 25.0356 11.3101 23.8204 11.6906C23.5378 11.7791 23.2373 11.8268 22.9256 11.8268C22.5355 11.8268 22.1628 11.752 21.8211 11.616Z" fill="black"/>
</svg>
