<?xml version="1.0" encoding="UTF-8"?>
<svg id="Capa_1" xmlns="http://www.w3.org/2000/svg" version="1.1" viewBox="0 0 32 32">
  <!-- Generator: Adobe Illustrator 30.0.0, SVG Export Plug-In . SVG Version: 2.1.1 Build 123)  -->
  <defs>
    <style>
      .st0 {
        fill-rule: evenodd;
      }
    </style>
  </defs>
  <path class="st0" d="M26.14,6.08c-1.22-1.31-2.95-2.04-4.99-2.04h-10.28c-2.04,0-3.77.73-4.99,2.04-1.21,1.3-1.84,3.09-1.84,5.09v9.69c0,2,.63,3.79,1.83,5.09,1.22,1.31,2.95,2.04,4.99,2.04h10.28c2.04,0,3.78-.73,5-2.04,1.21-1.3,1.84-3.09,1.84-5.09v-9.69c0-2-.63-3.79-1.84-5.09ZM25.97,20.86c0,1.59-.49,2.86-1.3,3.73-.8.86-1.98,1.4-3.53,1.4h-10.28c-1.55,0-2.73-.54-3.53-1.4-.81-.87-1.3-2.14-1.3-3.73v-9.69c0-1.59.49-2.86,1.3-3.73.8-.86,1.98-1.4,3.53-1.4h10.28c1.55,0,2.73.54,3.53,1.4.81.87,1.3,2.14,1.3,3.73v9.69Z"/>
  <path class="st0" d="M21.91,13.86l-8.09-4.53c-.97-.54-2.15-.37-2.93.35-.01,0-.02.02-.03.03-.05.04-.1.09-.14.15-.12.13-.22.28-.31.44-.21.38-.32.8-.32,1.23v9.02c0,.64.24,1.22.63,1.66.04.04.08.08.12.13.45.45,1.07.72,1.75.72.42,0,.84-.11,1.22-.32l8.09-4.48c1.21-.67,1.64-2.2.97-3.41-.23-.41-.56-.74-.96-.97ZM17.25,13.54l-.86.97-2.49-2.84,3.34,1.87ZM12.08,19.39v-6.76l2.97,3.4-2.97,3.37ZM13.86,20.4l2.53-2.86.86.98-3.39,1.88ZM21.01,16.43l-.08.06-1.89,1.05-1.32-1.51,1.31-1.49,1.9,1.06c.08.05.15.11.19.2.12.21.07.48-.11.63Z"/>
</svg>