<svg width="32" height="32" viewBox="0 0 32 32" fill="none" xmlns="http://www.w3.org/2000/svg">
<path d="M9.26318 13.619C7.36318 13.619 5.76318 15.219 5.76318 17.119C5.76318 17.719 6.16318 18.119 6.76318 18.119C7.36318 18.119 7.76318 17.719 7.76318 17.119C7.76318 16.319 8.46318 15.619 9.26318 15.619C10.0632 15.619 10.7632 16.319 10.7632 17.119V27.019C10.7632 27.619 11.1632 28.019 11.7632 28.019C12.2632 28.019 12.7632 27.619 12.7632 27.019V17.119C12.7632 15.219 11.1632 13.619 9.26318 13.619Z" fill="black"/>
<path d="M19.6853 7.31453C19.6853 6.57816 19.0884 5.9812 18.352 5.9812C17.6156 5.9812 17.0187 6.57816 17.0187 7.31453C17.0187 8.05091 17.6156 8.64787 18.352 8.64787C19.0884 8.64787 19.6853 8.05091 19.6853 7.31453ZM21.6853 7.31453C21.6853 9.15548 20.193 10.6479 18.352 10.6479C16.5111 10.6479 15.0187 9.15548 15.0187 7.31453C15.0187 5.47359 16.5111 3.9812 18.352 3.9812C20.193 3.9812 21.6853 5.47359 21.6853 7.31453Z" fill="black"/>
<path fill-rule="evenodd" clip-rule="evenodd" d="M14.1255 25.5383C14.1255 26.8227 15.1328 27.8794 16.4236 28.0064L16.6853 28.019C17.3218 28.019 17.9041 27.7939 18.352 27.4213C18.7377 27.7423 19.2231 27.9538 19.757 28.0064L20.0187 28.019C21.3441 28.019 22.4345 27.0428 22.5655 25.792L22.5785 25.5383L22.5785 15.1035C22.5785 13.0296 20.8977 11.3362 18.7843 11.2324L18.5785 11.2273H18.1254C15.9163 11.2273 14.1254 12.9627 14.1254 15.1035L14.1255 25.5383ZM20.576 15.9766L20.5759 16.4277L20.5785 16.5167L20.576 18.4548L20.5786 25.5383C20.5786 25.838 20.3279 26.0809 20.0187 26.0809C19.7095 26.0809 19.4588 25.838 19.4588 25.5383V20.8083C19.4588 20.6903 19.3632 20.5947 19.2452 20.5947H17.4588C17.3409 20.5947 17.2452 20.6903 17.2452 20.8083V25.5383C17.2452 25.838 16.9945 26.0809 16.6853 26.0809C16.3761 26.0809 16.1255 25.838 16.1255 25.5383L16.1234 16.4317L16.1254 15.9766V15.1035C16.1254 14.0331 17.0208 13.1654 18.1254 13.1654H18.5785L18.783 13.1755C19.7914 13.2748 20.5785 14.1 20.5785 15.1035L20.576 15.9766Z" fill="black"/>
</svg>
