<svg width="32" height="32" viewBox="0 0 32 32" fill="none" xmlns="http://www.w3.org/2000/svg">
<path d="M11.1609 17.2084C11.7132 17.2084 12.1609 17.6561 12.1609 18.2084C12.1609 18.7607 11.7132 19.2084 11.1609 19.2084H8.7091C8.15681 19.2084 7.7091 18.7607 7.7091 18.2084C7.7091 17.6561 8.15681 17.2084 8.7091 17.2084H11.1609Z" fill="black"/>
<path fill-rule="evenodd" clip-rule="evenodd" d="M3.58556 13.4897C3.85451 13.5278 4.1236 13.5647 4.39281 13.6003L3.92467 14.2449C3.1621 15.2972 2.75143 16.5651 2.7528 17.8647L2.73066 24.9675C2.72692 26.276 3.78682 27.3386 5.09524 27.3386H7.79837C9.104 27.3385 10.163 26.2797 10.163 24.974V24.4154C10.163 24.2146 10.3252 24.0511 10.5262 24.0508H11.9064C12.4587 24.0508 12.9064 23.6031 12.9064 23.0508C12.9064 22.4986 12.4587 22.0509 11.9064 22.0508H10.5262C9.22075 22.0511 8.16295 23.1099 8.16295 24.4154V24.974C8.16295 25.175 7.99951 25.3385 7.79837 25.3386H5.09524C4.89355 25.3386 4.73003 25.1744 4.73066 24.9727L4.7528 17.866C4.75116 16.9876 5.02801 16.1319 5.54316 15.4206L6.66681 13.8714C12.8767 14.5303 19.1392 14.5288 25.3489 13.8669L26.4598 15.3581C26.9878 16.0787 27.2727 16.9489 27.2736 17.8425C27.2741 18.3948 27.7226 18.843 28.2749 18.8425C28.8272 18.842 29.2741 18.3935 29.2736 17.8412C29.2725 16.5232 28.8471 15.2327 28.0679 14.1693L27.6384 13.5926C27.8882 13.5594 28.138 13.525 28.3876 13.4897C28.9344 13.4121 29.3154 12.9062 29.2379 12.3594C29.1603 11.8127 28.6532 11.433 28.1064 11.5105C27.5133 11.5946 26.9195 11.6725 26.3252 11.7441C26.3209 11.7332 26.3167 11.7221 26.3127 11.711L24.8804 7.73444C24.3989 6.37055 23.1642 5.34161 21.7359 5.11075C17.9399 4.51224 14.0736 4.51223 10.2775 5.11075C8.85608 5.34765 7.62476 6.37585 7.14603 7.73444L5.72024 11.6967C5.71342 11.7147 5.70603 11.7325 5.69837 11.7502C5.08723 11.6769 4.47667 11.597 3.86681 11.5105C3.3201 11.433 2.81428 11.8128 2.7366 12.3594C2.65908 12.9062 3.03891 13.412 3.58556 13.4897ZM24.2784 11.9663L22.9989 8.41283C22.7618 7.73686 22.1277 7.20032 21.4208 7.08601C17.8349 6.52105 14.1825 6.51885 10.5965 7.0834C9.98099 7.18614 9.42428 7.60386 9.13691 8.15762L9.02754 8.41283L7.74658 11.9713C13.2446 12.4984 18.7806 12.4968 24.2784 11.9663Z" fill="black"/>
<path d="M18.2594 21.3126C19.3198 21.3126 20.18 22.1723 20.18 23.2331C20.1799 24.294 19.3198 25.1537 18.2594 25.1537C17.1984 25.1534 16.3389 24.2936 16.3388 23.2331C16.3388 22.1726 17.1983 21.3129 18.2594 21.3126ZM18.2594 27.1537C20.08 27.1537 21.6115 25.9123 22.0523 24.2292H24.3995V25.7331C24.3996 26.2853 24.8473 26.7331 25.3995 26.7331C25.9517 26.7331 26.3994 26.2853 26.3995 25.7331V24.2292H27.2741V25.7331C27.2742 26.2853 27.7219 26.7331 28.2741 26.7331C28.8262 26.733 29.274 26.2853 29.2741 25.7331V23.7995C29.274 22.9328 28.5705 22.2295 27.7038 22.2292H22.0503C21.6068 20.5501 20.0773 19.3126 18.2594 19.3126C16.0944 19.3129 14.3388 21.0674 14.3388 23.2331C14.3389 25.3988 16.0944 27.1534 18.2594 27.1537Z" fill="black"/>
</svg>
