<svg width="32" height="32" viewBox="0 0 32 32" fill="none" xmlns="http://www.w3.org/2000/svg">
<path fill-rule="evenodd" clip-rule="evenodd" d="M18.5791 27.9531H18.4767C18.4936 27.954 18.5105 27.9544 18.5276 27.9544C18.5449 27.9544 18.562 27.954 18.5791 27.9531ZM13.527 27.9531H13.4241C13.4411 27.954 13.4583 27.9544 13.4755 27.9544C13.4928 27.9544 13.5099 27.954 13.527 27.9531Z" fill="black"/>
<path d="M6.48939 9.87076C7.40607 8.55068 8.70507 7.54293 10.2111 6.98179C10.7286 6.78906 11.3042 7.05205 11.497 7.56953C11.6898 8.08698 11.4266 8.66255 10.9093 8.85544C9.78544 9.27418 8.81615 10.0266 8.13213 11.0117L8.02056 11.1725C7.70558 11.6261 7.08227 11.7393 6.62861 11.4243C6.17507 11.1094 6.06205 10.486 6.3768 10.0323L6.48939 9.87076Z" fill="black"/>
<path d="M25.5121 9.8716C24.5954 8.55152 23.2964 7.54377 21.7904 6.98263C21.2729 6.7899 20.6973 7.05289 20.5045 7.57037C20.3117 8.08782 20.5748 8.66339 21.0922 8.85628C22.216 9.27502 23.1853 10.0275 23.8694 11.0125L23.9809 11.1733C24.2959 11.627 24.9192 11.7401 25.3729 11.4251C25.8264 11.1102 25.9394 10.4868 25.6247 10.0332L25.5121 9.8716Z" fill="black"/>
<path d="M4.96808 7.10132C5.83189 6.03152 6.92955 5.17369 8.1764 4.59402L9.06966 4.17891C9.57045 3.94609 10.1657 4.16322 10.3986 4.66399C10.6314 5.16478 10.4143 5.76005 9.91348 5.9929L9.02022 6.40801C8.05032 6.85892 7.19558 7.52629 6.52369 8.35851L5.7353 9.33476C5.38836 9.76447 4.75851 9.83181 4.32879 9.48488C3.89942 9.13796 3.83285 8.50901 4.17948 8.07939L4.96808 7.10132Z" fill="black"/>
<path d="M27.0334 7.10216C26.1696 6.03236 25.0719 5.17453 23.8251 4.59486L22.9318 4.17975C22.431 3.94693 21.8358 4.16406 21.6029 4.66483C21.3701 5.16562 21.5872 5.76089 22.088 5.99373L22.9813 6.40885C23.9512 6.85976 24.8059 7.52713 25.4778 8.35935L26.2662 9.3356C26.6131 9.76531 27.243 9.83265 27.6727 9.48572C28.1021 9.1388 28.1686 8.50985 27.822 8.08023L27.0334 7.10216Z" fill="black"/>
<path d="M18.4767 27.9531H18.5791H20.7574C23.1221 27.9529 25.0397 26.0352 25.04 23.6706V16.4392C25.4721 16.765 26.088 16.6882 26.4258 16.2617C26.7685 15.8287 26.696 15.1996 26.263 14.8568L18.2005 8.47395C16.992 7.51855 15.3151 7.45835 14.0482 8.29426L13.8008 8.47395L5.73698 14.8568C5.30413 15.1996 5.23148 15.8287 5.57422 16.2617C5.91248 16.6889 6.52954 16.7652 6.96183 16.4379V23.6706C6.96205 26.0354 8.87953 27.9531 11.2444 27.9531H13.4241H13.527H18.4767ZM12.4755 25.9531H11.2444C9.9841 25.9531 8.96205 24.9308 8.96183 23.6706V14.8546L15.0404 10.0417C15.6021 9.59774 16.3963 9.59954 16.9583 10.043L23.04 14.8566V23.6706C23.0397 24.9307 22.0175 25.9529 20.7574 25.9531H19.5276L19.5276 22.9002C19.5277 22.5158 19.5278 22.173 19.5055 21.8867C19.4809 21.5722 19.4247 21.2419 19.2685 20.918C19.0124 20.3873 18.5844 19.959 18.0536 19.7031C17.7298 19.5469 17.4006 19.492 17.0862 19.4674C16.7855 19.444 16.4219 19.444 16.0136 19.444H15.991C15.5824 19.444 15.2191 19.444 14.9182 19.4674C14.6038 19.4919 14.2746 19.547 13.9508 19.7031C13.4198 19.9591 12.9907 20.3875 12.7346 20.918C12.5784 21.2419 12.5235 21.5722 12.499 21.8867C12.4755 22.1877 12.4755 22.5614 12.4755 22.97V25.9531ZM17.5276 22.97V25.9531H14.4755V22.97C14.4755 22.5256 14.4762 22.2495 14.4924 22.0417C14.5076 21.8479 14.5315 21.7958 14.5354 21.7877C14.5951 21.6639 14.6959 21.5634 14.8193 21.5039C14.8279 21.4998 14.8805 21.476 15.0732 21.4609C15.281 21.4447 15.5572 21.444 16.0016 21.444C16.4458 21.444 16.7221 21.4448 16.9299 21.4609C17.127 21.4763 17.1784 21.5006 17.1852 21.5039C17.3087 21.5634 17.4082 21.6642 17.4677 21.7877C17.4712 21.7949 17.4954 21.8458 17.5107 22.0417C17.5269 22.2495 17.5276 22.5256 17.5276 22.97Z" fill="black"/>
</svg>
