<?xml version="1.0" encoding="UTF-8"?>
<svg id="Capa_1" xmlns="http://www.w3.org/2000/svg" version="1.1" viewBox="0 0 32 32">
  <!-- Generator: Adobe Illustrator 30.0.0, SVG Export Plug-In . SVG Version: 2.1.1 Build 123)  -->
  <path d="M29.05,23.73l-3.64-6.9c-.77-1.46-2.8-1.47-3.58,0l-3.69,6.9c-.7,1.3.1,3.16,1.79,3.16h7.33c1.68,0,2.48-1.85,1.79-3.15ZM27.28,24.85s-.02.03-.03.03h-7.32s-.02-.01-.03-.03c-.03-.06-.03-.12,0-.18l3.69-6.9.02-.03s.01.01.02.03l3.64,6.9.02.05s0,.1-.02.14Z"/>
  <path d="M23.59,19.44c-.55,0-1,.45-1,1v.89c0,.55.45,1,1,1s1-.45,1-1v-.89c0-.55-.45-1-1-1Z"/>
  <path d="M23.59,22.58c-.55,0-1,.45-1,1v.02c0,.55.45,1,1,1s1-.45,1-1v-.02c0-.55-.45-1-1-1Z"/>
  <path d="M15.61,24.07h-6.88c-1.3,0-2.29-.45-2.95-1.16-.67-.72-1.08-1.78-1.08-3.13v-5.93h20.86v1.75c0,.55.45,1,1,1s1-.45,1-1v-4.18c0-1.76-.55-3.34-1.62-4.49-1.08-1.16-2.61-1.8-4.41-1.8h-12.79c-1.79,0-3.33.64-4.41,1.8-1.07,1.15-1.62,2.73-1.62,4.49v8.37c0,1.76.55,3.34,1.62,4.49,1.08,1.16,2.61,1.8,4.41,1.8h6.88c.55,0,1-.45,1-1,0-.55-.45-1-1-1ZM4.7,11.41c0-1.34.42-2.41,1.09-3.12.66-.71,1.65-1.17,2.95-1.17h12.79c1.3,0,2.29.45,2.95,1.16.67.72,1.08,1.78,1.08,3.13v.43H4.7v-.43Z"/>
</svg>