<svg width="32" height="32" viewBox="0 0 32 32" fill="none" xmlns="http://www.w3.org/2000/svg">
<path d="M9.34761 23.2163C9.34739 22.7909 9.04462 22.4344 8.64188 22.3517L8.46349 22.3335H7.76167V24.1017H8.46349C8.95154 24.1016 9.34761 23.7042 9.34761 23.2163ZM11.3476 23.2163C11.3476 24.8089 10.056 26.1016 8.46349 26.1017H7.76167V26.9546C7.76167 27.5069 7.31396 27.9546 6.76167 27.9546C6.20939 27.9546 5.76167 27.5069 5.76167 26.9546V21.3335C5.76167 20.7812 6.20939 20.3335 6.76167 20.3335H8.46349L8.75776 20.3478C10.2117 20.4953 11.3474 21.724 11.3476 23.2163Z" fill="black"/>
<path d="M21.4858 26.9635V21.328C21.4858 20.7758 21.9336 20.328 22.4858 20.328H25.5379C26.0902 20.328 26.5379 20.7758 26.5379 21.328C26.5379 21.8803 26.0902 22.328 25.5379 22.328H23.4858V23.6158H25.0692C25.6214 23.6159 26.0692 24.0636 26.0692 24.6158C26.0691 25.168 25.6213 25.6157 25.0692 25.6158H23.4858V26.9635C23.4856 27.5155 23.038 27.9635 22.4858 27.9635C21.9337 27.9635 21.4861 27.5155 21.4858 26.9635Z" fill="black"/>
<path d="M17.397 24.1458C17.3969 23.6627 17.2047 23.2015 16.8644 22.8619C16.5231 22.5206 16.0609 22.3282 15.5793 22.328H15.1704V25.9635H15.5793C16.0609 25.9633 16.5231 25.7709 16.8644 25.4296L16.9855 25.2968C17.2504 24.9742 17.397 24.5675 17.397 24.1458ZM19.397 24.1458C19.397 25.1581 18.9937 26.1284 18.2772 26.8437C17.5611 27.5596 16.5916 27.9633 15.5793 27.9635H14.1704C13.6183 27.9635 13.1707 27.5155 13.1704 26.9635V21.328C13.1704 20.7758 13.6181 20.328 14.1704 20.328H15.5793C16.5911 20.3282 17.5612 20.73 18.2772 21.4452C18.9941 22.1607 19.3969 23.1325 19.397 24.1458Z" fill="black"/>
<path d="M22.0288 12.9309H24.5402V17.1588C24.5402 17.7111 24.9879 18.1588 25.5402 18.1588C26.0922 18.1584 26.5402 17.7109 26.5402 17.1588V12.5416C26.5402 11.6209 26.1828 10.7348 25.5467 10.0715L20.8032 5.13143C20.1313 4.43216 19.2027 4.03652 18.2329 4.03638L11.1626 4.03768C8.06873 4.02817 5.53239 6.49307 5.45947 9.58846V17.1588C5.45947 17.7111 5.90719 18.1588 6.45947 18.1588C7.01176 18.1588 7.45947 17.7111 7.45947 17.1588V9.63534C7.50675 7.62849 9.15216 6.02865 11.16 6.03638H17.8361V8.72648C17.8345 11.045 19.7105 12.9261 22.0288 12.9309ZM23.5989 10.9309H22.0327C20.8938 10.9284 19.9596 10.0621 19.8478 8.95304L19.8361 8.72778V7.01214L23.5989 10.9309Z" fill="black"/>
</svg>
