<svg width="32" height="32" viewBox="0 0 32 32" fill="none" xmlns="http://www.w3.org/2000/svg">
<path d="M16.4569 4.17843C16.1224 4.00609 15.7131 4.03483 15.4035 4.26437C15.4035 4.26437 15.3956 4.27023 15.393 4.27218C15.3878 4.27613 15.38 4.28095 15.3709 4.2878C15.3524 4.30179 15.3262 4.32189 15.2928 4.3477C15.2259 4.39939 15.1308 4.47555 15.0102 4.57296C14.769 4.76783 14.4277 5.05211 14.0207 5.41671C13.208 6.14466 12.1244 7.19814 11.0428 8.50265C8.90829 11.077 6.66127 14.771 6.71987 18.9441L6.72508 19.4128C6.82292 21.7429 7.98682 23.8141 9.6131 25.306C11.3379 26.8883 13.6589 27.8908 15.9881 27.8685C15.9924 27.8686 15.9955 27.8685 15.9998 27.8685C16.0037 27.8685 16.0076 27.8699 16.0115 27.8698C18.34 27.8916 20.6604 26.8878 22.3852 25.306C24.1203 23.7148 25.3297 21.4647 25.2798 18.9441C25.3383 14.7709 23.0905 11.0769 20.9555 8.50265C19.8738 7.19829 18.7905 6.14461 17.9777 5.41671C17.5707 5.05219 17.2294 4.76782 16.9881 4.57296C16.8674 4.47549 16.7712 4.3994 16.7042 4.3477C16.671 4.32202 16.6445 4.30173 16.6261 4.2878C16.6171 4.28097 16.6092 4.27609 16.604 4.27218L16.5949 4.26437L16.4569 4.17843ZM15.9998 6.349C16.1818 6.50113 16.3991 6.68781 16.643 6.90629C17.4024 7.58631 18.4126 8.56957 19.4165 9.77999C21.385 12.1537 23.2187 15.2676 23.2798 18.6133V18.9844C23.3158 20.8192 22.4351 22.5469 21.0337 23.8321C19.6278 25.1213 17.7752 25.8919 16.0115 25.8698C16.0033 25.8697 15.995 25.8697 15.9868 25.8698C14.2232 25.8919 12.3713 25.1211 10.966 23.8321C9.65221 22.6269 8.79551 21.0326 8.72378 19.3256L8.71987 18.9831V18.6133C8.78085 15.2677 10.6138 12.1537 12.5819 9.77999C13.5855 8.56957 14.5961 7.58631 15.3553 6.90629C15.5996 6.68747 15.8177 6.50126 15.9998 6.349Z" fill="black"/>
<path d="M12.2741 17.7813C11.7222 17.763 11.2599 18.1968 11.2416 18.7487L11.2403 18.7657C11.2137 20.1081 11.863 21.2334 12.7598 21.9948C13.6488 22.7495 14.8312 23.1945 16.0124 23.1797C16.5643 23.1725 17.006 22.7198 16.9994 22.168C16.9925 21.6158 16.5386 21.1728 15.9864 21.1797C15.3061 21.1881 14.5889 20.9241 14.0541 20.4701C13.5274 20.0229 13.2277 19.4397 13.2403 18.8047C13.2525 18.2578 12.8222 17.7998 12.2741 17.7813Z" fill="black"/>
</svg>
