<?xml version="1.0" encoding="UTF-8"?>
<svg id="Capa_1" xmlns="http://www.w3.org/2000/svg" version="1.1" viewBox="0 0 32 32">
  <!-- Generator: Adobe Illustrator 30.0.0, SVG Export Plug-In . SVG Version: 2.1.1 Build 123)  -->
  <path d="M11.6,15.92l-1-.06c-3.7-.21-6.79,2.79-6.69,6.5l.03,1.18c.02.55.48.99,1.03.97.55-.02.99-.48.97-1.03l-.03-1.18c-.07-2.54,2.04-4.59,4.58-4.45l1,.06c.55.03,1.02-.39,1.06-.94.03-.55-.39-1.02-.94-1.05Z"/>
  <path d="M26.8,13.34h-.14s-6.17,0-6.17,0c-.74,0-1.33.6-1.33,1.33v3.25c0,.74.6,1.33,1.33,1.33h.68v.22c0,.93-.66,1.7-1.53,1.87v-.76c0-.74-.6-1.33-1.33-1.33h-3.25c-.74,0-1.33.6-1.33,1.33v6.17s0,.14,0,.14c.06.63.56,1.13,1.19,1.19h.14s3.25,0,3.25,0c.66,0,1.21-.48,1.32-1.12,3.66-.24,6.56-3.28,6.56-7.01v-.59s0-.08,0-.11h.62c.63-.07,1.13-.57,1.19-1.2v-.14s0-3.25,0-3.25c0-.69-.53-1.26-1.2-1.33ZM17.64,26.08h-1.92v-4.83h1.92v4.83ZM24.18,19.36v.59c0,2.61-1.99,4.76-4.54,5v-1.59c1.98-.19,3.53-1.86,3.53-3.89v-.22h1.02s0,.08,0,.11ZM25.99,17.25h-4.83v-1.92h4.83v1.92Z"/>
  <path d="M11.52,15.01c3.01,0,5.48-2.45,5.48-5.48,0-3.03-2.46-5.48-5.48-5.48-3.01,0-5.48,2.45-5.48,5.48,0,3.03,2.46,5.48,5.48,5.48ZM13.83,6.94c.38.34.68.75.88,1.22h-.88v-1.22ZM11.24,6.06c.09,0,.19-.01.29-.01.11,0,.21,0,.31.01v2.09h-.6v-2.09ZM9.24,6.91v1.24h-.91c.21-.48.52-.9.91-1.24ZM14.94,10.16c-.3,1.62-1.72,2.85-3.42,2.85-1.7,0-3.12-1.23-3.42-2.85h6.84Z"/>
</svg>