<svg width="32" height="32" viewBox="0 0 32 32" fill="none" xmlns="http://www.w3.org/2000/svg">
<path d="M7.39558 4.41642C8.18176 4.01438 8.95508 3.90433 9.73152 4.16252C10.4339 4.3961 11.0193 4.89687 11.5375 5.4034C11.8059 5.6657 12.0867 5.96104 12.376 6.26538C12.6695 6.57412 12.9798 6.90066 13.3227 7.24325C14.2215 8.1423 14.5665 9.0509 14.4958 10.0037C14.4637 10.4369 14.3479 10.8326 14.2289 11.1716C14.1691 11.3421 14.1045 11.5104 14.044 11.6651C13.9817 11.8245 13.9235 11.9693 13.8695 12.1169C13.6575 12.6966 13.5483 13.1822 13.6586 13.7354C13.7709 14.2983 14.1432 15.0784 15.2094 16.1443C16.2753 17.2096 17.0545 17.5819 17.6169 17.6938C18.1699 17.8037 18.6559 17.6927 19.2354 17.4802C19.3829 17.4261 19.5281 17.3681 19.6872 17.3057C19.8416 17.2452 20.0093 17.1807 20.1794 17.1209C20.5184 17.0015 20.9143 16.8851 21.3474 16.8526C22.3003 16.7813 23.2096 17.1257 24.1091 18.0245C24.4521 18.3675 24.7781 18.6773 25.087 18.9711C25.3915 19.2608 25.6867 19.542 25.949 19.811C26.4554 20.3303 26.9547 20.9167 27.1872 21.6195C27.444 22.3957 27.3348 23.1688 26.9333 23.9542C26.5536 24.697 25.8935 25.4927 24.9789 26.4073C24.9534 26.4328 24.9263 26.4576 24.8982 26.4802C24.9285 26.4558 24.94 26.4407 24.8734 26.5089C24.8271 26.5564 24.7559 26.6293 24.6703 26.7107C24.4961 26.8763 24.2541 27.0844 23.9359 27.281C23.286 27.6825 22.3718 28.0051 21.143 27.9307C18.7446 27.7855 15.3059 26.1425 10.2576 21.0948C5.20943 16.0476 3.56467 12.609 3.41771 10.2107C3.34241 8.98139 3.66505 8.06674 4.06615 7.41642C4.26246 7.0982 4.46967 6.85632 4.63516 6.68205C4.71651 6.59639 4.7895 6.52533 4.83698 6.47893C4.87634 6.44046 4.88833 6.42843 4.88646 6.43075C4.90322 6.41119 4.92033 6.39167 4.93855 6.37346C5.85551 5.45682 6.65231 4.79655 7.39558 4.41642ZM9.1 6.05965C8.93591 6.0052 8.72073 5.98415 8.30573 6.19637C7.84752 6.43074 7.22941 6.91106 6.35261 7.78752C6.30202 7.84207 6.25444 7.88875 6.23412 7.90861C6.18357 7.95801 6.13753 8.00506 6.08568 8.05965C5.98461 8.16609 5.87178 8.2989 5.76797 8.46721C5.56882 8.79029 5.36671 9.29817 5.41511 10.0883C5.50939 11.627 6.56667 14.3517 10.7862 18.7732L11.6729 19.6807L12.5792 20.5675C17.0011 24.7859 19.7261 25.8416 21.2641 25.9347C22.0542 25.9825 22.5622 25.7788 22.8852 25.5792C23.0534 25.4752 23.1863 25.3627 23.2927 25.2615C23.3472 25.2096 23.3931 25.1623 23.4425 25.1117C23.4623 25.0914 23.5103 25.0451 23.5648 24.9945C24.4394 24.12 24.918 23.5018 25.1521 23.044C25.3641 22.6294 25.3434 22.4137 25.2888 22.2485C25.2098 22.0097 24.9972 21.7009 24.5167 21.2081C24.2855 20.971 24.0189 20.7161 23.7081 20.4203C23.4015 20.1287 23.0582 19.803 22.6951 19.4399C22.1298 18.8751 21.7685 18.8271 21.4971 18.8474C21.3183 18.8608 21.1127 18.9115 20.8435 19.0063C20.7099 19.0533 20.5718 19.1068 20.4164 19.1677C20.2656 19.2268 20.0961 19.2943 19.9229 19.3578C19.2191 19.6159 18.3167 19.8711 17.2276 19.6547C16.1477 19.44 15.0303 18.7927 13.7953 17.5584C12.5605 16.3239 11.9119 15.2071 11.6964 14.1274C11.479 13.0379 11.7343 12.1338 11.9919 11.4294C12.0552 11.2564 12.1218 11.0866 12.1807 10.936C12.2414 10.7806 12.2953 10.6424 12.3422 10.5089C12.4367 10.2397 12.4878 10.0342 12.501 9.85523C12.5211 9.58356 12.4722 9.22221 11.9073 8.65731C11.5443 8.29456 11.2183 7.95088 10.9268 7.64429C10.6309 7.33301 10.3761 7.0648 10.1391 6.83309C9.64648 6.35169 9.33812 6.13884 9.1 6.05965Z" fill="black"/>
<path d="M26.682 3.66382C26.948 3.66327 27.2036 3.76874 27.3917 3.95679C27.5797 4.14484 27.6852 4.40049 27.6846 4.66642L27.6742 9.88778C27.6727 10.4398 27.2237 10.8863 26.6716 10.8852C26.1193 10.884 25.6731 10.4348 25.6742 9.88257L25.682 5.66512L21.4659 5.67424C20.9136 5.67538 20.4645 5.22908 20.4633 4.67684C20.4621 4.12473 20.9086 3.67567 21.4607 3.67424L26.682 3.66382Z" fill="black"/>
<path d="M25.9768 3.95679C26.3673 3.56635 27.0012 3.5663 27.3917 3.95679C27.7821 4.34729 27.7813 4.98035 27.3909 5.37085L20.9039 11.8578C20.5134 12.2483 19.8803 12.2483 19.4898 11.8578C19.0993 11.4673 19.0994 10.8343 19.4898 10.4438L25.9768 3.95679Z" fill="black"/>
</svg>
