<svg width="32" height="32" viewBox="0 0 32 32" fill="none" xmlns="http://www.w3.org/2000/svg">
<path d="M23.6106 20.8814V18.9088C23.6106 18.1699 23.6922 17.4331 23.8541 16.7122L25.0845 11.233C25.2637 10.4346 25.211 9.60165 24.9335 8.83195C24.3183 7.12652 22.6996 5.9895 20.8866 5.9895H19.9895C19.6627 5.98952 19.336 6.01832 19.0142 6.07544L17.914 6.28377C16.6482 6.52384 15.3482 6.52532 14.0819 6.28768L12.9986 6.08455C12.662 6.02138 12.3202 5.98954 11.9778 5.9895H11.1093C9.2963 5.9895 7.67754 7.12652 7.0624 8.83195C6.78482 9.60168 6.73221 10.4346 6.91135 11.233L8.14182 16.7122C8.30366 17.4331 8.38531 18.1699 8.38531 18.9088V20.8814C8.38531 23.0207 9.6596 24.929 11.5858 25.7721V21.0885C11.5861 19.8151 12.6185 18.7825 13.8918 18.7825H18.1041C19.3774 18.7825 20.4098 19.8151 20.4101 21.0885V25.7721C22.3362 24.9289 23.6106 23.0207 23.6106 20.8814ZM25.6106 20.8814C25.6106 24.0934 23.5227 26.9338 20.4569 27.8918C19.4419 28.2086 18.4102 27.45 18.4101 26.3866V21.0885C18.4098 20.9197 18.2729 20.7825 18.1041 20.7825H13.8918C13.723 20.7825 13.5861 20.9197 13.5858 21.0885V26.3866C13.5857 27.4499 12.5539 28.2085 11.539 27.8918C8.47319 26.9338 6.38531 24.0934 6.38531 20.8814V18.9088C6.38531 18.3174 6.3195 17.728 6.19 17.151L4.96083 11.6718C4.69823 10.502 4.77421 9.28135 5.18089 8.15356C6.08203 5.65522 8.45338 3.9895 11.1093 3.9895H11.9778C12.4438 3.98954 12.909 4.03247 13.3671 4.11841L14.4517 4.32284C15.4728 4.51442 16.5208 4.51256 17.5416 4.31893L18.6535 4.10799L18.6653 4.10669C19.1024 4.02908 19.5455 3.98952 19.9895 3.9895H20.8866C23.5425 3.9895 25.9139 5.65522 26.815 8.15356C27.2217 9.28133 27.2976 10.5021 27.0351 11.6718L25.8059 17.151C25.6764 17.728 25.6106 18.3174 25.6106 18.9088V20.8814Z" fill="black"/>
</svg>
