<svg width="32" height="32" viewBox="0 0 32 32" fill="none" xmlns="http://www.w3.org/2000/svg">
<path d="M17.2636 15.3686C17.584 15.7613 17.5607 16.341 17.1946 16.7071L11.6581 22.2436C11.2676 22.6341 10.6346 22.6341 10.2441 22.2436C9.85354 21.853 9.85354 21.22 10.2441 20.8295L15.0735 16.0001L10.2441 11.1707C9.85354 10.7801 9.85354 10.1471 10.2441 9.75659C10.6346 9.36607 11.2676 9.36607 11.6581 9.75659L17.1946 15.2931L17.2636 15.3686Z" fill="black"/>
<path d="M22.0485 21.5365C22.0485 22.0888 21.6008 22.5365 21.0485 22.5365C20.4962 22.5365 20.0485 22.0888 20.0485 21.5365L20.0485 10.4636C20.0485 9.91134 20.4962 9.46362 21.0485 9.46362C21.6008 9.46362 22.0485 9.91134 22.0485 10.4636V21.5365Z" fill="black"/>
</svg>
