<svg width="32" height="32" viewBox="0 0 32 32" fill="none" xmlns="http://www.w3.org/2000/svg">
<path fill-rule="evenodd" clip-rule="evenodd" d="M16.5601 4.11993C16.5601 4.11993 16.4667 4.1066 16.4267 4.1066H16.2934C16.1467 4.09326 16.0001 4.09326 15.8534 4.09326C9.25341 4.09326 3.90674 9.47993 3.90674 16.1199C3.90674 22.2666 8.48007 27.3466 14.3867 28.0666C14.8934 28.1333 15.3467 27.7733 15.4134 27.2666C15.4667 26.7599 15.1201 26.2933 14.6134 26.2399C11.6267 25.8799 9.05341 24.1999 7.46674 21.7999C8.40007 21.3999 9.44007 20.7999 10.6001 19.9599C11.5067 19.3066 11.8801 19.4533 12.0134 19.5333C12.2667 19.7066 12.6001 20.2133 12.8001 21.3066C12.8934 21.8133 13.3734 22.1466 13.8667 22.0533C14.3601 21.9599 14.6934 21.4799 14.6001 20.9866C14.3867 19.7733 13.9334 18.5733 12.9867 17.9733C11.9201 17.3066 10.6801 17.6266 9.53341 18.4666C8.38674 19.2933 7.41341 19.8399 6.58674 20.1866C6.1334 19.1599 5.8534 18.0399 5.7734 16.8533C7.30674 16.4399 8.42674 15.7066 9.2134 14.7866C10.1067 13.7199 10.4934 12.4799 10.6134 11.3466C10.7334 10.2133 10.6134 9.1466 10.4534 8.37326C10.4001 8.07993 10.3467 7.8266 10.2934 7.6266C11.7467 6.66659 13.4667 6.05326 15.3201 5.95993C15.2934 6.22659 15.2934 6.5466 15.3201 6.87993C15.4134 7.99993 15.8267 9.50659 17.1734 10.5733C17.7601 11.0266 18.3067 11.3733 18.7867 11.6399C18.9734 11.7466 19.1334 11.8399 19.2801 11.9199C19.5467 12.0533 19.7601 12.1733 19.9601 12.3066C20.2667 12.5066 20.4401 12.6666 20.5734 12.8399C20.6934 13.0133 20.8001 13.2533 20.8534 13.6799C20.9067 14.1866 21.3734 14.5466 21.8667 14.4799C22.3734 14.4133 22.7334 13.9599 22.6667 13.4533C22.5867 12.7866 22.3867 12.2399 22.0667 11.7866C21.7467 11.3199 21.3467 11.0133 20.9467 10.7466C20.6934 10.5866 20.3867 10.4266 20.0934 10.2533C19.9467 10.1866 19.8134 10.1066 19.6801 10.0399C19.2534 9.7866 18.7867 9.5066 18.3067 9.11993C17.5067 8.49326 17.2134 7.57326 17.1467 6.71993C17.1201 6.4666 17.1201 6.23993 17.1334 6.0266C21.7334 6.61326 25.3734 10.3199 25.8934 14.9733C25.9467 15.4799 26.4001 15.8399 26.9067 15.7866C27.4001 15.7333 27.7734 15.2799 27.7067 14.7733C27.0667 8.9866 22.3734 4.45326 16.5601 4.11993ZM8.78674 11.1466C8.69341 12.0266 8.41341 12.8799 7.81341 13.5866C7.38674 14.1066 6.76007 14.5733 5.82674 14.9199C6.0934 12.5999 7.13341 10.5199 8.69341 8.9466C8.81341 9.57326 8.88007 10.3466 8.78674 11.1466Z" fill="black"/>
<path d="M19.4801 16.6666C20.0801 16.5199 20.7201 16.4933 21.3734 16.6933C21.7734 16.8133 22.1601 17.0266 22.5067 17.3066C22.8534 17.0266 23.2401 16.8133 23.6401 16.6933C24.3867 16.4666 25.1334 16.5199 25.7867 16.7333L26.1467 16.8666C27.8801 17.5999 28.7067 19.2666 28.7067 20.9199V21.2533C28.6001 22.8799 27.7467 24.2666 26.7067 25.3333C25.5867 26.4666 24.1734 27.3466 22.9067 27.8933L22.7067 27.9733H22.2801L22.0801 27.8933C20.8267 27.3333 19.4001 26.4666 18.2801 25.3333C17.1601 24.1999 16.2667 22.7066 16.2801 20.9333C16.2801 19.1733 17.2267 17.3733 19.2001 16.7466L19.4534 16.6799L19.4801 16.6666ZM25.1734 18.6399C25.1694 18.6386 25.164 18.6412 25.1601 18.6399C24.8052 18.5239 24.5036 18.5208 24.2267 18.5999C23.9601 18.6799 23.6401 18.8799 23.3201 19.3466L22.4934 20.5199L21.6667 19.3466C21.3467 18.8799 21.0267 18.6799 20.7601 18.5999C20.5601 18.5333 20.3334 18.5199 20.0801 18.5733L19.8267 18.6399C18.8401 18.9599 18.2934 19.8533 18.2934 20.9333C18.2934 21.9999 18.8267 23.0133 19.7201 23.9333C20.5067 24.7333 21.5201 25.3999 22.4934 25.8799C23.4667 25.3999 24.4801 24.7333 25.2667 23.9333C26.1067 23.0666 26.6401 22.1333 26.6934 21.1333V20.9333C26.6934 19.8399 26.1467 18.9466 25.1601 18.6399H25.1734Z" fill="black"/>
</svg>
