<svg width="32" height="32" viewBox="0 0 32 32" fill="none" xmlns="http://www.w3.org/2000/svg">
<path d="M24.592 11.9814C25.1427 12.0218 25.5567 12.501 25.5165 13.0517L24.7626 23.3694C24.5685 26.0256 22.3565 28.0841 19.691 28.0842H12.3095C9.64516 28.0842 7.43197 26.0256 7.23787 23.3681L6.48397 13.0517C6.44372 12.5009 6.85765 12.0216 7.40845 11.9814C7.95925 11.9411 8.43849 12.355 8.47876 12.9058L9.23267 23.2222C9.3504 24.8351 10.6937 26.0842 12.3095 26.0842H19.691C21.3079 26.0841 22.65 24.8352 22.7678 23.2236L23.5217 12.9058C23.562 12.3551 24.0413 11.9411 24.592 11.9814Z" fill="black"/>
<path fill-rule="evenodd" clip-rule="evenodd" d="M11.4156 10.1038H11.3055C11.3425 10.1058 11.3792 10.1058 11.4156 10.1038ZM20.5825 10.1038H20.7054C20.6641 10.1063 20.6231 10.1063 20.5825 10.1038Z" fill="black"/>
<path d="M12.6615 21.2874V15.734C12.6615 15.1817 13.1093 14.734 13.6615 14.734C14.2138 14.734 14.6615 15.1817 14.6615 15.734V21.2874C14.6613 21.8394 14.2137 22.2874 13.6615 22.2874C13.1094 22.2874 12.6618 21.8394 12.6615 21.2874ZM16.8256 21.2874V15.734C16.8256 15.1817 17.2733 14.734 17.8256 14.734C18.3777 14.7342 18.8256 15.1818 18.8256 15.734V21.2874C18.8254 21.8393 18.3775 22.2871 17.8256 22.2874C17.2735 22.2874 16.8259 21.8394 16.8256 21.2874Z" fill="black"/>
<path d="M11.3055 10.1038H11.4156H20.5825H20.7054H26.1797C26.7319 10.1037 27.1797 9.65598 27.1797 9.10376C27.1797 8.55154 26.7319 8.10386 26.1797 8.10376H21.4618L21.005 5.85636L20.992 5.79777L20.9269 5.59334C20.5675 4.59393 19.6156 3.91626 18.5402 3.91626L13.4647 3.91756C12.3145 3.91512 11.3048 4.68394 11.0063 5.79647L10.992 5.85897L10.5406 8.10376H5.82031C5.26803 8.10376 4.82031 8.55147 4.82031 9.10376C4.82031 9.65604 5.26803 10.1038 5.82031 10.1038H11.3055ZM19.0545 6.30168L19.421 8.10376H12.5805L12.9425 6.30037C13.0104 6.07272 13.2204 5.91562 13.4608 5.91626H18.5402C18.7786 5.91626 18.9877 6.07437 19.0545 6.30168Z" fill="black"/>
</svg>
