<?xml version="1.0" encoding="UTF-8"?>
<svg id="Capa_1" xmlns="http://www.w3.org/2000/svg" version="1.1" viewBox="0 0 32 32">
  <!-- Generator: Adobe Illustrator 30.0.0, SVG Export Plug-In . SVG Version: 2.1.1 Build 123)  -->
  <defs>
    <style>
      .st0 {
        fill-rule: evenodd;
      }
    </style>
  </defs>
  <path class="st0" d="M21.27,19.58c-.53-1.43-1.75-2.05-2.88-2.33-.73-.18-1.55-.26-2.25-.31l-.04-2.44c-.02-1.25-1.04-2.26-2.3-2.26-1.27,0-2.3,1.03-2.3,2.3v4.74c-.59-.3-1.3-.35-1.96-.1-1.17.45-1.84,1.74-1.39,2.98.5,1.38,1.29,2.93,2.33,4.22,1.04,1.3,2.96,1.75,4.61,1.75,1.67,0,3.55-.47,4.64-1.57.81-.81,1.39-1.97,1.67-3.18.27-1.14.29-2.41-.08-3.57l-.08-.23ZM19.48,22.92c-.22.93-.65,1.73-1.14,2.22-.56.56-1.8.98-3.23.98-1.44,0-2.58-.42-3.05-1-.88-1.09-1.57-2.43-2.01-3.65-.05-.15.01-.35.23-.43.18-.07.38,0,.49.15l.93,1.34c.25.36.7.52,1.12.39.42-.13.7-.52.7-.95v-7.43c0-.16.13-.3.3-.3.16,0,.29.13.3.29l.05,3.35c0,.51.4.93.9.98,1.02.1,1.97.11,2.84.33.83.21,1.29.54,1.49,1.08.28.77.3,1.72.08,2.65Z"/>
  <path class="st0" d="M8.76,16.62c0-.55-.45-1-1-1h-.07c-.92,0-1.67-.75-1.67-1.67v-6.29c0-.92.75-1.67,1.67-1.67h8.41c.55,0,1-.45,1-1s-.45-1-1-1H7.69c-2.03,0-3.67,1.64-3.67,3.67v6.29c0,2.02,1.64,3.67,3.67,3.67h.07c.55,0,1-.45,1-1Z"/>
  <path class="st0" d="M23.03,10.02c-.55,0-1,.45-1,1v1.17c0,.55.45,1,1,1s1-.45,1-1v-1.17c0-.55-.45-1-1-1Z"/>
  <path class="st0" d="M26.42,7.83v-.43c0-1.87-1.52-3.39-3.39-3.39-1.75,0-3.2,1.32-3.38,3.03l-.02.35v.45c-.95.5-1.6,1.5-1.6,2.65v2.25c0,1.65,1.34,2.99,2.99,2.99h4.01c1.65,0,2.99-1.34,2.99-2.99v-2.25c0-1.15-.65-2.15-1.6-2.65ZM21.63,7.39c0-.77.63-1.39,1.4-1.39.77,0,1.39.62,1.39,1.39v.09h-2.79v-.1ZM26.02,12.73c0,.55-.44.99-.99.99h-4.01c-.55,0-.99-.44-.99-.99v-2.25c0-.55.44-.99.99-.99h4.01c.55,0,.99.44.99.99v2.25Z"/>
</svg>