<svg width="32" height="32" viewBox="0 0 32 32" fill="none" xmlns="http://www.w3.org/2000/svg">
<path d="M23.8928 16.8189C23.8928 14.9513 23.9127 13.5138 23.9318 12.3984C23.9512 11.2746 23.9685 10.5024 23.9644 9.93612C23.9601 9.35394 23.9315 9.0916 23.8954 8.95174C23.8865 8.91736 23.8804 8.89515 23.8667 8.87231L23.7938 8.78768C23.5618 8.55596 22.5796 7.85946 21.1011 7.21476C19.6501 6.58206 17.8372 6.052 15.9787 6.052C14.1204 6.0521 12.3083 6.58213 10.8576 7.21476C9.37838 7.85984 8.39673 8.55679 8.16622 8.78768C8.08998 8.86393 8.08129 8.88384 8.06335 8.95304C8.02718 9.09276 7.99739 9.3543 7.99304 9.93612C7.98882 10.5023 8.00759 11.2745 8.02689 12.3984C8.04605 13.5138 8.06595 14.9513 8.06595 16.8189C8.06595 20.2256 9.47135 22.4882 11.1532 23.9166C12.8772 25.3807 14.8796 25.9581 15.9787 25.9583C17.0783 25.9583 19.0815 25.3809 20.8055 23.9166C22.4872 22.4883 23.8928 20.2257 23.8928 16.8189ZM25.8928 16.8189C25.8928 20.8535 24.1979 23.6604 22.1011 25.4413C20.0466 27.1863 17.592 27.9583 15.9787 27.9583C14.3661 27.9581 11.9132 27.1858 9.85892 25.4413C7.76194 23.6604 6.06595 20.8538 6.06595 16.8189C6.06595 14.9665 6.04593 13.5409 6.02689 12.4322C6.008 11.3324 5.98986 10.5192 5.99434 9.92049C5.9987 9.33769 6.02264 8.85366 6.12715 8.45044C6.24993 7.9771 6.46956 7.65495 6.75085 7.37362C7.23561 6.8887 8.47608 6.07134 10.0581 5.38143C11.6697 4.67865 13.7606 4.0521 15.9787 4.052C18.197 4.052 20.2888 4.67861 21.9006 5.38143C23.4838 6.07177 24.7234 6.88931 25.2079 7.37362C25.4889 7.65515 25.7092 7.97851 25.8316 8.45174C25.9358 8.85471 25.9601 9.33786 25.9644 9.92049C25.9688 10.5191 25.9507 11.3324 25.9318 12.4322C25.9128 13.5409 25.8928 14.9665 25.8928 16.8189Z" fill="black"/>
<path d="M19.2634 21.1021C19.2634 20.6663 19.0925 20.1661 18.6488 19.7661C18.2067 19.3676 17.4025 18.9888 16.0004 18.9888C14.5995 18.9888 13.7946 19.369 13.352 19.77C12.907 20.1732 12.7362 20.6778 12.7361 21.1138C12.7361 21.6661 12.2884 22.1138 11.7361 22.1138C11.1838 22.1138 10.7361 21.6661 10.7361 21.1138C10.7362 20.1578 11.1141 19.0995 12.0095 18.2883C12.9075 17.4746 14.2355 16.9888 16.0004 16.9888C17.7631 16.9888 19.0903 17.4705 19.9887 18.2804C20.8854 19.0889 21.2634 20.1451 21.2634 21.1021C21.2634 21.6543 20.8157 22.1021 20.2634 22.1021C19.7113 22.1018 19.2634 21.6542 19.2634 21.1021Z" fill="black"/>
<path d="M17.7236 12.6815C17.7236 11.7294 16.9518 10.9575 15.9997 10.9575C15.0486 10.9578 14.277 11.7294 14.277 12.6815C14.2771 13.6335 15.0486 14.4051 15.9997 14.4054C16.9518 14.4054 17.7236 13.6335 17.7236 12.6815ZM19.7236 12.6815C19.7236 14.7381 18.0563 16.4054 15.9997 16.4054C13.9438 16.4051 12.2771 14.7378 12.277 12.6815C12.277 10.6251 13.9437 8.95782 15.9997 8.95753C18.0564 8.95753 19.7236 10.6248 19.7236 12.6815Z" fill="black"/>
</svg>
