<svg width="32" height="32" viewBox="0 0 32 32" fill="none" xmlns="http://www.w3.org/2000/svg">
<path d="M10.6482 22.9112C10.4155 22.9112 10.2258 22.85 10.0788 22.7275C9.93192 22.6173 9.85846 22.4643 9.85846 22.2684V21.6623C9.85846 21.5031 9.77887 21.4236 9.6197 21.4236H7.14035C6.89548 21.4236 6.69958 21.3317 6.55265 21.1481C6.41797 20.9644 6.35063 20.7624 6.35063 20.542C6.35063 20.4563 6.36287 20.3706 6.38736 20.2849C6.41185 20.1992 6.44858 20.1196 6.49756 20.0461L9.50951 15.62C9.60746 15.4731 9.74826 15.369 9.93192 15.3078C10.1278 15.2344 10.3115 15.1976 10.4829 15.1976C10.7645 15.1976 10.991 15.2833 11.1624 15.4548C11.3338 15.6139 11.4257 15.8159 11.4379 16.0608V19.6237C11.4379 19.7829 11.5175 19.8625 11.6766 19.8625H11.7868C12.0072 19.8625 12.1786 19.9298 12.3011 20.0645C12.4358 20.1992 12.5031 20.389 12.5031 20.6338C12.5031 20.8665 12.4358 21.0563 12.3011 21.2032C12.1786 21.3501 12.0072 21.4236 11.7868 21.4236H11.6766C11.5175 21.4236 11.4379 21.5031 11.4379 21.6623V22.2684C11.4379 22.4643 11.3644 22.6173 11.2175 22.7275C11.0828 22.85 10.893 22.9112 10.6482 22.9112ZM8.51777 19.8625H9.71153C9.8707 19.8625 9.95028 19.7829 9.95028 19.6237V17.7137C9.95028 17.6035 9.90131 17.5484 9.80336 17.5484C9.75438 17.5484 9.71153 17.579 9.6748 17.6403L8.40757 19.6421C8.38309 19.6911 8.37084 19.7278 8.37084 19.7523C8.37084 19.8258 8.41982 19.8625 8.51777 19.8625Z" fill="black"/>
<path d="M13.2463 18.9993C13.2463 17.7994 13.4728 16.8689 13.9259 16.2077C14.3911 15.5343 15.0768 15.1976 15.9828 15.1976C16.9011 15.1976 17.5928 15.5343 18.0581 16.2077C18.5234 16.8689 18.756 17.7933 18.756 18.9809C18.756 20.1686 18.5234 21.1236 18.0581 21.846C17.5928 22.5561 16.9011 22.9112 15.9828 22.9112C15.0768 22.9112 14.3911 22.5622 13.9259 21.8643C13.4728 21.1664 13.2463 20.2114 13.2463 18.9993ZM14.8625 18.9993C14.8625 19.7952 14.9421 20.3951 15.1013 20.7991C15.2727 21.1909 15.5665 21.3868 15.9828 21.3868C16.4113 21.3868 16.7113 21.1787 16.8827 20.7624C17.0541 20.3461 17.1398 19.7462 17.1398 18.9626C17.1398 18.179 17.0541 17.6158 16.8827 17.2729C16.7235 16.9179 16.4297 16.7403 16.0012 16.7403C15.5849 16.7403 15.291 16.9179 15.1196 17.2729C14.9482 17.628 14.8625 18.2035 14.8625 18.9993Z" fill="black"/>
<path d="M23.7946 22.9112C23.562 22.9112 23.3722 22.85 23.2253 22.7275C23.0784 22.6173 23.0049 22.4643 23.0049 22.2684V21.6623C23.0049 21.5031 22.9253 21.4236 22.7662 21.4236H20.2868C20.0419 21.4236 19.846 21.3317 19.6991 21.1481C19.5644 20.9644 19.4971 20.7624 19.4971 20.542C19.4971 20.4563 19.5093 20.3706 19.5338 20.2849C19.5583 20.1992 19.595 20.1196 19.644 20.0461L22.656 15.62C22.7539 15.4731 22.8947 15.369 23.0784 15.3078C23.2743 15.2344 23.4579 15.1976 23.6293 15.1976C23.9109 15.1976 24.1375 15.2833 24.3089 15.4548C24.4803 15.6139 24.5721 15.8159 24.5843 16.0608V19.6237C24.5843 19.7829 24.6639 19.8625 24.8231 19.8625H24.9333C25.1537 19.8625 25.3251 19.9298 25.4475 20.0645C25.5822 20.1992 25.6496 20.389 25.6496 20.6338C25.6496 20.8665 25.5822 21.0563 25.4475 21.2032C25.3251 21.3501 25.1537 21.4236 24.9333 21.4236H24.8231C24.6639 21.4236 24.5843 21.5031 24.5843 21.6623V22.2684C24.5843 22.4643 24.5109 22.6173 24.364 22.7275C24.2293 22.85 24.0395 22.9112 23.7946 22.9112ZM21.6642 19.8625H22.858C23.0171 19.8625 23.0967 19.7829 23.0967 19.6237V17.7137C23.0967 17.6035 23.0478 17.5484 22.9498 17.5484C22.9008 17.5484 22.858 17.579 22.8213 17.6403L21.554 19.6421C21.5295 19.6911 21.5173 19.7278 21.5173 19.7523C21.5173 19.8258 21.5663 19.8625 21.6642 19.8625Z" fill="black"/>
<path fill-rule="evenodd" clip-rule="evenodd" d="M10.6482 22.9112C10.4155 22.9112 10.2258 22.85 10.0788 22.7275C9.93192 22.6173 9.85846 22.4643 9.85846 22.2684V21.6623C9.85846 21.5031 9.77887 21.4236 9.6197 21.4236H7.14035C6.89548 21.4236 6.69958 21.3317 6.55265 21.1481C6.41797 20.9644 6.35063 20.7624 6.35063 20.542C6.35063 20.4563 6.36287 20.3706 6.38736 20.2849C6.41185 20.1992 6.44858 20.1196 6.49756 20.0461L9.50951 15.62C9.60746 15.4731 9.74826 15.369 9.93192 15.3078C10.1278 15.2344 10.3115 15.1976 10.4829 15.1976C10.7645 15.1976 10.991 15.2833 11.1624 15.4548C11.3338 15.6139 11.4257 15.8159 11.4379 16.0608V19.6237C11.4379 19.7829 11.5175 19.8625 11.6766 19.8625H11.7868C12.0072 19.8625 12.1786 19.9298 12.3011 20.0645C12.4358 20.1992 12.5031 20.389 12.5031 20.6338C12.5031 20.8665 12.4358 21.0563 12.3011 21.2032C12.1786 21.3501 12.0072 21.4236 11.7868 21.4236H11.6766C11.5175 21.4236 11.4379 21.5031 11.4379 21.6623V22.2684C11.4379 22.4643 11.3644 22.6173 11.2175 22.7275C11.0828 22.85 10.893 22.9112 10.6482 22.9112ZM13.2463 18.9993C13.2463 17.7994 13.4728 16.8689 13.9259 16.2077C14.3911 15.5343 15.0768 15.1976 15.9828 15.1976C16.9011 15.1976 17.5928 15.5343 18.0581 16.2077C18.5234 16.8689 18.756 17.7933 18.756 18.9809C18.756 20.1686 18.5234 21.1236 18.0581 21.846C17.5928 22.5561 16.9011 22.9112 15.9828 22.9112C15.0768 22.9112 14.3911 22.5622 13.9259 21.8643C13.4728 21.1664 13.2463 20.2114 13.2463 18.9993ZM23.7946 22.9112C23.562 22.9112 23.3722 22.85 23.2253 22.7275C23.0784 22.6173 23.0049 22.4643 23.0049 22.2684V21.6623C23.0049 21.5031 22.9253 21.4236 22.7662 21.4236H20.2868C20.0419 21.4236 19.846 21.3317 19.6991 21.1481C19.5644 20.9644 19.4971 20.7624 19.4971 20.542C19.4971 20.4563 19.5093 20.3706 19.5338 20.2849C19.5583 20.1992 19.595 20.1196 19.644 20.0461L22.656 15.62C22.7539 15.4731 22.8947 15.369 23.0784 15.3078C23.2743 15.2344 23.4579 15.1976 23.6293 15.1976C23.9109 15.1976 24.1375 15.2833 24.3089 15.4548C24.4803 15.6139 24.5721 15.8159 24.5843 16.0608V19.6237C24.5843 19.7829 24.6639 19.8625 24.8231 19.8625H24.9333C25.1537 19.8625 25.3251 19.9298 25.4475 20.0645C25.5822 20.1992 25.6496 20.389 25.6496 20.6338C25.6496 20.8665 25.5822 21.0563 25.4475 21.2032C25.3251 21.3501 25.1537 21.4236 24.9333 21.4236H24.8231C24.6639 21.4236 24.5843 21.5031 24.5843 21.6623V22.2684C24.5843 22.4643 24.5109 22.6173 24.364 22.7275C24.2293 22.85 24.0395 22.9112 23.7946 22.9112ZM15.1196 17.2729C14.9482 17.628 14.8625 18.2035 14.8625 18.9993C14.8625 19.7952 14.9421 20.3951 15.1013 20.7991C15.2727 21.1909 15.5665 21.3868 15.9828 21.3868C16.4113 21.3868 16.7113 21.1787 16.8827 20.7624C17.0541 20.3461 17.1398 19.7462 17.1398 18.9626C17.1398 18.179 17.0541 17.6158 16.8827 17.2729C16.7235 16.9179 16.4297 16.7403 16.0012 16.7403C15.5849 16.7403 15.291 16.9179 15.1196 17.2729ZM22.858 19.8625H21.6642C21.5663 19.8625 21.5173 19.8258 21.5173 19.7523C21.5173 19.7278 21.5295 19.6911 21.554 19.6421L22.8213 17.6403C22.858 17.579 22.9008 17.5484 22.9498 17.5484C23.0478 17.5484 23.0967 17.6035 23.0967 17.7137V19.6237C23.0967 19.7829 23.0171 19.8625 22.858 19.8625ZM8.51777 19.8625H9.71153C9.8707 19.8625 9.95028 19.7829 9.95028 19.6237V17.7137C9.95028 17.6035 9.90131 17.5484 9.80336 17.5484C9.75438 17.5484 9.71153 17.579 9.6748 17.6403L8.40757 19.6421C8.38309 19.6911 8.37084 19.7278 8.37084 19.7523C8.37084 19.8258 8.41982 19.8625 8.51777 19.8625Z" fill="black"/>
<path fill-rule="evenodd" clip-rule="evenodd" d="M2.70361 10.5743V21.3282C2.70366 23.3904 3.42802 25.0936 4.8182 26.2631C6.1838 27.4119 8.07298 27.9466 10.2349 27.9467H21.8143C23.9783 27.9467 25.8664 27.4226 27.231 26.2917C28.6221 25.1387 29.3455 23.456 29.3455 21.418V10.5743C29.3518 8.53686 28.6318 6.85636 27.2414 5.70581C25.8778 4.57761 23.9898 4.05739 21.8273 4.05737H10.2349C8.07794 4.05743 6.19048 4.57762 4.82471 5.70451C3.43169 6.85403 2.70367 8.53458 2.70361 10.5743ZM6.09814 7.24748C5.23082 7.96314 4.70367 9.04122 4.70361 10.5743V10.9792H27.3455V10.5704C27.3508 9.03673 26.8294 7.96009 25.9666 7.24618C25.0759 6.50913 23.6978 6.05739 21.8273 6.05737H10.2349C8.37169 6.05743 6.99293 6.50919 6.09814 7.24748ZM25.9549 24.7527C26.8211 24.0349 27.3455 22.9531 27.3455 21.418V12.9792H4.70361V21.3282C4.70366 22.8952 5.23555 24.0009 6.10596 24.7332C7.00092 25.4859 8.3769 25.9466 10.2349 25.9467H21.8143C23.6833 25.9467 25.0619 25.4927 25.9549 24.7527ZM10.6482 22.9112C10.4155 22.9112 10.2258 22.85 10.0788 22.7275C9.93192 22.6173 9.85846 22.4643 9.85846 22.2684V21.6623C9.85846 21.5031 9.77887 21.4236 9.6197 21.4236H7.14035C6.89548 21.4236 6.69958 21.3317 6.55265 21.1481C6.41797 20.9644 6.35063 20.7624 6.35063 20.542C6.35063 20.4563 6.36287 20.3706 6.38736 20.2849C6.41185 20.1992 6.44858 20.1196 6.49756 20.0461L9.50951 15.62C9.60746 15.4731 9.74826 15.369 9.93192 15.3078C10.1278 15.2344 10.3115 15.1976 10.4829 15.1976C10.7645 15.1976 10.991 15.2833 11.1624 15.4548C11.3338 15.6139 11.4257 15.8159 11.4379 16.0608V19.6237C11.4379 19.7829 11.5175 19.8625 11.6766 19.8625H11.7868C12.0072 19.8625 12.1786 19.9298 12.3011 20.0645C12.4358 20.1992 12.5031 20.389 12.5031 20.6338C12.5031 20.8665 12.4358 21.0563 12.3011 21.2032C12.1786 21.3501 12.0072 21.4236 11.7868 21.4236H11.6766C11.5175 21.4236 11.4379 21.5031 11.4379 21.6623V22.2684C11.4379 22.4643 11.3644 22.6173 11.2175 22.7275C11.0828 22.85 10.893 22.9112 10.6482 22.9112ZM13.2463 18.9993C13.2463 17.7994 13.4728 16.8689 13.9259 16.2077C14.3911 15.5343 15.0768 15.1976 15.9828 15.1976C16.9011 15.1976 17.5928 15.5343 18.0581 16.2077C18.5234 16.8689 18.756 17.7933 18.756 18.9809C18.756 20.1686 18.5234 21.1236 18.0581 21.846C17.5928 22.5561 16.9011 22.9112 15.9828 22.9112C15.0768 22.9112 14.3911 22.5622 13.9259 21.8643C13.4728 21.1664 13.2463 20.2114 13.2463 18.9993ZM23.7946 22.9112C23.562 22.9112 23.3722 22.85 23.2253 22.7275C23.0784 22.6173 23.0049 22.4643 23.0049 22.2684V21.6623C23.0049 21.5031 22.9253 21.4236 22.7662 21.4236H20.2868C20.0419 21.4236 19.846 21.3317 19.6991 21.1481C19.5644 20.9644 19.4971 20.7624 19.4971 20.542C19.4971 20.4563 19.5093 20.3706 19.5338 20.2849C19.5583 20.1992 19.595 20.1196 19.644 20.0461L22.656 15.62C22.7539 15.4731 22.8947 15.369 23.0784 15.3078C23.2743 15.2344 23.4579 15.1976 23.6293 15.1976C23.9109 15.1976 24.1375 15.2833 24.3089 15.4548C24.4803 15.6139 24.5721 15.8159 24.5843 16.0608V19.6237C24.5843 19.7829 24.6639 19.8625 24.8231 19.8625H24.9333C25.1537 19.8625 25.3251 19.9298 25.4475 20.0645C25.5822 20.1992 25.6496 20.389 25.6496 20.6338C25.6496 20.8665 25.5822 21.0563 25.4475 21.2032C25.3251 21.3501 25.1537 21.4236 24.9333 21.4236H24.8231C24.6639 21.4236 24.5843 21.5031 24.5843 21.6623V22.2684C24.5843 22.4643 24.5109 22.6173 24.364 22.7275C24.2293 22.85 24.0395 22.9112 23.7946 22.9112ZM15.1196 17.2729C14.9482 17.628 14.8625 18.2035 14.8625 18.9993C14.8625 19.7952 14.9421 20.3951 15.1013 20.7991C15.2727 21.1909 15.5665 21.3868 15.9828 21.3868C16.4113 21.3868 16.7113 21.1787 16.8827 20.7624C17.0541 20.3461 17.1398 19.7462 17.1398 18.9626C17.1398 18.179 17.0541 17.6158 16.8827 17.2729C16.7235 16.9179 16.4297 16.7403 16.0012 16.7403C15.5849 16.7403 15.291 16.9179 15.1196 17.2729ZM22.858 19.8625H21.6642C21.5663 19.8625 21.5173 19.8258 21.5173 19.7523C21.5173 19.7278 21.5295 19.6911 21.554 19.6421L22.8213 17.6403C22.858 17.579 22.9008 17.5484 22.9498 17.5484C23.0478 17.5484 23.0967 17.6035 23.0967 17.7137V19.6237C23.0967 19.7829 23.0171 19.8625 22.858 19.8625ZM8.51777 19.8625H9.71153C9.8707 19.8625 9.95028 19.7829 9.95028 19.6237V17.7137C9.95028 17.6035 9.90131 17.5484 9.80336 17.5484C9.75438 17.5484 9.71153 17.579 9.6748 17.6403L8.40757 19.6421C8.38309 19.6911 8.37084 19.7278 8.37084 19.7523C8.37084 19.8258 8.41982 19.8625 8.51777 19.8625Z" fill="black"/>
</svg>
