<svg width="32" height="32" viewBox="0 0 32 32" fill="none" xmlns="http://www.w3.org/2000/svg">
<path d="M12.2486 21.1667C12.8009 21.1667 13.2486 21.6144 13.2486 22.1667C13.2486 22.7189 12.8009 23.1667 12.2486 23.1667H10.5728C10.0207 23.1664 9.57283 22.7188 9.57283 22.1667C9.57283 21.6145 10.0207 21.1669 10.5728 21.1667H12.2486Z" fill="black"/>
<path d="M17.0771 21.1667C17.6294 21.1667 18.0771 21.6144 18.0771 22.1667C18.0771 22.7189 17.6294 23.1667 17.0771 23.1667H15.4013C14.8492 23.1664 14.4013 22.7188 14.4013 22.1667C14.4013 21.6145 14.8492 21.1669 15.4013 21.1667H17.0771Z" fill="black"/>
<path d="M22.3633 21.1667C22.9156 21.1667 23.3633 21.6144 23.3633 22.1667C23.3633 22.7189 22.9156 23.1667 22.3633 23.1667H20.6875C20.1354 23.1664 19.6875 22.7188 19.6875 22.1667C19.6875 21.6145 20.1354 21.1669 20.6875 21.1667H22.3633Z" fill="black"/>
<path fill-rule="evenodd" clip-rule="evenodd" d="M24.3563 13.4288L24.4385 14.1979H16.0586L15.4414 14.2135C9.10081 14.5348 4.05859 19.7775 4.05859 26.1979V26.5312C4.05859 27.2676 4.65555 27.8646 5.39193 27.8646H26.5885L26.7357 27.8568C27.4636 27.777 28.0031 27.1138 27.9115 26.3685L26.618 15.862C26.6195 15.8162 26.6178 15.7699 26.6128 15.7231L26.3445 13.2153C25.7822 7.96425 21.3508 3.98218 16.0698 3.98218H11.4109C10.8587 3.98218 10.4109 4.42989 10.4109 4.98218C10.4109 5.53446 10.8587 5.98218 11.4109 5.98218H16.0698C20.3287 5.98218 23.9028 9.19412 24.3563 13.4288ZM16.0586 16.1979C10.6473 16.1979 6.24228 20.4961 6.06641 25.8646H25.8333L24.6432 16.1979H16.0586ZM13.2486 22.1667C13.2486 21.6144 12.8009 21.1667 12.2486 21.1667H10.5728C10.0207 21.1669 9.57283 21.6145 9.57283 22.1667C9.57283 22.7188 10.0207 23.1664 10.5728 23.1667H12.2486C12.8009 23.1667 13.2486 22.7189 13.2486 22.1667ZM18.0771 22.1667C18.0771 21.6144 17.6294 21.1667 17.0771 21.1667H15.4013C14.8492 21.1669 14.4013 21.6145 14.4013 22.1667C14.4013 22.7188 14.8492 23.1664 15.4013 23.1667H17.0771C17.6294 23.1667 18.0771 22.7189 18.0771 22.1667ZM23.3633 22.1667C23.3633 21.6144 22.9156 21.1667 22.3633 21.1667H20.6875C20.1354 21.1669 19.6875 21.6145 19.6875 22.1667C19.6875 22.7188 20.1354 23.1664 20.6875 23.1667H22.3633C22.9156 23.1667 23.3633 22.7189 23.3633 22.1667Z" fill="black"/>
</svg>
