<svg width="32" height="32" viewBox="0 0 32 32" fill="none" xmlns="http://www.w3.org/2000/svg">
<path fill-rule="evenodd" clip-rule="evenodd" d="M25.7372 10.6882C25.7789 10.8675 25.8063 11.0509 25.8188 11.2369C25.8246 11.1934 25.8275 11.1491 25.8275 11.1041C25.8275 10.9557 25.7952 10.8148 25.7372 10.6882Z" fill="black"/>
<path d="M16.171 20.7812C16.7231 20.7812 17.1707 21.2292 17.171 21.7812C17.171 22.3335 16.7233 22.7812 16.171 22.7812H11.9978C11.4455 22.7812 10.9978 22.3335 10.9978 21.7812C10.9981 21.2292 11.4457 20.7812 11.9978 20.7812H16.171ZM20.003 17.4714C20.555 17.4716 21.0029 17.9193 21.003 18.4714C21.003 19.0235 20.5551 19.4711 20.003 19.4714H11.9978C11.4455 19.4714 10.9978 19.0236 10.9978 18.4714C10.9979 17.9192 11.4456 17.4714 11.9978 17.4714H20.003ZM20.003 14.1615C20.5551 14.1617 21.003 14.6093 21.003 15.1615C21.003 15.7136 20.5551 16.1612 20.003 16.1615H11.9978C11.4455 16.1615 10.9978 15.7137 10.9978 15.1615C10.9978 14.6092 11.4455 14.1615 11.9978 14.1615H20.003Z" fill="black"/>
<path d="M20.5828 12.1041H23.8265V24.5247C23.8263 25.3252 23.1777 25.974 22.3747 25.974H9.62467C8.82289 25.9739 8.17293 25.3239 8.17285 24.5221V7.35807C8.17293 6.5556 8.82228 5.90633 9.62337 5.90625H17.7442V9.26551C17.7445 10.8331 19.0153 12.1038 20.5828 12.1041ZM23.0593 10.1041H20.5828C20.1198 10.1038 19.7445 9.72846 19.7442 9.26551V6.78997L23.0593 10.1041ZM25.7372 10.6882C25.5924 10.0651 25.2752 9.49167 24.8161 9.03255L20.7002 4.91667C20.0542 4.27092 19.1808 3.90636 18.264 3.90625H9.62337C7.71633 3.90633 6.17293 5.45241 6.17285 7.35807V24.5221C6.17293 26.4285 7.71834 27.9739 9.62467 27.974H22.3747C24.2798 27.974 25.8263 26.4323 25.8265 24.5247V11.4674C25.8265 11.3902 25.8239 11.3133 25.8188 11.2369C25.8063 11.0509 25.7789 10.8675 25.7372 10.6882Z" fill="black"/>
</svg>
