<svg width="32" height="32" viewBox="0 0 32 32" fill="none" xmlns="http://www.w3.org/2000/svg">
<path d="M23.5868 10.84C20.7468 10.84 18.4001 12.8933 17.9201 15.6H14.0935C13.6135 12.8933 11.2535 10.84 8.41347 10.84C5.2268 10.84 2.64014 13.4267 2.64014 16.6133C2.64014 19.8 5.2268 22.3867 8.41347 22.3867C11.2668 22.3867 13.6268 20.32 14.0935 17.6H17.9201C18.3735 20.32 20.7335 22.3867 23.5868 22.3867C26.7735 22.3867 29.3601 19.8 29.3601 16.6133C29.3601 13.4267 26.7735 10.84 23.5868 10.84ZM8.41347 20.3867C6.33347 20.3867 4.64014 18.6933 4.64014 16.6133C4.64014 14.5333 6.33347 12.84 8.41347 12.84C10.4935 12.84 12.1868 14.5333 12.1868 16.6133C12.1868 18.6933 10.4935 20.3867 8.41347 20.3867ZM23.5868 20.3867C21.5068 20.3867 19.8268 18.6933 19.8268 16.6133C19.8268 14.5333 21.5068 12.84 23.5868 12.84C25.6668 12.84 27.3601 14.5333 27.3601 16.6133C27.3601 18.6933 25.6668 20.3867 23.5868 20.3867Z" fill="black"/>
<path d="M7.73347 7.33333C8.7868 7.22667 9.80014 7.4 10.9468 7.70667C11.4801 7.85333 11.8001 8.4 11.6535 8.93333C11.5068 9.46667 10.9601 9.78667 10.4268 9.64C9.36014 9.36 8.6268 9.25333 7.92014 9.33333C7.2268 9.4 6.4668 9.65333 5.40014 10.24C4.92014 10.5067 4.3068 10.3333 4.04014 9.84C3.77347 9.36 3.96014 8.74667 4.44014 8.48C5.64014 7.82667 6.65347 7.44 7.72014 7.33333H7.73347Z" fill="black"/>
<path d="M24.4668 7.41333C25.5201 7.58667 26.4535 8.01333 27.4801 8.6C27.9601 8.88 28.1201 9.48 27.8535 9.96C27.5735 10.44 26.9735 10.6 26.4935 10.3333C25.5335 9.78667 24.8535 9.49333 24.1468 9.38667C23.4535 9.28 22.6668 9.33333 21.4801 9.61333C20.9468 9.74667 20.4001 9.41333 20.2668 8.88C20.1335 8.34667 20.4668 7.8 21.0001 7.66667C22.3335 7.34667 23.4135 7.24 24.4668 7.41333Z" fill="black"/>
</svg>
