<svg width="32" height="32" viewBox="0 0 32 32" fill="none" xmlns="http://www.w3.org/2000/svg">
<path d="M26.0363 16.0406C26.0362 10.5322 21.5708 6.06665 16.0623 6.06665C10.5539 6.06677 6.08851 10.5323 6.08838 16.0406C6.08838 18.4228 6.92223 20.608 8.31494 22.3232C8.77101 22.8845 8.82806 23.7158 8.36051 24.3362L7.09489 26.0146H16.0623C21.5709 26.0146 26.0363 21.5491 26.0363 16.0406ZM28.0363 16.0406C28.0363 22.6537 22.6754 28.0146 16.0623 28.0146H7.04541C5.41525 28.0145 4.48745 26.1521 5.46859 24.8505L6.58968 23.3622C5.02311 21.338 4.08838 18.7975 4.08838 16.0406C4.08851 9.42771 9.44936 4.06677 16.0623 4.06665C22.6754 4.06665 28.0362 9.42763 28.0363 16.0406Z" fill="black"/>
<path fill-rule="evenodd" clip-rule="evenodd" d="M19.4641 13.1395H20.1529C21.1608 13.1396 21.9784 13.9573 21.9784 14.9651V20.7567C21.9783 21.7654 21.1602 22.5822 20.1529 22.5822H11.8469C10.8385 22.5822 10.0216 21.765 10.0214 20.7567V13.0406C10.0214 12.0332 10.838 11.2151 11.8469 11.2151H13.7441C13.7594 10.22 14.5698 9.41823 15.5683 9.41818H17.6386C18.6463 9.41839 19.4641 10.236 19.4641 11.2437V13.1395ZM12.0209 14.4063L12.0214 13.2151H14.7428C15.2947 13.2148 15.7425 12.767 15.7428 12.2151V11.4182H17.4641V20.5822H12.0214L12.0209 19.1436H14.7227C15.275 19.1436 15.7227 18.6959 15.7227 18.1436C15.7227 17.5913 15.275 17.1436 14.7227 17.1436H12.0209V16.4063H14.7227C15.275 16.4063 15.7227 15.9586 15.7227 15.4063C15.7227 14.854 15.275 14.4063 14.7227 14.4063H12.0209ZM19.9784 20.5822H19.4641V15.1395H19.9784V20.5822Z" fill="black"/>
</svg>
