<svg width="32" height="32" viewBox="0 0 32 32" fill="none" xmlns="http://www.w3.org/2000/svg">
<path d="M15.2905 8.71316C15.2996 8.70402 15.3089 8.69508 15.3183 8.68633C15.3253 8.67987 15.3389 8.66759 15.3462 8.66135L15.3576 8.65166C15.4125 8.60586 15.4724 8.56591 15.5362 8.53242C15.6782 8.45829 15.8373 8.41846 16.0001 8.41846C16.2659 8.41857 16.5209 8.52483 16.7085 8.71316L21.9949 14.0218C22.3846 14.413 22.3835 15.0461 21.9923 15.4358C21.6011 15.8255 20.968 15.8244 20.5783 15.4332L17.0001 11.8408L17.0001 22.5812C17.0001 23.1335 16.5524 23.5812 16.0001 23.5812C15.4479 23.5812 15.0001 23.1335 15.0001 22.5812L15.0001 11.8408L11.422 15.4332C11.0323 15.8244 10.3992 15.8254 10.008 15.4358C9.61681 15.0461 9.61574 14.413 10.0053 14.0218L15.2905 8.71316Z" fill="black"/>
</svg>
