<svg width="32" height="32" viewBox="0 0 32 32" fill="none" xmlns="http://www.w3.org/2000/svg">
<path d="M12.0702 29.2864C12.0321 29.2868 11.9939 29.2847 11.956 29.2799C11.8155 29.2618 11.6809 29.2106 11.5623 29.13C11.4437 29.0495 11.3443 28.942 11.2716 28.8155L8.67808 24.3077L4.34813 21.6022C4.22648 21.5267 4.12305 21.4232 4.04572 21.2995C3.96839 21.1759 3.9192 21.0355 3.90194 20.8891C3.88468 20.7426 3.89981 20.5939 3.94614 20.4546C3.99247 20.3151 4.06879 20.1886 4.16927 20.0845L5.98024 18.1981C6.07613 18.0959 6.193 18.0178 6.32207 17.9694C6.45115 17.9208 6.58909 17.9036 6.72551 17.9186L9.65934 18.2214L11.5734 15.8239L6.36778 10.3121C6.27918 10.2187 6.20981 10.1073 6.16389 9.98498C6.11797 9.86262 6.09647 9.7318 6.10072 9.60052C6.10517 9.46901 6.13509 9.33979 6.18866 9.22062C6.24224 9.10145 6.31837 8.99477 6.4125 8.90701C6.61869 8.71682 6.81617 8.51886 7.01118 8.33254C7.46162 7.87465 7.94046 7.44805 8.44457 7.05551C8.95038 6.70787 9.53169 6.49765 10.1355 6.4441C10.7393 6.39054 11.3464 6.49531 11.9013 6.74887C13.9347 7.48378 15.9692 8.22386 17.9876 9.01052C18.0209 9.02377 18.0549 9.035 18.0895 9.04416C18.0994 9.03122 18.1267 9.00534 18.1652 8.96394C19.2931 7.7516 20.3153 6.66606 21.4183 5.63098C23.033 4.11847 25.5309 3.28006 27.194 5.0164C28.7852 6.67124 28.1008 9.29517 26.6028 11.0302C25.557 12.24 24.4142 13.3967 23.4044 14.4175C23.3752 14.4459 23.3483 14.4766 23.3237 14.5093C23.3237 14.5223 23.3398 14.5572 23.3572 14.6051C24.1112 16.696 24.8154 18.7972 25.5284 20.945C25.7722 21.5229 25.8731 22.1554 25.8217 22.7844C25.7702 23.4135 25.5681 24.0191 25.234 24.5457C24.8547 25.0731 24.4427 25.5741 24.0006 26.0453C23.8205 26.2459 23.6379 26.4503 23.4566 26.6612C23.3725 26.7595 23.2701 26.839 23.1556 26.8949C23.0412 26.9506 22.9171 26.9817 22.7908 26.986C22.6645 26.9913 22.5387 26.9691 22.421 26.921C22.3034 26.8729 22.1967 26.7999 22.1077 26.7065L16.8138 21.2814L14.5011 23.2635L14.8054 26.3313C14.8195 26.4747 14.8029 26.6197 14.7564 26.7555C14.71 26.8915 14.6351 27.0148 14.5371 27.1166L12.7261 29.0044C12.5518 29.185 12.316 29.2864 12.0702 29.2864ZM6.32928 20.5775L9.83323 22.7667C9.96445 22.8489 10.0741 22.9635 10.1525 23.1005L12.2553 26.7505L12.9087 26.0686L12.5981 22.9414C12.5826 22.782 12.6051 22.6209 12.6636 22.4726C12.7221 22.3243 12.8148 22.1934 12.9335 22.0913L16.281 19.2254C16.4587 19.0747 16.6835 18.9973 16.9126 19.0081C17.1418 19.0188 17.359 19.1169 17.5231 19.2837L22.7287 24.6195C23.0843 24.2397 23.4162 23.8365 23.7224 23.4123C23.9298 23.1109 24.1236 22.6283 23.7721 21.5789C23.0715 19.4726 22.3685 17.37 21.617 15.2857C21.4543 14.9029 21.4148 14.4757 21.5044 14.0676C21.5939 13.6596 21.8077 13.2926 22.1139 13.0215C23.0976 12.0252 24.218 10.8918 25.2191 9.7299C25.9283 8.9096 26.7345 7.27158 25.8799 6.38659C25.0253 5.5016 23.4553 6.33484 22.6666 7.07363C21.6083 8.06601 20.6097 9.12697 19.5067 10.3083C19.2465 10.6269 18.8945 10.8494 18.503 10.9427C18.1115 11.0359 17.7016 10.9949 17.3343 10.8258C15.3345 10.0495 13.3149 9.31069 11.2964 8.58096C10.2866 8.2161 9.82328 8.41664 9.53263 8.63401C9.12531 8.95213 8.73861 9.29791 8.37501 9.66909L13.4962 15.0916C13.6568 15.2625 13.751 15.4892 13.7606 15.7282C13.7702 15.967 13.6946 16.2012 13.5484 16.3854L10.7797 19.8542C10.6834 19.9773 10.5591 20.0734 10.4181 20.1337C10.2771 20.194 10.1239 20.2168 9.97235 20.1997L6.99132 19.8918L6.32928 20.5775Z" fill="black"/>
</svg>
