<?xml version="1.0" encoding="UTF-8"?>
<svg id="Capa_1" xmlns="http://www.w3.org/2000/svg" version="1.1" viewBox="0 0 32 32">
  <!-- Generator: Adobe Illustrator 30.0.0, SVG Export Plug-In . SVG Version: 2.1.1 Build 123)  -->
  <defs>
    <style>
      .st0 {
        fill-rule: evenodd;
      }
    </style>
  </defs>
  <path class="st0" d="M26.2,17c-.43-2.91-1.49-4.68-2.84-6.42-.33-.42-.66-.84-1.01-1.26-1.07-1.32-2.23-2.74-3.45-4.84-.16-.28-.45-.47-.78-.49-.28-.02-.56.07-.77.27l-.08.09c-1.82,2.16-2.65,4.49-3.03,6.27-.12.58-.2,1.1-.25,1.55-.61-.42-1.12-1.01-1.52-1.64-.3-.48-.52-.94-.67-1.28-.07-.17-.12-.31-.15-.4-.02-.05-.03-.08-.03-.1v-.03c-.1-.3-.33-.54-.63-.65-.26-.09-.55-.07-.79.05l-.1.06c-.73.49-1.56,1.5-2.27,2.7-.73,1.23-1.42,2.78-1.81,4.47-.78,3.39-.39,7.47,3.34,10.43,1.9,1.51,4.1,2.24,6.28,2.32.16,0,.32,0,.48,0,1.66,0,3.29-.39,4.73-1.09,3.51-1.69,6.04-5.3,5.35-9.99ZM18.1,25.35c-.6.48-1.31.71-2.01.74-.12,0-.24,0-.36,0-.45-.03-.89-.15-1.3-.34-1.1-.53-1.82-1.59-1.61-3,.15-.99.48-1.56,1-2.23.12-.15.25-.31.39-.49.25-.3.52-.64.82-1.04.14.37.23.75.29,1.09.06.37.08.68.08.9,0,.11,0,.2,0,.25,0,.03,0,.06,0,.07-.03.32.1.63.34.84.24.21.57.29.88.22.97-.22,1.62-.95,2.01-1.56.2.39.37.83.48,1.3.27,1.19.11,2.37-1,3.26ZM20.97,24.64c.34-1.02.3-2.07.08-3-.19-.83-.52-1.58-.88-2.18-.34-.57-.76-1.1-1.19-1.39-.26-.18-.6-.22-.9-.11-.3.11-.53.36-.62.66v.02s-.02.03-.02.03c-.02.05-.04.12-.07.2-.04.11-.1.24-.17.38-.2-.87-.58-1.9-1.35-2.82-.21-.25-.53-.38-.85-.35-.08,0-.17.03-.24.05-.19.07-.35.18-.47.34l-.07.1c-.53.91-1.02,1.51-1.49,2.1-.16.2-.32.4-.48.61-.65.83-1.18,1.72-1.39,3.16-.11.72-.06,1.39.1,2-.11-.08-.23-.17-.34-.26-2.93-2.33-3.31-5.51-2.64-8.42.34-1.46.93-2.82,1.58-3.9.27-.45.53-.83.77-1.14.13.26.29.55.48.84.74,1.17,2,2.59,3.91,3.03.29.07.59,0,.83-.18.01-.01.03-.02.04-.03.21-.18.34-.43.35-.7v-.13s0-.02,0-.02c0-.03,0-.07,0-.13,0-.12,0-.29.02-.52.03-.46.09-1.11.26-1.88.26-1.24.78-2.76,1.76-4.26,1.03,1.6,2.03,2.83,2.9,3.89.33.41.64.79.93,1.16,1.21,1.57,2.08,3.02,2.44,5.49.48,3.27-.97,5.85-3.26,7.35Z"/>
</svg>