<svg width="32" height="32" viewBox="0 0 32 32" fill="none" xmlns="http://www.w3.org/2000/svg">
<path fill-rule="evenodd" clip-rule="evenodd" d="M16.1615 13.0547H15.838C15.8906 13.0633 15.9447 13.0677 15.9998 13.0677C16.0548 13.0677 16.1089 13.0633 16.1615 13.0547Z" fill="black"/>
<path d="M13.4653 20.9388H14.9998V21.6003C14.9998 22.1525 15.4475 22.6003 15.9998 22.6003C16.552 22.6003 16.9998 22.1525 16.9998 21.6003V20.9388H17.1267C18.7674 20.9385 20.0968 19.6083 20.0968 17.9674C20.0966 16.3267 18.7674 14.9964 17.1267 14.9961H14.8741C14.338 14.9961 13.9029 14.5622 13.9028 14.026C13.9028 13.4895 14.3378 13.0547 14.8741 13.0547H15.838H16.1615H18.5343C19.0865 13.0547 19.5343 12.607 19.5343 12.0547C19.5343 11.5024 19.0865 11.0547 18.5343 11.0547H16.9998V10.3984C16.9998 9.84615 16.552 9.39844 15.9998 9.39844C15.4475 9.39844 14.9998 9.84615 14.9998 10.3984V11.0547H14.8741C13.2332 11.0547 11.9028 12.385 11.9028 14.026C11.9029 15.6667 13.2333 16.9961 14.8741 16.9961H17.1267C17.6628 16.9964 18.0966 17.4313 18.0968 17.9674C18.0968 18.5037 17.6629 18.9385 17.1267 18.9388H13.4653C12.9131 18.9389 12.4653 19.3866 12.4653 19.9388C12.4653 20.4909 12.9131 20.9387 13.4653 20.9388Z" fill="black"/>
<path d="M25.8984 16C25.8984 10.5332 21.4668 6.10156 16 6.10156C10.5332 6.10156 6.10156 10.5332 6.10156 16C6.10156 21.4668 10.5332 25.8984 16 25.8984C21.4668 25.8984 25.8984 21.4668 25.8984 16ZM27.8984 16C27.8984 22.5713 22.5713 27.8984 16 27.8984C9.42867 27.8984 4.10156 22.5713 4.10156 16C4.10156 9.42867 9.42867 4.10156 16 4.10156C22.5713 4.10156 27.8984 9.42867 27.8984 16Z" fill="black"/>
</svg>
