<svg width="32" height="32" viewBox="0 0 32 32" fill="none" xmlns="http://www.w3.org/2000/svg">
<path fill-rule="evenodd" clip-rule="evenodd" d="M16.0012 22.5717C15.4489 22.5717 15.0012 22.1239 15.0012 21.5717L15.0012 8.80616L10.9245 12.2072C10.5345 12.5984 9.90141 12.5995 9.51021 12.2095C9.11901 11.8196 9.11808 11.1864 9.50795 10.7953L15.2626 5.65648C15.4082 5.49701 15.6048 5.38488 15.8264 5.34581C15.8844 5.33541 15.9436 5.33008 16.0033 5.33008C16.2692 5.33021 16.5241 5.43608 16.7117 5.62448L22.4923 10.7957C22.882 11.1871 22.8806 11.8203 22.4893 12.2099C22.0979 12.5996 21.4647 12.5983 21.075 12.2069L17.0012 8.80429L17.0012 21.5717C17.0012 22.1239 16.5534 22.5717 16.0012 22.5717Z" fill="black"/>
<path fill-rule="evenodd" clip-rule="evenodd" d="M7.98291 25.6656C7.98291 25.1133 8.43062 24.6656 8.98291 24.6656H23.017C23.5693 24.6656 24.017 25.1133 24.017 25.6656C24.017 26.2179 23.5693 26.6656 23.017 26.6656H8.98291C8.43062 26.6656 7.98291 26.2179 7.98291 25.6656Z" fill="black"/>
</svg>
