<svg width="32" height="32" viewBox="0 0 32 32" fill="none" xmlns="http://www.w3.org/2000/svg">
<path fill-rule="evenodd" clip-rule="evenodd" d="M26.8748 11.6985V11.8211C26.8761 11.8008 26.8767 11.7804 26.8767 11.7598C26.8767 11.7392 26.8761 11.7188 26.8748 11.6985Z" fill="black"/>
<path d="M21.4232 7.76825C21.9755 7.76825 22.4232 8.21597 22.4232 8.76825C22.4232 9.32054 21.9755 9.76825 21.4232 9.76825C20.8709 9.76825 20.4102 9.32054 20.4102 8.76825C20.4102 8.21597 20.8709 7.76825 21.4232 7.76825Z" fill="black"/>
<path d="M18.9006 7.76825C19.4529 7.76825 19.9006 8.21597 19.9006 8.76825C19.9006 9.32054 19.4529 9.76825 18.9006 9.76825C18.3483 9.76825 17.8876 9.32054 17.8876 8.76825C17.8876 8.21597 18.3483 7.76825 18.9006 7.76825Z" fill="black"/>
<path d="M12.8991 7.76825C13.4514 7.76825 13.8991 8.21597 13.8991 8.76825C13.8991 9.32054 13.4514 9.76825 12.8991 9.76825H10.5489C9.99657 9.76825 9.54885 9.32054 9.54885 8.76825C9.54885 8.21597 9.99657 7.76825 10.5489 7.76825H12.8991Z" fill="black"/>
<path d="M24.8748 10.5781V10.7598H7.12354V10.5781C7.12354 9.17013 7.56184 8.04942 8.26937 7.29036C8.9696 6.53918 10.0061 6.0626 11.3709 6.0625H20.6274C21.9976 6.06259 23.0331 6.54005 23.7316 7.29036C24.4377 8.04883 24.8748 9.16889 24.8748 10.5781ZM26.8748 11.6985V10.5781C26.8748 8.75609 26.3054 7.1184 25.1965 5.92708C24.0799 4.72775 22.4918 4.06259 20.6274 4.0625H11.3709C9.51064 4.0626 7.92298 4.72863 6.80583 5.92708C5.69621 7.11778 5.12354 8.75502 5.12354 10.5781V21.5417C5.12354 23.3641 5.69311 25.0015 6.80192 26.1927C7.91851 27.3919 9.50668 28.0572 11.3709 28.0573H20.6261C22.4906 28.0572 24.0784 27.3929 25.1952 26.194C26.3045 25.0027 26.8748 23.3644 26.8748 21.5417V11.8211V11.6985ZM24.8748 12.7598V21.5417C24.8748 22.9516 24.4377 24.0725 23.7316 24.8307C23.0331 25.5806 21.997 26.0572 20.6261 26.0573H11.3709C10.0008 26.0572 8.96517 25.5806 8.26676 24.8307C7.56077 24.0725 7.12354 22.9516 7.12354 21.5417V12.7598H24.8748Z" fill="black"/>
<path fill-rule="evenodd" clip-rule="evenodd" d="M21.113 19.2379C21.113 22.0611 18.8228 24.3512 15.9997 24.3512C13.1768 24.351 10.8877 22.0609 10.8877 19.2379C10.8879 16.4152 13.1769 14.1262 15.9997 14.126C18.8227 14.126 21.1127 16.415 21.113 19.2379ZM15.9997 16.126C17.3426 16.126 18.4877 16.977 18.9242 18.169C18.6349 18.2836 18.3549 18.4338 18.0915 18.6195C17.7251 18.8811 17.5413 18.9593 17.2647 18.9594C16.9883 18.9592 16.7998 18.8781 16.4339 18.6169L16.0954 18.4021C15.2903 17.947 14.3769 17.8009 13.5121 17.9463C13.3841 17.9683 13.2567 17.9969 13.1303 18.0319C13.6017 16.9124 14.7091 16.1262 15.9997 16.126ZM18.8363 20.5221C18.347 21.6006 17.2605 22.3512 15.9997 22.3512C14.6339 22.351 13.4732 21.4699 13.0544 20.2454C13.2978 20.0752 13.5718 19.9638 13.8467 19.9164C14.3269 19.8363 14.8417 19.9396 15.2816 20.2497C15.7707 20.5985 16.3716 20.9607 17.266 20.9607C17.9243 20.9604 18.4236 20.7646 18.8363 20.5221Z" fill="black"/>
</svg>
