<?xml version="1.0" encoding="UTF-8"?>
<svg id="Capa_1" xmlns="http://www.w3.org/2000/svg" version="1.1" viewBox="0 0 32 32">
  <!-- Generator: Adobe Illustrator 30.0.0, SVG Export Plug-In . SVG Version: 2.1.1 Build 123)  -->
  <path d="M16.36,8.92h-.36c-3.91,0-7.09,3.16-7.09,7.08v.36c.19,3.62,3.1,6.53,6.72,6.71h.36c3.79,0,6.89-2.97,7.08-6.71v-.36c0-3.79-2.97-6.89-6.71-7.08ZM20.99,14.98h-2.27v-.02s1.62-1.63,1.62-1.63c.31.5.53,1.06.65,1.65ZM16.94,11c.75.14,1.44.44,2.03.87l-1.59,1.59c-.14-.08-.29-.14-.44-.2v-2.26ZM11.71,13.26l1.62,1.62s-.03.07-.04.1h-2.27c.13-.62.37-1.2.7-1.72ZM11.01,16.98h2.27c.05.14.11.27.18.4l-1.59,1.59c-.42-.58-.72-1.26-.86-1.99ZM14.94,20.98c-.58-.12-1.12-.34-1.61-.64l1.61-1.61v2.25ZM14.94,13.3c-.08.03-.17.07-.25.11l-1.59-1.59c.55-.38,1.17-.66,1.84-.8v2.28ZM16,16.89c-.49,0-.89-.4-.89-.89,0-.11.02-.22.06-.32.09-.23.28-.42.51-.51.1-.04.21-.06.32-.06.49,0,.89.4.89.89,0,.49-.4.89-.89.89ZM16.94,21v-2.26c.06-.02.12-.04.18-.07l1.62,1.62c-.54.34-1.15.59-1.8.71ZM20.18,18.9l-1.6-1.6c.05-.1.1-.21.14-.32h2.27c-.14.7-.42,1.35-.81,1.92Z"/>
  <path d="M16,4.06c-6.59,0-11.94,5.35-11.94,11.94s5.35,11.94,11.94,11.94,11.94-5.35,11.94-11.94-5.35-11.94-11.94-11.94ZM16,25.94c-5.49,0-9.94-4.45-9.94-9.94S10.51,6.06,16,6.06s9.94,4.45,9.94,9.94-4.45,9.94-9.94,9.94Z"/>
</svg>