<?xml version="1.0" encoding="UTF-8"?>
<svg id="Capa_1" xmlns="http://www.w3.org/2000/svg" version="1.1" viewBox="0 0 32 32">
  <!-- Generator: Adobe Illustrator 30.0.0, SVG Export Plug-In . SVG Version: 2.1.1 Build 123)  -->
  <path d="M11.24,22.68c.51,0,.99-.12,1.42-.35.07.04.15.08.22.11.06.03.13.05.19.07.03,0,.05.02.08.03.29.09.6.14.93.14,1.68,0,3.04-1.36,3.04-3.04,0-1.68-1.36-3.04-3.04-3.04-.14,0-.28,0-.41.03,0,0-.02,0-.02,0-.03,0-.06,0-.09.01-.04,0-.09.02-.13.03-.01,0-.02,0-.03,0-.15.03-.3.08-.44.14-.1.04-.2.09-.3.14-.18-.1-.38-.17-.58-.23-.27-.08-.55-.12-.85-.12-1.68,0-3.03,1.36-3.04,3.04,0,1.68,1.36,3.04,3.04,3.04ZM13.32,18.95s.01-.01.02-.02c0,0,.01-.01.02-.02,0,0,0-.01.01-.02,0,0,0,0,.01,0,0,0,0,0,.01-.01,0,0,0,0,.01-.01.14-.12.32-.21.51-.24.05,0,.11-.01.17-.01.57,0,1.04.46,1.04,1.04,0,.57-.46,1.04-1.04,1.04-.25,0-.48-.09-.65-.23-.01,0-.02-.02-.03-.03,0,0,0,0,0-.01,0,0,0,0-.01-.01-.01,0-.02-.02-.03-.03-.02-.02-.04-.03-.05-.05-.08-.09-.14-.2-.19-.32-.04-.11-.06-.23-.06-.36,0-.27.1-.51.27-.7ZM11.24,18.61c-.07.2-.13.41-.16.63,0,.01,0,.02,0,.03-.02.12-.02.25-.03.37,0,0,0,0,0,.01,0,.22.03.44.08.64.01.05.02.1.04.15.02.08.05.15.07.23-.57,0-1.04-.47-1.04-1.04,0-.57.47-1.03,1.04-1.04Z"/>
  <path d="M26.5,7.61c-.98-1.06-2.36-1.67-3.96-1.74h-.32s-12.34,0-12.34,0c-1.74,0-3.23.62-4.28,1.75-1.04,1.12-1.58,2.65-1.58,4.36v8.07c0,1.7.53,3.24,1.57,4.36,1.05,1.13,2.54,1.75,4.28,1.75h12.34c1.74,0,3.24-.62,4.29-1.75,1.04-1.12,1.58-2.66,1.58-4.36v-8.07c0-1.7-.53-3.24-1.58-4.36ZM26.08,20.04c0,1.29-.4,2.31-1.04,2.99-.63.68-1.57,1.11-2.82,1.11h-12.34c-1.25,0-2.19-.43-2.82-1.11-.64-.69-1.04-1.7-1.04-2.99v-5.69h20.06v5.69ZM26.08,12.35H6.02v-.38c0-1.29.4-2.31,1.04-2.99.63-.68,1.57-1.11,2.82-1.11h12.57c1.14.06,2,.48,2.59,1.11.64.69,1.04,1.71,1.04,2.99v.38Z"/>
</svg>