<?xml version="1.0" encoding="UTF-8"?>
<svg id="Capa_1" xmlns="http://www.w3.org/2000/svg" version="1.1" viewBox="0 0 32 32">
  <!-- Generator: Adobe Illustrator 30.0.0, SVG Export Plug-In . SVG Version: 2.1.1 Build 123)  -->
  <defs>
    <style>
      .st0 {
        fill-rule: evenodd;
      }
    </style>
  </defs>
  <path class="st0" d="M26.68,20.02c-.97-1.1-2.56-1.32-3.78-.61l-2.1-2.02c.13-.44.2-.91.2-1.39,0-1.06-.33-2.05-.9-2.86l2.37-2.1c.51.18,1.09.22,1.65.06,1.45-.41,2.3-1.91,1.89-3.36-.41-1.45-1.91-2.3-3.36-1.89-1.45.41-2.3,1.91-1.89,3.36.05.18.12.35.2.5l-2.31,2.05c-.77-.48-1.67-.76-2.64-.76-.87,0-1.69.22-2.4.61l-1.82-1.76c.22-.41.34-.88.34-1.38,0-1.66-1.33-3.01-2.98-3.02-1.66,0-3.01,1.33-3.02,2.98,0,1.66,1.33,3.01,2.98,3.02.43,0,.84-.09,1.21-.25l1.75,1.69c-.67.85-1.07,1.92-1.07,3.09,0,.55.09,1.08.25,1.57l-2.25,1.28c-.54-.56-1.3-.9-2.14-.9-1.66,0-3,1.34-3,3,0,1.66,1.34,3,3,3s3-1.34,3-3c0-.09,0-.19-.01-.28l2.41-1.37c.69.78,1.61,1.34,2.66,1.58v3.31c-.51.22-.96.6-1.26,1.12-.76,1.3-.33,2.97.98,3.73,1.3.76,2.97.33,3.73-.98.76-1.3.33-2.97-.98-3.73-.15-.09-.31-.16-.48-.22v-3.2c1.16-.21,2.19-.83,2.92-1.7l1.79,1.73c-.37,1-.2,2.17.56,3.03,1.09,1.24,2.99,1.37,4.23.27,1.24-1.09,1.37-2.99.27-4.23ZM23.2,7.76c.39-.11.79.12.9.51.11.39-.12.79-.51.9-.39.11-.79-.12-.9-.51-.11-.39.12-.79.51-.9ZM9.12,9.46c-.55,0-1-.45-.99-1.01,0-.55.45-1,1.01-.99.55,0,1,.45.99,1.01,0,.55-.45,1-1.01.99ZM6.85,21.95c-.55,0-1-.45-1-1,0-.55.45-1,1-1s1,.45,1,1c0,.55-.45,1-1,1ZM16.63,27.06c-.2.35-.65.46-1,.26-.35-.2-.46-.65-.26-1,.2-.35.65-.46,1-.26l.12.09c.25.23.32.61.14.91ZM16,19c-1.66,0-3-1.34-3-3s1.34-3,3-3,3,1.34,3,3-1.34,3-3,3ZM25.08,22.75c-.41.36-1.05.32-1.41-.09-.29-.33-.32-.79-.12-1.15l.34-.36c.41-.25.95-.18,1.28.19.36.41.32,1.05-.09,1.41Z"/>
</svg>