<svg width="32" height="32" viewBox="0 0 32 32" fill="none" xmlns="http://www.w3.org/2000/svg">
<path d="M21.565 11.2115C21.9657 10.8315 22.5977 10.8486 22.9778 11.2493C23.3576 11.6499 23.3416 12.282 22.9413 12.6621L20.8775 14.6191C20.4768 14.9985 19.8446 14.9816 19.4647 14.5813C19.0847 14.1806 19.1018 13.5473 19.5025 13.1673L21.565 11.2115Z" fill="black"/>
<path fill-rule="evenodd" clip-rule="evenodd" d="M20.8441 20.8201L20.7589 20.9053C20.7739 20.892 20.7885 20.8783 20.8028 20.864C20.8171 20.8497 20.8309 20.835 20.8441 20.8201Z" fill="black"/>
<path d="M25.9044 6.09516C23.2364 3.42727 18.9095 3.42727 16.2416 6.09516L6.03586 16.3009C3.36825 18.9701 3.36826 23.2957 6.03586 25.9649C8.70378 28.6325 13.0309 28.6319 15.6999 25.9649L20.7589 20.9053L20.8441 20.8201L25.9044 15.7592C28.5735 13.0901 28.5732 8.76446 25.9044 6.09516ZM11.8448 13.3201L18.6798 20.1551L14.2859 24.5496C12.3976 26.4368 9.33669 26.4373 7.44992 24.5509C5.56285 22.6626 5.56298 19.6033 7.44992 17.7149L11.8448 13.3201ZM20.0938 18.7409L13.2588 11.906L17.6557 7.50922C19.5426 5.62235 22.6034 5.62235 24.4903 7.50922C26.3781 9.39746 26.3771 12.457 24.489 14.3452L20.0938 18.7409Z" fill="black"/>
</svg>
