<?xml version="1.0" encoding="UTF-8"?>
<svg id="Capa_1" xmlns="http://www.w3.org/2000/svg" version="1.1" viewBox="0 0 32 32">
  <!-- Generator: Adobe Illustrator 30.0.0, SVG Export Plug-In . SVG Version: 2.1.1 Build 123)  -->
  <path d="M23.93,9.45h-6.44v-3.43h1.64c.55,0,1-.45,1-1s-.45-1-1-1h-8.65c-.55,0-1,.45-1,1s.45,1,1,1h1.65v3.43h-6.2v-4.31c0-.55-.45-1-1-1s-1,.45-1,1v20.15c0,.55.45,1,1,1s1-.45,1-1v-9h13.98c.64,0,1.16.52,1.16,1.16v.24c.13,1.17,1.12,2.08,2.32,2.08h1.88c1.38,0,2.52-1.05,2.65-2.39v-.27s.01-3.64.01-3.64c0-2.21-1.79-4-4-4ZM14.13,6.14h1.36v3.12h-1.36v-3.12ZM25.93,17.09c0,.37-.3.67-.67.67h-1.88c-.17,0-.32-.14-.32-.32,0-1.74-1.41-3.16-3.16-3.16H5.93v-2.83h18c1.1,0,2,.9,2,2v3.64Z"/>
  <path d="M27.49,23.61l-1.51-2.61-.1-.15c-.56-.72-1.69-.68-2.19.12l-1.58,2.57c-1.3,2.12.27,4.84,2.75,4.77,2.3-.06,3.72-2.48,2.73-4.5l-.1-.19ZM24.81,26.3c-.9.02-1.46-.96-.99-1.72l.99-1.61.95,1.64c.43.74-.09,1.67-.95,1.69Z"/>
</svg>