<?xml version="1.0" encoding="UTF-8"?>
<svg id="Capa_1" xmlns="http://www.w3.org/2000/svg" version="1.1" viewBox="0 0 32 32">
  <!-- Generator: Adobe Illustrator 30.0.0, SVG Export Plug-In . SVG Version: 2.1.1 Build 123)  -->
  <defs>
    <style>
      .st0 {
        fill-rule: evenodd;
      }
    </style>
  </defs>
  <path class="st0" d="M3.37,11.77c-.55,0-1,.45-1,1v2.23c0,.55.45,1,1,1,.55,0,1-.45,1-1v-2.23c0-.55-.45-1-1-1Z"/>
  <path class="st0" d="M29.63,12.77c0-.55-.45-1-1-1-.55,0-1,.45-1,1v2.23c0,.55.45,1,1,1,.55,0,1-.45,1-1v-2.23Z"/>
  <path class="st0" d="M22.72,22.74h.61c.55,0,1-.45,1-1s-.45-1-1-1h-.61c-.55,0-1,.45-1,1s.45,1,1,1Z"/>
  <path class="st0" d="M9.28,20.74h-.61c-.55,0-1,.45-1,1s.45,1,1,1h.61c.55,0,1-.45,1-1s-.45-1-1-1Z"/>
  <path class="st0" d="M11.95,21.74c0,.55.45,1,1,1h6.11c.55,0,1-.45,1-1s-.45-1-1-1h-6.11c-.55,0-1,.45-1,1Z"/>
  <path class="st0" d="M23.42,3.99h-14.85c-1.95,0-3.53,1.58-3.53,3.53v18.21c0,1.25,1.01,2.26,2.26,2.26h1.8c.8,0,1.55-.43,1.95-1.12l.49-.84c.05-.08.13-.13.23-.13h8.43c.09,0,.18.05.23.13l.49.84c.41.7,1.15,1.12,1.95,1.12h1.8c1.25,0,2.26-1.01,2.26-2.26V7.52c0-1.95-1.58-3.53-3.53-3.53ZM24.95,25.72v.05c-.03.12-.14.21-.26.21h-1.8c-.09,0-.18-.05-.23-.13l-.49-.84c-.41-.7-1.15-1.12-1.96-1.12h-8.43c-.7,0-1.36.33-1.79.88l-.17.25-.49.84c-.05.08-.13.13-.23.13h-1.8c-.15,0-.26-.12-.26-.26v-6.92c6,.8,11.89.8,17.9,0v6.92ZM24.95,16.78c-6.02.82-11.9.82-17.9,0v-7.07h17.9v7.07ZM24.95,7.71H7.05v-.19c0-.84.68-1.53,1.53-1.53h14.85c.84,0,1.53.68,1.53,1.53v.19Z"/>
</svg>