<svg width="32" height="32" viewBox="0 0 32 32" fill="none" xmlns="http://www.w3.org/2000/svg">
<path d="M17.0167 7.07812C17.0167 6.5179 16.5615 6.06265 15.9997 6.0625C15.4385 6.0625 14.9841 6.51697 14.9841 7.07812C14.9843 7.63914 15.4386 8.09375 15.9997 8.09375C16.5614 8.0936 17.0165 7.63821 17.0167 7.07812ZM19.0167 7.07812C19.0165 8.74446 17.6643 10.0936 15.9997 10.0938C14.3341 10.0938 12.9843 8.74371 12.9841 7.07812C12.9841 5.4124 14.334 4.0625 15.9997 4.0625C17.6644 4.06265 19.0167 5.41165 19.0167 7.07812Z" fill="black"/>
<path d="M17.0167 16.0315C17.0167 15.4712 16.5615 15.016 15.9997 15.0159C15.4385 15.0159 14.9841 15.4703 14.9841 16.0315C14.9843 16.5925 15.4387 17.0471 15.9997 17.0471C16.5614 17.047 17.0165 16.5915 17.0167 16.0315ZM19.0167 16.0315C19.0165 17.6977 17.6644 19.047 15.9997 19.0471C14.334 19.0471 12.9843 17.697 12.9841 16.0315C12.9841 14.3657 14.334 13.0159 15.9997 13.0159C17.6644 13.016 19.0167 14.365 19.0167 16.0315Z" fill="black"/>
<path d="M17.0167 24.9745C17.0167 24.4143 16.5615 23.959 15.9997 23.9589C15.4386 23.9589 14.9841 24.4134 14.9841 24.9745C14.9843 25.5356 15.4386 25.9901 15.9997 25.9901C16.5614 25.99 17.0165 25.5347 17.0167 24.9745ZM19.0167 24.9745C19.0165 26.6409 17.6643 27.99 15.9997 27.9901C14.3341 27.9901 12.9843 26.6402 12.9841 24.9745C12.9841 23.3089 14.3339 21.9589 15.9997 21.9589C17.6645 21.959 19.0167 23.3082 19.0167 24.9745Z" fill="black"/>
<path d="M8.40902 7.07812C8.40902 6.51794 7.95397 6.06267 7.39209 6.0625C6.83093 6.0625 6.37646 6.51697 6.37646 7.07812C6.37663 7.63914 6.83103 8.09375 7.39209 8.09375C7.95387 8.09358 8.40885 7.63817 8.40902 7.07812ZM10.409 7.07812C10.4089 8.74448 9.05671 10.0936 7.39209 10.0938C5.72646 10.0938 4.37663 8.74371 4.37646 7.07812C4.37646 5.4124 5.72636 4.0625 7.39209 4.0625C9.05681 4.06267 10.409 5.41163 10.409 7.07812Z" fill="black"/>
<path d="M8.40902 16.0315C8.40902 15.4712 7.95397 15.016 7.39209 15.0159C6.83093 15.0159 6.37646 15.4703 6.37646 16.0315C6.37662 16.5925 6.83107 17.0471 7.39209 17.0471C7.95384 17.0469 8.40887 16.5915 8.40902 16.0315ZM10.409 16.0315C10.4089 17.6977 9.05676 19.0469 7.39209 19.0471C5.72641 19.0471 4.37662 17.697 4.37646 16.0315C4.37646 14.3657 5.72636 13.0159 7.39209 13.0159C9.05681 13.016 10.409 14.3649 10.409 16.0315Z" fill="black"/>
<path d="M25.6268 7.07812C25.6268 6.51794 25.1719 6.06265 24.6099 6.0625C24.0497 6.0625 23.5943 6.51746 23.5943 7.07812C23.5944 7.63865 24.0498 8.09375 24.6099 8.09375C25.1718 8.0936 25.6267 7.63817 25.6268 7.07812ZM27.6268 7.07812C27.6267 8.7445 26.2746 10.0936 24.6099 10.0938C22.9462 10.0938 21.5944 8.7442 21.5943 7.07812C21.5943 5.41191 22.9461 4.0625 24.6099 4.0625C26.2747 4.06265 27.6268 5.41161 27.6268 7.07812Z" fill="black"/>
<path d="M25.6268 16.0315C25.6268 15.4712 25.1719 15.016 24.6099 15.0159C24.0497 15.0159 23.5943 15.4708 23.5943 16.0315C23.5944 16.592 24.0498 17.0471 24.6099 17.0471C25.1717 17.047 25.6267 16.5915 25.6268 16.0315ZM27.6268 16.0315C27.6267 17.6978 26.2746 19.047 24.6099 19.0471C22.9462 19.0471 21.5944 17.6974 21.5943 16.0315C21.5943 14.3652 22.9461 13.0159 24.6099 13.0159C26.2747 13.016 27.6268 14.3649 27.6268 16.0315Z" fill="black"/>
</svg>
