<svg width="32" height="32" viewBox="0 0 32 32" fill="none" xmlns="http://www.w3.org/2000/svg">
<path d="M27.3539 14.2207H27.3411L26.9059 13.6575C27.1491 13.6191 27.4051 13.5935 27.6483 13.5551C28.1731 13.4783 28.5315 12.9919 28.4547 12.4671C28.3907 11.9423 27.9043 11.5839 27.3795 11.6607C26.8035 11.7375 26.2147 11.8143 25.6387 11.8783L24.3587 8.48634C23.8979 7.23194 22.7203 6.31034 21.4019 6.10554L20.7235 6.01594C19.1619 5.81114 17.5747 5.70874 16.0003 5.70874C14.2083 5.70874 12.4291 5.83674 10.6499 6.10554C9.3187 6.32314 8.1539 7.23194 7.6931 8.48634L6.4131 11.8783C5.8243 11.8143 5.2227 11.7375 4.6339 11.6607C4.1091 11.5839 3.6227 11.9423 3.5587 12.4671C3.4819 12.9919 3.8403 13.4783 4.3651 13.5551C4.6339 13.5935 4.8899 13.6319 5.1587 13.6575L4.6851 14.2847C3.9555 15.2319 3.5715 16.3839 3.5715 17.5743L3.5459 23.9103C3.5459 25.1647 4.5955 26.0991 5.7859 26.0991H8.3203C9.5107 26.0991 10.5603 25.1647 10.5603 23.9103V23.4239C10.5603 23.3215 10.6627 23.1551 10.8803 23.1551H21.1459C21.3635 23.1551 21.4659 23.3215 21.4659 23.4239V23.9103C21.4659 25.1647 22.5027 26.0991 23.7059 26.0991H26.2531C27.4435 26.0991 28.4931 25.1647 28.4931 23.9103V17.5487C28.4931 16.3455 28.0835 15.1807 27.3539 14.2207ZM9.4979 9.16474C9.7027 8.58874 10.2659 8.11514 10.9443 8.01274C14.3107 7.50074 17.7411 7.50074 21.1075 8.01274C21.7859 8.11514 22.3619 8.58874 22.5667 9.15194L23.6675 12.0831C18.5859 12.5823 13.4659 12.5823 8.3843 12.0831L9.4979 9.16474ZM26.5731 23.9103C26.5731 24.0127 26.4707 24.1791 26.2531 24.1791H23.7059C23.4755 24.1791 23.3859 24.0127 23.3859 23.9103V23.4239C23.3859 22.1695 22.3363 21.2351 21.1459 21.2351H10.8803C9.6899 21.2351 8.6403 22.1695 8.6403 23.4239V23.9103C8.6403 24.0127 8.5507 24.1791 8.3203 24.1791H5.7859C5.5683 24.1791 5.4659 24.0127 5.4659 23.9103L5.4915 17.5743C5.4915 16.8063 5.7347 16.0639 6.2083 15.4367L7.3731 13.9263C13.1331 14.5279 18.9315 14.5279 24.6787 13.9135L25.8307 15.3855C26.2531 15.9359 26.5091 16.5887 26.5603 17.2543V17.5487L26.5731 23.9103Z" fill="black"/>
<path d="M23.808 17.9712C23.808 18.496 23.3728 18.9312 22.848 18.9312H20.544C20.0192 18.9312 19.584 18.496 19.584 17.9712C19.584 17.4464 20.0192 17.0112 20.544 17.0112H22.848C23.3728 17.0112 23.808 17.4336 23.808 17.9712Z" fill="black"/>
<path d="M12.4418 17.9712C12.4418 18.496 12.0066 18.9312 11.4818 18.9312H9.17777C8.65297 18.9312 8.21777 18.496 8.21777 17.9712C8.21777 17.4464 8.65297 17.0112 9.17777 17.0112H11.4818C12.0066 17.0112 12.4418 17.4336 12.4418 17.9712Z" fill="black"/>
</svg>
