<svg width="32" height="32" viewBox="0 0 32 32" fill="none" xmlns="http://www.w3.org/2000/svg">
<path fill-rule="evenodd" clip-rule="evenodd" d="M21.9963 28.0038C26.3746 28.0132 29.2135 24.397 29.2137 20.2122V11.8228C29.2135 7.64083 26.3739 4.02087 21.9963 4.02075H10.0041C5.62634 4.02088 2.78686 7.64084 2.78662 11.8228V20.2122C2.78684 24.397 5.62559 28.0145 10.0041 28.0051L21.9963 28.0038ZM4.86588 10.7463L12.6025 16.9843C14.62 18.5872 17.4874 18.5795 19.5049 16.9765L27.1381 10.7708C27.1879 11.1102 27.2137 11.4616 27.2137 11.8228V20.2122C27.2135 23.5309 25.0467 26.0125 21.9989 26.0051H10.0015C6.95353 26.0125 4.78683 23.5309 4.78662 20.2122V11.8228C4.78665 11.4529 4.81366 11.0933 4.86588 10.7463ZM5.53069 8.71299C6.41508 7.0698 8.02339 6.02083 10.0041 6.02075H21.9963C23.9834 6.02083 25.5958 7.07674 26.4784 8.72931L18.2523 15.4179C16.9632 16.4421 15.135 16.4421 13.846 15.4179L5.53069 8.71299Z" fill="black"/>
</svg>
