<svg width="32" height="32" viewBox="0 0 32 32" fill="none" xmlns="http://www.w3.org/2000/svg">
<path d="M8.66374 13.9244V21.6314L6.30437 19.2603C5.91467 18.8694 5.28155 18.8682 4.89031 19.2577C4.49902 19.6474 4.49808 20.2804 4.8877 20.6718L8.95541 24.7577L9.10775 24.8827C9.27109 24.992 9.46429 25.052 9.66374 25.052C9.92958 25.052 10.1845 24.9461 10.3721 24.7577L14.4398 20.6718C14.8295 20.2804 14.8285 19.6474 14.4372 19.2577C14.0459 18.8682 13.4128 18.8693 13.0231 19.2603L10.6637 21.6314V13.9244C10.6637 13.3722 10.216 12.9245 9.66374 12.9244C9.11146 12.9244 8.66374 13.3721 8.66374 13.9244Z" fill="black"/>
<path d="M26.6663 8.95044C27.2185 8.95044 27.6661 8.50255 27.6663 7.95044C27.6663 7.39815 27.2186 6.95044 26.6663 6.95044H5.33301C4.78072 6.95044 4.33301 7.39815 4.33301 7.95044C4.33322 8.50255 4.78085 8.95044 5.33301 8.95044H26.6663ZM26.665 16.5299C27.2173 16.5299 27.665 16.0822 27.665 15.5299C27.6649 14.9777 27.2173 14.5299 26.665 14.5299H18.057C17.5048 14.53 17.0571 14.9777 17.057 15.5299C17.057 16.0821 17.5048 16.5298 18.057 16.5299H26.665ZM26.665 24.3645C27.2173 24.3645 27.665 23.9168 27.665 23.3645C27.665 22.8122 27.2173 22.3645 26.665 22.3645H18.057C17.5048 22.3646 17.057 22.8123 17.057 23.3645C17.057 23.9167 17.5048 24.3644 18.057 24.3645H26.665Z" fill="black"/>
</svg>
