<svg width="32" height="32" viewBox="0 0 32 32" fill="none" xmlns="http://www.w3.org/2000/svg">
<path d="M13.6458 12.6707C13.6456 12.0554 13.1461 11.5574 12.5312 11.5574C11.9149 11.5575 11.4169 12.0558 11.4166 12.6707C11.4166 13.2857 11.9148 13.7851 12.5312 13.7852C13.1463 13.7852 13.6458 13.2861 13.6458 12.6707ZM15.6458 12.6707C15.6458 14.3914 14.2501 15.7852 12.5312 15.7852C10.8117 15.7851 9.41664 14.3917 9.41664 12.6707C9.41687 10.9498 10.8118 9.55754 12.5312 9.55737C14.25 9.55737 15.6456 10.9501 15.6458 12.6707Z" fill="black"/>
<path fill-rule="evenodd" clip-rule="evenodd" d="M28.1245 14.5167C28.1256 14.5436 28.1256 14.5702 28.1246 14.5966L28.1245 14.5167ZM13.6417 28.1341C13.5678 28.1425 13.4919 28.1427 13.4149 28.1339L13.6417 28.1341Z" fill="black"/>
<path fill-rule="evenodd" clip-rule="evenodd" d="M3.87684 17.5626V17.377C3.87204 17.4361 3.87153 17.5055 3.87684 17.5626Z" fill="black"/>
<path fill-rule="evenodd" clip-rule="evenodd" d="M28.1246 14.5966L28.1245 14.5167C28.1256 14.5436 28.1256 14.5702 28.1246 14.5966ZM13.6417 28.1341C13.5678 28.1425 13.4919 28.1427 13.4149 28.1339L13.6417 28.1341ZM15.6458 12.6707C15.6458 14.3914 14.2501 15.7852 12.5312 15.7852C10.8117 15.7851 9.41664 14.3917 9.41664 12.6707C9.41687 10.9498 10.8118 9.55754 12.5312 9.55737C14.25 9.55737 15.6456 10.9501 15.6458 12.6707ZM13.6458 12.6707C13.6456 12.0554 13.1461 11.5574 12.5312 11.5574C11.9149 11.5575 11.4169 12.0558 11.4166 12.6707C11.4166 13.2857 11.9148 13.7851 12.5312 13.7852C13.1463 13.7852 13.6458 13.2861 13.6458 12.6707Z" fill="black"/>
<path fill-rule="evenodd" clip-rule="evenodd" d="M28.1246 14.5966L28.1245 14.5167C28.1256 14.5436 28.1256 14.5702 28.1246 14.5966ZM13.4149 28.1339L13.6417 28.1341C13.5678 28.1425 13.4919 28.1427 13.4149 28.1339Z" fill="black"/>
<path d="M3.87684 17.377V17.5626V20.9324C3.87684 22.9589 4.51024 24.77 5.73361 26.0834C6.96431 27.4045 8.71659 28.1406 10.7831 28.1407H21.2102C23.2764 28.1407 25.0314 27.404 26.2649 26.0834C27.4909 24.7705 28.1281 22.9601 28.1281 20.9324V11.1069C28.128 9.07943 27.4908 7.26956 26.2649 5.95711C25.0313 4.63688 23.2762 3.90112 21.2102 3.90112H10.7831C8.72191 3.90126 6.97048 4.63716 5.73881 5.95711C4.51431 7.26944 3.87697 9.07915 3.87684 11.1069V17.377ZM26.1281 15.6377V20.9324C26.1281 22.5447 25.6253 23.838 24.8026 24.7188C23.987 25.5919 22.7831 26.1407 21.2102 26.1407H14.6968C14.9097 25.0858 15.2468 24.0808 15.6961 23.1313C17.6191 19.1018 21.5145 16.1843 26.1281 15.6377ZM26.1281 13.6265C21.2228 14.1301 17.0073 16.9578 14.5899 20.9761C12.2998 18.6504 9.26843 17.0598 5.87684 16.5761V11.1069C5.87697 9.49479 6.37947 8.20222 7.20105 7.3217C8.01551 6.44883 9.21653 5.90125 10.7831 5.90112H21.2102C22.7831 5.90112 23.9871 6.449 24.8026 7.3217C25.6251 8.20205 26.128 9.49479 26.1281 11.1069V13.6265ZM28.1245 14.5167C28.1256 14.5436 28.1256 14.5702 28.1246 14.5966L28.1245 14.5167ZM13.6417 28.1341C13.5678 28.1425 13.4919 28.1427 13.4149 28.1339L13.6417 28.1341ZM5.87684 18.5982C8.9405 19.1026 11.6488 20.65 13.6244 22.8709C13.1866 23.908 12.8613 24.9996 12.6624 26.1407H10.7831C9.21012 26.1406 8.00954 25.5922 7.19715 24.7201C6.37719 23.8398 5.87684 22.5461 5.87684 20.9324V18.5982Z" fill="black"/>
</svg>
