<?xml version="1.0" encoding="UTF-8"?>
<svg id="Capa_1" xmlns="http://www.w3.org/2000/svg" version="1.1" viewBox="0 0 32 32">
  <!-- Generator: Adobe Illustrator 30.0.0, SVG Export Plug-In . SVG Version: 2.1.1 Build 123)  -->
  <defs>
    <style>
      .st0 {
        fill-rule: evenodd;
      }
    </style>
  </defs>
  <path class="st0" d="M15.82,17.61c-.55,0-1,.45-1,1v2.67c0,.55.45,1,1,1s1-.45,1-1v-2.67c0-.55-.45-1-1-1Z"/>
  <path class="st0" d="M22.29,12.15v-1.82c0-3.57-2.89-6.46-6.46-6.46-3.45-.01-6.29,2.69-6.47,6.1v.33s-.01,1.84-.01,1.84c-2.14.77-3.66,2.82-3.66,5.22v5.15c0,3.07,2.49,5.55,5.55,5.55h9.17c3.06,0,5.55-2.48,5.55-5.55v-5.15c0-2.4-1.53-4.45-3.66-5.22ZM11.34,10.32c.01-2.46,2.02-4.45,4.48-4.44,2.46,0,4.46,2,4.46,4.46v1.49h-8.95v-1.51ZM23.95,22.52c0,1.96-1.59,3.55-3.55,3.55h-9.17c-1.96,0-3.55-1.59-3.55-3.55v-5.15c0-1.7,1.19-3.12,2.79-3.47.05,0,.09-.02.14-.03.2-.04.41-.05.62-.05h9.17c.21,0,.42.02.62.05.05,0,.09.02.14.03,1.59.35,2.79,1.77,2.79,3.47v5.15Z"/>
</svg>