<svg width="32" height="32" viewBox="0 0 32 32" fill="none" xmlns="http://www.w3.org/2000/svg">
<path fill-rule="evenodd" clip-rule="evenodd" d="M5.86923 6.08299C7.07669 4.78757 8.79625 4.0625 10.8267 4.0625H21.1718C23.207 4.0625 24.9273 4.78716 26.1342 6.08334C27.3343 7.37209 27.9582 9.15109 27.9582 11.1472V20.8944C27.9582 22.8906 27.3343 24.6696 26.134 25.9584C24.9269 27.2546 23.2062 27.9792 21.1706 27.9792H10.8267C8.79148 27.9792 7.07141 27.2544 5.86478 25.9583C4.66508 24.6695 4.0415 22.8904 4.0415 20.8944V11.1472C4.0415 9.15008 4.66845 7.37123 5.86923 6.08299ZM7.215 7.33739C6.38441 8.22849 5.88125 9.53207 5.88125 11.1472V20.8944C5.88125 22.5107 6.38241 23.8141 7.21139 24.7047C8.03344 25.5879 9.24603 26.1394 10.8267 26.1394H21.1706C22.7519 26.1394 23.9652 25.5877 24.7877 24.7045C25.617 23.814 26.1184 22.5106 26.1184 20.8944V11.1472C26.1184 9.53105 25.617 8.22764 24.7878 7.33705C23.9654 6.45386 22.7524 5.90224 21.1718 5.90224H10.8267C9.252 5.90224 8.03891 6.45347 7.215 7.33739Z" fill="black"/>
<path fill-rule="evenodd" clip-rule="evenodd" d="M15.8092 13.0503C13.9448 13.0503 12.433 14.5621 12.433 16.4264C12.433 18.2908 13.9448 19.8026 15.8092 19.8026C17.6735 19.8026 19.1853 18.2908 19.1853 16.4264C19.1853 14.5621 17.6735 13.0503 15.8092 13.0503ZM10.5932 16.4264C10.5932 13.546 12.9288 11.2105 15.8092 11.2105C18.6896 11.2105 21.0251 13.546 21.0251 16.4264C21.0251 19.3068 18.6896 21.6423 15.8092 21.6423C12.9288 21.6423 10.5932 19.3068 10.5932 16.4264Z" fill="black"/>
<path fill-rule="evenodd" clip-rule="evenodd" d="M20.6962 10.352C20.6962 9.65156 21.2649 9.0826 21.9656 9.0826C22.6704 9.0826 23.2338 9.65568 23.2338 10.352C23.2338 11.0526 22.6662 11.6202 21.9656 11.6202C21.2691 11.6202 20.6962 11.0567 20.6962 10.352Z" fill="black"/>
</svg>
