<svg width="32" height="32" viewBox="0 0 32 32" fill="none" xmlns="http://www.w3.org/2000/svg">
<path d="M28.0705 15.8598V9.16968C28.0705 7.72129 27.6145 6.40282 26.7163 5.43791C25.8109 4.46546 24.5292 3.9315 23.0444 3.9314H15.9403C14.6308 3.93142 13.4776 4.34223 12.5991 5.11239C11.7239 5.8798 11.1839 6.94898 10.9963 8.15796C10.9116 8.70363 11.2853 9.21513 11.8309 9.29989C12.3766 9.38452 12.8881 9.01095 12.9728 8.46525C13.0982 7.6565 13.4412 7.03447 13.9181 6.61629C14.3919 6.20109 15.0603 5.93142 15.9403 5.9314H23.0444C24.0321 5.93149 24.7634 6.27549 25.2528 6.80119C25.7495 7.33485 26.0705 8.13681 26.0705 9.16968V15.8598C26.0704 16.8008 25.8031 17.5509 25.3804 18.0772C24.9641 18.5955 24.3515 18.9554 23.5366 19.0564C22.989 19.1246 22.6005 19.6233 22.6681 20.171C22.7361 20.7189 23.2348 21.1084 23.7827 21.0408C25.0859 20.8792 26.1797 20.2749 26.939 19.3298C27.6918 18.3926 28.0704 17.1791 28.0705 15.8598Z" fill="black"/>
<path d="M5.98047 16.1475C5.98048 15.1138 6.29955 14.3144 6.79427 13.783C7.22055 13.3251 7.83326 13.0044 8.64583 12.9314L9.00651 12.9158H16.1081C17.0972 12.9159 17.8289 13.2588 18.3177 13.783C18.8138 14.3151 19.1341 15.1153 19.1341 16.1475V22.8376C19.1341 23.8711 18.8148 24.6708 18.3203 25.2022C17.8332 25.7255 17.1022 26.0693 16.1081 26.0694H9.00781C8.01272 26.0694 7.28156 25.7255 6.79427 25.2022C6.29955 24.6708 5.98047 23.8713 5.98047 22.8376V16.1475ZM3.98047 22.8376C3.98047 24.284 4.43262 25.601 5.33073 26.5655C6.23635 27.538 7.51917 28.0694 9.00781 28.0694H16.1081C17.5961 28.0693 18.8785 27.538 19.7839 26.5655C20.6817 25.601 21.1341 24.284 21.1341 22.8376V16.1475C21.1341 14.6998 20.6785 13.3835 19.7799 12.4197C18.8742 11.4483 17.5926 10.9159 16.1081 10.9158H9.00651L8.73047 10.9223C7.36001 10.9842 6.17964 11.5081 5.33073 12.4197C4.43285 13.3841 3.98048 14.7012 3.98047 16.1475V22.8376Z" fill="black"/>
</svg>
