<svg width="32" height="32" viewBox="0 0 32 32" fill="none" xmlns="http://www.w3.org/2000/svg">
<path fill-rule="evenodd" clip-rule="evenodd" d="M5.69199 23.8925L5.69189 23.8644V23.8787L5.69199 23.8925Z" fill="black"/>
<path d="M24.3078 6.2264V19.7954H9.7609C9.00546 19.7955 8.29812 20.0014 7.69189 20.3602V8.06755C7.69214 6.92498 8.61833 5.99878 9.7609 5.99854H24.0799C24.2057 5.99854 24.3078 6.10059 24.3078 6.2264ZM26.3078 20.7928V6.2264C26.3078 4.99602 25.3103 3.99854 24.0799 3.99854H9.7609C7.51375 3.99878 5.69214 5.82041 5.69189 8.06755V23.8644L5.69199 23.8925C5.70706 26.1269 7.52294 27.9345 9.7609 27.9347H25.3078C25.7857 27.9347 26.1973 27.5963 26.2896 27.1274C26.3816 26.6583 26.128 26.1896 25.6854 26.009C25.0501 25.7494 24.5708 25.005 24.5409 24.0376C24.512 23.0991 24.9249 22.1698 25.8065 21.6626C26.1257 21.479 26.3121 21.1486 26.3078 20.7928ZM7.69189 23.8644C7.69216 22.7218 8.61835 21.7957 9.7609 21.7954H23.0435C22.6772 22.5257 22.5171 23.3307 22.5409 24.1001C22.5601 24.7213 22.7039 25.3564 22.9718 25.9347H9.7609C8.61818 25.9345 7.69189 25.0072 7.69189 23.8644Z" fill="black"/>
</svg>
