<svg width="32" height="32" viewBox="0 0 32 32" fill="none" xmlns="http://www.w3.org/2000/svg">
<path fill-rule="evenodd" clip-rule="evenodd" d="M21.0598 19.6594L20.9846 19.668L20.9062 19.6711L20.8093 19.6663L20.7527 19.6594C20.7714 19.6623 20.7903 19.6644 20.8093 19.6663C20.8412 19.6693 20.8735 19.6711 20.9062 19.6711C20.9326 19.6711 20.9588 19.67 20.9846 19.668C21.01 19.666 21.035 19.6632 21.0598 19.6594Z" fill="black"/>
<path fill-rule="evenodd" clip-rule="evenodd" d="M13.6282 21.4523C13.6506 21.8929 13.7121 22.3231 13.8093 22.7396H6.74772C6.37953 22.7396 6.08105 22.4411 6.08105 22.0729V13.2344H25.9326V15.8005C24.7096 14.6348 23.082 13.8901 21.2819 13.7987L20.9069 13.7896C16.8822 13.7896 13.6191 17.0527 13.6191 21.0773L13.6282 21.4523ZM14.6048 24.7396C15.8086 26.806 17.9999 28.2265 20.5319 28.3547L20.9069 28.3638C24.8054 28.3635 27.9888 25.3023 28.1842 21.4523L28.1933 21.0773C28.1933 20.406 28.1026 19.7558 27.9326 19.1384V9.93229C27.9326 8.45953 26.7387 7.26562 25.266 7.26562H6.74772C5.27496 7.26562 4.08105 8.45953 4.08105 9.93229V22.0729L4.09538 22.3451C4.23173 23.69 5.36685 24.7396 6.74772 24.7396H14.6048ZM15.6191 21.0773C15.6192 21.6581 15.7129 22.2169 15.8859 22.7396C16.1365 23.4965 16.5536 24.1776 17.0937 24.7396C18.0559 25.7407 19.4087 26.3638 20.9069 26.3638C22.4049 26.3637 23.7573 25.7406 24.7192 24.7396C25.6321 23.7895 26.1932 22.499 26.1933 21.0773C26.1933 20.5032 26.1018 19.9504 25.9326 19.4327C25.2412 17.3179 23.2526 15.7898 20.9069 15.7896C17.9868 15.7896 15.6191 18.1573 15.6191 21.0773ZM25.9326 9.93229C25.9326 9.5641 25.6341 9.26562 25.266 9.26562H6.74772C6.37953 9.26562 6.08105 9.5641 6.08105 9.93229V11.2344H25.9326V9.93229Z" fill="black"/>
<path fill-rule="evenodd" clip-rule="evenodd" d="M21.9062 17.649C21.9062 17.0967 21.4585 16.649 20.9062 16.649C20.354 16.649 19.9062 17.0967 19.9062 17.649V17.681C18.8342 17.8319 18.0096 18.7527 18.0095 19.8664C18.0095 21.0853 18.9976 22.0734 20.2165 22.0734H21.5967C21.7109 22.0738 21.8036 22.1663 21.8038 22.2805C21.8038 22.3948 21.711 22.4872 21.5967 22.4875H19.3546C19.0999 22.4875 18.8675 22.5828 18.691 22.7396C18.4847 22.9228 18.3547 23.19 18.3546 23.4875C18.3546 24.0398 18.8023 24.4875 19.3546 24.4875H19.9062V24.5096C19.9062 24.5888 19.9154 24.6658 19.9328 24.7396C20.0367 25.181 20.4331 25.5096 20.9062 25.5096C21.3794 25.5096 21.7758 25.181 21.8797 24.7396C21.897 24.6658 21.9062 24.5888 21.9062 24.5096V24.4659C22.827 24.3365 23.5656 23.6392 23.7559 22.7396C23.7873 22.5915 23.8038 22.4379 23.8038 22.2805C23.8036 21.0618 22.8154 20.0738 21.5967 20.0734H20.2165C20.1022 20.0734 20.0095 19.9808 20.0095 19.8664C20.0096 19.7519 20.1022 19.6594 20.2165 19.6594H20.7527L20.8093 19.6663L20.9062 19.6711L20.9846 19.668L21.0598 19.6594H22.4587C23.0109 19.6593 23.4587 19.2116 23.4587 18.6594C23.4587 18.1071 23.0109 17.6595 22.4587 17.6594L21.9062 17.649Z" fill="black"/>
</svg>
