<svg width="32" height="32" viewBox="0 0 32 32" fill="none" xmlns="http://www.w3.org/2000/svg">
<path fill-rule="evenodd" clip-rule="evenodd" d="M10.4802 4.96362V6.2185H12.5099L12.6466 6.22501C13.3186 6.29357 13.8431 6.86168 13.8431 7.55184V9.04142L13.8379 9.24715C13.7846 10.2996 13.3245 11.2447 12.6117 11.9284L14.5634 26.7865C14.6353 27.3341 14.2523 27.8534 13.7079 27.9463C13.1635 28.0393 12.6638 27.6708 12.5919 27.1232L10.7292 12.9429C10.5088 12.9928 10.2815 13.0244 10.049 13.0362L9.84326 13.0414H9.33676L9.13104 13.0362C8.85326 13.0221 8.58295 12.9797 8.32296 12.9118L6.45621 27.1232C6.38428 27.6708 5.88465 28.0393 5.34025 27.9463C4.79584 27.8534 4.41283 27.3341 4.48475 26.7865L6.45174 11.812C5.76128 11.0932 5.33688 10.1169 5.33688 9.04142V7.55184C5.33688 6.81546 5.93382 6.2185 6.67017 6.2185H8.48019V4.96362C8.48019 4.41134 8.92791 3.96362 9.48019 3.96362C10.0325 3.96362 10.4802 4.41134 10.4802 4.96362ZM11.8432 9.04142C11.8432 10.1459 10.9477 11.0413 9.84326 11.0414H9.33676C8.23223 11.0414 7.33682 10.146 7.33682 9.04142V8.2185H11.8432V9.04142Z" fill="black"/>
<path fill-rule="evenodd" clip-rule="evenodd" d="M16.881 24.7306C16.881 25.6133 17.1558 26.4495 17.7339 27.0756C18.3203 27.7105 19.1437 28.0468 20.0672 28.047H23.9227C24.8462 28.047 25.6696 27.7107 26.256 27.0756C26.834 26.4494 27.1088 25.6132 27.1089 24.7306V7.30086C27.1088 6.41685 26.8317 5.5801 26.2534 4.95451C25.6671 4.32065 24.8446 3.98446 23.9227 3.98446H20.0672C19.1436 3.98446 18.3203 4.3208 17.7339 4.95581C17.1558 5.58191 16.881 6.41812 16.881 7.30086V24.7306ZM18.881 16.9219V20.3959H21.198C21.7503 20.3959 22.198 20.8436 22.198 21.3959C22.198 21.9482 21.7503 22.3959 21.198 22.3959H18.881V24.7306C18.881 25.2048 19.0259 25.5261 19.2039 25.7188C19.3737 25.9026 19.6432 26.0469 20.0672 26.047H23.9227C24.3467 26.047 24.6162 25.9027 24.7859 25.7188C24.9639 25.5261 25.1088 25.205 25.1089 24.7306V7.30086C25.1088 6.82788 24.9645 6.5059 24.7859 6.31258C24.6151 6.12783 24.344 5.98446 23.9227 5.98446H20.0672C19.6432 5.98446 19.3738 6.12869 19.2039 6.31258C19.0259 6.50532 18.881 6.82655 18.881 7.30086V9.448H21.198C21.7503 9.448 22.198 9.89571 22.198 10.448C22.198 11.0003 21.7503 11.448 21.198 11.448H18.881V14.9219H21.198C21.7502 14.9219 22.198 15.3697 22.198 15.9219C22.198 16.4742 21.7502 16.9219 21.198 16.9219H18.881Z" fill="black"/>
</svg>
