<svg width="33" height="32" viewBox="0 0 33 32" fill="none" xmlns="http://www.w3.org/2000/svg">
<path fill-rule="evenodd" clip-rule="evenodd" d="M15.6069 6.11621C10.7073 6.11621 6.73591 10.2287 6.73591 15.3022C6.73591 20.3758 10.7075 24.4893 15.6069 24.4893C17.9191 24.4893 20.0248 23.573 21.6038 22.0719C21.609 22.0663 21.6143 22.0606 21.6196 22.055C21.6409 22.033 21.663 22.0124 21.6858 21.9931C23.4046 20.3175 24.4777 17.9395 24.4777 15.3022C24.4777 10.2287 20.5063 6.11621 15.6069 6.11621ZM23.4593 22.686C25.1704 20.7354 26.2132 18.1449 26.2132 15.3022C26.2132 9.23621 21.4647 4.31916 15.6069 4.31916C9.74889 4.31916 5.00049 9.23621 5.00049 15.3022C5.00049 21.3681 9.74877 26.2864 15.6069 26.2864C18.0945 26.2864 20.3821 25.3993 22.1909 23.9141L25.5838 27.4185C25.9231 27.7689 26.4724 27.7682 26.8109 27.4168C27.1494 27.0656 27.1487 26.4966 26.8093 26.1462L23.4593 22.686Z" fill="black"/>
</svg>
