<svg width="33" height="32" viewBox="0 0 33 32" fill="none" xmlns="http://www.w3.org/2000/svg">
<path fill-rule="evenodd" clip-rule="evenodd" d="M5.87739 6.07045C7.08669 4.77305 8.80887 4.04688 10.8424 4.04688H21.2033C23.2416 4.04688 24.9645 4.77264 26.1733 6.07079C27.3751 7.36151 28 9.14323 28 11.1424V20.9045C28 22.9036 27.3751 24.6854 26.1731 25.9761C24.9641 27.2743 23.2408 28 21.2021 28H10.8424C8.80409 28 7.0814 27.2742 5.87293 25.976C4.6714 24.6853 4.04688 22.9035 4.04688 20.9045V11.1424C4.04688 9.14221 4.67478 7.36065 5.87739 6.07045ZM7.22521 7.32676C6.39335 8.21921 5.88942 9.52478 5.88942 11.1424V20.9045C5.88942 22.5232 6.39135 23.8286 7.2216 24.7205C8.0449 25.6051 9.25933 26.1575 10.8424 26.1575H21.2021C22.7858 26.1575 24.0009 25.6049 24.8247 24.7204C25.6553 23.8285 26.1575 22.5231 26.1575 20.9045V11.1424C26.1575 9.52376 25.6553 8.21837 24.8248 7.32641C24.0012 6.44188 22.7863 5.88942 21.2033 5.88942H10.8424C9.26532 5.88942 8.05038 6.44149 7.22521 7.32676Z" fill="black"/>
<path fill-rule="evenodd" clip-rule="evenodd" d="M10.966 13.8661C11.4748 13.8661 11.8872 14.2786 11.8872 14.7874V20.6937C11.8872 21.2025 11.4748 21.615 10.966 21.615C10.4572 21.615 10.0447 21.2025 10.0447 20.6937V14.7874C10.0447 14.2786 10.4572 13.8661 10.966 13.8661Z" fill="black"/>
<path fill-rule="evenodd" clip-rule="evenodd" d="M18.1037 14.3637C16.8952 14.3637 15.9143 15.3447 15.9143 16.5531V20.693C15.9143 21.2018 15.5018 21.6143 14.993 21.6143C14.4842 21.6143 14.0717 21.2018 14.0717 20.693V16.5531C14.0717 14.3271 15.8777 12.5212 18.1037 12.5212C20.3315 12.5212 22.1357 14.3274 22.1357 16.5531V20.693C22.1357 21.2018 21.7233 21.6143 21.2144 21.6143C20.7056 21.6143 20.2931 21.2018 20.2931 20.693V16.5531C20.2931 15.3444 19.3133 14.3637 18.1037 14.3637Z" fill="black"/>
<path fill-rule="evenodd" clip-rule="evenodd" d="M9.91157 11.4864C9.91157 10.904 10.3836 10.4314 10.9665 10.4314C11.5487 10.4314 12.0216 10.9033 12.0216 11.4864C12.0216 12.0695 11.5488 12.5414 10.9665 12.5414C10.3836 12.5414 9.91157 12.0687 9.91157 11.4864Z" fill="black"/>
</svg>
