<?xml version="1.0" encoding="UTF-8"?>
<svg id="Capa_1" xmlns="http://www.w3.org/2000/svg" version="1.1" viewBox="0 0 32 32">
  <!-- Generator: Adobe Illustrator 30.0.0, SVG Export Plug-In . SVG Version: 2.1.1 Build 123)  -->
  <defs>
    <style>
      .st0 {
        fill-rule: evenodd;
      }
    </style>
  </defs>
  <path class="st0" d="M13.04,13.58c0,1.98,1.6,3.58,3.58,3.58,1.98,0,3.58-1.6,3.58-3.58,0-1.98-1.6-3.58-3.58-3.58-1.98,0-3.58,1.6-3.58,3.58ZM18.2,13.58c0,.87-.71,1.58-1.58,1.58-.87,0-1.58-.71-1.58-1.58,0-.87.71-1.58,1.58-1.58.87,0,1.58.71,1.58,1.58Z"/>
  <path class="st0" d="M28.77,12.51l-3.89-3.08v-2.56c0-.55-.45-1-1-1s-1,.45-1,1v.97l-3.76-2.98c-1.47-1.16-3.55-1.16-5.02,0l-9.65,7.64c-.43.34-.51.97-.16,1.4.34.43.97.51,1.4.16l.3-.24v9.07c0,2.72,2.21,4.93,4.93,4.93h11.39c2.72,0,4.93-2.21,4.93-4.93v-9.07l.3.24c.43.34,1.06.27,1.41-.16.34-.43.27-1.06-.16-1.4ZM17.9,25.02c-.03.35-.32.61-.66.61h-1.25c-.35,0-.63-.26-.66-.61l-.41-4.79c-.03-.39.27-.72.66-.72h2.05c.39,0,.7.33.66.72l-.4,4.79ZM25.23,22.91c0,1.62-1.31,2.93-2.93,2.93h-2.54c.07-.21.12-.42.14-.65l.4-4.79c.12-1.46-.95-2.72-2.37-2.87l-.29-.02h-2.05c-1.56,0-2.79,1.34-2.66,2.89l.41,4.79c.02.22.07.44.14.65h-2.56c-1.62,0-2.93-1.31-2.93-2.93v-10.65l7.35-5.82.14-.1c.73-.48,1.7-.45,2.4.1l7.35,5.82v10.65Z"/>
</svg>