<svg width="32" height="32" viewBox="0 0 32 32" fill="none" xmlns="http://www.w3.org/2000/svg">
<path fill-rule="evenodd" clip-rule="evenodd" d="M11.8358 13.5279L12.9358 14.6279L9.98178 17.5819L9.79396 17.7827C7.94142 19.8972 8.8047 23.2716 11.5212 24.1963L23.0117 28.1075C26.1539 29.1768 29.1567 26.1739 28.0876 23.0316L24.1764 11.5412L24.0797 11.2843C23.0009 8.68769 19.5914 7.97249 17.562 10.0017L14.35 13.2137L13.2368 12.1005C13.7778 11.0913 13.6229 9.80751 12.7714 8.95602L8.74605 4.93066L8.54349 4.74836C7.56579 3.95079 6.15501 3.95069 5.17737 4.74836L4.97481 4.93066L4.60837 5.29711L4.42514 5.50058C3.62795 6.47823 3.62769 7.88921 4.42514 8.86671L4.60836 9.06834L8.63372 13.0937C9.5014 13.9614 10.8182 14.1061 11.8358 13.5279ZM14.35 16.0421L16.8235 18.5156C17.214 18.9062 17.8472 18.9062 18.2377 18.5156C18.6282 18.1251 18.6282 17.492 18.2377 17.1014L15.7642 14.6279L18.9762 11.4159C20.0237 10.3687 21.8062 10.7834 22.2834 12.1856L26.1937 23.6752C26.7284 25.2464 25.2265 26.7484 23.6553 26.2136L12.1657 22.3034C10.7636 21.8262 10.3491 20.0436 11.396 18.9962L14.35 16.0421ZM6.02258 7.65413C5.76239 7.39377 5.76228 6.97162 6.02258 6.71132L6.38902 6.34488C6.64932 6.08458 7.07147 6.08469 7.33183 6.34488L11.3572 10.3702C11.6175 10.6306 11.6175 11.0527 11.3572 11.313L10.9907 11.6795C10.7304 11.9398 10.3083 11.9398 10.0479 11.6795L6.02258 7.65413Z" fill="black"/>
</svg>
