<svg width="32" height="32" viewBox="0 0 32 32" fill="none" xmlns="http://www.w3.org/2000/svg">
<path d="M16.7201 3.94263C17.5849 3.9425 18.4129 4.29257 19.0157 4.91268C19.6096 5.52368 19.9335 6.34563 19.9194 7.19653C19.9209 7.34249 19.9522 7.48635 20.0092 7.61971L20.0756 7.74992C20.2355 8.02262 20.5001 8.22516 20.8061 8.30461C21.112 8.38392 21.4375 8.33739 21.7097 8.177L21.7201 8.17179C23.2513 7.29463 25.2036 7.82132 26.0847 9.35018L26.8009 10.5937C26.8263 10.6379 26.8464 10.6845 26.8647 10.7317C27.6398 12.2356 27.1125 14.0946 25.6381 14.957C25.4595 15.0594 25.3029 15.2132 25.2006 15.3918C25.0412 15.6655 24.9941 15.9973 25.0756 16.3033C25.1573 16.6094 25.3583 16.8706 25.6329 17.0286C26.3688 17.452 26.905 18.1522 27.1238 18.9726C27.3424 19.7928 27.2255 20.6661 26.7983 21.3997L26.7918 21.4114L26.0339 22.6744C25.1453 24.1889 23.2018 24.7038 21.6785 23.828C21.5028 23.7276 21.3052 23.672 21.103 23.6653C20.7904 23.6674 20.491 23.793 20.2696 24.0142C20.045 24.2389 19.9192 24.5442 19.9207 24.8619C19.9122 26.6236 18.4818 28.057 16.7201 28.0572H15.2774C13.5132 28.0572 12.0814 26.63 12.0756 24.8671L12.0652 24.7213C12.0446 24.5777 11.9952 24.4393 11.9207 24.3137L11.9129 24.2994C11.7566 24.0265 11.4979 23.8273 11.1941 23.746C10.8901 23.6647 10.5661 23.7085 10.2944 23.8671L10.28 23.8749C9.53716 24.2913 8.65782 24.3942 7.83863 24.1614C7.01974 23.9284 6.32685 23.3787 5.91415 22.634L5.19801 21.3984C4.31806 19.8734 4.83811 17.9219 6.36207 17.0403C6.73353 16.8257 6.96363 16.4289 6.96363 15.9999C6.96363 15.5709 6.73483 15.1741 6.36337 14.9596C4.84011 14.0731 4.31679 12.1208 5.1967 10.5937L5.20842 10.5728L5.97665 9.30981C6.80749 7.89107 8.56528 7.34623 10.0379 8.00252L10.3295 8.15096L10.3425 8.15747C10.5089 8.2562 10.6987 8.3084 10.892 8.31112C11.5393 8.30789 12.0666 7.79386 12.086 7.14836C12.0819 6.29959 12.417 5.48436 13.0157 4.88273C13.6145 4.28109 14.4286 3.94263 15.2774 3.94263H16.7201ZM18.0365 16.0012C18.0365 14.8786 17.1265 13.9676 16.004 13.9674C14.8813 13.9674 13.9701 14.8785 13.9701 16.0012C13.9705 17.1237 14.8815 18.0338 16.004 18.0338C17.1263 18.0336 18.0362 17.1235 18.0365 16.0012ZM20.0365 16.0012C20.0362 18.2281 18.2309 20.0336 16.004 20.0338C13.7769 20.0338 11.9705 18.2282 11.9701 16.0012C11.9701 13.7739 13.7767 11.9674 16.004 11.9674C18.2311 11.9676 20.0365 13.7741 20.0365 16.0012ZM8.96363 15.9999C8.96363 17.0719 8.42721 18.0673 7.54436 18.6588L7.36337 18.7721C6.79561 19.1008 6.60018 19.8271 6.92717 20.3958L7.65374 21.6484L7.72665 21.7668C7.88427 21.9945 8.11685 22.1617 8.38551 22.2382C8.69275 22.3255 9.02222 22.2862 9.30087 22.1301C10.0304 21.7094 10.8971 21.5959 11.711 21.8137C12.5303 22.033 13.2287 22.5711 13.6498 23.3072C13.9237 23.7742 14.07 24.3047 14.0756 24.8463V24.8567C14.0758 25.5198 14.6143 26.0572 15.2774 26.0572H16.7201C17.381 26.057 17.9175 25.5228 17.9207 24.8619C17.9192 24.0139 18.2558 23.2 18.8556 22.6002C19.4576 21.9983 20.2751 21.6612 21.1264 21.6653L21.3477 21.6783C21.8126 21.7195 22.2641 21.86 22.6707 22.0924C23.2437 22.4225 23.9788 22.2291 24.3113 21.6575L24.3178 21.6458L25.0704 20.3931C25.2298 20.1194 25.2731 19.7929 25.1915 19.4869C25.1098 19.181 24.91 18.9196 24.6355 18.7616C23.8995 18.3382 23.3621 17.6394 23.1433 16.8189C22.9245 15.9985 23.0414 15.1243 23.4688 14.3905C23.7465 13.9084 24.147 13.5083 24.629 13.2304L24.7306 13.164C25.2193 12.8082 25.3712 12.135 25.0652 11.5989C25.0532 11.5779 25.0443 11.5555 25.0339 11.5338L24.3517 10.3489C24.021 9.77531 23.2881 9.57703 22.7136 9.90617C21.9858 10.3312 21.1196 10.4514 20.3035 10.2395C19.4849 10.027 18.7843 9.49825 18.3556 8.76945C18.0764 8.29915 17.9264 7.76424 17.9207 7.21737C17.9205 7.20443 17.9203 7.19124 17.9207 7.1783C17.93 6.85387 17.8084 6.53864 17.5821 6.30591C17.3559 6.07324 17.0447 5.9425 16.7201 5.94263H15.2774C14.9609 5.94263 14.657 6.06869 14.4337 6.29289C14.2103 6.51737 14.0845 6.82254 14.086 7.13924C14.0861 7.14532 14.0861 7.15139 14.086 7.15747C14.0609 8.90733 12.6355 10.3126 10.8855 10.3124H10.8751C10.3334 10.3068 9.80309 10.1594 9.33603 9.88534L9.22535 9.83065C8.6704 9.5835 8.00788 9.7904 7.69801 10.328C7.69406 10.3349 7.6904 10.3421 7.68629 10.3489L6.92848 11.5924L6.87379 11.7004C6.62521 12.2535 6.82912 12.9153 7.36337 13.2278L7.54436 13.3411C8.42721 13.9325 8.96363 14.928 8.96363 15.9999Z" fill="black"/>
</svg>
