<?xml version="1.0" encoding="UTF-8"?>
<svg id="Capa_1" xmlns="http://www.w3.org/2000/svg" version="1.1" viewBox="0 0 32 32">
  <!-- Generator: Adobe Illustrator 30.0.0, SVG Export Plug-In . SVG Version: 2.1.1 Build 123)  -->
  <defs>
    <style>
      .st0 {
        fill-rule: evenodd;
      }
    </style>
  </defs>
  <path class="st0" d="M25.93,15.83v-1.79c0-5.48-4.45-9.93-9.93-9.93-5.48,0-9.93,4.45-9.93,9.93v1.79c-1.19,1.13-1.84,2.82-1.54,4.63l.1.45c.48,1.87,2.05,3.34,3.94,3.71.28.06.55.09.82.1h.17c1.6-.03,2.76-1.46,2.58-2.99l-.06-.32-1.1-4.61c-.33-1.36-1.62-2.2-2.91-2.05v-.72c0-4.38,3.55-7.93,7.93-7.93,4.38,0,7.93,3.55,7.93,7.93v.72c-1.3-.15-2.59.69-2.91,2.05l-1.1,4.61c-.25,1.05.16,2.1.93,2.73-.72,1.06-1.38,1.47-2,1.65-.42.13-.89.17-1.47.17-.28,0-.58,0-.9-.01h-.09c-.31-.01-.64-.02-.98-.02-.55,0-1,.45-1,1,0,.55.45,1,1,1,.3,0,.59,0,.89.02h.11c.33.01.66.02.99.02.65,0,1.34-.05,2.02-.26,1.32-.39,2.43-1.29,3.44-3.01h.16c.14-.03.27-.05.41-.08,1.89-.37,3.46-1.84,3.94-3.71.51-1.98-.15-3.86-1.44-5.09ZM8.19,16.77c.35-.1.75.11.85.51l1.1,4.61c.1.4-.17.76-.51.83h-.15c-.17,0-.34-.02-.52-.05-1.07-.21-1.98-1.02-2.33-2.04l-.06-.21-.06-.28c-.21-1.22.28-2.34,1.13-3.02.03-.02.06-.05.09-.07.1-.08.21-.15.32-.21l.15-.06ZM25.49,20.13l-.06.28c-.29,1.12-1.25,2.03-2.4,2.25-.09.02-.17.03-.26.04l-.25.02c-.41.02-.77-.39-.66-.84l1.1-4.61c.11-.45.62-.66.99-.44l.21.14s.07.05.1.07c.03.03.07.05.1.08.85.69,1.33,1.8,1.13,3.02Z"/>
</svg>