<svg width="32" height="32" viewBox="0 0 32 32" fill="none" xmlns="http://www.w3.org/2000/svg">
<path fill-rule="evenodd" clip-rule="evenodd" d="M15.7512 20.045H14.8066C15.1348 20.031 15.4524 20.0358 15.7512 20.045ZM13.2163 21.1204C13.2171 21.1613 13.2205 21.2026 13.2265 21.2442C13.3056 21.7908 13.8127 22.1697 14.3593 22.0906C14.5202 22.0673 14.6847 22.0529 14.8549 22.045H14.2134C13.6867 22.045 13.2551 21.6372 13.2163 21.1204ZM16.0435 22.0576C16.4259 22.0722 16.8486 22.0882 17.2564 22.0788C18.7031 22.0441 19.9355 21.4192 20.9738 20.709C21.4957 20.3522 21.9914 19.9583 22.4517 19.584C22.5608 19.4953 22.6673 19.4081 22.7719 19.3225C23.1183 19.0389 23.4429 18.7732 23.7681 18.5294C24.2777 18.1482 24.9931 18.2009 25.4426 18.6505L25.5311 18.7481C25.913 19.2158 25.913 19.8911 25.5311 20.3588L25.4426 20.4564C25.3613 20.5376 25.2808 20.6181 25.2008 20.6981C23.361 22.5378 21.8445 24.0542 19.5767 24.9317C16.2805 26.207 13.2195 25.6082 9.52333 24.8822C8.00403 24.5824 6.61337 24.5684 5.18218 24.5684C4.6299 24.5684 4.18218 25.0161 4.18218 25.5684C4.18219 26.1207 4.6299 26.5684 5.18218 26.5684C6.61357 26.5684 7.82891 26.5864 9.13661 26.8445L10.4921 27.1088C13.6599 27.7082 16.8702 28.1225 20.2981 26.7963C22.9719 25.7617 24.7627 23.9678 26.5399 22.1875C26.645 22.0822 26.7501 21.9769 26.8554 21.8718L27.0806 21.6231C28.1327 20.3359 28.0585 18.435 26.8567 17.2351C25.7027 16.0814 23.8749 15.9535 22.5702 16.9304C22.1919 17.2141 21.8089 17.5268 21.4397 17.8283C21.3557 17.8969 21.2724 17.965 21.19 18.032C20.7351 18.4018 20.2938 18.751 19.8449 19.058C19.792 19.0942 19.7392 19.1297 19.6866 19.1642" fill="black"/>
<path fill-rule="evenodd" clip-rule="evenodd" d="M14.8066 20.045H14.2134C13.6611 20.045 13.2134 20.4927 13.2134 21.045C13.2134 21.0703 13.2144 21.0955 13.2163 21.1204C13.2062 20.6231 13.568 20.1845 14.0728 20.1114C14.3209 20.0755 14.5666 20.0552 14.8066 20.045ZM15.69 22.045L14.8549 22.045C15.117 22.0328 15.3928 22.0358 15.69 22.045Z" fill="black"/>
<path fill-rule="evenodd" clip-rule="evenodd" d="M24.6559 13.1425C26.5179 12.6045 27.8988 10.9318 28.0008 8.92196L28.0073 8.68237C28.0071 6.11938 25.9284 4.04175 23.3654 4.04175C20.8025 4.04199 18.725 6.11953 18.7247 8.68237C18.7247 9.10664 18.7817 9.51762 18.8883 9.90808C18.344 10.5096 18.0125 11.3073 18.0125 12.1824C18.0125 14.055 19.5305 15.573 21.4031 15.573C22.9422 15.573 24.2418 14.5475 24.6559 13.1425ZM20.0125 12.1824C20.0125 12.0917 20.0211 12.0031 20.0377 11.9173C20.6532 12.5505 21.4479 13.0088 22.34 13.21C22.0928 13.4355 21.764 13.573 21.4031 13.573C20.6351 13.573 20.0125 12.9504 20.0125 12.1824ZM23.3654 6.04175C24.8238 6.04175 26.0071 7.22395 26.0073 8.68237C26.0073 9.6989 25.4326 10.5817 24.5905 11.0235C24.2243 11.2156 23.8075 11.3243 23.3654 11.3243C22.9645 11.3242 22.5844 11.2348 22.2441 11.0748C22.1429 10.9978 22.0307 10.9344 21.9104 10.8872C21.2419 10.4446 20.7863 9.70601 20.7305 8.85845C20.7291 8.83704 20.7278 8.81557 20.7269 8.79403C20.7254 8.757 20.7247 8.71978 20.7247 8.68237C20.725 7.2241 21.9071 6.04199 23.3654 6.04175Z" fill="black"/>
<path d="M16.1822 20.045H15.7512H14.8066C14.5666 20.0552 14.3209 20.0755 14.0728 20.1114C13.568 20.1845 13.2062 20.6231 13.2163 21.1204C13.2551 21.6372 13.6867 22.045 14.2134 22.045H14.8549C15.117 22.0328 15.3928 22.0358 15.69 22.045C15.8024 22.0484 15.921 22.053 16.0435 22.0576C16.4259 22.0722 16.8486 22.0882 17.2564 22.0788C18.7031 22.0441 19.9355 21.4192 20.9738 20.709C21.4957 20.3522 21.9914 19.9583 22.4517 19.584C22.5608 19.4953 22.6673 19.4081 22.7719 19.3225C23.1183 19.0389 23.4429 18.7732 23.7681 18.5294C24.2777 18.1482 24.9931 18.2009 25.4426 18.6505L25.5311 18.7481C25.913 19.2158 25.913 19.8911 25.5311 20.3588L25.4426 20.4564L25.2008 20.6981C23.361 22.5378 21.8445 24.0542 19.5767 24.9317C16.2805 26.207 13.2195 25.6082 9.52333 24.8822C8.00403 24.5824 6.61337 24.5684 5.18218 24.5684C4.6299 24.5684 4.18218 25.0161 4.18218 25.5684C4.18219 26.1207 4.6299 26.5684 5.18218 26.5684C6.61357 26.5684 7.82891 26.5864 9.13661 26.8445L10.4921 27.1088C13.6599 27.7082 16.8702 28.1225 20.2981 26.7963C22.9719 25.7617 24.7627 23.9678 26.5399 22.1875C26.645 22.0822 26.7501 21.9769 26.8554 21.8718L27.0806 21.6231C28.1327 20.3359 28.0585 18.435 26.8567 17.2351C25.7027 16.0814 23.8749 15.9535 22.5702 16.9304C22.1919 17.2141 21.8089 17.5268 21.4397 17.8283C21.3557 17.8969 21.2724 17.965 21.19 18.032C20.7351 18.4018 20.2938 18.751 19.8449 19.058C19.792 19.0942 19.7392 19.1297 19.6866 19.1642C19.712 18.9945 19.7252 18.8191 19.7252 18.6387C19.7251 17.0801 18.7191 15.8411 17.3267 15.3757L17.0429 15.2924C15.3961 14.8817 13.672 14.5389 11.8436 14.5814C9.13776 14.6475 7.1354 16.0122 5.30064 17.2627C5.07407 17.4171 4.84997 17.5699 4.6275 17.7182C4.16799 18.0245 4.04386 18.6453 4.35015 19.1049C4.65647 19.5644 5.27733 19.6885 5.73687 19.3822C5.9714 19.2259 6.19897 19.0721 6.42116 18.9219C8.31027 17.645 9.81034 16.6311 11.8918 16.5801L12.4738 16.5814C13.8282 16.6184 15.1622 16.8856 16.5585 17.2338L16.6913 17.2715C17.3401 17.4855 17.7251 18.0172 17.7252 18.6387C17.7252 19.4165 17.1086 20.045 16.1822 20.045Z" fill="black"/>
</svg>
