<svg width="32" height="32" viewBox="0 0 32 32" fill="none" xmlns="http://www.w3.org/2000/svg">
<path d="M20.9552 20.7881C21.4269 21.2598 22.1924 21.2598 22.6641 20.7881L27.0789 16.3733C27.5506 15.9016 27.5506 15.1361 27.0789 14.6645L22.6641 10.2496C22.1924 9.77795 21.4269 9.77798 20.9552 10.2496C20.4839 10.7213 20.4846 11.486 20.9561 11.9576L23.8104 14.8118C24.2006 15.2022 24.2006 15.8355 23.8104 16.226L20.9561 19.0802C20.4846 19.5518 20.4839 20.3164 20.9552 20.7881ZM19.541 22.2023C18.2886 20.9495 18.2893 18.9186 19.5419 17.666L21.689 15.5189L19.5419 13.3718C18.2893 12.1192 18.2886 10.0882 19.541 8.83542C20.7938 7.58268 22.8256 7.58271 24.0783 8.83542L28.4931 13.2502C29.7458 14.503 29.7458 16.5348 28.4931 17.7875L24.0783 22.2023C22.8256 23.455 20.7938 23.4551 19.541 22.2023Z" fill="black"/>
<path d="M12.7454 20.7831C12.2739 21.2546 11.5092 21.2552 11.0375 20.784C10.5658 20.3123 10.5658 19.5468 11.0375 19.0752L13.8917 16.221C14.2821 15.8305 14.2821 15.1972 13.8917 14.8067L11.0375 11.9525C10.5658 11.4809 10.5658 10.7154 11.0375 10.2437C11.5092 9.77247 12.2739 9.77309 12.7454 10.2446L17.1612 14.6604C17.6322 15.1319 17.6322 15.8958 17.1612 16.3674L12.7454 20.7831ZM18.5754 17.7816C19.8275 16.529 19.8275 14.4987 18.5754 13.2461L14.1596 8.8304C12.9071 7.57783 10.8761 7.57721 9.6233 8.82948C8.37057 10.0822 8.37057 12.114 9.62329 13.3668L11.7704 15.5139L9.62329 17.661C8.37057 18.9137 8.37057 20.9455 9.62329 22.1982C10.8761 23.4505 12.9071 23.4499 14.1596 22.1973L18.5754 17.7816Z" fill="black"/>
<path d="M2.98039 9.74934C3.37092 9.35881 4.00393 9.35881 4.39446 9.74934L9.45435 14.8092C9.84463 15.1998 9.84479 15.8329 9.45435 16.2233L4.39445 21.2832C4.00399 21.6734 3.37085 21.6734 2.98039 21.2832C2.58995 20.8927 2.59011 20.2597 2.98039 19.8691L7.33326 15.5163L2.98039 11.1634C2.58987 10.7729 2.58987 10.1399 2.98039 9.74934Z" fill="black"/>
</svg>
