<svg width="32" height="32" viewBox="0 0 32 32" fill="none" xmlns="http://www.w3.org/2000/svg">
<path fill-rule="evenodd" clip-rule="evenodd" d="M25.7907 17.479C25.7259 17.4778 25.6603 17.483 25.5946 17.4949L25.5808 17.4981C25.6496 17.4845 25.72 17.478 25.7907 17.479Z" fill="black"/>
<path fill-rule="evenodd" clip-rule="evenodd" d="M25.5089 17.5152L25.5808 17.4981C25.5566 17.5029 25.5326 17.5086 25.5089 17.5152ZM25.7907 17.479C26.2179 17.4871 26.6082 17.771 26.7326 18.2032C26.6633 17.9617 26.5062 17.7453 26.2709 17.6108C26.1191 17.524 25.954 17.4814 25.7907 17.479ZM26.7326 18.2032L26.7525 18.2723C26.7492 18.2568 26.7445 18.2416 26.7397 18.2265C26.7374 18.2191 26.7347 18.2106 26.7326 18.2032Z" fill="black"/>
<path fill-rule="evenodd" clip-rule="evenodd" d="M15.2606 12.4897H15.0552C15.089 12.4931 15.1232 12.4949 15.1579 12.4949C15.1926 12.4949 15.2268 12.4931 15.2606 12.4897Z" fill="black"/>
<path d="M23.8384 14.7865C23.8384 9.99195 19.9518 6.10443 15.1574 6.10425C10.3616 6.10425 6.4751 9.99177 6.4751 14.7865C6.47521 17.7824 7.99128 20.4236 10.3032 21.9858C10.7608 22.2949 10.8806 22.9175 10.5715 23.3751C10.2622 23.8323 9.6409 23.9524 9.18343 23.6433C6.3443 21.725 4.47521 18.4744 4.4751 14.7865C4.4751 8.88737 9.25687 4.10425 15.1574 4.10425C21.0564 4.10443 25.8384 8.88741 25.8384 14.7865C25.8382 15.3387 25.3906 15.7865 24.8384 15.7865C24.2864 15.7863 23.8386 15.3385 23.8384 14.7865Z" fill="black"/>
<path d="M13.2202 18.5183H14.1579V18.7852C14.1579 19.3375 14.6056 19.7852 15.1579 19.7852C15.7101 19.7852 16.1578 19.3375 16.1579 18.7852V18.5145C17.4781 18.4426 18.5262 17.3489 18.5262 16.0105C18.5262 14.6265 17.4037 13.5042 16.0197 13.504H14.297C14.0163 13.504 13.7892 13.2771 13.7892 12.9962C13.7893 12.717 14.0157 12.4897 14.297 12.4897H15.0552H15.2606H17.0952C17.6475 12.4897 18.0952 12.0419 18.0952 11.4897C18.0952 10.9374 17.6475 10.4897 17.0952 10.4897H16.1579V10.2188C16.1579 9.66655 15.7102 9.21883 15.1579 9.21883C14.6056 9.21883 14.1579 9.66655 14.1579 10.2188V10.4935C12.8377 10.5656 11.7893 11.6582 11.7892 12.9962C11.7892 14.3816 12.9116 15.504 14.297 15.504H16.0197C16.2991 15.5042 16.5262 15.731 16.5262 16.0105C16.5262 16.2917 16.2986 16.5181 16.0197 16.5183H13.2202C12.6682 16.5186 12.2202 16.9662 12.2202 17.5183C12.2202 18.0704 12.6682 18.518 13.2202 18.5183Z" fill="black"/>
<path d="M25.7907 17.479C26.2179 17.4871 26.6082 17.771 26.7326 18.2032L26.7525 18.2723L27.4865 20.8204C27.639 21.351 27.3322 21.9047 26.8016 22.0574C26.2711 22.21 25.7176 21.9041 25.5646 21.3738L25.4664 21.0331L23.1941 25.0105C22.9633 25.4141 22.4846 25.6048 22.0392 25.4714L16.7332 23.8829L14.3764 27.6863C14.0853 28.1554 13.4681 28.3001 12.9988 28.0092C12.5295 27.7182 12.3849 27.101 12.6759 26.6316L15.4363 22.1785C15.6743 21.7947 16.1404 21.6182 16.573 21.7475L21.8503 23.3269L23.6837 20.121L23.4305 20.1941C22.9 20.3464 22.3463 20.0396 22.1935 19.5092C22.0408 18.9785 22.3477 18.4237 22.8784 18.2709L25.4956 17.5183L25.5089 17.5152L25.5808 17.4981C25.6496 17.4845 25.72 17.478 25.7907 17.479Z" fill="black"/>
</svg>
