<?xml version="1.0" encoding="UTF-8"?>
<svg id="Capa_1" xmlns="http://www.w3.org/2000/svg" version="1.1" viewBox="0 0 32 32">
  <!-- Generator: Adobe Illustrator 30.0.0, SVG Export Plug-In . SVG Version: 2.1.1 Build 123)  -->
  <defs>
    <style>
      .st0 {
        fill-rule: evenodd;
      }
    </style>
  </defs>
  <path class="st0" d="M25.85,8.45c-.12-.47-.34-.8-.62-1.08-.48-.48-1.72-1.3-3.31-1.99-1.61-.7-3.7-1.33-5.92-1.33-2.22,0-4.31.63-5.92,1.33-1.58.69-2.82,1.51-3.31,1.99-.28.28-.5.6-.62,1.08-.1.4-.13.89-.13,1.47,0,.6.01,1.41.03,2.51.02,1.11.04,2.53.04,4.39,0,4.03,1.7,6.84,3.79,8.62,2.05,1.74,4.51,2.52,6.12,2.52,1.61,0,4.07-.77,6.12-2.52,2.1-1.78,3.79-4.59,3.79-8.62,0-1.85.02-3.28.04-4.39.02-1.1.04-1.91.03-2.51,0-.58-.03-1.07-.13-1.47ZM23.95,12.39c-.02,1.12-.04,2.55-.04,4.42,0,3.41-1.41,5.67-3.09,7.1-1.72,1.46-3.73,2.04-4.83,2.04-1.1,0-3.1-.58-4.83-2.04-1.68-1.43-3.09-3.69-3.09-7.1,0-1.87-.02-3.31-.04-4.42-.02-1.12-.04-1.9-.03-2.46,0-.58.03-.84.07-.98.02-.07.03-.09.1-.17.23-.23,1.21-.93,2.69-1.57,1.45-.63,3.26-1.16,5.12-1.16,1.86,0,3.67.53,5.12,1.16,1.48.64,2.46,1.34,2.69,1.57l.07.08s.02.05.03.08c.04.14.06.4.07.98,0,.57-.01,1.34-.03,2.46Z"/>
  <path class="st0" d="M18.56,20.11h-5.09c-.55,0-1,.45-1,1s.45,1,1,1h5.09c.55,0,1-.45,1-1s-.45-1-1-1Z"/>
  <path class="st0" d="M20.27,11.44c-.17-.34-.52-.56-.9-.56-.11,0-.22.02-.32.05l-1.93.32v-1.86c0-.55-.45-1-1-1-.55,0-1,.45-1,1v2.19l-2.45.41s-.02,0-.03,0c-.33,0-.64.17-.83.44l-.07.12-.02.03-2.23,4.57c-.14.28-.14.62,0,.9,1.26,2.45,4.54,2.43,6.21.13.22-.3.25-.7.09-1.03l-1.67-3.37,3.48-.58-1.38,2.84c-.14.28-.14.62,0,.9,1.26,2.45,4.54,2.43,6.21.13.22-.3.25-.7.09-1.03l-2.27-4.6ZM11.56,17.5l1.09-2.23,1.07,2.17c-.76.67-1.65.55-2.16.06ZM18.29,16.38l1.09-2.23,1.07,2.17c-.76.67-1.65.55-2.16.06Z"/>
</svg>