<svg width="32" height="32" viewBox="0 0 32 32" fill="none" xmlns="http://www.w3.org/2000/svg">
<path fill-rule="evenodd" clip-rule="evenodd" d="M25.7026 25.7402L27.1168 27.1544L27.1785 27.0927L25.7642 25.6785L25.7026 25.7402Z" fill="black"/>
<path fill-rule="evenodd" clip-rule="evenodd" d="M19.3984 13.3866L6.69396 25.0364L6.68361 25.0456C6.67781 25.0507 6.67196 25.0558 6.66662 25.0611C6.31944 25.4035 6.06953 25.5636 5.91141 25.6119C5.85137 25.6302 5.82756 25.6249 5.82175 25.6237C5.81429 25.622 5.76597 25.6098 5.67834 25.5312C5.5726 25.4362 5.53372 25.3638 5.51818 25.3228C5.50326 25.2833 5.49587 25.2373 5.50516 25.1731C5.52655 25.0257 5.63937 24.7752 5.93615 24.4804L18.6966 12.7747C19.0043 12.4923 19.1037 12.0483 18.9466 11.6614C18.3134 10.1021 18.4563 8.18463 19.5273 7.12752C20.2562 6.4081 21.197 6.02321 22.1536 5.97648L21.0377 7.07934C20.5754 7.53576 20.3695 8.19548 20.5 8.83846L20.7343 10.0025L20.7695 10.1457C20.9688 10.8512 21.5519 11.3838 22.2721 11.5247L23.4492 11.7538C24.083 11.8767 24.7399 11.6792 25.2005 11.2265L26.3528 10.0885C26.3089 11.0283 25.9217 11.9587 25.1901 12.6809C24.6717 13.1923 23.9124 13.4911 23.0247 13.5689C22.138 13.6467 21.2025 13.4947 20.4401 13.1939C20.1288 13.0713 19.7802 13.1127 19.5091 13.2981L19.3984 13.3866ZM18.4396 16.9778L20.3138 15.259C21.2139 15.5259 22.2184 15.6471 23.1992 15.5611C24.4054 15.4554 25.6544 15.0323 26.595 14.1041C28.355 12.3668 28.8007 9.81429 27.914 7.67309C27.7867 7.3656 27.5137 7.14144 27.1875 7.07544C26.9021 7.01786 26.6078 7.08793 26.3802 7.26294L26.2877 7.34367L23.8111 9.78637L22.6861 9.56632L22.4674 8.47648L24.9335 6.04419C25.1733 5.80727 25.2776 5.46576 25.2109 5.13533C25.1441 4.80465 24.9148 4.53004 24.6015 4.40486C22.4464 3.54386 19.8814 3.96813 18.1223 5.70434C16.473 7.33239 16.3006 9.80211 16.8632 11.7421L14.9548 13.493L13.8369 12.375L15.1308 11.0702C16.3661 9.82453 16.3661 7.80811 15.1308 6.56242L13.4928 4.91007C12.2529 3.65993 10.2391 3.65979 8.9993 4.91007L4.63992 9.30721C3.40463 10.5529 3.40469 12.5693 4.63992 13.815L6.27795 15.4674C7.51769 16.7171 9.53037 16.7171 10.7701 15.4674L12.4285 13.7951L13.4797 14.8463L4.56245 23.0273L4.53641 23.052C4.05147 23.5311 3.63141 24.1594 3.52599 24.8853C3.41162 25.6734 3.69033 26.4349 4.3437 27.0207L4.5937 27.22C5.18857 27.6371 5.85429 27.72 6.49474 27.5247C7.11723 27.3347 7.64294 26.9039 8.04552 26.5103L16.9643 18.3309L18.2755 19.642L17.9971 19.9204C17.4764 20.4411 17.4764 21.2853 17.9971 21.806L23.3455 27.1544C24.322 28.1309 25.8677 28.1923 26.9151 27.3376L27.1168 27.1544L25.7026 25.7402C25.4422 26.0006 25.0201 26.0006 24.7598 25.7402L19.8827 20.8632L20.8872 19.8587L25.7642 24.7357C26.0246 24.9961 26.0246 25.4182 25.7642 25.6785L27.1785 27.0927C28.2199 26.0513 28.2199 24.3629 27.1785 23.3215L21.83 17.9731C21.3093 17.4524 20.4651 17.4524 19.9444 17.9731L19.6897 18.2278L18.4396 16.9778ZM10.4199 6.31893C10.8774 5.85759 11.6147 5.85768 12.0722 6.31893L13.7115 7.96997C14.1736 8.43587 14.1734 9.19531 13.7115 9.66137L9.35086 14.0585C8.89337 14.5199 8.1547 14.5199 7.69722 14.0585L6.05919 12.4062C5.5975 11.9401 5.59745 11.1819 6.05919 10.7161L10.4199 6.31893Z" fill="black"/>
</svg>
