<svg width="32" height="32" viewBox="0 0 32 32" fill="none" xmlns="http://www.w3.org/2000/svg">
<path fill-rule="evenodd" clip-rule="evenodd" d="M14.9598 18.4199C15.0185 18.4155 15.0774 18.4028 15.1351 18.3812L16.8803 17.7258C16.7929 17.741 16.706 17.7645 16.6204 17.7965L14.9598 18.4199Z" fill="black"/>
<path d="M20.1436 8.37728C20.1434 7.9975 19.844 7.41704 19.0212 6.87207C18.2338 6.35067 17.1402 5.99321 16.0003 5.99316C14.8607 5.99316 13.767 6.35061 12.9795 6.87207C12.1564 7.41713 11.8573 7.99755 11.8571 8.37728C11.8571 8.76016 12.1543 9.34084 12.9717 9.88379C13.755 10.4039 14.8487 10.7627 16.0003 10.7627C17.1521 10.7626 18.2446 10.4038 19.0277 9.88379C19.8453 9.34079 20.1436 8.76033 20.1436 8.37728ZM22.1436 8.37728C22.1436 9.7203 21.2152 10.8327 20.1344 11.5505C19.0194 12.2909 17.5408 12.7626 16.0003 12.7627C14.4601 12.7627 12.9814 12.2909 11.8662 11.5505C10.7855 10.8328 9.8571 9.72039 9.8571 8.37728C9.85726 7.0311 10.7949 5.91953 11.8753 5.2041C12.9917 4.46496 14.4698 3.99316 16.0003 3.99316C17.5311 3.99321 19.009 4.4649 20.1253 5.2041C21.2058 5.91959 22.1434 7.03118 22.1436 8.37728Z" fill="black"/>
<path d="M17.1362 8.3793C17.1362 9.00677 16.6275 9.51544 16.0001 9.51544C15.3726 9.51544 14.8639 9.00677 14.8639 8.3793C14.8639 7.75183 15.3726 7.24316 16.0001 7.24316C16.6275 7.24316 17.1362 7.75183 17.1362 8.3793Z" fill="black"/>
<path fill-rule="evenodd" clip-rule="evenodd" d="M17.9827 15.8148L22.4326 17.6828C22.3487 17.9908 22.3039 18.3149 22.3039 18.6494V21.5739C22.3039 21.8802 22.3415 22.1777 22.4123 22.4621L20.2966 22.7909C20.4675 22.3267 20.4288 21.7954 20.1569 21.3486L18.36 18.3968L18.2884 18.29C18.2507 18.239 18.2101 18.1909 18.1669 18.146C17.8359 17.8024 17.3523 17.6436 16.8803 17.7258C16.7929 17.741 16.706 17.7645 16.6204 17.7965L14.9598 18.4199C14.7039 18.4391 14.4529 18.3008 14.3382 18.0583C14.1949 17.7548 14.3133 17.3912 14.6077 17.2301L17.1169 15.859C17.3838 15.7132 17.7022 15.6971 17.9827 15.8148ZM14.0697 15.2523L16.1572 14.1038C16.9584 13.666 17.9156 13.6163 18.7575 13.9697L23.2549 15.859C23.3297 15.8905 23.3986 15.9299 23.4612 15.976C24.1172 15.3601 24.9998 14.9828 25.9705 14.9827H28.3911C28.9434 14.9827 29.3911 15.4305 29.3911 15.9827C29.3911 16.535 28.9434 16.9827 28.3911 16.9827H25.9705C25.0501 16.9828 24.3039 17.729 24.3039 18.6494V21.5739C24.3041 22.4941 25.0503 23.2405 25.9705 23.2406H28.3911C28.9434 23.2406 29.3911 23.6883 29.3911 24.2406C29.3909 24.7927 28.9433 25.2406 28.3911 25.2406H25.9705C25.0137 25.2405 24.1425 24.8739 23.4896 24.2735C23.4023 24.3158 23.3075 24.346 23.2067 24.3617L17.8904 25.1891L17.3288 25.6872C15.6223 27.1997 13.0358 27.1308 11.4121 25.5296L10.0189 24.1572H8.69596C8.67488 24.1572 8.65395 24.1566 8.63319 24.1553C7.96879 24.8254 7.04757 25.2405 6.02946 25.2406H3.60889C3.05673 25.2406 2.6091 24.7927 2.60889 24.2406C2.60889 23.6883 3.0566 23.2406 3.60889 23.2406H6.02946C6.94973 23.2405 7.69591 22.4941 7.69613 21.5739V18.6494C7.69613 17.729 6.94987 16.9828 6.02946 16.9827H3.60889C3.0566 16.9827 2.60889 16.535 2.60889 15.9827C2.60889 15.4305 3.0566 14.9827 3.60889 14.9827H6.02946C7.18542 14.9828 8.21648 15.5178 8.88855 16.3536L12.4928 14.8187C12.935 14.6304 13.4464 14.7105 13.8092 15.0257L14.0697 15.2523ZM16.8913 19.8304L15.4733 20.363C14.2807 20.8098 12.9395 20.3367 12.291 19.2406L12.2077 19.0999C11.8618 18.5152 11.7856 17.8374 11.9525 17.221L9.66824 18.1949C9.68665 18.3439 9.69613 18.4955 9.69613 18.6494V21.5739C9.69611 21.7724 9.68031 21.9673 9.64991 22.1572H10.1569C10.5399 22.1572 10.9098 22.2896 11.2051 22.5283L11.3275 22.6377L12.8158 24.1064C13.6899 24.9685 15.0831 25.0051 16.002 24.1911L18.3027 22.1494L16.8913 19.8304Z" fill="black"/>
</svg>
