<svg width="32" height="32" viewBox="0 0 32 32" fill="none" xmlns="http://www.w3.org/2000/svg">
<path d="M13.1659 8.55469C13.1657 7.14373 12.0209 6 10.6099 6C9.19909 6.00027 8.05552 7.14389 8.05525 8.55469C8.05525 9.96571 9.19893 11.1104 10.6099 11.1107C12.0211 11.1107 13.1659 9.96587 13.1659 8.55469ZM15.1659 8.55469C15.1659 11.0705 13.1256 13.1107 10.6099 13.1107C8.09434 13.1104 6.05525 11.0703 6.05525 8.55469C6.05552 6.03933 8.09451 4.00027 10.6099 4C13.1255 4 15.1657 6.03915 15.1659 8.55469Z" fill="black"/>
<path d="M23.9882 8.55469C23.988 7.14373 22.8432 6 21.4322 6C20.0214 6.00027 18.8778 7.14389 18.8775 8.55469C18.8775 9.96571 20.0212 11.1104 21.4322 11.1107C22.8434 11.1107 23.9882 9.96587 23.9882 8.55469ZM25.9882 8.55469C25.9882 11.0705 23.9479 13.1107 21.4322 13.1107C18.9166 13.1104 16.8775 11.0703 16.8775 8.55469C16.8778 6.03933 18.9168 4.00027 21.4322 4C23.9478 4 25.988 6.03915 25.9882 8.55469Z" fill="black"/>
<path d="M13.3897 14C14.8095 14.1521 15.8809 15.4149 15.7595 16.8724L15.0408 25.4779C14.9327 26.7736 13.9111 27.7896 12.641 27.9115L12.3845 27.9232H8.81551L8.559 27.9115C7.29051 27.7901 6.26833 26.7768 6.15795 25.4831L5.42488 16.8776C5.29214 15.3212 6.51907 13.9845 8.08113 13.9844H13.102L13.3897 14ZM10.0674 15.9844H8.08113C7.69069 15.9845 7.38388 16.3193 7.41707 16.7083L8.15144 25.3138C8.18118 25.6584 8.46953 25.9232 8.81551 25.9232H9.55065C9.54831 25.8953 9.54711 25.867 9.54711 25.8385L9.54711 23.125C9.54711 22.5727 9.99483 22.125 10.5471 22.125C11.0994 22.125 11.5471 22.5727 11.5471 23.125V25.8385C11.5471 25.867 11.5459 25.8953 11.5436 25.9232H12.3845C12.7308 25.9229 13.0195 25.6575 13.0486 25.3125L13.766 16.707C13.7984 16.3185 13.4918 15.9846 13.102 15.9844H11.0269L11.5471 19.2917C11.5894 19.5569 11.5205 19.8112 11.3323 19.9987C11.1455 20.1861 10.8545 20.2917 10.5471 20.2917C10.2398 20.2917 9.94883 20.1861 9.76199 19.9987C9.57374 19.8112 9.50485 19.5569 9.54714 19.2917L10.0674 15.9844Z" fill="black"/>
<path d="M23.2068 27.9232L23.4633 27.9115C24.7334 27.7896 25.755 26.7736 25.8631 25.4779L26.5818 16.8724C26.7032 15.4149 25.6318 14.1521 24.212 14L23.9243 13.9844H18.9034C17.3414 13.9845 16.1144 15.3212 16.2472 16.8776L16.9803 25.4831C17.0906 26.7768 18.1128 27.7901 19.3813 27.9115L19.6378 27.9232H23.2068ZM23.8709 25.3125C23.8418 25.6575 23.5531 25.9229 23.2068 25.9232H22.3659C22.3682 25.8953 22.3694 25.867 22.3694 25.8385V23.125C22.3694 22.5727 21.9217 22.125 21.3694 22.125C20.8171 22.125 20.3694 22.5727 20.3694 23.125V25.8385C20.3694 25.867 20.3706 25.8953 20.3729 25.9232H19.6378C19.2918 25.9232 19.0035 25.6584 18.9737 25.3138L18.2394 16.7083C18.2062 16.3193 18.513 15.9845 18.9034 15.9844H20.8896L20.3694 19.2917C20.3271 19.5569 20.396 19.8112 20.5843 19.9987C20.7711 20.1861 21.062 20.2917 21.3694 20.2917C21.6768 20.2917 21.9677 20.1861 22.1546 19.9987C22.3428 19.8112 22.4117 19.5569 22.3694 19.2917L21.8492 15.9844H23.9243C24.3141 15.9846 24.6207 16.3185 24.5883 16.707L23.8709 25.3125Z" fill="black"/>
</svg>
