<svg width="32" height="32" viewBox="0 0 32 32" fill="none" xmlns="http://www.w3.org/2000/svg">
<path fill-rule="evenodd" clip-rule="evenodd" d="M14.7106 24.3074H9.37012C7.66572 24.3073 5.5864 23.1361 5.08236 20.3868L4.00554 14.1655C3.7444 12.6042 4.01649 11.1789 4.792 10.1238C5.57652 9.05654 6.79732 8.4728 8.18002 8.47278H8.85922L10.9394 4.4884C11.1951 3.99907 11.8002 3.80961 12.2896 4.06522C12.779 4.32095 12.9684 4.92601 12.7128 5.41549L11.1162 8.47278H18.5499L16.9533 5.41549C16.6977 4.92606 16.8872 4.321 17.3765 4.06522C17.8659 3.80962 18.471 3.99912 18.7267 4.4884L20.8069 8.47278H21.4886C22.8713 8.47278 24.092 9.05666 24.8766 10.1238C25.6522 11.1788 25.9262 12.5991 25.6657 14.1603L25.2966 16.289C25.3701 16.3166 25.4436 16.3468 25.517 16.3796C26.8609 16.9812 27.8748 18.3472 28.0248 20.7768C28.0257 20.7915 28.0272 20.8155 28.0274 20.8301C28.0457 23.0981 27.3215 24.8312 26.4753 26.0163C26.055 26.6049 25.6019 27.0629 25.1888 27.3874C24.983 27.5492 24.7769 27.685 24.5808 27.7885C24.4333 27.8662 24.2385 27.9496 24.0248 27.9929C23.2015 28.1939 22.4651 28.0525 21.9336 27.9057C21.7761 27.8621 21.5892 27.8035 21.4447 27.7582C21.3752 27.7364 21.3155 27.7177 21.2735 27.7051C21.147 27.6674 21.0821 27.6549 21.0595 27.6506C21.0347 27.6542 20.9588 27.6654 20.8269 27.7025C20.806 27.7084 20.7796 27.7161 20.7491 27.7251L20.6468 27.7555C20.5037 27.7981 20.3203 27.8527 20.1745 27.8913C19.6502 28.0305 18.9334 28.1674 18.1263 28.0033C17.8982 27.9624 17.689 27.87 17.53 27.7859C17.3339 27.6821 17.1281 27.5456 16.9219 27.3835C16.5086 27.0587 16.0555 26.6007 15.6354 26.0124C15.2933 25.5332 14.9714 24.9647 14.7106 24.3074ZM19.8325 16.2253L19.6133 16.1739C19.0898 16.0327 17.8248 15.8298 16.5964 16.3796C15.2526 16.9812 14.2389 18.3472 14.0886 20.7768L14.086 20.8301C14.0818 21.3509 14.1166 21.8434 14.1831 22.3074H9.37012C8.61363 22.3073 7.51503 21.8269 7.11882 20.3374L7.04981 20.0262L5.97559 13.8243C5.78456 12.6746 6.01681 11.8354 6.40398 11.3087C6.78276 10.7934 7.38322 10.4728 8.18002 10.4728H21.4886C22.2854 10.4728 22.887 10.7933 23.266 11.3087C23.6531 11.8355 23.8848 12.675 23.6943 13.8243L23.3108 16.036C22.9694 16.0651 22.6873 16.1234 22.5 16.1739C22.3162 16.2234 22.1326 16.2634 21.9492 16.294C21.8514 15.8303 21.6793 15.3691 21.4045 14.9473C20.9004 14.1737 20.1015 13.6121 19.01 13.4005C18.4679 13.2955 17.9432 13.65 17.8381 14.1921C17.7331 14.7342 18.0877 15.2589 18.6298 15.364C19.2135 15.4773 19.5336 15.7404 19.7287 16.0398C19.7665 16.0978 19.8011 16.1597 19.8325 16.2253ZM19.0925 18.1049C20.3743 18.4499 21.6665 18.4563 22.9487 18.1239L23.0209 18.1049C23.3363 18.02 24.0719 17.9238 24.7006 18.2051C24.7776 18.2396 24.8588 18.2824 24.9415 18.3365C25.4082 18.6414 25.9249 19.3063 26.0261 20.8796C26.0336 22.676 25.4643 23.9899 24.8477 24.8536C24.5348 25.2918 24.2126 25.6107 23.9532 25.8145C23.8229 25.9168 23.7175 25.9832 23.6472 26.0202C23.6281 26.0303 23.6061 26.0387 23.5964 26.0424L23.5508 26.0515C23.2154 26.1332 22.8693 26.0887 22.4662 25.9773C22.3289 25.9394 22.2262 25.9069 22.1133 25.8713L22.0287 25.8447C21.9734 25.8274 21.9137 25.8089 21.8451 25.7885C21.6535 25.7314 21.3584 25.6479 21.056 25.6479C20.7638 25.648 20.4782 25.7224 20.2852 25.7768C20.1714 25.8088 20.0846 25.835 20.0027 25.8597C19.8967 25.8917 19.7989 25.9213 19.6615 25.9577C19.2548 26.0657 18.8717 26.1109 18.5071 26.0367C18.4972 26.0326 18.4835 26.0268 18.4662 26.0176C18.3945 25.9797 18.2881 25.9132 18.1576 25.8106C17.8976 25.6062 17.5753 25.2883 17.2631 24.851C17.1455 24.6863 17.0296 24.5052 16.9191 24.3074C16.6171 23.7669 16.3553 23.1018 16.2093 22.3074C16.1291 21.8708 16.0838 21.3952 16.086 20.8796C16.2055 19.027 16.9026 18.4341 17.4141 18.2051C18.0428 17.9239 18.7778 18.0201 19.0925 18.1049Z" fill="black"/>
</svg>
