<svg width="32" height="32" viewBox="0 0 32 32" fill="none" xmlns="http://www.w3.org/2000/svg">
<path fill-rule="evenodd" clip-rule="evenodd" d="M11.2378 22.417C11.3689 22.4538 11.4939 22.5178 11.6039 22.6088C11.5609 22.5587 11.5231 22.504 11.4912 22.4456C11.405 22.4384 11.3205 22.4288 11.2378 22.417Z" fill="black"/>
<path fill-rule="evenodd" clip-rule="evenodd" d="M11.6837 21.3034L11.6664 21.319C11.6722 21.3138 11.678 21.3087 11.6837 21.3034ZM11.6889 22.6882L11.7005 22.7011C11.6947 22.6941 11.6955 22.6943 11.6889 22.6882Z" fill="black"/>
<path fill-rule="evenodd" clip-rule="evenodd" d="M13.9214 24.4622C14.603 24.0179 15.0891 23.2988 15.2225 22.4622C15.2468 22.31 15.2594 22.1539 15.2594 21.9948C15.2591 20.3703 13.9426 19.0537 12.318 19.0534C11.8301 19.0534 11.3699 19.1723 10.9648 19.3827C10.5561 19.1706 10.0943 19.0535 9.60685 19.0534C9.14354 19.0534 8.70521 19.1605 8.31535 19.3513C7.56459 19.7188 6.99354 20.3968 6.76981 21.2186C6.70261 21.4655 6.66675 21.7253 6.66675 21.9935C6.66694 23.6172 7.98317 24.9323 9.60685 24.9323C10.0923 24.9323 10.5526 24.8164 10.9603 24.6058C11.3665 24.8177 11.8283 24.9375 12.318 24.9375C12.9095 24.9374 13.4602 24.7627 13.9214 24.4622ZM11.6188 22.6247C11.6162 22.6216 11.607 22.6113 11.6039 22.6088C11.4939 22.5178 11.3689 22.4538 11.2378 22.417C11.3205 22.4288 11.405 22.4384 11.4912 22.4456C11.4182 22.3117 11.3766 22.1581 11.3766 21.9948C11.3768 21.7514 11.4692 21.5298 11.6207 21.3628C11.6328 21.3523 11.6442 21.3409 11.6558 21.3295L11.6664 21.319L11.6837 21.3034C11.6874 21.3 11.6907 21.2962 11.694 21.2924C11.6978 21.288 11.7015 21.2836 11.7059 21.2799C11.8706 21.1387 12.0846 21.0534 12.318 21.0534C12.838 21.0537 13.2591 21.4748 13.2594 21.9948C13.2594 22.1648 13.2145 22.3244 13.1357 22.4622C12.9735 22.7459 12.6682 22.9373 12.318 22.9375C12.0925 22.9375 11.8813 22.8535 11.7189 22.7206C11.7105 22.7137 11.7075 22.7096 11.7005 22.7011L11.6889 22.6882C11.6806 22.6804 11.6617 22.6628 11.6546 22.6566C11.645 22.6485 11.6278 22.6335 11.6188 22.6247C11.6156 22.6222 11.6218 22.6274 11.6188 22.6247ZM9.07134 21.2204C9.20341 21.1288 9.36013 21.0703 9.52964 21.0565C9.4728 21.2254 9.43088 21.4011 9.40543 21.5822C9.38647 21.717 9.37665 21.8548 9.37663 21.9948C9.37663 22.3214 9.42984 22.6355 9.52806 22.9291C9.04575 22.8892 8.66693 22.486 8.66675 21.9935C8.66675 21.6727 8.82676 21.39 9.07134 21.2204Z" fill="black"/>
<path fill-rule="evenodd" clip-rule="evenodd" d="M2.67383 14.6693V22.3633C2.67384 23.9954 3.18365 25.4705 4.18555 26.5469C5.19515 27.6314 6.62886 28.2291 8.30273 28.2292H20.0645C21.7389 28.2292 23.1728 27.6314 24.1829 26.5469C24.79 25.895 25.2167 25.097 25.4589 24.2063C26.3632 23.934 27.1489 23.4498 27.7729 22.7799C28.7754 21.7035 29.2859 20.2286 29.2859 18.5963V10.9023C29.2859 9.27026 28.7753 7.79517 27.7729 6.71867C26.7631 5.63419 25.3298 5.03648 23.6557 5.03638H11.8927C10.2225 5.0365 8.7895 5.63506 7.77944 6.71867C7.17208 7.37043 6.74437 8.16859 6.50155 9.05961C5.59866 9.33209 4.81336 9.81637 4.18945 10.4857C3.18687 11.5616 2.67383 13.0364 2.67383 14.6693ZM6.47681 11.2201C6.96793 10.9609 7.56359 10.8089 8.26465 10.8036L8.30273 10.8034H20.0658C20.7863 10.8035 21.3956 10.9564 21.8957 11.2201C22.2146 11.3883 22.489 11.6015 22.7194 11.849C23.0556 12.2102 23.322 12.6704 23.4911 13.2201C23.6233 13.6499 23.696 14.1345 23.696 14.6693V14.9909H4.67383V14.6693C4.67383 13.8407 4.84912 13.1323 5.15028 12.5612C5.29177 12.2929 5.46105 12.0549 5.65299 11.849C5.83065 11.6584 6.03423 11.4882 6.26381 11.3432C6.33248 11.2999 6.40348 11.2588 6.47681 11.2201ZM25.696 21.924C25.9269 21.7786 26.1313 21.6078 26.3094 21.4166C26.9084 20.7732 27.2859 19.8157 27.2859 18.5963V13.2051C27.2297 13.215 27.1718 13.2201 27.1127 13.2201H25.5526C25.648 13.6838 25.696 14.1692 25.696 14.6693V21.924ZM23.696 16.9909H4.67383V22.3633C4.67384 23.5832 5.05149 24.5416 5.65039 25.1849C6.24169 25.8198 7.12292 26.2291 8.30273 26.2292H20.0645C21.2454 26.2292 22.1276 25.8189 22.7194 25.1836C22.9132 24.9754 23.0839 24.7344 23.2261 24.4622C23.5113 23.916 23.6819 23.2445 23.6951 22.462C23.6957 22.4293 23.696 22.3964 23.696 22.3633V16.9909ZM24.7529 11.2201H27.1127C27.1476 11.2201 27.1821 11.222 27.2161 11.2255C27.2396 11.2279 27.2629 11.231 27.2859 11.235V10.9023C27.2859 9.68342 26.9085 8.72556 26.3094 8.08195C25.7177 7.44647 24.8358 7.03647 23.6557 7.03638H11.8927C10.718 7.03649 9.8361 7.44564 9.24298 8.08195C9.04884 8.29023 8.87789 8.53133 8.73542 8.80342H20.0658C21.7398 8.80352 23.1731 9.40123 24.1829 10.4857C24.395 10.7134 24.585 10.959 24.7529 11.2201Z" fill="black"/>
</svg>
