<svg width="32" height="32" viewBox="0 0 32 32" fill="none" xmlns="http://www.w3.org/2000/svg">
<path d="M15.2134 14.983V6.42187C15.2134 5.86959 15.6611 5.42188 16.2134 5.42188C16.7657 5.42188 17.2134 5.86959 17.2134 6.42188V14.983L25.5754 14.983C26.1276 14.983 26.5754 15.4307 26.5754 15.983C26.5754 16.5353 26.1276 16.983 25.5754 16.983H17.2134V25.5729C17.2134 26.1252 16.7657 26.5729 16.2134 26.5729C15.6611 26.5729 15.2134 26.1252 15.2134 25.5729L15.2134 16.983H6.42432C5.87203 16.983 5.42432 16.5353 5.42432 15.983C5.42432 15.4307 5.87203 14.983 6.42432 14.983L15.2134 14.983Z" fill="black"/>
</svg>
