<svg width="32" height="32" viewBox="0 0 32 32" fill="none" xmlns="http://www.w3.org/2000/svg">
<path d="M11.3688 15.8546C11.9211 15.8546 12.3688 16.3023 12.3688 16.8546C12.3688 17.4069 11.9211 17.8546 11.3688 17.8546H9.02249C8.47021 17.8546 8.02249 17.4069 8.02249 16.8546C8.02249 16.3023 8.47021 15.8546 9.02249 15.8546H11.3688Z" fill="black"/>
<path fill-rule="evenodd" clip-rule="evenodd" d="M6.0998 10.646L6.3455 10.6828C6.265 10.6707 6.18325 10.6585 6.0998 10.646Z" fill="black"/>
<path fill-rule="evenodd" clip-rule="evenodd" d="M22.9472 11.2899C22.9065 11.2057 22.8785 11.1176 22.8629 11.0282C22.8952 11.1132 22.9234 11.2006 22.9472 11.2899Z" fill="black"/>
<path fill-rule="evenodd" clip-rule="evenodd" d="M19.3165 11.0619C19.3038 11.1224 19.2853 11.1821 19.2611 11.2402C19.2778 11.1795 19.2963 11.12 19.3165 11.0619Z" fill="black"/>
<path d="M24.8059 22.1384C24.8058 22.5646 24.5348 22.9278 24.1555 23.064V20.8155C24.1555 19.1232 22.784 17.7507 21.0917 17.7504C19.3993 17.7504 18.0266 19.123 18.0266 20.8155V23.0637C17.6475 22.9273 17.3762 22.5643 17.3762 22.1384V17.4028C17.3763 15.7653 18.7037 14.438 20.341 14.4379L21.0611 14.4366L21.841 14.4379C23.4785 14.4379 24.8057 15.7653 24.8059 17.4028V22.1384ZM24.1261 25.1064C25.6313 24.9549 26.8058 23.6836 26.8059 22.1384V17.4028C26.8058 15.6536 25.9013 14.1157 24.5345 13.2313C24.8443 12.8721 25.0559 12.4061 25.0351 11.8194L25.0182 11.559C25.0089 11.4589 24.9963 11.3586 24.9804 11.2585L25.9998 10.4978C26.1696 10.3712 26.3754 10.3025 26.587 10.3025H28.3748C28.9271 10.3025 29.3748 9.85476 29.3748 9.30249C29.3748 8.75022 28.9271 8.30251 28.3748 8.30249H26.587C25.944 8.3025 25.3184 8.51041 24.8032 8.89494L24.2125 9.33611C23.8938 8.88238 23.4825 8.48583 22.9778 8.18921C21.7191 7.45112 20.392 7.48612 19.1653 8.21134C18.6635 8.50796 18.2695 8.89546 17.9678 9.33193L17.3827 8.89494C16.8674 8.51037 16.2418 8.30249 15.5988 8.30249H13.8111C13.2588 8.30249 12.8111 8.75021 12.8111 9.30249C12.8111 9.85478 13.2588 10.3025 13.8111 10.3025H15.5988C15.8106 10.3025 16.0164 10.3712 16.1861 10.4978L17.2134 11.2644C17.1864 11.43 17.1675 11.5947 17.1562 11.7569C17.1126 12.3708 17.3294 12.8572 17.6514 13.229C16.2825 14.113 15.3763 15.652 15.3762 17.4028V22.1384C15.3762 23.6833 16.5512 24.9543 18.0561 25.1063C18.2638 26.5968 19.544 27.7439 21.0917 27.7439C22.6392 27.7436 23.9185 26.5967 24.1261 25.1064ZM22.8629 11.0282C22.8952 11.1132 22.9234 11.2006 22.9472 11.2899C22.9725 11.385 22.9928 11.4822 23.0078 11.5811L23.0366 11.8937C23.0374 11.8981 23.0381 11.9026 23.0182 11.9275C22.9822 11.9723 22.8909 12.0548 22.7018 12.1436C22.3252 12.3204 21.7495 12.4354 21.1133 12.4367L21.0729 12.4366C20.4196 12.433 19.8325 12.3106 19.4583 12.128C19.2744 12.0383 19.1913 11.9575 19.1614 11.9184C19.1485 11.9014 19.151 11.8975 19.151 11.8975C19.1671 11.6664 19.2042 11.446 19.2611 11.2402C19.2853 11.1821 19.3038 11.1224 19.3165 11.0619C19.4893 10.5644 19.7853 10.1674 20.1822 9.9327C20.8074 9.56301 21.3579 9.55786 21.9661 9.91447L22.0807 9.98739C22.4265 10.2281 22.6984 10.5965 22.8629 11.0282ZM21.0917 19.7504C21.6794 19.7507 22.1555 20.2278 22.1555 20.8155V24.6801C22.1553 25.2677 21.6793 25.7436 21.0917 25.7439C20.5039 25.7439 20.0269 25.2678 20.0266 24.6801V20.8155C20.0266 20.2276 20.5038 19.7504 21.0917 19.7504Z" fill="black"/>
<path d="M6.11616 10.6059C6.11102 10.6192 6.10556 10.6325 6.0998 10.646C5.59562 10.5705 5.03554 10.4873 4.39318 10.3962C3.84646 10.3187 3.34065 10.6985 3.26297 11.2452C3.18545 11.7919 3.56528 12.2977 4.11193 12.3754C4.35507 12.4099 4.58695 12.4433 4.80899 12.4758L4.40783 13.0278C3.67268 14.0423 3.2763 15.2645 3.27762 16.5173L3.25678 23.3142C3.25279 24.5904 4.2865 25.628 5.56277 25.628H8.15001C9.42329 25.6279 10.456 24.5955 10.456 23.322V22.7869C10.456 22.618 10.5931 22.4809 10.762 22.4809H12.8102C13.3622 22.4806 13.8102 22.033 13.8102 21.4809C13.8101 20.9288 13.3622 20.4811 12.8102 20.4809H10.762C9.4885 20.4809 8.456 21.5135 8.456 22.7869V23.322C8.45597 23.4909 8.31878 23.6279 8.15001 23.628H5.56277C5.3935 23.628 5.25625 23.4899 5.25678 23.3207L5.27762 16.5186C5.27602 15.6871 5.53861 14.8769 6.02631 14.2035L7.04026 12.8073C8.9046 13.0781 10.2449 13.2175 13.0546 13.2139C13.6066 13.213 14.0538 12.7646 14.0533 12.2126C14.0526 11.6605 13.6041 11.2135 13.052 11.2139C10.7781 11.2168 9.55181 11.1275 8.12405 10.9395L9.37007 7.47567C9.58433 6.86325 10.1459 6.38292 10.7815 6.25562H15.9235C16.4757 6.25562 16.9235 5.8079 16.9235 5.25562C16.9235 4.70333 16.4757 4.25562 15.9235 4.25562H10.6721L10.5081 4.26864C9.12903 4.49824 7.94348 5.49619 7.48204 6.81551L6.11616 10.6059Z" fill="black"/>
</svg>
