<svg width="32" height="32" viewBox="0 0 32 32" fill="none" xmlns="http://www.w3.org/2000/svg">
<path d="M6.17432 12.6902V5.17456C6.17432 4.62228 5.7266 4.17456 5.17432 4.17456C4.62203 4.17456 4.17432 4.62228 4.17432 5.17456V24.1199C4.17465 26.1664 5.83456 27.8256 7.88135 27.8256H26.8254C27.3776 27.8256 27.8254 27.3779 27.8254 26.8256C27.8253 26.2733 27.3776 25.8256 26.8254 25.8256H7.88135C6.93917 25.8256 6.17465 25.0619 6.17432 24.1199V21.7374L10.4916 23.3027C10.6912 23.9769 11.316 24.4699 12.0544 24.4701C12.9536 24.4701 13.6847 23.739 13.6847 22.8399C13.6846 22.7758 13.6809 22.7126 13.6738 22.6506L15.6955 20.4427C15.7439 20.4471 15.793 20.4493 15.8425 20.4493C16.2681 20.4493 16.656 20.2855 16.9466 20.0176L19.745 20.4494C20.0435 20.8296 20.5072 21.0741 21.0273 21.0743C21.9264 21.0743 22.6575 20.3432 22.6575 19.4441C22.6574 19.2687 22.6299 19.1002 22.579 18.9426L25.7734 12.892C26.0313 12.4037 25.845 11.7984 25.3568 11.5404C24.8685 11.2826 24.2632 11.469 24.0052 11.9571L20.9096 17.8192C20.4438 17.852 20.0298 18.0816 19.7534 18.4267L17.2778 18.0454C17.001 17.5339 16.4584 17.1902 15.8399 17.1902C14.9454 17.1903 14.2109 17.9161 14.2136 18.8191L14.2214 18.9858C14.2246 19.0168 14.2286 19.0476 14.2335 19.0781L12.2664 21.225C12.1962 21.2158 12.1245 21.211 12.0518 21.211C11.7489 21.2111 11.4644 21.2943 11.2206 21.4395L6.17432 19.6098V14.6902H9.10892C9.38375 14.9015 9.7277 15.0273 10.1007 15.0274C11 15.0274 11.7309 14.2963 11.7309 13.3972C11.7309 13.3526 11.7291 13.3083 11.7256 13.2646L13.3644 11.3601C13.4397 11.3708 13.5165 11.3764 13.5946 11.3764C13.8962 11.3764 14.1788 11.2942 14.4213 11.151L17.8778 13.0575C18.1241 13.645 18.7051 14.0585 19.3813 14.0587C20.2804 14.0587 21.0116 13.3276 21.0116 12.4285C21.0115 12.3496 21.0059 12.2721 20.9952 12.1964L25.6392 6.92456C26.0042 6.51026 25.9648 5.87823 25.5506 5.5131C25.1363 5.14809 24.5043 5.18752 24.1392 5.60164L19.5502 10.8084C19.4938 10.8026 19.4366 10.7996 19.3787 10.7996C19.0348 10.7996 18.7144 10.907 18.4506 11.0904L15.1551 9.27249C14.9513 8.59999 14.325 8.11727 13.592 8.11727C12.6975 8.11745 11.9631 8.8432 11.9657 9.74617L11.9734 9.91053L10.3574 11.7888C10.2729 11.7753 10.1862 11.7683 10.0981 11.7683C9.45485 11.7684 8.89445 12.1437 8.6313 12.6902H6.17432Z" fill="black"/>
</svg>
