<svg width="32" height="32" viewBox="0 0 32 32" fill="none" xmlns="http://www.w3.org/2000/svg">
<path d="M26.0316 11.1295C26.0316 9.53096 25.5355 8.24948 24.723 7.37687C23.918 6.51231 22.7281 5.96802 21.1683 5.96802H10.8298C9.27598 5.96802 8.08558 6.51151 7.27897 7.37687C6.46519 8.25003 5.96777 9.53215 5.96777 11.1295V20.8704C5.96777 22.4691 6.46282 23.7517 7.27507 24.6243C8.07978 25.4887 9.26998 26.0318 10.8298 26.0318H21.167C22.7272 26.0318 23.9179 25.4885 24.723 24.6243C25.5356 23.7517 26.0316 22.4689 26.0316 20.8704V11.1295ZM28.0316 20.8704C28.0316 22.882 27.4023 24.6808 26.1865 25.9862C24.9633 27.2998 23.2214 28.0318 21.167 28.0318H10.8298C8.77582 28.0318 7.03431 27.2999 5.81152 25.9862C4.59638 24.6807 3.96777 22.8817 3.96777 20.8704V11.1295C3.96777 9.1171 4.59952 7.31844 5.81543 6.01359C7.039 4.70089 8.78054 3.96802 10.8298 3.96802H21.1683C23.2222 3.96802 24.9648 4.70008 26.1878 6.01359C27.4031 7.31902 28.0316 9.1181 28.0316 11.1295V20.8704Z" fill="black"/>
<path fill-rule="evenodd" clip-rule="evenodd" d="M22.1534 19.8834C22.1639 18.1875 20.7999 16.8018 19.1026 16.7909L19.0818 16.7922C17.7347 16.7894 16.5871 17.6554 16.174 18.8639H10.8453C10.293 18.8639 9.8453 19.3116 9.8453 19.8639C9.8453 20.4161 10.293 20.8639 10.8453 20.8639H16.1776C16.5908 22.0604 17.7232 22.9241 19.061 22.9342C20.756 22.9447 22.1408 21.5793 22.1534 19.8834ZM19.0792 18.7909C18.4906 18.7891 18.0123 19.2641 18.0102 19.8508C18.0065 20.4426 18.4827 20.928 19.074 20.9329C19.6662 20.9364 20.1491 20.4604 20.1534 19.8691C20.156 19.3129 19.7372 18.8556 19.199 18.7974L19.0792 18.7909Z" fill="black"/>
<path fill-rule="evenodd" clip-rule="evenodd" d="M15.8192 11.1347C15.4059 9.9395 14.2759 9.07693 12.939 9.06698C11.244 9.05639 9.85799 10.4221 9.8453 12.1178C9.83469 13.8135 11.1988 15.1995 12.8961 15.2102L12.9169 15.2089C14.2647 15.2118 15.4117 14.3442 15.824 13.1347H21.1561C21.7081 13.1343 22.1561 12.6868 22.1561 12.1347C22.1561 11.5826 21.7081 11.135 21.1561 11.1347H15.8192ZM12.9234 11.067C12.3319 11.0641 11.8496 11.5411 11.8453 12.1321C11.8424 12.7254 12.3195 13.2065 12.9091 13.2102C13.4976 13.212 13.9863 12.7372 13.9885 12.1503C13.992 11.5582 13.5149 11.0713 12.9234 11.067Z" fill="black"/>
</svg>
