<svg width="32" height="32" viewBox="0 0 32 32" fill="none" xmlns="http://www.w3.org/2000/svg">
<path d="M25.9559 15.9999C25.9559 10.5015 21.4986 6.04419 16.0002 6.04419C10.5018 6.04419 6.04443 10.5015 6.04443 15.9999C6.04443 18.3779 6.87685 20.5586 8.26709 22.2708C8.72254 22.8316 8.78019 23.6623 8.31266 24.2825L7.05094 25.9556H16.0002C21.4986 25.9556 25.9559 21.4984 25.9559 15.9999ZM27.9559 15.9999C27.9559 22.6029 22.6032 27.9556 16.0002 27.9556H6.99886C5.37021 27.9556 4.44215 26.0948 5.42204 24.7942L6.54053 23.3085C4.97714 21.2876 4.04443 18.752 4.04443 15.9999C4.04443 9.39696 9.3972 4.04419 16.0002 4.04419C22.6032 4.04419 27.9559 9.39696 27.9559 15.9999Z" fill="black"/>
</svg>
