<?xml version="1.0" encoding="UTF-8"?>
<svg id="Capa_1" xmlns="http://www.w3.org/2000/svg" version="1.1" viewBox="0 0 32 32">
  <!-- Generator: Adobe Illustrator 30.0.0, SVG Export Plug-In . SVG Version: 2.1.1 Build 123)  -->
  <defs>
    <style>
      .st0 {
        fill-rule: evenodd;
      }
    </style>
  </defs>
  <path class="st0" d="M14.4,19.44c-.69.3-1.34.3-2.03,0-.51-.22-1.1,0-1.32.52-.22.51,0,1.1.52,1.32,1.2.52,2.43.52,3.63,0,.51-.22.74-.81.52-1.32-.22-.51-.81-.74-1.32-.52Z"/>
  <path class="st0" d="M15.69,15.67c-.55,0-1,.46-1,1.01s.45,1,1,1,1-.46,1-1.01-.45-1-1-1Z"/>
  <path class="st0" d="M12.08,16.67c0-.55-.45-1-1-1s-1,.46-1,1.01.45,1,1,1,1-.46,1-1.01Z"/>
  <path class="st0" d="M16.88,26.11h-6.99c-.55,0-1,.45-1,1s.45,1,1,1h6.99c.55,0,1-.45,1-1s-.45-1-1-1Z"/>
  <path class="st0" d="M27.97,6.88c-.13-.31-.4-.54-.73-.6-.29-.06-.58.01-.81.19l-.09.08-1.81,1.81-.59-.12-.12-.59,1.81-1.81c.24-.24.34-.58.27-.91-.07-.33-.29-.6-.6-.73-1.74-.71-3.82-.36-5.24,1.06-1.24,1.24-1.67,2.99-1.28,4.58l-1.86,1.86c-.1.1-.19.21-.27.33-.09,0-.17,0-.26,0h-2.01v-.38c.76-.37,1.29-1.15,1.29-2.06,0-1.27-1.03-2.29-2.29-2.29-1.27,0-2.29,1.03-2.29,2.29,0,.91.53,1.69,1.29,2.06v.38h-2.01c-1.3,0-2.42.47-3.22,1.32-.61.65-.98,1.48-1.12,2.39-1.28.31-2.23,1.46-2.23,2.84,0,1.36.94,2.51,2.2,2.83.11,1,.5,1.91,1.15,2.61.8.86,1.93,1.32,3.23,1.32h6.01c1.3,0,2.43-.46,3.23-1.32.65-.7,1.03-1.61,1.15-2.61,1.27-.32,2.2-1.47,2.2-2.83,0-1.37-.95-2.53-2.23-2.84-.03-.21-.08-.42-.14-.62l1.73-1.73c1.59.39,3.33-.04,4.57-1.28,1.42-1.42,1.77-3.5,1.06-5.24ZM5.97,19.11c-.1-.15-.16-.33-.16-.52,0-.19.06-.38.16-.52v1.05ZM20.8,18.06c.1.15.17.33.17.53s-.06.38-.17.53v-1.05ZM13.39,9.3c.16,0,.29.13.29.29s-.13.29-.29.29c-.16,0-.29-.13-.29-.29s.13-.29.29-.29ZM18.8,16.67v4.09c0,.84-.26,1.48-.65,1.9-.38.41-.96.69-1.76.69h-6.01c-.8,0-1.38-.28-1.76-.69-.39-.42-.65-1.05-.65-1.9v-.26s0-.04,0-.04v-3.8s0-.05,0-.05c0-.84.26-1.48.65-1.9.38-.41.96-.69,1.76-.69h6.01c.8,0,1.38.28,1.76.69.28.3.5.72.59,1.25.04.2.06.42.06.65,0,0,0,.02,0,.03v.02ZM25.49,10.7c-.83.83-2.04,1.04-3.07.63-.33-.13-.69-.08-.97.12l-.11.1-1.76,1.76c-.24-.25-.5-.46-.79-.64l1.84-1.84c.28-.28.37-.71.22-1.08-.41-1.03-.2-2.24.62-3.07.35-.35.76-.58,1.19-.71l-.37.37c-.36.36-.54.85-.5,1.35l.03.21.18.9c.14.69.68,1.22,1.36,1.36l.9.18c.57.11,1.15-.07,1.56-.47l.37-.37c-.13.44-.37.85-.71,1.19Z"/>
</svg>