<?xml version="1.0" encoding="UTF-8"?>
<svg id="Capa_1" xmlns="http://www.w3.org/2000/svg" version="1.1" viewBox="0 0 25 25">
  <!-- Generator: Adobe Illustrator 29.8.1, SVG Export Plug-In . SVG Version: 2.1.1 Build 2)  -->
  <path d="M21.75,9.85l-3.07-2.69v-2.08c0-.41-.34-.75-.75-.75s-.75.34-.75.75v.76l-2.95-2.59c-1.15-1-2.79-1-3.94,0l-7.53,6.6c-.31.27-.34.74-.07,1.05.28.32.75.35,1.06.08l.26-.23v7.7c0,2.17,1.66,4,3.81,4h8.88c2.15,0,3.81-1.83,3.81-4v-7.69l.25.22c.32.27.79.24,1.06-.08.28-.31.24-.78-.07-1.05ZM13.87,20.95h-3.22v-3.41c0-.46,0-.77.02-1,.01-.23.04-.34.07-.4.09-.2.22-.34.37-.42.03,0,.09-.04.28-.06.2-.02.46-.02.87-.02s.68,0,.87.02c.19.02.25.05.28.06.15.08.29.22.37.42.03.06.06.17.07.4.02.23.02.54.02,1v3.41ZM19.01,18.45c0,1.42-1.08,2.5-2.31,2.5h-1.33v-3.41c0-.44,0-.81-.02-1.11-.02-.23-.05-.45-.11-.67l-.08-.21c-.21-.49-.57-.9-1.03-1.15-.28-.15-.58-.21-.87-.23-.27-.03-.61-.03-1-.03s-.73,0-1,.03c-.29.02-.59.08-.87.23-.46.25-.82.66-1.03,1.15-.12.28-.17.58-.19.88-.02.3-.02.67-.02,1.11v3.41h-1.33c-1.24,0-2.31-1.08-2.31-2.5v-9.01l5.77-5.06c.54-.48,1.28-.51,1.85-.09l.11.09,5.77,5.06v9.01Z"/>
</svg>