<svg width="32" height="32" viewBox="0 0 32 32" fill="none" xmlns="http://www.w3.org/2000/svg">
<path d="M26.0363 16.0406C26.0362 10.5322 21.5708 6.06665 16.0623 6.06665C10.5539 6.06677 6.08851 10.5323 6.08838 16.0406C6.08838 18.4228 6.92223 20.608 8.31494 22.3232C8.77101 22.8845 8.82806 23.7158 8.36051 24.3362L7.09489 26.0146H16.0623C21.5709 26.0146 26.0363 21.5491 26.0363 16.0406ZM28.0363 16.0406C28.0363 22.6537 22.6754 28.0146 16.0623 28.0146H7.04541C5.41525 28.0145 4.48745 26.1521 5.46859 24.8505L6.58968 23.3622C5.02311 21.338 4.08838 18.7975 4.08838 16.0406C4.08851 9.42771 9.44936 4.06677 16.0623 4.06665C22.6754 4.06665 28.0362 9.42763 28.0363 16.0406Z" fill="black"/>
<path d="M19.3328 11.8764C19.7234 11.486 20.3564 11.4859 20.7469 11.8764C21.1373 12.2668 21.1373 12.8999 20.7469 13.2904L14.5894 19.448C14.1989 19.8379 13.5657 19.8382 13.1753 19.448L10.0959 16.3685C9.70561 15.9781 9.70555 15.345 10.0959 14.9545C10.4863 14.5642 11.1194 14.5642 11.5099 14.9545L13.881 17.3256L19.3328 11.8764Z" fill="black"/>
</svg>
