<svg width="32" height="32" viewBox="0 0 32 32" fill="none" xmlns="http://www.w3.org/2000/svg">
<path d="M3.33203 22.7032V14.6576C3.33207 13.2144 3.9822 11.8478 5.10026 10.9363L12.2474 5.11466L12.5859 4.86206C14.325 3.68279 16.6551 3.76719 18.3099 5.11466L21.7109 7.88419V6.21883C21.7109 5.66672 22.1589 5.21912 22.7109 5.21883C23.2632 5.21883 23.7109 5.66655 23.7109 6.21883V9.5144L25.4557 10.9363C25.8838 11.285 25.9487 11.9143 25.6003 12.3425C25.2515 12.7707 24.6209 12.8359 24.1927 12.4871L17.0469 6.66544C16.0174 5.82715 14.5387 5.82595 13.5091 6.66414L6.36328 12.4871C5.71105 13.019 5.33207 13.8161 5.33203 14.6576V22.7032C5.33234 24.5031 6.79125 25.9621 8.59115 25.9623H12.3997C12.9519 25.9625 13.3997 26.4101 13.3997 26.9623C13.3997 27.5144 12.9518 27.9622 12.3997 27.9623H8.59115C5.68667 27.9621 3.33234 25.6077 3.33203 22.7032Z" fill="black"/>
<path fill-rule="evenodd" clip-rule="evenodd" d="M20.5341 20.2084H20.227C20.277 20.2161 20.3283 20.2201 20.3805 20.2201C20.4328 20.2201 20.484 20.2161 20.5341 20.2084Z" fill="black"/>
<path fill-rule="evenodd" clip-rule="evenodd" d="M18.8289 25.0365H19.3805V25.0587C19.3805 25.611 19.8282 26.0587 20.3805 26.0587C20.9328 26.0587 21.3805 25.611 21.3805 25.0587V25.0149C22.4528 24.8642 23.2781 23.9433 23.2781 22.8295C23.2779 21.6108 22.2897 20.6228 21.071 20.6225H19.6908C19.5765 20.6224 19.4838 20.5299 19.4838 20.4154C19.4839 20.301 19.5765 20.2085 19.6908 20.2084H20.227H20.5341H21.933C22.4852 20.2083 22.933 19.7607 22.933 19.2084C22.933 18.6562 22.4852 18.2085 21.933 18.2084L21.3805 18.198C21.3805 17.6457 20.9328 17.198 20.3805 17.198C19.8282 17.198 19.3805 17.6457 19.3805 18.198V18.2301C18.3085 18.3809 17.4839 19.3018 17.4838 20.4154C17.4838 21.6344 18.4718 22.6224 19.6908 22.6225H21.071C21.1852 22.6228 21.2779 22.7154 21.2781 22.8295C21.2781 22.9438 21.1853 23.0362 21.071 23.0365L20.3805 23.0457L18.8289 23.0365C18.2767 23.0365 17.8291 23.4845 17.8289 24.0365C17.8289 24.5888 18.2766 25.0365 18.8289 25.0365Z" fill="black"/>
<path d="M25.6676 21.6264C25.6676 18.7065 23.301 16.3389 20.3812 16.3386C17.4611 16.3386 15.0934 18.7063 15.0934 21.6264C15.0937 24.5462 17.4613 26.9128 20.3812 26.9128C23.3009 26.9126 25.6674 24.5461 25.6676 21.6264ZM27.6585 22.0014C27.4631 25.8514 24.2797 28.9126 20.3812 28.9128L20.0062 28.9037C16.2799 28.7151 13.2917 25.7275 13.1025 22.0014L13.0934 21.6264C13.0934 17.6017 16.3565 14.3386 20.3812 14.3386L20.7562 14.3477C24.6063 14.5431 27.6676 17.7277 27.6676 21.6264L27.6585 22.0014Z" fill="black"/>
</svg>
