<svg width="32" height="32" viewBox="0 0 32 32" fill="none" xmlns="http://www.w3.org/2000/svg">
<path d="M24.3392 17.6615C24.339 13.0556 20.6054 9.323 15.9993 9.323C11.3949 9.32331 7.66235 13.0557 7.66211 17.6615C7.66211 22.2665 11.3948 26.0011 15.9993 26.0014C20.6054 26.0014 24.3392 22.2666 24.3392 17.6615ZM26.3392 17.6615C26.3392 23.371 21.7102 28.0014 15.9993 28.0014C10.2899 28.0011 5.66211 23.3707 5.66211 17.6615C5.66235 11.9513 10.2901 7.32331 15.9993 7.323C21.7099 7.323 26.339 11.9511 26.3392 17.6615Z" fill="black"/>
<path d="M18.5673 4.05737C19.1195 4.05751 19.5673 4.50517 19.5673 5.05737C19.5673 5.60957 19.1195 6.05724 18.5673 6.05737H13.4384C12.8861 6.05737 12.4384 5.60966 12.4384 5.05737C12.4384 4.50509 12.8861 4.05737 13.4384 4.05737H18.5673Z" fill="black"/>
<path d="M18.868 13.3296C19.2584 12.9392 19.8915 12.9393 20.282 13.3296C20.6726 13.7202 20.6725 14.3532 20.282 14.7437L16.6974 18.3283C16.3069 18.7189 15.6739 18.7189 15.2833 18.3283C14.8931 17.9378 14.8929 17.3047 15.2833 16.9143L18.868 13.3296Z" fill="black"/>
</svg>
