<svg width="32" height="32" viewBox="0 0 32 32" fill="none" xmlns="http://www.w3.org/2000/svg">
<path d="M12.1599 16.9129C12.7121 16.9129 13.1599 17.3606 13.1599 17.9129C13.1599 18.4652 12.7121 18.9129 12.1599 18.9129H9.81351C9.26122 18.9129 8.81351 18.4652 8.81351 17.9129C8.81351 17.3606 9.26122 16.9129 9.81351 16.9129H12.1599Z" fill="black"/>
<path fill-rule="evenodd" clip-rule="evenodd" d="M15.4226 8.97803C15.4226 8.40216 15.4995 7.84424 15.6434 7.31394H11.5725C10.9369 7.44125 10.3753 7.92158 10.1611 8.53399L8.91506 11.9978C10.3428 12.1858 11.5691 12.2751 13.843 12.2723C14.3952 12.2718 14.8437 12.7188 14.8443 13.271C14.8448 13.8229 14.3976 14.2713 13.8457 14.2723C11.036 14.2758 9.69562 14.1365 7.83127 13.8656L6.81733 15.2619C6.32962 15.9353 6.06704 16.7454 6.06863 17.577L6.0478 24.379C6.04727 24.5483 6.18452 24.6863 6.35379 24.6863H8.94103C9.1098 24.6862 9.24698 24.5492 9.24702 24.3803V23.8452C9.24702 22.5718 10.2795 21.5392 11.553 21.5392H13.6012C14.1532 21.5395 14.6011 21.9871 14.6012 22.5392C14.6012 23.0913 14.1532 23.5389 13.6012 23.5392H11.553C11.3842 23.5392 11.247 23.6763 11.247 23.8452V24.3803C11.247 25.6538 10.2143 26.6862 8.94103 26.6863H6.35379C5.07751 26.6863 4.0438 25.6488 4.0478 24.3725L4.06863 17.5757C4.06731 16.3228 4.46369 15.1006 5.19884 14.0861L5.60001 13.5341C5.37796 13.5017 5.14609 13.4682 4.90294 13.4337C4.35629 13.3561 3.97647 12.8502 4.05398 12.3035C4.13166 11.7569 4.63748 11.377 5.18419 11.4546C5.82656 11.5456 6.38664 11.6288 6.89081 11.7043C6.89646 11.691 6.90197 11.6777 6.90717 11.6642L8.27306 7.87384C8.7345 6.55452 9.92005 5.55656 11.2991 5.32696L11.4632 5.31394H16.5889C17.7371 3.6965 19.6252 2.64106 21.7597 2.64087C25.2598 2.64087 28.0979 5.47806 28.0982 8.97803L28.0904 9.30485C27.9206 12.6535 25.1505 15.3165 21.7597 15.3165L21.4342 15.3087C18.0855 15.139 15.4226 12.3689 15.4226 8.97803ZM17.4225 8.97803C17.4225 11.3735 19.3643 13.3162 21.7597 13.3165C24.1554 13.3165 26.0982 11.3737 26.0982 8.97803C26.0979 6.58261 24.1552 4.64084 21.7597 4.64084C19.3645 4.64115 17.4228 6.5828 17.4225 8.97803Z" fill="black"/>
<path d="M22.9355 5.77843C23.4873 5.7976 23.9194 6.26041 23.9003 6.81229C23.8812 7.36406 23.4183 7.79607 22.8665 7.77713C22.5265 7.7654 22.2128 7.84477 21.9535 7.98416H22.6944C23.2467 7.98416 23.6944 8.43188 23.6944 8.98416C23.6944 9.53645 23.2467 9.98416 22.6944 9.98416H21.9754C22.2304 10.1163 22.5359 10.1909 22.8665 10.1795C23.4182 10.1605 23.881 10.5927 23.9003 11.1443C23.9194 11.6962 23.4873 12.159 22.9355 12.1782C21.6604 12.2222 20.4101 11.6319 19.7259 10.5584C19.5925 10.3471 19.4879 10.1247 19.4122 9.89602C19.065 9.73922 18.8233 9.38991 18.8233 8.98416C18.8233 8.58046 19.0626 8.23263 19.407 8.07469C19.4825 7.84239 19.5879 7.61651 19.7233 7.40213C20.4073 6.32967 21.66 5.73442 22.9355 5.77843Z" fill="black"/>
<path fill-rule="evenodd" clip-rule="evenodd" d="M26.0982 23.1913C26.0981 22.3827 25.8766 21.6257 25.4911 20.9777L19.5295 26.9128C20.1812 27.3045 20.9441 27.5297 21.7597 27.5298C24.1554 27.5298 26.0982 25.587 26.0982 23.1913ZM18.0975 25.5163C17.6701 24.8443 17.4225 24.0467 17.4225 23.1913C17.4228 20.7961 19.3645 18.8545 21.7597 18.8542C22.622 18.8542 23.4256 19.1057 24.101 19.5395L18.0975 25.5163ZM28.0904 23.5182C27.9206 26.8668 25.1505 29.5298 21.7597 29.5298L21.4342 29.522C18.0855 29.3523 15.4226 26.5822 15.4226 23.1913C15.4229 19.6916 18.2599 16.8545 21.7597 16.8542C25.2598 16.8542 28.0979 19.6914 28.0982 23.1913L28.0904 23.5182Z" fill="black"/>
</svg>
