<svg width="32" height="32" viewBox="0 0 32 32" fill="none" xmlns="http://www.w3.org/2000/svg">
<path d="M14.7945 8.31939C15.4136 7.43048 16.7586 7.43067 17.3778 8.31939L17.4989 8.52251L18.2567 10.0368L19.9586 10.2816C21.2362 10.4661 21.7864 12.045 20.8284 12.9652L19.6057 14.1384L19.8948 15.7933L19.9182 16.0342C19.9476 17.1357 18.8356 17.8962 17.8244 17.5446L17.6096 17.4522L16.0862 16.6618L14.564 17.4522C13.433 18.0402 12.051 17.1042 12.2789 15.7933L12.5653 14.1384L11.3453 12.9652C10.3867 12.045 10.9373 10.4661 12.2151 10.2816L13.9156 10.0355L14.6734 8.52251L14.7945 8.31939ZM15.6057 11.1319C15.4021 11.5389 15.0346 11.8312 14.6057 11.947L14.4182 11.9861L13.3687 12.1358L14.1174 12.8558C14.4911 13.2154 14.6668 13.7391 14.5771 14.2543L14.3961 15.2855L15.3583 14.7881C15.8147 14.552 16.3593 14.5508 16.8166 14.7881L17.775 15.2855L17.5966 14.2543L17.5744 14.0603C17.5528 13.6103 17.7278 13.1717 18.0549 12.8571L18.8036 12.1358L17.7541 11.9861C17.2448 11.9127 16.8 11.5949 16.5679 11.1306L16.0862 10.1696L15.6057 11.1319Z" fill="black"/>
<path d="M19.8321 21.3191L21.2428 25.81L16.778 24.2527L16.6426 24.2124C16.3705 24.1426 16.0851 24.1424 15.8132 24.2124L15.679 24.2527L11.2233 25.8087L12.5985 21.4321C13.6719 21.8825 14.8502 22.1313 16.0859 22.1314C17.4217 22.1314 18.6904 21.8407 19.8321 21.3191ZM21.5949 20.2554C23.7369 18.6037 25.1185 16.0123 25.1185 13.0989C25.1182 8.1108 21.068 4.06763 16.0859 4.06763C11.1041 4.06795 7.05496 8.11098 7.05469 13.0989C7.05469 16.1187 8.53879 18.7926 10.8155 20.4326L9.11523 25.8439C8.70425 27.1519 9.96026 28.3687 11.2546 27.9168L16.2285 26.1798L21.2116 27.9181C22.5057 28.3694 23.7616 27.1529 23.3509 25.8452L21.5949 20.2554ZM16.0859 6.06763C19.9643 6.06763 23.1182 9.21621 23.1185 13.0989C23.1185 16.9818 19.9645 20.1314 16.0859 20.1314C12.2076 20.1311 9.05469 16.9816 9.05469 13.0989C9.05496 9.21642 12.2078 6.06795 16.0859 6.06763Z" fill="black"/>
</svg>
