<svg width="32" height="32" viewBox="0 0 32 32" fill="none" xmlns="http://www.w3.org/2000/svg">
<path fill-rule="evenodd" clip-rule="evenodd" d="M25.1982 20.7005C25.279 20.6197 25.3605 20.5383 25.4426 20.4563L25.1982 20.7005ZM15.7431 22.0465C15.7581 22.047 15.7731 22.0475 15.7882 22.048C15.8706 22.0509 15.9563 22.0541 16.0435 22.0575C16.0913 22.0593 16.1397 22.0611 16.1887 22.0629M15.7431 22.0465C15.7581 22.047 15.7731 22.0475 15.7882 22.048C15.8706 22.0509 15.9563 22.0541 16.0435 22.0575M14.3593 22.0904C14.5202 22.0671 14.6847 22.0527 14.8549 22.0448H14.2134C13.7291 22.0448 13.3185 21.7014 13.2265 21.244C13.2184 21.204 13.2194 21.1618 13.2163 21.1202C13.2171 21.1612 13.2205 21.2025 13.2265 21.244C13.3056 21.7906 13.8127 22.1696 14.3593 22.0904ZM14.8066 20.0448C15.1348 20.0309 15.4524 20.0356 15.7512 20.0448H14.8066Z" fill="black"/>
<path d="M22.0133 8.1123C22.2659 8.11416 22.5128 8.1895 22.7229 8.33105C22.9335 8.47298 23.0976 8.67407 23.1943 8.90917C23.2913 9.14535 23.3159 9.40424 23.2659 9.65266C23.2156 9.90201 23.0922 10.1299 22.913 10.3089C22.733 10.488 22.5026 10.6125 22.2528 10.6618C22.0034 10.7109 21.7443 10.6852 21.5094 10.5876C21.2741 10.4899 21.0739 10.3244 20.9325 10.1123C20.8268 9.9536 20.7584 9.77404 20.7307 9.58756L20.7164 9.39876C20.7162 9.23072 20.7487 9.06385 20.8127 8.90787L20.8674 8.79199C20.9277 8.67886 21.0043 8.57552 21.094 8.486L21.189 8.40006C21.2883 8.31907 21.3997 8.25399 21.5172 8.20605L21.637 8.16438C21.7573 8.1287 21.8875 8.11174 22.0133 8.1123Z" fill="black"/>
<path d="M22.5523 4.20605C23.0952 3.87991 23.773 3.82819 24.3648 4.09146C24.7397 4.2575 25.0914 4.46243 25.4195 4.69954C25.9452 5.08129 26.2406 5.69572 26.2307 6.32844L26.2203 6.9248C26.2222 6.93033 26.2256 6.94165 26.2346 6.95735L26.2581 6.9912L26.7789 7.28027C27.355 7.59952 27.7214 8.17844 27.7867 8.81542C27.8273 9.20693 27.8271 9.59923 27.788 9.9886C27.7234 10.6254 27.3574 11.2079 26.7815 11.529L26.2581 11.8167C26.2549 11.8201 26.2477 11.83 26.2372 11.848L26.2203 11.8818L26.2307 12.4782C26.2406 13.1086 25.9497 13.724 25.4247 14.1071C25.0959 14.3456 24.7396 14.5507 24.3687 14.7165C23.7754 14.9799 23.0955 14.9289 22.5523 14.6032L22.0406 14.2959C22.0347 14.2949 22.0236 14.2946 22.0068 14.2946C21.9911 14.2945 21.9682 14.295 21.9638 14.2959L21.4534 14.6019C20.911 14.9282 20.2345 14.9809 19.6422 14.7178C19.2672 14.5518 18.9132 14.348 18.5849 14.1097C18.0591 13.7275 17.7651 13.1142 17.775 12.4808L17.7841 11.8831C17.7818 11.8767 17.7776 11.8653 17.7685 11.8493C17.7586 11.8321 17.7498 11.822 17.7463 11.818L17.2281 11.529C16.6504 11.209 16.283 10.6288 16.2177 9.99381L16.1956 9.69954C16.1803 9.406 16.1883 9.11209 16.2177 8.82063L16.2555 8.58365C16.3768 8.04181 16.7205 7.56248 17.2242 7.28157L17.7476 6.9899C17.7511 6.98588 17.7568 6.97801 17.7646 6.96516C17.7661 6.96251 17.763 6.9678 17.7646 6.96516C17.7738 6.94926 17.7822 6.93025 17.7841 6.9248L17.775 6.33105C17.7653 5.7008 18.0563 5.08649 18.581 4.70344C18.91 4.46477 19.2663 4.25857 19.637 4.09277C20.23 3.82965 20.91 3.88002 21.4534 4.20605L21.9625 4.51334C21.9674 4.51433 21.9794 4.51594 21.9989 4.51594C22.0116 4.51601 22.0313 4.5154 22.0367 4.51464L22.5523 4.20605ZM20.4338 5.9261C20.2017 6.03144 19.9809 6.1599 19.775 6.30761L19.7854 6.90657C19.7914 7.28911 19.6772 7.62867 19.5276 7.90396C19.518 7.92313 19.5084 7.94926 19.4976 7.96777C19.3537 8.21508 19.1458 8.46417 18.8596 8.65397L18.732 8.73209L18.206 9.02245C18.1804 9.27649 18.1799 9.53215 18.206 9.78417L18.732 10.0771C19.0851 10.2728 19.3296 10.5567 19.4937 10.8376L19.5055 10.8558C19.6663 11.137 19.7917 11.4938 19.7854 11.9001L19.775 12.5003C19.9827 12.6497 20.2036 12.7767 20.4351 12.8805L20.9495 12.5732C21.2931 12.3682 21.6662 12.2935 22.0002 12.2946C22.3285 12.2946 22.7061 12.3645 23.0536 12.5719L23.5706 12.8818C23.8023 12.7768 24.0233 12.6493 24.2294 12.5016L24.2203 11.9027C24.2148 11.5422 24.3153 11.2184 24.4534 10.9508C24.4693 10.9137 24.4877 10.8777 24.5081 10.8428C24.6734 10.5585 24.9203 10.2733 25.2724 10.0771L25.7984 9.78547C25.8238 9.53018 25.8233 9.27561 25.7971 9.02245L25.275 8.73209C24.9178 8.53423 24.6695 8.24631 24.5055 7.96256C24.495 7.94439 24.4848 7.92536 24.4755 7.90657C24.3278 7.63293 24.2144 7.28946 24.2203 6.90917L24.2294 6.30761C24.0202 6.15821 23.7999 6.03081 23.5693 5.9274L23.0549 6.236C22.7093 6.44361 22.3371 6.51566 22.0042 6.51464C21.6759 6.51464 21.2987 6.44528 20.9508 6.2373L20.4338 5.9261Z" fill="black"/>
<path d="M25.4426 20.4563L25.1982 20.7005C23.3584 22.5403 21.8445 24.054 19.5767 24.9316C16.2805 26.2068 13.2195 25.608 9.52333 24.8821C8.00403 24.5822 6.61337 24.5683 5.18218 24.5683C4.6299 24.5683 4.18218 25.016 4.18218 25.5683C4.18219 26.1205 4.6299 26.5683 5.18218 26.5683C6.61357 26.5683 7.82891 26.5862 9.13661 26.8443L10.4921 27.1086C13.6599 27.7081 16.8702 28.1224 20.2981 26.7961C22.9719 25.7615 24.7627 23.9677 26.5399 22.1874C26.645 22.082 26.7501 21.9767 26.8554 21.8717L27.0806 21.623C28.1327 20.3357 28.0586 18.4348 26.8567 17.2349C25.7027 16.0813 23.8749 15.9533 22.5702 16.9302C22.1919 17.2139 21.8089 17.5267 21.4397 17.8282C21.3557 17.8968 21.2724 17.9648 21.19 18.0318C20.7351 18.4016 20.2938 18.7509 19.8449 19.0579C19.792 19.0941 19.7392 19.1295 19.6866 19.1641C19.712 18.9943 19.7252 18.819 19.7252 18.6386C19.7251 17.0799 18.7191 15.8409 17.3267 15.3756L17.0429 15.2922C15.3961 14.8816 13.672 14.5388 11.8436 14.5813C9.13776 14.6473 7.1354 16.0121 5.30064 17.2626C5.07407 17.417 4.84997 17.5697 4.6275 17.718C4.16799 18.0243 4.04386 18.6452 4.35015 19.1047C4.65647 19.5642 5.27733 19.6884 5.73687 19.3821C5.9714 19.2258 6.19897 19.0719 6.42116 18.9218C8.31027 17.6449 9.81034 16.6309 11.8918 16.58L12.4739 16.5813C13.8282 16.6182 15.1622 16.8854 16.5585 17.2336L16.6913 17.2714C17.3401 17.4854 17.7251 18.017 17.7252 18.6386C17.7252 19.4164 17.1086 20.0448 16.1822 20.0448H15.7512C15.4524 20.0356 15.1348 20.0309 14.8066 20.0448H14.2134C13.6611 20.0448 13.2134 20.4925 13.2134 21.0448C13.2134 21.0702 13.2144 21.0953 13.2163 21.1202C13.2171 21.1612 13.2205 21.2025 13.2265 21.244C13.3056 21.7906 13.8127 22.1696 14.3593 22.0904C14.5202 22.0671 14.6847 22.0527 14.8549 22.0448L15.69 22.0448L15.7882 22.048C15.8706 22.0509 15.9563 22.0541 16.0435 22.0575L16.1887 22.0629C16.5319 22.0757 16.8989 22.0869 17.2564 22.0787C18.7031 22.044 19.9355 21.419 20.9739 20.7089C21.4957 20.352 21.9914 19.9582 22.4517 19.5839C22.5608 19.4952 22.6673 19.408 22.7719 19.3224C23.1182 19.0388 23.4429 18.773 23.7681 18.5292C24.2777 18.148 24.9931 18.2008 25.4426 18.6503L25.5311 18.748C25.913 19.2157 25.913 19.8909 25.5311 20.3586L25.4426 20.4563Z" fill="black"/>
</svg>
