<?xml version="1.0" encoding="UTF-8"?>
<svg id="Capa_1" xmlns="http://www.w3.org/2000/svg" version="1.1" viewBox="0 0 32 32">
  <!-- Generator: Adobe Illustrator 30.0.0, SVG Export Plug-In . SVG Version: 2.1.1 Build 123)  -->
  <defs>
    <style>
      .st0 {
        fill-rule: evenodd;
      }
    </style>
  </defs>
  <path class="st0" d="M24.79,20.09h-1.78c-.55,0-1,.45-1,1s.45,1,1,1h1.78c.55,0,1-.45,1-1s-.45-1-1-1Z"/>
  <path class="st0" d="M16,20.09h-1.78c-.55,0-1,.45-1,1s.45,1,1,1h1.78c.55,0,1-.45,1-1s-.45-1-1-1Z"/>
  <path class="st0" d="M8.99,13.01h-1.78c-.55,0-1,.45-1,1s.45,1,1,1h1.78c.55,0,1-.45,1-1s-.45-1-1-1Z"/>
  <path class="st0" d="M28.48,18l-.04-.05h.09c.55-.09.93-.6.85-1.14-.08-.55-.58-.93-1.13-.85-.36.05-.71.1-1.07.14l-.97-2.7c-.38-1.08-1.36-1.9-2.5-2.08-.71-.11-1.42-.19-2.13-.25-.04-.05-.07-.1-.11-.16l-.04-.05h.09c.55-.09.93-.6.85-1.14-.08-.55-.58-.93-1.13-.85-.36.05-.71.1-1.07.14l-.97-2.7c-.38-1.08-1.36-1.9-2.5-2.08-2.78-.44-5.62-.44-8.41,0-1.13.19-2.1,1-2.48,2.08l-.97,2.7c-.37-.05-.74-.09-1.11-.15-.55-.08-1.05.3-1.13.85-.08.55.3,1.05.85,1.13l.13.02-.07.1c-.59.81-.9,1.78-.9,2.79l-.02,5.15c0,1.1.89,2,1.99,2h1.96c1.1,0,1.99-.89,1.99-1.99v-.39h1.69c-.4.71-.61,1.5-.6,2.32l-.02,5.15c0,1.1.89,2,1.99,2h1.96c1.1,0,1.99-.89,1.99-1.99v-.39h7.91v.39c0,1.1.89,1.99,1.99,1.99h1.97c1.1,0,1.99-.89,1.99-1.99v-5.17c0-1.01-.33-2.01-.93-2.83ZM20.3,13c.69.02,1.38.07,2.06.15.35.04.69.09,1.04.14.41.07.79.39.93.79l.81,2.24c-.91.08-1.82.15-2.73.19-.67.03-1.33.05-2,.06-2.17.03-4.34-.05-6.5-.25l.81-2.26c.08-.22.23-.42.42-.56.15-.11.32-.18.5-.21.79-.12,1.57-.21,2.37-.26.77-.05,1.54-.06,2.3-.03ZM7.7,6.99c.14-.39.51-.71.92-.78,2.57-.41,5.2-.41,7.77,0,.41.07.79.39.93.79l.81,2.24c-3.74.34-7.5.34-11.23,0l.81-2.25ZM10.75,15.96c-.45-.06-.86.18-1.04.56h-1.17c-1.1,0-1.99.89-1.99,1.99v.4h-1.94l.02-5.15c0-.58.18-1.14.52-1.61l.72-1c2.97.31,5.96.41,8.94.3-.91.32-1.65,1.04-1.97,1.95l-.97,2.7c-.37-.05-.74-.09-1.11-.15ZM27.41,25.99h-1.95v-.4c0-1.1-.89-1.99-1.99-1.99h-7.93c-1.1,0-1.99.89-1.99,1.99v.4h-1.94l.02-5.15c0-.58.18-1.14.52-1.61l.72-1c1.86.19,3.72.3,5.58.33.65.01,1.3.01,1.95,0,.67,0,1.33-.03,2-.06,1.26-.06,2.51-.15,3.76-.28l.72.96c.3.41.48.9.52,1.41v.22s0,5.16,0,5.16Z"/>
</svg>