<svg width="32" height="32" viewBox="0 0 32 32" fill="none" xmlns="http://www.w3.org/2000/svg">
<path fill-rule="evenodd" clip-rule="evenodd" d="M22.0281 7.9589L22.8966 8.53124L22.9047 8.51887L22.0281 7.9589Z" fill="black"/>
<path fill-rule="evenodd" clip-rule="evenodd" d="M20.9163 9.62146L23.466 11.3018L23.4899 11.2655L20.9163 9.62146Z" fill="black"/>
<path d="M18.0798 5.01696L17.8851 5.3124L16.6846 4.5455C16.0952 4.16908 15.4099 3.96874 14.7106 3.96868H8.80046C6.77541 3.96868 5.13379 5.6103 5.13379 7.63534V24.3645C5.13379 26.3896 6.77541 28.0312 8.80046 28.0312H23.1494C25.1745 28.0312 26.8161 26.3896 26.8161 24.3645V13.026C26.8161 11.7745 26.1781 10.6098 25.1234 9.93613L24.5904 9.59564L24.7227 9.39477C25.5332 8.16503 25.1932 6.51116 23.9635 5.70075L21.7738 4.25772C20.5441 3.4473 18.8902 3.78722 18.0798 5.01696ZM20.9163 9.62146L23.4899 11.2655L24.0465 11.621C24.526 11.9272 24.8161 12.4571 24.8161 13.026V24.3645C24.8161 25.285 24.0699 26.0312 23.1494 26.0312H8.80046C7.87998 26.0312 7.13379 25.285 7.13379 24.3645V7.63534C7.13379 6.71487 7.87998 5.96868 8.80046 5.96868H14.7106C15.0284 5.96874 15.3399 6.05933 15.6077 6.2304L20.9163 9.62146ZM22.8966 8.53124L22.0281 7.9589L19.5936 6.35451L19.7498 6.1175C19.9524 5.81007 20.3659 5.72508 20.6733 5.92769L22.863 7.37072C23.1704 7.57332 23.2554 7.98679 23.0528 8.29422L22.9047 8.51887L22.8966 8.53124Z" fill="black"/>
<path d="M17.3268 18.1865C18.0733 17.4401 18.0733 16.2298 17.3268 15.4833L15.9752 14.1317L14.6236 15.4833C13.8771 16.2298 13.8771 17.4401 14.6236 18.1865C15.3701 18.933 16.5804 18.933 17.3268 18.1865ZM18.741 19.6007C17.2135 21.1283 14.7369 21.1283 13.2094 19.6007C11.6819 18.0732 11.6819 15.5966 13.2094 14.0691L14.8685 12.41C15.4414 11.8371 16.3486 11.8008 16.9631 12.3023L17.0819 12.41L18.741 14.0691C20.2686 15.5966 20.2686 18.0732 18.741 19.6007Z" fill="black"/>
</svg>
