<svg width="32" height="32" viewBox="0 0 32 32" fill="none" xmlns="http://www.w3.org/2000/svg">
<path fill-rule="evenodd" clip-rule="evenodd" d="M27.994 16.6152C27.6747 22.9134 22.4666 27.9223 16.089 27.9224L15.4757 27.9068C9.38043 27.5981 4.49311 22.7104 4.18408 16.6152L4.16846 16.0019C4.16846 9.41846 9.50561 4.0813 16.089 4.0813L16.7023 4.09692C23.0006 4.41624 28.0096 9.62423 28.0096 16.0019L27.994 16.6152ZM24.0982 21.8567L20.1783 17.9368L22.1784 15.6543C22.9867 14.7315 22.3306 13.2858 21.1042 13.2858H18.4909L19.7708 10.2819C19.779 10.2627 19.7873 10.243 19.7943 10.2233C20.122 9.29483 19.4327 8.32094 18.4479 8.32094H14.7617C14.1751 8.32109 13.6511 8.67906 13.4362 9.22199L12.8627 10.6212L10.2379 7.99636C11.8788 6.79494 13.8995 6.0813 16.089 6.0813C21.5678 6.08143 26.0096 10.5231 26.0096 16.0019C26.0096 18.1916 25.3 20.2157 24.0982 21.8567ZM22.7587 23.3456C20.9969 24.9466 18.6569 25.9224 16.089 25.9224C10.6103 25.9224 6.16859 21.4806 6.16846 16.0019C6.16846 13.4317 7.14589 11.0898 8.7493 9.32758C8.77227 9.35627 8.79705 9.38399 8.82364 9.41058L12.0405 12.6274L10.6862 15.9316L10.6719 15.9668C10.3307 16.8981 11.0204 17.8844 12.0117 17.8847H14.1836L13.1159 21.8887C12.7272 23.3471 14.574 24.3328 15.569 23.1972L18.8574 19.4443L22.7587 23.3456ZM15.1471 10.3209H17.5807L16.3008 13.3249L16.2786 13.3834C16.2106 13.5759 16.1862 13.7704 16.1991 13.9577C16.2464 14.6431 16.7928 15.2329 17.5239 15.2824C17.5568 15.2847 17.5901 15.2858 17.6237 15.2858H19.8411L15.681 20.0345L16.3086 17.6803C16.3827 17.4023 16.3698 17.1258 16.2892 16.8761C16.1499 16.4447 15.8086 16.0932 15.3649 15.9518C15.2285 15.9084 15.0825 15.8847 14.9297 15.8847H12.8659L15.1471 10.3209Z" fill="black"/>
</svg>
