<svg width="32" height="32" viewBox="0 0 32 32" fill="none" xmlns="http://www.w3.org/2000/svg">
<path fill-rule="evenodd" clip-rule="evenodd" d="M24.1508 22.9476C24.1493 22.9522 24.1478 22.9568 24.1465 22.9615L24.1508 22.9476Z" fill="black"/>
<path fill-rule="evenodd" clip-rule="evenodd" d="M21.4103 22.4368C21.4055 22.4837 21.403 22.5311 21.403 22.5787C21.4028 22.6112 21.4036 22.6442 21.4055 22.6774C21.4119 22.6315 21.4153 22.5847 21.4153 22.537C21.4153 22.5032 21.4136 22.4697 21.4103 22.4368Z" fill="black"/>
<path d="M17.5094 17.0474C18.0616 17.0476 18.5094 17.4953 18.5094 18.0474C18.5094 18.5996 18.0616 19.0473 17.5094 19.0474H16.1943C15.642 19.0474 15.1943 18.5997 15.1943 18.0474C15.1943 17.4952 15.642 17.0474 16.1943 17.0474H17.5094Z" fill="black"/>
<path fill-rule="evenodd" clip-rule="evenodd" d="M26.7933 21.412C26.6024 21.6029 26.3697 21.7426 26.117 21.8219C25.9754 21.2046 25.6622 20.6344 25.2064 20.1803C24.5687 19.545 23.7047 19.1882 22.804 19.1881C21.9036 19.1881 21.0384 19.5447 20.4004 20.1803C20.0155 20.5637 19.7319 21.0297 19.5675 21.537H12.9874C12.8433 21.11 12.6188 20.7126 12.3232 20.3691L12.1006 20.1334L11.8558 19.9185C11.2645 19.4489 10.5323 19.1881 9.77115 19.1881C9.00998 19.1881 8.27781 19.4487 7.68652 19.9185L7.44303 20.1334C6.93903 20.6186 6.59592 21.244 6.44867 21.9224H6.40429C5.96534 21.9224 5.54452 21.7476 5.23372 21.4368C4.92292 21.126 4.74804 20.7051 4.74804 20.2662V16.5266H25.6227C26.0627 16.5267 26.4835 16.7012 26.7933 17.011C27.1035 17.3214 27.279 17.7435 27.279 18.1829V20.2415C27.2789 20.6803 27.104 21.1013 26.7933 21.412ZM25.9411 23.8838C26.7941 23.809 27.5974 23.436 28.2074 22.8261C28.8927 22.1408 29.2789 21.2114 29.279 20.2415V18.1829C29.279 17.2135 28.893 16.2827 28.2074 15.5969C27.5211 14.9107 26.5912 14.5267 25.6227 14.5266H24.8136L22.3968 9.96021C22.3243 9.82687 22.24 9.70103 22.1452 9.58406V8.16854C22.1388 7.59752 21.9083 7.05291 21.5059 6.65031C21.1534 6.29787 20.6921 6.07779 20.1999 6.02401L19.9876 6.01099H6.38997C5.42028 6.01099 4.48969 6.39694 3.80403 7.0826C3.1183 7.76849 2.73372 8.69808 2.73372 9.66724L2.72168 15.5224C2.72168 15.6012 2.73079 15.6821 2.74804 15.7557V20.2662C2.74804 21.2361 3.1342 22.1654 3.81965 22.8508C4.50511 23.5363 5.43432 23.9224 6.40429 23.9224H6.67291C6.89956 24.4472 7.25117 24.9119 7.70344 25.2688C8.29417 25.735 9.02103 25.9888 9.77115 25.9889C10.5212 25.9889 11.2481 25.7349 11.8389 25.2688C12.3992 24.8266 12.8061 24.2192 13.0113 23.537H19.5303C19.7338 24.2364 20.1584 24.8519 20.7389 25.2922L20.9668 25.4511C21.5122 25.7983 22.1469 25.9823 22.7962 25.9823C23.5381 25.9823 24.262 25.7416 24.8548 25.2922L25.0684 25.1152C25.4482 24.7749 25.7474 24.3544 25.9411 23.8838ZM11.1657 22.5266C11.1294 22.1566 10.9675 21.8177 10.7139 21.5735C10.4521 21.3215 10.1144 21.1881 9.77115 21.1881C9.42803 21.1881 9.09144 21.3229 8.82975 21.5748C8.57767 21.8176 8.41412 22.1527 8.37662 22.5201C8.37868 22.5796 8.38146 22.6393 8.38964 22.6985L8.43391 22.912C8.519 23.2313 8.70055 23.5071 8.94303 23.6985C9.18452 23.889 9.47542 23.9888 9.77115 23.9889C10.0671 23.9889 10.359 23.8892 10.6006 23.6985C10.843 23.5071 11.0246 23.2312 11.1097 22.912C11.1434 22.7859 11.1607 22.6562 11.1657 22.5266ZM5.21809 8.49666C4.90796 8.80696 4.73372 9.22778 4.73372 9.66724V14.5266H14.9137V12.6985H11.6379C11.0856 12.6985 10.6379 12.2508 10.6379 11.6985C10.6379 11.1462 11.0856 10.6985 11.6379 10.6985H14.9137V10.6099C14.9138 10.3539 14.9651 10.1021 15.0622 9.86776L15.1429 9.69458C15.2325 9.52678 15.3471 9.37195 15.4827 9.23625L15.6234 9.10864C15.7702 8.98798 15.935 8.8881 16.113 8.81437C16.3507 8.71581 16.6037 8.66726 16.8564 8.66724H20.1452V8.19067L20.1309 8.12297C20.1219 8.10155 20.1088 8.08148 20.0918 8.06437C20.0748 8.04739 20.0546 8.03434 20.0332 8.02531L19.9655 8.01099H6.38997C5.95074 8.01099 5.5287 8.18606 5.21809 8.49666ZM20.6403 10.9159L22.5512 14.5266H16.9137V10.6672H20.2119C20.2992 10.6653 20.3853 10.6874 20.4606 10.731C20.4987 10.7531 20.5332 10.7805 20.5635 10.8118L20.6403 10.9159ZM21.4055 22.6774C21.4109 22.7729 21.425 22.8698 21.4473 22.9615L21.5254 23.175C21.6204 23.3795 21.7646 23.5599 21.9473 23.6985L22.1387 23.8209C22.3394 23.9269 22.565 23.9823 22.7962 23.9823C23.1046 23.9823 23.4034 23.8827 23.6465 23.6985L23.8158 23.5461C23.9718 23.3815 24.0857 23.1806 24.1465 22.9615L24.1508 22.9476L24.1556 22.9329C24.1706 22.8847 24.1821 22.8354 24.1901 22.7855C24.1928 22.769 24.1951 22.7523 24.197 22.7356C24.2023 22.6893 24.2045 22.6425 24.2038 22.5956V22.5787C24.2038 22.2573 24.0914 21.9462 23.8874 21.6985L23.7949 21.5969C23.5325 21.3356 23.1763 21.1882 22.804 21.1881C22.478 21.1881 22.1638 21.3012 21.9147 21.5045L21.8118 21.5969C21.5835 21.8244 21.4429 22.1215 21.4103 22.4368C21.4055 22.4837 21.403 22.5311 21.403 22.5787C21.4028 22.6112 21.4036 22.6442 21.4055 22.6774Z" fill="black"/>
</svg>
