<svg width="32" height="32" viewBox="0 0 32 32" fill="none" xmlns="http://www.w3.org/2000/svg">
<path d="M7.37174 4.10816C8.73466 3.98544 10.1065 3.98542 11.4694 4.10816C13.1513 4.17553 14.5295 5.46718 14.7025 7.14592C14.8888 8.65987 14.8896 10.1891 14.7051 11.7032C14.5343 13.3868 13.1542 14.6837 11.4694 14.7566C10.1054 14.882 8.73317 14.8833 7.36914 14.7579C5.6855 14.6839 4.30576 13.387 4.13476 11.7045C3.95083 10.1956 3.95164 8.67044 4.13606 7.16155C4.31532 5.48334 5.69055 4.18924 7.37174 4.10816ZM11.2897 6.10035C10.0463 5.98839 8.79483 5.9884 7.55143 6.10035C7.53211 6.10209 7.51222 6.10234 7.49283 6.10295C6.7846 6.12518 6.19986 6.6678 6.12435 7.37379L6.12174 7.38941C5.95447 8.74836 5.95451 10.1216 6.12174 11.4806C6.12261 11.4876 6.12363 11.4956 6.12435 11.5027C6.19151 12.1618 6.70861 12.6768 7.35481 12.7527L7.48502 12.7631L7.55273 12.767C8.79512 12.8812 10.046 12.8812 11.2884 12.767L11.3548 12.7631C12.061 12.746 12.6453 12.2056 12.7168 11.5027L12.7181 11.4806C12.8853 10.1216 12.8854 8.7484 12.7181 7.38941C12.717 7.3804 12.7163 7.37111 12.7155 7.36207C12.6486 6.65886 12.0659 6.11741 11.36 6.10295C11.3552 6.10286 11.3503 6.10296 11.3454 6.10287C11.3269 6.10256 11.308 6.10199 11.2897 6.10035Z" fill="black"/>
<path d="M7.36913 17.2787C8.73265 17.1534 10.1041 17.1508 11.4681 17.2722C13.151 17.339 14.5293 18.633 14.7025 20.3113C14.8897 21.8315 14.8911 23.3705 14.7038 24.8907C14.5271 26.5679 13.1469 27.8552 11.4681 27.9285C10.1052 28.0512 8.73466 28.0525 7.37174 27.9298C5.68341 27.8557 4.30252 26.5535 4.13476 24.8673C3.95041 23.3537 3.95107 21.8234 4.13736 20.31C4.32509 18.6404 5.69727 17.3606 7.36913 17.2787ZM11.291 19.2644C10.0461 19.1536 8.79572 19.1554 7.55273 19.2696C7.53283 19.2715 7.51281 19.2716 7.49283 19.2722C6.78405 19.2945 6.20062 19.8356 6.12434 20.5392L6.12174 20.5548C5.97538 21.7439 5.95726 22.9437 6.06705 24.1355L6.12174 24.6459L6.12434 24.6694C6.19012 25.3304 6.70744 25.8475 7.35481 25.9246L7.48632 25.935L7.55143 25.9389C8.79476 26.0508 10.0464 26.0508 11.2897 25.9389L11.3548 25.935C12.0623 25.917 12.6461 25.3737 12.7155 24.6707L12.7181 24.6459C12.8854 23.2881 12.8854 21.9139 12.7181 20.5561C12.717 20.547 12.7164 20.5378 12.7155 20.5287C12.6486 19.8247 12.0653 19.2828 11.36 19.2683C11.3371 19.2679 11.3138 19.2664 11.291 19.2644Z" fill="black"/>
<path d="M20.5289 17.2787C21.8925 17.1534 23.2637 17.1508 24.6278 17.2722C26.3098 17.3391 27.6868 18.6321 27.8596 20.31C28.0482 21.8307 28.0508 23.37 27.8622 24.8907C27.6857 26.5672 26.3071 27.8551 24.6278 27.9285C23.265 28.0512 21.8943 28.0525 20.5315 27.9298C18.8457 27.8547 17.4606 26.555 17.2945 24.866C17.1098 23.3579 17.1115 21.8336 17.2971 20.3256C17.4768 18.6477 18.8521 17.3607 20.5289 17.2787ZM24.4508 19.2644C23.2059 19.1536 21.9554 19.1554 20.7125 19.2696C20.6926 19.2714 20.6725 19.2716 20.6526 19.2722C19.9434 19.2945 19.3592 19.8363 19.2841 20.5392L19.2828 20.5561C19.1356 21.7444 19.1177 22.9432 19.2281 24.1342L19.2828 24.6446L19.2854 24.6707C19.3505 25.3298 19.8675 25.8472 20.5159 25.9246L20.6474 25.935L20.7099 25.9389C21.9535 26.0509 23.2058 26.0509 24.4495 25.9389L24.5133 25.935C25.2203 25.9171 25.8044 25.3745 25.8739 24.6707L25.8765 24.6446C26.0449 23.2876 26.0448 21.9144 25.8765 20.5574C25.8753 20.5476 25.8749 20.5372 25.8739 20.5274C25.8078 19.8241 25.2241 19.2825 24.5185 19.2683C24.4959 19.2679 24.4733 19.2664 24.4508 19.2644Z" fill="black"/>
<path d="M20.5315 4.10816C21.8943 3.98546 23.2663 3.98543 24.6291 4.10816C26.3089 4.1757 27.687 5.46754 27.8596 7.14462C28.0482 8.66654 28.0508 10.2047 27.8622 11.7267C27.683 13.4002 26.3062 14.6838 24.6291 14.7566C23.265 14.882 21.893 14.8833 20.5289 14.7579C18.8526 14.6843 17.4789 13.3982 17.2997 11.7254C17.1111 10.2034 17.1098 8.66654 17.2984 7.14462C17.484 5.47407 18.8563 4.18881 20.5315 4.10816ZM24.4495 6.10035C23.2058 5.98835 21.9535 5.98835 20.7099 6.10035C20.6908 6.10206 20.6717 6.10234 20.6526 6.10296C19.9443 6.12518 19.3602 6.66765 19.2854 7.37249L19.2828 7.39072C19.1355 8.57948 19.1176 9.77875 19.2281 10.9701L19.2828 11.4806L19.2854 11.5027C19.3516 12.1612 19.8679 12.6769 20.5146 12.7527L20.6448 12.7631L20.7125 12.767C21.9548 12.8812 23.2059 12.8812 24.4481 12.767L24.5146 12.7631C25.221 12.746 25.8033 12.2049 25.8739 11.5027C25.8747 11.4953 25.8756 11.4879 25.8765 11.4806C26.0449 10.122 26.0449 8.74926 25.8765 7.39072C25.8754 7.3812 25.8748 7.37161 25.8739 7.36207C25.8079 6.66055 25.2235 6.11717 24.5185 6.10296C24.4954 6.10248 24.4724 6.10241 24.4495 6.10035Z" fill="black"/>
</svg>
