<?xml version="1.0" encoding="UTF-8"?>
<svg id="Capa_1" xmlns="http://www.w3.org/2000/svg" version="1.1" viewBox="0 0 32 32">
  <!-- Generator: Adobe Illustrator 30.0.0, SVG Export Plug-In . SVG Version: 2.1.1 Build 123)  -->
  <defs>
    <style>
      .st0 {
        fill-rule: evenodd;
      }
    </style>
  </defs>
  <path class="st0" d="M16,4.02c-6.62,0-11.99,5.37-11.99,11.99s5.37,11.99,11.99,11.99,11.99-5.37,11.99-11.99-5.37-11.99-11.99-11.99ZM16,6.02c2.48,0,4.75.91,6.5,2.4l-2.03,1.88c-1.23-.97-2.79-1.55-4.47-1.55s-3.09.52-4.29,1.4h0s-1.87-2.02-1.87-2.02c1.7-1.33,3.84-2.13,6.16-2.13ZM21.25,16.01c0,2.9-2.35,5.25-5.25,5.25s-5.25-2.35-5.25-5.25,2.35-5.25,5.25-5.25,5.25,2.35,5.25,5.25ZM6.01,16.01c0-2.47.9-4.73,2.38-6.48l1.84,1.98s.03.03.04.04c-.96,1.23-1.53,2.77-1.53,4.45s.53,3.13,1.43,4.34l-2.01,1.87c-1.35-1.7-2.16-3.86-2.16-6.21ZM16,25.99c-2.45,0-4.7-.88-6.43-2.35l1.98-1.84s.03-.03.05-.05c1.22.94,2.75,1.49,4.41,1.49s3.1-.53,4.31-1.42l1.87,2.02c-1.7,1.34-3.85,2.14-6.18,2.14ZM23.62,22.46l-1.88-2.03c.95-1.22,1.51-2.76,1.51-4.43s-.51-3.07-1.38-4.26l2.02-1.88c1.32,1.69,2.11,3.82,2.11,6.14,0,2.46-.89,4.72-2.37,6.46Z"/>
</svg>