<svg width="32" height="32" viewBox="0 0 32 32" fill="none" xmlns="http://www.w3.org/2000/svg">
<path fill-rule="evenodd" clip-rule="evenodd" d="M20.5464 7.38658V7.42658C20.6264 7.39991 20.6931 7.38658 20.7731 7.38658H20.5464ZM9.78643 7.38658C9.86643 7.38658 9.9331 7.39991 10.0131 7.42658V7.38658H9.78643Z" fill="black"/>
<path fill-rule="evenodd" clip-rule="evenodd" d="M27.5864 9.19991C26.4798 8.02658 24.9064 7.38658 23.0664 7.38658H21.1598C21.0798 7.38658 21.0131 7.39991 20.9331 7.42658V7.38658C20.8531 5.26658 19.1731 3.57324 17.1198 3.57324H14.2131C12.1598 3.57324 10.4798 5.26658 10.3998 7.38658V7.42658C10.3198 7.39991 10.2531 7.38658 10.1731 7.38658H8.9331C7.0931 7.38658 5.5331 8.02658 4.42643 9.19991C3.31977 10.3466 2.75977 11.9332 2.75977 13.7066V22.1066C2.75977 23.8799 3.31977 25.4666 4.4131 26.6266C5.51977 27.7866 7.0931 28.4266 8.9331 28.4266H23.0664C24.9064 28.4266 26.4798 27.7866 27.5864 26.6266C28.6798 25.4666 29.2398 23.8799 29.2398 22.1066V13.7066C29.2398 11.9332 28.6798 10.3466 27.5864 9.19991ZM9.2131 26.4266H8.9331C7.59977 26.4266 6.58643 25.9732 5.90643 25.2532C5.22643 24.5332 4.79977 23.4666 4.79977 22.1066V13.7066C4.79977 12.3466 5.22643 11.2799 5.90643 10.5599C6.58643 9.83991 7.59977 9.38658 8.9331 9.38658H9.2131V26.4266ZM14.2131 5.57324H17.1198C18.1064 5.57324 18.9331 6.37324 18.9998 7.38658H12.3331C12.3998 6.37324 13.2264 5.57324 14.2131 5.57324ZM20.1998 26.4266H11.1331V9.38658H20.1998V26.4266ZM27.2131 22.1066C27.2131 23.4666 26.7864 24.5332 26.0931 25.2532C25.4131 25.9732 24.3998 26.4266 23.0664 26.4266H22.1198V9.38658H23.0664C24.4131 9.38658 25.4131 9.83991 26.0931 10.5599C26.7864 11.2799 27.2131 12.3466 27.2131 13.7066V22.1066Z" fill="black"/>
</svg>
