<?xml version="1.0" encoding="UTF-8"?>
<svg id="Capa_1" xmlns="http://www.w3.org/2000/svg" version="1.1" viewBox="0 0 32 32">
  <!-- Generator: Adobe Illustrator 30.0.0, SVG Export Plug-In . SVG Version: 2.1.1 Build 123)  -->
  <defs>
    <style>
      .st0 {
        fill-rule: evenodd;
      }
    </style>
  </defs>
  <path class="st0" d="M27.49,19.67l-.15-.31c-.4-.83-.93-1.55-1.55-2.15v-5.21c0-.72-.19-1.41-.55-2.01v-.02s-.02-.03-.03-.04c-.34-.56-.82-1.04-1.41-1.38l-6.94-4.01c-1.23-.71-2.74-.71-3.97,0l-6.94,4.01c-.56.32-1.01.77-1.35,1.29-.03.04-.06.08-.09.13-.02.04-.04.08-.06.12-.31.57-.49,1.23-.49,1.91v8.01c0,1.42.76,2.73,1.99,3.44l6.94,4.01c.54.31,1.14.49,1.75.53.08.02.16.03.24.03s.17-.01.24-.03c.6-.04,1.2-.21,1.74-.52l1.79-1.03c1.18,1.21,2.94,1.89,4.94,1.47,2.04-.34,3.42-1.68,4.05-3.32.59-1.52.54-3.31-.16-4.89ZM13.89,6.28c.61-.35,1.36-.35,1.97,0l6.88,3.97-2.75,1.59-7.86-4.55,1.76-1.02ZM13.88,25.71l-6.93-4c-.61-.35-.99-1-.99-1.71v-8.04s7.91,4.58,7.91,4.58v9.17ZM14.87,14.8l-7.87-4.55,3.12-1.8,7.86,4.55-3.12,1.81ZM17.53,24.75l-1.65.95v-9.17l3.13-1.81v1.63c0,.55.45,1,1,1,.55,0,1-.45,1-1v-2.79l2.78-1.61v.03s0,3.71,0,3.71c-.14-.08-.28-.16-.43-.23-.33-.17-.73-.15-1.04.07-.31.21-.47.58-.42.95.1.77.05,1.82-.2,2.64,0,0,0,.02,0,.02v.02c-.15-.35-.33-.69-.55-1.01-.15-.22-.39-.37-.65-.42-.26-.05-.54.02-.76.17-.26.19-.77.66-.96.85-1.86,1.77-2.08,4.11-1.25,6ZM25.78,23.84c-.41,1.06-1.25,1.86-2.51,2.07h-.05c-1.07.24-2.02-.01-2.74-.54-.55-.41-.96-.98-1.19-1.62-.38-1.07-.23-2.33.69-3.34.04.21.05.43.03.65-.02.28.07.56.26.76.19.21.46.33.74.33.76,0,1.36-.35,1.79-.83.41-.46.67-1.04.84-1.6.07-.22.12-.44.16-.67.05-.27.09-.55.12-.83.69.57,1.25,1.24,1.64,2.05h0s0,.02,0,.02c.06.13.12.26.18.39.42,1.05.42,2.22.05,3.18Z"/>
</svg>