<?xml version="1.0" encoding="UTF-8"?>
<svg id="Capa_1" xmlns="http://www.w3.org/2000/svg" version="1.1" viewBox="0 0 32 32">
  <!-- Generator: Adobe Illustrator 30.0.0, SVG Export Plug-In . SVG Version: 2.1.1 Build 123)  -->
  <defs>
    <style>
      .st0 {
        fill-rule: evenodd;
      }
    </style>
  </defs>
  <path class="st0" d="M11.6,15.92l-1-.06c-3.7-.21-6.79,2.79-6.69,6.5l.03,1.18c.02.55.48.99,1.03.97.55-.02.99-.48.97-1.03l-.03-1.18c-.07-2.54,2.04-4.59,4.58-4.45l1,.06c.55.03,1.02-.39,1.06-.94.03-.55-.39-1.02-.94-1.05Z"/>
  <path class="st0" d="M21.15,16.91c-1.29,0-2.34,1.05-2.34,2.34,0,.93.55,1.74,1.34,2.11v1.47h-.14c-.55,0-1,.45-1,1,0,.55.45,1,1,1h.88c.7,0,1.26-.56,1.26-1.26v-2.21c.79-.37,1.34-1.18,1.34-2.11,0-1.29-1.05-2.34-2.34-2.34ZM21.15,19.58c-.19,0-.34-.15-.34-.34s.15-.34.34-.34c.19,0,.34.15.34.34s-.15.34-.34.34Z"/>
  <path class="st0" d="M20.87,13.78c-3.91,0-7.09,3.17-7.09,7.09,0,3.79,2.98,6.89,6.72,7.08h.36c3.79,0,6.89-2.97,7.08-6.72v-.36c0-3.91-3.17-7.09-7.08-7.09ZM20.87,25.96c-2.81,0-5.09-2.28-5.09-5.09,0-2.81,2.28-5.09,5.09-5.09,2.81,0,5.09,2.28,5.09,5.09,0,2.81-2.28,5.09-5.09,5.09Z"/>
  <path class="st0" d="M5.49,10.16h.59c.31,2.73,2.64,4.85,5.44,4.85,2.8,0,5.13-2.12,5.44-4.85h.59c.55,0,1-.45,1-1s-.45-1-1-1h-.73c-.61-2.36-2.76-4.1-5.3-4.1-2.54,0-4.69,1.74-5.3,4.1h-.73c-.55,0-1,.45-1,1s.45,1,1,1ZM13.83,6.94c.38.34.68.75.88,1.22h-.88v-1.22ZM11.24,6.06c.09,0,.19-.01.29-.01.11,0,.21,0,.31.01v2.09h-.6v-2.09ZM9.24,6.91v1.24h-.91c.21-.48.52-.9.91-1.24ZM14.94,10.16c-.3,1.62-1.72,2.85-3.42,2.85-1.7,0-3.12-1.23-3.42-2.85h6.84Z"/>
</svg>