<?xml version="1.0" encoding="UTF-8"?>
<svg id="Capa_1" xmlns="http://www.w3.org/2000/svg" version="1.1" viewBox="0 0 32 32">
  <!-- Generator: Adobe Illustrator 30.0.0, SVG Export Plug-In . SVG Version: 2.1.1 Build 123)  -->
  <defs>
    <style>
      .st0 {
        fill-rule: evenodd;
      }
    </style>
  </defs>
  <path class="st0" d="M28.75,9.75c-.85-1.02-2.34-1.23-3.43-.51l-.21.15-2.6,2.09c-.12-1.4-.63-2.65-1.53-3.6-1.03-1.09-2.5-1.69-4.2-1.69h-8.38c-1.7,0-3.17.6-4.2,1.69-1.03,1.08-1.55,2.57-1.55,4.23v7.77c0,1.65.52,3.14,1.55,4.23,1.03,1.09,2.49,1.69,4.2,1.69h8.38c1.71,0,3.17-.6,4.2-1.69.89-.94,1.41-2.19,1.53-3.59l2.58,2.08c.46.37,1.04.58,1.64.58,1.42,0,2.59-1.13,2.6-2.56v-9.24c.02-.6-.2-1.18-.58-1.64ZM20.54,13.43c-.01.09-.01.18,0,.27v4.62c-.01.09-.01.18,0,.26v1.31c0,1.23-.39,2.2-1.01,2.85-.61.65-1.53,1.07-2.75,1.07h-8.38c-1.22,0-2.14-.42-2.75-1.07-.62-.65-1-1.62-1-2.85v-7.77c0-1.23.39-2.2,1.01-2.85.61-.65,1.53-1.07,2.75-1.07h8.38c1.22,0,2.14.42,2.75,1.07.62.65,1.01,1.62,1.01,2.85v1.31ZM27.33,20.62c0,.3-.26.57-.6.57-.14,0-.27-.05-.38-.13l-3.81-3.08v-3.94l3.82-3.08c.23-.18.55-.17.76,0l.09.08c.09.1.13.23.13.35l-.02,9.23Z"/>
</svg>