<?xml version="1.0" encoding="UTF-8"?>
<svg id="Capa_1" xmlns="http://www.w3.org/2000/svg" version="1.1" viewBox="0 0 32 32">
  <!-- Generator: Adobe Illustrator 30.0.0, SVG Export Plug-In . SVG Version: 2.1.1 Build 123)  -->
  <defs>
    <style>
      .st0 {
        fill-rule: evenodd;
      }
    </style>
  </defs>
  <path class="st0" d="M13.79,5.52h4.43c.55,0,1-.45,1-1s-.45-1-1-1h-4.43c-.55,0-1,.45-1,1s.45,1,1,1Z"/>
  <path class="st0" d="M17.87,10.55c-.55,0-1,.45-1,1v1.08h-1.91v-1.08c0-.55-.45-1-1-1s-1,.45-1,1v4.3c0,.55.45,1,1,1s1-.45,1-1v-1.22h1.91v1.22c0,.55.45,1,1,1s1-.45,1-1v-4.3c0-.55-.45-1-1-1Z"/>
  <path class="st0" d="M25.53,12.69h-1.18v-2.73c0-1.7-1.37-3.07-3.07-3.07h-10.56c-1.7,0-3.07,1.38-3.07,3.07v2.73h-1.18c-1.38,0-2.49,1.12-2.49,2.49v12.29c0,.55.45,1,1,1h3.55s.08,0,.13,0,.08,0,.13,0h4.64s.07,0,.1,0,.07,0,.1,0h4.77s.07,0,.1,0,.07,0,.1,0h4.64s.08,0,.13,0,.08,0,.13,0h3.55c.55,0,1-.45,1-1v-12.29c0-1.38-1.12-2.49-2.49-2.49ZM7.65,26.47h-1.68v-11.29c0-.27.22-.49.49-.49h1.18v11.78ZM17.49,26.47h-2.97v-4.73c0-.08.07-.15.15-.15h2.67c.08,0,.15.07.15.15v4.73ZM22.35,13.64s0,.04,0,.06,0,.04,0,.06v12.72h-2.87v-4.73c0-1.19-.96-2.15-2.15-2.15h-2.67c-1.19,0-2.15.96-2.15,2.15v4.73h-2.87V9.97c0-.59.48-1.07,1.07-1.07h10.56c.59,0,1.07.48,1.07,1.07v3.67ZM26.03,26.47h-1.67v-11.78h1.18c.27,0,.49.22.49.49v11.29Z"/>
</svg>