<svg width="32" height="32" viewBox="0 0 32 32" fill="none" xmlns="http://www.w3.org/2000/svg">
<path d="M20.2371 20.9075C20.237 20.3062 20.0022 19.622 19.4051 19.0806C18.81 18.541 17.7623 18.0624 16.0002 18.0624C14.2399 18.0624 13.1936 18.5444 12.5978 19.0871C11.9991 19.6327 11.7632 20.3214 11.7632 20.9231C11.763 21.4752 11.3154 21.9231 10.7632 21.9231C10.211 21.9231 9.76333 21.4752 9.76319 20.9231C9.76319 19.8053 10.2026 18.564 11.2502 17.6093C12.301 16.6518 13.8727 16.0624 16.0002 16.0624C18.1252 16.0624 19.6964 16.646 20.7476 17.5989C21.7964 18.5499 22.237 19.7888 22.2371 20.9075C22.2371 21.4596 21.7893 21.9073 21.2371 21.9075C20.6849 21.9075 20.2371 21.4597 20.2371 20.9075Z" fill="black"/>
<path d="M18.3457 11.2395C18.3457 9.92841 17.2906 8.87515 16.0007 8.8749C14.7115 8.8749 13.6556 9.9281 13.6556 11.2395C13.6557 12.5507 14.7116 13.6041 16.0007 13.6041C17.2905 13.6038 18.3456 12.5504 18.3457 11.2395ZM20.3457 11.2395C20.3456 13.6443 18.4057 15.6038 16.0007 15.6041C13.5961 15.6041 11.6557 13.6443 11.6556 11.2395C11.6556 8.83451 13.596 6.8749 16.0007 6.8749C18.4058 6.87515 20.3457 8.83451 20.3457 11.2395Z" fill="black"/>
<path fill-rule="evenodd" clip-rule="evenodd" d="M7.71408 22.7959L7.13196 23.378C6.01785 22.8487 4.64499 23.045 3.7229 23.9671C2.55127 25.1388 2.55143 27.0381 3.7229 28.2098C4.8943 29.3812 6.79396 29.3813 7.96554 28.2098C8.89074 27.2846 9.0852 25.9053 8.54917 24.7892L9.12829 24.2101C9.51843 23.8196 9.51869 23.1863 9.12829 22.7959C8.73789 22.4055 8.10463 22.4058 7.71408 22.7959ZM5.13711 25.3813C4.74668 25.7718 4.74655 26.4048 5.13711 26.7955C5.5274 27.1858 6.16072 27.1861 6.55133 26.7955C6.94191 26.405 6.94162 25.7716 6.55133 25.3813C6.16057 24.9908 5.52754 24.9909 5.13711 25.3813Z" fill="black"/>
<path fill-rule="evenodd" clip-rule="evenodd" d="M22.5009 24.2227L23.0821 24.8038C22.5548 25.9173 22.7516 27.2883 23.6728 28.2095C24.8444 29.3811 26.7438 29.3809 27.9154 28.2095C29.0868 27.0381 29.087 25.1384 27.9154 23.9668C26.9893 23.0407 25.6082 22.8468 24.4915 23.3848L23.9151 22.8085C23.5246 22.4183 22.8913 22.4181 22.5009 22.8085C22.1105 23.1989 22.1108 23.8321 22.5009 24.2227ZM25.087 26.7952C25.4774 27.1857 26.1105 27.1858 26.5012 26.7952C26.8915 26.405 26.8918 25.7716 26.5012 25.381C26.1106 24.9904 25.4773 24.9907 25.087 25.381C24.6964 25.7718 24.6966 26.4048 25.087 26.7952Z" fill="black"/>
<path d="M27.9154 8.30422C26.9933 9.22632 25.6204 9.4226 24.5063 8.89332L23.9242 9.47544C23.5336 9.86559 22.9004 9.86584 22.51 9.47544C22.1196 9.08505 22.1198 8.45179 22.51 8.06123L23.0891 7.48211C22.5531 6.36603 22.7475 4.98678 23.6727 4.06158C24.8443 2.89 26.744 2.89018 27.9154 4.06158C29.0868 5.23323 29.087 7.13258 27.9154 8.30422ZM26.5012 6.89001C26.8916 6.49957 26.8917 5.86655 26.5012 5.47579C26.1109 5.08551 25.4775 5.0852 25.0869 5.47579C24.6963 5.86638 24.6966 6.49971 25.0869 6.89001C25.4777 7.28058 26.1107 7.28043 26.5012 6.89001Z" fill="black"/>
<path d="M8.55627 7.44567C9.08352 6.33217 8.88669 4.96119 7.96554 4.04004C6.7939 2.86841 4.89455 2.86857 3.7229 4.04004C2.5515 5.21144 2.55132 7.11109 3.7229 8.28268C4.64904 9.20882 6.03016 9.40273 7.14684 8.86467L7.7232 9.44103C8.11376 9.83117 8.74702 9.83143 9.13741 9.44103C9.52781 9.05063 9.52756 8.41737 9.13741 8.02682L8.55627 7.44567ZM5.13711 5.45425C5.52787 5.06368 6.16089 5.06382 6.55133 5.45425C6.94175 5.84467 6.9419 6.47771 6.55133 6.86847C6.16103 7.25876 5.5277 7.25905 5.13711 6.86847C4.74652 6.47786 4.74683 5.84454 5.13711 5.45425Z" fill="black"/>
</svg>
