<svg width="32" height="32" viewBox="0 0 32 32" fill="none" xmlns="http://www.w3.org/2000/svg">
<path d="M18.1799 14.3072C18.7322 14.3072 19.1799 14.7549 19.1799 15.3072C19.1799 15.8595 18.7322 16.3072 18.1799 16.3072H12.8922C12.3399 16.3072 11.8922 15.8595 11.8922 15.3072C11.8922 14.7549 12.3399 14.3072 12.8922 14.3072H18.1799Z" fill="black"/>
<path d="M23.815 22.6671C25.5612 20.7109 26.6225 18.1303 26.6226 15.302C26.6226 9.19223 21.6698 4.23959 15.5601 4.2395C9.4503 4.2395 4.49756 9.19219 4.49756 15.302C4.49762 21.4116 9.45019 26.3658 15.5601 26.3658C18.1211 26.3658 20.4789 25.4953 22.3537 24.0341L25.796 27.4687C26.1868 27.8586 26.8199 27.858 27.21 27.4674C27.6 27.0765 27.5995 26.4434 27.2087 26.0533L23.815 22.6671ZM15.5601 6.2395C20.5652 6.23959 24.6226 10.2968 24.6226 15.302C24.6225 20.3072 20.565 24.3657 15.5601 24.3658C10.5551 24.3658 6.49762 20.3073 6.49756 15.302C6.49756 10.2968 10.5549 6.2395 15.5601 6.2395Z" fill="black"/>
</svg>
