<svg width="32" height="32" viewBox="0 0 32 32" fill="none" xmlns="http://www.w3.org/2000/svg">
<path d="M25.9481 15.9843C25.9481 10.4902 21.4943 6.03638 16.0002 6.03638C10.5061 6.03638 6.05225 10.4902 6.05225 15.9843C6.05225 18.3606 6.88426 20.5404 8.2736 22.2512C8.72842 22.8117 8.7859 23.6406 8.31917 24.2603L7.05876 25.9322H16.0002C21.4943 25.9322 25.9481 21.4784 25.9481 15.9843ZM27.9481 15.9843C27.9481 22.583 22.5989 27.9322 16.0002 27.9322H7.00537C5.37712 27.9322 4.44851 26.0709 5.42855 24.7708L6.54704 23.2877C4.98473 21.2681 4.05225 18.7345 4.05225 15.9843C4.05225 9.38564 9.40151 4.03638 16.0002 4.03638C22.5989 4.03638 27.9481 9.38565 27.9481 15.9843Z" fill="black"/>
<path d="M18.8673 12.1002C19.3162 11.7784 19.9413 11.8818 20.2631 12.3307C20.5846 12.7795 20.4814 13.4035 20.0327 13.7252C19.8891 13.8281 19.7546 13.9432 19.6251 14.0638C20.3411 14.1628 21.0144 14.5174 21.4962 15.0599L21.6225 15.2109C22.8662 16.8121 22.2093 19.365 20.0991 19.9492C18.9178 20.2753 17.5919 19.8015 16.8855 18.8007C16.1563 17.7667 16.2216 16.4835 16.478 15.5403C16.8524 14.1649 17.7085 12.9311 18.8673 12.1002ZM18.5379 15.6718C18.4883 15.8012 18.444 15.9328 18.4077 16.0664C18.2244 16.7412 18.283 17.3113 18.5196 17.6471C18.7396 17.9589 19.1975 18.1234 19.5652 18.0221C20.1721 17.8542 20.4634 17.0588 20.0861 16.4974L20.0014 16.388C19.8179 16.1813 19.5383 16.0478 19.2605 16.0351C18.9672 16.0216 18.7114 15.8816 18.5379 15.6718Z" fill="black"/>
<path d="M12.3161 12.1002C12.765 11.7784 13.3902 11.8818 13.712 12.3307C14.0334 12.7795 13.9302 13.4035 13.4815 13.7252C13.338 13.8281 13.2034 13.9432 13.074 14.0638C13.79 14.1628 14.4632 14.5175 14.9451 15.0599L15.0714 15.2109C16.3152 16.8123 15.6572 19.3654 13.5466 19.9492C12.3659 20.2755 11.0394 19.8017 10.3331 18.8007C9.60378 17.7667 9.66931 16.4841 9.92683 15.5403C10.3004 14.1645 11.1575 12.931 12.3161 12.1002ZM11.9867 15.6718C11.9373 15.8009 11.8927 15.9318 11.8565 16.0651C11.6724 16.7395 11.7318 17.3113 11.9685 17.6471C12.1886 17.959 12.6473 18.1235 13.0141 18.0221C13.6615 17.843 13.9494 16.9494 13.4503 16.388C13.2666 16.1811 12.9871 16.0478 12.7094 16.0351C12.416 16.0217 12.1602 15.8816 11.9867 15.6718Z" fill="black"/>
</svg>
