<?xml version="1.0" encoding="UTF-8"?>
<svg id="Capa_1" xmlns="http://www.w3.org/2000/svg" version="1.1" viewBox="0 0 32 32">
  <!-- Generator: Adobe Illustrator 30.0.0, SVG Export Plug-In . SVG Version: 2.1.1 Build 123)  -->
  <path d="M26.65,17.56v-1.44s0-.08,0-.12c0-.02,0-.05,0-.07v-6.95c0-.93-.49-1.7-1.13-2.29-.64-.59-1.52-1.08-2.52-1.47-2-.78-4.71-1.24-7.64-1.24-2.93,0-5.63.46-7.64,1.24-1,.39-1.88.88-2.52,1.47-.64.59-1.13,1.36-1.13,2.29v14.03c0,.93.49,1.7,1.13,2.3.64.59,1.52,1.08,2.52,1.47,2,.78,4.71,1.24,7.64,1.24,1.47,0,2.87-.11,4.16-.33.6.18,1.24.28,1.9.28,3.48,0,6.33-2.74,6.5-6.19v-.34c0-1.46-.47-2.8-1.27-3.89ZM6.55,8.16c.4-.37,1.03-.74,1.89-1.08,1.72-.67,4.16-1.11,6.91-1.11,2.75,0,5.19.44,6.91,1.11.86.34,1.49.71,1.89,1.08.4.37.49.64.49.82s-.09.47-.49.83c-.4.37-1.03.74-1.89,1.08-1.72.67-4.16,1.11-6.91,1.11s-5.19-.44-6.91-1.11c-.86-.34-1.49-.71-1.89-1.08-.4-.37-.49-.65-.49-.83s.09-.46.49-.83ZM6.07,11.94c.49.31,1.05.58,1.65.81,2,.78,4.71,1.24,7.64,1.24s5.64-.46,7.64-1.24c.6-.23,1.16-.51,1.65-.81v3.84c-.95-.55-2.05-.86-3.23-.86-2.74,0-5.08,1.69-6.04,4.09h-.02c-2.75,0-5.19-.44-6.91-1.11-.86-.34-1.49-.71-1.89-1.08-.4-.37-.49-.65-.49-.83,0-.02,0-.05,0-.07v-3.99ZM15.36,26.02c-2.75,0-5.19-.44-6.91-1.11-.86-.34-1.49-.71-1.89-1.08-.4-.37-.49-.65-.49-.83v-4.06c.49.31,1.05.58,1.65.82,1.9.74,4.44,1.2,7.2,1.24,0,.15-.01.29-.01.44v.34c.09,1.63.77,3.1,1.83,4.2-.45.02-.91.04-1.38.04ZM21.42,25.98c-.61,0-1.19-.12-1.73-.34-1.63-.68-2.78-2.29-2.78-4.18,0-.16,0-.32.03-.48.08-.76.35-1.46.75-2.06.81-1.2,2.18-1.98,3.73-1.99.71,0,1.38.16,1.98.46.47.23.89.54,1.25.91.13.13.25.28.36.42.58.76.92,1.71.92,2.74,0,2.51-2.03,4.53-4.51,4.53Z"/>
  <path d="M23.22,20.51h-.79v-.85c0-.55-.45-1-1-1s-1,.45-1,1v.85h-.82c-.26,0-.5.1-.68.27-.19.18-.32.44-.32.73,0,.55.45,1,1,1h.82v.75c0,.55.45,1,1,1s1-.45,1-1v-.75h.79c.55,0,1-.45,1-1s-.45-1-1-1Z"/>
</svg>