<svg width="32" height="32" viewBox="0 0 32 32" fill="none" xmlns="http://www.w3.org/2000/svg">
<path fill-rule="evenodd" clip-rule="evenodd" d="M16.1147 13.9609H15.8852C15.9229 13.9652 15.9611 13.9674 15.9999 13.9674C16.0388 13.9674 16.077 13.9652 16.1147 13.9609Z" fill="black"/>
<path d="M4.07428 13.9386C3.54512 16.9972 4.21529 19.9861 5.74238 22.4235L4.29107 22.0883C3.75299 21.9639 3.21626 22.2989 3.09185 22.837C2.96746 23.3751 3.3025 23.9118 3.84055 24.0362L7.76894 24.9451C8.02726 25.0048 8.29923 24.9592 8.52415 24.8188C8.74897 24.6784 8.90963 24.4546 8.96946 24.1964L9.8718 20.2888C9.9962 19.7508 9.6612 19.214 9.1231 19.0896C8.58505 18.9653 8.04831 19.3003 7.92389 19.8383L7.53543 21.5174C6.19012 19.4535 5.59284 16.8971 6.04563 14.2797C6.99685 8.78173 12.2248 5.09572 17.7227 6.04666C18.2669 6.14081 18.7848 5.77575 18.879 5.23155C18.973 4.68742 18.608 4.16945 18.0639 4.0753C11.4775 2.93601 5.21381 7.35217 4.07428 13.9386Z" fill="black"/>
<path d="M14.0447 20.0416H14.9999V20.3203C14.9999 20.8725 15.4477 21.3203 15.9999 21.3203C16.5522 21.3203 16.9999 20.8725 16.9999 20.3203V20.0383C18.3308 19.97 19.3883 18.87 19.3885 17.5221C19.3885 16.1301 18.2609 15.0014 16.8689 15.0013H15.1319C14.8448 15.0013 14.6114 14.7689 14.6111 14.4817C14.6111 14.1942 14.8446 13.9609 15.1319 13.9609H15.8852H16.1147H17.9549C18.5071 13.9609 18.9549 13.5132 18.9549 12.9609C18.9549 12.4086 18.5071 11.9609 17.9549 11.9609H16.9999V11.6796C16.9999 11.1274 16.5522 10.6796 15.9999 10.6796C15.4477 10.6796 14.9999 11.1274 14.9999 11.6796V11.9643C13.6693 12.033 12.6111 13.1339 12.6111 14.4817C12.6114 15.8734 13.7402 17.0013 15.1319 17.0013H16.8689C17.1563 17.0014 17.3885 17.2347 17.3885 17.5221C17.3883 17.8093 17.1562 18.0415 16.8689 18.0416H14.0447C13.4928 18.0419 13.0449 18.4897 13.0447 19.0416C13.0447 19.5938 13.4926 20.0414 14.0447 20.0416Z" fill="black"/>
<path d="M24.231 7.05838L28.1594 7.96593C28.6975 8.09033 29.0325 8.62836 28.9081 9.16645C28.7834 9.7042 28.2468 10.0395 27.7089 9.91515L26.2561 9.57902C27.7854 12.0177 28.4563 15.0091 27.9268 18.0701C26.787 24.6563 20.5236 29.0717 13.9372 27.9321C13.3931 27.8379 13.028 27.32 13.1221 26.7758C13.2165 26.2319 13.7343 25.8679 14.2784 25.962C19.7763 26.9132 25.004 23.2268 25.9555 17.7289C26.4085 15.11 25.8108 12.5521 24.464 10.4875L24.0761 12.1651C23.9514 12.7029 23.4147 13.0382 22.8768 12.9138C22.3389 12.7895 22.004 12.2526 22.1281 11.7146L23.0305 7.80707L23.0943 7.62088C23.175 7.4422 23.3071 7.29008 23.4758 7.18468C23.7008 7.0442 23.9726 6.99863 24.231 7.05838Z" fill="black"/>
</svg>
