<svg width="32" height="32" viewBox="0 0 32 32" fill="none" xmlns="http://www.w3.org/2000/svg">
<path d="M22.693 12.8C22.4663 12.36 22.1863 11.9867 21.8797 11.6533C21.253 11.0267 20.1597 10.9733 19.3997 10.7333C19.3997 10.7333 19.3908 10.7289 19.373 10.72C19.693 10.12 20.1863 9.81333 20.1863 8.33333C20.1863 7.88 20.1197 7.45333 19.9863 7.04C19.853 6.58667 19.6397 6.14667 19.3463 5.77333C19.2263 5.58667 19.0797 5.41333 18.9197 5.26667C18.133 4.48 17.053 4 15.853 4C15.7063 4 15.5597 4 15.413 4.02667C15.2663 4.04 15.1197 4.06667 14.973 4.09333C14.2263 4.24 13.5597 4.58667 12.9997 5.06667C12.9197 5.12 12.853 5.2 12.773 5.26667C12.6797 5.37333 12.5863 5.48 12.493 5.57333C12.053 6.12 11.7463 6.76 11.5997 7.46667C11.5463 7.70667 11.5197 7.94667 11.5197 8.2V8.33333C11.5197 8.45333 11.533 8.56 11.533 8.68C11.5863 9.44 11.8263 10.1333 12.2397 10.7333C10.5997 10.96 9.33301 12.3867 9.33301 14.0933V16.9867C9.33301 18.3067 10.1463 19.4533 11.293 19.92V20.0267L11.2797 25.3467C11.2797 26.84 12.5063 28.0667 14.013 28.0667C14.6663 28.0667 15.2663 27.84 15.7463 27.44C16.213 27.84 16.813 28.0667 17.4663 28.0667C18.9597 28.0667 20.1863 26.84 20.1863 25.3467V21.5733C20.3597 21.6133 20.533 21.6267 20.7063 21.6267C20.7863 21.6267 20.8797 21.6267 20.9597 21.6133L21.1997 21.5733C22.3463 21.3467 23.2263 20.3333 23.2263 19.1067V15.1733C23.213 14.2267 23.013 13.44 22.693 12.8ZM15.853 6C17.133 6 18.1863 7.04 18.1863 8.33333C18.1863 9.62667 17.133 10.6667 15.853 10.6667C14.573 10.6667 13.5197 9.61333 13.5197 8.33333C13.5197 7.05333 14.573 6 15.853 6ZM12.093 17.56L11.7863 17.92C11.5063 17.7067 11.333 17.36 11.333 16.9867V14.0933C11.333 13.32 11.9597 12.6933 12.733 12.6933H16.3063L12.3463 17.28L12.093 17.56ZM16.4663 17.5067C16.4663 17.6133 16.4397 17.7067 16.3997 17.8C16.2797 18.0533 16.0263 18.2267 15.733 18.2267H14.1597L15.413 16.7733H15.733C15.813 16.7733 15.9063 16.7867 15.973 16.8133C16.253 16.92 16.4663 17.1867 16.4663 17.5067ZM18.1863 25.3467C18.1863 25.7467 17.8663 26.0667 17.4663 26.0667C17.0663 26.0667 16.733 25.7467 16.733 25.3467V21.6533C16.733 21.1067 16.2797 20.6933 15.733 20.6933C15.1863 20.6933 14.733 21.1067 14.733 21.6533V25.3467C14.733 25.7467 14.413 26.0667 14.013 26.0667C13.613 26.0667 13.2797 25.7467 13.2797 25.3467V20.2267H15.733C16.093 20.2267 16.4263 20.16 16.733 20.04C17.3063 19.8133 17.773 19.4 18.0797 18.8933C18.0948 18.8782 18.1059 18.8631 18.1149 18.8479C18.1217 18.8364 18.1273 18.8248 18.133 18.8133C18.133 18.8133 18.173 18.7333 18.1863 18.6933V25.3467ZM21.2263 19.1067C21.2263 19.1067 21.2263 19.2 21.1997 19.24C21.1463 19.4667 20.9463 19.6267 20.7063 19.6267C20.413 19.6267 20.1863 19.4 20.1863 19.0933V16.3067C20.1863 15.9867 19.9197 15.72 19.5997 15.72H18.773C18.453 15.72 18.1863 15.9733 18.1863 16.3067C17.9197 15.7467 17.4663 15.3067 16.9063 15.04L18.9463 12.68C18.9463 12.68 18.9463 12.6933 18.973 12.6933C20.0797 12.92 21.213 13.5333 21.213 14.6933V15.0667C21.213 15.0667 21.2263 15.1467 21.2263 15.2V19.1067Z" fill="black"/>
</svg>
