<svg width="32" height="32" viewBox="0 0 32 32" fill="none" xmlns="http://www.w3.org/2000/svg">
<path d="M15.0574 8.48767L13.3062 10.2389L13.1635 10.3889C11.7828 11.9173 11.7834 14.2497 13.1645 15.7779L13.3072 15.9279L13.3827 16.0034L13.5281 16.1415C15.016 17.4861 17.2865 17.4862 18.7743 16.1415L18.9198 16.0034C20.4015 14.5217 20.4481 12.1482 19.0588 10.6108L18.9207 10.4654L16.9431 8.48767L16.8418 8.3956C16.3181 7.9687 15.5455 7.9996 15.0574 8.48767ZM14.7969 14.5892L14.7214 14.5137C13.9314 13.7238 13.9307 12.4431 14.7205 11.6531L16.0002 10.3733L17.5065 11.8796C18.2545 12.6279 18.2538 13.841 17.5056 14.5892C16.7574 15.3372 15.5452 15.3371 14.7969 14.5892Z" fill="black"/>
<path d="M23.8369 19.6705L23.8473 19.4296V7.13017C23.8473 5.89871 23.0039 4.82701 21.807 4.53772L21.3226 4.42053C17.8248 3.57564 14.1758 3.57565 10.6781 4.42053L10.1937 4.53772C8.9966 4.82693 8.15332 5.89863 8.15332 7.13017V19.4296L8.16374 19.6705C8.26739 20.8199 9.10468 21.7798 10.2394 22.0323C10.2917 23.5771 11.3019 24.8888 12.7078 25.3734V27.0364C12.7078 27.5887 13.1555 28.0364 13.7078 28.0364C14.2601 28.0364 14.7078 27.5887 14.7078 27.0364V25.6231L15.9456 25.6914L16.0003 25.694L16.055 25.6914L17.1022 25.6336V27.0364C17.1022 27.5887 17.55 28.0364 18.1022 28.0364C18.6545 28.0364 19.1022 27.5887 19.1022 27.0364V25.4333C20.6066 25.0054 21.7065 23.646 21.7612 22.0323C22.8959 21.7797 23.7333 20.8198 23.8369 19.6705ZM13.8128 23.5703C13.0949 23.5307 12.5034 23.041 12.3069 22.3841C14.756 22.745 17.2446 22.745 19.6937 22.3841C19.4972 23.041 18.9057 23.5307 18.1878 23.5703L16.0003 23.6901L13.8128 23.5703ZM21.3369 6.48173C21.6362 6.55402 21.8473 6.82227 21.8473 7.13017V19.4296C21.8471 19.7538 21.6134 20.0307 21.2939 20.0859L19.9762 20.3138C17.3452 20.7687 14.6555 20.7687 12.0244 20.3138L10.7067 20.0859C10.3872 20.0307 10.1536 19.7538 10.1533 19.4296V7.13017C10.1533 6.82227 10.3645 6.55402 10.6637 6.48173L11.1481 6.36454C14.337 5.59434 17.6636 5.59431 20.8525 6.36454L21.3369 6.48173Z" fill="black"/>
</svg>
