<svg width="32" height="32" viewBox="0 0 32 32" fill="none" xmlns="http://www.w3.org/2000/svg">
<path fill-rule="evenodd" clip-rule="evenodd" d="M21.2802 20.9999C21.2847 21.4644 21.2293 21.9449 21.1181 22.4187C21.0713 22.6182 21.0156 22.8124 20.9521 22.9999C20.6913 23.7704 20.3004 24.4265 19.8655 24.8614C19.242 25.485 17.8635 25.9431 16.3056 25.9461C14.7341 25.9489 13.4671 25.4906 12.9371 24.8315C12.484 24.268 12.0754 23.6426 11.7201 22.9999C11.3525 22.3352 11.0419 21.652 10.7977 20.9999C10.78 20.9527 10.7627 20.9057 10.7457 20.8588C10.6703 20.6503 10.7686 20.3869 11.0387 20.2833C11.2688 20.1951 11.5289 20.2756 11.6689 20.4786L12.6728 21.9357C12.9213 22.296 13.376 22.4525 13.7939 22.3224C14.2117 22.1923 14.4968 21.8055 14.497 21.368V13.3185C14.497 13.0959 14.6769 12.9151 14.8994 12.9148C15.1197 12.9148 15.2996 13.0917 15.303 13.312L15.359 16.9422C15.3668 17.4517 15.7567 17.8742 16.264 17.9226C16.5669 17.9516 16.8653 17.9732 17.1588 17.9945L17.3024 18.005C18.0184 18.0574 18.7043 18.1144 19.3538 18.2781C20.148 18.4783 20.6522 18.7864 20.9215 19.2807L21.0231 19.5047C21.1914 19.9593 21.2749 20.4691 21.2802 20.9999ZM25.3727 20.9999H23.2797C23.2753 20.3436 23.1834 19.6842 22.9827 19.0555L22.8981 18.8094L22.7848 18.5346C22.1758 17.213 20.9705 16.6237 19.8421 16.3393C19.0325 16.1353 18.1182 16.0574 17.3447 16.0008L17.303 13.2807C17.2826 11.9682 16.2121 10.9148 14.8994 10.9148C13.5723 10.9151 12.497 11.9913 12.497 13.3185V18.588C11.9112 18.2498 11.2014 18.1516 10.5283 18.3458L10.3212 18.4161C9.26724 18.8208 8.6007 19.8845 8.73613 20.9999H6.61882C6.25063 20.9999 5.95215 20.7014 5.95215 20.3333V7.34367C5.95215 6.97548 6.25063 6.677 6.61882 6.677H25.3727C25.7409 6.677 26.0394 6.97548 26.0394 7.34367V20.3333C26.0394 20.7014 25.7409 20.9999 25.3727 20.9999ZM23.0343 22.9999H25.3727C26.7536 22.9999 27.8901 21.9503 28.0264 20.6054L28.0394 20.3333V7.34367C28.0394 5.87091 26.8455 4.677 25.3727 4.677H6.61882L6.34668 4.69132C5.00178 4.82767 3.95215 5.9628 3.95215 7.34367V20.3333L3.96647 20.6054C4.10282 21.9503 5.23795 22.9999 6.61882 22.9999H9.47456C9.97548 24.0601 10.6158 25.137 11.3785 26.0854C12.4833 27.4588 14.5294 27.9494 16.3095 27.9461C18.1039 27.9427 20.1162 27.4388 21.2796 26.2755C22.1114 25.4437 22.7201 24.2516 23.0343 22.9999Z" fill="black"/>
</svg>
