<?xml version="1.0" encoding="UTF-8"?>
<svg id="Capa_1" xmlns="http://www.w3.org/2000/svg" version="1.1" viewBox="0 0 32 32">
  <!-- Generator: Adobe Illustrator 30.0.0, SVG Export Plug-In . SVG Version: 2.1.1 Build 123)  -->
  <defs>
    <style>
      .st0 {
        fill-rule: evenodd;
      }
    </style>
  </defs>
  <path class="st0" d="M22.44,6.56c-.67-1.75-2.03-3.15-3.74-3.87-.31-.13-.66-.1-.94.09-.24.16-.4.42-.44.71v.12s0,2.93,0,2.93h-2.59v-2.93c0-.34-.17-.65-.45-.83-.28-.19-.63-.22-.94-.09-1.71.73-3.07,2.12-3.74,3.87-3.02.22-5.41,2.74-5.41,5.82v6.55c0,3.23,2.61,5.84,5.84,5.84h2.25l-.44,2.7h-1.78c-.55,0-1,.45-1,1s.45,1,1,1h11.88c.55,0,1-.45,1-1s-.45-1-1-1h-1.78l-.44-2.7h2.25c3.23,0,5.84-2.61,5.84-5.84v-6.55c0-3.07-2.37-5.58-5.37-5.82ZM11.16,8.54c.07-.73.3-1.4.65-2,.25-.42.55-.79.91-1.11v2.32c0,.28.05.54.15.79.12.31.32.59.58.81l.21.16,1.17.78.14.08c.69.39,1.55.36,2.22-.09l1.17-.79c.36-.24.63-.58.79-.97.1-.25.15-.51.15-.79v-2.33c.35.32.66.7.91,1.12.35.6.58,1.27.65,2,.02.16.02.31.02.47,0,2.01-1.22,3.74-2.96,4.48-.37.16-.6.52-.61.92v8.36h-2.62l.02-8.36c0-.4-.24-.76-.61-.92-1.75-.75-2.97-2.48-2.97-4.49,0-.16,0-.32.02-.47ZM12.7,22.77h-2.67c-2.12,0-3.84-1.72-3.84-3.84v-6.55c0-1.82,1.27-3.34,2.96-3.74,0,.12,0,.25,0,.37,0,2.6,1.44,4.85,3.57,6.02v7.74ZM13.87,27.48l.44-2.7h3.38l.44,2.7h-4.26ZM25.81,18.93c0,2.12-1.72,3.84-3.84,3.84h-2.66v-7.74c2.14-1.17,3.58-3.42,3.58-6.02,0-.12,0-.24,0-.36,1.68.41,2.93,1.92,2.93,3.73v6.55Z"/>
</svg>