<svg width="32" height="32" viewBox="0 0 32 32" fill="none" xmlns="http://www.w3.org/2000/svg">
<path d="M21.6254 6.6459C21.7148 6.10091 22.2301 5.73095 22.7751 5.82038C24.737 6.14257 26.2335 7.84373 26.2335 9.8972C26.2292 11.9806 24.6854 13.7 22.6801 13.9818C22.1332 14.0587 21.6267 13.6772 21.5499 13.1303C21.4734 12.5836 21.8548 12.0783 22.4014 12.0014C23.4346 11.8562 24.23 10.9696 24.2335 9.8972L24.2244 9.70059C24.1359 8.73216 23.3994 7.95009 22.4509 7.79434C21.9061 7.70493 21.5363 7.1907 21.6254 6.6459Z" fill="black"/>
<path d="M26.0447 18.4423C26.0446 18.3073 26.0102 18.2035 25.7986 18.0647C25.5364 17.8928 25.0795 17.737 24.3976 17.635C23.8516 17.5531 23.4748 17.0431 23.5564 16.497C23.6383 15.9511 24.1484 15.5742 24.6945 15.6559C25.484 15.774 26.277 15.9854 26.8963 16.3915C27.5658 16.8307 28.0445 17.5158 28.0447 18.4423C28.0447 19.0518 27.8348 19.5892 27.4549 20.0192C27.0934 20.4282 26.6174 20.6973 26.1359 20.8811C25.6201 21.078 25.0426 20.8199 24.8455 20.3043C24.6486 19.7884 24.9064 19.2096 25.4223 19.0126C25.7228 18.898 25.8804 18.7807 25.9562 18.6949C26.0134 18.6302 26.0447 18.5636 26.0447 18.4423Z" fill="black"/>
<path d="M8.51204 19.7458C8.51204 18.9519 8.80327 18.2733 9.31413 17.7432C9.80116 17.2379 10.4487 16.9055 11.1266 16.6781C12.4727 16.2267 14.2312 16.0961 16.0029 16.0961C17.7856 16.0961 19.546 16.2314 20.891 16.6885C21.5685 16.9189 22.2137 17.255 22.6982 17.7627C23.2058 18.2948 23.4938 18.9723 23.4938 19.764C23.4938 20.5579 23.2028 21.2353 22.6917 21.7653C22.2046 22.2705 21.557 22.6024 20.8792 22.8291C19.5334 23.2792 17.7742 23.4086 16.0029 23.4086C14.2207 23.4085 12.461 23.2748 11.1162 22.8187C10.4387 22.5889 9.79374 22.2529 9.30892 21.7458C8.80092 21.2144 8.51215 20.5373 8.51204 19.7458ZM10.512 19.7458C10.5121 20.0127 10.5952 20.198 10.7542 20.3643C10.9365 20.5549 11.2544 20.7529 11.7594 20.9242C12.7802 21.2703 14.2661 21.4085 16.0029 21.4086C17.7328 21.4086 19.2211 21.2758 20.2451 20.9333C20.7518 20.7638 21.0704 20.5666 21.2529 20.3773C21.4114 20.2128 21.4938 20.0298 21.4938 19.764C21.4938 19.4959 21.4108 19.3098 21.2516 19.1429C21.0693 18.9519 20.7513 18.7534 20.2464 18.5817C19.2261 18.235 17.7398 18.0961 16.0029 18.0961C14.2743 18.0961 12.7874 18.2306 11.7633 18.5739C11.2565 18.7439 10.9372 18.9414 10.7542 19.1312C10.595 19.2965 10.512 19.4803 10.512 19.7458Z" fill="black"/>
<path d="M4.34896 22.7898C4.78563 22.4517 5.41317 22.5315 5.7513 22.9682C6.31734 23.6992 7.32339 24.2874 9.03646 24.6818C10.746 25.0753 13.0338 25.2469 16.0039 25.2469C18.9651 25.2469 21.3155 25.0963 23.0612 24.7143C24.8328 24.3265 25.7709 23.7449 26.1979 23.0646C26.4916 22.597 27.1091 22.4559 27.5768 22.7495C28.0446 23.0431 28.1855 23.6606 27.8919 24.1284C27.0301 25.5014 25.4256 26.2448 23.4883 26.6687C21.5247 27.0984 18.9987 27.2469 16.0039 27.2469C12.9865 27.2469 10.5189 27.0757 8.58724 26.631C6.65935 26.1871 5.13798 25.4415 4.17057 24.1922C3.83246 23.7555 3.91229 23.128 4.34896 22.7898Z" fill="black"/>
<path d="M19.1635 9.91309C19.1634 8.16796 17.7485 6.75293 16.0033 6.75293C14.2583 6.75301 12.8432 8.16802 12.8432 9.91309C12.8366 11.6506 14.2391 13.0673 15.976 13.0732H16.0033C17.7487 13.0732 19.1635 11.6592 19.1635 9.91309ZM21.1635 9.91309C21.1635 12.7641 18.8529 15.0732 16.0033 15.0732H15.9695C13.127 15.0637 10.8324 12.7511 10.8432 9.90918C10.8453 7.06132 13.155 4.75301 16.0033 4.75293C18.853 4.75293 21.1634 7.06339 21.1635 9.91309Z" fill="black"/>
<path d="M9.23204 5.82038C9.77681 5.73131 10.2911 6.10111 10.3805 6.6459C10.4696 7.19071 10.0998 7.70493 9.55495 7.79434C8.54329 7.96055 7.7724 8.83979 7.7724 9.8972C7.77585 10.9699 8.57059 11.8562 9.60443 12.0014C10.1511 12.0782 10.5325 12.5836 10.456 13.1303C10.3792 13.6772 9.87271 14.0586 9.32579 13.9818C7.31918 13.6999 5.77671 11.9815 5.7724 9.89851C5.7724 7.84486 7.26995 6.14237 9.23204 5.82038Z" fill="black"/>
<path d="M3.96094 18.4423C3.96113 17.5158 4.44113 16.8307 5.11068 16.3916C5.72996 15.9856 6.52312 15.7739 7.3125 15.6559C7.85834 15.5746 8.36734 15.9513 8.44922 16.497C8.53088 17.0432 8.15419 17.5533 7.60807 17.635C6.92603 17.737 6.46921 17.8928 6.20703 18.0647C5.99546 18.2035 5.96103 18.3073 5.96094 18.4423C5.96094 18.5635 5.99232 18.6302 6.04948 18.6949C6.12526 18.7807 6.28288 18.898 6.58333 19.0126C7.09932 19.2096 7.35837 19.7883 7.16146 20.3043C6.96445 20.8201 6.38569 21.078 5.86979 20.8811C5.38833 20.6973 4.91224 20.4281 4.55078 20.0192C4.17093 19.5892 3.96094 19.0518 3.96094 18.4423Z" fill="black"/>
</svg>
