<svg width="32" height="32" viewBox="0 0 32 32" fill="none" xmlns="http://www.w3.org/2000/svg">
<path d="M19.1169 3.70312C20.293 3.70312 21.1164 4.8663 20.725 5.97526C20.7179 5.99508 20.7098 6.01582 20.7015 6.03516L18.2054 11.8932H23.4984C24.9633 11.8932 25.7464 13.6192 24.7809 14.7214L13.8786 27.1654C12.6902 28.5211 10.4851 27.3446 10.9489 25.6029L12.9294 18.1797H8.501C7.31627 18.1797 6.49249 17.0009 6.90074 15.888C6.90491 15.8767 6.90918 15.8654 6.91376 15.8542L11.4489 4.78646C11.7041 4.13451 12.3332 3.70331 13.0362 3.70312H19.1169ZM8.9411 16.1797H13.3135C14.4336 16.1799 15.2491 17.2424 14.9606 18.3242L13.208 24.8958L22.8487 13.8932H17.7575C16.5813 13.8932 15.7577 12.7303 16.1494 11.6211L16.1729 11.5625L18.669 5.70312H13.2354L8.9411 16.1797Z" fill="black"/>
</svg>
