<svg width="32" height="32" viewBox="0 0 32 32" fill="none" xmlns="http://www.w3.org/2000/svg">
<path d="M25.9243 15.455V19.0792C24.9986 19.4438 23.9247 19.3643 23.0636 18.8409C21.1379 17.6702 19.3137 18.2675 17.9497 18.7141L17.8527 18.7458C16.3772 19.2278 15.3919 19.5036 14.3019 18.8409C12.3764 17.6706 10.5529 18.2676 9.18911 18.7141L9.09229 18.7458C7.83567 19.1563 6.93486 19.4172 6.02197 19.0764V15.4345C7.37391 15.6992 8.61973 15.2913 9.61856 14.9643L9.71338 14.9333C11.1889 14.4513 12.1741 14.1742 13.2642 14.837C15.1908 16.0081 17.0152 15.4108 18.3793 14.9642L18.4738 14.9333C19.9495 14.4513 20.9344 14.1742 22.0246 14.837C23.2021 15.5529 24.6127 15.7589 25.9243 15.455ZM22.0246 20.5505C23.2021 21.2664 24.6127 21.4723 25.9243 21.1685V24.3281C25.9243 25.2486 25.1781 25.9948 24.2577 25.9948H7.68864C6.76816 25.9948 6.02197 25.2486 6.02197 24.3281V21.148C7.37391 21.4127 8.61973 21.0049 9.61856 20.6779L9.71338 20.6469C11.1889 20.1649 12.1741 19.8878 13.2642 20.5505C15.1908 21.7216 17.0152 21.1243 18.3793 20.6778L18.4738 20.6469C19.9495 20.1648 20.9344 19.8877 22.0246 20.5505ZM25.9243 13.3667C24.9987 13.7309 23.9245 13.6506 23.0636 13.1273C21.1379 11.9567 19.3137 12.554 17.9497 13.0005L17.8527 13.0323C16.3772 13.5142 15.3919 13.79 14.3019 13.1273C12.3764 11.957 10.5529 12.5541 9.18911 13.0006L9.09229 13.0323C7.83567 13.4427 6.93486 13.7037 6.02197 13.3628V8.17187C6.02197 7.61959 5.57426 7.17188 5.02197 7.17188C4.46969 7.17188 4.02197 7.61959 4.02197 8.17187V24.3281C4.02197 26.3532 5.6636 27.9948 7.68864 27.9948H24.2577C26.2827 27.9948 27.9243 26.3532 27.9243 24.3281V8.17187C27.9243 7.61959 27.4766 7.17188 26.9243 7.17188C26.3722 7.17205 25.9243 7.6197 25.9243 8.17187V13.3667Z" fill="black"/>
</svg>
