<svg width="32" height="32" viewBox="0 0 32 32" fill="none" xmlns="http://www.w3.org/2000/svg">
<path fill-rule="evenodd" clip-rule="evenodd" d="M23.9459 13.9766C21.9962 13.9766 20.4144 15.6198 20.4144 17.6553C20.4144 19.3598 21.5303 20.7945 23.0385 21.1991C22.7933 23.9581 20.5738 26.1163 17.8516 26.1163C14.9822 26.1163 12.6524 23.6884 12.6524 20.6964V20.2059C16.2084 19.9239 19.0042 16.8215 19.0042 13.0447V10.1263C19.0042 7.56347 17.1526 5.45435 14.7615 5.17232V4.96386C14.7615 4.46111 14.3691 4.04419 13.8786 4.04419C13.3881 4.04419 12.9957 4.46111 12.9957 4.96386V7.17107C12.9957 7.68609 13.4004 8.09074 13.8786 8.09074C14.3568 8.09074 14.7615 7.68609 14.7615 7.17107V7.03619C16.1716 7.2937 17.2385 8.58124 17.2385 10.1263V13.0447C17.2385 15.9999 14.9454 18.3911 12.1128 18.3911H11.4261C8.59354 18.3911 6.28823 15.9999 6.28823 13.0447V10.1263C6.28823 8.5935 7.35505 7.30596 8.76521 7.03619V7.17107C8.76521 7.68609 9.15761 8.09074 9.6481 8.09074C10.1386 8.09074 10.531 7.68609 10.531 7.17107V4.96386C10.531 4.46111 10.1386 4.04419 9.6481 4.04419C9.15761 4.04419 8.76521 4.46111 8.76521 4.96386V5.18458C6.38633 5.45435 4.52246 7.56347 4.52246 10.1263V13.0447C4.52246 16.8338 7.33052 19.9239 10.8866 20.2059V20.6964C10.8866 24.7061 14.0012 27.9556 17.8516 27.9556C21.7019 27.9556 24.559 24.9759 24.8043 21.2114C26.3371 20.819 27.4775 19.3843 27.4775 17.6553C27.4775 15.6198 25.8956 13.9766 23.9459 13.9766ZM23.9459 19.4947C22.9772 19.4947 22.1802 18.6731 22.1802 17.6553C22.1802 16.6376 22.9772 15.816 23.9459 15.816C24.9146 15.816 25.7117 16.6376 25.7117 17.6553C25.7117 18.6731 24.9269 19.4947 23.9459 19.4947Z" fill="black"/>
</svg>
