<svg width="32" height="32" viewBox="0 0 32 32" fill="none" xmlns="http://www.w3.org/2000/svg">
<path d="M20.4562 13.9374C21.0085 13.9374 21.4562 14.3851 21.4562 14.9374C21.4562 15.4897 21.0085 15.9374 20.4562 15.9374H18.533C17.9807 15.9374 17.533 15.4897 17.533 14.9374C17.533 14.3851 17.9807 13.9374 18.533 13.9374H20.4562Z" fill="black"/>
<path d="M10.9504 13.9374C11.5027 13.9374 11.9504 14.3851 11.9504 14.9374C11.9504 15.4897 11.5027 15.9374 10.9504 15.9374H9.02721C8.47493 15.9374 8.02721 15.4897 8.02721 14.9374C8.02721 14.3851 8.47493 13.9374 9.02721 13.9374H10.9504Z" fill="black"/>
<path d="M26.0287 21.9495C26.0286 20.3966 24.7817 19.1516 23.2618 19.1513C21.7418 19.1513 20.495 20.3962 20.4948 21.9495C20.4948 22.9235 21.0921 24.0023 21.8998 24.9117C22.2887 25.3496 22.6897 25.7064 23.0131 25.9456C23.1072 26.0152 23.1912 26.0688 23.2605 26.1123C23.33 26.0688 23.4147 26.0155 23.5092 25.9456C23.8327 25.7063 24.2334 25.3484 24.6225 24.9104C25.4302 24.001 26.0287 22.9234 26.0287 21.9495ZM28.0287 21.9495C28.0287 23.6549 27.0436 25.1984 26.1185 26.2399C25.6411 26.7773 25.1372 27.2275 24.698 27.5524C24.4795 27.714 24.2619 27.8564 24.0587 27.9625C23.904 28.0433 23.6001 28.1915 23.2618 28.1917C22.9231 28.1917 22.6183 28.0433 22.4636 27.9625C22.2604 27.8564 22.0428 27.714 21.8243 27.5524C21.3853 27.2276 20.8822 26.7771 20.405 26.2399C19.48 25.1984 18.4948 23.6549 18.4948 21.9495C18.495 19.3078 20.6211 17.1513 23.2618 17.1513C25.902 17.1516 28.0286 19.3078 28.0287 21.9495Z" fill="black"/>
<path d="M24.2927 21.9288C24.2927 22.4811 23.845 22.9288 23.2927 22.9288C22.7404 22.9288 22.2927 22.4811 22.2927 21.9288V21.8767C22.2927 21.3244 22.7404 20.8767 23.2927 20.8767C23.845 20.8767 24.2927 21.3244 24.2927 21.8767V21.9288Z" fill="black"/>
<path fill-rule="evenodd" clip-rule="evenodd" d="M21.9819 11.7472C17.1765 12.2508 12.3316 12.252 7.52608 11.7509L6.71774 12.8658C6.34037 13.3868 6.13717 14.014 6.13831 14.6575L6.12138 20.2343C6.12126 20.2733 6.15274 20.3059 6.1917 20.3059H8.31279C8.35136 20.3058 8.3828 20.274 8.3831 20.2356V19.7968C8.3831 18.6534 9.31002 17.7265 10.4534 17.7265H15.7229C16.2752 17.7265 16.7229 18.1742 16.7229 18.7265C16.7227 19.2785 16.2751 19.7265 15.7229 19.7265H10.4534C10.4145 19.7265 10.3831 19.7581 10.3831 19.7968V20.2356C10.3828 21.3786 9.45586 22.3058 8.31279 22.3059H6.1917C5.046 22.3059 4.11814 21.3749 4.12138 20.2291L4.13831 14.6562C4.13745 13.5916 4.47323 12.5535 5.09795 11.6913L5.25428 11.4762C5.16189 11.4634 5.06952 11.4505 4.97716 11.4374C4.43051 11.3597 4.05068 10.8539 4.1282 10.3072C4.20588 9.76057 4.7117 9.38074 5.25841 9.45826C5.67946 9.51796 6.10093 9.57366 6.52276 9.62536L7.59795 6.63665C7.9999 5.49742 9.03204 4.63615 10.2242 4.43743C13.0371 3.99395 15.8988 3.96733 18.7177 4.3554L19.2815 4.43743C20.4796 4.63106 21.5127 5.49292 21.917 6.63665L22.9916 9.62038C23.3999 9.57008 23.8079 9.51604 24.2154 9.45826C24.7621 9.38081 25.268 9.76057 25.3457 10.3072C25.4232 10.854 25.0422 11.3599 24.4954 11.4374L24.2694 11.4691L24.3883 11.6288C25.0267 12.5001 25.3757 13.5595 25.3766 14.6392C25.3768 15.1912 24.9299 15.6386 24.3779 15.6392C23.8257 15.6397 23.3771 15.1928 23.3766 14.6406C23.376 13.9876 23.1685 13.3515 22.7841 12.8241L21.9819 11.7472ZM20.9449 9.84088C16.8285 10.221 12.6857 10.2222 8.56915 9.84457L9.48336 7.30592C9.64219 6.85162 10.0689 6.49063 10.5433 6.41138C13.3346 5.97211 16.1778 5.97265 18.969 6.41269C19.4444 6.49084 19.876 6.85892 20.0354 7.31373L20.9449 9.84088Z" fill="black"/>
</svg>
