<svg width="32" height="32" viewBox="0 0 32 32" fill="none" xmlns="http://www.w3.org/2000/svg">
<path fill-rule="evenodd" clip-rule="evenodd" d="M27.6511 11.7C27.6576 11.7082 27.6642 11.7165 27.6704 11.725Z" fill="black"/>
<path fill-rule="evenodd" clip-rule="evenodd" d="M27.7454 11.8564C27.7282 11.8202 27.7087 11.7847 27.6868 11.7501C27.7068 11.7853 27.7263 11.8208 27.7454 11.8564ZM27.6178 11.6541C27.6259 11.6641 27.6332 11.6746 27.6405 11.6851C27.644 11.69 27.6476 11.6951 27.6511 11.7C27.6393 11.6852 27.6274 11.6702 27.6178 11.6541ZM27.6511 11.7C27.6546 11.7045 27.6582 11.709 27.6617 11.7135C27.6647 11.7172 27.6677 11.721 27.6704 11.725" fill="black"/>
<path fill-rule="evenodd" clip-rule="evenodd" d="M27.6405 11.6851C27.6341 11.6759 27.6249 11.6628 27.6178 11.6541C27.6225 11.662 27.6347 11.6778 27.6405 11.6851ZM27.6511 11.7C27.6472 11.6934 27.6453 11.6911 27.6405 11.6851C27.644 11.69 27.6476 11.6951 27.6511 11.7ZM27.6511 11.7C27.6546 11.7045 27.6582 11.709 27.6617 11.7135Z" fill="black"/>
<path d="M19.2988 19.6932L26.3161 13.9983C26.3187 14.0477 26.32 14.0973 26.32 14.1471V21.4973C26.32 23.0049 25.8232 24.1079 25.0452 24.8372C24.2592 25.5739 23.0836 26.0246 21.5596 26.0208H10.4411C8.91707 26.0246 7.74146 25.5738 6.9554 24.8372C6.17742 24.1079 5.68066 23.0049 5.68066 21.4973V14.1471C5.68066 14.0939 5.68214 14.0409 5.68508 13.9882L12.7753 19.7023C14.6876 21.2099 17.3939 21.2058 19.2988 19.6932ZM25.4667 12.1126L18.0461 18.1333C16.9454 19.0073 15.4088 19.0648 14.2415 18.296L14.0136 18.132L6.53887 12.1074C6.65049 11.9984 6.77179 11.8979 6.90202 11.8072L14.6494 6.40879C15.4609 5.84311 16.5398 5.84311 17.3512 6.40879L25.0986 11.8072C25.2307 11.8993 25.3537 12.0016 25.4667 12.1126ZM27.6511 11.7C27.6393 11.6852 27.6274 11.6702 27.6178 11.6541C27.6365 11.6772 27.654 11.7008 27.6704 11.725C27.6642 11.7165 27.6576 11.7082 27.6511 11.7ZM27.7454 11.8564C27.7263 11.8208 27.7068 11.7853 27.6868 11.7501C27.3342 11.1292 26.8442 10.585 26.2419 10.1653L18.4945 4.76817C16.9958 3.72342 15.0049 3.72345 13.5062 4.76817L5.75879 10.1653C4.4555 11.0723 3.68066 12.5603 3.68066 14.1471V21.4973C3.68066 23.4677 4.3442 25.132 5.58691 26.2968C6.82111 27.4536 8.52638 28.0251 10.4437 28.0208L21.557 28.0195C23.4742 28.0238 25.1796 27.4536 26.4137 26.2968C27.6564 25.132 28.32 23.4676 28.32 21.4973V14.1471C28.32 13.3361 28.1173 12.5512 27.7454 11.8564Z" fill="black"/>
</svg>
