<svg width="32" height="32" viewBox="0 0 32 32" fill="none" xmlns="http://www.w3.org/2000/svg">
<path fill-rule="evenodd" clip-rule="evenodd" d="M16.2159 9.26033H15.7836C15.8532 9.27568 15.9255 9.28377 15.9997 9.28377C16.074 9.28377 16.1463 9.27568 16.2159 9.26033Z" fill="black"/>
<path d="M16.9997 24.7395H18.2106C20.9005 24.7395 23.0804 22.5596 23.0804 19.8697C23.0802 17.1799 20.9004 14.9999 18.2106 14.9999H13.7887C12.2037 14.9999 10.9189 13.7152 10.9189 12.1301C10.9191 10.5448 12.2038 9.26033 13.7887 9.26033H15.7836H16.2159H20.9762L21.0778 9.25513C21.5823 9.20415 21.9762 8.77828 21.9762 8.26033C21.9762 7.74239 21.5823 7.31652 21.0778 7.26554L20.9762 7.26034H16.9997V5.00513C16.9997 4.45284 16.552 4.00513 15.9997 4.00513C15.4475 4.00513 14.9997 4.45284 14.9997 5.00513V7.26034H13.7887C11.0992 7.26034 8.91906 9.44025 8.91895 12.1301C8.91895 14.8197 11.0991 16.9999 13.7887 16.9999H18.2106C19.7959 16.9999 21.0802 18.2845 21.0804 19.8697C21.0804 21.4551 19.796 22.7395 18.2106 22.7395H11.0244C10.4722 22.7395 10.0246 23.1874 10.0244 23.7395C10.0244 24.2918 10.4721 24.7395 11.0244 24.7395H14.9997V26.9999L15.0049 27.1028C15.0564 27.6067 15.4822 27.9999 15.9997 27.9999C16.5173 27.9999 16.943 27.6067 16.9945 27.1028L16.9997 26.9999V24.7395Z" fill="black"/>
</svg>
