<?xml version="1.0" encoding="UTF-8"?>
<svg id="Capa_1" xmlns="http://www.w3.org/2000/svg" version="1.1" viewBox="0 0 32 32">
  <!-- Generator: Adobe Illustrator 30.0.0, SVG Export Plug-In . SVG Version: 2.1.1 Build 123)  -->
  <defs>
    <style>
      .st0 {
        fill-rule: evenodd;
      }
    </style>
  </defs>
  <path class="st0" d="M23.11,7.33h-.15c.08,0,.19,0,.3.02-.05,0-.1-.02-.15-.02Z"/>
  <path class="st0" d="M10.79,17.58h-3.18c-.55,0-1,.45-1,1s.45,1,1,1h3.18c.55,0,1-.45,1-1s-.45-1-1-1Z"/>
  <path class="st0" d="M24.51,7.56c-.17-.06-.38-.11-.6-.14-.35-.06-.71-.09-.95-.1h-.16s-1.94-.1-1.94-.1v-1.58c0-.55-.45-1-1-1s-1,.45-1,1v1.58l-9.78.05c-.27.03-.52.06-.93.13-2.84.5-5,2.99-5,5.97v6.64c0,1.38,1.05,2.52,2.39,2.65h.27s6.8.01,6.8.01h.1s.38,0,.38,0v3.09c0,1.47,1.19,2.67,2.67,2.67h1.17c1.47,0,2.67-1.19,2.67-2.67v-3.09h4.87s1.74,0,1.74,0c1.47,0,2.67-1.19,2.67-2.67v-6.64c0-2.76-1.84-5.08-4.35-5.82ZM20.08,13.99c.75,0,1.35.6,1.35,1.35,0,.75-.61,1.35-1.35,1.35-.74,0-1.35-.6-1.35-1.35h0c0-.76.61-1.36,1.35-1.36ZM13.27,20.03c0,.35-.27.63-.6.66-.02,0-.04,0-.06,0h-4.39s-.05,0-.08,0h-2.33c-.37,0-.67-.3-.67-.67v-6.64c0-2.25,1.82-4.07,4.07-4.07,2.25,0,4.07,1.82,4.07,4.07v6.64ZM17.58,25.78c0,.37-.3.67-.67.67h-1.17c-.37,0-.67-.3-.67-.67v-3.04h2.51v3.04ZM26.86,20.03c0,.37-.3.67-.67.67h-1.74s-5.06,0-5.06,0c-.02,0-.04,0-.06,0h-4.15c.05-.21.08-.43.08-.66v-6.64c0-1.61-.63-3.07-1.65-4.16h5.23v3c-1.24.49-2.12,1.7-2.12,3.12,0,1.37.82,2.55,2,3.07.31.14.65.23,1.01.27l.34.02c1.74,0,3.16-1.32,3.33-3.01l.02-.34c0-1.59-1.1-2.91-2.58-3.26v-2.85h1.94c2.25,0,4.07,1.91,4.07,4.16v6.64Z"/>
</svg>