<svg width="33" height="32" viewBox="0 0 33 32" fill="none" xmlns="http://www.w3.org/2000/svg">
<path d="M9.319 7.29291C8.9441 6.90239 8.33625 6.90239 7.96135 7.29291C7.58645 7.68343 7.58645 8.3166 7.96135 8.70712L14.9625 16L7.96135 23.2929C7.58645 23.6835 7.58645 24.3165 7.96135 24.7071C8.33625 25.0976 8.9441 25.0976 9.319 24.7071L16.3202 17.4143L23.3214 24.7071C23.6963 25.0976 24.304 25.0976 24.679 24.7071C25.0539 24.3165 25.0539 23.6835 24.679 23.2929L17.6779 16L24.679 8.70712C25.0539 8.3166 25.0539 7.68343 24.679 7.29291C24.304 6.90239 23.6963 6.90239 23.3214 7.29291L16.3202 14.5857L9.319 7.29291Z" fill="black"/>
</svg>
