<svg width="32" height="32" viewBox="0 0 32 32" fill="none" xmlns="http://www.w3.org/2000/svg">
<path d="M17.1917 11.4884C17.1916 10.8298 16.6574 10.297 16.0003 10.297C15.3421 10.297 14.809 10.8302 14.8089 11.4884C14.8089 12.1455 15.3418 12.6797 16.0003 12.6798C16.6577 12.6798 17.1917 12.1458 17.1917 11.4884ZM19.1917 11.4884C19.1917 13.2504 17.7623 14.6798 16.0003 14.6798C14.2377 14.6797 12.8089 13.2506 12.8089 11.4884C12.809 9.72559 14.2375 8.29704 16.0003 8.29696C17.7625 8.29696 19.1916 9.7258 19.1917 11.4884Z" fill="black"/>
<path fill-rule="evenodd" clip-rule="evenodd" d="M19.1917 11.4884C19.1917 13.2504 17.7623 14.6798 16.0003 14.6798C14.2377 14.6797 12.8089 13.2506 12.8089 11.4884C12.809 9.72559 14.2375 8.29704 16.0003 8.29696C17.7625 8.29696 19.1916 9.7258 19.1917 11.4884ZM16.0003 10.297C16.6574 10.297 17.1916 10.8298 17.1917 11.4884C17.1917 12.1458 16.6577 12.6798 16.0003 12.6798C15.3418 12.6797 14.8089 12.1455 14.8089 11.4884C14.809 10.8302 15.3421 10.297 16.0003 10.297Z" fill="black"/>
<path fill-rule="evenodd" clip-rule="evenodd" d="M15.4369 24.1682C12.7016 24.1218 10.2749 23.7151 8.53125 23.1075C7.59943 22.7828 6.91711 22.4189 6.48698 22.0645C6.05008 21.7046 5.98828 21.4574 5.98828 21.3484C5.98845 21.2391 6.05068 20.9917 6.48698 20.6323C6.91714 20.278 7.59974 19.9139 8.53125 19.5893C9.45586 19.2671 10.5725 19.0018 11.8254 18.8166C12.5471 19.5939 13.2874 20.2467 13.9344 20.7253C14.2949 20.992 14.642 21.2154 14.9526 21.3777C15.2146 21.5146 15.6046 21.6928 15.9995 21.6928C16.3943 21.6928 16.7843 21.5146 17.0463 21.3777C17.3569 21.2154 17.704 20.992 18.0646 20.7253C18.7089 20.2488 19.4454 19.5994 20.1642 18.8266C21.3902 19.0112 22.4838 19.2728 23.3919 19.5893C24.3235 19.9139 25.006 20.278 25.4362 20.6323C25.8725 20.9917 25.9347 21.2391 25.9349 21.3484C25.9349 21.4878 25.8221 21.8501 25.0612 22.3354C24.3402 22.7952 23.2405 23.2253 21.8307 23.5541C21.2929 23.6796 20.9579 24.2168 21.0833 24.7546C21.2088 25.2925 21.7473 25.6262 22.2852 25.5007C23.8148 25.1439 25.1542 24.6482 26.1367 24.0216C27.0794 23.4204 27.9349 22.5344 27.9349 21.3484C27.9347 20.4021 27.3817 19.6441 26.7083 19.0893C26.028 18.5288 25.1033 18.0685 24.0495 17.7013C23.3163 17.4458 22.494 17.2263 21.603 17.0484C22.6988 15.4729 23.5737 13.5605 23.5737 11.5457C23.5737 7.34067 20.1902 3.91675 15.9995 3.91675C11.8085 3.91675 8.42654 7.34084 8.42654 11.5457C8.42657 13.5547 9.29584 15.462 10.3869 17.0349C9.4697 17.2151 8.62418 17.4393 7.8724 17.7013C6.81883 18.0684 5.89505 18.5289 5.21484 19.0893C4.54143 19.6441 3.98846 20.402 3.98828 21.3484C3.98828 22.295 4.54128 23.0539 5.21484 23.6088C5.89507 24.1692 6.81882 24.6297 7.8724 24.9968C9.87088 25.6932 12.5318 26.1226 15.4413 26.1685L15.2929 26.3171C14.9026 26.7077 14.9024 27.3408 15.2929 27.7312C15.6833 28.1214 16.3165 28.1214 16.707 27.7312L18.5598 25.877C18.9503 25.4865 18.9503 24.8535 18.5598 24.463L16.707 22.6101C16.3164 22.2196 15.6834 22.2196 15.2929 22.6101C14.9024 23.0006 14.9024 23.6337 15.2929 24.0242L15.4369 24.1682ZM18.9331 17.2084C19.0782 17.045 19.2206 16.8775 19.3595 16.7063C20.6117 15.1627 21.5736 13.3208 21.5737 11.5457C21.5737 8.42941 19.0699 5.91675 15.9995 5.91675C12.9292 5.91675 10.4265 8.42924 10.4265 11.5457C10.4266 13.318 11.3854 15.1566 12.6344 16.6985C12.7753 16.8724 12.9199 17.0426 13.0672 17.2084C13.5265 17.7256 13.9968 18.1831 14.4358 18.5633C14.6771 18.7723 14.909 18.9579 15.1245 19.1173C15.4292 19.3427 15.686 19.5051 15.8784 19.6056C15.9136 19.6239 15.9448 19.6371 15.971 19.648C15.9813 19.6524 15.9908 19.6564 15.9995 19.6602C16.0082 19.6564 16.0177 19.6523 16.028 19.648C16.0542 19.637 16.0853 19.6239 16.1206 19.6056C16.3129 19.5051 16.5697 19.3426 16.8745 19.1173C17.0887 18.9588 17.3192 18.7745 17.5592 18.567C17.9998 18.1861 18.4721 17.7273 18.9331 17.2084Z" fill="black"/>
</svg>
