<svg width="32" height="32" viewBox="0 0 32 32" fill="none" xmlns="http://www.w3.org/2000/svg">
<path d="M4.03271 20.8674V11.1851C4.03278 9.18314 4.66121 7.39344 5.87126 6.09523C7.08855 4.78935 8.82042 4.06146 10.8582 4.06137H15.2124C15.7647 4.06137 16.2124 4.50909 16.2124 5.06137C16.2124 5.61366 15.7647 6.06137 15.2124 6.06137H10.8582C9.31572 6.06146 8.13511 6.60119 7.3348 7.45981C6.52723 8.32624 6.03277 9.59836 6.03271 11.1851V20.8674C6.03283 22.4552 6.52494 23.7281 7.33089 24.5939C8.12934 25.4515 9.31004 25.991 10.8582 25.9911H21.1343C22.6834 25.991 23.8644 25.4504 24.6629 24.5926C25.4687 23.7269 25.961 22.4549 25.9611 20.8674V16.176C25.9613 15.6238 26.4089 15.176 26.9611 15.176C27.5132 15.176 27.9609 15.6239 27.9611 16.176V20.8674C27.961 22.8679 27.3356 24.6571 26.1265 25.9559C24.9097 27.2628 23.1773 27.991 21.1343 27.9911H10.8582C8.81578 27.991 7.08389 27.2627 5.86735 25.9559C4.65837 24.6571 4.03283 22.868 4.03271 20.8674Z" fill="black"/>
<path d="M20.1047 5.11738C21.5792 3.64443 23.9699 3.6445 25.4445 5.11738L26.8612 6.53535C28.2435 7.91766 28.3306 10.1062 27.1203 11.5887L26.8612 11.8752L18.1177 20.6187C17.4564 21.2799 16.5592 21.6525 15.6229 21.6525H11.2609C10.9914 21.6525 10.733 21.5434 10.5448 21.3505C10.3568 21.1576 10.2542 20.897 10.2609 20.6278L10.3703 16.2268C10.3931 15.3232 10.7626 14.4608 11.4029 13.8205L20.1047 5.11738ZM24.0305 6.53275C23.3801 5.88333 22.3518 5.84334 21.6542 6.41165L21.5187 6.53275L12.8169 15.2346C12.5396 15.5118 12.3802 15.885 12.3703 16.2762L12.287 19.6525H15.6229C16.0281 19.6525 16.417 19.4913 16.7036 19.2046L25.4471 10.4611C26.14 9.76899 26.1409 8.64323 25.4471 7.94941L24.0305 6.53275Z" fill="black"/>
</svg>
