<svg width="32" height="32" viewBox="0 0 32 32" fill="none" xmlns="http://www.w3.org/2000/svg">
<path d="M3.90625 25.9109V17.0854C3.90625 16.5331 4.35397 16.0854 4.90625 16.0854C5.45853 16.0854 5.90625 16.5331 5.90625 17.0854V25.9109C5.90625 25.9455 5.93424 25.9746 5.96875 25.9747H14.7956C15.3477 25.9749 15.7956 26.4226 15.7956 26.9747C15.7954 27.5267 15.3475 27.9745 14.7956 27.9747H5.96875C4.82961 27.9746 3.90625 27.05 3.90625 25.9109Z" fill="black"/>
<path d="M13.8189 18.5406C14.1708 18.1155 14.801 18.0562 15.2264 18.4078C15.652 18.7598 15.7126 19.3911 15.3605 19.8166L12.8319 22.8726C12.6407 23.1035 12.3556 23.2362 12.0558 23.2346C11.756 23.2329 11.4724 23.0965 11.2837 22.8635L10.1678 21.4859L8.44516 23.6148C8.09768 24.044 7.46817 24.1107 7.03891 23.7632C6.60967 23.4157 6.54301 22.7862 6.89047 22.357L9.39177 19.2671L9.4673 19.1838C9.65325 19.0008 9.90526 18.8974 10.1691 18.8974C10.4707 18.8975 10.7567 19.0327 10.9465 19.2671L12.0689 20.6552L13.8189 18.5406Z" fill="black"/>
<path d="M26.0936 26.9754V24.6069C26.0936 24.0546 26.5413 23.6069 27.0936 23.6069C27.6459 23.6069 28.0936 24.0546 28.0936 24.6069V26.9754C28.0936 27.5277 27.6459 27.9754 27.0936 27.9754C26.5413 27.9754 26.0936 27.5277 26.0936 26.9754Z" fill="black"/>
<path d="M22.2308 26.9789V19.2888C22.2308 18.7365 22.6785 18.2888 23.2308 18.2888C23.783 18.2888 24.2308 18.7365 24.2308 19.2888V26.9789C24.2308 27.5312 23.783 27.9789 23.2308 27.9789C22.6785 27.9789 22.2308 27.5312 22.2308 26.9789Z" fill="black"/>
<path d="M18.3673 26.9757V22.4536C18.3673 21.9013 18.8151 21.4536 19.3673 21.4536C19.9196 21.4536 20.3673 21.9013 20.3673 22.4536V26.9757C20.3673 27.528 19.9196 27.9757 19.3673 27.9757C18.8151 27.9757 18.3674 27.528 18.3673 26.9757Z" fill="black"/>
<path fill-rule="evenodd" clip-rule="evenodd" d="M15.7101 4.05898C15.7662 4.05628 15.8224 4.05436 15.8788 4.05323C15.8623 4.05241 15.8456 4.052 15.8289 4.052C15.7887 4.052 15.7491 4.05437 15.7101 4.05898ZM21.9464 10.2392L21.9487 10.1718C21.9487 10.1944 21.9479 10.2169 21.9464 10.2392Z" fill="black"/>
<path fill-rule="evenodd" clip-rule="evenodd" d="M15.8788 4.05323C15.8224 4.05436 15.7662 4.05628 15.7101 4.05898C12.5574 4.21063 10.0477 6.81549 10.0477 10.0051C10.0481 13.2926 12.7134 15.9569 16.0009 15.9569C19.2881 15.9566 21.9524 13.2924 21.9527 10.0051C21.9527 6.71822 19.2884 4.05231 16.0009 4.052C15.9601 4.052 15.9194 4.05241 15.8788 4.05323ZM19.8647 9.17179H16.8289V6.13902C18.3453 6.4626 19.5395 7.65613 19.8647 9.17179ZM21.9464 10.2392L21.9487 10.1718C21.9487 10.1944 21.9479 10.2169 21.9464 10.2392ZM19.7776 11.1718C19.2798 12.7848 17.7774 13.9567 16.0009 13.9569C13.8179 13.9569 12.0481 12.188 12.0478 10.0051C12.0478 8.23043 13.2179 6.72825 14.8289 6.22869V9.62231C14.8291 10.4783 15.5237 11.1718 16.3797 11.1718H19.7776Z" fill="black"/>
</svg>
