<svg width="32" height="32" viewBox="0 0 32 32" fill="none" xmlns="http://www.w3.org/2000/svg">
<path d="M23.9095 16.7839C23.9095 14.913 23.9307 13.473 23.9499 12.3555C23.9693 11.2296 23.9866 10.4555 23.9825 9.8881C23.9782 9.30519 23.9484 9.04287 23.9122 8.90242C23.8941 8.83271 23.8862 8.81286 23.8106 8.73706L23.6882 8.62899C23.3239 8.33099 22.4081 7.72568 21.1114 7.16024C19.6576 6.52633 17.842 5.99499 15.9799 5.99487C14.1175 5.99487 12.3008 6.52628 10.847 7.16024C9.36585 7.80619 8.38236 8.50379 8.15043 8.73576L8.14913 8.73706C8.07275 8.81347 8.0643 8.83286 8.04626 8.90242C8.00993 9.04261 7.98031 9.30487 7.97595 9.8881C7.97172 10.4554 7.99047 11.2295 8.00981 12.3555C8.02899 13.473 8.04887 14.913 8.04887 16.7839C8.04887 20.1977 9.45717 22.4658 11.1426 23.8972C12.8705 25.3646 14.8783 25.9428 15.9799 25.9428C17.0821 25.9426 19.0885 25.3641 20.8158 23.8972C22.5011 22.4658 23.9095 20.1978 23.9095 16.7839ZM25.9095 16.7839C25.9095 20.8258 24.2118 23.638 22.1114 25.422C20.0536 27.1697 17.5957 27.9426 15.9799 27.9428C14.3647 27.9428 11.9064 27.1696 9.84835 25.422C7.74777 23.638 6.04887 20.8258 6.04887 16.7839C6.04887 14.9281 6.02888 13.5001 6.00981 12.3894C5.99088 11.2873 5.97277 10.4724 5.97725 9.87248C5.98163 9.28883 6.00551 8.80475 6.11007 8.40112C6.23293 7.9271 6.45341 7.60473 6.73507 7.323L6.95121 7.12638C7.53536 6.63494 8.65978 5.93211 10.0476 5.3269C11.6622 4.6228 13.7577 3.99487 15.9799 3.99487C18.2018 3.99499 20.2963 4.62288 21.9108 5.3269C23.2995 5.93241 24.4243 6.63526 25.0085 7.12638L25.2247 7.323L25.4239 7.54435C25.61 7.77608 25.7564 8.0459 25.8483 8.40112C25.9527 8.8046 25.9782 9.28875 25.9825 9.87248C25.9869 10.4723 25.9676 11.2873 25.9486 12.3894C25.9295 13.5001 25.9095 14.9281 25.9095 16.7839Z" fill="black"/>
<path d="M18.9869 12.5795C19.3773 12.1889 20.0103 12.1891 20.4009 12.5795C20.7915 12.9699 20.7913 13.603 20.4009 13.9936L15.8645 18.5326C15.6768 18.7203 15.4215 18.827 15.1561 18.8269C14.8908 18.8267 14.6365 18.7204 14.4491 18.5326L12.2473 16.3269C11.8571 15.9362 11.8567 15.3031 12.2473 14.9128C12.638 14.5227 13.2711 14.5235 13.6613 14.9141L15.1561 16.4115L18.9869 12.5795Z" fill="black"/>
</svg>
