<svg width="32" height="32" viewBox="0 0 32 32" fill="none" xmlns="http://www.w3.org/2000/svg">
<path d="M8.64665 16.0001C8.64665 15.2637 8.04969 14.6667 7.31331 14.6667C6.57693 14.6667 5.97998 15.2637 5.97998 16.0001C5.97998 16.7365 6.57693 17.3334 7.31331 17.3334C8.04969 17.3334 8.64665 16.7365 8.64665 16.0001ZM10.6466 16.0001C10.6466 17.841 9.15426 19.3334 7.31331 19.3334C5.47236 19.3334 3.97998 17.841 3.97998 16.0001C3.97998 14.1591 5.47236 12.6667 7.31331 12.6667C9.15426 12.6667 10.6466 14.1591 10.6466 16.0001Z" fill="black"/>
<path d="M17.3333 16.0001C17.3333 15.2637 16.7364 14.6667 16 14.6667C15.2636 14.6667 14.6667 15.2637 14.6667 16.0001C14.6667 16.7365 15.2636 17.3334 16 17.3334C16.7364 17.3334 17.3333 16.7365 17.3333 16.0001ZM19.3333 16.0001C19.3333 17.841 17.8409 19.3334 16 19.3334C14.159 19.3334 12.6667 17.841 12.6667 16.0001C12.6667 14.1591 14.159 12.6667 16 12.6667C17.8409 12.6667 19.3333 14.1591 19.3333 16.0001Z" fill="black"/>
<path d="M26.02 16.0001C26.02 15.2637 25.423 14.6667 24.6867 14.6667C23.9503 14.6667 23.3533 15.2637 23.3533 16.0001C23.3533 16.7365 23.9503 17.3334 24.6867 17.3334C25.423 17.3334 26.02 16.7365 26.02 16.0001ZM28.02 16.0001C28.02 17.841 26.5276 19.3334 24.6867 19.3334C22.8457 19.3334 21.3533 17.841 21.3533 16.0001C21.3533 14.1591 22.8457 12.6667 24.6867 12.6667C26.5276 12.6667 28.02 14.1591 28.02 16.0001Z" fill="black"/>
</svg>
