<?xml version="1.0" encoding="UTF-8"?>
<svg id="Capa_1" xmlns="http://www.w3.org/2000/svg" version="1.1" viewBox="0 0 32 32">
  <!-- Generator: Adobe Illustrator 30.0.0, SVG Export Plug-In . SVG Version: 2.1.1 Build 123)  -->
  <defs>
    <style>
      .st0 {
        fill-rule: evenodd;
      }
    </style>
  </defs>
  <path class="st0" d="M10.21,6.06h11.58c.55,0,1-.45,1-1s-.45-1-1-1h-11.58c-.55,0-1,.45-1,1s.45,1,1,1Z"/>
  <path class="st0" d="M10.47,21.9h1.35c.55,0,1-.45,1-1s-.45-1-1-1h-1.35c-.55,0-1,.45-1,1s.45,1,1,1Z"/>
  <path class="st0" d="M27.54,13.88l-.76-4.05c-.24-1.26-1.34-2.17-2.62-2.17H7.86c-1.28,0-2.38.91-2.62,2.16l-.77,4.06c-.21.97.28,1.91,1.09,2.34v8.52c0,1.8,1.46,3.26,3.26,3.26h7.15s.05,0,.07,0,.05,0,.07,0h4.73s.05,0,.07,0,.05,0,.07,0h2.22c1.8,0,3.26-1.46,3.26-3.26v-8.52c.81-.43,1.3-1.36,1.09-2.33ZM13.3,9.65h5.47v4.81h-5.47v-4.81ZM6.42,14.29s0-.03,0-.04l.78-4.06c.06-.31.33-.54.65-.54h3.44v4.81h-4.75c-.09,0-.15-.08-.13-.17ZM19.9,25.99h-2.87v-3.82c0-.79.64-1.43,1.43-1.43.79,0,1.43.64,1.43,1.43v3.82ZM24.45,24.74c0,.69-.56,1.26-1.26,1.26h-1.29v-3.82c0-1.9-1.54-3.43-3.43-3.43-1.9,0-3.43,1.54-3.43,3.43v3.82h-6.22c-.69,0-1.26-.56-1.26-1.26v-8.28h16.89v8.28ZM25.45,14.46h-4.68v-4.81h3.39c.32,0,.59.23.65.54l.76,4.05s0,.03,0,.04c.02.09-.04.17-.13.17Z"/>
</svg>