<svg width="32" height="32" viewBox="0 0 32 32" fill="none" xmlns="http://www.w3.org/2000/svg">
<path d="M24.8208 14.0312C24.8206 13.6849 24.5381 13.4036 24.1919 13.4036H21.8599V26.0833H24.1919C24.5387 26.0833 24.8208 25.8015 24.8208 25.4544V14.0312ZM19.8599 6.69141C19.8599 6.34505 19.5785 6.06264 19.2323 6.0625H15.1489C14.801 6.06265 14.52 6.34555 14.52 6.69141V8.60547C14.52 9.15764 14.0721 9.60528 13.52 9.60547H7.80908C7.46198 9.60547 7.1802 9.88751 7.18018 10.2344V25.4544C7.18018 25.8019 7.46149 26.0833 7.80908 26.0833H19.8599V6.69141ZM21.8599 11.4036H24.1919C25.6428 11.4036 26.8206 12.5804 26.8208 14.0312V25.4544C26.8208 26.9069 25.6424 28.0833 24.1919 28.0833H7.80908C6.35691 28.0833 5.18018 26.9065 5.18018 25.4544V10.2344C5.1802 8.78389 6.35646 7.60547 7.80908 7.60547H12.52V6.69141C12.52 5.24006 13.6973 4.06265 15.1489 4.0625H19.2323C20.6831 4.06264 21.8599 5.24054 21.8599 6.69141V11.4036Z" fill="black"/>
<path d="M10.8787 21.2164C11.4208 21.1107 11.9462 21.4647 12.0519 22.0067L12.0545 22.0198C12.1602 22.5618 11.8062 23.0872 11.2641 23.1929C10.7221 23.2986 10.1966 22.9447 10.091 22.4026L10.0884 22.3896C9.98267 21.8475 10.3366 21.3221 10.8787 21.2164Z" fill="black"/>
<path d="M10.8787 16.8307C11.4208 16.725 11.9462 17.079 12.0519 17.6211L12.0545 17.6341C12.1602 18.1762 11.8062 18.7016 11.2642 18.8073C10.7221 18.913 10.1967 18.559 10.091 18.0169L10.0884 18.0039C9.9827 17.4618 10.3367 16.9364 10.8787 16.8307Z" fill="black"/>
<path d="M10.8787 12.346C11.4208 12.2404 11.9462 12.5943 12.0519 13.1364L12.0545 13.1494C12.1602 13.6915 11.8062 14.2169 11.2641 14.3226C10.7221 14.4283 10.1967 14.0743 10.091 13.5322L10.0884 13.5192C9.98267 12.9772 10.3367 12.4517 10.8787 12.346Z" fill="black"/>
<path d="M15.7805 21.2151C16.3229 21.1123 16.8468 21.4695 16.9498 22.012L16.9511 22.025C17.0542 22.5675 16.6981 23.0912 16.1555 23.1942C15.6132 23.297 15.0895 22.9409 14.9862 22.3987L14.9836 22.3843C14.8809 21.842 15.2381 21.3181 15.7805 21.2151Z" fill="black"/>
<path d="M15.7805 16.8294C16.3229 16.7267 16.8468 17.0839 16.9498 17.6263L16.9511 17.6393C17.0542 18.1819 16.6981 18.7055 16.1555 18.8086C15.6132 18.9114 15.0895 18.5552 14.9862 18.013L14.9836 17.9987C14.8809 17.4563 15.2381 16.9325 15.7805 16.8294Z" fill="black"/>
<path d="M15.7805 12.3447C16.3229 12.242 16.8467 12.5992 16.9498 13.1416L16.9511 13.1546C17.0542 13.6972 16.6981 14.2208 16.1555 14.3239C15.6132 14.4267 15.0895 14.0705 14.9862 13.5283L14.9836 13.514C14.8809 12.9716 15.2381 12.4478 15.7805 12.3447Z" fill="black"/>
</svg>
