<?xml version="1.0" encoding="UTF-8"?>
<svg id="Capa_1" xmlns="http://www.w3.org/2000/svg" version="1.1" viewBox="0 0 32 32">
  <!-- Generator: Adobe Illustrator 30.0.0, SVG Export Plug-In . SVG Version: 2.1.1 Build 123)  -->
  <defs>
    <style>
      .st0 {
        fill-rule: evenodd;
      }
    </style>
  </defs>
  <path class="st0" d="M17.4,18.45c-.95.41-1.86.41-2.81,0-.51-.22-1.1,0-1.32.52-.22.51,0,1.1.52,1.32,1.46.64,2.95.64,4.41,0,.51-.22.74-.81.52-1.32-.22-.51-.81-.74-1.32-.52Z"/>
  <path class="st0" d="M18.94,13.67c-.55,0-1,.46-1,1.01s.45,1,1,1,1-.46,1-1.01-.45-1-1-1Z"/>
  <path class="st0" d="M14.06,14.67c0-.55-.45-1-1-1s-1,.46-1,1.01.45,1,1,1,1-.46,1-1.01Z"/>
  <path class="st0" d="M20.46,27h-8.91c-.55,0-1,.45-1,1s.45,1,1,1h8.91c.55,0,1-.45,1-1s-.45-1-1-1Z"/>
  <path class="st0" d="M25.14,13.72c-.15-1.2-.61-2.28-1.39-3.11-.96-1.03-2.33-1.6-3.91-1.6h-2.84v-.92c.97-.39,1.65-1.34,1.65-2.45,0-1.46-1.19-2.65-2.65-2.65-1.46,0-2.65,1.18-2.65,2.65,0,1.11.68,2.06,1.65,2.45v.92h-2.84c-1.58,0-2.95.57-3.91,1.6-.77.83-1.24,1.91-1.39,3.11-1.6.3-2.81,1.7-2.81,3.39s1.2,3.08,2.79,3.38c.11,1.3.59,2.47,1.41,3.35.96,1.03,2.33,1.6,3.91,1.6h7.67c1.59,0,2.95-.57,3.91-1.6.83-.89,1.3-2.05,1.41-3.35,1.59-.31,2.79-1.71,2.79-3.38s-1.21-3.09-2.81-3.39ZM6.81,18.39c-.45-.24-.76-.72-.76-1.28s.31-1.03.76-1.27v2.55ZM16,5c.36,0,.65.29.65.65,0,.36-.29.65-.65.65-.36,0-.65-.29-.65-.65,0-.36.29-.65.65-.65ZM23.19,14.72v4.79s0,.03,0,.05,0,.03,0,.05v.27c0,1.13-.35,2.02-.9,2.61-.54.58-1.36.96-2.45.96h-7.67c-1.09,0-1.91-.38-2.45-.96-.55-.59-.9-1.48-.9-2.61v-5.29c0-1.13.35-2.02.9-2.61.55-.58,1.36-.96,2.45-.96h7.67c1.09,0,1.91.38,2.45.96.55.59.9,1.48.9,2.61,0,0,0,.02,0,.03,0,.02,0,.03,0,.05s0,.03,0,.05ZM25.19,18.39v-2.55c.45.24.76.72.76,1.27s-.31,1.03-.76,1.28Z"/>
</svg>