<?xml version="1.0" encoding="UTF-8"?>
<svg id="Capa_1" xmlns="http://www.w3.org/2000/svg" version="1.1" viewBox="0 0 32 32">
  <!-- Generator: Adobe Illustrator 30.0.0, SVG Export Plug-In . SVG Version: 2.1.1 Build 123)  -->
  <defs>
    <style>
      .st0 {
        fill-rule: evenodd;
      }
    </style>
  </defs>
  <path class="st0" d="M27.16,18.07v-3.28c0-1.57-.46-3-1.39-4.05-.63-.72-1.45-1.22-2.39-1.47.27-.51.43-1.09.43-1.7,0-1.91-1.51-3.52-3.43-3.52-2.28,0-3.63,1.7-4.35,3.05l-.03.06-.03-.06c-.72-1.35-2.08-3.05-4.35-3.05-1.93,0-3.43,1.61-3.43,3.52,0,.61.15,1.19.43,1.7-.94.25-1.76.76-2.39,1.47-.93,1.05-1.39,2.48-1.39,4.05v7.44c0,1.57.46,3,1.39,4.05.94,1.06,2.28,1.66,3.85,1.66h11.85c1.57,0,2.91-.6,3.85-1.66.93-1.05,1.39-2.48,1.39-4.05v-3.99s0-.06,0-.09,0-.06,0-.09ZM11.61,6.06c1.13,0,1.97.82,2.59,1.99.19.36.34.72.46,1.04h-3.05s-.09,0-.13,0c-.7-.07-1.3-.69-1.3-1.51,0-.87.67-1.52,1.43-1.52ZM15,25.94h-4.92c-1.04,0-1.82-.38-2.35-.98-.54-.61-.89-1.54-.89-2.73v-3.07h8.16v6.78ZM15,17.16H6.83v-2.37c0-1.19.35-2.11.89-2.73.53-.6,1.31-.98,2.35-.98h1.33c.07,0,.14,0,.21,0h3.38s0,6.07,0,6.07ZM17.79,8.05c.62-1.16,1.46-1.99,2.59-1.99.76,0,1.43.65,1.43,1.52,0,.82-.6,1.44-1.3,1.51-.04,0-.09,0-.13,0h-3.05c.12-.33.27-.69.46-1.05ZM25.16,22.24c0,1.19-.35,2.11-.89,2.73-.53.6-1.31.98-2.35.98h-4.93v-6.78h8.17v3.07ZM25.16,17.16h-8.17v-6.07h3.38c.07,0,.14,0,.21,0h1.34c1.04,0,1.82.38,2.35.98.54.61.89,1.54.89,2.73v2.37Z"/>
</svg>