<svg width="32" height="32" viewBox="0 0 32 32" fill="none" xmlns="http://www.w3.org/2000/svg">
<path d="M9.70394 23.4665C9.70394 22.2683 8.80015 21.2815 7.63753 21.1488V26.3441C8.80005 26.2112 9.70394 25.2258 9.70394 24.0277V23.4665ZM11.7039 24.0277C11.7039 26.4207 9.76354 28.3607 7.3706 28.361H7.3042C6.38372 28.361 5.63753 27.6148 5.63753 26.6943V20.7998C5.63753 19.8793 6.38372 19.1331 7.3042 19.1331H7.3706C9.76354 19.1335 11.7039 21.0735 11.7039 23.4665V24.0277Z" fill="black"/>
<path d="M21.2705 24.2113V23.2829C21.2709 20.991 23.1296 19.1331 25.4215 19.1331C25.9735 19.1335 26.4215 19.5811 26.4215 20.1331C26.4215 20.6852 25.9735 21.1328 25.4215 21.1331C24.2341 21.1331 23.2709 22.0955 23.2705 23.2829V24.2113L23.2822 24.4313C23.3925 25.5155 24.3083 26.361 25.4215 26.361C25.9734 26.3614 26.4213 26.8092 26.4215 27.361C26.4215 27.9131 25.9735 28.3607 25.4215 28.361C23.201 28.361 21.3869 26.6177 21.2757 24.4248L21.2705 24.2113Z" fill="black"/>
<path d="M22.0288 12.9309H24.5402V17.1588C24.5402 17.7111 24.9879 18.1588 25.5402 18.1588C26.0922 18.1584 26.5402 17.7109 26.5402 17.1588V12.5416C26.5402 11.6209 26.1828 10.7348 25.5467 10.0715L20.8032 5.13143C20.1313 4.43216 19.2027 4.03652 18.2329 4.03638L11.1626 4.03768C8.06873 4.02817 5.53239 6.49307 5.45947 9.58846V17.1588C5.45947 17.7111 5.90719 18.1588 6.45947 18.1588C7.01176 18.1588 7.45947 17.7111 7.45947 17.1588V9.63533C7.50675 7.62849 9.15216 6.02865 11.16 6.03638H17.8361V8.72648C17.8345 11.045 19.7105 12.9261 22.0288 12.9309ZM23.5989 10.9309H22.0327C20.8938 10.9284 19.9596 10.0621 19.8478 8.95304L19.8361 8.72778V7.01214L23.5989 10.9309Z" fill="black"/>
<path d="M17.3615 25.5168V21.9778C17.3613 21.4952 16.9691 21.1041 16.4865 21.1041C16.004 21.1043 15.613 21.4953 15.6128 21.9778V25.5168C15.613 25.9993 16.004 26.3904 16.4865 26.3905C16.9691 26.3905 17.3613 25.9994 17.3615 25.5168ZM19.3459 25.8098C19.1989 27.2593 17.9747 28.3905 16.4865 28.3905C14.9984 28.3904 13.774 27.2592 13.6271 25.8098L13.6128 25.5168V21.9778C13.613 20.3908 14.8995 19.1043 16.4865 19.1041C18.0737 19.1041 19.3613 20.3907 19.3615 21.9778V25.5168L19.3459 25.8098Z" fill="black"/>
</svg>
