<?xml version="1.0" encoding="UTF-8"?>
<svg id="Capa_1" xmlns="http://www.w3.org/2000/svg" version="1.1" viewBox="0 0 32 32">
  <!-- Generator: Adobe Illustrator 30.0.0, SVG Export Plug-In . SVG Version: 2.1.1 Build 123)  -->
  <defs>
    <style>
      .st0 {
        fill-rule: evenodd;
      }
    </style>
  </defs>
  <path class="st0" d="M24.32,19.36l-2.1,2.1-.7-.7c-.39-.39-1.02-.39-1.41,0-.39.39-.39,1.02,0,1.41l1.4,1.4c.39.39,1.02.39,1.41,0l2.8-2.8c.39-.39.39-1.02,0-1.41-.39-.39-1.02-.39-1.41,0Z"/>
  <path class="st0" d="M28.34,16.17c-.71-.76-1.71-1.17-2.86-1.17h-5.12c-.27,0-.53.02-.79.07-.13-2-1.27-3.73-2.91-4.68.45-.43.77-1.01.74-1.77,0-.26-.04-.53-.09-.79l1.36-1.02c.25-.18.55-.29.86-.29h2.2c.55,0,1-.45,1-1s-.45-1-1-1h-2.2c-.74,0-1.46.24-2.05.68l-.92.68c-.39-.61-.92-1.15-1.58-1.54-1.38-.81-2.82-.83-4.18-.12l-.27.15c-.66.39-1.16.92-1.53,1.51l-.91-.68c-.59-.44-1.31-.68-2.05-.68h-2.2c-.55,0-1,.45-1,1s.45,1,1,1h2.2c.31,0,.61.1.86.29l1.37,1.02c-.04.24-.07.48-.09.72-.06.79.27,1.39.74,1.84-1.75,1.02-2.92,2.91-2.92,5.08v5.81c0,1.84,1.45,3.34,3.27,3.43.16,1.81,1.67,3.23,3.52,3.23,1.85,0,3.37-1.42,3.52-3.23.07,0,.14,0,.2-.02.13.79.46,1.5.98,2.07.71.76,1.71,1.17,2.86,1.17h5.12c1.14,0,2.15-.41,2.86-1.17.7-.76,1.05-1.78,1.05-2.88v-4.83c0-1.1-.35-2.12-1.05-2.88ZM10.33,7.83c.03-.07.05-.14.06-.21.23-.66.62-1.2,1.17-1.52l.31-.16c.72-.33,1.39-.28,2.11.14.55.32.97.87,1.21,1.51.04.1.07.2.1.3.07.26.11.53.12.81v.08c-.04.1-.14.26-.54.45-.5.23-1.23.38-2.02.38-.02,0-.05,0-.07,0-.82,0-1.58-.16-2.08-.4-.51-.25-.51-.45-.5-.5.02-.3.07-.59.15-.86ZM14.33,24.4c0,.85-.69,1.53-1.53,1.53-.85,0-1.53-.69-1.54-1.53v-4.74c0-.85.69-1.54,1.54-1.54.85,0,1.53.69,1.53,1.54v4.74ZM17.58,16.09s-.05.05-.08.08c-.7.76-1.05,1.78-1.05,2.88v3.62s-.08.02-.13.02v-3.04c0-1.95-1.58-3.54-3.53-3.54-1.95,0-3.54,1.58-3.54,3.54v3.04c-.71-.09-1.25-.69-1.25-1.42v-5.81c0-2.14,1.73-3.87,3.87-3.87h1.84c2.14,0,3.87,1.73,3.87,3.87v.63ZM27.39,23.88c0,.69-.21,1.19-.51,1.52-.29.32-.74.54-1.39.54h-5.12c-.65,0-1.1-.22-1.39-.54-.3-.32-.51-.83-.51-1.52v-4.83c0-.69.21-1.19.51-1.52.16-.17.36-.31.62-.41.22-.08.48-.13.78-.13h5.12c.65,0,1.1.22,1.39.54.3.32.51.83.51,1.52v4.83Z"/>
</svg>