<svg width="32" height="32" viewBox="0 0 32 32" fill="none" xmlns="http://www.w3.org/2000/svg">
<path d="M15.5125 13.5287C15.5125 12.494 14.6744 11.6563 13.6414 11.6563C12.607 11.6563 11.769 12.4943 11.769 13.5287C11.769 14.5617 12.6068 15.3998 13.6414 15.3998C14.6747 15.3998 15.5125 14.562 15.5125 13.5287ZM17.5125 13.5287C17.5125 15.6665 15.7793 17.3998 13.6414 17.3998C11.5027 17.3998 9.76904 15.6668 9.76904 13.5287C9.76905 11.3897 11.5025 9.65633 13.6414 9.65633C15.7795 9.65633 17.5125 11.39 17.5125 13.5287Z" fill="black"/>
<path fill-rule="evenodd" clip-rule="evenodd" d="M11.1191 25.3868C11.3657 25.5692 11.6058 25.7347 11.8349 25.8803H6.2347C5.68242 25.8803 5.2347 26.328 5.2347 26.8803C5.2347 27.4326 5.68242 27.8803 6.2347 27.8803L16.1327 27.8738L16.2694 27.8803H26.638C27.3282 27.8803 27.8964 27.3558 27.9648 26.6837L27.9727 26.547V14.297C27.9727 13.5606 27.3744 12.9636 26.638 12.9636H23.2351C22.9072 7.91947 18.7439 3.91675 13.64 3.91675C8.32128 3.91692 4.02539 8.26362 4.02539 13.6055C4.02564 17.035 6.02836 20.2643 8.06836 22.5613C9.10337 23.7266 10.1891 24.6988 11.1191 25.3868ZM21.2297 12.9636C20.9064 9.01172 17.6249 5.91675 13.64 5.91675C9.44195 5.91692 6.02539 9.35202 6.02539 13.6055C6.02565 16.3039 7.64164 19.0682 9.56445 21.2332C10.5111 22.299 11.4936 23.1764 12.3079 23.7787C12.7162 24.0807 13.0673 24.3027 13.3379 24.4441C13.4937 24.5255 13.5916 24.5623 13.64 24.5795C13.6881 24.5623 13.7868 24.5259 13.9434 24.4441C14.2057 24.307 14.5437 24.0941 14.936 23.8062V18.5678C14.936 17.8314 15.533 17.2345 16.2694 17.2345H17.9453V14.297C17.9453 13.5606 18.5423 12.9636 19.2786 12.9636H21.2297ZM25.9727 14.9636V25.8803H22.9582V18.5678C22.9582 18.1406 22.7573 17.7604 22.4449 17.5164C22.2187 17.3397 21.9341 17.2345 21.6248 17.2345H19.9453V14.9636H25.9727ZM20.9582 25.8803H16.936V19.2345H20.9582V25.8803Z" fill="black"/>
</svg>
