<svg width="32" height="32" viewBox="0 0 32 32" fill="none" xmlns="http://www.w3.org/2000/svg">
<path d="M15.9653 6.50513C20.9791 6.50513 25.3855 10.0513 27.8052 15.5989C27.9163 15.8537 27.9162 16.1435 27.8052 16.3984C25.3869 21.9428 20.9847 25.4879 15.9744 25.4921H15.9601C10.9507 25.4872 6.54879 21.9451 4.13068 16.3984C4.01964 16.1435 4.01954 15.8537 4.13068 15.5989C6.55021 10.0516 10.9562 6.50525 15.9653 6.50513ZM15.9653 8.50513C12.0989 8.50525 8.37924 11.1818 6.145 15.9986C8.37855 20.8166 12.097 23.491 15.9679 23.4921C19.8385 23.491 23.5558 20.8143 25.7895 15.9986C23.5553 11.1823 19.8366 8.50513 15.9653 8.50513Z" fill="black"/>
<path d="M18.7039 16.0077C18.7039 14.5418 17.4925 13.328 15.9708 13.328C14.448 13.3284 13.2378 14.5422 13.2378 16.0077C13.2378 17.4717 14.4479 18.6858 15.9708 18.6861C17.4927 18.6861 18.7038 17.4721 18.7039 16.0077ZM20.7039 16.0077C20.7038 18.6041 18.5696 20.6861 15.9708 20.6861C13.3713 20.6858 11.2378 18.6041 11.2378 16.0077C11.2378 13.4102 13.3711 11.3284 15.9708 11.328C18.5699 11.328 20.7039 13.4102 20.7039 16.0077Z" fill="black"/>
</svg>
