<?xml version="1.0" encoding="UTF-8"?>
<svg id="Capa_1" xmlns="http://www.w3.org/2000/svg" version="1.1" viewBox="0 0 32 32">
  <!-- Generator: Adobe Illustrator 30.0.0, SVG Export Plug-In . SVG Version: 2.1.1 Build 123)  -->
  <defs>
    <style>
      .st0 {
        fill-rule: evenodd;
      }
    </style>
  </defs>
  <path class="st0" d="M23.71,12.25c.14.53.68.86,1.22.72.53-.14.86-.68.72-1.22l-.58-2.24c-.14-.53-.68-.86-1.22-.72-.53.14-.86.68-.72,1.22l.58,2.24Z"/>
  <path class="st0" d="M24.26,15.07c-.16,0-.33,0-.49.02l-.81-2.7-.05-.15-1.09-3.62-.07-.21c-.42-1.03-1.44-1.71-2.58-1.65l-1.59.09c-.55.03-.97.5-.94,1.05.03.55.5.98,1.05.95l1.58-.09c.29-.01.56.17.64.45l.45,1.51c-.88-.24-2-.38-3.36-.21-1.38.17-3.01.92-4.22,1.55-.62.33-1.17.64-1.55.88-.06.04-.12.07-.17.1l-.39-.45-.21-.21c-.5-.47-1.16-.72-1.84-.72h-3.67c-.43,0-.86.09-1.24.32-.38.23-.63.56-.79.91-.28.62-.3,1.38-.3,1.95v.2c0,.89.57,1.65,1.37,1.93-.71.87-1.13,1.99-1.13,3.2,0,2.81,2.28,5.08,5.08,5.08,2.47,0,4.52-1.75,4.98-4.08h2.2c1.39,0,2.67-.68,3.45-1.83l3.02-4.43.23.77c-1.6.86-2.68,2.54-2.68,4.48,0,2.81,2.28,5.08,5.08,5.08,2.81,0,5.08-2.28,5.08-5.08,0-2.81-2.28-5.08-5.08-5.08ZM4.65,15.03v-.2c0-.29,0-.53.03-.74.02-.21.06-.33.09-.39,0-.01.01-.02.01-.03.02,0,.08-.02.18-.02h3.67c.2,0,.4.08.54.25l1.02,1.17h-2.05c-.05,0-.11,0-.16,0s-.11,0-.16,0h-3.11s-.05-.02-.05-.05ZM7.97,23.24c-1.7,0-3.08-1.38-3.08-3.08,0-1.66,1.31-3.02,2.96-3.08.04,0,.09,0,.13,0s.09,0,.13,0c1.64.07,2.96,1.42,2.96,3.08,0,1.7-1.38,3.08-3.08,3.08ZM16.95,18.21c-.4.6-1.07.95-1.79.95h-2.2c-.15-.77-.48-1.48-.94-2.08h5.71l-.77,1.13ZM19.09,15.07h-6.25l-.43-.5c.35-.21.81-.47,1.32-.74,1.19-.63,2.55-1.22,3.53-1.34,1.42-.17,2.46.07,3.12.34.06.03.12.05.18.08l-1.48,2.16ZM24.26,23.24c-1.7,0-3.08-1.38-3.08-3.08,0-1.37.89-2.53,2.13-2.93.02,0,.04-.01.06-.02.02,0,.04-.01.06-.02.26-.07.54-.11.83-.11,1.7,0,3.08,1.38,3.08,3.08,0,1.7-1.38,3.08-3.08,3.08Z"/>
</svg>