<svg width="32" height="32" viewBox="0 0 32 32" fill="none" xmlns="http://www.w3.org/2000/svg">
<path d="M3.33203 22.7032V14.6576C3.33207 13.2144 3.9822 11.8478 5.10026 10.9363L12.2474 5.11466L12.5859 4.86206C14.325 3.68279 16.6551 3.76719 18.3099 5.11466L21.7109 7.88419V6.21883C21.7109 5.66672 22.1589 5.21912 22.7109 5.21883C23.2632 5.21883 23.7109 5.66655 23.7109 6.21883V9.5144L25.4557 10.9363C25.8838 11.285 25.9487 11.9143 25.6003 12.3425C25.2515 12.7707 24.6209 12.8359 24.1927 12.4871L17.0469 6.66544C16.0174 5.82715 14.5387 5.82595 13.5091 6.66414L6.36328 12.4871C5.71105 13.019 5.33207 13.8161 5.33203 14.6576V22.7032C5.33234 24.5031 6.79125 25.9621 8.59115 25.9623H12.3997C12.9519 25.9625 13.3997 26.4101 13.3997 26.9623C13.3997 27.5144 12.9518 27.9622 12.3997 27.9623H8.59115C5.68667 27.9621 3.33234 25.6077 3.33203 22.7032Z" fill="black"/>
<path d="M16.4438 21.7795C16.4438 22.2304 16.7422 22.6116 17.1523 22.7364C17.2365 23.0247 17.3554 23.3087 17.5066 23.5764C18.2846 24.9415 19.7566 25.7594 21.3256 25.6988C21.8772 25.6774 22.3075 25.2126 22.2866 24.661C22.2653 24.1093 21.8005 23.6791 21.2488 23.7001C20.5018 23.7289 19.7975 23.3791 19.3682 22.7795H21.031C21.5831 22.7793 22.031 22.3317 22.031 21.7795C22.0309 21.2275 21.583 20.7798 21.031 20.7795H19.1832C19.2023 20.7395 19.2229 20.7 19.2449 20.661C19.654 19.9472 20.4268 19.52 21.2488 19.5517C21.8005 19.5727 22.2653 19.1424 22.2866 18.5907C22.3075 18.0392 21.8772 17.5744 21.3256 17.553C19.7562 17.4924 18.2818 18.3155 17.504 19.6793C17.2948 20.05 17.1503 20.4462 17.0694 20.852C16.7027 21.0002 16.4439 21.3597 16.4438 21.7795Z" fill="black"/>
<path d="M25.6676 21.6264C25.6676 18.7065 23.301 16.3389 20.3812 16.3386C17.4611 16.3386 15.0934 18.7063 15.0934 21.6264C15.0937 24.5462 17.4613 26.9128 20.3812 26.9128C23.3009 26.9126 25.6674 24.5461 25.6676 21.6264ZM27.6585 22.0014C27.4631 25.8514 24.2797 28.9126 20.3812 28.9128L20.0062 28.9037C16.2799 28.7151 13.2917 25.7275 13.1025 22.0014L13.0934 21.6264C13.0934 17.6017 16.3565 14.3386 20.3812 14.3386L20.7562 14.3477C24.6063 14.5431 27.6676 17.7277 27.6676 21.6264L27.6585 22.0014Z" fill="black"/>
</svg>
