<?xml version="1.0" encoding="UTF-8"?>
<svg id="Capa_1" xmlns="http://www.w3.org/2000/svg" version="1.1" viewBox="0 0 32 32">
  <!-- Generator: Adobe Illustrator 30.0.0, SVG Export Plug-In . SVG Version: 2.1.1 Build 123)  -->
  <defs>
    <style>
      .st0 {
        fill-rule: evenodd;
      }
    </style>
  </defs>
  <path class="st0" d="M13.8,16.72h-1.2v-1.2c0-.55-.45-1-1-1-.55,0-1,.45-1,1v1.2h-1.2c-.55,0-1,.45-1,1,0,.55.45,1,1,1h1.2v1.2c0,.55.45,1,1,1,.55,0,1-.45,1-1v-1.2h1.2c.55,0,1-.45,1-1,0-.55-.45-1-1-1Z"/>
  <path class="st0" d="M22.6,16.72h-4.4c-.55,0-1,.45-1,1s.45,1,1,1h4.4c.55,0,1-.45,1-1s-.45-1-1-1Z"/>
  <path class="st0" d="M26.56,10.07c-.75-.81-1.75-1.33-2.91-1.53v-.8c0-1.5-1.22-2.71-2.71-2.71-1.5,0-2.71,1.21-2.71,2.71v.72h-4.45v-.72c0-1.5-1.22-2.71-2.71-2.71-1.5,0-2.71,1.21-2.71,2.71v.8c-1.16.19-2.15.72-2.91,1.53-.96,1.03-1.45,2.44-1.45,4v7.29c0,1.56.49,2.97,1.45,4,.97,1.04,2.34,1.61,3.94,1.61h13.24c1.6,0,2.97-.57,3.94-1.61.96-1.03,1.45-2.44,1.45-4v-7.29c0-1.56-.49-2.97-1.45-4ZM20.23,7.74c0-.39.32-.71.71-.71.39,0,.71.32.71.71v.72h-1.42v-.72ZM10.35,7.74c0-.39.32-.71.71-.71.39,0,.71.32.71.71v.72h-1.42v-.72ZM26.01,21.36c0,1.14-.36,2.04-.91,2.64-.55.59-1.37.98-2.48.98h-13.24c-1.11,0-1.93-.38-2.48-.97-.56-.6-.91-1.49-.91-2.64v-7.29c0-1.14.36-2.04.91-2.64.55-.59,1.37-.98,2.47-.98h13.24c1.1,0,1.93.38,2.48.97.56.6.91,1.49.91,2.64v7.29Z"/>
</svg>