<svg width="32" height="32" viewBox="0 0 32 32" fill="none" xmlns="http://www.w3.org/2000/svg">
<path fill-rule="evenodd" clip-rule="evenodd" d="M17.0211 10.3052V17.4829H22.6165C23.1687 17.4829 23.6165 17.9306 23.6165 18.4829C23.6165 19.0352 23.1687 19.4829 22.6165 19.4829H17.0211V28.2377C17.0208 28.7897 16.5732 29.2377 16.0211 29.2377C15.469 29.2377 15.0214 28.7897 15.0211 28.2377V19.4829H9.42504C8.87276 19.4829 8.42504 19.0352 8.42504 18.4829C8.42504 17.9306 8.87276 17.4829 9.42504 17.4829H15.0211V10.3052H6.55639C5.16494 10.3049 4.70406 8.44073 5.9353 7.79217L15.4001 2.8065C15.7889 2.60198 16.2536 2.60189 16.6423 2.8065L26.1072 7.79217C27.3383 8.44088 26.8764 10.3052 25.4848 10.3052H17.0211ZM16.0199 4.73879L22.7895 8.30519H9.25301L16.0199 4.73879Z" fill="black"/>
<path d="M27.0478 12.1452C27.5961 12.2104 27.9879 12.7088 27.9228 13.2572L26.8212 22.5293L27.911 28.0436C28.0178 28.5853 27.665 29.1111 27.1233 29.2181C26.5815 29.3251 26.0558 28.9722 25.9488 28.4304L24.9779 23.5137H21.8546C21.7014 23.5137 21.5772 23.6381 21.5772 23.791V28.239C21.5772 28.7912 21.1295 29.239 20.5772 29.239C20.0249 29.239 19.5772 28.7912 19.5772 28.239V23.791C19.5772 22.5334 20.5969 21.5137 21.8546 21.5137H24.927L25.9371 13.0202C26.0025 12.4721 26.4995 12.0801 27.0478 12.1452Z" fill="black"/>
<path d="M6.06388 13.0202C5.9985 12.472 5.50018 12.0801 4.9519 12.1452C4.40371 12.2106 4.01176 12.7089 4.0769 13.2572L5.17846 22.5254L4.08992 28.0436C3.98304 28.5853 4.33476 29.111 4.87638 29.2181C5.4182 29.3251 5.94385 28.9722 6.05086 28.4304L7.0229 23.5137H10.1456L10.2016 23.5189C10.3278 23.5448 10.4229 23.6572 10.4229 23.791V28.239C10.4229 28.7912 10.8706 29.239 11.4229 29.239C11.9751 29.2388 12.4229 28.7912 12.4229 28.239V23.791C12.4229 22.6121 11.5268 21.6422 10.3787 21.5254L10.1456 21.5137H7.07277L6.06388 13.0202Z" fill="black"/>
</svg>
