<svg width="32" height="32" viewBox="0 0 32 32" fill="none" xmlns="http://www.w3.org/2000/svg">
<path d="M11.3689 16.0677C11.9212 16.0677 12.3689 16.5154 12.3689 17.0677C12.3689 17.62 11.9212 18.0677 11.3689 18.0677H9.02252C8.47024 18.0677 8.02252 17.62 8.02252 17.0677C8.02252 16.5154 8.47024 16.0677 9.02252 16.0677H11.3689Z" fill="black"/>
<path d="M22.5872 20.4005V19.752C22.5872 19.1997 22.1395 18.752 21.5872 18.752C21.035 18.752 20.5872 19.1997 20.5872 19.752V20.4005H19.9136C19.3613 20.4005 18.9136 20.8482 18.9136 21.4005C18.9136 21.9527 19.3613 22.4005 19.9136 22.4005H20.5872V23.1817C20.5872 23.734 21.035 24.1817 21.5872 24.1817C22.1395 24.1817 22.5872 23.734 22.5872 23.1817V22.4005H23.3433C23.8955 22.4005 24.3433 21.9527 24.3433 21.4005C24.3433 20.8482 23.8955 20.4005 23.3433 20.4005H22.5872Z" fill="black"/>
<path d="M26.3035 21.4673C26.3031 18.8856 24.2095 16.7929 21.6277 16.7929C19.0463 16.7932 16.9536 18.8858 16.9533 21.4673C16.9533 24.049 19.0461 26.1427 21.6277 26.143C24.2097 26.143 26.3035 24.0492 26.3035 21.4673ZM28.2943 21.8111C28.1157 25.3381 25.1991 28.143 21.6277 28.143L21.2853 28.1339C17.7582 27.9554 14.9533 25.0387 14.9533 21.4673C14.9536 17.7813 17.9417 14.7932 21.6277 14.7929C25.314 14.7929 28.3031 17.7811 28.3034 21.4673L28.2943 21.8111Z" fill="black"/>
<path d="M6.11615 10.8204L6.11054 10.8346C5.53751 10.7656 4.96502 10.6906 4.39318 10.6095C3.84646 10.532 3.34065 10.9118 3.26297 11.4584C3.18545 12.0052 3.56528 12.511 4.11193 12.5886C4.34545 12.6218 4.57908 12.6539 4.81281 12.685L4.40782 13.2423C3.67267 14.2569 3.27628 15.479 3.27761 16.7319L3.25677 23.5288C3.25278 24.805 4.28649 25.8426 5.56276 25.8426H8.15C9.42328 25.8424 10.4559 24.81 10.456 23.5366V23.0014C10.456 22.8325 10.5931 22.6954 10.762 22.6954H12.8102C13.3622 22.6951 13.8102 22.2475 13.8102 21.6954C13.8101 21.1434 13.3622 20.6957 12.8102 20.6954H10.762C9.48849 20.6954 8.45599 21.728 8.45599 23.0014V23.5366C8.45595 23.7054 8.31877 23.8424 8.15 23.8426H5.56276C5.39349 23.8426 5.25624 23.7045 5.25677 23.5353L5.27761 16.7332C5.27601 15.9016 5.5386 15.0915 6.0263 14.4181L7.08744 12.9569C13.0179 13.5843 18.9982 13.5828 24.9285 12.9524L25.9807 14.3647C26.3107 14.8075 26.9376 14.8989 27.3805 14.5691C27.8233 14.2391 27.9149 13.6122 27.5849 13.1694L27.2184 12.6774C27.433 12.6486 27.6475 12.6191 27.8619 12.5886C28.4087 12.5111 28.7897 12.0053 28.7122 11.4584C28.6346 10.9119 28.1285 10.5323 27.582 10.6095C27.0254 10.6884 26.4669 10.7581 25.9091 10.8256L24.5393 7.02224C24.0733 5.70205 22.8791 4.70537 21.4964 4.48188L20.8141 4.38162C17.3961 3.91108 13.9264 3.94417 10.5159 4.48188C9.13683 4.71148 7.94347 5.71073 7.48203 7.03006L6.11615 10.8204ZM8.15946 11.0555L9.37006 7.69021C9.59039 7.06043 10.1771 6.56578 10.8349 6.45584C14.2638 5.91601 17.7562 5.91653 21.1852 6.45714C21.8447 6.56529 22.4366 7.06813 22.6578 7.69933L23.8648 11.0509C18.6417 11.5513 13.3827 11.5528 8.15946 11.0555Z" fill="black"/>
</svg>
