<svg width="32" height="32" viewBox="0 0 32 32" fill="none" xmlns="http://www.w3.org/2000/svg">
<path d="M27 13.4058C27 11.7386 26.4622 10.3935 25.5677 9.47095C24.677 8.55258 23.3537 7.97095 21.6224 7.97095H10.3763C8.65169 7.97095 7.32861 8.55178 6.4362 9.47095C5.53989 10.3941 5 11.7395 5 13.4058V18.5959C5.00001 20.2628 5.53785 21.6071 6.43229 22.5295C7.32264 23.4477 8.64502 24.0295 10.3763 24.0295H21.6211C23.3532 24.0295 24.6769 23.4478 25.5677 22.5295C26.4624 21.6071 27 20.2625 27 18.5959V13.4058ZM29 18.5959C29 20.6988 28.314 22.571 27.0026 23.9228C25.6871 25.2786 23.8209 26.0295 21.6211 26.0295H10.3763C8.17705 26.0295 6.31107 25.2787 4.99609 23.9228C3.68524 22.571 3.00001 20.6986 3 18.5959V13.4058C3 11.3013 3.68928 9.42908 5.0013 8.07772C6.31723 6.72237 8.18227 5.97095 10.3763 5.97095H21.6224C23.8216 5.97095 25.6873 6.72178 27.0026 8.07772C28.3138 9.42968 29 11.3025 29 13.4058V18.5959Z" fill="black"/>
<path d="M10.3565 13.3681C10.747 12.9776 11.38 12.9778 11.7706 13.3681C12.1611 13.7586 12.1611 14.3916 11.7706 14.7821L10.5518 16.0009L11.7706 17.2196C12.1611 17.6102 12.1611 18.2432 11.7706 18.6337C11.3801 19.0242 10.747 19.0242 10.3565 18.6337L9.13778 17.415L7.91903 18.6337C7.5285 19.0242 6.89549 19.0242 6.50496 18.6337C6.11466 18.2432 6.11451 17.6101 6.50496 17.2196L7.72371 16.0009L6.50496 14.7821C6.11444 14.3916 6.11444 13.7586 6.50496 13.3681C6.89549 12.9776 7.5285 12.9776 7.91903 13.3681L9.13778 14.5868L10.3565 13.3681Z" fill="black"/>
<path d="M17.2185 13.3681C17.609 12.9777 18.2421 12.9778 18.6326 13.3681C19.023 13.7587 19.0232 14.3917 18.6326 14.7821L17.4138 15.9996L18.6326 17.2183C19.0232 17.6088 19.023 18.2418 18.6326 18.6324C18.2421 19.0229 17.6091 19.0228 17.2185 18.6324L15.9998 17.4137L14.781 18.6324C14.3904 19.0229 13.7574 19.023 13.3669 18.6324C12.9766 18.2418 12.9764 17.6088 13.3669 17.2183L14.5844 15.9996L13.3669 14.7821C12.9765 14.3917 12.9765 13.7586 13.3669 13.3681C13.7574 12.9776 14.3905 12.9777 14.781 13.3681L15.9998 14.5855L17.2185 13.3681Z" fill="black"/>
<path d="M24.5848 16.5022C25.1371 16.5022 25.5848 16.9499 25.5848 17.5022C25.5848 18.0545 25.1371 18.5022 24.5848 18.5022H21.4142C20.8619 18.5022 20.4142 18.0545 20.4142 17.5022C20.4142 16.9499 20.8619 16.5022 21.4142 16.5022H24.5848Z" fill="black"/>
</svg>
