<?xml version="1.0" encoding="UTF-8"?>
<svg id="Capa_1" xmlns="http://www.w3.org/2000/svg" version="1.1" viewBox="0 0 32 32">
  <!-- Generator: Adobe Illustrator 30.0.0, SVG Export Plug-In . SVG Version: 2.1.1 Build 123)  -->
  <defs>
    <style>
      .st0 {
        fill-rule: evenodd;
      }
    </style>
  </defs>
  <path class="st0" d="M24.55,20.74c-.39-.39-1.02-.39-1.41,0l-1.18,1.18c-.39.39-.39,1.02,0,1.41.39.39,1.02.39,1.41,0l1.18-1.18c.36-.36.39-.93.08-1.32-.02-.03-.05-.06-.08-.09Z"/>
  <path class="st0" d="M26.68,19.21v-8.36c0-1.9-.59-3.6-1.75-4.84-1.16-1.25-2.81-1.94-4.75-1.94h-9.7c-1.94,0-3.59.69-4.75,1.94-1.15,1.24-1.75,2.94-1.75,4.84v9.14c0,1.9.59,3.6,1.75,4.84,1.16,1.25,2.81,1.94,4.75,1.94h8.85c.91.73,2.06,1.18,3.32,1.18,2.92,0,5.29-2.37,5.29-5.29,0-1.31-.48-2.51-1.27-3.44ZM5.99,10.85c0-1.48.46-2.67,1.21-3.48.74-.8,1.84-1.3,3.28-1.3h9.7c1.45,0,2.55.5,3.29,1.3.75.8,1.21,1.99,1.21,3.48v.68H5.99v-.68ZM17.38,22.65c0,.75.16,1.47.44,2.11h-7.33c-1.45,0-2.55-.5-3.29-1.3-.75-.8-1.21-1.99-1.21-3.48v-6.45h18.69v1.74c-.18-.27-.49-.46-.84-.46h-2.36c-.55,0-1,.45-1,1s.45,1,1,1h2.36c.35,0,.66-.18.84-.46v1.4c-.62-.26-1.3-.4-2.02-.4-2.92,0-5.29,2.37-5.29,5.29ZM25.81,23.62c-.29.93-.98,1.69-1.87,2.06-.39.16-.82.25-1.27.25-1.01,0-1.92-.46-2.52-1.18-.48-.57-.77-1.31-.77-2.11,0-1.82,1.47-3.29,3.29-3.29.76,0,1.46.26,2.02.69.77.6,1.27,1.54,1.27,2.6,0,.34-.05.67-.15.97Z"/>
</svg>