<?xml version="1.0" encoding="UTF-8"?>
<svg id="Capa_1" xmlns="http://www.w3.org/2000/svg" version="1.1" viewBox="0 0 32 32">
  <!-- Generator: Adobe Illustrator 30.0.0, SVG Export Plug-In . SVG Version: 2.1.1 Build 123)  -->
  <defs>
    <style>
      .st0 {
        fill-rule: evenodd;
      }
    </style>
  </defs>
  <path class="st0" d="M16.02,14.45c0-.55-.45-1-1-1h-4.56c-3.5,0-6.33,2.84-6.33,6.33v3.62c0,.55.45,1,1,1s1-.45,1-1v-3.62c0-2.39,1.94-4.33,4.33-4.33h4.56c.55,0,1-.45,1-1Z"/>
  <path class="st0" d="M11.38,12.01c2.21,0,4-1.79,4-4s-1.79-4-4-4-4,1.79-4,4,1.79,4,4,4ZM11.38,6.01c1.1,0,2,.9,2,2s-.9,2-2,2-2-.9-2-2,.9-2,2-2Z"/>
  <path class="st0" d="M26.77,17.8l-4.38-2.14c-.85-.42-1.85-.42-2.7,0l-4.39,2.14c-.81.39-1.24,1.14-1.29,1.91,0,.05-.01.11-.01.17l.02,3.63c0,.55.45,1,1.01.99.55,0,1-.45.99-1.01v-1.19s.42.21.42.21v2.66c0,.96.56,1.86,1.48,2.24,2.1.88,4.23.86,6.33,0,.92-.38,1.49-1.28,1.49-2.25v-2.71l1.03-.5c1.73-.84,1.73-3.31,0-4.15ZM23.74,25.16c0,.18-.11.34-.25.4l-.3.12c-1.51.55-2.99.52-4.49-.11-.14-.06-.25-.21-.25-.4v-1.68l1.24.61c.7.34,1.5.4,2.24.18.09-.02.17-.04.25-.08l.05-.02c.05-.02.11-.05.16-.07l1.35-.66v1.73ZM25.89,20.15l-4.48,2.19c-.28.1-.58.09-.85-.04l-4.39-2.14c-.23-.11-.23-.45,0-.56l4.39-2.14c.3-.15.65-.15.94,0l4.38,2.14c.23.11.23.45,0,.56Z"/>
</svg>