<svg width="32" height="32" viewBox="0 0 32 32" fill="none" xmlns="http://www.w3.org/2000/svg">
<path d="M23.7988 26.9661C23.7987 25.7798 23.3345 24.4422 22.1777 23.3931C21.0227 22.3459 19.0848 21.5051 16.0007 21.5051C12.918 21.5051 10.9806 22.3507 9.82487 23.4036C8.66632 24.4592 8.20129 25.8045 8.20117 26.9908C8.20117 27.5431 7.75346 27.9908 7.20117 27.9908C6.64889 27.9908 6.20117 27.5431 6.20117 26.9908C6.20129 25.2884 6.86972 23.3905 8.47721 21.9257C10.088 20.4579 12.5507 19.5051 16.0007 19.5051C19.4479 19.5051 21.9091 20.4507 23.5202 21.9114C25.129 23.3701 25.7987 25.2623 25.7988 26.9661C25.7988 27.5183 25.351 27.966 24.7988 27.9661C24.2465 27.9661 23.7988 27.5183 23.7988 26.9661Z" fill="black"/>
<path d="M20.6219 10.72C20.6217 8.14512 18.5474 6.0678 16.0008 6.06763C13.4555 6.06763 11.3812 8.14486 11.381 10.72C11.381 13.2952 13.4554 15.3723 16.0008 15.3723C18.5475 15.3721 20.6219 13.2949 20.6219 10.72ZM22.6219 10.72C22.6219 14.3888 19.6627 17.3721 16.0008 17.3723C12.3399 17.3723 9.38099 14.3888 9.38099 10.72C9.38116 7.05127 12.34 4.06763 16.0008 4.06763C19.6626 4.0678 22.6217 7.05122 22.6219 10.72Z" fill="black"/>
</svg>
