<?xml version="1.0" encoding="UTF-8"?>
<svg id="Capa_1" xmlns="http://www.w3.org/2000/svg" version="1.1" viewBox="0 0 32 32">
  <!-- Generator: Adobe Illustrator 30.0.0, SVG Export Plug-In . SVG Version: 2.1.1 Build 123)  -->
  <defs>
    <style>
      .st0 {
        fill-rule: evenodd;
      }
    </style>
  </defs>
  <path class="st0" d="M26.15,4.89c-.13-1.25-1.18-2.22-2.46-2.22h-.25c-.89.1-1.64.66-2,1.44-.07-.02-.15-.03-.23-.03-4.86,0-8.8,3.94-8.8,8.8v.12c-1.04.36-1.79,1.35-1.79,2.52v.96c0,1.17.75,2.16,1.79,2.52v.8c0,1.03-.74,1.89-1.72,2.07-.3-1.03-1.25-1.79-2.38-1.79h-.25c-1.16.13-2.09,1.06-2.21,2.22v.25s-.01,4.3-.01,4.3c0,1.28.97,2.34,2.22,2.46h.25c.95.01,1.77-.52,2.19-1.31,4.77-.1,8.61-4,8.61-8.8v-.17c1.04-.29,1.82-1.19,1.93-2.29v-.27s.01-.96.01-.96c0-1.22-.82-2.25-1.94-2.57v-.65c0-1.16.94-2.11,2.11-2.11.04,0,.08,0,.11,0,.29.92,1.11,1.62,2.11,1.72h.25c1.37.01,2.48-1.1,2.48-2.46v-4.56ZM8.78,26.86c0,.26-.21.48-.48.48-.26,0-.47-.21-.47-.48v-4.3c0-.26.21-.47.47-.48.26,0,.48.21.48.48v4.3ZM17.11,19.22c0,3.6-2.79,6.54-6.33,6.79v-2.13c2.04-.24,3.63-1.97,3.63-4.08v-.65h2.7v.07ZM19.05,16.48c0,.37-.3.67-.67.67h-5.1c-.37,0-.67-.3-.67-.67v-.96c0-.37.3-.67.67-.67h5.1c.37,0,.67.3.67.67v.96ZM17.11,12.3v.55h-2.7c.02-3.74,3.06-6.77,6.8-6.77v2.11c-2.27,0-4.11,1.84-4.11,4.11ZM24.16,9.44c0,.26-.21.48-.48.48-.26,0-.47-.21-.47-.48v-4.3c0-.26.21-.48.47-.48.26,0,.48.21.48.48v4.3Z"/>
</svg>