<svg width="32" height="32" viewBox="0 0 32 32" fill="none" xmlns="http://www.w3.org/2000/svg">
<path d="M22.283 16.2677C22.835 16.268 23.283 16.7156 23.283 17.2677C23.283 17.8199 22.835 18.2675 22.283 18.2677L9.71785 18.2677C9.16557 18.2677 8.71786 17.82 8.71786 17.2677C8.71786 16.7155 9.16557 16.2677 9.71785 16.2677L22.283 16.2677Z" fill="black"/>
<path d="M17.1918 20.0021C17.7441 20.0021 18.1918 20.4498 18.1918 21.0021C18.1918 21.5544 17.7441 22.0021 17.1918 22.0021H9.71785C9.16557 22.0021 8.71785 21.5544 8.71785 21.0021C8.71785 20.4498 9.16557 20.0021 9.71785 20.0021H17.1918Z" fill="black"/>
<path d="M26.0028 10.8582V11.5184L5.99756 11.5184V10.8582C5.99756 9.30337 6.53974 8.11751 7.40121 7.31519C8.27087 6.50541 9.54849 6.01056 11.1421 6.0105L20.8582 6.0105C22.4506 6.01056 23.7289 6.50638 24.5991 7.31779C25.4616 8.12201 26.0028 9.30923 26.0028 10.8582ZM26.0028 13.5184V21.1694C26.0028 22.7243 25.4607 23.9103 24.5991 24.7123C23.7295 25.5218 22.4519 26.0157 20.8582 26.0157H11.1421C9.54844 26.0156 8.2708 25.5218 7.4012 24.7123C6.53963 23.9102 5.99756 22.7237 5.99756 21.1681L5.99756 13.5184H26.0028ZM28.0028 10.8582C28.0028 8.8138 27.2721 7.07669 25.9624 5.85555C24.6605 4.6417 22.8662 4.01056 20.8582 4.0105H11.1421C9.13543 4.01056 7.34042 4.63756 6.03792 5.85034C4.72731 7.07071 3.99756 8.80906 3.99756 10.8582V21.1681C3.99756 23.2175 4.72736 24.9556 6.03792 26.1759C7.34049 27.3886 9.13555 28.0156 11.1421 28.0157H20.8582C22.8648 28.0156 24.6599 27.3884 25.9624 26.1759C27.2729 24.9558 28.0028 23.2183 28.0028 21.1694V10.8582Z" fill="black"/>
</svg>
