<svg width="32" height="32" viewBox="0 0 32 32" fill="none" xmlns="http://www.w3.org/2000/svg">
<path d="M16 28.0198C22.6384 28.0196 28.0194 22.6372 28.0195 16.0002C28.0195 9.36182 22.6384 3.98084 16 3.98071C9.36149 3.98071 3.98047 9.36174 3.98047 16.0002C3.9806 22.6373 9.3615 28.0198 16 28.0198ZM16.9998 6.02998C21.7346 6.49908 25.5001 10.2638 25.9701 14.9985H23.4867C22.9345 14.9985 22.4867 15.4462 22.4867 15.9985C22.4867 16.5507 22.9345 16.9985 23.4867 16.9985H25.9704C25.5018 21.7338 21.7356 25.5011 16.9998 25.9705V23.4844C16.9998 22.9321 16.552 22.4844 15.9998 22.4844C15.4475 22.4844 14.9998 22.9321 14.9998 23.4844V25.9705C10.264 25.501 6.49818 21.7337 6.0296 16.9985H8.51278C9.06506 16.9985 9.51278 16.5507 9.51278 15.9985C9.51278 15.4462 9.06506 14.9985 8.51278 14.9985H6.02992C6.49984 10.2639 10.265 6.49921 14.9998 6.03001V8.51042C14.9998 9.0627 15.4475 9.51042 15.9998 9.51042C16.552 9.51042 16.9998 9.0627 16.9998 8.51042V6.02998Z" fill="black"/>
<path d="M18.1372 15.9987C18.1372 17.179 17.1803 18.1359 16 18.1359C14.8197 18.1359 13.8628 17.179 13.8628 15.9987C13.8628 14.8184 14.8197 13.8615 16 13.8615C17.1803 13.8615 18.1372 14.8184 18.1372 15.9987Z" fill="black"/>
</svg>
