<svg width="32" height="32" viewBox="0 0 32 32" fill="none" xmlns="http://www.w3.org/2000/svg">
<path fill-rule="evenodd" clip-rule="evenodd" d="M24.5946 19.4584V16.9792C24.5946 16.0588 23.8485 15.3126 22.928 15.3126H16.9718V12.6928H19.0004L19.1371 12.6863C19.8093 12.6178 20.3337 12.0497 20.3337 11.3595V5.35946C20.3337 4.62308 19.7368 4.02612 19.0004 4.02612H13.0004C12.264 4.02612 11.6671 4.62308 11.6671 5.35946V11.3595L11.6736 11.4962C11.7375 12.1234 12.2365 12.6224 12.8637 12.6863L13.0004 12.6928H14.9718V15.3126H8.92928C8.00881 15.3126 7.26261 16.0588 7.26261 16.9792V19.4584H5.31478C4.5784 19.4584 3.98145 20.0554 3.98145 20.7917V26.7917L3.98796 26.9285C4.05182 27.5557 4.55082 28.0547 5.17806 28.1186L5.31478 28.1251H11.3148L11.4515 28.1186C12.1237 28.0501 12.6481 27.482 12.6481 26.7917V20.7917C12.6481 20.0554 12.0512 19.4584 11.3148 19.4584H9.26261V17.3126H22.5946V19.4584H20.627C19.8906 19.4584 19.2936 20.0554 19.2936 20.7917V26.7917L19.3001 26.9285C19.364 27.5557 19.863 28.0547 20.4902 28.1186L20.627 28.1251H26.627L26.7637 28.1186C27.4358 28.0501 27.9603 27.482 27.9603 26.7917V20.7917C27.9603 20.0554 27.3633 19.4584 26.627 19.4584H24.5946ZM10.6481 26.1251H5.98145V21.4584H10.6481V26.1251ZM25.9603 26.1251H21.2936V21.4584H25.9603V26.1251ZM18.3337 10.6928H13.6671V6.02612H18.3337V10.6928Z" fill="black"/>
</svg>
