<?xml version="1.0" encoding="UTF-8"?>
<svg id="Capa_1" xmlns="http://www.w3.org/2000/svg" version="1.1" viewBox="0 0 32 32">
  <!-- Generator: Adobe Illustrator 30.0.0, SVG Export Plug-In . SVG Version: 2.1.1 Build 123)  -->
  <defs>
    <style>
      .st0 {
        fill-rule: evenodd;
      }
    </style>
  </defs>
  <path class="st0" d="M27.37,21.15l-1.58-2.74v-6.42c0-.72-.19-1.41-.55-2.01v-.02s-.02-.01-.02-.02v-.02c-.35-.56-.83-1.04-1.42-1.38l-6.94-4.01c-1.23-.71-2.74-.71-3.97,0l-6.94,4.01c-.56.32-1.01.77-1.35,1.29-.03.04-.06.08-.09.13-.02.04-.04.08-.06.12-.31.57-.49,1.23-.49,1.91v8.01c0,1.42.76,2.73,1.99,3.44l6.94,4.01c.54.31,1.14.49,1.75.53.08.02.16.03.24.03s.17-.01.24-.03c.6-.04,1.2-.21,1.74-.52l2.73-1.58c.79,1.24,2.16,2.1,3.83,2.1,3.5,0,5.69-3.79,3.94-6.82ZM13.89,6.28c.61-.35,1.36-.35,1.97,0l6.88,3.97-2.75,1.59-7.86-4.55,1.76-1.02ZM6.96,21.71c-.61-.35-.99-1-.99-1.71v-8.04s7.91,4.58,7.91,4.58v9.17s-6.93-4.01-6.93-4.01ZM14.87,14.8l-7.87-4.55,3.12-1.8,7.86,4.55-3.12,1.81ZM19.49,21.15l-.15.29c-.4.83-.53,1.7-.43,2.52l-3.02,1.75v-9.17l3.13-1.81v1.63c0,.55.45,1,1,1,.55,0,1-.45,1-1v-2.79l2.78-1.61v.03s0,3.71,0,3.71c-.5-.14-1.06.02-1.41.46l-.11.16-2.78,4.82ZM23.43,25.97c-.9,0-1.65-.45-2.1-1.1-.41-.59-.57-1.36-.37-2.1.06-.21.14-.42.26-.62l2.21-3.82,2.21,3.82c.98,1.7-.25,3.82-2.21,3.82Z"/>
</svg>