<svg width="32" height="32" viewBox="0 0 32 32" fill="none" xmlns="http://www.w3.org/2000/svg">
<path fill-rule="evenodd" clip-rule="evenodd" d="M5.88704 6.06385C7.0924 4.77068 8.80896 4.04688 10.8358 4.04688H21.163C23.1946 4.04688 24.9119 4.77028 26.1168 6.06419C27.3147 7.3507 27.9375 9.1266 27.9375 11.1192V20.8495C27.9375 22.8421 27.3147 24.6181 26.1165 25.9046C24.9115 27.1985 23.1938 27.9219 21.1618 27.9219H18.5464C17.7011 27.9219 17.016 27.2367 17.016 26.3914V21.1137C17.016 20.6066 17.427 20.1954 17.9342 20.1954H20.8382V18.2096H17.9342C17.427 18.2096 17.016 17.7985 17.016 17.2914V14.4247C17.016 13.9207 17.2143 13.4512 17.5612 13.1004L17.5783 13.0834C17.9169 12.7586 18.3846 12.5508 18.8897 12.5508H20.8382V10.5651H18.8897C17.8675 10.5651 16.8851 10.9733 16.16 11.6917C15.4358 12.4185 15.0302 13.3985 15.0302 14.4247V17.2914C15.0302 17.7985 14.619 18.2096 14.1119 18.2096H12.1634V20.1954H14.1119C14.619 20.1954 15.0302 20.6066 15.0302 21.1137V26.3914C15.0302 27.2367 14.3449 27.9219 13.4997 27.9219H10.8358C8.8042 27.9219 7.08713 27.1984 5.8826 25.9045C4.68499 24.6179 4.0625 22.842 4.0625 20.8495V11.1192C4.0625 9.12559 4.68836 7.34984 5.88704 6.06385ZM7.23047 7.31606C6.40132 8.20561 5.89904 9.50692 5.89904 11.1192V20.8495C5.89904 22.4629 6.39932 23.7641 7.22687 24.6531C8.04748 25.5347 9.25796 26.0853 10.8358 26.0853H13.1936V22.032H11.776C10.9757 22.032 10.3269 21.3832 10.3269 20.5828V17.8223C10.3269 17.0219 10.9757 16.3731 11.776 16.3731H13.1936V14.4247C13.1936 12.9104 13.7935 11.4635 14.8616 10.3929L14.865 10.3895C15.9311 9.33206 17.3776 8.72854 18.8897 8.72854H21.2256C22.0259 8.72854 22.6747 9.37734 22.6747 10.1777V12.9382C22.6747 13.7385 22.0259 14.3873 21.2256 14.3873H18.8899C18.8899 14.3873 18.8851 14.3876 18.8765 14.3911C18.8706 14.3936 18.8646 14.397 18.8592 14.4008C18.8569 14.4042 18.8551 14.4083 18.8551 14.4083C18.8541 14.4107 18.8525 14.4154 18.8525 14.4247V16.3731H21.2256C22.0259 16.3731 22.6747 17.0219 22.6747 17.8223V20.5828C22.6747 21.3832 22.0259 22.032 21.2256 22.032H18.8525V26.0853H21.1618C22.7403 26.0853 23.9515 25.5346 24.7725 24.653C25.6004 23.7639 26.101 22.4628 26.101 20.8495V11.1192C26.101 9.5059 25.6004 8.20476 24.7727 7.31572C23.9517 6.43407 22.7408 5.88341 21.163 5.88341H10.8358C9.26392 5.88341 8.05294 6.43368 7.23047 7.31606Z" fill="black"/>
</svg>
