<svg width="32" height="32" viewBox="0 0 32 32" fill="none" xmlns="http://www.w3.org/2000/svg">
<path d="M16.7098 23.2868C16.7007 23.2959 16.6915 23.3048 16.682 23.3136C16.675 23.32 16.6614 23.3323 16.6541 23.3386L16.6427 23.3483C16.5878 23.3941 16.5279 23.434 16.4641 23.4675C16.3221 23.5416 16.163 23.5815 16.0002 23.5815C15.7344 23.5813 15.4794 23.4751 15.2918 23.2868L10.0054 17.9782C9.61572 17.5869 9.61681 16.9538 10.008 16.5641C10.3993 16.1744 11.0323 16.1755 11.422 16.5667L15.0002 20.1591L15.0002 9.4187C15.0002 8.86642 15.4479 8.4187 16.0002 8.4187C16.5525 8.4187 17.0002 8.86642 17.0002 9.4187L17.0002 20.1591L20.5783 16.5667C20.968 16.1756 21.6011 16.1745 21.9924 16.5641C22.3835 16.9538 22.3846 17.5869 21.995 17.9782L16.7098 23.2868Z" fill="black"/>
</svg>
