<?xml version="1.0" encoding="UTF-8"?>
<svg id="Capa_1" xmlns="http://www.w3.org/2000/svg" version="1.1" viewBox="0 0 32 32">
  <!-- Generator: Adobe Illustrator 30.0.0, SVG Export Plug-In . SVG Version: 2.1.1 Build 123)  -->
  <defs>
    <style>
      .st0 {
        fill-rule: evenodd;
      }
    </style>
  </defs>
  <path class="st0" d="M26.86,7.53c-.13-.51-.37-.85-.67-1.16l-.24-.21c-.64-.54-1.89-1.32-3.45-2-1.8-.79-4.14-1.49-6.62-1.49s-4.81.7-6.62,1.49c-1.77.77-3.16,1.69-3.68,2.22-.3.3-.54.65-.67,1.16-.11.44-.14.97-.15,1.62,0,.67.02,1.59.04,2.83.02,1.25.04,2.85.04,4.94,0,4.5,1.89,7.63,4.23,9.61,2.29,1.95,5.03,2.8,6.81,2.8s4.52-.86,6.81-2.8c2.33-1.98,4.23-5.11,4.23-9.61,0-2.09.02-3.69.04-4.94.02-1.24.04-2.15.04-2.83,0-.66-.03-1.19-.15-1.62ZM24.97,11.94c-.02,1.26-.04,2.87-.04,4.98,0,3.88-1.6,6.46-3.52,8.09-1.96,1.67-4.25,2.33-5.52,2.33s-3.55-.66-5.52-2.33c-1.92-1.63-3.52-4.21-3.52-8.09,0-2.1-.02-3.72-.04-4.98-.02-1.26-.04-2.14-.04-2.78,0-.66.04-.96.08-1.14.03-.1.05-.14.15-.24l.14-.13c.42-.35,1.46-1.03,2.93-1.67,1.64-.72,3.7-1.32,5.82-1.32s4.17.6,5.82,1.32c1.67.73,2.79,1.52,3.07,1.8.1.1.12.14.15.24.04.17.08.48.08,1.14,0,.64-.02,1.51-.04,2.78Z"/>
  <path class="st0" d="M20.24,15.02l-.9-3,.55-.21c.52-.2.77-.78.58-1.29-.2-.52-.78-.77-1.29-.58l-1.41.54c-.49.19-.75.72-.6,1.22l.43,1.44h-.83c-.73,0-1.43.16-2.08.46l-.17-.35c.33-.16.56-.5.56-.9,0-.55-.45-1-1-1h-1.89c-.55,0-1,.45-1,1s.45,1,1,1h.15l.73,1.46c-.1.11-.19.22-.28.34-.3-.09-.62-.14-.95-.14-1.79,0-3.24,1.45-3.24,3.24,0,1.79,1.45,3.24,3.24,3.24,1.79,0,3.24-1.45,3.24-3.24,0-.73-.24-1.41-.65-1.95.55-.73,1.42-1.16,2.35-1.16h1.43l.13.45c-.84.59-1.4,1.56-1.4,2.67,0,1.79,1.45,3.24,3.24,3.24,1.79,0,3.24-1.45,3.24-3.24,0-1.77-1.42-3.21-3.18-3.24ZM11.83,19.5c-.69,0-1.24-.56-1.24-1.24,0-.55.36-1.02.85-1.18.12-.04.25-.06.39-.06.68,0,1.23.54,1.24,1.22v.03c0,.69-.56,1.24-1.24,1.24ZM20.17,19.5c-.69,0-1.24-.56-1.24-1.24,0-.15.03-.29.07-.42.17-.48.63-.83,1.17-.83.28,0,.54.09.74.25.3.23.5.59.5,1,0,.69-.56,1.24-1.24,1.24Z"/>
</svg>