<?xml version="1.0" encoding="UTF-8"?>
<svg id="Capa_1" xmlns="http://www.w3.org/2000/svg" version="1.1" viewBox="0 0 32 32">
  <!-- Generator: Adobe Illustrator 30.0.0, SVG Export Plug-In . SVG Version: 2.1.1 Build 123)  -->
  <defs>
    <style>
      .st0 {
        fill-rule: evenodd;
      }
    </style>
  </defs>
  <path class="st0" d="M16,20.18c2.98,0,5.4-2.35,5.54-5.29v-.29s0-3.35,0-3.35l5.35-5.16c.4-.38.41-1.02.03-1.41-.38-.4-1.02-.41-1.41-.03l-4.02,3.88c-.4-2.68-2.71-4.74-5.5-4.74-3.07,0-5.55,2.49-5.55,5.55v5.25c0,1.3.44,2.5,1.19,3.45l-1.77,1.71c-.99-1.19-1.63-2.67-1.8-4.3-.03-.27-.04-.54-.04-.82,0-.55-.45-1-1-1-.55,0-1,.45-1,1,0,2.48.9,4.76,2.39,6.51l-4.19,4.04c-.4.38-.41,1.02-.03,1.41.38.4,1.02.41,1.41.03l4.24-4.09c1.44,1.13,3.21,1.87,5.13,2.07v2.6c0,.55.45,1,1,1s1-.45,1-1v-2.6c5.05-.51,8.98-4.78,8.97-9.96,0-.55-.45-1-1-1-.55,0-1,.45-1,1,0,.43-.03.84-.09,1.25-.59,3.82-3.89,6.74-7.88,6.76-1.75,0-3.36-.57-4.68-1.52l1.81-1.75c.84.51,1.82.8,2.87.8ZM19.55,14.61c0,1.97-1.59,3.57-3.55,3.57-.48,0-.93-.1-1.35-.27l4.9-4.73v1.42ZM12.44,14.61v-5.26c0-1.96,1.59-3.55,3.55-3.55,1.96,0,3.56,1.59,3.56,3.55v1.06l-6.47,6.25c-.4-.58-.64-1.28-.64-2.04Z"/>
</svg>