<svg width="32" height="32" viewBox="0 0 32 32" fill="none" xmlns="http://www.w3.org/2000/svg">
<path fill-rule="evenodd" clip-rule="evenodd" d="M27.9219 16.0886C27.9219 22.6729 22.5843 28.0105 16 28.0105C9.41573 28.0105 4.07812 22.6729 4.07812 16.0886C4.07812 9.50435 9.41573 4.16675 16 4.16675C22.5843 4.16675 27.9219 9.50435 27.9219 16.0886ZM22.3941 8.50158L7.96846 21.9155C6.77943 20.2794 6.07812 18.2659 6.07812 16.0886C6.07812 10.6089 10.5203 6.16675 16 6.16675C18.4362 6.16675 20.6673 7.04475 22.3941 8.50158ZM23.7862 9.93822C25.1235 11.6289 25.9219 13.7655 25.9219 16.0886C25.9219 21.5683 21.4797 26.0105 16 26.0105C13.4178 26.0105 11.066 25.0241 9.30088 23.4075L23.7862 9.93822Z" fill="black"/>
</svg>
