<svg width="32" height="32" viewBox="0 0 32 32" fill="none" xmlns="http://www.w3.org/2000/svg">
<path d="M13.0091 8.85708C14.7907 8.85708 15.9155 10.773 15.0469 12.3284L13.3945 15.2881H15.2812C15.8335 15.2881 16.2812 15.7358 16.2812 16.2881C16.2812 16.8404 15.8335 17.2881 15.2812 17.2881H11.6901C11.3356 17.2881 11.0077 17.1003 10.8281 16.7946C10.6487 16.4889 10.6439 16.1107 10.8164 15.8011L13.3008 11.3532C13.4248 11.1308 13.2637 10.8571 13.0091 10.8571H12.9687C12.823 10.8573 12.7009 10.9663 12.6836 11.111C12.618 11.6593 12.1199 12.0502 11.5716 11.9847C11.0234 11.9191 10.6314 11.4222 10.6966 10.874C10.8342 9.72372 11.8103 8.85726 12.9687 8.85708H13.0091Z" fill="black"/>
<path d="M19.31 16.2881V14.3962H17.4206C16.8684 14.3962 16.4206 13.9484 16.4206 13.3962V9.85709C16.4206 9.3048 16.8684 8.85708 17.4206 8.85708C17.9729 8.85708 18.4206 9.3048 18.4206 9.85709V12.3962H19.31V10.762C19.3102 10.2101 19.758 9.76232 20.31 9.76203C20.8621 9.76203 21.3098 10.2099 21.31 10.762V16.2881C21.31 16.8404 20.8623 17.2881 20.31 17.2881C19.7579 17.2878 19.31 16.8402 19.31 16.2881Z" fill="black"/>
<path fill-rule="evenodd" clip-rule="evenodd" d="M19.071 20.7725C19.0711 20.8257 19.0822 20.8763 19.1023 20.9221C19.1105 20.8704 19.1148 20.8174 19.1148 20.7634C19.1148 20.714 19.1112 20.6655 19.1043 20.6181C19.0829 20.6652 19.071 20.7174 19.071 20.7725Z" fill="black"/>
<path d="M5.71358 9.48998C8.47475 5.23145 13.7381 3.03013 18.9151 4.4194C25.3089 6.14063 29.1101 12.7227 27.3902 19.119C25.7347 25.3276 19.505 29.0916 13.2907 27.7556L12.6891 27.6099C8.72622 26.5482 5.75883 23.6311 4.48648 20.0338C4.30237 19.5132 4.57464 18.9418 5.09507 18.7575C5.61574 18.5733 6.1873 18.8467 6.37146 19.3673C7.43204 22.3657 9.90328 24.7931 13.2073 25.6782L13.7092 25.7995C18.8885 26.9132 24.0795 23.7774 25.4587 18.6048C26.8482 13.4429 23.9208 8.12831 18.8901 6.49658L18.3969 6.35113C13.9295 5.15216 9.38128 7.15973 7.15291 10.9654L7.82287 10.9183C8.37379 10.8796 8.85181 11.2948 8.89055 11.8457C8.92929 12.3966 8.51408 12.8747 7.96315 12.9134L4.96665 13.1241C4.41572 13.1628 3.9377 12.7476 3.89897 12.1967L3.68708 9.18331C3.64834 8.63239 4.06354 8.15437 4.61447 8.11563C5.16539 8.07689 5.64341 8.4921 5.68215 9.04303L5.71358 9.48998Z" fill="black"/>
<path d="M12.5559 20.3988C12.7622 20.3988 12.9296 20.5662 12.9296 20.7725C12.9295 20.9787 12.7622 21.1462 12.5559 21.1462C12.0036 21.1462 11.5559 21.5939 11.5559 22.1462C11.556 22.6984 12.0037 23.1462 12.5559 23.1462C13.5131 23.1462 14.338 22.5795 14.7134 21.7634H17.2872C17.6627 22.5795 18.4876 23.1462 19.4447 23.1462C19.9969 23.1462 20.4446 22.6984 20.4447 22.1462C20.4447 21.5939 19.997 21.1462 19.4447 21.1462C19.2917 21.1462 19.16 21.054 19.1023 20.9221C19.0822 20.8763 19.0711 20.8257 19.071 20.7725C19.071 20.7174 19.0829 20.6652 19.1043 20.6181C19.1631 20.4888 19.2935 20.3988 19.4447 20.3988C19.997 20.3988 20.4447 19.9511 20.4447 19.3988C20.4447 18.8465 19.997 18.3988 19.4447 18.3988C18.4947 18.3988 17.6749 18.957 17.2956 19.7634H14.705C14.3257 18.957 13.506 18.3988 12.5559 18.3988C12.0036 18.3988 11.5559 18.8465 11.5559 19.3988C11.5559 19.9511 12.0036 20.3988 12.5559 20.3988Z" fill="black"/>
</svg>
