<svg width="32" height="32" viewBox="0 0 32 32" fill="none" xmlns="http://www.w3.org/2000/svg">
<path d="M11.1649 10.2451C10.6932 9.77345 9.92777 9.77343 9.45608 10.2451L5.04126 14.6599C4.56959 15.1316 4.56957 15.8971 5.04126 16.3688L9.45608 20.7836C9.92777 21.2553 10.6933 21.2552 11.1649 20.7836C11.6362 20.3119 11.6356 19.5472 11.164 19.0757L8.30979 16.2215C7.91951 15.831 7.91951 15.1977 8.30979 14.8072L11.164 11.953C11.6356 11.4815 11.6362 10.7168 11.1649 10.2451ZM12.5791 8.83091C13.8315 10.0837 13.8308 12.1147 12.5782 13.3673L10.4311 15.5144L12.5782 17.6615C13.8308 18.914 13.8315 20.945 12.5791 22.1978C11.3264 23.4505 9.29457 23.4505 8.04186 22.1978L3.62705 17.783C2.37432 16.5303 2.37432 14.4984 3.62705 13.2457L8.04186 8.83091C9.29457 7.57819 11.3264 7.57816 12.5791 8.83091Z" fill="black"/>
<path d="M19.3747 10.2501C19.8462 9.77861 20.6109 9.77799 21.0826 10.2492C21.5543 10.7209 21.5543 11.4864 21.0826 11.9581L18.2284 14.8123C17.838 15.2028 17.838 15.836 18.2284 16.2265L21.0826 19.0807C21.5543 19.5524 21.5543 20.3178 21.0826 20.7895C20.6109 21.2608 19.8462 21.2601 19.3747 20.7886L14.959 16.3729C14.4879 15.9013 14.4879 15.1374 14.959 14.6659L19.3747 10.2501ZM13.5448 13.2517C12.2926 14.5043 12.2926 16.5345 13.5448 17.7871L17.9605 22.2028C19.2131 23.4554 21.2441 23.456 22.4968 22.2037C23.7496 20.951 23.7496 18.9192 22.4968 17.6665L20.3497 15.5194L22.4968 13.3723C23.7496 12.1195 23.7496 10.0877 22.4968 8.835C21.2441 7.58273 19.2131 7.58335 17.9605 8.83593L13.5448 13.2517Z" fill="black"/>
<path d="M29.1397 21.2839C28.7492 21.6744 28.1162 21.6744 27.7257 21.2839L22.6658 16.224C22.2755 15.8334 22.2753 15.2004 22.6658 14.8099L27.7257 9.75003C28.1162 9.35983 28.7493 9.35983 29.1398 9.75003C29.5302 10.1405 29.53 10.7735 29.1398 11.1641L24.7869 15.517L29.1397 19.8698C29.5303 20.2603 29.5303 20.8934 29.1397 21.2839Z" fill="black"/>
</svg>
