<svg width="32" height="32" viewBox="0 0 32 32" fill="none" xmlns="http://www.w3.org/2000/svg">
<path d="M17.5925 8.11621C17.4494 7.58312 16.9017 7.2666 16.3685 7.40918C15.8351 7.55212 15.5186 8.10097 15.6615 8.63444C16.2579 10.8597 18.0087 13.2422 20.5157 15.0003H7.28259C6.7304 15.0003 6.28274 15.4482 6.28259 16.0003C6.2826 16.5526 6.73031 17.0003 7.28259 17.0003L20.5157 16.9534C18.0116 18.7457 16.2447 21.2678 15.6615 23.4443C15.5188 23.9777 15.8352 24.5254 16.3685 24.6683C16.9019 24.811 17.4496 24.4946 17.5925 23.9613C18.2611 21.4663 21.0237 18.1517 25.0039 16.9587C25.4225 16.8332 25.7119 16.4503 25.7175 16.0133C25.723 15.5763 25.444 15.1858 25.0287 15.0498C21.0216 13.7373 18.2614 10.6125 17.5925 8.11621Z" fill="black"/>
</svg>
