<svg width="32" height="32" viewBox="0 0 32 32" fill="none" xmlns="http://www.w3.org/2000/svg">
<path d="M22.283 16.213C22.996 16.213 23.5848 16.788 23.5851 17.5125C23.5851 18.2301 23.0019 18.8133 22.2843 18.8133C21.6116 18.813 21.0577 18.3007 20.9913 17.6453L20.9848 17.5125C20.9837 16.7912 21.57 16.2133 22.283 16.213Z" fill="black"/>
<path d="M26.6346 18.4213C27.3477 18.4213 27.9364 18.9964 27.9367 19.7208C27.9367 20.4384 27.3536 21.0216 26.6359 21.0216C25.9632 21.0213 25.4093 20.509 25.343 19.8536L25.3365 19.7208C25.3353 18.9996 25.9216 18.4216 26.6346 18.4213Z" fill="black"/>
<path d="M17.9497 18.4213C18.6627 18.4213 19.2514 18.9964 19.2518 19.7208C19.2518 20.4384 18.6686 21.0216 17.951 21.0216C17.2782 21.0213 16.7243 20.509 16.658 19.8536L16.6515 19.7208C16.6504 18.9996 17.2366 18.4216 17.9497 18.4213Z" fill="black"/>
<path d="M22.3364 21.1505L22.5877 21.157C23.8435 21.2188 24.9986 21.7295 25.8611 22.4838C26.7734 23.2819 27.4267 24.4177 27.438 25.6752L27.4327 25.9461C27.4015 26.5806 27.2172 27.2045 26.6945 27.6258C26.1255 28.0841 25.4277 28.0723 24.9692 28.0203C24.4926 27.9661 23.9446 27.8217 23.5226 27.7234C23.0524 27.6139 22.6651 27.5399 22.3351 27.5398C22.0709 27.5398 21.7435 27.6063 21.313 27.7182C20.9321 27.8172 20.4167 27.9686 19.9588 28.0372C19.5055 28.1051 18.8669 28.1363 18.2895 27.7924C17.6663 27.4212 17.372 26.7758 17.2622 26.0646C17.0392 24.6708 17.7416 23.416 18.684 22.5724C19.6351 21.7211 20.9673 21.1505 22.3364 21.1505ZM22.3338 23.1505C21.5003 23.1508 20.6361 23.5106 20.0187 24.0633C19.4706 24.5538 19.2193 25.0916 19.2192 25.5554L19.2348 25.7495C19.2635 25.9375 19.3027 26.0359 19.3247 26.075C19.3633 26.0814 19.4626 26.0894 19.6632 26.0594C19.983 26.0114 20.326 25.9092 20.8103 25.7833C21.2452 25.6703 21.7912 25.5398 22.3351 25.5398C22.9166 25.5399 23.502 25.6648 23.977 25.7755C24.5002 25.8974 24.8705 25.9964 25.1958 26.0333C25.2946 26.0445 25.364 26.0437 25.4106 26.0424C25.4237 25.9784 25.4402 25.8719 25.438 25.7026C25.4338 25.1386 25.1312 24.5021 24.5447 23.989C23.964 23.4811 23.1708 23.1513 22.3338 23.1505Z" fill="black"/>
<path d="M4.14098 12.3606C4.47216 12.7789 5.07063 12.862 5.50128 12.5581V19.6303C5.50138 21.9643 7.39385 23.8569 9.72784 23.8569H14.4023C14.9545 23.8569 15.4022 23.409 15.4023 22.8569C15.4023 22.3046 14.9546 21.8569 14.4023 21.8569H9.72784C8.49843 21.8569 7.50138 20.8597 7.50128 19.6303V10.9767L13.4704 6.25123C13.9825 5.8464 14.6926 5.82029 15.2295 6.17441L15.335 6.25123L21.3047 10.9771V14.03C21.3047 14.5823 21.7524 15.03 22.3047 15.03C22.8569 15.03 23.3047 14.5823 23.3047 14.03V12.5584C23.7353 12.8615 24.3335 12.7786 24.6644 12.3606C25.0069 11.9276 24.9333 11.2984 24.5004 10.9557L21.371 8.47871V6.45874C21.371 5.90645 20.9233 5.45874 20.371 5.45874C19.8187 5.45874 19.371 5.90645 19.371 6.45874V6.89566L16.5746 4.68222C15.3012 3.67559 13.5029 3.67559 12.2295 4.68222L4.30374 10.9557C3.87081 11.2985 3.79822 11.9276 4.14098 12.3606Z" fill="black"/>
</svg>
