<?xml version="1.0" encoding="UTF-8"?>
<svg id="Capa_1" xmlns="http://www.w3.org/2000/svg" version="1.1" viewBox="0 0 32 32">
  <!-- Generator: Adobe Illustrator 30.0.0, SVG Export Plug-In . SVG Version: 2.1.1 Build 123)  -->
  <defs>
    <style>
      .st0 {
        fill-rule: evenodd;
      }
    </style>
  </defs>
  <path class="st0" d="M24.08,18.97v-1.59c0-2.39-1.51-4.42-3.63-5.19v-1.8c0-3.54-2.88-6.42-6.42-6.42-3.43-.01-6.25,2.67-6.43,6.06v.33s-.01,1.82-.01,1.82c-2.12.77-3.63,2.8-3.63,5.19v5.11c0,3.05,2.47,5.52,5.52,5.52h7.69c.22.03.45.05.67.05h5.66c2.52,0,4.56-2.04,4.56-4.56,0-2.32-1.73-4.23-3.97-4.52ZM9.59,10.38c.01-2.44,2-4.41,4.44-4.4,2.44,0,4.42,1.98,4.42,4.42v1.47h-8.86v-1.49ZM14.02,26.01h-4.55c-1.94,0-3.52-1.57-3.52-3.52v-5.11c0-1.68,1.17-3.08,2.74-3.43.06,0,.12-.02.18-.03.19-.03.39-.05.6-.05h9.1c.21,0,.41.02.6.05.06.02.11.03.17.03,1.57.35,2.74,1.75,2.74,3.43v1.55h-4.49c-2.41.13-4.33,2.12-4.33,4.56,0,.93.28,1.79.75,2.51ZM23.49,26.06h-5.66c-.17,0-.34-.02-.5-.05-1.17-.23-2.06-1.27-2.06-2.51,0-1.42,1.15-2.56,2.56-2.56h5.66c.2,0,.4.02.59.07,1.13.27,1.97,1.28,1.97,2.49,0,1.42-1.15,2.56-2.56,2.56Z"/>
  <path class="st0" d="M22.07,23.49l.23-.23c.39-.39.39-1.02,0-1.41-.07-.07-.14-.12-.22-.16-.38-.22-.87-.16-1.2.16l-.23.23-.22-.22c-.39-.39-1.02-.39-1.41,0-.39.39-.39,1.02,0,1.41l.22.22-.23.23c-.39.39-.39,1.02,0,1.41.39.39,1.02.39,1.41,0l.23-.23.23.23c.39.39,1.02.39,1.41,0,.39-.39.39-1.02,0-1.41l-.23-.23Z"/>
</svg>