<?xml version="1.0" encoding="UTF-8"?>
<svg id="Capa_1" xmlns="http://www.w3.org/2000/svg" version="1.1" viewBox="0 0 32 32">
  <!-- Generator: Adobe Illustrator 30.0.0, SVG Export Plug-In . SVG Version: 2.1.1 Build 123)  -->
  <defs>
    <style>
      .st0 {
        fill-rule: evenodd;
      }
    </style>
  </defs>
  <path class="st0" d="M25.99,15.09c2-2,2.51-4.94,1.5-7.41-.13-.31-.4-.54-.73-.6-.29-.06-.58.01-.81.19l-.09.08-2.91,2.91s-.07.04-.1.03l-1.37-.27-.06-.03s-.03-.04-.03-.06l-.27-1.38v-.05s.02-.03.03-.05l2.91-2.91c.24-.24.34-.58.27-.91-.07-.33-.29-.6-.6-.73-2.47-1-5.4-.5-7.4,1.5-1.69,1.69-2.31,4.04-1.86,6.22-.89-.14-1.84.13-2.53.82-.5.5-.78,1.13-.84,1.77-1.1-.06-2.22.33-3.06,1.17l-2.9,2.9c-1.56,1.56-1.56,4.09,0,5.66l.47.47-.79.77c-.4.39-.4,1.02-.02,1.41.39.4,1.02.4,1.41.02l.81-.79.06.06c.82.74,1.87,1.08,2.9,1.02l1.64,1.59c.4.38,1.03.38,1.41-.02.38-.4.38-1.03-.02-1.41l-.92-.9c.12-.09.24-.18.35-.28l.15-.14,2.9-2.9.14-.15c1.36-1.5,1.37-3.78.05-5.3-.02-.02-.03-.04-.05-.06l-.14-.15-1.8-1.8c-.16-.16-.32-.3-.5-.42-.2-.35-.15-.8.15-1.1.36-.36.96-.36,1.32.01l3.6,3.73c.44.46.46,1.18.04,1.66-1.13,1.28-1.07,3.21.14,4.42l3.38,3.38c.39.39,1.02.39,1.41,0,.39-.39.39-1.02,0-1.41l-3.38-3.38c-.46-.46-.48-1.19-.05-1.68.89-1,1.04-2.42.48-3.56,2.03.26,4.16-.38,5.73-1.95ZM14.06,18.6c.06.06.12.13.17.19.61.78.55,1.92-.17,2.63l-2.9,2.9c-.74.74-1.93.78-2.72.1-.04-.03-.08-.07-.11-.1l-1.8-1.8c-.78-.78-.78-2.05,0-2.83l2.9-2.9c.64-.64,1.61-.76,2.37-.35.17.09.32.21.46.35l1.8,1.8ZM19.35,14.75l-.23-.09c-1.14-.46-2.04-1.39-2.45-2.56v-.04s-.13-.33-.13-.33c-.54-1.68-.14-3.58,1.19-4.9,1-1,2.32-1.47,3.62-1.41l-1.62,1.63c-.5.5-.72,1.21-.58,1.91l.27,1.38.04.15c.21.76.84,1.35,1.62,1.51l1.38.27c.69.14,1.4-.08,1.9-.58l1.63-1.63c.05,1.3-.41,2.63-1.41,3.62-1.41,1.41-3.48,1.77-5.23,1.07Z"/>
</svg>