<?xml version="1.0" encoding="UTF-8"?>
<svg id="Capa_1" xmlns="http://www.w3.org/2000/svg" version="1.1" viewBox="0 0 32 32">
  <!-- Generator: Adobe Illustrator 30.0.0, SVG Export Plug-In . SVG Version: 2.1.1 Build 123)  -->
  <defs>
    <style>
      .st0 {
        fill-rule: evenodd;
      }
    </style>
  </defs>
  <path class="st0" d="M23.15,19.34h-.42s-.01-.03-.02-.05c0-.02,0-.02-.02-.04,0-.01-.01-.03-.02-.04-.05-.09-.12-.17-.2-.23-.01,0-.02-.01-.03-.02-.1-.06-.22-.1-.35-.1-.01,0-.02,0-.04,0-.01,0-.02,0-.04,0-.06,0-.12.02-.17.04-.01,0-.02,0-.03.01-.03.01-.06.03-.08.04,0,0-.01,0-.02.01-.03.02-.06.05-.09.07-.02.02-.03.04-.05.06,0,0-.01.02-.02.03,0,0-.01.02-.02.02,0,0-.01.02-.01.02-.02.04-.04.08-.06.12-.01.04-.02.09-.03.13-.69.3-1.01,1.2-.54,1.89l.36.51c-.14.02-.26.08-.37.15-.01,0-.03.02-.04.03-.02.02-.05.04-.07.05-.21.18-.34.45-.34.75,0,.18.05.35.13.5.17.3.5.5.87.5h.03c.08.27.34.47.64.47s.56-.2.64-.48c.71-.05,1.19-.65,1.18-1.29,0-.23-.08-.47-.23-.69l-.36-.52c.1-.02.19-.05.27-.09.16-.08.3-.2.4-.35.06-.1.11-.2.13-.32,0,0,0-.01,0-.02.01-.06.02-.14.02-.2,0-.55-.45-1-1-1Z"/>
  <path class="st0" d="M26.79,18.85c-.39-.64-.8-1.28-1.19-1.9l-.05-.08,1.06-2.41c.14-.33.1-.71-.12-1-.22-.29-.58-.44-.94-.39h-.03s-.04,0-.04,0c-.02,0-.05,0-.08.01-.07,0-.16.02-.26.03l-.14.02c-.11.01-.21.03-.31.04v-4.65c0-1.38-1.05-2.52-2.39-2.65h-.27s-15.39-.01-15.39-.01h-.27c-1.34.15-2.39,1.29-2.39,2.67v12.4c.15,1.34,1.29,2.39,2.67,2.39h9.73c.05.25.12.51.23.77.48,1.2,1.41,1.96,2.43,2.41,1.01.45,2.14.62,3.16.63.01,0,.02,0,.03,0,1.02-.02,2.15-.19,3.16-.63,1.02-.45,1.95-1.22,2.43-2.41.82-2.06-.24-3.96-1.01-5.24ZM23.45,15.19s.03,0,.04,0c.19.02.39.03.59.03l-.38.87c-.34.06-.68.1-1.02.12-.38.02-.76.02-1.14-.01,0,0,0,0-.01,0-.3-.02-.6-.06-.89-.11l-.76-1.42c.22-.12.43-.18.66-.19.02,0,.04,0,.07,0,.01,0,.03,0,.04,0,.12,0,.23.02.35.06.07.02.13.04.2.07.07.03.14.05.21.08,0,0,0,0,.01,0,.03.01.07.02.1.04.18.07.37.13.56.19.05.01.09.03.14.04.04.01.09.03.13.04.01,0,.02,0,.03,0,.1.03.2.05.3.07.24.05.49.1.75.12,0,0,.02,0,.03,0ZM5.96,8.53c0-.37.3-.67.67-.67h15.39c.37,0,.67.3.67.67v1.73H5.96v-1.73ZM16.45,21.32H6.63c-.37,0-.67-.3-.67-.67v-8.4h16.72v.74c-.25-.07-.5-.16-.76-.27-1.29-.5-2.52-.26-3.57.55-.14.11-.24.19-.3.24l-.04.03s-.03.02-.04.03c0,0,0,0-.01.01l-.02.02c-.36.31-.45.82-.23,1.23l1.11,2.08c-.15.23-.3.47-.45.7l-.76,1.23c-.41.68-.89,1.52-1.14,2.47ZM25.94,23.35c-.24.6-.71,1.03-1.39,1.33-.28.12-.58.22-.9.29,0,0,0,0-.01,0-.23.05-.46.09-.69.12-.02,0-.05,0-.07,0-.05,0-.1.01-.15.01-.04,0-.09,0-.13.01-.13,0-.27.01-.4.02-.84-.01-1.68-.16-2.36-.46-.68-.3-1.15-.73-1.39-1.33v-.02c-.09-.22-.14-.44-.15-.66,0-.01,0-.03,0-.04,0,0,0-.02,0-.03,0,0,0,0,0-.01,0-.09,0-.17.01-.26,0-.02,0-.03,0-.05,0-.02,0-.05,0-.07,0,0,0-.02,0-.02,0,0,0-.02,0-.03.04-.26.13-.54.24-.82.18-.45.44-.92.75-1.44.35-.58.71-1.15,1.09-1.73,0,0,.01-.02.01-.02l.03-.05c.74.12,1.49.17,2.23.13.42-.02.84-.06,1.26-.13,0,0,0,0,0,.01.1.16.2.32.31.48.04.06.08.12.12.18,0,0,.01.02.02.03,0,.01.02.03.03.04.05.08.11.17.16.25.02.03.04.06.06.09.02.03.03.05.05.08.13.21.26.43.39.64.83,1.37,1.28,2.44.87,3.46Z"/>
</svg>