<?xml version="1.0" encoding="UTF-8"?>
<svg id="Capa_1" xmlns="http://www.w3.org/2000/svg" version="1.1" viewBox="0 0 32 32">
  <!-- Generator: Adobe Illustrator 30.0.0, SVG Export Plug-In . SVG Version: 2.1.1 Build 123)  -->
  <defs>
    <style>
      .st0 {
        fill-rule: evenodd;
      }
    </style>
  </defs>
  <path class="st0" d="M25.49,21.71v-6.52c0-.92-.75-1.67-1.67-1.67h-6.9v-7.26c0-.07,0-.14-.02-.21h8.91c.55,0,1-.45,1-1s-.45-1-1-1H6.37c-.55,0-1,.45-1,1s.45,1,1,1h8.58c-.01.07-.02.14-.02.21v7.26h-6.95c-.92,0-1.67.75-1.67,1.67v6.57c-1.32.44-2.27,1.69-2.27,3.16,0,1.84,1.49,3.33,3.33,3.33s3.33-1.49,3.33-3.33c0-1.52-1.01-2.8-2.4-3.2v-6.2h6.62v6.06c0,.06,0,.12.02.18-1.32.44-2.28,1.69-2.28,3.16,0,1.84,1.49,3.33,3.33,3.33s3.33-1.49,3.33-3.33c0-1.52-1.02-2.81-2.41-3.2,0-.05,0-.09,0-.14v-6.06h6.56v6.26c-1.29.46-2.2,1.69-2.2,3.14,0,1.84,1.49,3.33,3.33,3.33s3.33-1.49,3.33-3.33c0-1.54-1.04-2.84-2.46-3.22ZM8.71,24.93c0,.74-.6,1.33-1.33,1.33s-1.33-.6-1.33-1.33.6-1.33,1.33-1.33,1.33.6,1.33,1.33ZM17.33,24.93c0,.74-.6,1.33-1.33,1.33s-1.33-.6-1.33-1.33.6-1.33,1.33-1.33,1.33.6,1.33,1.33ZM24.62,26.27c-.74,0-1.33-.6-1.33-1.33s.6-1.33,1.33-1.33,1.33.6,1.33,1.33-.6,1.33-1.33,1.33Z"/>
</svg>