<svg width="32" height="32" viewBox="0 0 32 32" fill="none" xmlns="http://www.w3.org/2000/svg">
<path d="M11.3689 16.0677C11.9212 16.0677 12.3689 16.5154 12.3689 17.0677C12.3689 17.62 11.9212 18.0677 11.3689 18.0677H9.02252C8.47024 18.0677 8.02252 17.62 8.02252 17.0677C8.02252 16.5154 8.47024 16.0677 9.02252 16.0677H11.3689Z" fill="black"/>
<path d="M27.7819 22.5235C28.3323 22.5653 28.7452 23.0459 28.7037 23.5965L28.5839 25.1863C28.4634 26.779 27.1359 28.0116 25.5384 28.0118H18.1855C16.5879 28.0116 15.2605 26.7791 15.1399 25.1863L15.0201 23.5965C14.9787 23.0459 15.3915 22.5652 15.942 22.5235C16.4926 22.4821 16.9733 22.8949 17.0149 23.4454L17.1347 25.0353L17.1686 25.2358C17.2918 25.686 17.7036 26.0116 18.1855 26.0118H25.5384C26.0891 26.0116 26.5475 25.5858 26.5892 25.0353L26.7089 23.4454C26.7506 22.8949 27.2313 22.4821 27.7819 22.5235Z" fill="black"/>
<path fill-rule="evenodd" clip-rule="evenodd" d="M4.81281 12.685C4.57908 12.6539 4.34545 12.6218 4.11193 12.5886C3.56528 12.511 3.18545 12.0052 3.26297 11.4584C3.34065 10.9118 3.84646 10.532 4.39318 10.6095C4.96502 10.6906 5.53751 10.7656 6.11054 10.8346L6.11615 10.8204L7.48203 7.03006C7.94347 5.71073 9.13683 4.71148 10.5159 4.48188C13.9264 3.94417 17.3961 3.91108 20.8141 4.38162L21.4964 4.48188C22.8791 4.70537 24.0733 5.70205 24.5393 7.02224L25.9091 10.8256C26.4669 10.7581 27.0254 10.6884 27.582 10.6095C28.1285 10.5323 28.6346 10.9119 28.7122 11.4584C28.7897 12.0053 28.4087 12.5111 27.8619 12.5886C27.6475 12.6191 27.433 12.6486 27.2184 12.6774L27.5849 13.1694C27.9149 13.6122 27.8233 14.2391 27.3805 14.5691C26.9376 14.8989 26.3107 14.8075 25.9807 14.3647L24.9285 12.9524C18.9982 13.5828 13.0179 13.5843 7.08744 12.9569L6.0263 14.4181C5.5386 15.0915 5.27601 15.9016 5.27761 16.7332L5.25677 23.5353C5.25624 23.7045 5.39349 23.8426 5.56276 23.8426H8.15C8.31877 23.8424 8.45595 23.7054 8.45599 23.5366V23.0014C8.45599 21.728 9.48849 20.6954 10.762 20.6954H12.8102C13.3622 20.6957 13.8101 21.1434 13.8102 21.6954C13.8102 22.2475 13.3622 22.6951 12.8102 22.6954H10.762C10.5931 22.6954 10.456 22.8325 10.456 23.0014V23.5366C10.4559 24.81 9.42328 25.8424 8.15 25.8426H5.56276C4.28649 25.8426 3.25278 24.805 3.25677 23.5288L3.27761 16.7319C3.27628 15.479 3.67267 14.2569 4.40782 13.2423L4.81281 12.685ZM23.8648 11.0509C18.6417 11.5513 13.3827 11.5528 8.15946 11.0555L9.37006 7.69021C9.59039 7.06043 10.1771 6.56578 10.8349 6.45584C14.2638 5.91601 17.7562 5.91653 21.1852 6.45714C21.8447 6.56529 22.4366 7.06813 22.6578 7.69933L23.8648 11.0509Z" fill="black"/>
<path d="M15.4968 22.0665C16.9849 22.9376 18.8442 23.495 20.862 23.6339V24.2748C20.862 24.8271 21.3097 25.2748 21.862 25.2748C22.4143 25.2748 22.862 24.8271 22.862 24.2748V23.6335C24.8784 23.4939 26.7404 22.9369 28.2273 22.0665C28.5336 21.8871 28.722 21.5583 28.722 21.2032V19.0235C28.722 17.4043 27.4162 16.0834 25.7885 16.0834H17.9421C16.3229 16.0834 15.002 17.3893 15.002 19.017V21.2032C15.002 21.5584 15.1903 21.8871 15.4968 22.0665ZM21.862 21.6668C20.0125 21.6668 18.3271 21.2626 17.002 20.6056V19.017C17.002 18.5024 17.4189 18.0834 17.9421 18.0834H25.7885C26.3031 18.0834 26.722 18.5004 26.722 19.0235V20.6056C25.3961 21.2626 23.7122 21.6668 21.862 21.6668Z" fill="black"/>
</svg>
