<?xml version="1.0" encoding="UTF-8"?>
<svg id="Capa_1" xmlns="http://www.w3.org/2000/svg" version="1.1" viewBox="0 0 32 32">
  <!-- Generator: Adobe Illustrator 30.0.0, SVG Export Plug-In . SVG Version: 2.1.1 Build 123)  -->
  <defs>
    <style>
      .st0 {
        fill-rule: evenodd;
      }
    </style>
  </defs>
  <path class="st0" d="M12.3,13.75c.39.39,1.02.39,1.41,0s.39-1.02,0-1.41l-1.48-1.48c-.39-.39-1.02-.39-1.41,0-.39.39-.39,1.02,0,1.41l1.48,1.48Z"/>
  <path class="st0" d="M19.56,18.19c-.39-.39-1.02-.39-1.41,0s-.39,1.02,0,1.41l1.48,1.48c.39.39,1.02.39,1.41,0,.39-.39.39-1.02,0-1.41l-1.48-1.48Z"/>
  <path class="st0" d="M28.15,16.94l-1.64-1.64c-.85-.85-2.22-.85-3.07,0l-.34.34c-.07.07-.17.07-.24,0l-6.62-6.62c-.07-.07-.07-.17,0-.24l.34-.34c.85-.85.85-2.22,0-3.07l-1.65-1.65c-.85-.85-2.22-.85-3.07,0l-4.32,4.32c-.82.82-1.36,1.89-1.53,3.03l-.05.37c-.11-.08-.21-.16-.32-.24-.44-.33-1.07-.24-1.4.2-.33.44-.24,1.07.2,1.4.38.28.76.57,1.13.87l-1.5,3.2c-.56,1.16-.43,2.59.33,3.64l.37.5c1.87,2.47,4.1,4.65,6.6,6.47,1.05.75,2.47.87,3.63.31l3.19-1.5c.3.38.6.77.89,1.16.33.44.96.53,1.4.2.44-.33.53-.96.2-1.4-.09-.12-.18-.24-.28-.36l.44-.07c1.13-.18,2.17-.71,2.98-1.52l4.31-4.28c.85-.85.85-2.22,0-3.07ZM8.01,11.39c.1-.64.37-1.23.78-1.72l.19-.2,4.32-4.32c.07-.07.17-.07.24,0l1.65,1.65c.07.07.06.17,0,.24l-.34.34c-.85.85-.85,2.22,0,3.07l4.12,4.12-3.1,1.15-2.03-1.28c-.17-.11-.36-.16-.56-.15l-3.68.11c-.59-.51-1.19-1.01-1.8-1.5l.22-1.49ZM14.64,17.3l-.33,1.51c-.83-.85-1.68-1.68-2.55-2.49l1.27-.04,1.61,1.01ZM14.15,25.99c-.5.24-1.14.19-1.6-.14-2.5-1.82-4.7-4.02-6.52-6.52-.33-.45-.38-1.11-.14-1.61l1.3-2.76c3.54,2.93,6.79,6.18,9.73,9.72l-2.77,1.3ZM26.74,18.59l-4.32,4.29c-.51.51-1.17.85-1.88.96l-1.54.24c-.98-1.2-1.99-2.38-3.03-3.52l.66-3,3.89-1.44.94.94c.85.85,2.22.85,3.07,0l.34-.34c.07-.07.17-.07.24,0l1.64,1.64c.07.07.07.17,0,.24Z"/>
</svg>