<svg width="32" height="32" viewBox="0 0 32 32" fill="none" xmlns="http://www.w3.org/2000/svg">
<path d="M26.275 20.5794C26.275 18.6375 24.7018 17.0628 22.7607 17.0625C20.8193 17.0625 19.2451 18.6373 19.2451 20.5794C19.2453 21.8204 20 23.1587 20.9794 24.2617C21.4543 24.7964 21.9448 25.2334 22.344 25.5286C22.5103 25.6516 22.6515 25.7408 22.7594 25.8021C22.8674 25.7408 23.0092 25.652 23.1761 25.5286C23.5752 25.2334 24.0657 24.7964 24.5406 24.2617C25.5201 23.1587 26.2748 21.8203 26.275 20.5794ZM28.275 20.5794C28.2748 22.5513 27.1338 24.3544 26.0367 25.5898C25.4733 26.2243 24.88 26.7558 24.3649 27.1367C24.1085 27.3263 23.8559 27.4896 23.624 27.6107C23.4404 27.7065 23.1139 27.8631 22.7607 27.8633C22.4071 27.8633 22.0798 27.7065 21.8961 27.6107C21.6641 27.4895 21.4117 27.3263 21.1552 27.1367C20.6401 26.7558 20.0468 26.2243 19.4833 25.5898C18.3863 24.3544 17.2453 22.5512 17.2451 20.5794C17.2451 17.5335 19.714 15.0625 22.7607 15.0625C25.807 15.0628 28.275 17.5336 28.275 20.5794Z" fill="black"/>
<path d="M21.4265 20.6888V20.5416C21.4265 19.8053 22.0235 19.2083 22.7599 19.2083C23.4963 19.2083 24.0932 19.8053 24.0932 20.5416V20.6888L24.0867 20.8242C24.0187 21.4968 23.4504 22.0221 22.7599 22.0221C22.0693 22.0221 21.5011 21.4968 21.4331 20.8242L21.4265 20.6888Z" fill="black"/>
<path fill-rule="evenodd" clip-rule="evenodd" d="M11.6759 25.316C11.673 25.3159 11.6787 25.3158 11.6759 25.316V25.316ZM11.373 25.3893C11.4635 25.3492 11.5595 25.3239 11.6569 25.3164C11.6632 25.3159 11.6696 25.3163 11.6759 25.316C11.6806 25.3157 11.6853 25.316 11.69 25.3158" fill="black"/>
<path fill-rule="evenodd" clip-rule="evenodd" d="M11.6759 25.316C11.673 25.3159 11.6787 25.3158 11.6759 25.316V25.316Z" fill="black"/>
<path d="M19.0814 8.67966C19.2374 8.73613 19.3971 8.77862 19.5586 8.80719V12.2591C19.5586 12.8114 20.0063 13.2591 20.5586 13.2591C21.1109 13.2591 21.5586 12.8114 21.5586 12.2591V8.45674L25.6478 6.63799C25.8391 6.55229 26.0605 6.68925 26.0605 6.91013V12.6679C26.0608 13.22 26.5084 13.6679 27.0605 13.6679C27.6124 13.6677 28.0603 13.2198 28.0605 12.6679V6.91013C28.0605 5.24786 26.353 4.13122 24.8314 4.81247L20.4147 6.77602C20.2091 6.86699 19.9735 6.87504 19.7611 6.79815L12.7077 4.23565C12.0098 3.98125 11.2394 4.00889 10.5605 4.30987L5.73242 6.4544C4.51225 6.99628 3.7247 8.20644 3.72461 9.54294V25.2552C3.72502 26.9146 5.43284 28.0258 6.94987 27.3528L11.373 25.3893C11.4635 25.3492 11.5595 25.3239 11.6569 25.3164C11.6603 25.3161 11.6725 25.316 11.6759 25.316C11.673 25.3159 11.6787 25.3158 11.6759 25.316L11.69 25.3158C11.7999 25.3123 11.9178 25.3292 12.0241 25.3672L14.7077 26.3437C15.2264 26.5327 15.801 26.266 15.9902 25.7474C16.1792 25.2284 15.9115 24.6538 15.3926 24.4648L12.7064 23.487C12.6899 23.481 12.6735 23.4752 12.6569 23.4696V6.34576L19.0814 8.67966ZM10.6569 23.521C10.6251 23.5338 10.5934 23.5472 10.5618 23.5612L6.13867 25.5247C5.94503 25.6108 5.72502 25.4692 5.72461 25.2552V9.54294C5.7247 8.9976 6.04665 8.50375 6.54492 8.28253L10.6569 6.45497V23.521Z" fill="black"/>
</svg>
