<svg width="32" height="32" viewBox="0 0 32 32" fill="none" xmlns="http://www.w3.org/2000/svg">
<path d="M21.2114 17.5506C21.2114 18.1028 20.7637 18.5506 20.2114 18.5506C19.6591 18.5506 19.2114 18.1028 19.2114 17.5506V16.0506C19.2114 15.4983 19.6591 15.0506 20.2114 15.0506C20.7637 15.0506 21.2114 15.4983 21.2114 16.0506V17.5506Z" fill="black"/>
<path fill-rule="evenodd" clip-rule="evenodd" d="M7.4231 8.07031V25.9323H5.00244C4.45016 25.9323 4.00244 26.38 4.00244 26.9323C4.00244 27.4846 4.45016 27.9323 5.00244 27.9323L26.9972 27.9323C27.5495 27.9323 27.9972 27.4846 27.9972 26.9323C27.9972 26.38 27.5495 25.9323 26.9972 25.9323H24.5767V8.07031C24.5767 5.86117 22.7859 4.07031 20.5767 4.07031H11.4231C9.21396 4.07031 7.4231 5.86117 7.4231 8.07031ZM14.9505 8.42839L13.5899 6.07031H11.4231C10.3185 6.07031 9.4231 6.96574 9.4231 8.07031V25.9297H22.5767V8.07031C22.5767 6.96574 21.6813 6.07031 20.5767 6.07031H15.8993L17.0677 8.09375C17.2938 8.48568 17.2275 8.98082 16.9076 9.30078L14.3945 11.8138L16.3815 13.8008C16.7718 14.1912 16.7717 14.8244 16.3815 15.2148C15.9911 15.6053 15.358 15.6052 14.9675 15.2148L12.2734 12.5208C11.8832 12.1303 11.883 11.4972 12.2734 11.1068L14.9505 8.42839ZM20.2114 18.5506C20.7637 18.5506 21.2114 18.1028 21.2114 17.5506V16.0506C21.2114 15.4983 20.7637 15.0506 20.2114 15.0506C19.6591 15.0506 19.2114 15.4983 19.2114 16.0506V17.5506C19.2114 18.1028 19.6591 18.5506 20.2114 18.5506Z" fill="black"/>
</svg>
