<?xml version="1.0" encoding="UTF-8"?>
<svg id="Capa_1" xmlns="http://www.w3.org/2000/svg" version="1.1" viewBox="0 0 32 32">
  <!-- Generator: Adobe Illustrator 30.0.0, SVG Export Plug-In . SVG Version: 2.1.1 Build 123)  -->
  <defs>
    <style>
      .st0 {
        fill-rule: evenodd;
      }
    </style>
  </defs>
  <path class="st0" d="M8.55,23.45c-1.53,0-2.69.42-3.49,1.14-.79.72-1.13,1.66-1.13,2.51,0,.55.45,1,1,1s1-.45,1-1c0-.33.13-.72.47-1.03.34-.31.99-.62,2.15-.62s1.81.31,2.15.62c.34.31.47.69.47,1.02,0,.55.45,1,1,1,.55,0,1-.45,1-1,0-.85-.34-1.79-1.13-2.51-.8-.72-1.96-1.14-3.49-1.14Z"/>
  <path class="st0" d="M26.61,24.58c-.8-.72-1.96-1.14-3.49-1.14s-2.69.42-3.49,1.14c-.79.72-1.13,1.66-1.13,2.51,0,.55.45,1,1,1s1-.45,1-1c0-.33.13-.72.47-1.03.34-.31.99-.62,2.15-.62s1.81.31,2.15.62c.34.31.47.69.47,1.02,0,.55.45,1,1,1,.55,0,1-.45,1-1,0-.85-.34-1.79-1.13-2.51Z"/>
  <path class="st0" d="M8.6,23c1.9,0,3.45-1.54,3.45-3.45,0-1.9-1.54-3.45-3.45-3.45s-3.45,1.54-3.45,3.45c0,1.9,1.54,3.45,3.45,3.45ZM8.6,18.11c.8,0,1.45.65,1.45,1.45,0,.8-.65,1.45-1.45,1.45s-1.45-.65-1.45-1.45c0-.8.65-1.45,1.45-1.45Z"/>
  <path class="st0" d="M19.72,19.55c0,1.9,1.54,3.45,3.45,3.45,1.9,0,3.45-1.54,3.45-3.45,0-1.9-1.54-3.45-3.45-3.45-1.9,0-3.45,1.54-3.45,3.45ZM23.17,18.1c.8,0,1.45.65,1.45,1.45,0,.8-.65,1.45-1.45,1.45-.8,0-1.45-.65-1.45-1.45,0-.8.65-1.45,1.45-1.45Z"/>
  <path class="st0" d="M22.6,10.4c0-1.04-.25-2.01-.67-2.89-.01-.02-.02-.05-.03-.07-.03-.07-.06-.13-.09-.18-1.12-2.06-3.3-3.46-5.81-3.46s-4.71,1.41-5.82,3.49c-.03.03-.05.07-.06.11-.01,0-.01.02-.02.03,0,.03-.02.06-.03.08-.42.88-.67,1.85-.67,2.89,0,3.64,2.95,6.6,6.6,6.6s6.6-2.96,6.6-6.6ZM19.3,7.2c-.18.03-.36.06-.54.09-.05-.24-.11-.48-.18-.7.26.18.5.38.72.61ZM15.46,6.79c.17-.44.34-.73.48-.89.02-.02.04-.04.05-.06.01,0,.02,0,.03.02s.03.02.04.04c.14.16.31.45.48.89.08.21.15.45.21.7-.5.03-1,.03-1.5,0,.06-.25.13-.49.21-.7ZM11.4,10.4c0-.49.07-.96.21-1.39.44.1.89.19,1.34.26-.02.37-.04.75-.04,1.13s.02.75.04,1.12c-.45.07-.9.16-1.34.26-.14-.43-.21-.9-.21-1.38ZM12.69,13.59c.18-.03.36-.07.54-.1.06.25.12.49.19.72-.26-.18-.51-.39-.73-.62ZM13.24,7.29c-.18-.03-.36-.06-.54-.09.22-.23.46-.43.72-.61-.07.22-.13.46-.18.7ZM16.54,14.01c-.17.44-.34.73-.48.89-.02.02-.03.04-.05.05h-.01s-.01,0-.01,0c-.02-.01-.03-.03-.05-.05-.14-.16-.31-.45-.48-.89-.08-.22-.15-.46-.22-.72.51-.02,1.01-.02,1.52,0-.07.26-.14.5-.22.72ZM17.05,11.31c-.7-.04-1.4-.04-2.11,0-.02-.3-.03-.6-.03-.91s.02-.62.03-.92c.71.04,1.41.04,2.11,0,.02.3.03.6.03.92s-.01.61-.03.91ZM18.58,14.21c.07-.23.13-.47.18-.72.19.03.37.07.55.1-.22.23-.47.44-.73.62ZM20.39,11.78c-.44-.1-.89-.19-1.34-.27.02-.36.03-.73.03-1.11s-.01-.76-.04-1.13c.46-.07.91-.16,1.35-.26.14.44.21.9.21,1.39s-.07.95-.21,1.38Z"/>
</svg>