<svg width="32" height="32" viewBox="0 0 32 32" fill="none" xmlns="http://www.w3.org/2000/svg">
<path d="M17.6901 24.0444V21.4975C17.6901 20.671 18.0359 19.8835 18.6393 19.3217L24.9466 13.0847L24.9805 13.0522C25.7864 12.325 26.2461 11.2913 26.2461 10.2071V8.46102C26.2461 7.11425 25.1541 6.02222 23.8073 6.02222H8.19271C6.84592 6.02222 5.75391 7.11424 5.75391 8.46102V11.086C5.75391 12.0943 6.15178 13.0616 6.85938 13.7787L12.4258 18.7332L12.4674 18.7735C13.0246 19.3308 13.3385 20.0873 13.3385 20.8751V25.0053C13.3388 25.6915 14.0311 26.1602 14.668 25.9063L17.0794 24.9467C17.4472 24.8005 17.6901 24.443 17.6901 24.0444ZM28.2461 10.2071C28.2461 11.843 27.557 13.4009 26.3516 14.5053L20.0456 20.7436C20.0348 20.7542 20.0229 20.7647 20.0117 20.7748C19.8069 20.96 19.6901 21.2232 19.6901 21.4975V24.0444C19.6901 25.26 18.95 26.3538 17.8177 26.8035L17.819 26.8048L15.4089 27.7644C13.4587 28.5416 11.3388 27.1054 11.3385 25.0053V20.8751C11.3385 20.6203 11.2369 20.3755 11.0586 20.1941L5.5026 15.2488C5.48803 15.2358 5.47343 15.2222 5.45964 15.2084C4.36842 14.1155 3.75391 12.6329 3.75391 11.086V8.46102C3.75391 6.00968 5.74135 4.02222 8.19271 4.02222H23.8073C26.2586 4.02222 28.2461 6.00967 28.2461 8.46102V10.2071Z" fill="black"/>
</svg>
