<svg width="32" height="32" viewBox="0 0 32 32" fill="none" xmlns="http://www.w3.org/2000/svg">
<path d="M4.18994 24.2512V5.33325C4.18994 4.78097 4.63766 4.33325 5.18994 4.33325C5.74223 4.33325 6.18994 4.78097 6.18994 5.33325V24.2512C6.19029 25.191 6.95202 25.9527 7.89176 25.953H26.8097C27.362 25.953 27.8097 26.4008 27.8097 26.953C27.8097 27.5053 27.362 27.953 26.8097 27.953H7.89176C5.84747 27.9527 4.19029 26.2956 4.18994 24.2512Z" fill="black"/>
<path d="M23.1338 21.2514V17.5366C23.1338 16.9843 23.5815 16.5366 24.1338 16.5366C24.6861 16.5366 25.1338 16.9843 25.1338 17.5366V21.2514C25.1338 21.8037 24.6861 22.2514 24.1338 22.2514C23.5815 22.2514 23.1338 21.8037 23.1338 21.2514Z" fill="black"/>
<path d="M13.854 21.2538V16.177C13.854 15.6247 14.3017 15.177 14.854 15.177C15.4063 15.177 15.854 15.6247 15.854 16.177V21.2538C15.854 21.8061 15.4063 22.2538 14.854 22.2538C14.3017 22.2538 13.8541 21.8061 13.854 21.2538Z" fill="black"/>
<path d="M18.4942 21.2486V19.8749C18.4942 19.3226 18.9419 18.8749 19.4942 18.8749C20.0465 18.8749 20.4942 19.3226 20.4942 19.8749V21.2486C20.4939 21.8006 20.0463 22.2486 19.4942 22.2486C18.9421 22.2486 18.4945 21.8006 18.4942 21.2486Z" fill="black"/>
<path d="M9.0791 21.2486V19.8749C9.0791 19.3226 9.52682 18.8749 10.0791 18.8749C10.6314 18.8749 11.0791 19.3226 11.0791 19.8749V21.2486C11.0788 21.8006 10.6312 22.2486 10.0791 22.2486C9.52701 22.2486 9.07941 21.8006 9.0791 21.2486Z" fill="black"/>
<path d="M24.8156 7.19393C25.1769 6.77672 25.8082 6.73146 26.2257 7.09237C26.6434 7.45377 26.69 8.0862 26.3286 8.50382L21.2752 14.3424C20.9393 14.7301 20.3643 14.8001 19.9445 14.5051L14.7935 10.8879L10.2218 16.2056C9.86175 16.6243 9.23042 16.6725 8.81169 16.3124C8.39297 15.9523 8.34616 15.321 8.70622 14.9023L13.8703 8.89705L14.0057 8.76554C14.3465 8.49426 14.8338 8.47167 15.2023 8.73039L20.3534 12.3489L24.8156 7.19393Z" fill="black"/>
</svg>
