<svg width="32" height="32" viewBox="0 0 32 32" fill="none" xmlns="http://www.w3.org/2000/svg">
<path d="M19.4205 16.2625C20.6563 16.7965 21.9716 16.6755 23.2044 16.3016C23.7329 16.1413 24.0313 15.5827 23.871 15.0542C23.7106 14.5258 23.1521 14.2272 22.6236 14.3875C21.6278 14.6895 20.8462 14.6993 20.2148 14.4266C19.7079 14.2076 19.1189 14.4407 18.8997 14.9474C18.6807 15.4543 18.9138 16.0433 19.4205 16.2625Z" fill="black"/>
<path fill-rule="evenodd" clip-rule="evenodd" d="M9.54677 23.9725H9.63073C9.61685 23.9717 9.60285 23.9712 9.58875 23.9712C9.57465 23.9712 9.56066 23.9717 9.54677 23.9725ZM9.58875 22.1509C9.57464 22.1509 9.56063 22.1505 9.54674 22.1496H9.63076C9.61687 22.1505 9.60286 22.1509 9.58875 22.1509Z" fill="black"/>
<path fill-rule="evenodd" clip-rule="evenodd" d="M29.2801 12.4878C29.2801 16.8586 25.7369 20.4019 21.3661 20.4019C16.9953 20.4019 13.452 16.8586 13.452 12.4878C13.452 8.11698 16.9953 4.57373 21.3661 4.57373C25.7369 4.57373 29.2801 8.11698 29.2801 12.4878ZM15.5917 13.7716H27.1404C26.554 16.4206 24.1914 18.4019 21.3661 18.4019C18.5407 18.4019 16.1781 16.4206 15.5917 13.7716ZM16.3328 9.38102C17.375 7.69621 19.2394 6.57373 21.3661 6.57373C23.4927 6.57373 25.3572 7.69621 26.3993 9.38102H16.3328ZM20.2743 11.8152C20.7332 12.3562 19.1947 13.2899 18.2115 12.7155C17.4206 12.2536 17.3978 10.4909 17.6949 10.2622C17.8127 10.1711 19.6703 11.1033 20.2743 11.8152ZM24.5206 12.7155C23.5374 13.2899 21.9989 12.3562 22.4578 11.8152C23.0618 11.1033 24.9194 10.1711 25.0372 10.2622C25.3343 10.4909 25.3115 12.2536 24.5206 12.7155Z" fill="black"/>
<path fill-rule="evenodd" clip-rule="evenodd" d="M9.63076 22.1496H10.6029C10.9711 22.1496 11.2696 21.8511 11.2696 21.4829C11.2696 21.1147 10.9711 20.8163 10.6029 20.8163H10.2554C10.2554 20.4481 9.95694 20.1496 9.58875 20.1496C9.22056 20.1496 8.92208 20.4481 8.92208 20.8163V20.8322C8.22054 20.9365 7.68234 21.5414 7.68234 22.272C7.68236 23.0759 8.3341 23.7277 9.13807 23.7277H10.0391C10.1067 23.7277 10.1615 23.7825 10.1615 23.8501C10.1614 23.9177 10.1067 23.9725 10.0391 23.9725H9.63073H9.54677H8.57427C8.20608 23.9725 7.9076 24.271 7.9076 24.6392C7.90772 25.0073 8.20615 25.3058 8.57427 25.3058H8.9221C8.9249 25.6716 9.2223 25.9673 9.58875 25.9673C9.95694 25.9673 10.2554 25.6688 10.2554 25.3006C10.8691 25.2092 11.3577 24.7265 11.4703 24.1179C11.4864 24.0309 11.4948 23.9414 11.4948 23.8501C11.4948 23.0461 10.8431 22.3944 10.0391 22.3944H9.13807C9.07052 22.3944 9.01569 22.3396 9.01567 22.272C9.01567 22.2043 9.0705 22.1496 9.13807 22.1496H9.54674H9.63076Z" fill="black"/>
<path d="M13.9319 28.5127L14.204 28.4984C15.4593 28.3711 16.4568 27.3735 16.5842 26.1183L16.5986 25.8461V20.2708C16.5986 18.89 15.5489 17.7549 14.204 17.6185L13.9319 17.6042H5.24575C3.773 17.6042 2.5791 18.7981 2.5791 20.2708V25.8461L2.59342 26.1183C2.72084 27.3735 3.71832 28.3711 4.97362 28.4984L5.24575 28.5127H13.9319ZM14.5986 25.8461C14.5984 26.2141 14.2999 26.5127 13.9319 26.5128H5.24575C4.87767 26.5128 4.57927 26.2142 4.57909 25.8461V20.2708C4.57909 19.9026 4.87757 19.6041 5.24575 19.6041H13.9319C14.3001 19.6042 14.5986 19.9026 14.5986 20.2708V25.8461Z" fill="black"/>
</svg>
