<svg width="32" height="32" viewBox="0 0 32 32" fill="none" xmlns="http://www.w3.org/2000/svg">
<path fill-rule="evenodd" clip-rule="evenodd" d="M21.7201 20.8139L21.624 20.9101C21.6793 20.902 21.7343 20.8929 21.7889 20.8827L21.7201 20.8139Z" fill="black"/>
<path d="M23.1343 19.3997L23.6868 18.8473C23.9839 18.5501 24.4216 18.4791 24.786 18.6342C24.9004 18.6829 25.0076 18.7539 25.101 18.8473C25.4915 19.2378 25.4915 19.871 25.101 20.2615L24.5486 20.8139L24.998 21.2633C25.0432 21.3086 25.0832 21.3571 25.118 21.4081C25.3833 21.7973 25.3433 22.3323 24.998 22.6776C24.6075 23.0681 23.9743 23.0681 23.5838 22.6776L23.1343 22.2281L22.7108 22.6517C22.6745 22.688 22.636 22.721 22.5959 22.7505C22.3475 22.9335 22.0336 22.9871 21.7469 22.9112C21.5819 22.8675 21.426 22.781 21.2966 22.6517C20.9061 22.2611 20.9061 21.628 21.2966 21.2375L21.624 20.9101C21.6793 20.902 21.7343 20.8929 21.7889 20.8827L21.7201 20.8139L21.1936 20.2874C20.8031 19.8969 20.8031 19.2637 21.1936 18.8732C21.5841 18.4827 22.2173 18.4827 22.6078 18.8732L23.1343 19.3997Z" fill="black"/>
<path fill-rule="evenodd" clip-rule="evenodd" d="M11.5257 7.20972C7.73017 7.20972 4.65334 10.2866 4.65332 14.0821C4.65332 17.8777 7.73016 20.9545 11.5257 20.9545H16.9165L16.9106 20.711C16.9106 17.2502 19.7089 14.4441 23.1606 14.4441L23.4822 14.4519C23.8974 14.473 24.3019 14.5348 24.6918 14.6333C23.9641 13.3525 22.5874 12.4886 21.0088 12.4884C20.4559 12.4884 19.9295 12.594 19.4476 12.7852C19.1864 12.8888 18.8929 12.8771 18.6403 12.754C18.388 12.6309 18.1989 12.4074 18.1195 12.1381C17.2806 9.28868 14.6445 7.2098 11.5257 7.20972ZM27.191 15.9211C26.7982 12.8567 24.1802 10.4887 21.0088 10.4884C20.5606 10.4884 20.1225 10.5361 19.7002 10.6264C18.3529 7.44368 15.201 5.2098 11.5257 5.20972C6.62561 5.20972 2.65334 9.18199 2.65332 14.0821C2.65332 18.9822 6.62559 22.9545 11.5257 22.9545H17.323C18.1868 25.2117 20.3155 26.8407 22.8389 26.9688L23.1606 26.9766C26.5043 26.9765 29.2342 24.3435 29.4014 21.0326L29.4106 20.711C29.4106 18.7902 28.5484 17.0709 27.191 15.9211ZM27.4106 20.711C27.4102 23.0718 25.5023 24.9765 23.1606 24.9766C21.636 24.9766 20.2953 24.1694 19.5452 22.9545C19.183 22.3679 18.9585 21.6862 18.9174 20.9545C18.9129 20.8739 18.9106 20.7927 18.9106 20.711C18.9106 18.3498 20.8185 16.4441 23.1606 16.4441C23.9126 16.4441 24.62 16.6407 25.2337 16.9858C25.9464 17.3864 26.5329 17.9872 26.9168 18.7131C27.2319 19.3087 27.4106 19.9885 27.4106 20.711Z" fill="black"/>
</svg>
