<svg width="32" height="32" viewBox="0 0 32 32" fill="none" xmlns="http://www.w3.org/2000/svg">
<path d="M22.7917 9.36987C22.7917 7.48076 21.2589 5.948 19.3698 5.948H12.6289C10.74 5.948 9.20703 7.48069 9.20703 9.37118L9.20833 22.5261C9.20833 24.4152 10.7411 25.948 12.6302 25.948H19.3698C21.2599 25.948 22.7926 24.4161 22.793 22.5261L22.7917 9.36987ZM24.793 22.5248C24.793 25.5197 22.3647 27.948 19.3698 27.948H12.6302C9.63652 27.948 7.20833 25.5198 7.20833 22.5261L7.20703 9.37118L7.21354 9.09123C7.35891 6.22633 9.72869 3.948 12.6289 3.948H19.3698C22.3635 3.948 24.7917 6.37619 24.7917 9.36987L24.793 22.5248Z" fill="black"/>
<path d="M16.1331 21.1003C16.7907 21.1669 17.306 21.7218 17.3063 22.3985C17.3063 23.1199 16.7213 23.7044 16.0003 23.7045C15.2791 23.7045 14.6943 23.1197 14.6943 22.3985C14.6947 21.6771 15.2804 21.0938 16.0003 21.0938L16.1331 21.1003Z" fill="black"/>
<path d="M16.1184 7.93067C16.7408 7.99378 17.2342 8.51749 17.2342 9.16635C17.2339 9.85135 16.6784 10.4069 15.9934 10.4072C15.3507 10.4072 14.8213 9.91856 14.7577 9.29265L14.7512 9.16635C14.7497 8.47654 15.3107 7.92416 15.9921 7.92416L16.1184 7.93067Z" fill="black"/>
<path d="M19.6233 9.71192C20.2458 9.77504 20.7392 10.2988 20.7392 10.9476C20.7389 11.6326 20.1833 12.1882 19.4983 12.1885C18.8557 12.1885 18.3262 11.6998 18.2626 11.0739L18.2561 10.9476C18.2547 10.2579 18.8155 9.70541 19.497 9.70541L19.6233 9.71192Z" fill="black"/>
<path d="M12.6281 9.71192C13.2506 9.77504 13.744 10.2988 13.744 10.9476C13.7437 11.6326 13.1881 12.1882 12.5031 12.1885C11.8605 12.1885 11.331 11.6998 11.2674 11.0739L11.2609 10.9476C11.2595 10.2579 11.8203 9.70541 12.5018 9.70541L12.6281 9.71192Z" fill="black"/>
<path d="M16.0346 11.9033L16.2469 11.9085C17.3043 11.9607 18.2753 12.3902 19.0008 13.0244C19.7672 13.6947 20.3279 14.6593 20.338 15.7393L20.3341 15.9684C20.3076 16.5099 20.1481 17.0775 19.6661 17.4658C19.1442 17.8859 18.5139 17.8671 18.1336 17.8239C17.735 17.7787 17.2762 17.6586 16.9461 17.5817C16.5678 17.4936 16.2747 17.4385 16.0333 17.4385C15.8478 17.4385 15.6049 17.4865 15.2586 17.5765C14.9621 17.6536 14.5311 17.7796 14.1492 17.8369C13.7716 17.8935 13.1998 17.9278 12.6752 17.6156C12.1032 17.2748 11.8448 16.6873 11.7521 16.0804L11.7534 16.0791C11.5638 14.8732 12.175 13.8041 12.963 13.0986C13.7615 12.3839 14.8798 11.9033 16.0346 11.9033ZM16.032 13.9033C15.4128 13.9036 14.7612 14.1722 14.2963 14.5882C13.8818 14.9594 13.7183 15.3434 13.7182 15.6468L13.7286 15.7718L13.7299 15.7783C13.7352 15.8129 13.7428 15.8414 13.7482 15.8656C13.7761 15.8634 13.811 15.8653 13.8523 15.8591C14.0964 15.8224 14.3558 15.7443 14.756 15.6403C15.1067 15.5492 15.568 15.4385 16.0333 15.4385C16.5259 15.4385 17.0162 15.5446 17.3992 15.6338C17.816 15.7309 18.0929 15.8029 18.3341 15.833C18.3345 15.8127 18.3383 15.7907 18.338 15.7666V15.7601C18.3351 15.3736 18.125 14.9164 17.6844 14.5309C17.2496 14.1507 16.656 13.9039 16.032 13.9033Z" fill="black"/>
</svg>
