<?xml version="1.0" encoding="UTF-8"?>
<svg id="Capa_1" xmlns="http://www.w3.org/2000/svg" version="1.1" viewBox="0 0 32 32">
  <!-- Generator: Adobe Illustrator 30.0.0, SVG Export Plug-In . SVG Version: 2.1.1 Build 123)  -->
  <defs>
    <style>
      .st0 {
        fill-rule: evenodd;
      }
    </style>
  </defs>
  <path class="st0" d="M25.6,23.43c1.59-2.05,2.54-4.63,2.54-7.43,0-6.7-5.43-12.14-12.14-12.14-6.7,0-12.14,5.43-12.14,12.14,0,6.7,5.44,12.14,12.14,12.14h9.15c1.64,0,2.58-1.88,1.59-3.19l-1.14-1.52ZM25,11.33c.62,1.19,1,2.51,1.11,3.91h-4.39c-.02-1.27-.09-2.56-.22-3.91h3.5ZM23.64,9.33h-2.36c-.09-.7-.19-1.42-.3-2.17,1.01.57,1.9,1.3,2.66,2.17ZM13.46,6.18c.81-.21,1.66-.32,2.54-.32.98,0,1.92.14,2.81.39.18,1.08.33,2.1.45,3.08h-6.27c.13-.99.28-2.04.47-3.15ZM7,11.33h3.76c-.13,1.37-.2,2.67-.22,3.96h-4.65c.1-1.41.49-2.75,1.11-3.96ZM7,20.68c-.54-1.03-.9-2.17-1.06-3.37h4.6c.03,1.09.1,2.21.21,3.37h-3.75ZM8.37,22.68h2.6c.09.74.19,1.5.31,2.29-1.1-.58-2.09-1.36-2.9-2.29ZM10.98,9.33h-2.62c.82-.94,1.82-1.73,2.94-2.32-.12.8-.23,1.58-.32,2.32ZM18.79,26.14h-2.79c-.89,0-1.76-.12-2.58-.33-.17-1.1-.32-2.14-.44-3.13h6.3c-.13,1.09-.3,2.23-.49,3.46ZM19.5,20.68h-6.74c-.11-1.17-.18-2.29-.21-3.39l7.16-.02c-.03,1.11-.1,2.23-.21,3.41ZM12.54,15.28c.02-1.28.1-2.58.23-3.95h6.73c.13,1.36.21,2.65.23,3.93l-7.19.02ZM20.81,26.14c.19-1.22.35-2.37.48-3.46h2.39c-.27.54-.25,1.21.14,1.73l1.3,1.73h-4.32ZM25,20.68h-3.49c.11-1.18.18-2.3.21-3.42h4.35c-.15,1.21-.52,2.37-1.07,3.42Z"/>
</svg>