<svg width="32" height="32" viewBox="0 0 32 32" fill="none" xmlns="http://www.w3.org/2000/svg">
<path d="M24.0743 22.6913C24.0743 21.6837 23.6294 20.5029 22.4401 19.5533C21.2416 18.5963 19.2167 17.8228 16.0013 17.8228C12.787 17.8229 10.7628 18.6017 9.56384 19.5637C8.37322 20.5191 7.92712 21.7057 7.92712 22.7135C7.92712 23.2657 7.47941 23.7135 6.92712 23.7135C6.37484 23.7135 5.92712 23.2657 5.92712 22.7135C5.92712 21.0975 6.65021 19.3378 8.31254 18.0038C9.96651 16.6768 12.4794 15.8229 16.0013 15.8228C19.5212 15.8228 22.0335 16.6702 23.6875 17.9908C25.3509 19.319 26.0743 21.0739 26.0743 22.6913C26.0741 23.2434 25.6264 23.6913 25.0743 23.6913C24.5223 23.6911 24.0745 23.2433 24.0743 22.6913Z" fill="black"/>
<path d="M19.5408 9.63403C19.5408 7.65924 17.9503 6.06766 16.0004 6.06763C14.0517 6.06763 12.4613 7.65906 12.4613 9.63403C12.4617 11.6087 14.0519 13.1991 16.0004 13.1991C17.9502 13.1991 19.5404 11.6085 19.5408 9.63403ZM21.5408 9.63403C21.5404 12.7024 19.0654 15.1991 16.0004 15.1991C12.9364 15.1991 10.4617 12.7023 10.4613 9.63403C10.4613 6.56547 12.9362 4.06763 16.0004 4.06763C19.0656 4.06766 21.5408 6.56533 21.5408 9.63403Z" fill="black"/>
<path d="M22.0946 26.1249V21.4114C22.0946 20.675 21.4976 20.078 20.7613 20.078H11.4214L11.2847 20.0846C10.6125 20.153 10.0881 20.7211 10.0881 21.4114V26.1249H5.68115C5.12887 26.1249 4.68115 26.5726 4.68115 27.1249C4.68115 27.6772 5.12887 28.1249 5.68115 28.1249H26.1603C26.7124 28.1247 27.1603 27.677 27.1603 27.1249C27.1603 26.5728 26.7124 26.1252 26.1603 26.1249H22.0946ZM20.0946 22.078V26.1249H12.0881V22.078H20.0946Z" fill="black"/>
</svg>
