<svg width="32" height="32" viewBox="0 0 32 32" fill="none" xmlns="http://www.w3.org/2000/svg">
<path d="M7.52749 11.5049C11.7097 8.15048 17.6851 8.15067 21.8673 11.5049C22.2982 11.8505 22.3678 12.4803 22.0223 12.9112C21.6767 13.3419 21.0468 13.4103 20.616 13.0648C17.1652 10.2973 12.231 10.2974 8.78009 13.0648C8.34933 13.4103 7.71943 13.3418 7.37384 12.9112C7.02835 12.4804 7.09688 11.8505 7.52749 11.5049Z" fill="black"/>
<path d="M4.41535 7.57261C10.3972 2.71157 18.9973 2.71138 24.9791 7.57261C25.4077 7.92091 25.4719 8.55029 25.1237 8.97886C24.7754 9.40746 24.146 9.47301 23.7174 9.1247C18.4704 4.8607 10.9227 4.86061 5.67576 9.1247C5.24717 9.47283 4.61777 9.4074 4.26951 8.97886C3.92155 8.55027 3.98687 7.92082 4.41535 7.57261Z" fill="black"/>
<path d="M19.7943 24.3038V24.2842C19.7943 23.7319 20.2421 23.2842 20.7943 23.2842C21.3466 23.2842 21.7943 23.7319 21.7943 24.2842V24.3038C21.7941 24.8558 21.3465 25.3038 20.7943 25.3038C20.2422 25.3038 19.7946 24.8558 19.7943 24.3038Z" fill="black"/>
<path d="M21.5414 19.303C21.5414 18.9595 21.2656 18.6846 20.9242 18.6846C20.5786 18.6846 20.3057 18.9576 20.3057 19.303C20.3056 19.8552 19.8579 20.303 19.3057 20.303C18.7535 20.303 18.3058 19.8552 18.3057 19.303C18.3057 17.853 19.4741 16.6846 20.9242 16.6846C22.3664 16.6846 23.5414 17.8511 23.5414 19.303C23.5413 20.3484 22.9343 21.0783 22.2015 21.4866C22.0697 21.5618 21.9985 21.6014 21.9047 21.6585C21.8305 21.7036 21.7844 21.7376 21.7549 21.7627C21.7289 22.2857 21.3014 22.7049 20.7705 22.7119C20.2185 22.7189 19.7648 22.277 19.7575 21.7249C19.7489 21.0603 20.0688 20.5881 20.4073 20.2835C20.6975 20.0224 21.0715 19.831 21.2119 19.751L21.225 19.7444C21.3622 19.6688 21.4382 19.5915 21.4789 19.5309C21.5144 19.4777 21.5413 19.4101 21.5414 19.303Z" fill="black"/>
<path d="M20.7945 13.7364C19.5144 13.7364 18.3135 14.0752 17.2765 14.6681C15.1473 13.6932 12.5719 13.9911 10.7211 15.5726C10.3013 15.9313 10.2518 16.5629 10.6104 16.9828C10.9692 17.4026 11.6007 17.4522 12.0206 17.0934C12.9858 16.2686 14.2501 15.9622 15.4404 16.1744C14.3545 17.4211 13.6969 19.0508 13.6969 20.834C13.697 24.7532 16.8745 27.9317 20.7945 27.9317C24.7145 27.9316 27.8921 24.7532 27.8922 20.834C27.8922 16.914 24.7145 13.7365 20.7945 13.7364ZM15.6969 20.834C15.6969 19.3408 16.3388 17.9976 17.3617 17.0653C17.835 16.634 18.3898 16.2907 19.0003 16.0611C19.5584 15.8512 20.163 15.7364 20.7945 15.7364C23.6099 15.7365 25.8922 18.0186 25.8922 20.834C25.8921 23.6487 23.6098 25.9316 20.7945 25.9317C17.9792 25.9317 15.697 23.6488 15.6969 20.834Z" fill="black"/>
</svg>
