<svg width="32" height="32" viewBox="0 0 32 32" fill="none" xmlns="http://www.w3.org/2000/svg">
<path d="M7.546 7.5637C12.5494 2.56067 20.9021 2.92043 25.4223 8.63662C28.7932 12.8995 28.7915 19.0507 25.4952 23.3228L25.1658 23.7304C22.9021 26.4067 19.7765 27.8234 16.602 27.9804L15.9666 27.9947H7.1736C5.5187 27.9947 4.54831 26.1521 5.46006 24.7864C5.73329 24.376 6.0799 23.8831 6.34939 23.5051C6.38903 23.4469 6.39176 23.3742 6.3572 23.3137L5.6684 22.0936C5.43289 21.6633 5.22165 21.2579 5.12673 21.022C3.10625 16.6032 3.89999 11.2097 7.546 7.5637ZM23.8546 9.8775C20.0854 5.1106 13.1275 4.8107 8.96006 8.97776C6.01017 11.9277 5.29757 16.2544 6.80902 19.8801L6.96267 20.2291L6.9822 20.2746C7.00128 20.322 7.03071 20.3862 7.06861 20.4633C7.09145 20.5097 7.11733 20.5609 7.14576 20.6161C7.15115 20.6266 7.15679 20.6371 7.16236 20.6478C7.17976 20.6814 7.19801 20.7163 7.21705 20.7523C7.24585 20.8069 7.27636 20.8641 7.30836 20.9235C7.31128 20.9289 7.3142 20.9344 7.31715 20.9398C7.32326 20.9512 7.32949 20.9625 7.3357 20.974C7.33836 20.9789 7.34083 20.984 7.34351 20.9889C7.36896 21.0358 7.39544 21.0838 7.4223 21.1327L8.08897 22.3137L8.16449 22.4543C8.29609 22.7264 8.36743 23.0179 8.37965 23.3107C8.38059 23.3332 8.38087 23.3558 8.38111 23.3783C8.38593 23.8298 8.25081 24.2807 7.97959 24.664C7.71359 25.0371 7.38059 25.5112 7.12543 25.8944C7.11302 25.913 7.11124 25.9254 7.1111 25.9296C7.11091 25.9373 7.11298 25.9498 7.12022 25.9634C7.12731 25.9766 7.13555 25.9846 7.14105 25.9882C7.13763 25.9872 7.14356 25.9898 7.14105 25.9882C7.14427 25.9891 7.1608 25.9947 7.1736 25.9947H15.9731C18.7971 26.0044 21.6229 24.8234 23.6397 22.4387L23.9132 22.1002C26.6511 18.55 26.6519 13.4153 23.8546 9.8775Z" fill="black"/>
<path fill-rule="evenodd" clip-rule="evenodd" d="M16.5116 20.9377C16.5067 20.9406 16.5024 20.9431 16.4986 20.9452L16.5116 20.9377Z" fill="black"/>
<path fill-rule="evenodd" clip-rule="evenodd" d="M13.4843 11.9035C14.3235 11.635 15.2237 11.7015 16.0051 12.0702C16.783 11.7069 17.6762 11.6396 18.5117 11.9022C20.6158 12.5787 21.2272 14.8131 20.6757 16.5429C20.2438 17.9169 19.1174 19.0321 18.2382 19.7473C17.78 20.12 17.347 20.4188 17.0286 20.6236C16.8689 20.7263 16.7361 20.8063 16.6419 20.8619C16.5948 20.8896 16.5568 20.9117 16.5299 20.927L16.5116 20.9377L16.4986 20.9452L16.4856 20.9517C16.1873 21.1154 15.8237 21.1181 15.5247 20.9556L15.5091 20.9465L15.4765 20.9283C15.4497 20.9132 15.4124 20.8918 15.3658 20.8645C15.319 20.837 15.2626 20.8033 15.198 20.7638C15.1585 20.7396 15.1159 20.7132 15.0706 20.6847C15.0416 20.6665 15.0115 20.6474 14.9804 20.6275C14.7907 20.506 14.5597 20.3514 14.3069 20.1671C14.1374 20.0436 13.9581 19.9067 13.7747 19.7577C12.8953 19.0431 11.7733 17.9316 11.3294 16.5507C10.7768 14.8237 11.3748 12.5817 13.4843 11.9035ZM14.0937 13.8072C14.1302 13.7955 14.1669 13.7854 14.2039 13.7768C14.2109 13.7751 14.2178 13.7734 14.2249 13.7719C14.3346 13.7479 14.4517 13.7371 14.5623 13.7389C14.5706 13.7391 14.5789 13.7393 14.5872 13.7396C14.7509 13.7458 14.9128 13.7798 15.0657 13.8402C15.078 13.8451 15.0901 13.8502 15.1023 13.8554C15.1194 13.8627 15.1446 13.874 15.1614 13.882C15.2413 13.9205 15.3181 13.9667 15.3909 14.0202C15.3946 14.0229 15.3986 14.0258 15.4023 14.0285C15.756 14.2937 16.2423 14.2955 16.5976 14.0324C16.7251 13.938 16.8652 13.8658 17.012 13.8173C17.0193 13.8149 17.0266 13.8127 17.0339 13.8104C17.0537 13.8044 17.0809 13.7964 17.1008 13.7912C17.3608 13.7243 17.6438 13.7274 17.9062 13.8085C18.6663 14.0531 19.0891 14.9441 18.7682 15.9452C18.5199 16.7346 17.7874 17.5368 16.9765 18.1965C16.6148 18.4907 16.2665 18.7299 15.9999 18.9035C15.7363 18.7323 15.3936 18.4959 15.0364 18.2056C14.3323 17.6335 13.6792 16.9464 13.3528 16.2421L13.2343 15.9387C12.9134 14.9343 13.3368 14.0511 14.0937 13.8072Z" fill="black"/>
</svg>
