<svg width="32" height="32" viewBox="0 0 32 32" fill="none" xmlns="http://www.w3.org/2000/svg">
<path d="M8.44531 18.7751C8.44531 17.5705 7.68219 16.9548 7.14193 16.9548C6.60268 16.9552 5.83984 17.5713 5.83984 18.7751V24.1761C5.83984 25.3791 6.60202 25.9947 7.14193 25.9951C7.68285 25.9951 8.44531 25.3799 8.44531 24.1761V18.7751ZM10.4453 24.1761C10.4453 26.0877 9.14628 27.9951 7.14193 27.9951C5.13954 27.9947 3.83984 26.0879 3.83984 24.1761V18.7751C3.83984 16.8641 5.13888 14.9551 7.14193 14.9548C9.14694 14.9548 10.4453 16.8643 10.4453 18.7751V24.1761Z" fill="black"/>
<path d="M26.16 14.71C26.1597 13.5082 25.3961 12.8923 24.8566 12.8923C24.3161 12.8927 23.5548 13.5082 23.5545 14.71V24.1774C23.5547 25.3806 24.3157 25.9947 24.8566 25.9951C25.3965 25.9951 26.1599 25.3806 26.16 24.1774V14.71ZM28.16 24.1774C28.1599 26.0893 26.8592 27.9951 24.8566 27.9951C22.8527 27.9947 21.5547 26.0887 21.5545 24.1774V14.71C21.5548 12.8008 22.8524 10.8926 24.8566 10.8923C26.8594 10.8923 28.1597 12.8003 28.16 14.71V24.1774Z" fill="black"/>
<path d="M17.3027 7.84017C17.3024 6.63841 16.5388 6.02246 15.9993 6.02246C15.4588 6.0229 14.6975 6.63845 14.6972 7.84017V24.1774C14.6972 25.3807 15.4584 25.996 15.9993 25.9964C16.5392 25.9964 17.3027 25.3807 17.3027 24.1774V7.84017ZM19.3027 24.1774C19.3027 26.0892 18.002 27.9964 15.9993 27.9964C13.9952 27.996 12.6972 26.0886 12.6972 24.1774V7.84017C12.6975 5.93105 13.9951 4.02283 15.9993 4.02246C18.0021 4.02246 19.3024 5.93046 19.3027 7.84017V24.1774Z" fill="black"/>
</svg>
