<svg width="32" height="32" viewBox="0 0 32 32" fill="none" xmlns="http://www.w3.org/2000/svg">
<path fill-rule="evenodd" clip-rule="evenodd" d="M10.2601 7.1216C10.3569 7.08642 10.3729 7.08085 10.3729 7.08085L10.2601 7.1216Z" fill="black"/>
<path fill-rule="evenodd" clip-rule="evenodd" d="M3.99922 16.1622L3.99916 16.1238L3.99921 16.0869C3.9989 16.0952 3.99907 16.1155 3.99916 16.1238C3.99906 16.1326 3.99888 16.1534 3.99922 16.1622ZM10.2601 7.1216C10.3487 7.0894 10.3688 7.08215 10.3729 7.08085L10.2601 7.1216ZM10.3729 7.08085L10.2601 7.1216L10.3729 7.08085Z" fill="black"/>
<path fill-rule="evenodd" clip-rule="evenodd" d="M16.4116 4.09443C16.5136 4.08265 16.619 4.08655 16.7246 4.10806C16.6206 4.10219 16.5162 4.09764 16.4116 4.09443Z" fill="black"/>
<path fill-rule="evenodd" clip-rule="evenodd" d="M10.2601 7.1216C10.3569 7.08642 10.3729 7.08085 10.3729 7.08085L10.2601 7.1216Z" fill="black"/>
<path fill-rule="evenodd" clip-rule="evenodd" d="M9.8929 7.25502L10.2601 7.1216C10.3569 7.08642 10.3729 7.08085 10.3729 7.08085L9.8929 7.25502Z" fill="black"/>
<path fill-rule="evenodd" clip-rule="evenodd" d="M7.76219 21.8074C9.35257 24.1184 11.8859 25.7299 14.8064 26.0861C15.3546 26.153 15.7444 26.6512 15.6775 27.1993C15.6106 27.7475 15.1125 28.1373 14.5643 28.0704C8.62289 27.3458 4.01836 22.2954 3.99922 16.1622L3.99916 16.1238L3.99921 16.0869C4.01914 9.45747 9.40042 4.08866 16.0356 4.08866C16.1614 4.08866 16.2867 4.09059 16.4116 4.09443C16.5162 4.09764 16.6206 4.10219 16.7246 4.10806C16.7365 4.11048 16.7484 4.11313 16.7603 4.11601C22.6162 4.46401 27.345 8.99363 27.9939 14.7644C28.0555 15.3131 27.6611 15.8082 27.1124 15.8699C26.5636 15.9316 26.0687 15.5359 26.007 14.9871C25.4943 10.4302 21.9265 6.79659 17.4009 6.18079C17.3953 6.36216 17.398 6.56213 17.4153 6.77226C17.484 7.60924 17.7697 8.48959 18.5416 9.09257L18.8996 9.3595C19.2526 9.60956 19.5916 9.81259 19.9166 9.99621C20.0412 10.0666 20.1737 10.1394 20.3086 10.2134C20.608 10.3777 20.9189 10.5483 21.1796 10.7137C21.5871 10.9721 22.0018 11.2924 22.3293 11.7579C22.6625 12.2314 22.8594 12.7877 22.9426 13.4519C23.0111 14 22.6221 14.5006 22.0741 14.5691C21.5262 14.6375 21.0267 14.2486 20.9582 13.7006C20.9076 13.2961 20.8031 13.0659 20.6926 12.909C20.5765 12.7441 20.4042 12.5903 20.108 12.4025C19.8994 12.2702 19.6861 12.1534 19.425 12.0103C19.2784 11.93 19.1166 11.8414 18.9322 11.7371C18.5714 11.5332 18.1713 11.2945 17.7447 10.9923L17.3098 10.6681C15.9304 9.59048 15.5153 8.07475 15.4218 6.93632C15.3974 6.63928 15.3938 6.35965 15.4019 6.10834C13.6236 6.21913 11.9707 6.79302 10.5625 7.71079C10.6134 7.90445 10.6688 8.13747 10.7205 8.40116C10.8715 9.17209 10.9991 10.2416 10.8742 11.379C10.7488 12.5205 10.3629 13.7742 9.44968 14.8465C8.66662 15.7658 7.5498 16.4884 6.02966 16.9121C6.1155 18.0171 6.38031 19.072 6.79511 20.0477C7.59994 19.7015 8.55337 19.1726 9.66322 18.379C10.8265 17.5418 12.1023 17.1941 13.2127 17.8933C14.19 18.509 14.6509 19.7319 14.8676 20.9324C14.9658 21.4759 14.6052 21.9957 14.0617 22.0939C13.5183 22.1919 12.9984 21.8312 12.9002 21.2879C12.7045 20.2038 12.3731 19.7268 12.1476 19.5848C12.0562 19.5272 11.7192 19.3622 10.8286 20.004C9.69634 20.8136 8.67582 21.3976 7.76219 21.8074ZM10.3729 7.08085C10.3729 7.08085 10.3569 7.08642 10.2601 7.1216L9.8929 7.25502L10.3729 7.08085ZM6.08705 14.79C6.37654 12.6109 7.36544 10.6526 8.82076 9.14806C8.9127 9.7383 8.96449 10.4439 8.88588 11.1603C8.79077 12.0264 8.51111 12.8643 7.92754 13.5496C7.52579 14.0213 6.94342 14.4635 6.08705 14.79Z" fill="black"/>
<path d="M25.6434 24.3418C26.1807 23.5666 26.4956 22.6255 26.4956 21.6111C26.4953 18.9612 24.3461 16.8129 21.6962 16.8129C19.0465 16.8133 16.8983 18.9614 16.898 21.6111C16.898 24.2611 19.0462 26.4103 21.6962 26.4106C22.6079 26.4106 23.4603 26.1562 24.1863 25.7146L25.4862 27.0118C25.8769 27.4018 26.5101 27.4009 26.9003 27.0105C27.2904 26.6197 27.2898 25.9866 26.899 25.5965L25.6434 24.3418ZM21.6962 18.8129C23.2416 18.8129 24.4953 20.0658 24.4956 21.6111C24.4956 23.1567 23.2418 24.4106 21.6962 24.4106C20.1508 24.4103 18.898 23.1565 18.898 21.6111C18.8983 20.066 20.151 18.8133 21.6962 18.8129Z" fill="black"/>
</svg>
