<?xml version="1.0" encoding="UTF-8"?>
<svg id="Capa_1" xmlns="http://www.w3.org/2000/svg" version="1.1" viewBox="0 0 32 32">
  <!-- Generator: Adobe Illustrator 30.0.0, SVG Export Plug-In . SVG Version: 2.1.1 Build 123)  -->
  <defs>
    <style>
      .st0 {
        fill-rule: evenodd;
      }
    </style>
  </defs>
  <path class="st0" d="M9.73,13.26c.4.24.86.37,1.36.37,1.47,0,2.66-1.19,2.67-2.66,0-.96-.51-1.8-1.27-2.27-.41-.25-.89-.4-1.4-.4-.31,0-.62.05-.9.15-1.03.37-1.77,1.35-1.77,2.51,0,.16.01.32.04.48.14.77.61,1.43,1.26,1.81ZM11.09,10.31c.11,0,.21.03.3.07.21.11.36.33.36.59,0,.37-.3.66-.67.66-.13,0-.26-.04-.36-.11-.18-.12-.31-.32-.31-.56,0-.37.3-.67.67-.67Z"/>
  <path class="st0" d="M27.81,13.95c-.34-1.45-1.28-2.69-2.74-3.53l-1.49-.86c-.04-1.57-.55-2.98-1.52-4.02-1.02-1.09-2.46-1.69-4.14-1.69h-8.21c-1.68,0-3.11.6-4.13,1.69-1.01,1.08-1.52,2.56-1.52,4.2v4.93c0,.05,0,.11,0,.16v2.65c0,1.64.51,3.12,1.52,4.2.68.73,1.56,1.24,2.57,1.5l.06.03,7.11,4.11c1.45.84,3,1.04,4.42.61,1.41-.43,2.6-1.46,3.42-2.88l3.87-6.7c.82-1.42,1.11-2.96.78-4.4ZM6.06,9.74c0-1.23.38-2.19.99-2.84.6-.64,1.49-1.05,2.67-1.05h8.21c1.19,0,2.08.41,2.67,1.05.34.36.61.83.78,1.38.13.43.21.92.21,1.46v1.79c-3.75.45-6.99,2.59-8.91,5.64-1.08-1.05-2.35-1.9-3.76-2.49-.62-.26-1.27-.48-1.94-.64-.3-.07-.61-.13-.91-.18v-4.12ZM21.58,13.55v3.93c0,1.23-.38,2.19-.99,2.84-.6.64-1.49,1.05-2.67,1.05h-4.86c.16-.72.41-1.41.72-2.07,1.45-3.04,4.35-5.26,7.81-5.75ZM11.01,21.37h-1.31c-.28,0-.55-.02-.8-.07-.8-.14-1.42-.5-1.87-.98-.6-.65-.98-1.61-.98-2.84v-1.59c.64.12,1.26.3,1.85.54,1.46.58,2.76,1.48,3.8,2.62-.3.74-.53,1.52-.69,2.32ZM25.3,17.35l-3.87,6.7c-.61,1.06-1.42,1.71-2.27,1.96-.84.26-1.81.17-2.84-.43l-3.84-2.22h5.45c1.68,0,3.12-.6,4.14-1.69,1.01-1.08,1.52-2.56,1.52-4.2v-4.96s0-.07,0-.11v-.03s0-.52,0-.52l.49.28c1.03.59,1.59,1.4,1.79,2.25.2.86.05,1.89-.56,2.95Z"/>
</svg>