<svg width="32" height="32" viewBox="0 0 32 32" fill="none" xmlns="http://www.w3.org/2000/svg">
<path fill-rule="evenodd" clip-rule="evenodd" d="M3.01263 11.5429C3.53761 6.4013 8.23762 2.58493 13.3472 4.47061C14.3208 4.82678 15.2238 5.37723 16.0011 6.07849C16.5307 5.60006 17.1184 5.19267 17.7458 4.86895C22.5623 2.38291 28.1245 5.54087 28.9353 11.0577C29.4783 14.9753 27.7339 18.1062 25.4416 20.6485C23.8193 22.4476 21.8055 24.0689 20.0112 25.5133L20.0003 25.5221C19.3072 26.0801 18.647 26.6117 18.0552 27.1169C18.0468 27.1241 18.038 27.1317 18.0287 27.1398C18.0171 27.1499 18.0048 27.1607 17.9918 27.172C17.799 27.3407 17.4573 27.6396 17.0372 27.8095C16.095 28.21 14.9831 28.0243 14.2064 27.3521C13.5637 26.8023 12.8333 26.2207 12.0636 25.6079L12.0548 25.6009C10.3216 24.2209 8.38917 22.6823 6.8097 20.9955C4.47915 18.5066 2.64399 15.4292 3.01263 11.5429ZM5.00715 11.76C4.72431 14.7564 6.09909 17.2449 8.24527 19.5369C9.72352 21.1155 11.4429 22.4828 13.1177 23.8146C13.9262 24.4575 14.7261 25.0936 15.4817 25.7399C15.6951 25.9251 16.0321 25.9822 16.2828 25.874C16.2922 25.8699 16.3015 25.866 16.311 25.8623C16.4016 25.8265 16.4812 25.7603 16.7357 25.5426L16.7755 25.5086C17.4613 24.9231 18.1907 24.3356 18.9219 23.7472C20.6699 22.3405 22.4735 20.8888 23.9798 19.2182C26.0757 16.8939 27.3673 14.3751 26.9511 11.3606C26.336 7.19311 22.191 4.90576 18.6361 6.74075C17.9229 7.10872 17.2781 7.61937 16.7513 8.23631C16.5612 8.45882 16.289 8.58625 16.0031 8.58654C15.7172 8.58685 15.4447 8.45998 15.2542 8.23787C14.5586 7.42661 13.6645 6.80048 12.6816 6.4411C8.96595 5.0691 5.41692 7.7674 5.00715 11.76Z" fill="black"/>
</svg>
