<svg width="32" height="32" viewBox="0 0 32 32" fill="none" xmlns="http://www.w3.org/2000/svg">
<path d="M27.5781 22.6007C28.0787 22.3677 28.6731 22.5845 28.9062 23.0851C29.1393 23.5857 28.9225 24.1801 28.4218 24.4132L24.1145 26.4197C22.0609 27.3759 19.722 27.5222 17.5651 26.8299L12.9348 25.3442C10.7879 24.6552 8.4406 25.0423 6.62885 26.3846L4.93615 27.6385C4.49241 27.9671 3.86647 27.8738 3.53771 27.4301C3.20904 26.9864 3.30235 26.3605 3.74604 26.0317L5.43745 24.7778C7.76698 23.0516 10.7862 22.5532 13.5468 23.4392L18.1757 24.9262C19.8534 25.4647 21.6735 25.3497 23.2708 24.6059L27.5781 22.6007Z" fill="black"/>
<path fill-rule="evenodd" clip-rule="evenodd" d="M27.0052 13.7627L27.3788 14.0585C27.8118 14.4012 28.441 14.3285 28.7838 13.8958C29.1265 13.4628 29.0538 12.8337 28.621 12.4908L24.5573 9.27388V6.59108C24.5573 6.0388 24.1096 5.59109 23.5573 5.59109C23.005 5.59109 22.5573 6.0388 22.5573 6.59108V7.69064L18.5859 4.54681C17.1652 3.4237 15.1951 3.35331 13.7057 4.33588L13.414 4.54681L3.37885 12.4908C2.94611 12.8337 2.87339 13.4628 3.21609 13.8958C3.55893 14.3285 4.18811 14.4012 4.62104 14.0585L4.99604 13.7617V21.4071L3.74604 22.3338C3.30235 22.6625 3.20904 23.2885 3.53771 23.7322C3.86647 24.1759 4.49241 24.2692 4.93615 23.9405L6.62885 22.6866C8.4406 21.3444 10.7879 20.9572 12.9348 21.6463L17.5651 23.1319C19.722 23.8243 22.0609 23.678 24.1145 22.7218L28.4218 20.7153C28.9225 20.4821 29.1393 19.8878 28.9062 19.3872C28.6731 18.8866 28.0787 18.6698 27.5781 18.9028L27.0052 19.1695V13.7627ZM17.345 6.11582L25.0052 12.1795V20.1006L23.2708 20.908C22.2849 21.3671 21.2141 21.5866 20.1444 21.5608L20.1444 17.3644C20.1445 16.9264 20.1446 16.5383 20.117 16.2146C20.0866 15.8577 20.0186 15.4924 19.8319 15.1378C19.5626 14.6263 19.1417 14.2149 18.6379 13.9425L18.4178 13.8344C18.0617 13.6772 17.695 13.6187 17.3241 13.5922C16.9761 13.5674 16.5544 13.5674 16.0612 13.5675L15.8503 13.5675C15.3956 13.5675 15.0035 13.5689 14.6769 13.5922C14.3062 13.6187 13.9404 13.6774 13.5845 13.8344C13.0582 14.0666 12.6064 14.4426 12.2954 14.9242L12.1704 15.1365C11.9835 15.4912 11.9157 15.8575 11.8853 16.2146C11.8584 16.5308 11.8567 16.9085 11.8566 17.3341L11.8566 19.3733C10.1957 19.1763 8.51133 19.4466 6.99604 20.1523V12.1785L14.6549 6.11582L14.8059 6.00645C15.5808 5.49502 16.6057 5.53153 17.345 6.11582ZM18.1444 21.2182L13.8566 19.8408V17.4451C13.8566 16.9396 13.8571 16.6229 13.8775 16.3839C13.8967 16.1583 13.9284 16.0908 13.94 16.0688C14.0252 15.9071 14.1785 15.7579 14.3918 15.6638C14.4475 15.6393 14.5547 15.6059 14.8202 15.587C15.0943 15.5675 15.4528 15.5675 15.9999 15.5675C16.5454 15.5675 16.9085 15.5675 17.1821 15.587C17.447 15.6059 17.5549 15.6393 17.6105 15.6638C17.8237 15.758 17.9773 15.9075 18.0624 16.0688C18.0739 16.0908 18.1043 16.1583 18.1235 16.3839C18.1439 16.6229 18.1444 16.9396 18.1444 17.4451V21.2182Z" fill="black"/>
</svg>
