<svg width="32" height="32" viewBox="0 0 32 32" fill="none" xmlns="http://www.w3.org/2000/svg">
<path fill-rule="evenodd" clip-rule="evenodd" d="M19.3877 16.1918C19.3885 16.1611 19.3889 16.1303 19.3889 16.0995L19.3877 16.1918ZM19.3877 16.0077L19.3889 16.0995C19.3889 16.0688 19.3885 16.0382 19.3877 16.0077Z" fill="black"/>
<path fill-rule="evenodd" clip-rule="evenodd" d="M21.3877 16.216C21.3885 16.1772 21.3889 16.1384 21.3889 16.0995C21.3889 16.0607 21.3885 16.0221 21.3877 15.9835V16.216Z" fill="black"/>
<path d="M15.9984 6.13013C21.5125 6.13013 25.971 10.4904 25.971 16.1015C25.971 17.3243 25.6844 18.1861 25.2848 18.7161C24.9086 19.2147 24.3846 19.4882 23.6794 19.4882C22.4136 19.4881 21.3879 18.4636 21.3877 17.1978V16.216V15.9835V12.0077C21.3877 11.4554 20.94 11.0077 20.3877 11.0077C19.8675 11.008 19.4397 11.4055 19.3921 11.9133C18.4656 11.1618 17.285 10.7114 15.9996 10.7114C13.0245 10.7117 10.6119 13.1244 10.6116 16.0995C10.6116 19.0762 13.0245 21.4885 15.9996 21.4888C17.6472 21.4888 19.1227 20.749 20.1115 19.5832C20.8815 20.7321 22.192 21.4881 23.6794 21.4882C24.9961 21.4882 26.1186 20.9322 26.8825 19.9192C27.6227 18.9372 27.971 17.6052 27.971 16.1015C27.971 9.37243 22.6037 4.13013 15.9984 4.13013C9.38738 4.13017 4.02832 9.49096 4.02832 16.1028C4.02836 22.7137 9.38915 28.0728 16.001 28.0728C18.4132 28.0728 20.7654 27.3447 22.7497 25.9895C23.2057 25.678 23.3228 25.0549 23.0114 24.5989C22.6999 24.1429 22.0768 24.0257 21.6208 24.3372C19.9685 25.4655 18.0103 26.0728 16.001 26.0728C10.4933 26.0728 6.02837 21.6088 6.02832 16.1028C6.02832 10.5951 10.4924 6.13017 15.9984 6.13013ZM19.3889 16.0995C19.3889 16.1303 19.3885 16.1611 19.3877 16.1918C19.3387 18.0211 17.8398 19.4888 15.9996 19.4888C14.1287 19.4885 12.6116 17.9712 12.6116 16.0995C12.6119 14.229 14.1291 12.7117 15.9996 12.7114C17.8397 12.7114 19.3387 14.1794 19.3877 16.0077C19.3885 16.0382 19.3889 16.0688 19.3889 16.0995Z" fill="black"/>
</svg>
