<?xml version="1.0" encoding="UTF-8"?>
<svg id="Capa_1" xmlns="http://www.w3.org/2000/svg" version="1.1" viewBox="0 0 32 32">
  <!-- Generator: Adobe Illustrator 30.0.0, SVG Export Plug-In . SVG Version: 2.1.1 Build 123)  -->
  <defs>
    <style>
      .st0 {
        fill-rule: evenodd;
      }
    </style>
  </defs>
  <path class="st0" d="M23.29,26.03h-6.14c-.55,0-1,.45-1,1s.45,1,1,1h6.14c.55,0,1-.45,1-1s-.45-1-1-1Z"/>
  <path class="st0" d="M11.84,26.03h-4.4c-.8,0-1.45-.65-1.45-1.45V7.42c0-.8.65-1.45,1.45-1.45h8.12v3.36c0,1.57,1.27,2.84,2.84,2.84h3.47c.18.22.46.36.77.36.55,0,1-.45,1-1,0-.08,0-.15,0-.23,0-.04,0-.09,0-.13,0-.15-.03-.29-.09-.42-.14-.62-.46-1.2-.92-1.66l-4.12-4.12c-.65-.65-1.52-1.01-2.44-1.01H7.44c-1.91,0-3.45,1.55-3.45,3.45v17.16c0,1.91,1.55,3.45,3.45,3.45h4.4c.55,0,1-.45,1-1s-.45-1-1-1ZM17.56,6.85l3.32,3.31h-2.48c-.46,0-.84-.38-.84-.84v-2.48Z"/>
  <path class="st0" d="M27.9,21.02l-2.71-5.48s-.02-.03-.02-.05c0,0,0-.02-.01-.02-.07-.14-.17-.26-.3-.35.01,0,.02.01.03.02-.01,0-.02-.01-.03-.02-.05-.04-.1-.07-.15-.09-.03-.01-.06-.03-.09-.04-.09-.03-.18-.06-.27-.07-.03,0-.06,0-.09,0-.04,0-.09,0-.13,0-.01,0-.02,0-.03,0h-.02s-.02,0-.03,0l-2.72.46v-1.27c0-.55-.45-1-1-1-.55,0-1,.45-1,1v1.61l-3.21.55h-.17c-.18.04-.34.12-.48.24-.06.05-.11.11-.16.17,0,.01-.02.02-.02.04l-.07.12s0,.01,0,.02c0,.01-.01.03-.02.04l-2.68,5.49c-.14.28-.13.62,0,.9,1.44,2.79,5.2,2.8,7.15.13.22-.3.25-.7.09-1.03l-2.15-4.34,4.89-.82-1.86,3.8c-.14.28-.14.62,0,.9,1.44,2.79,5.2,2.8,7.15.13.22-.3.25-.7.09-1.03ZM16.14,19.54l.76,1.54h-1.51l.75-1.54ZM14.96,23.08h2.2c-.77.45-1.6.39-2.2,0ZM24.71,15.02s-.05-.03-.08-.04c.03.01.05.03.08.04ZM24.27,18.18l.76,1.53h-1.51l.75-1.53ZM23.09,21.71h2.22c-.77.46-1.61.4-2.22,0Z"/>
</svg>