<svg width="32" height="32" viewBox="0 0 32 32" fill="none" xmlns="http://www.w3.org/2000/svg">
<path fill-rule="evenodd" clip-rule="evenodd" d="M21.0601 19.6593L21.0191 19.6647L20.9688 19.6691L20.9065 19.671L20.8408 19.6688L20.8115 19.6647L20.7886 19.661L20.771 19.6603L20.7529 19.6593C20.7589 19.6602 20.7649 19.6602 20.771 19.6603C20.7769 19.6603 20.7828 19.6603 20.7886 19.661C20.7963 19.6619 20.8039 19.6633 20.8115 19.6647C20.8212 19.6664 20.831 19.6682 20.8408 19.6688C20.8625 19.6702 20.8844 19.671 20.9065 19.671C20.9274 19.671 20.9482 19.6703 20.9688 19.6691C20.9856 19.668 21.0024 19.6665 21.0191 19.6647C21.0328 19.6631 21.0465 19.6614 21.0601 19.6593Z" fill="black"/>
<path fill-rule="evenodd" clip-rule="evenodd" d="M23.7134 11.1081C23.755 11.2873 23.7824 11.4707 23.7949 11.6567C23.8006 11.6132 23.8036 11.5689 23.8036 11.5238C23.8036 11.3755 23.7713 11.2347 23.7134 11.1081Z" fill="black"/>
<path fill-rule="evenodd" clip-rule="evenodd" d="M7.59945 6.32593H15.7203V9.6853C15.7206 11.2528 16.9913 12.5236 18.5588 12.5238H22.0317C22.2151 12.7456 22.4924 12.887 22.8026 12.8871C23.3549 12.8871 23.8026 12.4394 23.8026 11.8871C23.8026 11.8099 23.8 11.7331 23.7949 11.6567C23.7824 11.4707 23.755 11.2873 23.7134 11.1081C23.5685 10.4849 23.2514 9.9114 22.7922 9.45223L18.6763 5.33634C18.0302 4.6906 17.1569 4.32604 16.2401 4.32593H7.59945C5.6924 4.32601 4.149 5.87209 4.14893 7.77775V24.9418C4.149 26.8482 5.69442 28.3936 7.60075 28.3936H11.9992C12.5515 28.3936 12.9992 27.9459 12.9992 27.3936C12.9992 26.8414 12.5515 26.3936 11.9992 26.3936H7.60075C6.79896 26.3936 6.149 25.7436 6.14893 24.9418V7.77775C6.149 6.97528 6.79835 6.32601 7.59945 6.32593ZM17.7203 9.6853V7.20965L21.0355 10.5238H18.5588C18.4195 10.5237 18.288 10.4895 18.1724 10.4293C18.1285 10.4065 18.0839 10.3778 18.0449 10.3478C18.018 10.3269 17.9924 10.3044 17.9683 10.2804C17.9568 10.269 17.9454 10.2573 17.9346 10.2452C17.8013 10.0968 17.7204 9.90042 17.7203 9.6853Z" fill="black"/>
<path d="M19.3548 24.4874H19.9065V24.5095C19.9065 25.0618 20.3542 25.5095 20.9065 25.5095C21.4588 25.5095 21.9065 25.0618 21.9065 24.5095V24.4658C22.9788 24.3151 23.804 23.3942 23.804 22.2804C23.8039 21.0616 22.8157 20.0737 21.597 20.0733H20.2168C20.1738 20.0733 20.1259 20.0545 20.0928 20.0321C20.0899 20.0298 20.0814 20.0229 20.0786 20.0204C20.0364 19.9825 20.0098 19.9275 20.0098 19.8663C20.0098 19.8614 20.0099 19.8565 20.0103 19.8517C20.0106 19.8477 20.0107 19.8437 20.0112 19.8397C20.012 19.8346 20.0132 19.8296 20.0142 19.8246C20.0188 19.8021 20.0298 19.7759 20.041 19.7567C20.0758 19.701 20.1364 19.6631 20.2061 19.6596C20.2096 19.6594 20.2132 19.6593 20.2168 19.6593H20.7529L20.771 19.6603L20.7886 19.661L20.8115 19.6647L20.8408 19.6688L20.9065 19.671L20.9688 19.6691L21.0191 19.6647L21.0601 19.6593H22.459C23.0112 19.6592 23.459 19.2115 23.459 18.6593C23.459 18.107 23.0112 17.6593 22.459 17.6593L21.9065 17.6488C21.9065 17.4073 21.8208 17.1857 21.6782 17.0128C21.6667 16.9988 21.6544 16.9854 21.6421 16.9721C21.5709 16.8947 21.4879 16.8284 21.3955 16.7765C21.2509 16.6953 21.0841 16.6488 20.9065 16.6488C20.3542 16.6488 19.9065 17.0966 19.9065 17.6488V17.6809C18.8345 17.8318 18.0098 18.7526 18.0098 19.8663C18.0098 21.0852 18.9978 22.0733 20.2168 22.0733H21.597C21.7111 22.0737 21.8039 22.1662 21.804 22.2804C21.804 22.3125 21.7968 22.3429 21.7837 22.37C21.7764 22.3851 21.7674 22.3992 21.7569 22.412C21.7516 22.4184 21.7458 22.4243 21.7398 22.4301C21.7326 22.4369 21.7323 22.4372 21.7241 22.443C21.7241 22.443 21.7241 22.443 21.7241 22.443C21.7189 22.4467 21.7063 22.4564 21.7007 22.4596C21.6714 22.4754 21.6326 22.4873 21.597 22.4874H19.3548C19.165 22.4874 18.9876 22.5403 18.8364 22.6322C18.8279 22.6374 18.8194 22.6426 18.8111 22.6481C18.5366 22.8264 18.355 23.1358 18.3548 23.4874C18.3548 23.7668 18.4695 24.0194 18.6543 24.2008C18.8347 24.378 19.082 24.4874 19.3548 24.4874Z" fill="black"/>
<path d="M26.1936 21.0772C26.1936 18.1573 23.827 15.7897 20.9071 15.7895C17.9871 15.7895 15.6194 18.1572 15.6194 21.0772C15.6196 23.9971 17.9872 26.3637 20.9071 26.3637C23.8268 26.3634 26.1933 23.9969 26.1936 21.0772ZM28.1845 21.4522C27.9891 25.3022 24.8056 28.3634 20.9071 28.3637L20.5321 28.3546C16.8059 28.1659 13.8176 25.1783 13.6285 21.4522L13.6194 21.0772C13.6194 17.0526 16.8825 13.7895 20.9071 13.7895L21.2821 13.7986C25.1323 13.994 28.1936 17.1785 28.1936 21.0772L28.1845 21.4522Z" fill="black"/>
</svg>
