<svg width="32" height="32" viewBox="0 0 32 32" fill="none" xmlns="http://www.w3.org/2000/svg">
<path d="M8.71316 16.7096C8.70402 16.7005 8.69508 16.6912 8.68633 16.6818C8.67987 16.6747 8.66759 16.6611 8.66135 16.6539L8.65166 16.6425C8.60586 16.5876 8.56591 16.5276 8.53242 16.4638C8.45829 16.3219 8.41846 16.1628 8.41846 15.9999C8.41857 15.7342 8.52483 15.4791 8.71316 15.2916L14.0218 10.0051C14.413 9.61547 15.0461 9.61657 15.4358 10.0077C15.8255 10.399 15.8244 11.0321 15.4332 11.4218L11.8408 14.9999H22.5812C23.1335 14.9999 23.5812 15.4476 23.5812 15.9999C23.5812 16.5522 23.1335 16.9999 22.5812 16.9999H11.8408L15.4332 20.5781C15.8244 20.9678 15.8254 21.6008 15.4358 21.9921C15.0461 22.3833 14.413 22.3843 14.0218 21.9947L8.71316 16.7096Z" fill="black"/>
</svg>
