<svg width="32" height="32" viewBox="0 0 32 32" fill="none" xmlns="http://www.w3.org/2000/svg">
<path d="M10.4784 18.2264V17.2225C10.4784 16.6702 10.9261 16.2225 11.4784 16.2225C12.0304 16.2228 12.4784 16.6704 12.4784 17.2225V18.2264C12.4783 18.7784 12.0303 19.2261 11.4784 19.2264C10.9261 19.2264 10.4784 18.7786 10.4784 18.2264ZM6.8234 14.88C7.21393 14.4896 7.84696 14.4896 8.23747 14.88C8.62798 15.2705 8.62793 15.9036 8.23747 16.2941L7.52783 17.0037C7.13732 17.3943 6.5043 17.3943 6.11377 17.0037C5.72328 16.6132 5.72327 15.9802 6.11377 15.5897L6.8234 14.88ZM14.7179 14.88C15.1084 14.4896 15.7415 14.4896 16.132 14.88L16.8416 15.5897C17.2322 15.9802 17.2322 16.6132 16.8416 17.0037C16.4511 17.3943 15.8181 17.3943 15.4276 17.0037L14.7179 16.2941C14.3275 15.9036 14.3274 15.2705 14.7179 14.88ZM5.89502 10.6405C6.4473 10.6405 6.89502 11.0882 6.89502 11.6405C6.89469 12.1925 6.4471 12.6405 5.89502 12.6405H4.89111C4.33903 12.6405 3.89145 12.1925 3.89111 11.6405C3.89111 11.0882 4.33883 10.6405 4.89111 10.6405H5.89502ZM18.0643 10.6405C18.6165 10.6405 19.0643 11.0882 19.0643 11.6405C19.064 12.1924 18.6163 12.6404 18.0643 12.6405H17.0604C16.5083 12.6405 16.0607 12.1925 16.0604 11.6405C16.0604 11.0882 16.5081 10.6405 17.0604 10.6405H18.0643ZM6.11377 6.27588C6.50429 5.88535 7.13731 5.88535 7.52783 6.27588L8.23747 6.98551C8.62794 7.37604 8.62798 8.00907 8.23747 8.39958C7.84696 8.79009 7.21393 8.79005 6.8234 8.39958L6.11377 7.68994C5.72324 7.29942 5.72324 6.6664 6.11377 6.27588ZM15.4276 6.27458C15.8179 5.88432 16.4511 5.8846 16.8416 6.27458C17.2322 6.66511 17.2322 7.29942 16.8416 7.68994L16.132 8.39958C15.7415 8.78981 15.1084 8.78987 14.7179 8.39958C14.3275 8.00913 14.3277 7.37605 14.7179 6.98551L15.4276 6.27458ZM10.4784 6.05713V5.05322C10.4784 4.50094 10.9261 4.05322 11.4784 4.05322C12.0304 4.05356 12.4784 4.50114 12.4784 5.05322V6.05713C12.4784 6.60921 12.0304 7.0568 11.4784 7.05713C10.9261 7.05713 10.4784 6.60941 10.4784 6.05713Z" fill="black"/>
<path d="M13.548 11.6444C13.5479 10.5011 12.6213 9.57406 11.4777 9.57406C10.3341 9.57412 9.40746 10.5012 9.40739 11.6444C9.40739 12.7884 10.3342 13.7159 11.4777 13.716C12.6212 13.716 13.548 12.7885 13.548 11.6444ZM15.548 11.6444C15.548 13.8925 13.7264 15.716 11.4777 15.716C9.22903 15.7159 7.40739 13.8924 7.40739 11.6444C7.40746 9.39689 9.22921 7.57412 11.4777 7.57406C13.7262 7.57406 15.5479 9.39684 15.548 11.6444Z" fill="black"/>
<path d="M23.0056 23.7608C23.6116 23.5116 24.1686 23.1435 24.6409 22.6713L28.6526 18.6596C29.0431 18.269 29.0431 17.636 28.6526 17.2455C28.2621 16.855 27.6291 16.855 27.2386 17.2455L23.2268 21.2572C22.6643 21.8196 21.9012 22.1361 21.1057 22.1361H8.18126C7.62897 22.1361 7.18126 22.5838 7.18126 23.1361C7.18157 23.6881 7.62917 24.1361 8.18126 24.1361H10.1196C10.1168 24.1668 10.1153 24.1979 10.1153 24.2293V27.0105C10.1153 27.5628 10.5631 28.0105 11.1153 28.0105C11.6676 28.0105 12.1153 27.5628 12.1153 27.0105V24.2293C12.1153 24.1979 12.1139 24.1668 12.1111 24.1361H20.9859L22.4512 27.4696C22.6735 27.9752 23.2635 28.2049 23.7691 27.9827C24.2747 27.7604 24.5044 27.1704 24.2821 26.6648L23.0056 23.7608Z" fill="black"/>
</svg>
