<svg width="32" height="32" viewBox="0 0 32 32" fill="none" xmlns="http://www.w3.org/2000/svg">
<path fill-rule="evenodd" clip-rule="evenodd" d="M24.443 18.1789V17.8239C24.4697 17.9206 24.4821 18.023 24.4781 18.1286C24.4749 18.2109 24.4619 18.2905 24.4401 18.3663C24.4421 18.3045 24.443 18.242 24.443 18.1789Z" fill="black"/>
<path d="M10.5181 11.0274C10.5181 10.3552 9.97417 9.81019 9.30196 9.81C8.63125 9.81 8.08581 10.3547 8.08581 11.0274C8.08602 11.7 8.63137 12.2436 9.30196 12.2436C9.97404 12.2434 10.5179 11.6995 10.5181 11.0274ZM12.5181 11.0274C12.5179 12.8041 11.0786 14.2434 9.30196 14.2436C7.52607 14.2436 6.08602 12.8039 6.08581 11.0274C6.08581 9.25086 7.52594 7.81 9.30196 7.81C11.0787 7.81019 12.5181 9.25061 12.5181 11.0274Z" fill="black"/>
<path d="M5.67908 17.1825C7.51778 14.8298 11.0766 14.8583 12.92 17.176C13.2637 17.6082 13.192 18.2371 12.7598 18.5809C12.3276 18.9245 11.6986 18.8529 11.3549 18.4207C10.3012 17.096 8.28174 17.0999 7.2546 18.4142C6.91448 18.8492 6.28604 18.9261 5.85095 18.5861C5.41587 18.246 5.33902 17.6176 5.67908 17.1825Z" fill="black"/>
<path d="M21.2886 8.04177C21.8407 8.04195 22.2886 8.4896 22.2886 9.04177C22.2886 9.59395 21.8407 10.0416 21.2886 10.0418H16.7183C16.166 10.0418 15.7183 9.59406 15.7183 9.04177C15.7183 8.48949 16.166 8.04177 16.7183 8.04177H21.2886Z" fill="black"/>
<path d="M19.3654 10.8585C19.9177 10.8585 20.3654 11.3062 20.3654 11.8585C20.3654 12.4108 19.9177 12.8585 19.3654 12.8585H16.7183C16.166 12.8585 15.7183 12.4108 15.7183 11.8585C15.7183 11.3062 16.166 10.8585 16.7183 10.8585H19.3654Z" fill="black"/>
<path fill-rule="evenodd" clip-rule="evenodd" d="M24.443 17.8239V18.1789C24.443 18.242 24.4421 18.3045 24.4401 18.3663C24.4619 18.2905 24.4749 18.2109 24.4781 18.1286C24.4821 18.023 24.4697 17.9206 24.443 17.8239Z" fill="black"/>
<path d="M24.443 18.1789V17.8239C24.3305 17.4153 23.9645 17.1082 23.5184 17.0908C22.1184 17.0368 20.8021 17.7701 20.1083 18.9866C19.96 19.2494 19.8481 19.5264 19.772 19.8107C19.4234 19.9669 19.1806 20.3169 19.1806 20.7236C19.1806 21.1295 19.4225 21.479 19.77 21.6357C19.826 21.8468 19.9012 22.0541 19.9969 22.2544C20.0322 22.3285 20.0702 22.4016 20.1109 22.4736C20.5444 23.2341 21.2198 23.8037 22.0068 24.1111C22.4798 24.2958 22.9931 24.3858 23.5184 24.3655C24.0701 24.344 24.4994 23.8795 24.4781 23.3278C24.4731 23.1998 24.4443 23.0783 24.3961 22.9674C24.2365 22.6006 23.8641 22.3505 23.4403 22.3668C22.9958 22.3839 22.5705 22.2322 22.2417 21.9548C22.1595 21.8854 22.0832 21.8081 22.0143 21.7236H23.2588C23.811 21.7236 24.2588 21.2759 24.2588 20.7236C24.2588 20.5039 24.1879 20.3007 24.0678 20.1357C23.886 19.886 23.5913 19.7236 23.2588 19.7236H22.0198C22.365 19.307 22.8888 19.0684 23.4403 19.0895C23.9099 19.1076 24.3162 18.7988 24.4401 18.3663C24.4421 18.3045 24.443 18.242 24.443 18.1789Z" fill="black"/>
<path fill-rule="evenodd" clip-rule="evenodd" d="M23.4118 7.17887C24.0458 7.85972 24.443 8.87078 24.443 10.1515V13.8549C23.631 13.5461 22.75 13.377 21.8297 13.377C17.7689 13.3772 14.477 16.6691 14.4768 20.7298C14.4768 21.2526 14.5313 21.7625 14.635 22.2544H8.34017C7.09834 22.2543 6.16666 21.8238 5.54069 21.1515C4.90721 20.4711 4.51087 19.4602 4.51074 18.1789V10.1515C4.51074 8.87194 4.90942 7.86031 5.5446 7.17887C6.17244 6.50563 7.10417 6.0748 8.34017 6.07471H20.6123C21.8539 6.0748 22.7854 6.50634 23.4118 7.17887ZM26.443 10.1515V15.0036C28.1144 16.3514 29.1837 18.4158 29.1838 20.7298L29.1734 21.1087C28.9764 24.9939 25.7638 28.084 21.8297 28.084L21.4521 28.0736C18.8278 27.9407 16.5665 26.432 15.375 24.2544H8.34017C6.60446 24.2543 5.12143 23.6352 4.07715 22.5135C3.04048 21.3999 2.51087 19.8727 2.51074 18.1789V10.1515C2.51074 8.45663 3.04346 6.92875 4.08105 5.81559C5.12583 4.69478 6.60838 4.0748 8.34017 4.07471H20.6123C22.3481 4.0748 23.8322 4.69388 24.8766 5.81559C25.9136 6.92933 26.443 8.45783 26.443 10.1515ZM21.8297 26.084C24.7862 26.084 27.1838 23.6863 27.1838 20.7298C27.1838 19.7377 26.9137 18.8085 26.443 18.0119C25.9615 17.1968 25.27 16.5203 24.443 16.057C23.67 15.6239 22.7786 15.377 21.8297 15.377C18.8735 15.3772 16.477 17.7736 16.4768 20.7298C16.4768 21.2595 16.5537 21.7712 16.697 22.2544C16.9188 23.0025 17.2997 23.6822 17.8004 24.2544C18.7815 25.3756 20.2229 26.0839 21.8297 26.084ZM12.5181 11.0274C12.5179 12.8041 11.0786 14.2434 9.30196 14.2436C7.52607 14.2436 6.08602 12.8039 6.08581 11.0274C6.08581 9.25086 7.52594 7.81 9.30196 7.81C11.0787 7.81019 12.5181 9.25061 12.5181 11.0274ZM5.67908 17.1825C7.51778 14.8298 11.0766 14.8583 12.92 17.176C13.2637 17.6082 13.192 18.2371 12.7598 18.5809C12.3276 18.9245 11.6986 18.8529 11.3549 18.4207C10.3012 17.096 8.28174 17.0999 7.2546 18.4142C6.91448 18.8492 6.28604 18.9261 5.85095 18.5861C5.41587 18.246 5.33902 17.6176 5.67908 17.1825ZM21.2886 8.04177C21.8407 8.04195 22.2886 8.4896 22.2886 9.04177C22.2886 9.59395 21.8407 10.0416 21.2886 10.0418H16.7183C16.166 10.0418 15.7183 9.59406 15.7183 9.04177C15.7183 8.48949 16.166 8.04177 16.7183 8.04177H21.2886ZM19.3654 10.8585C19.9177 10.8585 20.3654 11.3062 20.3654 11.8585C20.3654 12.4108 19.9177 12.8585 19.3654 12.8585H16.7183C16.166 12.8585 15.7183 12.4108 15.7183 11.8585C15.7183 11.3062 16.166 10.8585 16.7183 10.8585H19.3654ZM10.5181 11.0274C10.5181 10.3552 9.97417 9.81019 9.30196 9.81C8.63125 9.81 8.08581 10.3547 8.08581 11.0274C8.08602 11.7 8.63137 12.2436 9.30196 12.2436C9.97404 12.2434 10.5179 11.6995 10.5181 11.0274Z" fill="black"/>
</svg>
