<svg width="32" height="32" viewBox="0 0 32 32" fill="none" xmlns="http://www.w3.org/2000/svg">
<path fill-rule="evenodd" clip-rule="evenodd" d="M24.5969 19.1009H24.5835C23.7702 18.8476 22.8902 18.9009 22.1302 19.2342C21.3569 18.9009 20.4769 18.8342 19.6635 19.1009C17.5435 19.7676 16.9569 21.9542 17.5035 23.6209C17.9435 24.9676 19.0502 26.0342 19.9035 26.7142C20.3569 27.0742 20.7702 27.3542 21.0769 27.5409C21.2369 27.6476 21.3702 27.7142 21.4502 27.7676C21.5035 27.7942 21.5435 27.8209 21.5702 27.8342H21.5969L21.6102 27.8609C21.9302 28.0342 22.3302 28.0342 22.6502 27.8609H22.6369L22.6635 27.8476H22.6902C22.6902 27.8476 22.7569 27.7942 22.7969 27.7676C22.8902 27.7142 23.0235 27.6342 23.1835 27.5409C23.4902 27.3409 23.9169 27.0609 24.3569 26.7009C25.2102 26.0209 26.3169 24.9542 26.7435 23.6209C27.2902 21.9542 26.7035 19.7676 24.5969 19.1009ZM24.7035 22.9809C24.4635 23.7009 23.7835 24.4476 22.9969 25.0742C22.6769 25.3276 22.3702 25.5409 22.1302 25.7009C21.8769 25.5409 21.5835 25.3276 21.2635 25.0742C20.4902 24.4609 19.7969 23.7142 19.5569 22.9809C19.2502 22.0742 19.6502 21.3142 20.3169 21.1009C20.7169 20.9809 21.1435 21.0476 21.4769 21.2876C21.8635 21.5676 22.3835 21.5809 22.7702 21.2876C23.1035 21.0342 23.5435 20.9676 23.9302 21.0876C24.5969 21.3009 24.9969 22.0609 24.7035 22.9676V22.9809Z" fill="black"/>
<path fill-rule="evenodd" clip-rule="evenodd" d="M8.86348 23.3918C7.69014 24.4318 7.22348 25.7651 7.22348 26.9251C7.22348 27.5118 6.74348 27.9784 6.14348 27.9784C5.54348 27.9784 5.06348 27.5118 5.06348 26.9251C5.06348 25.2051 5.75681 23.2984 7.41014 21.8318C9.07681 20.3518 11.6101 19.4051 15.1568 19.4051C15.7568 19.4051 16.2368 19.8718 16.2368 20.4584C16.2368 21.0451 15.7568 21.5118 15.1568 21.5118C12.0101 21.5118 10.0368 22.3518 8.86348 23.3918Z" fill="black"/>
<path fill-rule="evenodd" clip-rule="evenodd" d="M15.1702 6.11594C12.5835 6.11594 10.4902 8.16928 10.4902 10.7026C10.4902 13.2359 12.5835 15.2893 15.1702 15.2893C17.7568 15.2893 19.8502 13.2359 19.8502 10.7026C19.8502 8.16928 17.7568 6.11594 15.1702 6.11594ZM8.33016 10.7026C8.33016 7.00928 11.3968 4.00928 15.1702 4.00928C18.9435 4.00928 22.0102 7.00928 22.0102 10.7026C22.0102 14.3959 18.9435 17.3959 15.1702 17.3959C11.3968 17.3959 8.33016 14.3959 8.33016 10.7026Z" fill="black"/>
</svg>
