<svg width="32" height="32" viewBox="0 0 32 32" fill="none" xmlns="http://www.w3.org/2000/svg">
<path d="M12.0679 6.82032C14.7886 4.09964 18.7649 3.42856 22.1095 4.78256C22.4203 4.90843 22.6469 5.1818 22.7137 5.51042C22.7804 5.83908 22.6787 6.17951 22.4416 6.41667L18.314 10.543C18.2111 10.6459 18.1531 10.7822 18.146 10.9232L18.1564 11.0651L18.5457 13.0208L18.5692 13.1042C18.6372 13.2927 18.7994 13.4353 19.0002 13.4753L20.9494 13.8607C21.1385 13.8978 21.3334 13.8382 21.4715 13.7005L25.5991 9.57422L25.6916 9.49219C25.9196 9.3146 26.2154 9.24308 26.5028 9.30079C26.8309 9.36685 27.1052 9.59255 27.2319 9.90235C28.5973 13.2427 27.9145 17.2288 25.1955 19.9479C22.6525 22.4908 19.0054 23.2466 15.8035 22.2279L11.4416 26.5925C9.86824 28.1643 7.20602 28.4585 5.45328 26.8659C3.63712 25.2161 3.60052 22.4143 5.30224 20.7109L9.79313 16.2188C8.7686 13.0102 9.52476 9.36348 12.0679 6.82032ZM19.8257 6.20313C17.5872 5.82937 15.2106 6.5057 13.4819 8.23438C11.358 10.3584 10.8194 13.4682 11.8765 16.1055C12.0254 16.4769 11.9391 16.9018 11.6564 17.1849L6.7163 22.125C5.81405 23.0285 5.83571 24.511 6.79833 25.3854L6.9663 25.5221C7.83628 26.1542 9.16285 26.0422 10.0275 25.1784L14.8387 20.3659L14.9507 20.2695C15.2264 20.0655 15.5919 20.0147 15.9168 20.1445C18.5459 21.1953 21.6569 20.6583 23.7814 18.5339C25.5118 16.8034 26.1899 14.4206 25.814 12.1862L22.883 15.1172C22.2756 15.7224 21.4068 15.9887 20.5627 15.8229L18.6121 15.4375C17.5894 15.235 16.7877 14.436 16.5835 13.4128L16.1942 11.457C16.0252 10.6106 16.2922 9.73667 16.8999 9.12891L19.8257 6.20313Z" fill="black"/>
</svg>
