<svg width="32" height="32" viewBox="0 0 32 32" fill="none" xmlns="http://www.w3.org/2000/svg">
<path fill-rule="evenodd" clip-rule="evenodd" d="M11.8562 28.0383H11.9799C11.9389 28.0409 11.8976 28.0409 11.8562 28.0383Z" fill="black"/>
<path fill-rule="evenodd" clip-rule="evenodd" d="M23.2024 21.5305V18.929H8.50527L8.38729 21.8873C8.34708 22.8927 8.14181 23.8857 7.78052 24.8248C7.55574 25.4096 7.98726 26.0383 8.61385 26.0383H11.246C11.3693 25.7109 11.5043 25.3161 11.6252 24.8938C11.8379 24.1511 11.9872 23.3921 11.9872 22.7883C11.9872 22.2361 12.4351 21.7885 12.9872 21.7883C13.5395 21.7883 13.9872 22.236 13.9872 22.7883C13.9872 23.6653 13.7812 24.6319 13.5484 25.4446C13.4899 25.6489 13.4285 25.8479 13.3662 26.0383H18.082L18.0816 26.0123V22.8222C18.0816 22.2699 18.5294 21.8222 19.0816 21.8222C19.6339 21.8222 20.0816 22.2699 20.0816 22.8222V26.0123L20.0813 26.0383H23.5136C23.973 26.0381 24.2704 25.5526 24.0631 25.1425C23.497 24.0228 23.2024 22.7852 23.2024 21.5305ZM26.9297 15.929C26.9297 17.1307 26.2229 18.1675 25.2024 18.6463V21.5305C25.2024 22.4718 25.4236 23.4001 25.8482 24.2402C26.7282 25.9805 25.4637 28.0381 23.5136 28.0383H11.9799H11.8562H8.61385C6.58353 28.0383 5.18433 26.001 5.91333 24.106C6.19608 23.371 6.35712 22.5947 6.38859 21.8079L6.52054 18.4982C5.65136 17.9727 5.07031 17.0187 5.07031 15.929V15.1998C5.07051 13.5431 6.41358 12.1998 8.07031 12.1998H12.2917L11.8646 8.43677C11.7496 7.66844 11.8909 6.59097 12.5117 5.67375C13.189 4.67324 14.3683 3.96036 16.1016 3.96021L16.6654 3.97843C17.9448 4.06348 19.0064 4.44512 19.7305 5.2063C20.5766 6.09608 20.7608 7.29024 20.5833 8.47323C20.3414 10.0854 20.1861 11.2056 20.0761 11.9987L20.0482 12.1998H23.9297C25.5863 12.1999 26.9295 13.5432 26.9297 15.1998V15.929ZM23.9297 14.1998C24.4818 14.1999 24.9295 14.6477 24.9297 15.1998V15.929C24.9297 16.4812 24.4819 16.9288 23.9297 16.929H8.07031C7.51803 16.929 7.07031 16.4812 7.07031 15.929V15.1998C7.07051 14.6477 7.51815 14.1998 8.07031 14.1998H12.6641C13.6589 14.1998 14.4324 13.3342 14.3203 12.3456L13.8516 8.21151L13.8477 8.18416L13.8438 8.15812L13.8294 8.02661C13.8093 7.69723 13.8897 7.20599 14.168 6.79484C14.4448 6.38586 14.9794 5.96068 16.1003 5.96021C17.3574 5.96224 17.9846 6.27238 18.2812 6.5839C18.5591 6.87606 18.7275 7.36302 18.6055 8.17635C18.4519 9.20006 18.3329 10.0286 18.2383 10.6998L18.0182 12.2792C17.8775 13.2786 18.6488 14.1995 19.681 14.1998H23.9297Z" fill="black"/>
</svg>
