<?xml version="1.0" encoding="UTF-8"?>
<svg id="Capa_1" xmlns="http://www.w3.org/2000/svg" version="1.1" viewBox="0 0 32 32">
  <!-- Generator: Adobe Illustrator 30.0.0, SVG Export Plug-In . SVG Version: 2.1.1 Build 123)  -->
  <defs>
    <style>
      .st0 {
        fill-rule: evenodd;
      }
    </style>
  </defs>
  <path class="st0" d="M19.83,17.6c-.55.02-.98.48-.97,1.02.03,1.36-1.35,2.55-2.85,2.53-.55,0-1.01.43-1.01.99,0,.55.43,1,.99,1.01,2.32.03,4.93-1.79,4.88-4.56v-.02c-.02-.55-.48-.99-1.03-.97Z"/>
  <path class="st0" d="M27.24,6.17c.39-.39.39-1.02,0-1.41-.39-.39-1.02-.39-1.41,0l-4.06,4.04c-1.25-1.67-2.57-3.02-3.56-3.93-1.26-1.16-3.15-1.16-4.4,0-1.27,1.18-3.11,3.08-4.62,5.46-1.5,2.37-2.73,5.28-2.69,8.46-.03,1.5.37,2.91,1.04,4.15l-2.98,2.96c-.39.39-.39,1.02,0,1.41.39.39,1.02.39,1.41,0l2.73-2.71c.24.28.49.54.76.78,1.77,1.65,4.15,2.69,6.54,2.67h.02c2.39.02,4.77-1.02,6.54-2.67.04-.04.08-.08.12-.12,1.71-1.65,2.88-3.95,2.83-6.5,0-.04,0-.08,0-.12,0-.45-.03-.89-.08-1.33-.01-.12-.02-.25-.04-.37,0-.03,0-.05-.01-.08.02.14.03.29.05.43-.27-2.54-1.29-4.87-2.52-6.84l4.32-4.3ZM9.03,21.45c-.36-.82-.56-1.71-.54-2.63v-.05c-.04-2.66.99-5.19,2.38-7.38,1.39-2.18,3.09-3.95,4.29-5.07.49-.45,1.2-.45,1.69,0,.98.9,2.29,2.24,3.49,3.88l-11.3,11.23ZM23.51,18.78v.05c.04,1.93-.88,3.75-2.32,5.09-1.45,1.35-3.36,2.16-5.17,2.13h-.03c-1.81.02-3.72-.78-5.17-2.13-.25-.23-.48-.48-.7-.73l11.34-11.27c1.22,2.07,2.09,4.41,2.05,6.86Z"/>
</svg>