<?xml version="1.0" encoding="UTF-8"?>
<svg id="Capa_1" xmlns="http://www.w3.org/2000/svg" version="1.1" viewBox="0 0 32 32">
  <!-- Generator: Adobe Illustrator 30.0.0, SVG Export Plug-In . SVG Version: 2.1.1 Build 123)  -->
  <defs>
    <style>
      .st0 {
        fill-rule: evenodd;
      }
    </style>
  </defs>
  <path class="st0" d="M25.26,8.77l-.23-.14-7.03-4.06-.24-.13c-1.2-.59-2.61-.54-3.77.13l-7.03,4.06c-.57.33-1.04.78-1.38,1.32-.03.04-.05.07-.08.11-.02.03-.04.07-.05.1-.32.58-.5,1.25-.5,1.94v8.12c0,1.43.76,2.76,2.01,3.47l7.03,4.06c.55.32,1.16.49,1.77.53.08.02.16.03.24.03s.16-.01.24-.03c.61-.04,1.21-.21,1.76-.53l7.03-4.06c1.24-.72,2.01-2.04,2.01-3.47v-8.12c0-1.34-.67-2.59-1.78-3.33ZM14.99,6.3c.62-.36,1.39-.36,2.01,0l7,4.04-2.81,1.63-8-4.63,1.8-1.04ZM15,26.03l-7.04-4.06c-.62-.36-1.01-1.02-1.01-1.74v-8.12s0-.03,0-.05l8.04,4.65v9.32ZM16,14.98l-8-4.63,3.2-1.85,8,4.63-3.2,1.85ZM25.04,20.23c0,.63-.29,1.22-.78,1.59l-.22.15-7.03,4.06v-9.32s3.19-1.85,3.19-1.85v1.67c0,.55.45,1,1,1,.55,0,1-.45,1-1v-2.82l2.85-1.65s0,.03,0,.05v8.12Z"/>
</svg>