<svg width="32" height="32" viewBox="0 0 32 32" fill="none" xmlns="http://www.w3.org/2000/svg">
<path d="M24.7991 6.00513C23.8919 6.00529 23.0189 6.3694 22.3668 7.01424L16.6767 12.7356C16.3849 13.0289 15.9419 13.1122 15.5634 12.9452C14.6713 12.5516 13.6833 12.3432 12.6285 12.3762C9.15601 12.4868 6.22942 15.3924 6.08551 18.8945C5.90837 23.1886 9.69111 26.6444 14.0517 25.8905C16.7439 25.4266 18.9554 23.2566 19.4852 20.552C19.8124 18.8866 19.5234 17.3015 18.8251 15.9921C18.6185 15.6048 18.6889 15.1277 18.9983 14.8163L20.3277 13.4791C20.5201 13.2857 20.7841 13.1796 21.0569 13.1848L22.1988 13.2069C22.5071 13.2131 22.7717 12.9685 22.7808 12.6444L22.7821 12.5494C22.8197 11.1579 23.9535 10.0391 25.3511 10.039C25.6608 10.039 25.9213 9.78522 25.9214 9.46086V6.58325C25.9213 6.25891 25.6608 6.00513 25.3511 6.00513H24.7991ZM25.3511 4.00513C26.7743 4.00513 27.9213 5.1633 27.9214 6.58325V9.46086C27.9213 10.8808 26.7743 12.039 25.3511 12.039C25.0476 12.0391 24.7908 12.2828 24.7821 12.6015L24.7795 12.6978C24.74 14.1085 23.5771 15.235 22.1597 15.2069L21.4436 15.1939L20.9123 15.7278C21.5783 17.2858 21.8123 19.0823 21.4475 20.9387C20.7593 24.4491 17.9096 27.2541 14.3928 27.8606L13.8655 27.9361C8.44618 28.555 3.86534 24.1759 4.08681 18.8111C4.27343 14.2697 8.03752 10.52 12.566 10.3762L13.0738 10.3749C14.0017 10.3987 14.8877 10.5719 15.7183 10.8619L20.9488 5.60409C21.968 4.59286 23.3511 4.00529 24.799 4.00513L25.3511 4.00513Z" fill="black"/>
<path d="M12.8493 18.3085C12.3757 18.3085 11.9822 18.6953 11.9822 19.1848C11.9822 19.6751 12.3765 20.0624 12.8493 20.0624C13.3236 20.0621 13.7165 19.6745 13.7165 19.1848C13.7165 18.6959 13.3245 18.3088 12.8493 18.3085ZM12.8493 16.3085C14.4373 16.3088 15.7165 17.5996 15.7165 19.1848C15.7165 20.7691 14.4381 22.0621 12.8493 22.0624C11.2612 22.0624 9.98222 20.7688 9.98216 19.1848C9.98216 17.5999 11.262 16.3085 12.8493 16.3085Z" fill="black"/>
</svg>
