<?xml version="1.0" encoding="UTF-8"?>
<svg id="Capa_1" xmlns="http://www.w3.org/2000/svg" version="1.1" viewBox="0 0 32 32">
  <!-- Generator: Adobe Illustrator 30.0.0, SVG Export Plug-In . SVG Version: 2.1.1 Build 123)  -->
  <defs>
    <style>
      .st0 {
        fill-rule: evenodd;
      }
    </style>
  </defs>
  <path class="st0" d="M16.69,4.06h.02s.01,0,.02,0c-.01,0-.02,0-.03,0-.1,0-.21-.01-.31-.01-.13,0-.25,0-.38,0-6.59,0-11.94,5.33-11.96,11.92,0,.01,0,.02,0,.03,0,0,0,.01,0,.01v.03c0,1.83.42,3.57,1.16,5.12l.04.08c1.94,3.98,6.03,6.73,10.76,6.73,6.61,0,11.96-5.35,11.96-11.96,0-6.37-4.99-11.58-11.27-11.94ZM8.83,9.08c.09.58.14,1.28.06,1.98-.09.86-.37,1.69-.95,2.37-.4.47-.97.9-1.81,1.23.29-2.15,1.27-4.09,2.7-5.58ZM14.87,25.9c-2.94-.33-5.49-1.95-7.09-4.27,1.34-.27,3.07-.98,5.19-2.51.79-.57,1.14-.49,1.24-.45.15.06.43.32.66,1.11.4,1.38.41,3.64,0,6.12ZM19.03,25.49c-.28.09-.56.16-.84.23-.21.05-.43.09-.64.12-.22.03-.43.06-.66.08.39-2.52.4-4.98-.1-6.7-.29-.98-.82-1.97-1.81-2.39-1.04-.44-2.16-.07-3.18.67-2.37,1.7-4.03,2.17-5.03,2.26-.38-.93-.62-1.93-.7-2.97,1.51-.42,2.62-1.14,3.4-2.05.91-1.07,1.29-2.31,1.42-3.45.12-1.13,0-2.19-.15-2.96-.05-.26-.1-.49-.15-.68,1.4-.91,3.03-1.48,4.8-1.59,0,.25,0,.52.02.82.09,1.13.51,2.64,1.88,3.71.59.46,1.13.79,1.61,1.06.18.1.35.19.49.27.26.14.47.26.68.39.29.19.46.34.58.5.11.15.21.38.26.78.04.3-.02.53-.14.79-.07.14-.15.29-.26.46l-.04.06c-.09.16-.2.34-.3.54-.24.47-.45,1.06-.41,1.8.04.73.31,1.5.85,2.38l.25.4c.45.7.91,1.31,1.28,1.82.12.16.23.31.33.44.25.34.43.6.54.81-1.1,1.08-2.45,1.91-3.96,2.39ZM24.33,21.47c-.08-.12-.17-.24-.26-.37-.12-.16-.24-.33-.37-.5-.45-.6-.93-1.25-1.4-2.02-.43-.7-.54-1.16-.56-1.45-.02-.28.05-.5.2-.78.05-.11.11-.21.18-.33l.1-.17c.11-.18.23-.4.35-.64.24-.51.41-1.12.31-1.88-.08-.66-.28-1.21-.61-1.69-.33-.46-.74-.78-1.14-1.04-.26-.16-.57-.33-.86-.5-.13-.07-.27-.15-.39-.22-.43-.24-.88-.52-1.36-.9-.76-.6-1.05-1.47-1.12-2.3-.02-.21-.02-.4-.01-.58,4.85.67,8.59,4.83,8.59,9.87,0,2.02-.6,3.9-1.64,5.47Z"/>
</svg>