<svg width="32" height="32" viewBox="0 0 32 32" fill="none" xmlns="http://www.w3.org/2000/svg">
<path d="M20.9143 23.3549C20.9143 22.6421 20.6364 21.833 19.9325 21.1948C19.2307 20.5585 18.0139 20.0112 16.0002 20.0112C13.9879 20.0112 12.7715 20.5626 12.0692 21.2026C11.364 21.8453 11.0849 22.6589 11.0849 23.3718C11.0847 23.924 10.637 24.3718 10.0849 24.3718C9.53268 24.3718 9.08504 23.924 9.08485 23.3718C9.08485 22.1427 9.5672 20.7753 10.7216 19.7234C11.879 18.6687 13.6209 18.0112 16.0002 18.0112C18.3772 18.0112 20.1185 18.6632 21.2763 19.713C22.4319 20.7608 22.9143 22.1247 22.9143 23.3549C22.9142 23.9072 22.4665 24.3549 21.9143 24.3549C21.3623 24.3546 20.9143 23.907 20.9143 23.3549Z" fill="black"/>
<path d="M18.7785 12.4304C18.7782 10.8788 17.529 9.63095 15.9998 9.63095C14.4718 9.63115 13.2228 10.8788 13.2225 12.4304C13.2225 13.9823 14.4716 15.231 15.9998 15.2312C17.5292 15.2312 18.7785 13.9822 18.7785 12.4304ZM20.7785 12.4304C20.7785 15.0762 18.6444 17.2312 15.9998 17.2312C13.3561 17.231 11.2225 15.0759 11.2225 12.4304C11.2228 9.7852 13.3563 7.63115 15.9998 7.63095C18.6442 7.63095 20.7782 9.78492 20.7785 12.4304Z" fill="black"/>
<path d="M22.5846 27.9182L22.8594 27.9104C25.5859 27.7719 27.7716 25.5862 27.9102 22.8596L27.918 22.5849V9.41561C27.918 6.56234 25.6771 4.23192 22.8594 4.08879L22.5846 4.08228H9.41536C6.46985 4.08228 4.08203 6.47009 4.08203 9.41561V22.5849L4.08854 22.8596C4.22706 25.5863 6.4139 27.772 9.14062 27.9104L9.41536 27.9182H22.5846ZM25.918 22.5849C25.9178 24.4256 24.4253 25.918 22.5846 25.9182H9.41536C7.57452 25.9182 6.08221 24.4257 6.08203 22.5849V9.41561C6.08203 7.57466 7.57442 6.08228 9.41536 6.08228H22.5846C24.4254 6.08245 25.918 7.57477 25.918 9.41561V22.5849Z" fill="black"/>
</svg>
