<?xml version="1.0" encoding="UTF-8"?>
<svg id="Capa_1" xmlns="http://www.w3.org/2000/svg" version="1.1" viewBox="0 0 32 32">
  <!-- Generator: Adobe Illustrator 30.0.0, SVG Export Plug-In . SVG Version: 2.1.1 Build 123)  -->
  <defs>
    <style>
      .st0 {
        fill-rule: evenodd;
      }
    </style>
  </defs>
  <path class="st0" d="M25.94,5.84c-1.3-1.21-3.09-1.84-5.09-1.84h-9.69c-2,0-3.79.63-5.09,1.84-1.31,1.22-2.04,2.95-2.04,4.99v10.28c0,2.04.73,3.78,2.04,5,1.3,1.21,3.09,1.84,5.09,1.84h9.69c2,0,3.79-.63,5.09-1.84,1.31-1.22,2.04-2.95,2.04-5v-10.29c0-2.04-.73-3.77-2.04-4.99ZM7.42,7.3c.87-.81,2.14-1.3,3.73-1.3h9.69c1.59,0,2.86.49,3.73,1.3.81.76,1.34,1.85,1.39,3.27H6.03c.06-1.43.58-2.52,1.39-3.28ZM15,25.95h-3.85c-1.59,0-2.86-.49-3.73-1.3-.86-.8-1.4-1.98-1.4-3.53v-1.28h8.97v6.11ZM15,17.84H6.03v-5.26h8.97v5.26ZM25.97,21.12c0,1.55-.54,2.73-1.4,3.53-.87.81-2.14,1.3-3.73,1.3h-3.85v-6.11h8.97v1.28ZM25.97,17.84h-8.97v-5.26h8.97v5.26Z"/>
</svg>