<svg width="32" height="32" viewBox="0 0 32 32" fill="none" xmlns="http://www.w3.org/2000/svg">
<path fill-rule="evenodd" clip-rule="evenodd" d="M10.4912 23.9273H10.0645C10.2137 23.9229 10.3569 23.9241 10.4912 23.9273ZM8.64476 25.0201C8.64641 25.0489 8.64932 25.0779 8.65352 25.107C8.73268 25.6536 9.23975 26.0325 9.78633 25.9533C9.88678 25.9388 9.99191 25.9308 10.1057 25.9273H9.6405C9.1198 25.927 8.69162 25.5287 8.64476 25.0201Z" fill="black"/>
<path fill-rule="evenodd" clip-rule="evenodd" d="M21.683 7.97151C21.6692 7.971 21.6554 7.97049 21.6419 7.97ZM21.683 7.97151C21.7636 7.97449 21.8492 7.97766 21.9415 7.9805ZM22.0361 7.98311H22.4629C22.3137 7.9875 22.1704 7.98633 22.0361 7.98311ZM22.8868 5.98311C23.4075 5.98343 23.8357 6.38174 23.8826 6.89031C23.8809 6.86149 23.878 6.83251 23.8738 6.80342C23.7946 6.25684 23.2876 5.87791 22.741 5.95706C22.6405 5.9716 22.5354 5.97963 22.4216 5.98311H22.8868ZM17.6446 7.56123L17.5016 7.67772C17.5482 7.63972 17.5958 7.6009 17.6446 7.56123ZM21.683 7.97151C21.7636 7.97449 21.8492 7.97766 21.9415 7.9805Z" fill="black"/>
<path fill-rule="evenodd" clip-rule="evenodd" d="M10.0645 23.9273H9.6405C9.08856 23.9276 8.64058 24.3753 8.6405 24.9273C8.6405 24.9586 8.64194 24.9895 8.64476 25.0201C8.61535 24.5077 8.98248 24.0491 9.49988 23.9742C9.69348 23.9461 9.88337 23.9326 10.0645 23.9273ZM10.1057 25.9273H10.4265L10.5233 25.9299C10.4903 25.9289 10.458 25.928 10.4265 25.9273C10.3112 25.9247 10.2051 25.9242 10.1057 25.9273Z" fill="black"/>
<path fill-rule="evenodd" clip-rule="evenodd" d="M23.0274 7.93623C22.8338 7.96425 22.6439 7.97777 22.4629 7.98311H22.8868C23.4387 7.98276 23.8867 7.53511 23.8868 6.98311C23.8868 6.95182 23.8854 6.92086 23.8826 6.89031C23.912 7.40268 23.5448 7.8613 23.0274 7.93623ZM22.4216 5.98311C22.3222 5.98615 22.2161 5.98571 22.1008 5.98311H22.4216ZM22.1008 5.98311C22.0693 5.98239 22.037 5.98151 22.004 5.9805L22.1008 5.98311Z" fill="black"/>
<path d="M13.6941 11.6078C14.1709 11.4861 14.7023 11.4643 15.2397 11.6312C15.5104 11.7153 15.763 11.8454 15.9988 12.0114C16.2349 11.845 16.488 11.7155 16.7592 11.6312C17.3735 11.4403 17.9805 11.4953 18.5066 11.6651C20.0929 12.1762 20.8433 13.6188 20.849 15.0114L20.8412 15.2718C20.7659 16.5623 20.0912 17.6382 19.2905 18.4528C18.4342 19.3238 17.3548 19.9824 16.405 20.4033C16.3205 20.4407 16.2317 20.4634 16.142 20.4762C16.1289 20.4781 16.1161 20.4814 16.103 20.4828C16.0843 20.4847 16.0656 20.4845 16.047 20.4854C16.0309 20.4861 16.0149 20.4867 15.9988 20.4867C15.984 20.4866 15.9693 20.486 15.9545 20.4854C15.9341 20.4844 15.9137 20.4849 15.8933 20.4828C15.8828 20.4816 15.8725 20.479 15.8621 20.4776C15.7706 20.4649 15.68 20.4415 15.5938 20.4033C14.644 19.9823 13.5647 19.3238 12.7084 18.4528C11.8545 17.584 11.1444 16.4179 11.1511 15.0114C11.1569 13.6187 11.907 12.1761 13.4936 11.6651L13.6941 11.6078ZM17.892 13.5687C17.6689 13.4968 17.4925 13.498 17.353 13.5414C17.2209 13.5824 17.0312 13.6892 16.8204 13.9919C16.6335 14.2601 16.3271 14.4202 16.0001 14.4203C15.6731 14.4203 15.3668 14.2601 15.1798 13.9919C14.9689 13.6891 14.7779 13.5824 14.6459 13.5414C14.5412 13.5089 14.4159 13.5003 14.2657 13.5283L14.1069 13.5687C13.511 13.7607 13.1539 14.3031 13.1511 15.0205C13.1479 15.7124 13.496 16.3999 14.1355 17.0505C14.6637 17.5877 15.3384 18.0412 15.9988 18.3786C16.6598 18.0411 17.3361 17.5883 17.8647 17.0505C18.4241 16.4813 18.7603 15.8847 18.8334 15.2809L18.849 15.0205C18.8462 14.3034 18.4877 13.7607 17.892 13.5687Z" fill="black"/>
<path d="M21.9415 7.9805L22.0361 7.98311H22.4629C22.6439 7.97777 22.8338 7.96425 23.0274 7.93623C23.5448 7.8613 23.912 7.40268 23.8826 6.89031C23.8357 6.38174 23.4075 5.98343 22.8868 5.98311H22.4216C22.3222 5.98615 22.2161 5.98571 22.1008 5.98311C22.0693 5.98239 22.037 5.98151 22.004 5.9805C21.9411 5.97857 21.8724 5.97593 21.7999 5.97315C21.5667 5.9642 21.2924 5.95368 21.0326 5.95967L20.6694 5.98701C19.8414 6.09076 19.1393 6.46673 18.5652 6.85941C18.2347 7.08546 17.9246 7.3336 17.6446 7.56123L17.5016 7.67772C17.271 7.86573 17.0646 8.03399 16.8582 8.18883C16.7059 8.30288 16.4908 8.28754 16.3569 8.15368C16.2083 8.00544 16.2083 7.76415 16.3569 7.61592L16.479 7.49387C17.6151 6.35851 18.4799 5.49428 19.7774 4.99222C21.6533 4.26649 23.3948 4.59698 25.6524 5.0404C26.6151 5.23038 27.4932 5.23831 28.3608 5.23831C28.9131 5.23831 29.3608 4.7906 29.3608 4.23831C29.3606 3.68614 28.913 3.23831 28.3608 3.23831C27.4931 3.23831 26.7901 3.22635 26.0392 3.07816L25.8841 3.04766C23.7575 2.62914 21.4934 2.18355 19.0561 3.12633C17.3544 3.78476 16.2135 4.92842 15.1445 5.99998L14.9441 6.20055L14.78 6.38154C14.0162 7.31672 14.0722 8.69633 14.9454 9.56774C15.7835 10.4051 17.1088 10.4994 18.0561 9.7904C18.3015 9.60639 18.5516 9.40249 18.7829 9.21386L18.9063 9.11331C19.0029 9.03478 19.0972 8.95867 19.1901 8.88532C19.3538 9.80125 20.0171 10.5063 20.8738 10.793L21.0756 10.8516C22.0839 11.103 23.1702 11.3213 24.3321 11.2943C26.0966 11.2513 27.4102 10.3534 28.5142 9.59891C28.651 9.50539 28.7846 9.41407 28.9155 9.32686C29.3749 9.02053 29.4991 8.39966 29.1928 7.94014C28.8865 7.48068 28.2656 7.35652 27.8061 7.66279C27.664 7.75748 27.5275 7.84953 27.3955 7.93853C26.2352 8.72079 25.4246 9.26728 24.2852 9.29561C23.3952 9.31632 22.5174 9.15023 21.56 8.91149L21.461 8.87894C21.2479 8.79162 21.1512 8.62062 21.1511 8.44144C21.1511 8.30142 21.2036 8.20095 21.2826 8.12764C21.3669 8.04947 21.5054 7.98311 21.6928 7.98311L21.9415 7.9805Z" fill="black"/>
<path d="M10.8345 23.9273H10.4912H10.0645C9.88337 23.9326 9.69348 23.9461 9.49988 23.9742C8.98248 24.0491 8.61535 24.5077 8.64476 25.0201C8.69162 25.5287 9.1198 25.927 9.6405 25.9273H10.1057C10.2051 25.9242 10.3112 25.9247 10.4265 25.9273C10.458 25.928 10.4903 25.9289 10.5233 25.9299C10.5862 25.9318 10.6548 25.9345 10.7273 25.9372C10.9606 25.9462 11.2348 25.9567 11.4947 25.9507L11.8579 25.9234C12.6859 25.8196 13.388 25.4437 13.9621 25.051C14.2926 24.8249 14.6027 24.5768 14.8827 24.3492L15.0257 24.2327C15.2563 24.0447 15.4627 23.8764 15.6691 23.7216C15.8215 23.6075 16.0365 23.6229 16.1704 23.7567C16.319 23.9049 16.319 24.1462 16.1704 24.2945L16.0483 24.4165C14.9122 25.5519 14.0474 26.4161 12.7499 26.9182C10.874 27.6439 9.13249 27.3134 6.87488 26.87C5.91222 26.68 5.03408 26.6721 4.16654 26.6721C3.61426 26.6721 3.16654 27.1198 3.16654 27.6721C3.16667 28.2243 3.61434 28.6721 4.16654 28.6721C5.03421 28.6721 5.73717 28.684 6.48816 28.8322L6.64322 28.8627C8.76977 29.2813 11.0339 29.7268 13.4712 28.7841C15.1729 28.1256 16.3138 26.982 17.3828 25.9104L17.5832 25.7098L17.7473 25.5288C18.5111 24.5937 18.4551 23.2141 17.5819 22.3426C16.7438 21.5053 15.4185 21.411 14.4712 22.12C14.2258 22.304 13.9758 22.5079 13.7445 22.6965L13.621 22.7971C13.5244 22.8756 13.4301 22.9517 13.3372 23.0251C13.1736 22.1091 12.5102 21.4041 11.6535 21.1174L11.4517 21.0588C10.4434 20.8074 9.35714 20.589 8.19519 20.6161C6.43075 20.6591 5.11741 21.5568 4.01351 22.3112C3.87656 22.4048 3.74282 22.4962 3.61186 22.5835C3.15239 22.8899 3.02824 23.5107 3.33451 23.9703C3.64085 24.4297 4.26171 24.5539 4.72123 24.2476C4.86329 24.1529 4.99982 24.0609 5.13183 23.9719C6.29215 23.1896 7.10275 22.6431 8.24206 22.6148C9.13208 22.5941 10.0099 22.7602 10.9673 22.9989L11.0663 23.0315C11.2794 23.1188 11.3761 23.2898 11.3762 23.469C11.3762 23.609 11.3237 23.7094 11.2447 23.7828C11.1604 23.8609 11.0219 23.9273 10.8345 23.9273Z" fill="black"/>
</svg>
