<svg width="32" height="32" viewBox="0 0 32 32" fill="none" xmlns="http://www.w3.org/2000/svg">
<path d="M17.7387 4.13357C18.1293 3.74333 18.7625 3.74314 19.1529 4.13357C19.5434 4.524 19.5432 5.15724 19.1529 5.54778L13.8137 10.887C13.4232 11.2775 12.79 11.2775 12.3995 10.887C12.009 10.4965 12.009 9.8633 12.3995 9.47278L17.7387 4.13357Z" fill="black"/>
<path fill-rule="evenodd" clip-rule="evenodd" d="M17.2189 12.8814C17.2048 12.8673 17.1915 12.8527 17.1789 12.8377L17.2189 12.8814ZM19.4093 15.0718L19.43 15.0888C19.4226 15.0838 19.4157 15.0781 19.4093 15.0718Z" fill="black"/>
<path d="M15.6224 10.727C14.917 11.5919 14.8354 12.7957 15.3782 13.7387L4.94911 22.4509C3.82166 23.3927 3.67998 25.0513 4.5799 26.1678L4.77325 26.3832L5.85693 27.4669L6.07146 27.6593C7.18155 28.5548 8.8289 28.4209 9.77456 27.3076L18.602 16.9121C18.7669 16.9893 18.9416 17.0456 19.1221 17.079L19.3062 17.1047L20.2315 17.194C21.8621 17.3515 23.3876 18.0704 24.546 19.2288C25.3646 20.0475 26.7577 19.7285 27.1378 18.635L27.5779 17.3681C28.2885 15.3229 27.8439 13.0657 26.4399 11.446L26.1471 11.1312L22.5582 7.54222L22.3556 7.35992C21.3082 6.50534 19.7633 6.5658 18.7869 7.54222L15.8047 10.5244L15.6224 10.727ZM16.7276 15.2185L17.0999 15.5908L8.25078 26.0122C7.99864 26.3091 7.54662 26.3281 7.27115 26.0527L6.18747 24.969C5.91049 24.6921 5.93105 24.2368 6.23166 23.9857L16.7276 15.2185ZM17.2189 12.8814C17.2048 12.8673 17.1915 12.8527 17.1789 12.8377C16.9595 12.5758 16.973 12.1849 17.2189 11.9386L20.2011 8.95643C20.4615 8.69608 20.8836 8.69608 21.1439 8.95643L24.7329 12.5454C25.8236 13.6362 26.1941 15.2545 25.6877 16.7116L25.4639 17.3552C24.0505 16.1384 22.2913 15.3829 20.4239 15.2025L19.4986 15.1132C19.4741 15.1109 19.4503 15.1025 19.43 15.0888C19.4226 15.0838 19.4157 15.0781 19.4093 15.0718L17.2189 12.8814Z" fill="black"/>
</svg>
