<svg width="32" height="32" viewBox="0 0 32 32" fill="none" xmlns="http://www.w3.org/2000/svg">
<path d="M25.0524 10.8272C25.0524 9.32568 24.5872 8.12673 23.8298 7.31291C23.0797 6.50718 21.9683 5.9978 20.5055 5.9978H11.4951C10.0386 5.9978 8.92677 6.50644 8.1748 7.31291C7.41557 8.12738 6.94824 9.32684 6.94824 10.8272V21.1736C6.94837 22.6744 7.41355 23.8728 8.1709 24.6866C8.92116 25.4924 10.033 26.0017 11.4951 26.0017H20.5042C21.9678 26.0017 23.0796 25.4923 23.8298 24.6866C24.587 23.8729 25.0523 22.6746 25.0524 21.1736V10.8272ZM27.0524 21.1736C27.0523 23.0875 26.4539 24.8032 25.2933 26.0499C24.1249 27.3049 22.4616 28.0017 20.5042 28.0017H11.4951C9.53882 28.0017 7.87565 27.3047 6.70736 26.0499C5.54682 24.8033 4.94837 23.0877 4.94824 21.1736V10.8272C4.94824 8.91165 5.54966 7.19584 6.71126 5.94963C7.88023 4.69561 9.54298 3.9978 11.4951 3.9978H20.5055C22.4622 3.9978 24.1251 4.69481 25.2933 5.94963C26.4539 7.19649 27.0524 8.91289 27.0524 10.8272V21.1736Z" fill="black"/>
<path d="M10.7157 21.3324C10.8838 21.3341 11.049 21.3725 11.2 21.4444L11.3485 21.5291L11.4813 21.6332C11.6063 21.7472 11.7064 21.888 11.7716 22.0473C11.8583 22.2584 11.8791 22.4898 11.8341 22.7126C11.7891 22.936 11.6795 23.1416 11.5177 23.3025C11.3551 23.4644 11.1488 23.5725 10.9279 23.6163C10.7059 23.6602 10.476 23.6361 10.2664 23.5499C10.0523 23.4617 9.87081 23.3125 9.74561 23.1254C9.65149 22.984 9.58953 22.8219 9.56462 22.6541L9.5516 22.4848C9.5515 22.3335 9.58078 22.1842 9.63753 22.046C9.69611 21.9042 9.78316 21.7755 9.88883 21.6697C9.99642 21.5628 10.128 21.4749 10.2703 21.4171L10.3758 21.3793C10.4812 21.348 10.6008 21.332 10.7157 21.3324ZM15.911 21.3324C16.0796 21.3341 16.2454 21.3722 16.3966 21.4444L16.5438 21.5291L16.6779 21.6332C16.803 21.7475 16.9021 21.8892 16.967 22.0473C17.0538 22.2588 17.0746 22.491 17.0295 22.7139C16.9845 22.9356 16.8755 23.141 16.7131 23.3025C16.5503 23.4644 16.3448 23.5725 16.1245 23.6163C15.9013 23.6603 15.6678 23.6366 15.4565 23.5486C15.2446 23.4602 15.0655 23.3119 14.9409 23.1254C14.8154 22.9367 14.7469 22.7127 14.7469 22.4848C14.7468 22.3334 14.7776 22.1852 14.8341 22.0473C14.8938 21.9015 14.98 21.774 15.0841 21.6697L15.1701 21.5916C15.259 21.5189 15.3584 21.4602 15.4644 21.4171L15.5711 21.3793C15.6771 21.3478 15.7967 21.332 15.911 21.3324ZM21.1063 21.3324C21.275 21.334 21.4407 21.3722 21.592 21.4444L21.7391 21.5291L21.8732 21.6332C21.9984 21.7476 22.0974 21.8892 22.1623 22.0473C22.2492 22.2588 22.2699 22.4909 22.2248 22.7139C22.18 22.9344 22.0707 23.1375 21.9097 23.2986C21.7465 23.4617 21.5411 23.5724 21.3198 23.6163C21.0967 23.6603 20.8631 23.6366 20.6519 23.5486C20.4402 23.4603 20.2621 23.3117 20.1375 23.1254C20.012 22.9367 19.9422 22.7127 19.9422 22.4848C19.9421 22.3334 19.973 22.1851 20.0295 22.0473C20.0892 21.9013 20.1763 21.7741 20.2808 21.6697L20.3667 21.5916C20.4554 21.5192 20.554 21.4601 20.6597 21.4171L20.7664 21.3793C20.8724 21.3478 20.9921 21.332 21.1063 21.3324ZM10.7157 16.7491C10.8838 16.7508 11.0491 16.7879 11.2 16.8598L11.3485 16.9444L11.4813 17.0486C11.6061 17.1624 11.705 17.3036 11.7703 17.4626C11.8571 17.6737 11.879 17.9052 11.8341 18.128C11.7892 18.3507 11.6787 18.5546 11.5177 18.7153C11.3549 18.8779 11.1495 18.9878 10.9279 19.0317C10.7042 19.0759 10.4721 19.053 10.2612 18.9653C10.0484 18.8769 9.87023 18.7283 9.74561 18.5421C9.65175 18.401 9.5896 18.2381 9.56462 18.0707L9.5516 17.9001C9.55155 17.7492 9.58099 17.6006 9.63753 17.4626C9.6961 17.3209 9.78315 17.1909 9.88883 17.085C9.99639 16.9782 10.128 16.8903 10.2703 16.8324L10.3758 16.796C10.4813 16.7647 10.6007 16.7486 10.7157 16.7491ZM15.911 16.7491C16.0796 16.7507 16.2454 16.7876 16.3966 16.8598L16.5438 16.9444L16.6779 17.0499C16.8028 17.1641 16.9021 17.3048 16.967 17.4626C17.0536 17.6739 17.0745 17.9066 17.0295 18.1293C16.9847 18.3504 16.8748 18.5539 16.7131 18.7153C16.5501 18.878 16.3454 18.9878 16.1245 19.0317C15.9013 19.0757 15.6678 19.0533 15.4565 18.9653C15.2445 18.8769 15.0656 18.7273 14.9409 18.5408C14.8154 18.3521 14.7469 18.128 14.7469 17.9001C14.7468 17.7488 14.7776 17.6005 14.8341 17.4626C14.8939 17.317 14.98 17.1893 15.0841 17.085C15.1934 16.9758 15.3238 16.89 15.4657 16.8324C15.6018 16.7771 15.7578 16.7485 15.911 16.7491ZM21.1063 16.7491C21.3317 16.7512 21.5517 16.8183 21.7391 16.9444C21.9282 17.0717 22.0757 17.2518 22.1623 17.4626C22.2489 17.6739 22.2699 17.9066 22.2248 18.1293C22.18 18.3501 22.0711 18.554 21.9097 18.7153C21.7466 18.8783 21.5411 18.9877 21.3198 19.0317C21.0966 19.0757 20.8631 19.0533 20.6519 18.9653C20.4399 18.8769 20.2622 18.7272 20.1375 18.5408C20.012 18.3521 19.9422 18.128 19.9422 17.9001C19.9422 17.7487 19.9729 17.6004 20.0295 17.4626C20.0892 17.3168 20.1764 17.1895 20.2808 17.085L20.3667 17.0069C20.4559 16.9342 20.556 16.8755 20.6623 16.8324C20.7981 16.7773 20.9536 16.7485 21.1063 16.7491Z" fill="black"/>
<path d="M9.07406 11.4522V11.0981C9.07411 10.2616 9.33379 9.48782 9.92041 8.92749C10.5 8.37391 11.2732 8.14884 12.0688 8.14884H19.9347C20.7309 8.14889 21.5051 8.37302 22.0845 8.92749C22.6704 9.48858 22.9274 10.2634 22.9256 11.0981V11.4848C22.9256 12.3203 22.6678 13.0949 22.0819 13.6567C21.5024 14.2121 20.7285 14.4379 19.9308 14.4379H12.0688C11.2673 14.4379 10.4911 14.2056 9.9126 13.6423C9.33002 13.0748 9.07406 12.2939 9.07406 11.4522ZM11.0741 11.4522C11.0741 11.8925 11.2011 12.1055 11.3084 12.21C11.4202 12.3187 11.642 12.4379 12.0688 12.4379H19.9308C20.3654 12.4379 20.588 12.3179 20.6978 12.2126C20.801 12.1136 20.9256 11.9125 20.9256 11.4848V11.0955C20.9269 10.6694 20.8034 10.4703 20.7017 10.3728C20.5928 10.2686 20.3702 10.1489 19.9347 10.1488H12.0688C11.6358 10.1488 11.4125 10.2685 11.3019 10.3741C11.1985 10.4729 11.0741 10.6729 11.0741 11.0981V11.4522Z" fill="black"/>
</svg>
