<?xml version="1.0" encoding="UTF-8"?>
<svg id="Capa_1" xmlns="http://www.w3.org/2000/svg" version="1.1" viewBox="0 0 32 32">
  <!-- Generator: Adobe Illustrator 30.0.0, SVG Export Plug-In . SVG Version: 2.1.1 Build 123)  -->
  <defs>
    <style>
      .st0 {
        fill-rule: evenodd;
      }
    </style>
  </defs>
  <path class="st0" d="M17.45,19.02h-1.43c-.55,0-1,.45-1,1s.45,1,1,1h1.43c.55,0,1-.45,1-1s-.45-1-1-1Z"/>
  <path class="st0" d="M28.24,17.19c-.63-.63-1.45-1.02-2.33-1.11l-.38-.02h-.88l-2.6-4.82c-.19-.35-.46-.66-.79-.89l-.15-.09c-.4-.24-.85-.36-1.31-.36h-3.72c-.2,0-.4.04-.58.12-.19.08-.36.2-.49.33-.13.14-.25.31-.32.5-.07.18-.1.37-.1.56v2.64L7.55,4.37c-.25-.35-.71-.5-1.12-.36-.41.13-.69.52-.69.95v7.9c0,.15-.12.26-.26.26s-.26-.12-.26-.26v-1.39c0-.55-.45-1-1-1s-1,.45-1,1v1.39c0,1.25,1.01,2.26,2.26,2.26s2.26-1.01,2.26-2.26v-4.83l5.84,8.03H3.63c-.55,0-1,.45-1,1v5.04c0,1.01.41,1.99,1.13,2.71.72.72,1.69,1.12,2.71,1.13h.38c.24.52.62.97,1.08,1.31.62.45,1.36.7,2.13.7.77,0,1.51-.24,2.13-.7.47-.34.84-.79,1.08-1.31h6.07c.24.52.62.97,1.08,1.31.62.45,1.36.7,2.13.7.77,0,1.51-.24,2.13-.7.47-.34.84-.8,1.09-1.32.93-.06,1.81-.46,2.47-1.12.72-.72,1.12-1.69,1.13-2.7v-2.2c0-1.02-.41-1.99-1.13-2.71ZM16.59,11.9h3.22c.1,0,.19.03.28.08.08.05.16.13.2.22l2.09,3.87h-5.79v-4.17ZM11.6,24.47c0,.13-.02.27-.06.4-.09.3-.27.57-.54.77-.27.2-.6.31-.94.31-.34,0-.68-.11-.95-.31-.27-.2-.46-.47-.54-.77l-.04-.2c0-.07-.02-.13-.02-.2v-.07s0-.15,0-.15c0-.15.03-.29.08-.43.07-.19.18-.36.32-.51l.11-.11c.12-.1.26-.18.4-.25.2-.08.41-.13.63-.13s.43.04.63.13c.2.08.37.2.52.35.14.15.25.32.32.51.07.19.1.38.08.58v.07ZM24.1,24.47c0,.13-.02.27-.06.4-.09.3-.27.57-.54.77-.27.2-.6.31-.94.31-.34,0-.68-.11-.95-.31-.27-.2-.46-.47-.54-.77l-.04-.2c0-.07-.02-.13-.02-.2v-.07s0-.15,0-.15c0-.15.03-.29.08-.43.07-.19.18-.36.32-.51l.11-.11c.12-.1.26-.18.41-.25.2-.08.41-.13.63-.13s.43.04.63.13c.2.08.37.2.52.35.14.15.25.32.32.51l.04.14c.04.14.05.29.04.44v.07ZM27.37,22.1c0,.49-.2.95-.54,1.29-.21.21-.47.37-.75.46-.03-.24-.09-.48-.18-.72-.16-.45-.42-.86-.76-1.21-.33-.35-.74-.62-1.18-.81-.44-.19-.92-.28-1.4-.28s-.96.1-1.41.28c-.33.14-.64.33-.92.56l-.26.25c-.33.35-.59.76-.76,1.21-.1.26-.16.53-.19.8h-5.43c-.03-.27-.09-.54-.19-.8-.12-.34-.3-.65-.52-.94l-.24-.27-.26-.24c-.27-.23-.58-.42-.92-.56-.44-.19-.92-.28-1.4-.28s-.96.1-1.41.28c-.33.14-.64.33-.92.56l-.26.25c-.34.35-.59.76-.76,1.21-.1.26-.16.53-.19.8h-.05c-.49,0-.96-.2-1.3-.54-.3-.3-.49-.7-.53-1.12v-.18s0-4.03,0-4.03h21.07c.42.05.82.24,1.12.54.3.3.49.7.53,1.12v.18s.01,2.19.01,2.19Z"/>
</svg>