<svg width="32" height="32" viewBox="0 0 32 32" fill="none" xmlns="http://www.w3.org/2000/svg">
<path d="M6.25232 9.36669C8.8446 7.28748 12.5481 7.28747 15.1403 9.36669C15.5708 9.71231 15.6394 10.3409 15.294 10.7716C14.9485 11.2023 14.3198 11.2718 13.889 10.9266C12.028 9.43391 9.36602 9.43404 7.50492 10.9266C7.0741 11.2721 6.44423 11.2025 6.09867 10.7716C5.7534 10.341 5.82209 9.71231 6.25232 9.36669Z" fill="black"/>
<path d="M4.43506 6.42009C8.07793 3.45997 13.3144 3.45984 16.9572 6.42009C17.3858 6.7684 17.4513 7.39904 17.103 7.82764C16.7547 8.25616 16.124 8.32045 15.6955 7.97217C12.7874 5.60919 8.60342 5.60896 5.69548 7.97217C5.26698 8.3203 4.63756 8.25594 4.28923 7.82764C3.94092 7.39904 4.00646 6.7684 4.43506 6.42009Z" fill="black"/>
<path d="M11.6958 23.3911C11.6958 23.9434 11.2481 24.3911 10.6958 24.3911C10.3508 24.3911 10.0461 24.2168 9.86636 23.951C9.7944 23.8446 9.74332 23.7231 9.71662 23.5929C9.70997 23.5605 9.70442 23.5275 9.701 23.494L9.69579 23.3911C9.69582 22.8389 10.1436 22.3911 10.6958 22.3911L10.7987 22.3963C10.8322 22.3997 10.8651 22.4053 10.8976 22.4119C11.158 22.4653 11.3815 22.6196 11.5252 22.8325C11.6329 22.992 11.6958 23.1842 11.6958 23.3911Z" fill="black"/>
<path fill-rule="evenodd" clip-rule="evenodd" d="M13.6817 20.7341L15.0996 26.0583H7.71032L6.29105 20.7341H13.6817ZM17.2572 26.3813L16.3735 23.0661C19.7241 21.6705 24.0536 23.047 25.4709 27.095C25.6533 27.6162 26.2243 27.8907 26.7456 27.7083C27.2667 27.5258 27.541 26.9559 27.3589 26.4348C25.5626 21.3037 20.1493 19.4896 15.8535 21.1156L15.4825 19.7237C15.3268 19.1401 14.7974 18.7341 14.1934 18.7341H5.42386L5.2624 18.7432C4.47121 18.8374 3.92327 19.6176 4.1348 20.4112L5.90954 27.0688L5.98506 27.2784C6.16828 27.6804 6.54029 27.9668 6.97594 28.0401L7.1986 28.0583H15.9681L16.1296 28.0492C16.9207 27.955 17.4687 27.1748 17.2572 26.3813Z" fill="black"/>
<path d="M21.7094 14.5573C21.7094 13.3578 20.737 12.3854 19.5375 12.3854C18.338 12.3854 17.3657 13.3578 17.3657 14.5573C17.3657 15.7568 18.338 16.7292 19.5375 16.7292C20.737 16.7292 21.7094 15.7568 21.7094 14.5573ZM23.7094 14.5573C23.7094 16.8613 21.8416 18.7292 19.5375 18.7292C17.2335 18.7292 15.3657 16.8613 15.3657 14.5573C15.3657 12.2532 17.2335 10.3854 19.5375 10.3854C21.8416 10.3854 23.7094 12.2532 23.7094 14.5573Z" fill="black"/>
</svg>
