<svg width="32" height="32" viewBox="0 0 32 32" fill="none" xmlns="http://www.w3.org/2000/svg">
<path d="M13.0573 12.8153C13.3551 12.3505 13.9738 12.2145 14.4388 12.5119C14.9037 12.8098 15.0398 13.4285 14.7422 13.8935L13.5846 15.7007C13.2715 16.1895 13.3371 16.8304 13.7435 17.245C14.857 18.3813 14.9828 20.1572 14.0404 21.439L12.5833 23.4208C12.2562 23.8657 11.6298 23.9615 11.1849 23.6343C10.74 23.3072 10.6442 22.6808 10.9713 22.2359L12.4284 20.2541C12.7901 19.7622 12.7425 19.0808 12.3151 18.6448C11.2564 17.5646 11.0841 15.8963 11.8997 14.6226L13.0573 12.8153Z" fill="black"/>
<path d="M18.9155 12.8153C19.2133 12.3505 19.8321 12.2145 20.297 12.5119C20.7619 12.8098 20.898 13.4285 20.6004 13.8935L19.4429 15.7007C19.1297 16.1895 19.1954 16.8304 19.6017 17.245C20.7153 18.3813 20.8411 20.1572 19.8986 21.439L18.4416 23.4208C18.1144 23.8657 17.4881 23.9615 17.0431 23.6343C16.5982 23.3072 16.5024 22.6808 16.8296 22.2359L18.2866 20.2541C18.6483 19.7622 18.6007 19.0808 18.1733 18.6448C17.1146 17.5646 16.9423 15.8963 17.758 14.6226L18.9155 12.8153Z" fill="black"/>
<path d="M26.7016 13.8916L27.0161 14.1405C27.449 14.483 28.0769 14.4104 28.4197 13.9777C28.7625 13.5447 28.6899 12.9155 28.257 12.5727L24.3281 9.46245V6.88264C24.3281 6.33035 23.8804 5.88264 23.3281 5.88264C22.7758 5.88264 22.3281 6.33035 22.3281 6.88264V7.87915L18.5265 4.86962C17.0461 3.69927 14.955 3.6995 13.4744 4.86962L3.74266 12.5727C3.30983 12.9156 3.23717 13.5447 3.57989 13.9777C3.92272 14.4105 4.55188 14.4832 4.98484 14.1405L5.2993 13.8915V23.0467C5.29937 25.7864 7.52057 28.0074 10.2602 28.0076H21.7407C24.4805 28.0076 26.7016 25.7865 26.7016 23.0467V13.8916ZM17.2856 6.43863L24.7016 12.3085V23.0467C24.7016 24.682 23.376 26.0076 21.7407 26.0076H10.2602C8.62515 26.0074 7.29937 24.6818 7.2993 23.0467V12.308L14.714 6.43733C15.4675 5.84209 16.5323 5.84314 17.2856 6.43863Z" fill="black"/>
</svg>
