<svg width="32" height="32" viewBox="0 0 32 32" fill="none" xmlns="http://www.w3.org/2000/svg">
<path fill-rule="evenodd" clip-rule="evenodd" d="M17.6683 5.49089C19.575 3.58632 22.6651 3.58642 24.5719 5.49089L26.555 7.47397C28.4614 9.3806 28.4623 12.4734 26.555 14.3789L14.3245 26.6081C13.4744 27.4582 12.3211 27.9374 11.1175 27.9375H5.01593C4.7464 27.9375 4.48798 27.8284 4.29978 27.6354C4.11182 27.4425 4.00927 27.182 4.01593 26.9128L4.16958 20.7565C4.19894 19.5949 4.67324 18.4859 5.4964 17.6628L17.6683 5.49089ZM23.9846 14.1199L17.9261 8.06239L19.0823 6.90626C20.2082 5.78186 22.032 5.78197 23.1579 6.90626L25.1409 8.88803C26.1963 9.94363 26.2616 11.6141 25.3388 12.7448L25.1409 12.9635L23.9846 14.1199ZM16.5118 9.4765L22.5694 15.5351L12.9105 25.194C12.4349 25.6696 11.79 25.9374 11.1175 25.9375H6.04067L6.16827 20.806C6.18463 20.1566 6.45026 19.537 6.91046 19.0768L16.5118 9.4765Z" fill="black"/>
</svg>
