<svg width="32" height="32" viewBox="0 0 32 32" fill="none" xmlns="http://www.w3.org/2000/svg">
<path fill-rule="evenodd" clip-rule="evenodd" d="M17.8594 6.50201C16.8117 5.68832 15.3086 5.68832 14.2608 6.50201L7.0847 12.0701C6.42015 12.5865 6.0346 13.3596 6.0346 14.176V22.9735C6.0346 24.7165 7.51667 26.1289 9.34549 26.1289H22.7748C24.6036 26.1289 26.0856 24.7165 26.0856 22.9735V14.176C26.0856 13.3596 25.7003 12.5867 25.0357 12.0703L17.8594 6.50201ZM19.0792 5.07578C17.3213 3.71074 14.7989 3.71074 13.041 5.07578L5.86474 10.644C4.75073 11.5095 4.10352 12.8062 4.10352 14.176V22.9735C4.10352 25.7318 6.44943 27.9687 9.34549 27.9687H22.7748C25.6708 27.9687 28.0167 25.7318 28.0167 22.9735V14.176C28.0167 12.8062 27.37 11.5099 26.2559 10.6444L19.0792 5.07578Z" fill="black"/>
<path fill-rule="evenodd" clip-rule="evenodd" d="M15.0727 13.6417V15.3234C15.0727 15.8314 14.6404 16.2433 14.1072 16.2433H12.3383V18.1316H14.1072C14.6404 18.1316 15.0727 18.5434 15.0727 19.0514V20.732H17.0473V19.0514C17.0473 18.5434 17.4796 18.1316 18.0129 18.1316H19.7805V16.2433H18.0129C17.4796 16.2433 17.0473 15.8314 17.0473 15.3234V13.6417H15.0727ZM13.1416 13.2983C13.1416 12.4716 13.8445 11.802 14.7122 11.802H17.4078C18.2755 11.802 18.9784 12.4716 18.9784 13.2983V14.4035H20.141C21.0087 14.4035 21.7115 15.0732 21.7115 15.8998V18.4739C21.7115 19.2981 21.0113 19.9713 20.141 19.9713H18.9784V21.0754C18.9784 21.9021 18.2755 22.5717 17.4078 22.5717H14.7122C13.8445 22.5717 13.1416 21.9021 13.1416 21.0754V19.9713H11.9777C11.11 19.9713 10.4072 19.2993 10.4072 18.4739V15.8998C10.4072 15.072 11.1126 14.4035 11.9777 14.4035H13.1416V13.2983Z" fill="black"/>
</svg>
