<svg width="32" height="32" viewBox="0 0 32 32" fill="none" xmlns="http://www.w3.org/2000/svg">
<path d="M18.3331 16.0013C18.3331 14.7118 17.2886 13.667 16.0011 13.6667C14.7117 13.6667 13.6664 14.7119 13.6664 16.0013C13.6668 17.2888 14.7116 18.3333 16.0011 18.3333C17.2886 18.333 18.3328 17.2889 18.3331 16.0013ZM20.3331 16.0013C20.3328 18.3934 18.3932 20.333 16.0011 20.3333C13.6076 20.3333 11.6668 18.3939 11.6664 16.0013C11.6664 13.6073 13.6071 11.6667 16.0011 11.6667C18.3937 11.667 20.3331 13.6078 20.3331 16.0013Z" fill="black"/>
<path d="M12.1795 7.38281C11.4649 7.38281 10.8036 7.76401 10.4464 8.38281L6.62607 15C6.26881 15.6188 6.26881 16.3812 6.62607 17L10.4464 23.6172C10.8036 24.236 11.4649 24.6172 12.1795 24.6172H19.8201C20.5346 24.6172 21.1959 24.236 21.5532 23.6172L25.3735 17C25.7307 16.3812 25.7307 15.6188 25.3735 15L21.5532 8.38281C21.1959 7.76401 20.5346 7.38281 19.8201 7.38281L12.1795 7.38281ZM19.8201 5.38281C21.2491 5.38281 22.5704 6.14521 23.2849 7.38281L27.1052 14L27.2315 14.2357C27.8174 15.4274 27.775 16.8399 27.1052 18L23.2849 24.6172C22.615 25.7775 21.4123 26.5211 20.087 26.6094L19.8201 26.6172H12.1795C10.8395 26.6172 9.59425 25.9476 8.85523 24.8438L8.71461 24.6172L4.8943 18C4.17977 16.7624 4.17977 15.2376 4.8943 14L8.71461 7.38281C9.42914 6.14521 10.7504 5.38281 12.1795 5.38281L19.8201 5.38281Z" fill="black"/>
</svg>
