<svg width="32" height="32" viewBox="0 0 32 32" fill="none" xmlns="http://www.w3.org/2000/svg">
<path fill-rule="evenodd" clip-rule="evenodd" d="M7.3915 10.6875C7.86488 10.6875 8.27811 10.6874 8.6198 10.7149C8.98625 10.7443 9.35711 10.8102 9.71615 10.9896C10.1453 11.204 10.5121 11.5215 10.7846 11.9111C10.8281 11.8701 10.8735 11.8255 10.9208 11.7774C11.3458 11.3446 11.8246 10.7173 12.3167 9.9818C13.2962 8.51748 14.2371 6.76599 14.8023 5.66279L14.841 5.58711C15.0031 5.2688 15.1775 4.92633 15.456 4.65497L15.6526 4.4857C15.8624 4.32476 16.1076 4.19213 16.3492 4.11201C16.7169 3.9901 17.0545 3.99238 17.3601 3.99444L17.4221 3.99482C17.7096 3.99622 18.0572 4.01163 18.3557 4.07294C19.604 4.32952 20.6462 5.23353 21.0706 6.81253C21.4379 8.17942 21.3403 10.0207 20.6526 12.418H21.317C22.5774 12.418 23.59 12.418 24.3948 12.4883C25.2167 12.5602 25.9407 12.713 26.5745 13.0938C27.6022 13.7116 28.3564 14.6968 28.6852 15.8503C28.8878 16.5614 28.8467 17.2997 28.7021 18.112C28.5596 18.9117 28.2943 19.8955 27.9636 21.1217L27.2745 23.6771C27.0055 24.6773 26.7981 25.4483 26.4221 26.0638L26.2385 26.3334C25.7827 26.9339 25.173 27.4012 24.4742 27.6849C23.7128 27.9939 22.8371 27.9932 21.6493 27.9923L15.7573 27.9922C15.3787 27.9925 15.0946 27.9926 14.8115 27.9532C14.5446 27.9159 14.2821 27.8518 14.0276 27.7643C13.7509 27.6692 13.4921 27.5377 13.142 27.3598L11.0521 26.2992C11.0355 26.3376 11.0178 26.3759 10.9987 26.4141C10.7215 26.9688 10.2709 27.4195 9.71615 27.6966C9.35717 27.8759 8.98619 27.9406 8.6198 27.9701C8.2648 27.9986 7.83266 27.9987 7.33594 27.9987H7.13933C6.64242 27.9987 6.21055 27.9986 5.85548 27.9701C5.48903 27.9406 5.11815 27.876 4.75912 27.6966C4.20443 27.4194 3.75504 26.9688 3.47787 26.4141C3.29864 26.0553 3.23259 25.6853 3.20313 25.319C3.1757 24.9777 3.17574 24.565 3.17578 24.0921L3.17578 14.5937C3.17574 14.1209 3.1757 13.7086 3.20313 13.3672C3.23258 13.0007 3.29847 12.6299 3.47787 12.2709C3.75503 11.7164 4.20466 11.2668 4.75912 10.9896C5.11818 10.8102 5.489 10.7443 5.85548 10.7149C6.1968 10.6874 6.60908 10.6875 7.08188 10.6875H7.3915ZM9.27865 13.5274C9.29925 13.7838 9.29949 14.1217 9.29949 14.6511V24.0352C9.29949 24.5642 9.29925 24.9026 9.27865 25.1589C9.25896 25.4035 9.22546 25.4866 9.20834 25.5209C9.12475 25.6878 8.98996 25.8241 8.82292 25.9076C8.78861 25.9247 8.70467 25.9569 8.45964 25.9766C8.20329 25.9972 7.865 25.9987 7.33594 25.9987H7.13933C6.61 25.9987 6.27202 25.9972 6.01563 25.9766C5.77143 25.957 5.68816 25.9248 5.65365 25.9076C5.48643 25.824 5.35057 25.688 5.26693 25.5209C5.24981 25.4866 5.21632 25.4035 5.19662 25.1589C5.17602 24.9026 5.17579 24.5642 5.17579 24.0352V14.6511C5.17579 14.1217 5.17602 13.7838 5.19662 13.5274C5.2163 13.2826 5.24978 13.1998 5.26693 13.1654C5.35056 12.998 5.4863 12.8623 5.65365 12.7787C5.68802 12.7615 5.77085 12.728 6.01563 12.7084C6.27202 12.6878 6.61 12.6875 7.13933 12.6875H7.33594C7.86496 12.6875 8.2033 12.6878 8.45964 12.7084C8.70466 12.728 8.78862 12.7615 8.82292 12.7787C8.99 12.8623 9.1248 12.9983 9.20834 13.1654C9.22549 13.1997 9.25896 13.2824 9.27865 13.5274Z" fill="black"/>
</svg>
