<svg width="32" height="32" viewBox="0 0 32 32" fill="none" xmlns="http://www.w3.org/2000/svg">
<path d="M14.7361 16.6316C14.4157 16.2388 14.439 15.6592 14.8051 15.293L20.3416 9.75659C20.7321 9.36607 21.3651 9.36607 21.7556 9.75659C22.1461 10.1471 22.1461 10.7801 21.7556 11.1707L16.9262 16.0001L21.7556 20.8295C22.1461 21.22 22.1461 21.853 21.7556 22.2436C21.3651 22.6341 20.7321 22.6341 20.3416 22.2436L14.8051 16.7071L14.7361 16.6316Z" fill="black"/>
<path d="M9.95117 10.4636C9.95117 9.91134 10.3989 9.46362 10.9512 9.46362C11.5035 9.46362 11.9512 9.91134 11.9512 10.4636L11.9512 21.5365C11.9512 22.0888 11.5035 22.5365 10.9512 22.5365C10.3989 22.5365 9.95117 22.0888 9.95117 21.5365L9.95117 10.4636Z" fill="black"/>
</svg>
