<svg width="32" height="32" viewBox="0 0 32 32" fill="none" xmlns="http://www.w3.org/2000/svg">
<path d="M25.5433 15.0984C25.5433 14.1547 25.2521 13.4313 24.8076 12.9539C24.3707 12.4847 23.7127 12.1727 22.8089 12.1726H9.19173C8.29158 12.1726 7.63275 12.4849 7.19434 12.9552C6.74877 13.4332 6.45605 14.1561 6.45605 15.0984V23.7664C6.45613 24.7095 6.74755 25.4322 7.19173 25.9096C7.62874 26.379 8.28752 26.6921 9.19173 26.6921H22.8076C23.7124 26.6921 24.3706 26.3789 24.8076 25.9096C25.252 25.4322 25.5432 24.7098 25.5433 23.7664V15.0984ZM27.5433 23.7664C27.5432 25.1228 27.1188 26.3625 26.2712 27.2729C25.416 28.1913 24.2063 28.6921 22.8076 28.6921H9.19173C7.79338 28.6921 6.58324 28.1913 5.72819 27.2729C4.88081 26.3626 4.45613 25.1228 4.45605 23.7664V15.0984C4.45605 13.7406 4.88274 12.5003 5.73079 11.5906C6.58615 10.673 7.79616 10.1726 9.19173 10.1726H22.8089C24.2071 10.1727 25.4162 10.6735 26.2712 11.5919C27.1187 12.5022 27.5433 13.7418 27.5433 15.0984V23.7664Z" fill="black"/>
<path d="M10.8656 22.5893C11.4179 22.5893 11.8656 23.037 11.8656 23.5893C11.8656 24.1416 11.4179 24.5893 10.8656 24.5893H9.22241C8.67013 24.5893 8.22241 24.1416 8.22241 23.5893C8.22241 23.037 8.67013 22.5893 9.22241 22.5893H10.8656Z" fill="black"/>
<path d="M22.7778 14.2664L22.8807 14.2716C23.3849 14.3229 23.7778 14.7486 23.7778 15.2664C23.7778 15.7841 23.3849 16.2099 22.8807 16.2611L22.7778 16.2664H21.1346C20.5823 16.2664 20.1346 15.8186 20.1346 15.2664C20.1346 14.7141 20.5823 14.2664 21.1346 14.2664H22.7778Z" fill="black"/>
<path d="M17.6812 19.4252C17.6811 18.4972 16.929 17.7455 16.0015 17.7455C15.0727 17.7455 14.3207 18.4974 14.3206 19.4252C14.3206 20.3531 15.0725 21.1049 16.0015 21.1049C16.9291 21.1049 17.6812 20.3533 17.6812 19.4252ZM19.6812 19.4252C19.6812 21.4586 18.033 23.1049 16.0015 23.1049C13.9691 23.1049 12.3206 21.4588 12.3206 19.4252C12.3207 17.3918 13.9691 15.7455 16.0015 15.7455C18.033 15.7455 19.6811 17.392 19.6812 19.4252Z" fill="black"/>
<path d="M24.7515 6.86011C25.3038 6.86011 25.7515 7.30782 25.7515 7.86011C25.7515 8.41239 25.3038 8.86011 24.7515 8.86011L7.25024 8.86011C6.69796 8.86011 6.25024 8.41239 6.25024 7.86011C6.25024 7.30782 6.69796 6.86011 7.25024 6.86011L24.7515 6.86011Z" fill="black"/>
<path d="M22.6966 3.39136C23.2486 3.39167 23.6966 3.83926 23.6966 4.39136C23.6966 4.94345 23.2486 5.39105 22.6966 5.39136L9.30599 5.39136C8.7537 5.39136 8.30599 4.94364 8.30599 4.39136C8.30599 3.83907 8.7537 3.39136 9.30599 3.39136L22.6966 3.39136Z" fill="black"/>
</svg>
