<svg width="32" height="32" viewBox="0 0 32 32" fill="none" xmlns="http://www.w3.org/2000/svg">
<path d="M28.9463 14.1732C28.3863 11.0532 25.5863 8.87991 22.3196 8.47991C21.4129 5.86657 18.9329 3.98657 16.0129 3.98657C13.0929 3.98657 10.6263 5.85324 9.71961 8.43991C6.18628 8.85324 3.41295 11.4132 3.02628 14.5732H3.01295C2.65295 17.7466 4.49295 20.2532 6.81295 22.2799C8.39961 23.6666 10.3329 24.9199 12.0663 26.0399C12.8396 26.5466 13.5729 27.0266 14.2129 27.4799C14.9863 28.0266 16.1063 28.1732 17.0396 27.8532C17.4663 27.7066 17.8129 27.4666 17.9996 27.3332C18.0263 27.3066 18.0396 27.2932 18.0663 27.2799C18.6529 26.8666 19.3196 26.4266 20.0129 25.9732C21.8129 24.7999 23.8263 23.4666 25.4529 21.9999C27.7463 19.9199 29.4796 17.3732 28.9463 14.1732ZM16.0129 5.98657C17.7996 5.98657 19.3596 6.99991 20.1463 8.49324C19.3463 8.58657 18.5463 8.78657 17.7596 9.11991C17.1196 9.38657 16.5329 9.71991 16.0129 10.1066C15.2263 9.53324 14.3329 9.07991 13.3596 8.78657C12.8663 8.63991 12.3729 8.53324 11.8929 8.47991C12.6663 6.99991 14.2129 5.98657 16.0129 5.98657ZM11.3729 10.1332C11.7996 10.1866 12.2396 10.2666 12.6796 10.3999H12.6929C13.6663 10.6932 14.5596 11.1999 15.2663 11.8666C15.4529 12.0532 15.7196 12.1466 16.0129 12.1466C16.3063 12.1466 16.5729 12.0532 16.7596 11.8666C17.2796 11.3599 17.9329 10.9466 18.6396 10.6399C19.2929 10.3599 19.9729 10.1999 20.6529 10.1466C20.6529 10.3199 20.6796 10.4799 20.6796 10.6532C20.6796 13.2266 18.5863 15.3199 16.0129 15.3199C13.4396 15.3199 11.3463 13.2266 11.3463 10.6532C11.3463 10.4914 11.3573 10.3295 11.3697 10.1676C11.3706 10.1562 11.3721 10.1447 11.3729 10.1332ZM23.9863 20.8399C22.4796 22.1999 20.6796 23.3866 18.9329 24.5332C18.1996 25.0132 17.4796 25.4799 16.7863 25.9599C16.4929 26.1732 16.4129 26.2266 16.3196 26.2532C16.3196 26.2532 16.3107 26.2577 16.2929 26.2666C16.1996 26.2932 16.1063 26.3199 15.9996 26.3199C15.8129 26.3199 15.6263 26.2666 15.4929 26.1599C14.7329 25.6266 13.9329 25.1066 13.1196 24.5866C11.4529 23.4932 9.73295 22.3866 8.25295 21.0932C6.10628 19.2266 4.73295 17.1866 5.01295 14.7466C5.29295 12.4932 7.07961 10.7466 9.37295 10.2532C9.34628 10.3866 9.34628 10.5199 9.34628 10.6532C9.34628 14.3332 12.3196 17.3199 16.0129 17.3199C19.7063 17.3199 22.6796 14.3332 22.6796 10.6532C22.6796 10.5332 22.6796 10.3999 22.6529 10.2799C24.7996 10.7466 26.5729 12.2799 26.9596 14.4132C27.3729 16.8799 26.0796 18.9332 23.9863 20.8399Z" fill="black"/>
</svg>
