<svg width="32" height="32" viewBox="0 0 32 32" fill="none" xmlns="http://www.w3.org/2000/svg">
<path fill-rule="evenodd" clip-rule="evenodd" d="M10.0872 23.6264L16.1602 17.5534L22.073 23.4662C22.4635 23.8567 23.0967 23.8567 23.4872 23.4662C23.8777 23.0757 23.8777 22.4425 23.4872 22.052L17.5744 16.1392L23.629 10.0846C24.0195 9.69407 24.0195 9.06091 23.629 8.67038C23.2385 8.27986 22.6053 8.27986 22.2148 8.67038L16.1602 14.725L9.94539 8.51018C9.55486 8.11965 8.9217 8.11965 8.53117 8.51018C8.14065 8.9007 8.14065 9.53387 8.53117 9.92439L14.746 16.1392L8.67296 22.2122C8.28244 22.6027 8.28244 23.2359 8.67296 23.6264C9.06349 24.017 9.69665 24.017 10.0872 23.6264Z" fill="black"/>
</svg>
