<svg width="32" height="32" viewBox="0 0 32 32" fill="none" xmlns="http://www.w3.org/2000/svg">
<path d="M12.0092 5.98166C14.643 3.34665 18.912 3.34657 21.5457 5.98166L21.7853 6.23296C24.177 8.87939 24.0967 12.967 21.5457 15.5181L16.1355 20.9283C14.6125 22.4513 12.1444 22.4511 10.6212 20.9283C9.0981 19.4051 9.09817 16.9371 10.6212 15.414L15.7267 10.3085C16.1172 9.91796 16.7502 9.91796 17.1408 10.3085C17.5308 10.699 17.5311 11.3322 17.1408 11.7225L12.0353 16.828C11.2933 17.5701 11.2932 18.7721 12.0353 19.5142C12.7774 20.256 13.9795 20.2561 14.7215 19.5142L20.1316 14.1041C21.9264 12.3092 21.9818 9.43383 20.2996 7.57281L20.1316 7.39572C18.337 5.60014 15.4626 5.54326 13.6004 7.22645L13.4233 7.39572L7.87643 12.9413C4.89052 15.9277 4.89054 20.7688 7.87643 23.7551C10.8616 26.7403 15.7036 26.7407 18.6902 23.7551L26.6564 15.7903C27.0469 15.4001 27.68 15.3999 28.0704 15.7903C28.4607 16.1807 28.4605 16.8138 28.0704 17.2043L20.1043 25.1705C16.3368 28.9361 10.2286 28.9366 6.46237 25.1705C2.69483 21.403 2.69484 15.2935 6.46237 11.5259L12.0092 5.98166Z" fill="black"/>
</svg>
