<?xml version="1.0" encoding="UTF-8"?>
<svg id="Capa_1" xmlns="http://www.w3.org/2000/svg" version="1.1" viewBox="0 0 32 32">
  <!-- Generator: Adobe Illustrator 30.0.0, SVG Export Plug-In . SVG Version: 2.1.1 Build 123)  -->
  <defs>
    <style>
      .st0 {
        fill-rule: evenodd;
      }
    </style>
  </defs>
  <path class="st0" d="M23.41,23.81c-.15-.1-.34-.15-.53-.15-.55,0-1.01.45-1.01,1,0,.01,0,.03,0,.04.02.53.47.96,1.01.96.55,0,1-.45,1-1,0-.36-.19-.67-.47-.85Z"/>
  <path class="st0" d="M27.98,24.8l-2.2-4.68s0-.08,0-.12v-8.01c0-.72-.19-1.41-.55-2.01v-.02s-.02-.03-.03-.04c-.34-.56-.82-1.04-1.41-1.38l-6.94-4.01c-1.23-.71-2.74-.71-3.97,0l-6.94,4.01c-.56.32-1.01.77-1.35,1.29-.03.04-.06.08-.09.13-.02.04-.04.08-.06.12-.31.57-.49,1.23-.49,1.91v8.01c0,1.42.76,2.73,1.99,3.44l6.94,4.01c.54.31,1.14.49,1.75.53.08.02.16.03.24.03s.17-.01.24-.03c.6-.04,1.2-.21,1.74-.52l.96-.56c.29.56.88,1.09,1.7,1.09h6.71c.85,0,1.45-.57,1.73-1.15.28-.59.32-1.34,0-2.02ZM13.89,6.28c.61-.35,1.36-.35,1.97,0l6.88,3.97-2.75,1.59-7.86-4.55,1.76-1.02ZM13.88,25.71l-6.93-4c-.61-.35-.99-1-.99-1.71v-8.04s7.91,4.58,7.91,4.58v9.17ZM14.87,14.8l-7.87-4.55,3.12-1.8,7.86,4.55-3.12,1.81ZM17.92,24.53l-2.04,1.18v-9.17l3.13-1.81v1.63c0,.55.45,1,1,1,.55,0,1-.45,1-1v-2.79l2.78-1.61v.03s0,4.74,0,4.74c-.27-.15-.57-.24-.9-.24-.76,0-1.41.46-1.74,1.16l-3.23,6.87ZM26.17,25.96h0s-6.55.01-6.55.01c0,0,0-.01,0-.01-.01-.02-.02-.05-.03-.08-.02-.08,0-.16.03-.23l3.29-6.99,3.28,6.99c.05.1.04.22,0,.31Z"/>
  <path class="st0" d="M22.88,20.61c-.55,0-1,.45-1,1v.8c0,.11.02.21.05.31.13.4.51.69.95.69.55,0,1-.45,1-1v-.8c0-.26-.1-.5-.26-.67-.18-.2-.45-.33-.74-.33Z"/>
</svg>