<?xml version="1.0" encoding="UTF-8"?>
<svg id="Capa_1" xmlns="http://www.w3.org/2000/svg" version="1.1" viewBox="0 0 32 32">
  <!-- Generator: Adobe Illustrator 30.0.0, SVG Export Plug-In . SVG Version: 2.1.1 Build 123)  -->
  <defs>
    <style>
      .st0 {
        fill-rule: evenodd;
      }
    </style>
  </defs>
  <path class="st0" d="M26.15,5.89c-1.23-1.18-2.96-1.83-4.97-1.83h-1.09s-2.11,0-2.11,0l-1.62,4.78-.02.05c-.13.45-.06.92.15,1.3.12.22.32.44.59.59.19.11.41.17.67.17h3.01l-5.48,7.88.91-4.27c.09-.44.01-.88-.21-1.25-.18-.29-.48-.58-.9-.68-.1-.02-.21-.04-.33-.04h-2.58l2.78-8.55h-4.11c-2.01,0-3.74.64-4.97,1.83-1.23,1.18-1.88,2.83-1.88,4.69v10.96c0,1.85.65,3.5,1.88,4.69,1.23,1.18,2.96,1.83,4.97,1.83h10.32c2.02,0,3.75-.64,4.98-1.83,1.23-1.19,1.88-2.84,1.88-4.69v-10.96c0-1.85-.65-3.5-1.88-4.69ZM6,10.58c0-1.38.48-2.48,1.27-3.25.8-.77,2-1.27,3.58-1.27h1.36l-2.09,6.44v.03c-.14.45-.08.93.13,1.31.21.38.64.77,1.27.77h2.63l-.16.78h-7.99v-4.81ZM10.85,26.06c-1.59,0-2.79-.5-3.59-1.27-.79-.76-1.27-1.87-1.27-3.25v-4.15h7.57l-.72,3.41c-.14.67.11,1.35.65,1.72.28.19.64.29,1.03.22.21-.04.4-.12.56-.24v3.47s0,.06,0,.09h-4.24ZM26.03,21.54c0,1.38-.47,2.49-1.27,3.25-.8.77-2,1.27-3.59,1.27h-4.09s0-.06,0-.09v-6.2l1.66-2.38h7.19s.06,0,.09,0v4.16ZM26.03,15.39s-.06,0-.09,0h-5.8l2.68-3.86c.35-.5.36-1.09.2-1.55-.16-.44-.6-1.01-1.37-1.01h-3.2l.98-2.9h1.76c1.59,0,2.79.5,3.59,1.27.79.76,1.27,1.87,1.27,3.25v4.82Z"/>
</svg>