<?xml version="1.0" encoding="UTF-8"?>
<svg id="Capa_1" xmlns="http://www.w3.org/2000/svg" version="1.1" viewBox="0 0 32 32">
  <!-- Generator: Adobe Illustrator 30.0.0, SVG Export Plug-In . SVG Version: 2.1.1 Build 123)  -->
  <defs>
    <style>
      .st0 {
        fill-rule: evenodd;
      }
    </style>
  </defs>
  <path class="st0" d="M16.04,14.69h-7.03c-.55,0-1,.45-1,1,0,.55.45,1,1,1h7.03c.55,0,1-.45,1-1,0-.55-.45-1-1-1Z"/>
  <path class="st0" d="M8.01,10.89c0,.55.45,1,1,1h7.03c.55,0,1-.45,1-1,0-.55-.45-1-1-1h-7.03c-.55,0-1,.45-1,1Z"/>
  <path class="st0" d="M11.77,18.97h-2.76c-.55,0-1,.45-1,1s.45,1,1,1h2.76c.55,0,1-.45,1-1s-.45-1-1-1Z"/>
  <path class="st0" d="M27.44,5.3c-.79-.79-1.9-1.28-3.11-1.28h-15.83c-1.6,0-2.95.54-3.89,1.63-.92,1.06-1.34,2.52-1.34,4.16v14.97c-.01,1.7,1.71,3.07,3.39,2.21l.85-.45c.23-.12.49-.13.76-.01l2.4,1.07.23.1c1.17.44,2.45.41,3.61-.1l2.41-1.07c.23-.1.47-.1.67-.02l.09.04.86.45.16.07c1.63.7,3.23-.66,3.23-2.29v-4.37c.06-.01.12-.04.18-.06l1.62-.73c.23-.1.46-.1.67-.02l.09.04.86.45.16.07c1.62.7,3.23-.64,3.23-2.29v-9.45c0-1.21-.5-2.31-1.3-3.11ZM19.93,8.41v16.36c0,.2-.1.34-.2.41-.09.07-.19.07-.28.02l-.84-.45c-.79-.41-1.7-.42-2.49-.07l-2.4,1.07c-.72.32-1.52.32-2.24,0l-2.41-1.07c-.79-.35-1.7-.33-2.49.08l-.84.44c-.1.05-.19.04-.28-.02-.07-.05-.15-.14-.18-.27l-.02-.15v-14.97c.01-1.32.35-2.26.86-2.85.5-.57,1.26-.94,2.38-.94h12.15c-.45.69-.71,1.51-.71,2.4ZM26.74,17.86c0,.21-.1.35-.19.42-.07.05-.14.06-.21.05l-.07-.03-.84-.45c-.79-.41-1.7-.42-2.49-.07l-.99.44v-9.82c0-1.32,1.07-2.39,2.4-2.39.67,0,1.27.27,1.7.7.44.44.71,1.04.71,1.7v9.45Z"/>
</svg>