<svg width="32" height="32" viewBox="0 0 32 32" fill="none" xmlns="http://www.w3.org/2000/svg">
<path d="M18.0599 14.1675C18.0596 13.0292 17.1366 12.1076 16 12.1076C14.8622 12.1079 13.9404 13.0297 13.9401 14.1675C13.9401 15.3041 14.8617 16.2271 16 16.2274C17.1371 16.2274 18.0599 15.3046 18.0599 14.1675ZM20.0599 14.1675C20.0599 16.4092 18.2417 18.2274 16 18.2274C13.7576 18.2271 11.9401 16.4092 11.9401 14.1675C11.9404 11.9251 13.7576 10.1079 16 10.1076C18.2417 10.1076 20.0596 11.9251 20.0599 14.1675Z" fill="black"/>
<path d="M24.1797 14.2409C24.1793 9.6737 20.5095 5.9847 16 5.98438C11.4904 5.98438 7.82066 9.67333 7.82031 14.2409C7.82031 17.1402 9.55529 20.1015 11.6081 22.4128C12.6196 23.5516 13.6702 24.4895 14.5417 25.1341C14.9783 25.4571 15.355 25.6951 15.6471 25.8477C15.8376 25.9471 15.9503 25.9875 15.9987 26.0039C16.0464 25.9878 16.1595 25.948 16.3516 25.8477C16.6438 25.695 17.0214 25.4572 17.4583 25.1341C18.3299 24.4895 19.3803 23.5516 20.3919 22.4128C22.4449 20.1015 24.1797 17.14 24.1797 14.2409ZM26.1797 14.2409C26.1797 17.8716 24.057 21.2976 21.8867 23.7409C20.7867 24.9793 19.6344 26.012 18.6471 26.7422C18.1549 27.1063 17.6888 27.4068 17.2786 27.6211C16.917 27.81 16.4467 28.0154 16 28.0156C15.5533 28.0156 15.0831 27.81 14.7214 27.6211C14.311 27.4068 13.844 27.1064 13.3516 26.7422C12.3644 26.012 11.2119 24.9793 10.112 23.7409C7.94203 21.2976 5.82031 17.8714 5.82031 14.2409C5.82066 8.58493 10.3697 3.98438 16 3.98438C21.6298 3.9847 26.1793 8.58496 26.1797 14.2409Z" fill="black"/>
</svg>
