<svg width="32" height="32" viewBox="0 0 32 32" fill="none" xmlns="http://www.w3.org/2000/svg">
<path fill-rule="evenodd" clip-rule="evenodd" d="M25.7372 10.6882C25.7789 10.8675 25.8063 11.0509 25.8188 11.2369C25.8246 11.1934 25.8275 11.1491 25.8275 11.1041C25.8275 10.9557 25.7952 10.8148 25.7372 10.6882Z" fill="black"/>
<path d="M12.914 13.8412C13.2702 13.4194 13.9009 13.3655 14.3229 13.7214C14.7446 14.0776 14.7984 14.7083 14.4426 15.1303L12.0038 18.0183L14.4426 20.9063C14.7984 21.3283 14.7446 21.959 14.3229 22.3152C13.9009 22.6712 13.2702 22.6173 12.914 22.1954L9.93093 18.6641C9.61647 18.2917 9.61673 17.7463 9.93093 17.3738L12.914 13.8412Z" fill="black"/>
<path d="M17.6777 13.7214C18.0996 13.3656 18.7304 13.4194 19.0865 13.8412L22.0696 17.3738C22.3837 17.7463 22.384 18.2918 22.0696 18.6641L19.0865 22.1954C18.7304 22.6172 18.0996 22.671 17.6777 22.3152C17.2559 21.959 17.202 21.3283 17.5579 20.9063L19.9954 18.0183L17.5579 15.1303C17.202 14.7083 17.2559 14.0776 17.6777 13.7214Z" fill="black"/>
<path d="M20.5828 12.1041H23.8265V24.5247C23.8263 25.3252 23.1777 25.974 22.3747 25.974H9.62467C8.82289 25.9739 8.17293 25.3239 8.17285 24.5221V7.35807C8.17293 6.5556 8.82228 5.90633 9.62337 5.90625H17.7442V9.26551C17.7445 10.8331 19.0153 12.1038 20.5828 12.1041ZM23.0593 10.1041H20.5828C20.1198 10.1038 19.7445 9.72846 19.7442 9.26551V6.78997L23.0593 10.1041ZM25.7372 10.6882C25.5924 10.0651 25.2752 9.49167 24.8161 9.03255L20.7002 4.91667C20.0542 4.27092 19.1808 3.90636 18.264 3.90625H9.62337C7.71633 3.90633 6.17293 5.45241 6.17285 7.35807V24.5221C6.17293 26.4285 7.71834 27.9739 9.62467 27.974H22.3747C24.2798 27.974 25.8263 26.4323 25.8265 24.5247V11.4674C25.8265 11.3902 25.8239 11.3133 25.8188 11.2369C25.8063 11.0509 25.7789 10.8675 25.7372 10.6882Z" fill="black"/>
</svg>
