<svg width="32" height="32" viewBox="0 0 32 32" fill="none" xmlns="http://www.w3.org/2000/svg">
<path fill-rule="evenodd" clip-rule="evenodd" d="M22.509 20.1194C22.5153 20.0932 22.5218 20.0676 22.5295 20.0429L22.509 20.1194ZM22.3302 20.7866C22.3645 20.6414 22.4027 20.5034 22.4406 20.3745L22.3302 20.7866ZM23.0182 22.4408C23.0465 22.4467 23.0752 22.4514 23.1045 22.4549C23.6529 22.5199 24.1502 22.1282 24.2152 21.5797C24.2271 21.4789 24.2466 21.3752 24.2727 21.2644L24.1523 21.7138C24.0172 22.2167 23.5216 22.5273 23.0182 22.4408ZM23.9092 16.0736C23.9339 16.1284 23.959 16.1844 23.9847 16.2418L23.9092 16.0736Z" fill="black"/>
<path fill-rule="evenodd" clip-rule="evenodd" d="M7.99427 16.0736C7.96963 16.1284 7.94446 16.1844 7.91877 16.2418L7.99427 16.0736ZM7.63079 21.2645C7.65688 21.3753 7.67634 21.4789 7.6883 21.5797C7.7533 22.1282 8.25056 22.5199 8.79901 22.4549C8.82823 22.4514 8.85701 22.4467 8.8853 22.4408C8.3819 22.5272 7.88629 22.2167 7.7512 21.7138L7.63079 21.2645ZM9.5733 20.7866C9.53894 20.6414 9.50076 20.5035 9.46289 20.3745L9.5733 20.7866ZM9.39452 20.1194C9.3882 20.0932 9.38163 20.0676 9.37402 20.0429L9.39452 20.1194Z" fill="black"/>
<path fill-rule="evenodd" clip-rule="evenodd" d="M24.3833 20.8618C24.3738 20.8934 24.3645 20.9244 24.3557 20.9548L24.3833 20.8618ZM24.3557 20.9548L24.2727 21.2644C24.2955 21.1676 24.3233 21.0654 24.3557 20.9548ZM23.0182 22.4408C22.5157 22.3366 22.1678 21.8633 22.2293 21.3442C22.2524 21.1499 22.2885 20.9629 22.3302 20.7866L22.2204 21.1962C22.0779 21.7294 22.3944 22.278 22.9275 22.4209C22.9577 22.429 22.988 22.4356 23.0182 22.4408Z" fill="black"/>
<path fill-rule="evenodd" clip-rule="evenodd" d="M7.52019 20.8618L7.5478 20.9547L7.63079 21.2645C7.60799 21.1676 7.58014 21.0654 7.5478 20.9547C7.53893 20.9244 7.52972 20.8934 7.52019 20.8618ZM9.67417 21.3442C9.65112 21.1499 9.61503 20.9629 9.5733 20.7866L9.68305 21.1962C9.82557 21.7294 9.50912 22.278 8.97594 22.4209C8.94575 22.429 8.91551 22.4356 8.8853 22.4408C9.38778 22.3366 9.7357 21.8633 9.67417 21.3442Z" fill="black"/>
<path d="M19.0231 15.9881C19.023 15.5917 18.8677 15.1352 18.4619 14.7694C18.0576 14.4049 17.3127 14.0506 15.9997 14.0506C14.6883 14.0507 13.9436 14.4065 13.5387 14.7733C13.1315 15.1423 12.9763 15.6031 12.9762 15.9999C12.9762 16.5521 12.5285 16.9999 11.9762 16.9999C11.424 16.9999 10.9762 16.5521 10.9762 15.9999C10.9763 15.083 11.3386 14.0687 12.1963 13.2915C13.0564 12.5122 14.3241 12.0507 15.9997 12.0506C17.6733 12.0506 18.9412 12.5078 19.8018 13.2837C20.6605 14.058 21.023 15.0705 21.0231 15.9881C21.0231 16.5404 20.5754 16.9881 20.0231 16.9881C19.4709 16.988 19.0231 16.5404 19.0231 15.9881Z" fill="black"/>
<path d="M17.7658 7.6119C17.7658 6.66416 16.9974 5.89575 16.0496 5.89575C15.1029 5.89597 14.3348 6.66415 14.3348 7.6119C14.3349 8.5595 15.103 9.32782 16.0496 9.32804C16.9973 9.32804 17.7656 8.55948 17.7658 7.6119ZM19.7658 7.6119C19.7656 9.66407 18.1019 11.328 16.0496 11.328C13.9981 11.3278 12.3349 9.66378 12.3348 7.6119C12.3348 5.55988 13.998 3.89597 16.0496 3.89575C18.102 3.89575 19.7658 5.55959 19.7658 7.6119Z" fill="black"/>
<path d="M21.725 16.0623C21.2853 14.9638 21.7194 13.7081 22.7452 13.1153C23.8129 12.4973 25.16 12.8003 25.8656 13.7802L25.998 13.9855L26.1399 14.2309C26.8982 15.5409 27.7076 16.9389 27.9032 18.753C28.183 21.3513 27.1666 23.423 26.212 25.3687L26.1424 25.5106C25.8048 26.1977 25.6114 26.8736 25.3868 27.7117C25.2439 28.2451 24.6954 28.5616 24.162 28.4188C23.6286 28.2758 23.312 27.7275 23.4549 27.194C23.6795 26.3561 23.9144 25.5099 24.3471 24.6292C25.3597 22.5633 26.1297 20.9667 25.9142 18.9669C25.7651 17.5836 25.1541 16.5246 24.3515 15.1334L24.2652 14.9838C24.1604 14.8019 23.9274 14.7395 23.7457 14.8446C23.5818 14.9393 23.5113 15.1431 23.582 15.3197C23.6782 15.5593 23.7873 15.8022 23.9092 16.0736L23.9847 16.2418C24.1321 16.5712 24.2915 16.935 24.4244 17.3127C24.6551 17.9689 24.8365 18.7444 24.7224 19.5709L24.6548 19.9289C24.5934 20.1814 24.5122 20.4436 24.4432 20.6666C24.4217 20.7359 24.4014 20.8015 24.3833 20.8618C24.3738 20.8934 24.3645 20.9244 24.3557 20.9548C24.3233 21.0654 24.2955 21.1676 24.2727 21.2644L24.1523 21.7138C24.0172 22.2167 23.5216 22.5273 23.0182 22.4408C22.5157 22.3366 22.1678 21.8633 22.2293 21.3442C22.2524 21.1499 22.2885 20.9629 22.3302 20.7866L22.4406 20.3745L22.5295 20.0429C22.578 19.8619 22.5497 19.7109 22.496 19.6093C22.4456 19.514 22.3622 19.4373 22.2269 19.401C22.0538 19.3547 21.8637 19.4039 21.7241 19.5871L21.6671 19.6743C21.1887 20.5373 20.8011 21.3422 20.5907 22.2073C20.3232 23.3151 20.6413 24.2395 21.0966 25.5628C21.1484 25.7133 21.2019 25.869 21.2566 26.0307C21.4335 26.5539 21.1529 27.1215 20.6298 27.2984C20.1067 27.4753 19.5391 27.1947 19.3621 26.6716C19.3117 26.5225 19.258 26.3697 19.2031 26.2132C18.76 24.9516 18.2329 23.4507 18.648 21.7353C18.9226 20.6059 19.4146 19.6131 19.9185 18.7043L20.0273 18.5245C20.526 17.7713 21.3787 17.313 22.3057 17.3919C22.2589 17.2832 22.2098 17.1725 22.159 17.0588L22.0938 16.9136C21.9715 16.6413 21.8392 16.347 21.725 16.0623Z" fill="black"/>
<path d="M9.1583 13.1153C10.1841 13.7081 10.6181 14.9638 10.1785 16.0623C10.0643 16.347 9.93204 16.6413 9.80972 16.9136L9.74452 17.0588C9.69367 17.1725 9.64455 17.2832 9.59774 17.3919C10.5248 17.313 11.3775 17.7713 11.8762 18.5245L11.985 18.7043C12.4889 19.6131 12.9809 20.6059 13.2555 21.7353C13.6706 23.4507 13.1435 24.9516 12.7004 26.2132C12.6454 26.3697 12.5918 26.5225 12.5413 26.6716C12.3644 27.1947 11.7968 27.4753 11.2737 27.2984C10.7506 27.1215 10.4699 26.5539 10.6469 26.0307C10.7015 25.869 10.7551 25.7133 10.8069 25.5628C11.2622 24.2395 11.5803 23.3151 11.3128 22.2073C11.1024 21.3422 10.7148 20.5373 10.2364 19.6743L10.1793 19.5871C10.0398 19.4039 9.84963 19.3547 9.67654 19.401C9.54129 19.4373 9.45784 19.514 9.40747 19.6093C9.35377 19.7109 9.32552 19.8619 9.37402 20.0429L9.46289 20.3745L9.5733 20.7866C9.61503 20.9629 9.65112 21.1499 9.67417 21.3442C9.7357 21.8633 9.38778 22.3366 8.8853 22.4408C8.3819 22.5272 7.88629 22.2167 7.7512 21.7138L7.63079 21.2645C7.60799 21.1676 7.58014 21.0654 7.5478 20.9547C7.53893 20.9244 7.52972 20.8934 7.52019 20.8618C7.50203 20.8015 7.48174 20.7359 7.46028 20.6666C7.39127 20.4436 7.31013 20.1814 7.24866 19.9289L7.18105 19.5709C7.06699 18.7444 7.24842 17.9689 7.47912 17.3127C7.61194 16.935 7.77136 16.5712 7.91877 16.2418L7.99427 16.0736C8.11618 15.8022 8.22532 15.5592 8.32144 15.3197C8.39218 15.1431 8.32169 14.9393 8.15773 14.8446C7.9761 14.7395 7.74304 14.8019 7.6383 14.9838L7.55203 15.1334C6.74939 16.5246 6.13843 17.5836 5.98931 18.9669C5.77382 20.9667 6.54379 22.5633 7.55641 24.6292C7.98907 25.5099 8.22401 26.3561 8.44855 27.194C8.59149 27.7275 8.27491 28.2758 7.74144 28.4188C7.20805 28.5616 6.65962 28.2451 6.5167 27.7117C6.29213 26.8736 6.09863 26.1977 5.76112 25.5106L5.69152 25.3687C4.73687 23.423 3.72048 21.3513 4.0003 18.753C4.19587 16.9389 5.00526 15.5409 5.76363 14.2309L5.90551 13.9855L6.03787 13.7802C6.74348 12.8003 8.09058 12.4973 9.1583 13.1153Z" fill="black"/>
</svg>
