<svg width="32" height="32" viewBox="0 0 32 32" fill="none" xmlns="http://www.w3.org/2000/svg">
<path fill-rule="evenodd" clip-rule="evenodd" d="M24.4856 26.4087C24.5391 26.3925 24.5914 26.3718 24.6418 26.3468C24.5862 26.366 24.5344 26.3868 24.4856 26.4087Z" fill="black"/>
<path fill-rule="evenodd" clip-rule="evenodd" d="M14.0302 4.11366L13.7882 4.69763L13.6474 5.03814L14.0302 4.11366Z" fill="black"/>
<path fill-rule="evenodd" clip-rule="evenodd" d="M26.1046 24.2656L28.0991 21.0381C28.2897 20.7297 28.2991 20.3418 28.1225 20.0251C27.968 19.7479 27.6924 19.563 27.383 19.5212L27.2488 19.5121H23.7706C23.7924 14.0319 21.5153 10.2325 19.1552 7.78814C17.9079 6.49636 16.6408 5.58501 15.6838 4.99517C15.2045 4.69978 14.8004 4.48313 14.5119 4.33892C14.3676 4.26678 14.2515 4.21335 14.1695 4.17616L14.0882 4.13858L14.0731 4.13189C14.0662 4.12888 14.0598 4.12635 14.0543 4.12416L14.0302 4.11366C13.7216 3.98605 13.3689 4.02184 13.0914 4.20741C12.8141 4.39302 12.6474 4.70442 12.6474 5.03814V19.5121H4.74494C4.40899 19.5121 4.09539 19.681 3.9103 19.9613C3.72531 20.2417 3.6937 20.5965 3.82567 20.9053L5.34724 24.4662C4.71794 24.6876 4.27291 25.0222 3.90963 25.2952C3.84253 25.3457 3.77822 25.394 3.71605 25.4392C3.26916 25.7637 3.17019 26.3894 3.4947 26.8363C3.81924 27.2829 4.44377 27.382 4.89053 27.0577C4.96838 27.0011 5.04151 26.9469 5.11129 26.8952C5.67081 26.4804 6.01433 26.2257 6.83975 26.2256C7.28624 26.2256 7.58284 26.3065 7.8124 26.4092C8.06084 26.5205 8.26902 26.6713 8.56891 26.8949L8.59274 26.9127C8.8719 27.121 9.23899 27.3949 9.70433 27.6032C10.2018 27.8259 10.7776 27.9613 11.4934 27.9613C12.2095 27.9613 12.7862 27.826 13.2838 27.6032C13.7464 27.3961 14.1111 27.1239 14.3895 26.9161L14.4179 26.8949C14.7179 26.6712 14.9259 26.5205 15.1744 26.4092C15.404 26.3065 15.7004 26.2257 16.147 26.2256C16.5938 26.2256 16.8903 26.3066 17.1197 26.4092C17.3681 26.5204 17.5763 26.6712 17.8762 26.8949L17.9001 26.9128C18.1793 27.1211 18.5461 27.3949 19.0116 27.6032C19.5094 27.8259 20.0856 27.9613 20.802 27.9613C21.5184 27.9613 22.0946 27.8259 22.5924 27.6032C23.0571 27.3953 23.4234 27.122 23.7024 26.9138L23.7278 26.8949C24.0277 26.6713 24.2369 26.5199 24.4856 26.4087C24.5344 26.3868 24.5862 26.366 24.6418 26.3468C24.8481 26.2754 25.1068 26.2256 25.4595 26.2256C26.2491 26.2257 26.6181 26.4712 27.1028 26.8298C27.5466 27.1581 28.1726 27.065 28.5012 26.6215C28.8296 26.1775 28.7367 25.5502 28.2929 25.2217C27.7714 24.8359 27.1311 24.3981 26.1046 24.2656ZM14.0302 4.11366L13.6474 5.03814L13.7882 4.69763C14.0059 4.17123 14.0277 4.1186 14.0302 4.11366ZM25.4559 21.5121L23.5109 24.6581C23.1201 24.8536 22.8053 25.0885 22.5585 25.2726L22.5325 25.292C22.2324 25.5158 22.0245 25.6665 21.7759 25.7777C21.5462 25.8805 21.2494 25.9613 20.802 25.9613C20.3545 25.9613 20.0577 25.8805 19.828 25.7777C19.5795 25.6665 19.3713 25.5157 19.0715 25.292L19.0437 25.2713C18.7653 25.0634 18.4004 24.791 17.9374 24.5837C17.4398 24.3609 16.8633 24.2256 16.147 24.2256C15.4313 24.2257 14.8554 24.3612 14.358 24.5837C13.8927 24.792 13.5256 25.066 13.2464 25.2743L13.2226 25.292C12.9225 25.5158 12.7145 25.6665 12.4661 25.7777C12.2364 25.8805 11.9401 25.9613 11.4934 25.9613C11.0468 25.9613 10.7503 25.8805 10.5207 25.7777C10.2723 25.6665 10.0641 25.5157 9.76423 25.292L9.7358 25.2708C9.45732 25.063 9.09268 24.7908 8.63011 24.5837C8.2778 24.426 7.88585 24.3121 7.43284 24.2591L6.25926 21.5121H25.4559ZM17.7164 9.17746C19.7842 11.319 21.7922 14.6373 21.7713 19.5121H14.6474V6.70481C15.4946 7.22811 16.6155 8.03731 17.7164 9.17746Z" fill="black"/>
</svg>
