<?xml version="1.0" encoding="UTF-8"?>
<svg id="Capa_1" xmlns="http://www.w3.org/2000/svg" version="1.1" viewBox="0 0 32 32">
  <!-- Generator: Adobe Illustrator 30.0.0, SVG Export Plug-In . SVG Version: 2.1.1 Build 123)  -->
  <defs>
    <style>
      .st0 {
        fill-rule: evenodd;
      }
    </style>
  </defs>
  <path class="st0" d="M28.7,13.88c-.14-.8-.41-1.78-.74-3.01l-.69-2.56c-.27-1-.48-1.77-.85-2.39l-.18-.27c-.46-.6-1.07-1.07-1.76-1.35-.76-.31-1.64-.31-2.82-.31h-5.89c-.38,0-.66,0-.95.04-.27.04-.53.1-.78.19-.28.1-.54.23-.89.4l-2.09,1.06s-.03-.08-.05-.11c-.28-.55-.73-1.01-1.28-1.28-.36-.18-.73-.24-1.1-.27-.36-.03-.79-.03-1.28-.03h-.2c-.5,0-.93,0-1.28.03-.37.03-.74.09-1.1.27-.55.28-1,.73-1.28,1.28-.18.36-.25.73-.27,1.1-.03.34-.03.75-.03,1.23v9.5c0,.47,0,.89.03,1.23.03.37.1.74.27,1.1.28.55.73,1,1.28,1.28.36.18.73.25,1.1.27.34.03.75.03,1.23.03h.31c.47,0,.89,0,1.23-.03.37-.03.74-.1,1.1-.27.43-.21.8-.53,1.07-.92.04.04.09.09.14.13.43.43.9,1.06,1.4,1.8.98,1.46,1.92,3.22,2.49,4.32l.04.08c.16.32.34.66.61.93l.2.17c.21.16.46.29.7.37.37.12.71.12,1.01.12h.06c.29,0,.64-.02.93-.08,1.25-.26,2.29-1.16,2.71-2.74.37-1.37.27-3.21-.42-5.61h.66c1.26,0,2.27,0,3.08-.07.82-.07,1.55-.22,2.18-.61,1.03-.62,1.78-1.6,2.11-2.76.2-.71.16-1.45.02-2.26ZM9.3,17.34c0,.53,0,.87-.02,1.12-.02.24-.05.33-.07.36-.08.17-.22.3-.39.39-.03.02-.12.05-.36.07-.26.02-.59.02-1.12.02h-.2c-.53,0-.87,0-1.12-.02-.24-.02-.33-.05-.36-.07-.17-.08-.3-.22-.39-.39-.02-.03-.05-.12-.07-.36-.02-.26-.02-.59-.02-1.12V7.96c0-.53,0-.87.02-1.12.02-.24.05-.33.07-.36.08-.17.22-.3.39-.39.03-.02.12-.05.36-.07.26-.02.59-.02,1.12-.02h.2c.53,0,.87,0,1.12.02.24.02.33.05.36.07.17.08.3.22.39.39.02.03.05.12.07.36.02.26.02.59.02,1.12v9.38ZM26.76,15.59c-.19.67-.62,1.23-1.22,1.59-.25.15-.62.27-1.32.33-.71.06-1.63.06-2.95.06h-1.4c-.08,0-.2,0-.31,0-.11,0-.34.04-.57.18-.28.17-.48.45-.56.77-.07.27-.02.49,0,.6.02.1.06.23.09.31.84,2.61.88,4.25.62,5.22-.24.89-.72,1.2-1.19,1.3-.1.02-.28.04-.54.04-.2,0-.29,0-.36,0-.05,0-.06,0-.07-.01-.03-.01-.1-.05-.13-.08,0-.01-.03-.04-.05-.08-.05-.08-.11-.2-.22-.41-.58-1.12-1.56-2.96-2.6-4.52-.52-.78-1.08-1.52-1.63-2.09-.28-.28-.58-.54-.89-.74-.05-.03-.1-.06-.16-.09,0-.18,0-.38,0-.58V7.81l2.7-1.37c.42-.21.55-.28.68-.32.13-.05.27-.08.41-.1.14-.02.28-.02.75-.02h5.61c1.47,0,1.92.02,2.27.16l.27.13c.26.15.48.34.66.58.23.3.36.73.75,2.15l.63,2.35c.34,1.27.58,2.17.71,2.87.12.69.11,1.08.03,1.36Z"/>
</svg>