<svg width="32" height="32" viewBox="0 0 32 32" fill="none" xmlns="http://www.w3.org/2000/svg">
<path d="M26.0731 11.0691C26.073 9.46407 25.5755 8.17612 24.7593 7.29956C23.9506 6.43119 22.755 5.88565 21.189 5.8855H10.8114C9.25096 5.8855 8.05533 6.43151 7.24495 7.30086C6.42739 8.17798 5.92735 9.46518 5.92725 11.0691V20.8477C5.92735 22.4529 6.42513 23.7408 7.24105 24.6173C8.04952 25.4856 9.2451 26.0313 10.8114 26.0313H21.1877C22.7546 26.0312 23.9505 25.4845 24.7593 24.616C25.5753 23.7394 26.073 22.4524 26.0731 20.8477V11.0691ZM28.0731 20.8477C28.073 22.8657 27.442 24.6699 26.2228 25.9792C24.9959 27.2967 23.2485 28.0312 21.1877 28.0313H10.8114C8.75081 28.0313 7.00405 27.2968 5.77751 25.9792C4.55859 24.6698 3.92735 22.8657 3.92725 20.8477V11.0691C3.92735 9.04988 4.56144 7.24512 5.78141 5.93628C7.00874 4.61973 8.75563 3.8855 10.8114 3.8855H21.189C23.2493 3.88565 24.9961 4.62017 26.2228 5.93758C27.4419 7.24696 28.073 9.05111 28.0731 11.0691V20.8477Z" fill="black"/>
<path d="M13.4981 9.46493C13.8886 9.07447 14.5217 9.0746 14.9122 9.46493C15.3027 9.85545 15.3027 10.4885 14.9122 10.879L11.1036 14.6876C10.7131 15.078 10.0801 15.0779 9.68953 14.6876L7.78459 12.7839C7.39401 12.3935 7.39426 11.7605 7.78459 11.3699C8.17495 10.9793 8.80802 10.9784 9.19865 11.3686L10.3966 12.5665L13.4981 9.46493Z" fill="black"/>
<path d="M13.4981 17.3087C13.8886 16.9182 14.5217 16.9184 14.9122 17.3087C15.3027 17.6992 15.3027 18.3322 14.9122 18.7227L11.1036 22.5313C10.7131 22.9217 10.0801 22.9217 9.68953 22.5313L7.78459 20.6277C7.39401 20.2373 7.39426 19.6042 7.78459 19.2136C8.17495 18.8231 8.80802 18.8221 9.19865 19.2123L10.3966 20.4102L13.4981 17.3087Z" fill="black"/>
<path d="M22.5082 11.0782C23.0605 11.0782 23.5082 11.5259 23.5082 12.0782C23.5082 12.6305 23.0605 13.0782 22.5082 13.0782H18.1215C17.5692 13.0782 17.1215 12.6305 17.1215 12.0782C17.1215 11.5259 17.5692 11.0782 18.1215 11.0782H22.5082Z" fill="black"/>
<path d="M22.5082 19.8282C23.0605 19.8282 23.5082 20.2759 23.5082 20.8282C23.5082 21.3805 23.0605 21.8282 22.5082 21.8282H18.1215C17.5692 21.8282 17.1215 21.3805 17.1215 20.8282C17.1215 20.2759 17.5692 19.8282 18.1215 19.8282H22.5082Z" fill="black"/>
</svg>
