<svg width="32" height="32" viewBox="0 0 32 32" fill="none" xmlns="http://www.w3.org/2000/svg">
<path d="M4.02344 20.8466V11.1539C4.02344 9.15061 4.65239 7.35941 5.86328 6.06014C7.08172 4.75306 8.81558 4.02369 10.8555 4.02368H13.5729C14.1252 4.02373 14.5729 4.47143 14.5729 5.02368C14.5729 5.57594 14.1252 6.02363 13.5729 6.02368H10.8555C9.31106 6.02369 8.12831 6.56364 7.32682 7.42342C6.51806 8.29102 6.02344 9.56572 6.02344 11.1539V20.8466C6.02344 22.436 6.51588 23.7101 7.32292 24.5771C8.12247 25.436 9.30487 25.9768 10.8555 25.9768H21.1419C22.693 25.9767 23.8758 25.4359 24.6758 24.5771C25.4833 23.71 25.9766 22.4359 25.9766 20.8466V18.7229C25.9768 18.1708 26.4244 17.7229 26.9766 17.7229C27.5285 17.7232 27.9764 18.171 27.9766 18.7229V20.8466C27.9766 22.849 27.35 24.6405 26.1393 25.9403C24.9213 27.2481 23.1868 27.9767 21.1419 27.9768H10.8555C8.81095 27.9768 7.07699 27.2481 5.85938 25.9403C4.64926 24.6404 4.02344 22.8488 4.02344 20.8466Z" fill="black"/>
<path d="M27.9761 10.9299C27.9761 11.4821 27.5282 11.9297 26.9761 11.9299C26.4238 11.9299 25.9761 11.4822 25.9761 10.9299V7.43774L18.4748 14.939C18.0843 15.3293 17.4512 15.3293 17.0607 14.939C16.6702 14.5486 16.6704 13.9155 17.0607 13.525L24.562 6.02368H21.0698C20.5175 6.02368 20.0698 5.57597 20.0698 5.02368C20.0698 4.4714 20.5175 4.02368 21.0698 4.02368H26.9761C27.5282 4.02388 27.9761 4.47152 27.9761 5.02368V10.9299Z" fill="black"/>
</svg>
