<svg width="32" height="32" viewBox="0 0 32 32" fill="none" xmlns="http://www.w3.org/2000/svg">
<path d="M4.66699 13.9859C4.66699 12.2224 6.09835 10.7906 7.86361 10.7906C8.51983 10.7904 9.59719 10.5093 10.374 9.663C10.6157 9.39969 10.7995 9.05321 10.9313 8.79582C11.0874 8.49093 11.2074 8.23371 11.3662 7.94946C11.6837 7.38144 11.9805 7.04681 12.3167 6.913C12.5068 6.83737 12.9689 6.74548 13.6852 6.67863C14.3655 6.61514 15.1788 6.58228 16.0003 6.58228C16.8218 6.58228 17.635 6.61516 18.3154 6.67863C18.8533 6.72882 19.2485 6.79327 19.4925 6.85441L19.6852 6.913C20.0212 7.04673 20.3173 7.38149 20.6344 7.94946C20.7931 8.23372 20.9133 8.49084 21.0693 8.79582C21.201 9.05322 21.3849 9.39963 21.6266 9.663C22.4043 10.5083 23.4816 10.7904 24.137 10.7906C25.9023 10.7906 27.3337 12.2224 27.3337 13.9859V21.7125C27.3335 24.2668 25.2627 26.3386 22.7074 26.3388H9.29329C6.73915 26.3386 4.66711 24.2666 4.66699 21.7125V13.9859ZM2.66699 21.7125C2.6671 25.3712 5.63458 28.3386 9.29329 28.3388H22.7074C26.3676 28.3386 29.3335 25.3711 29.3337 21.7125V13.9859C29.3337 11.1174 27.0065 8.79061 24.137 8.79061C24.056 8.79049 23.8746 8.768 23.6605 8.68384C23.4521 8.60187 23.2535 8.47763 23.0993 8.31014L23.016 8.18774C22.9754 8.12052 22.9204 8.02327 22.8493 7.88436C22.7314 7.65394 22.5615 7.29832 22.3805 6.9742C22.018 6.32484 21.4355 5.4572 20.4248 5.05493C19.9414 4.8627 19.2213 4.75489 18.5016 4.68774C17.7459 4.61724 16.8689 4.58228 16.0003 4.58228C15.1318 4.58228 14.2545 4.61724 13.499 4.68774C12.7798 4.75488 12.0603 4.86264 11.5771 5.05493C10.5667 5.45712 9.9843 6.32489 9.62142 6.9742C9.44019 7.2985 9.2694 7.65386 9.15137 7.88436C9.00972 8.16097 8.93525 8.2729 8.90137 8.31014C8.74802 8.47723 8.54978 8.6019 8.34147 8.68384C8.12757 8.76797 7.94561 8.79049 7.86361 8.79061C4.9942 8.79061 2.66699 11.1174 2.66699 13.9859V21.7125Z" fill="black"/>
<path d="M8.66154 11.9159C7.92516 11.9159 7.32821 12.5128 7.32821 13.2492C7.32821 13.9856 7.92516 14.5825 8.66154 14.5825H8.67326C9.40964 14.5825 10.0066 13.9856 10.0066 13.2492C10.0066 12.5128 9.40964 11.9159 8.67326 11.9159H8.66154Z" fill="black"/>
<path d="M12.7615 18.0862C12.7617 16.2973 14.2122 14.8479 16.0011 14.8479C17.7899 14.8481 19.2392 16.2974 19.2394 18.0862C19.2394 19.8751 17.79 21.3255 16.0011 21.3257C14.2121 21.3257 12.7615 19.8752 12.7615 18.0862ZM10.7615 18.0862C10.7615 20.9798 13.1075 23.3257 16.0011 23.3257C18.8946 23.3255 21.2394 20.9796 21.2394 18.0862C21.2392 15.1928 18.8944 12.8481 16.0011 12.8479C13.1076 12.8479 10.7617 15.1927 10.7615 18.0862Z" fill="black"/>
</svg>
