<svg width="32" height="32" viewBox="0 0 32 32" fill="none" xmlns="http://www.w3.org/2000/svg">
<path d="M21.3836 16.5847C21.9358 16.5847 22.3836 17.0324 22.3836 17.5847C22.3836 18.1369 21.9358 18.5847 21.3836 18.5847C20.8313 18.5847 20.3718 18.1369 20.3718 17.5847C20.3718 17.0324 20.8313 16.5847 21.3836 16.5847Z" fill="black"/>
<path d="M16.018 16.5847C16.5703 16.5847 17.018 17.0324 17.018 17.5847C17.018 18.1369 16.5703 18.5847 16.018 18.5847C15.4657 18.5847 15.0063 18.1369 15.0063 17.5847C15.0063 17.0324 15.4657 16.5847 16.018 16.5847Z" fill="black"/>
<path d="M10.6411 16.5847C11.1933 16.5847 11.6411 17.0324 11.6411 17.5847C11.6411 18.1369 11.1933 18.5847 10.6411 18.5847C10.0888 18.5847 9.62935 18.1369 9.62935 17.5847C9.62935 17.0324 10.0888 16.5847 10.6411 16.5847Z" fill="black"/>
<path d="M21.3836 21.2839C21.9358 21.2839 22.3836 21.7317 22.3836 22.2839C22.3836 22.8362 21.9358 23.2839 21.3836 23.2839C20.8313 23.2839 20.3718 22.8362 20.3718 22.2839C20.3718 21.7317 20.8313 21.2839 21.3836 21.2839Z" fill="black"/>
<path d="M16.018 21.2839C16.5703 21.2839 17.018 21.7317 17.018 22.2839C17.018 22.8362 16.5703 23.2839 16.018 23.2839C15.4657 23.2839 15.0063 22.8362 15.0063 22.2839C15.0063 21.7317 15.4657 21.2839 16.018 21.2839Z" fill="black"/>
<path d="M10.6411 21.2839C11.1933 21.2839 11.6411 21.7317 11.6411 22.2839C11.6411 22.8362 11.1933 23.2839 10.6411 23.2839C10.0888 23.2839 9.62935 22.8362 9.62935 22.2839C9.62935 21.7317 10.0888 21.2839 10.6411 21.2839Z" fill="black"/>
<path fill-rule="evenodd" clip-rule="evenodd" d="M22.3836 17.5847C22.3836 17.0324 21.9358 16.5847 21.3836 16.5847C20.8313 16.5847 20.3718 17.0324 20.3718 17.5847C20.3718 18.1369 20.8313 18.5847 21.3836 18.5847C21.9358 18.5847 22.3836 18.1369 22.3836 17.5847ZM17.018 17.5847C17.018 17.0324 16.5703 16.5847 16.018 16.5847C15.4657 16.5847 15.0063 17.0324 15.0063 17.5847C15.0063 18.1369 15.4657 18.5847 16.018 18.5847C16.5703 18.5847 17.018 18.1369 17.018 17.5847ZM11.6411 17.5847C11.6411 17.0324 11.1933 16.5847 10.6411 16.5847C10.0888 16.5847 9.62935 17.0324 9.62935 17.5847C9.62935 18.1369 10.0888 18.5847 10.6411 18.5847C11.1933 18.5847 11.6411 18.1369 11.6411 17.5847ZM22.3836 22.2839C22.3836 21.7317 21.9358 21.2839 21.3836 21.2839C20.8313 21.2839 20.3718 21.7317 20.3718 22.2839C20.3718 22.8362 20.8313 23.2839 21.3836 23.2839C21.9358 23.2839 22.3836 22.8362 22.3836 22.2839ZM17.018 22.2839C17.018 21.7317 16.5703 21.2839 16.018 21.2839C15.4657 21.2839 15.0063 21.7317 15.0063 22.2839C15.0063 22.8362 15.4657 23.2839 16.018 23.2839C16.5703 23.2839 17.018 22.8362 17.018 22.2839ZM11.6411 22.2839C11.6411 21.7317 11.1933 21.2839 10.6411 21.2839C10.0888 21.2839 9.62935 21.7317 9.62935 22.2839C9.62935 22.8362 10.0888 23.2839 10.6411 23.2839C11.1933 23.2839 11.6411 22.8362 11.6411 22.2839Z" fill="black"/>
<path fill-rule="evenodd" clip-rule="evenodd" d="M10.1223 4.84654C8.48463 4.97348 7.05097 5.51958 5.98145 6.53628C4.74089 7.71572 4.11816 9.40719 4.11816 11.4321V22.3748C4.11829 24.4234 4.73828 26.1371 5.97493 27.3358C7.20665 28.5296 8.92505 29.0908 10.8864 29.091H21.1143C23.0759 29.091 24.7928 28.5414 26.0244 27.3657C27.2631 26.183 27.8824 24.4894 27.8825 22.466V11.4321C27.8881 9.40925 27.2728 7.71801 26.0348 6.53758C24.9666 5.51931 23.5318 4.97311 21.8901 4.84641V3.90845C21.8901 3.35616 21.4424 2.90845 20.8901 2.90845C20.3378 2.90845 19.8901 3.35616 19.8901 3.90845V4.81753H12.1223V3.90845C12.1223 3.35616 11.6746 2.90845 11.1223 2.90845C10.57 2.90845 10.1223 3.35616 10.1223 3.90845V4.84654ZM20.8901 8.88761C20.3379 8.88761 19.8902 8.43986 19.8901 7.88761V6.81753H12.1223V7.88761C12.1223 8.43986 11.6746 8.88761 11.1223 8.88761C10.57 8.88761 10.1223 8.43986 10.1223 7.88761V6.85391C8.91254 6.97341 7.99629 7.38115 7.36035 7.9855C6.60439 8.70411 6.11816 9.82112 6.11816 11.4321V11.857H25.8825V11.4282C25.8873 9.81703 25.4065 8.70255 24.6546 7.9855C24.0212 7.38169 23.105 6.97313 21.8901 6.85372V7.88761C21.8901 8.43986 21.4424 8.88761 20.8901 8.88761ZM7.36686 25.8996C6.60713 25.1632 6.11829 24.0187 6.11816 22.3748V13.857H25.8825V22.466C25.8824 24.0783 25.3993 25.1981 24.6442 25.9191C23.882 26.6469 22.7144 27.091 21.1143 27.091H10.8864C9.29739 27.0908 8.13161 26.6408 7.36686 25.8996Z" fill="black"/>
</svg>
