<svg width="32" height="32" viewBox="0 0 32 32" fill="none" xmlns="http://www.w3.org/2000/svg">
<path d="M7.62418 20.763V19.5547C7.62419 17.2729 9.4746 15.4233 11.757 15.4232H19.2036C20.3784 15.4232 21.3329 14.4722 21.3377 13.2982L21.3416 12.0716C21.3463 10.8902 20.388 9.92992 19.2062 9.93229L16.1802 9.95052C15.6281 9.95346 15.1782 9.50783 15.175 8.95573C15.1718 8.40369 15.6165 7.95405 16.1685 7.95052L19.1984 7.93229C21.489 7.92775 23.3506 9.78856 23.3416 12.0794L23.3377 13.306C23.3282 15.5809 21.48 17.4232 19.2036 17.4232H11.757C10.5786 17.4233 9.62419 18.378 9.62418 19.5547V20.763C9.62441 21.94 10.5802 22.895 11.7583 22.8945L16.1841 22.888C16.7362 22.8873 17.1843 23.3347 17.1854 23.8867C17.1861 24.439 16.739 24.8873 16.1867 24.888L11.7609 24.8945C9.47858 24.8961 7.62441 23.0465 7.62418 20.763Z" fill="black"/>
<path d="M11.8467 8.26432C11.8467 7.05718 10.8673 6.07823 9.65918 6.07812C8.451 6.07812 7.47168 7.05712 7.47168 8.26432C7.47171 9.03272 7.9473 9.90897 8.62142 10.668C8.94368 11.0307 9.27592 11.325 9.54069 11.5208C9.5831 11.5522 9.62343 11.5786 9.65918 11.6029C9.69486 11.5786 9.73536 11.5521 9.77767 11.5208C10.0424 11.325 10.3735 11.0306 10.6956 10.668C11.37 9.90887 11.8466 9.03287 11.8467 8.26432ZM13.8467 8.26432C13.8466 9.76381 12.9835 11.1047 12.1917 11.9961C11.7809 12.4585 11.3471 12.8488 10.9665 13.1302C10.7775 13.2699 10.5862 13.3938 10.4053 13.4883C10.2727 13.5575 9.98613 13.6992 9.65918 13.6992C9.33215 13.6992 9.04569 13.5575 8.91309 13.4883C8.73218 13.3938 8.5409 13.2699 8.35189 13.1302C7.97129 12.8488 7.53742 12.4585 7.12663 11.9961C6.33483 11.1047 5.47171 9.76392 5.47168 8.26432C5.47168 5.95158 7.3474 4.07812 9.65918 4.07812C11.9709 4.07823 13.8467 5.95165 13.8467 8.26432Z" fill="black"/>
<path d="M8.66031 8.27734V8.23438C8.66031 7.68209 9.10803 7.23438 9.66031 7.23438C10.2126 7.23438 10.6603 7.68209 10.6603 8.23438V8.27734C10.6601 8.82946 10.2125 9.27734 9.66031 9.27734C9.10815 9.27734 8.66051 8.82946 8.66031 8.27734Z" fill="black"/>
<path d="M24.5294 22.4674C24.5294 21.2604 23.5499 20.2814 22.3419 20.2812C21.1338 20.2812 20.1544 21.2603 20.1544 22.4674C20.1544 23.2359 20.63 24.1121 21.3041 24.8711C21.6264 25.2339 21.9586 25.5295 22.2234 25.7253C22.2656 25.7565 22.3062 25.7818 22.3419 25.806C22.3775 25.7818 22.4181 25.7565 22.4604 25.7253C22.7252 25.5295 23.056 25.2339 23.3783 24.8711C24.0526 24.112 24.5293 23.236 24.5294 22.4674ZM26.5294 22.4674C26.5293 23.9673 25.6663 25.3091 24.8744 26.2005C24.4637 26.6629 24.0297 27.052 23.6492 27.3333C23.4602 27.4731 23.2689 27.5969 23.088 27.6914C22.9554 27.7606 22.6688 27.9023 22.3419 27.9023C22.0149 27.9023 21.7284 27.7606 21.5958 27.6914C21.4149 27.597 21.2236 27.473 21.0346 27.3333C20.6541 27.052 20.22 26.6628 19.8093 26.2005C19.0174 25.3091 18.1544 23.9673 18.1544 22.4674C18.1544 20.1548 20.0301 18.2812 22.3419 18.2812C24.6536 18.2814 26.5294 20.1549 26.5294 22.4674Z" fill="black"/>
<path d="M21.3405 22.4805V22.4375C21.3405 21.8852 21.7882 21.4375 22.3405 21.4375C22.8928 21.4375 23.3405 21.8852 23.3405 22.4375V22.4805C23.3403 23.0326 22.8927 23.4805 22.3405 23.4805C21.7883 23.4805 21.3406 23.0326 21.3405 22.4805Z" fill="black"/>
</svg>
