<svg width="32" height="32" viewBox="0 0 32 32" fill="none" xmlns="http://www.w3.org/2000/svg">
<path d="M12.0941 13.4975L14.5846 15.9885L12.0975 18.4756C11.7069 18.8661 11.707 19.4991 12.0975 19.8896C12.488 20.2802 13.121 20.2802 13.5115 19.8896L15.9985 17.4027L18.4887 19.8933C18.8792 20.2839 19.5122 20.2838 19.9027 19.8933C20.2932 19.5029 20.2932 18.8698 19.9027 18.4793L17.4126 15.9886L19.9009 13.5003C20.2914 13.1098 20.2914 12.4768 19.9009 12.0862C19.5103 11.6957 18.8773 11.6957 18.4868 12.0862L15.9986 14.5744L13.5082 12.0834C13.1177 11.693 12.4847 11.693 12.0941 12.0834C11.7036 12.4739 11.7037 13.107 12.0941 13.4975Z" fill="black"/>
<path d="M25.8499 16.0548C25.8499 10.5619 21.4126 6.12001 15.9528 6.11987C10.4929 6.11987 6.05566 10.5619 6.05566 16.0548C6.05566 21.5477 10.4929 25.9897 15.9528 25.9897C21.4126 25.9895 25.8499 21.5476 25.8499 16.0548ZM27.8343 16.6694C27.5155 22.9751 22.3177 27.9895 15.9528 27.9897L15.3408 27.974C9.05464 27.6546 4.05566 22.4404 4.05566 16.0548C4.05566 9.46331 9.38233 4.11987 15.9528 4.11987L16.5648 4.1355C22.8507 4.45516 27.8499 9.6693 27.8499 16.0548L27.8343 16.6694Z" fill="black"/>
</svg>
