<?xml version="1.0" encoding="UTF-8"?>
<svg id="Capa_1" xmlns="http://www.w3.org/2000/svg" version="1.1" viewBox="0 0 32 32">
  <!-- Generator: Adobe Illustrator 30.0.0, SVG Export Plug-In . SVG Version: 2.1.1 Build 123)  -->
  <defs>
    <style>
      .st0 {
        fill-rule: evenodd;
      }
    </style>
  </defs>
  <path class="st0" d="M11.6,15.92l-1-.06c-3.7-.21-6.79,2.79-6.69,6.5l.03,1.18c.02.55.48.99,1.03.97.55-.02.99-.48.97-1.03l-.03-1.18c-.07-2.54,2.04-4.59,4.58-4.45l1,.06c.55.03,1.02-.39,1.06-.94.03-.55-.39-1.02-.94-1.05Z"/>
  <path class="st0" d="M26.19,17.44h-3.14v-3.37c0-1.7-2.17-2.4-3.17-1.03l-5.06,6.96c-.84,1.16-.01,2.78,1.42,2.78h3.14v3.37c0,1.69,2.17,2.4,3.17,1.03l5.06-6.96c.84-1.16.01-2.78-1.42-2.78ZM21.38,25.39v-3.61c0-.55-.45-1-1-1h-3.65l4.32-5.95v3.61c0,.55.45,1,1,1h3.65l-4.32,5.95Z"/>
  <path class="st0" d="M5.49,10.16h.59c.31,2.73,2.64,4.85,5.44,4.85,2.8,0,5.13-2.12,5.44-4.85h.59c.55,0,1-.45,1-1s-.45-1-1-1h-.73c-.61-2.36-2.76-4.1-5.3-4.1-2.54,0-4.69,1.74-5.3,4.1h-.73c-.55,0-1,.45-1,1s.45,1,1,1ZM13.83,6.94c.38.34.68.75.88,1.22h-.88v-1.22ZM11.24,6.06c.09,0,.19-.01.29-.01.11,0,.21,0,.31.01v2.09h-.6v-2.09ZM9.24,6.91v1.24h-.91c.21-.48.52-.9.91-1.24ZM14.94,10.16c-.3,1.62-1.72,2.85-3.42,2.85-1.7,0-3.12-1.23-3.42-2.85h6.84Z"/>
</svg>