<?xml version="1.0" encoding="UTF-8"?>
<svg id="Capa_1" xmlns="http://www.w3.org/2000/svg" version="1.1" viewBox="0 0 32 32">
  <!-- Generator: Adobe Illustrator 30.0.0, SVG Export Plug-In . SVG Version: 2.1.1 Build 123)  -->
  <defs>
    <style>
      .st0 {
        fill-rule: evenodd;
      }
    </style>
  </defs>
  <path class="st0" d="M21.77,8.7c-.55,0-1,.45-1,1v3.95c0,.55.45,1,1,1s1-.45,1-1v-3.95c0-.55-.45-1-1-1Z"/>
  <path class="st0" d="M24.37,10.69c-.55,0-1,.45-1,1v1.97c0,.55.45,1,1,1s1-.45,1-1v-1.97c0-.55-.45-1-1-1Z"/>
  <path class="st0" d="M19.27,10.69c-.55,0-1,.45-1,1v1.97c0,.55.45,1,1,1s1-.45,1-1v-1.97c0-.55-.45-1-1-1Z"/>
  <path class="st0" d="M23.5,3.99h-15c-2.63,0-4.76,2.13-4.76,4.76v9.39c0,2.63,2.13,4.76,4.76,4.76h3.17l-1.17,2.02c-.78,1.37.2,3.08,1.79,3.08h7.42c1.58,0,2.56-1.71,1.79-3.07l-1.16-2.03h3.15c2.63,0,4.76-2.13,4.76-4.76v-9.39c0-2.63-2.13-4.76-4.76-4.76ZM19.76,25.98s-.02.02-.03.03c0,0,0,0-.02,0h-7.42s-.03,0-.03,0c0,0-.01-.01-.02-.02,0-.01,0-.02,0-.03v-.03s1.75-3.01,1.75-3.01h4.06l1.72,3.02s0,.01,0,.02c0,0,0,.02-.01.03ZM26.26,18.14c0,1.53-1.24,2.76-2.76,2.76h-15c-1.53,0-2.76-1.24-2.76-2.76v-.31h20.52v.31ZM26.26,15.83H5.98l3.57-3.63,2.04,2.08c.19.19.45.3.71.3.27,0,.53-.11.71-.3l4.57-4.66c.39-.39.38-1.03-.02-1.41-.39-.39-1.03-.38-1.41.01l-3.85,3.93-2.04-2.08c-.19-.19-.44-.3-.71-.3-.27,0-.53.11-.71.3l-3.1,3.15v-4.46c0-1.52,1.24-2.76,2.76-2.76h15c1.53,0,2.76,1.24,2.76,2.76v7.07Z"/>
</svg>