<svg width="32" height="32" viewBox="0 0 32 32" fill="none" xmlns="http://www.w3.org/2000/svg">
<path fill-rule="evenodd" clip-rule="evenodd" d="M12.0612 4.0625C12.0229 4.0625 11.9756 4.06452 11.9381 4.06771L12.0612 4.0625ZM13.6107 4.0625L13.7389 4.06858C13.6967 4.06456 13.6539 4.0625 13.6107 4.0625ZM8.95758 28.0221C9.00485 28.0272 9.05839 28.0301 9.10713 28.0301L8.95758 28.0221Z" fill="black"/>
<path fill-rule="evenodd" clip-rule="evenodd" d="M8.95758 28.0221C8.4436 27.9672 8.02913 27.6221 7.85736 27.1628C8.02862 27.6206 8.44607 27.9654 8.95758 28.0221Z" fill="black"/>
<path fill-rule="evenodd" clip-rule="evenodd" d="M20.1573 4.0625L20.2711 4.06731C20.2335 4.06412 20.1956 4.0625 20.1573 4.0625ZM18.6079 4.0625L18.4797 4.06858C18.5218 4.06456 18.5646 4.0625 18.6079 4.0625ZM23.1114 28.0301C23.1601 28.0301 23.2137 28.0272 23.2609 28.0221L23.1114 28.0301Z" fill="black"/>
<path fill-rule="evenodd" clip-rule="evenodd" d="M17.3344 4.99953C17.4901 4.49918 17.9415 4.12357 18.4797 4.06858C17.9374 4.12028 17.4908 4.49654 17.3344 4.99953ZM23.2609 28.0221C23.7488 27.968 24.1511 27.6519 24.3359 27.2256C24.1505 27.6533 23.7513 27.9697 23.2609 28.0221ZM21.1466 4.50182C20.9269 4.25914 20.6115 4.09862 20.2711 4.06731C20.6153 4.09653 20.9252 4.25714 21.1466 4.50182Z" fill="black"/>
<path fill-rule="evenodd" clip-rule="evenodd" d="M14.9105 5.09734C14.7849 4.54865 14.3116 4.1271 13.7389 4.06858C14.3157 4.12358 14.7844 4.54589 14.9105 5.09734ZM11.9381 4.06771C11.5976 4.09902 11.2913 4.25916 11.072 4.50182C11.2929 4.25715 11.5938 4.09693 11.9381 4.06771Z" fill="black"/>
<path d="M8.97002 17.9792L7.78643 26.5136C7.76559 26.6639 7.77055 26.8111 7.79769 26.9512C7.90661 27.5131 8.36724 27.9591 8.95758 28.0221L9.10713 28.0301H13.2575C13.9852 28.0301 14.5786 27.4465 14.5906 26.7188L14.7355 17.9792H8.97002Z" fill="black"/>
<path d="M12.0612 4.0625L11.9381 4.06771C11.5908 4.09965 11.2791 4.26561 11.0589 4.51647C10.8918 4.70672 10.7775 4.94591 10.7405 5.21268L9.83319 11.7552H14.8387L14.9438 5.41794C14.9456 5.31109 14.9326 5.19727 14.9105 5.09734C14.7883 4.5439 14.315 4.12745 13.7389 4.06858L13.6107 4.0625H12.0612Z" fill="black"/>
<path d="M21.1596 4.51647C20.9375 4.26355 20.6221 4.09711 20.2711 4.06731L20.1573 4.0625H18.6079L18.4797 4.06858C17.9006 4.12379 17.4306 4.54914 17.3066 5.10371C17.284 5.20465 17.2729 5.30988 17.2747 5.41794L17.3798 11.7552H22.3853L21.478 5.21268C21.441 4.94591 21.3267 4.70672 21.1596 4.51647Z" fill="black"/>
<path fill-rule="evenodd" clip-rule="evenodd" d="M17.483 17.9792L17.6279 26.7188C17.64 27.4465 18.2333 28.0301 18.9611 28.0301H23.1114L23.2609 28.0221C23.8094 27.9635 24.2451 27.5745 24.3923 27.069C24.4431 26.8948 24.4589 26.7067 24.4321 26.5136L23.2485 17.9792H17.483Z" fill="black"/>
<path fill-rule="evenodd" clip-rule="evenodd" d="M7.29014 15.9792H24.6425V18.5768C24.6425 19.1291 25.0902 19.5768 25.6425 19.5768C26.1947 19.5768 26.6425 19.1291 26.6425 18.5768V15.9792C27.0949 15.9792 27.4617 15.6124 27.4617 15.1599V14.6554C27.4617 13.9244 26.8691 13.3317 26.138 13.3317H5.64501C4.91394 13.3317 4.32129 13.9244 4.32129 14.6554V15.0103C4.32129 15.5454 4.75506 15.9792 5.29014 15.9792L5.29014 18.5768C5.29014 19.1291 5.73786 19.5768 6.29014 19.5768C6.84243 19.5768 7.29014 19.1291 7.29014 18.5768L7.29014 15.9792Z" fill="black"/>
</svg>
