<svg width="32" height="32" viewBox="0 0 32 32" fill="none" xmlns="http://www.w3.org/2000/svg">
<path d="M4.65332 15.9995C4.65364 11.799 8.05955 8.39404 12.2601 8.39404C15.7118 8.39428 18.6286 10.695 19.557 13.8485C19.6364 14.118 19.8265 14.3413 20.0791 14.4644C20.3316 14.5873 20.624 14.599 20.8851 14.4956C21.4227 14.2823 22.0096 14.1636 22.626 14.1636C25.2336 14.1636 27.3472 16.2777 27.3473 18.8849C27.3473 21.4922 25.2337 23.6063 22.626 23.6063H12.2601C8.05936 23.6063 4.65332 20.2002 4.65332 15.9995ZM2.65332 15.9995C2.65332 21.3048 6.95479 25.6063 12.2601 25.6063H22.626C26.3382 25.6063 29.3473 22.5968 29.3473 18.8849C29.3472 15.173 26.3381 12.1636 22.626 12.1636C22.1155 12.1636 21.6179 12.2219 21.139 12.3302C19.6974 8.84656 16.2664 6.39426 12.2601 6.39404C6.95499 6.39404 2.65364 10.6945 2.65332 15.9995Z" fill="black"/>
</svg>
