<svg width="32" height="32" viewBox="0 0 32 32" fill="none" xmlns="http://www.w3.org/2000/svg">
<path d="M8.11198 23.4167C8.11197 22.4732 7.34709 21.7083 6.40365 21.7083C5.4602 21.7083 4.69532 22.4732 4.69531 23.4167C4.69531 24.3602 5.4602 25.125 6.40365 25.125C7.3471 25.125 8.11198 24.3602 8.11198 23.4167ZM10.112 23.4167C10.112 25.4647 8.45171 27.125 6.40365 27.125C4.35559 27.125 2.69531 25.4647 2.69531 23.4167C2.69533 21.3687 4.35559 19.7083 6.40365 19.7083C8.45171 19.7083 10.112 21.3687 10.112 23.4167Z" fill="black"/>
<path d="M19.696 4.875C20.7866 4.875 21.7362 5.62026 21.9954 6.67969L25.1853 19.7309C25.3205 19.716 25.4578 19.7083 25.597 19.7083C27.6451 19.7083 29.3053 21.3687 29.3053 23.4167C29.3053 25.4646 27.6451 27.125 25.597 27.125C23.549 27.125 21.8887 25.4647 21.8887 23.4167C21.8887 22.23 22.4461 21.1735 23.3134 20.4947L22.9227 18.8963C21.3904 19.7926 20.3721 21.4279 20.372 23.3203C20.372 23.8724 19.924 24.32 19.372 24.3203H12.6285C12.0762 24.3203 11.6285 23.8726 11.6285 23.3203C11.6283 20.4743 9.32214 18.1875 6.46183 18.1875C5.90955 18.1875 5.46183 17.7398 5.46183 17.1875C5.46183 16.6352 5.90955 16.1875 6.46183 16.1875C10.074 16.1875 13.0695 18.8362 13.5569 22.3203H18.4423C18.7804 19.9084 20.3232 17.9085 22.4331 16.8933L20.0527 7.15495C20.0125 6.99069 19.8651 6.875 19.696 6.875H17.0605C16.5083 6.875 16.0605 6.42728 16.0605 5.875C16.0605 5.32272 16.5083 4.875 17.0605 4.875H19.696ZM27.3053 23.4167C27.3053 22.4731 26.5404 21.7083 25.597 21.7083C24.6536 21.7083 23.8887 22.4732 23.8887 23.4167C23.8887 24.3601 24.6535 25.125 25.597 25.125C26.5404 25.125 27.3053 24.3602 27.3053 23.4167Z" fill="black"/>
</svg>
