<?xml version="1.0" encoding="UTF-8"?>
<svg id="Capa_1" xmlns="http://www.w3.org/2000/svg" version="1.1" viewBox="0 0 32 32">
  <!-- Generator: Adobe Illustrator 30.0.0, SVG Export Plug-In . SVG Version: 2.1.1 Build 123)  -->
  <defs>
    <style>
      .st0 {
        fill-rule: evenodd;
      }
    </style>
  </defs>
  <path class="st0" d="M26.86,7.53c-.13-.51-.37-.85-.67-1.16l-.24-.21c-.64-.54-1.89-1.32-3.45-2-1.8-.79-4.14-1.49-6.62-1.49s-4.81.7-6.62,1.49c-1.77.77-3.16,1.69-3.68,2.22-.3.3-.54.65-.67,1.16-.11.44-.14.97-.15,1.62,0,.67.02,1.59.04,2.83.02,1.25.04,2.85.04,4.94,0,4.5,1.89,7.63,4.23,9.61,2.29,1.95,5.03,2.8,6.81,2.8s4.52-.86,6.81-2.8c2.33-1.98,4.23-5.11,4.23-9.61,0-2.09.02-3.69.04-4.94.02-1.24.04-2.15.04-2.83,0-.66-.03-1.19-.15-1.62ZM24.97,11.94c-.02,1.26-.04,2.87-.04,4.98,0,3.88-1.6,6.46-3.52,8.09-1.96,1.67-4.25,2.33-5.52,2.33s-3.55-.66-5.52-2.33c-1.92-1.63-3.52-4.21-3.52-8.09,0-2.1-.02-3.72-.04-4.98-.02-1.26-.04-2.14-.04-2.78,0-.66.04-.96.08-1.14.03-.1.05-.14.15-.24l.14-.13c.42-.35,1.46-1.03,2.93-1.67,1.64-.72,3.7-1.32,5.82-1.32s4.17.6,5.82,1.32c1.67.73,2.79,1.52,3.07,1.8.1.1.12.14.15.24.04.17.08.48.08,1.14,0,.64-.02,1.51-.04,2.78Z"/>
  <path class="st0" d="M20.78,14.76h-.11l-1.1-2.07-.07-.11v-.57c0-.37-.13-.72-.36-1l-.1-.12-.12-.1c-.24-.2-.53-.32-.84-.36h-.16s-6.92,0-6.92,0c-.62,0-1.22.25-1.66.69-.44.44-.69,1.04-.69,1.66v2.98c0,.06,0,.11,0,.16v2.25c0,.62.25,1.22.69,1.66.4.4.94.64,1.5.68.14.22.31.42.52.58.39.3.86.47,1.36.47s.97-.17,1.36-.47c.27-.21.48-.47.62-.77h2.65c.15.31.37.58.65.79.39.29.86.45,1.34.45s.96-.16,1.34-.45c.24-.18.43-.4.58-.66.44-.09.85-.31,1.18-.64.44-.44.69-1.04.69-1.66v-1.05c0-.62-.25-1.22-.69-1.66-.44-.44-1.04-.69-1.66-.69ZM16.84,13.78h1.04l.52.98h-1.56v-.98ZM10.65,12.78c0-.09.04-.18.1-.25.07-.07.16-.1.25-.1h4.1c-.06.08-.1.17-.14.26-.07.18-.11.37-.11.57v1.5h-4.2v-1.98ZM12.93,19.36s0,.02,0,.03c-.02.06-.05.11-.09.14-.04.03-.08.04-.12.04s-.08-.01-.12-.04c-.04-.03-.07-.08-.09-.14v-.05c0-.06.03-.12.07-.15.04-.04.09-.06.14-.06.04,0,.09.02.14.06.04.04.06.09.07.15,0,0,0,.01,0,.02ZM19.57,19.36v.02s0,.02-.01.03c0,.02-.02.04-.03.06l-.05.05s-.09.04-.14.04c-.03,0-.05,0-.07-.01l-.06-.03s-.06-.07-.08-.11c0,0,0-.01,0-.02,0,0,0-.02,0-.03,0,0,0-.02,0-.02,0,0,0-.02,0-.02v-.03s.03-.08.06-.1c.04-.04.1-.07.16-.07.06,0,.12.02.16.07.04.04.06.1.06.15,0,0,0,.01,0,.02ZM21.14,18.03c-.07-.09-.14-.17-.22-.25-.42-.41-.98-.65-1.57-.65-.59,0-1.15.23-1.57.65-.16.16-.3.35-.4.55h-2.7c-.11-.21-.26-.41-.43-.58-.41-.39-.95-.62-1.52-.62-.57,0-1.12.22-1.53.62-.19.19-.35.4-.46.64-.05-.06-.07-.14-.07-.22v-1.41h10.13c.09,0,.18.04.25.1.07.07.1.16.1.25v.92Z"/>
</svg>