<svg width="32" height="32" viewBox="0 0 32 32" fill="none" xmlns="http://www.w3.org/2000/svg">
<path d="M23.4501 16.1521C23.3106 15.3848 23.0432 14.6524 22.6479 13.9781C22.2759 13.3271 21.6947 12.6529 21.0669 12.1297C20.6833 11.8391 20.2182 11.6996 19.7532 11.7577C19.5207 11.2811 19.1022 10.8742 18.6139 10.6649C16.905 10.0371 14.9287 10.0371 13.2082 10.6533C13.1268 10.6765 13.0454 10.723 12.9524 10.7695C12.5339 10.9788 12.1968 11.3392 12.0107 11.7693C11.5341 11.7461 11.0342 11.8972 10.639 12.1878C10.0344 12.6994 9.52292 13.3039 9.13929 13.9665C8.74402 14.664 8.47664 15.3848 8.33714 16.1986C8.32039 16.2963 8.31389 16.3497 8.31389 16.4195C8.29063 17.1402 8.65102 17.8029 9.27879 18.1633C9.6043 18.3493 9.96469 18.4307 10.3251 18.419H13.9057C14.0568 18.419 14.3591 18.419 14.6846 18.419H15.0682V21.802H16.7306V18.419H17.1143C17.4398 18.419 17.742 18.419 17.8815 18.419H21.4622C21.8458 18.4423 22.2062 18.3609 22.5201 18.1749C23.1362 17.8145 23.5082 17.1402 23.4733 16.4311C23.4733 16.3381 23.4733 16.2335 23.4501 16.1521ZM20.0904 13.4666C20.5438 13.8503 20.9274 14.3037 21.218 14.8152C21.5203 15.3383 21.7179 15.8847 21.8109 16.466C21.8109 16.5706 21.7644 16.6636 21.6714 16.7217C21.6249 16.745 21.5831 16.745 21.497 16.745H17.8467L19.6835 13.548C19.7067 13.5015 19.7416 13.4666 19.7765 13.4434C19.823 13.4201 19.8695 13.4085 19.916 13.4085C19.9741 13.4085 20.0439 13.4318 20.0904 13.4666ZM18.2884 12.5831C18.2884 12.6645 18.2652 12.7342 18.1954 12.8272L15.8936 16.7566L13.5685 12.804C13.522 12.7459 13.4988 12.6645 13.4988 12.5831C13.4988 12.4436 13.5918 12.3041 13.6964 12.246C14.4172 11.9786 15.138 11.8391 15.8936 11.8391C16.6493 11.8391 17.3933 11.967 18.0443 12.1995C18.1838 12.2808 18.2884 12.4203 18.2884 12.5831ZM10.1042 16.7334C10.0228 16.6868 9.96469 16.5706 9.96469 16.5008C10.0809 15.8731 10.2786 15.3151 10.5692 14.8152C10.8715 14.292 11.2435 13.8386 11.6504 13.5015L11.7085 13.4666C11.7085 13.4666 11.8015 13.4201 11.8596 13.4201C11.9061 13.4201 11.9526 13.4201 11.9875 13.455C12.0456 13.4899 12.0805 13.5248 12.1154 13.6061L13.9289 16.7566H10.2553C10.2553 16.7566 10.1507 16.7566 10.1042 16.7334Z" fill="black"/>
<path d="M25.9793 15.9999C25.9793 10.4886 21.5115 6.02075 16.0002 6.02075C10.4888 6.02075 6.021 10.4886 6.021 15.9999C6.021 21.5113 10.4888 25.9791 16.0002 25.9791C21.5115 25.9791 25.9793 21.5113 25.9793 15.9999ZM27.9793 15.9999C27.9793 22.6158 22.6161 27.9791 16.0002 27.9791C9.38425 27.9791 4.021 22.6158 4.021 15.9999C4.021 9.38401 9.38425 4.02075 16.0002 4.02075C22.6161 4.02075 27.9793 9.38401 27.9793 15.9999Z" fill="black"/>
</svg>
