<?xml version="1.0" encoding="UTF-8"?>
<svg id="Capa_1" xmlns="http://www.w3.org/2000/svg" version="1.1" viewBox="0 0 32 32">
  <!-- Generator: Adobe Illustrator 30.0.0, SVG Export Plug-In . SVG Version: 2.1.1 Build 123)  -->
  <defs>
    <style>
      .st0 {
        fill-rule: evenodd;
      }
    </style>
  </defs>
  <path class="st0" d="M11.6,15.92l-1-.06c-3.7-.21-6.79,2.79-6.69,6.5l.03,1.18c.02.55.48.99,1.03.97.55-.02.99-.48.97-1.03l-.03-1.18c-.07-2.54,2.04-4.59,4.58-4.45l1,.06c.55.03,1.02-.39,1.06-.94.03-.55-.39-1.02-.94-1.05Z"/>
  <path class="st0" d="M25.62,16.01h-.27s-6.68-.01-6.68-.01c-1.47,0-2.67,1.19-2.67,2.67v6.95c.15,1.34,1.29,2.39,2.67,2.39h6.95c1.26-.14,2.25-1.14,2.38-2.39v-.27s.01-6.68.01-6.68c0-1.38-1.05-2.52-2.39-2.65ZM20.97,26.01h-2.3c-.37,0-.67-.3-.67-.67v-2.28h2.97v2.95ZM20.97,21.06h-2.97v-2.4c0-.37.3-.67.67-.67h2.3v3.06ZM26.01,25.34c0,.37-.3.67-.67.67h-2.38v-2.95h3.04v2.28ZM26.01,21.06h-3.04v-3.06h2.38c.37,0,.67.3.67.67v2.4Z"/>
  <path class="st0" d="M17.55,10.16c.55,0,1-.45,1-1s-.45-1-1-1h-.73c-.61-2.36-2.76-4.1-5.3-4.1-2.54,0-4.69,1.74-5.3,4.1h-.73c-.55,0-1,.45-1,1s.45,1,1,1h.59c.31,2.73,2.64,4.85,5.44,4.85,2.8,0,5.13-2.12,5.44-4.85h.59ZM13.83,6.94c.38.34.68.75.88,1.22h-.88v-1.22ZM11.24,6.06c.09,0,.19-.01.29-.01.11,0,.21,0,.31.01v2.09h-.6v-2.09ZM9.24,6.91v1.24h-.91c.21-.48.52-.9.91-1.24ZM11.52,13.01c-1.7,0-3.12-1.23-3.42-2.85h6.84c-.3,1.62-1.72,2.85-3.42,2.85Z"/>
</svg>