<svg width="32" height="32" viewBox="0 0 32 32" fill="none" xmlns="http://www.w3.org/2000/svg">
<path fill-rule="evenodd" clip-rule="evenodd" d="M15.8294 17.6879C15.0112 17.6822 14.2085 17.6356 13.4261 17.5516C14.2069 17.6353 15.0123 17.6821 15.8294 17.6879Z" fill="black"/>
<path d="M27.0204 19.282C27.5711 19.3235 27.9838 19.8043 27.9423 20.355L27.7183 23.3328C27.527 25.8609 25.4202 27.8158 22.885 27.8159H9.11676C6.66108 27.8156 4.60824 25.9813 4.30817 23.5685L4.28343 23.3328L4.05947 20.355C4.01799 19.8044 4.43081 19.3237 4.98135 19.282C5.53194 19.2406 6.01258 19.6534 6.05426 20.2039L6.27822 23.1818C6.39069 24.6676 7.62861 25.8156 9.11676 25.8159H22.885C24.3733 25.8158 25.6111 24.6677 25.7235 23.1818L25.9475 20.2039C25.9892 19.6534 26.4698 19.2406 27.0204 19.282Z" fill="black"/>
<path fill-rule="evenodd" clip-rule="evenodd" d="M4.52262 16.8089C7.37701 18.4798 11.0274 19.5198 15.0013 19.6692V21.7002C15.0016 22.2523 15.4492 22.7002 16.0013 22.7002C16.5535 22.7002 17.0011 22.2523 17.0013 21.7002V19.6687C20.9717 19.5177 24.6278 18.4783 27.4797 16.8089C27.7861 16.6295 27.9744 16.3007 27.9744 15.9456V11.8623C27.9742 9.30873 25.9167 7.23102 23.3547 7.23077H21.1123C20.8424 5.49659 19.3414 4.16821 17.5319 4.16821H14.4707C12.6612 4.16821 11.1602 5.49659 10.8902 7.23077H8.65934C6.10577 7.23105 4.02804 9.28844 4.02783 11.8506V15.9456C4.02783 16.3007 4.21616 16.6295 4.52262 16.8089ZM13.4261 17.5516C14.2085 17.6356 15.0112 17.6822 15.8294 17.6879C15.8867 17.6883 15.944 17.6885 16.0013 17.6885C19.661 17.6885 23.0143 16.8725 25.6559 15.5264C25.7632 15.4717 25.8694 15.4161 25.9744 15.3597V11.8623C25.9742 10.4048 24.8037 9.23102 23.3547 9.23077H8.65934C7.2018 9.23105 6.02804 10.4015 6.02783 11.8506V15.3597C8.0775 16.4621 10.5875 17.2375 13.353 17.5435C13.3774 17.5461 13.4017 17.5489 13.4261 17.5516ZM19.0558 7.23077C18.827 6.61095 18.2305 6.16821 17.5319 6.16821H14.4707C13.7721 6.16821 13.1756 6.61095 12.9468 7.23077H19.0558Z" fill="black"/>
</svg>
