<?xml version="1.0" encoding="UTF-8"?>
<svg id="Capa_1" xmlns="http://www.w3.org/2000/svg" version="1.1" viewBox="0 0 32 32">
  <!-- Generator: Adobe Illustrator 30.0.0, SVG Export Plug-In . SVG Version: 2.1.1 Build 123)  -->
  <defs>
    <style>
      .st0 {
        fill-rule: evenodd;
      }
    </style>
  </defs>
  <path class="st0" d="M12,24.5c-.47-.29-1.09-.15-1.38.32-.41.66-.61,1.42-.58,2.2.02.55.49.98,1.04.96.52-.02.93-.44.95-.94v-.24c.01-.32.1-.64.28-.91.29-.47.15-1.09-.32-1.38Z"/>
  <path class="st0" d="M7.51,20c-.29-.47-.91-.61-1.38-.32-.31.19-.67.29-1.04.27-.55-.03-1.02.39-1.06.94-.03.55.39,1.02.94,1.06.78.04,1.55-.15,2.21-.57.47-.29.61-.91.32-1.38Z"/>
  <path class="st0" d="M16.1,13.31c0,1.46,1.18,2.64,2.64,2.64,1.46,0,2.64-1.18,2.64-2.64,0-1.46-1.18-2.64-2.64-2.64-1.46,0-2.64,1.18-2.64,2.64ZM19.37,13.31c0,.35-.28.64-.64.64-.35,0-.64-.29-.64-.64,0-.35.28-.64.64-.64.35,0,.64.28.64.64Z"/>
  <path class="st0" d="M8.17,22.43l-1.28,1.27c-.39.39-.4,1.02,0,1.42.39.39,1.02.4,1.42,0l1.28-1.27c.39-.39.4-1.02,0-1.42-.39-.39-1.02-.39-1.41,0Z"/>
  <path class="st0" d="M27.3,5.24c-.1-.25-.3-.45-.55-.55-3.48-1.4-6.81-.33-9.15.97-1.18.66-2.15,1.39-2.83,1.96-.34.29-.61.53-.79.71-.09.09-.16.16-.21.21-.02.03-.04.05-.06.06l-.02.03-.02.03c-.09.11-.19.21-.28.32l-4.78.37c-.18.01-.35.07-.49.18l-.14.11-2.22,2.22c-.22.22-.32.53-.29.83.04.31.22.58.49.74,1.12.66,2.2,1.38,3.24,2.15-.37.81-.68,1.65-.94,2.5-.11.35-.01.74.25,1l4.41,4.41c.25.25.6.35.94.27.89-.21,1.75-.53,2.57-.95.78,1.04,1.5,2.12,2.16,3.24.16.27.43.44.74.48.31.04.61-.07.83-.28l2.2-2.21c.17-.17.27-.39.29-.63l.37-4.79c.11-.09.22-.19.33-.28.01-.01.03-.03.04-.04l.08-.08c.05-.05.12-.12.21-.22.18-.19.42-.46.71-.8.57-.68,1.3-1.67,1.96-2.86,1.3-2.35,2.37-5.68.96-9.1ZM8.06,12.38l1.06-1.06,2.62-.2c-.59.85-1.14,1.74-1.64,2.65-.67-.49-1.35-.95-2.04-1.39ZM13.91,21.66l-3.57-3.57c.14-.42.3-.83.47-1.23,1.57,1.32,3.02,2.77,4.34,4.34-.4.18-.82.34-1.24.46ZM20.67,22.89l-1.05,1.05c-.44-.69-.91-1.38-1.39-2.04.91-.5,1.79-1.05,2.65-1.64l-.21,2.63ZM24.59,13.37c-.58,1.05-1.23,1.93-1.74,2.54-.26.31-.47.55-.62.71-.08.08-.13.14-.17.18,0,0-.01.01-.02.02h-.01c-1.54,1.35-3.22,2.51-5.02,3.46-1.58-1.94-3.35-3.71-5.29-5.28.96-1.8,2.12-3.49,3.46-5.03h.01s.02-.03.02-.03c.04-.04.1-.1.18-.17.16-.15.39-.37.69-.62.6-.51,1.47-1.16,2.51-1.74.09-.05.19-.1.29-.16l5.87,5.87c-.04.08-.09.17-.13.25ZM25.56,11.13l-4.71-4.71c1.48-.45,3.1-.57,4.74-.02.55,1.62.43,3.24-.04,4.73Z"/>
</svg>