<svg width="32" height="32" viewBox="0 0 32 32" fill="none" xmlns="http://www.w3.org/2000/svg">
<path d="M11.3689 16.0677C11.9212 16.0677 12.3689 16.5154 12.3689 17.0677C12.3689 17.62 11.9212 18.0677 11.3689 18.0677H9.02252C8.47024 18.0677 8.02252 17.62 8.02252 17.0677C8.02252 16.5154 8.47024 16.0677 9.02252 16.0677H11.3689Z" fill="black"/>
<path d="M17.7873 16.6746C20.0196 14.4413 23.6402 14.4417 25.8733 16.6746C27.8654 18.6656 28.0778 21.7594 26.5165 23.9897L28.4293 25.9025C28.8193 26.293 28.8196 26.9261 28.4293 27.3165C28.0389 27.7069 27.4057 27.7066 27.0152 27.3165L25.1024 25.4038C22.8722 26.9651 19.7784 26.7527 17.7873 24.7605C15.5545 22.5275 15.554 18.9068 17.7873 16.6746ZM24.4592 18.0886C23.007 16.6367 20.6535 16.6374 19.2027 18.0886C17.7515 19.5395 17.7494 21.8943 19.2014 23.3465C20.6523 24.7979 23.007 24.7986 24.4592 23.3465C25.9113 21.8942 25.9106 19.5395 24.4592 18.0886Z" fill="black"/>
<path fill-rule="evenodd" clip-rule="evenodd" d="M4.11193 12.5886C4.34545 12.6218 4.57908 12.6539 4.81281 12.685L4.40782 13.2423C3.67267 14.2569 3.27628 15.479 3.27761 16.7319L3.25677 23.5288C3.25278 24.805 4.28649 25.8426 5.56276 25.8426H8.15C9.42328 25.8424 10.4559 24.81 10.456 23.5366V23.0014C10.456 22.8325 10.5931 22.6954 10.762 22.6954H12.8102C13.3622 22.6951 13.8102 22.2475 13.8102 21.6954C13.8101 21.1434 13.3622 20.6957 12.8102 20.6954H10.762C9.48849 20.6954 8.45599 21.728 8.45599 23.0014V23.5366C8.45595 23.7054 8.31877 23.8424 8.15 23.8426H5.56276C5.39349 23.8426 5.25624 23.7045 5.25677 23.5353L5.27761 16.7332C5.27601 15.9016 5.5386 15.0915 6.0263 14.4181L7.08744 12.9569C13.0179 13.5843 18.9982 13.5828 24.9285 12.9524L25.9807 14.3647C26.3107 14.8075 26.9376 14.8989 27.3805 14.5691C27.8233 14.2391 27.9149 13.6122 27.5849 13.1694L27.2184 12.6774C27.433 12.6486 27.6475 12.6191 27.8619 12.5886C28.4087 12.5111 28.7897 12.0053 28.7122 11.4584C28.6346 10.9119 28.1285 10.5323 27.582 10.6095C27.0254 10.6884 26.4669 10.7581 25.9091 10.8256L24.5393 7.02224C24.0733 5.70205 22.8791 4.70537 21.4964 4.48188L20.8141 4.38162C17.3961 3.91108 13.9264 3.94417 10.5159 4.48188C9.13683 4.71148 7.94347 5.71073 7.48203 7.03006L6.11615 10.8204L6.11054 10.8346C5.53751 10.7656 4.96502 10.6906 4.39318 10.6095C3.84646 10.532 3.34065 10.9118 3.26297 11.4584C3.18545 12.0052 3.56528 12.511 4.11193 12.5886ZM8.15946 11.0555C13.3827 11.5528 18.6417 11.5513 23.8648 11.0509L22.6578 7.69933C22.4366 7.06813 21.8447 6.56529 21.1852 6.45714C17.7562 5.91653 14.2638 5.91601 10.8349 6.45584C10.1771 6.56578 9.59039 7.06043 9.37006 7.69021L8.15946 11.0555Z" fill="black"/>
</svg>
