<svg width="32" height="32" viewBox="0 0 32 32" fill="none" xmlns="http://www.w3.org/2000/svg">
<path d="M22.5577 26.073C23.11 26.073 23.5577 26.5207 23.5577 27.073C23.5577 27.6253 23.11 28.073 22.5577 28.073H14.3585C13.8062 28.073 13.3585 27.6253 13.3585 27.073C13.3585 26.5207 13.8062 26.073 14.3585 26.073H22.5577Z" fill="black"/>
<path d="M3.48865 27.0314C3.46604 27.5832 3.89516 28.0491 4.44698 28.0717C4.99824 28.094 5.46295 27.662 5.48604 27.1108L5.48734 27.086C5.48871 27.0627 5.49133 27.0256 5.49516 26.9754C5.50291 26.8737 5.51735 26.7181 5.54073 26.5157C5.5875 26.1109 5.67255 25.5175 5.82589 24.7827C5.85729 24.6322 5.89274 24.4757 5.93005 24.3139C9.17267 24.1684 12.3692 22.9579 15.5082 20.7514C15.7662 20.57 15.9236 20.2776 15.9327 19.9623C15.9416 19.647 15.8011 19.3457 15.5538 19.1498L14.1683 18.0535L18.8728 17.5926C19.0762 17.5726 19.2694 17.4896 19.4248 17.3569L19.4379 17.3452L19.451 17.3343L19.4614 17.3257L19.4769 17.3126C19.494 17.2979 19.515 17.2795 19.5397 17.2577L19.6228 17.185C19.7494 17.0748 19.9334 16.9145 20.1605 16.7123C20.6145 16.3081 21.2458 15.7351 21.9587 15.06C23.3773 13.7167 25.1474 11.9391 26.473 10.2631C27.1326 9.4292 27.7157 8.5794 28.0837 7.79307C28.4233 7.06724 28.7145 6.11487 28.3311 5.25922C27.9017 4.30146 26.8951 3.97985 25.8806 3.9337C24.8315 3.88601 23.4184 4.10247 21.5941 4.58865L21.5056 4.61729C12.8601 7.80319 8.33905 13.385 5.99516 18.1876C5.11222 19.9968 4.54076 21.6925 4.16964 23.103C4.16861 23.1073 4.16739 23.1116 4.16617 23.116C4.16458 23.1216 4.16298 23.1272 4.16182 23.1329C4.04557 23.5769 3.9472 23.9921 3.86755 24.3738C3.70057 25.174 3.60673 25.828 3.55375 26.2866C3.52726 26.5159 3.51129 26.6968 3.50167 26.823C3.49688 26.8858 3.49329 26.9351 3.49125 26.9702L3.48865 27.0118V27.0314ZM22.1592 6.50792C23.8906 6.04951 25.0539 5.89769 25.7894 5.93109C26.2921 5.95395 26.461 6.0545 26.5069 6.09255C26.5109 6.11776 26.5168 6.17297 26.5017 6.27094C26.4768 6.43208 26.408 6.65579 26.2725 6.94542C26.0001 7.52749 25.526 8.23742 24.9053 9.02224C23.6699 10.5842 21.9819 12.2842 20.5837 13.6082C19.8885 14.2665 19.2719 14.8252 18.8298 15.2189C18.6609 15.3692 18.517 15.4946 18.4045 15.5927L18.3584 15.6329L11.5095 16.3061C11.1039 16.3459 10.7626 16.6274 10.6475 17.0183C10.5326 17.4095 10.6664 17.8317 10.986 18.0847L13.2282 19.8595C10.9511 21.2655 8.71037 22.0559 6.49776 22.2696C6.81858 21.2834 7.23902 20.1984 7.79203 19.0652C9.94301 14.6577 14.0949 9.49099 22.1592 6.50792Z" fill="black"/>
</svg>
