<?xml version="1.0" encoding="UTF-8"?>
<svg id="Capa_1" xmlns="http://www.w3.org/2000/svg" version="1.1" viewBox="0 0 32 32">
  <!-- Generator: Adobe Illustrator 30.0.0, SVG Export Plug-In . SVG Version: 2.1.1 Build 123)  -->
  <defs>
    <style>
      .st0 {
        fill-rule: evenodd;
      }
    </style>
  </defs>
  <path class="st0" d="M22.62,14.39c-1,.3-1.78.31-2.41.04-.51-.22-1.1.01-1.32.52-.22.51.01,1.1.52,1.32,1.24.53,2.55.41,3.78.04.53-.16.83-.72.67-1.25-.16-.53-.72-.83-1.25-.67Z"/>
  <path class="st0" d="M21.37,4.57c-4.37,0-7.91,3.54-7.91,7.91s3.54,7.91,7.91,7.91,7.91-3.54,7.91-7.91-3.54-7.91-7.91-7.91ZM21.37,6.57c2.13,0,3.99,1.12,5.03,2.81h-10.07c1.04-1.68,2.91-2.81,5.03-2.81ZM24.52,12.72c-.98.57-2.52-.36-2.06-.9.6-.71,2.46-1.64,2.58-1.55.3.23.27,1.99-.52,2.45ZM18.21,12.72c-.79-.46-.81-2.22-.52-2.45.12-.09,1.98.84,2.58,1.55.46.54-1.08,1.47-2.06.9ZM21.37,18.4c-2.83,0-5.19-1.98-5.77-4.63h11.55c-.59,2.65-2.95,4.63-5.77,4.63Z"/>
  <path class="st0" d="M9.33,22.39h-.9c-.07,0-.12-.05-.12-.12s.05-.12.12-.12h.41s.03,0,.04,0,.03,0,.04,0h.97c.37,0,.67-.3.67-.67s-.3-.67-.67-.67h-.35c0-.37-.3-.67-.67-.67s-.67.3-.67.67v.02c-.7.1-1.24.71-1.24,1.44,0,.8.65,1.46,1.46,1.46h.9c.07,0,.12.05.12.12,0,.07-.05.12-.12.12h-.41s-.03,0-.04,0-.03,0-.04,0h-.97c-.37,0-.67.3-.67.67,0,.37.3.67.67.67h.35c0,.37.3.66.67.66s.67-.31.67-.68c.7-.1,1.24-.71,1.24-1.44,0-.8-.65-1.46-1.46-1.46Z"/>
  <path class="st0" d="M12.5,17.61h-.04v-1.31c0-1.38-1.05-2.52-2.39-2.65h-.27s-1.84-.01-1.84-.01c-1.47,0-2.67,1.19-2.67,2.67v1.31h-.32c-1.34.15-2.39,1.29-2.39,2.67v5.85c.14,1.26,1.14,2.25,2.39,2.38h.27s7.26.01,7.26.01h.27c1.26-.14,2.25-1.14,2.38-2.39v-.27s.01-5.58.01-5.58c0-1.47-1.19-2.67-2.67-2.67ZM7.29,16.29c0-.37.3-.67.67-.67h1.84c.37,0,.67.3.67.67v1.03h-3.17v-1.03ZM13.17,25.85c0,.37-.3.67-.67.67h-7.26c-.37,0-.67-.3-.67-.67v-5.58c0-.37.3-.67.67-.67h7.26c.37,0,.67.3.67.67v5.58Z"/>
</svg>