<svg width="32" height="32" viewBox="0 0 32 32" fill="none" xmlns="http://www.w3.org/2000/svg">
<path d="M26.9925 5.3125C27.5447 5.31263 27.9925 5.7603 27.9925 6.3125C27.9925 6.86471 27.5447 7.31237 26.9925 7.3125L5.00684 7.3125C4.45455 7.3125 4.00684 6.86478 4.00684 6.3125C4.00684 5.76022 4.45455 5.3125 5.00684 5.3125L26.9925 5.3125Z" fill="black"/>
<path d="M27.9334 20.2018C27.9332 20.7539 27.4856 21.2018 26.9334 21.2018C26.3813 21.2018 25.9336 20.7539 25.9334 20.2018V11.625C25.9334 11.0727 26.3811 10.625 26.9334 10.625C27.4857 10.625 27.9334 11.0727 27.9334 11.625V20.2018Z" fill="black"/>
<path d="M26.9925 24.7264C27.5447 24.7265 27.9925 25.1742 27.9925 25.7264C27.9925 26.2786 27.5447 26.7263 26.9925 26.7264L5.00684 26.7264C4.45455 26.7264 4.00684 26.2787 4.00684 25.7264C4.00684 25.1741 4.45455 24.7264 5.00684 24.7264L26.9925 24.7264Z" fill="black"/>
<path d="M10.404 11.614C10.404 11.0617 9.95626 10.614 9.40397 10.614H5.00684C4.45455 10.614 4.00684 11.0617 4.00684 11.614C4.00684 12.1662 4.45455 12.614 5.00684 12.614H6.10229L6.1023 20.2047C6.10236 20.7569 6.55005 21.2047 7.1023 21.2047C7.65454 21.2047 8.10223 20.7569 8.1023 20.2047L8.10229 12.614H9.40397C9.95626 12.614 10.404 12.1662 10.404 11.614Z" fill="black"/>
<path d="M14.6131 18.0339V20.4117C14.6131 20.9639 15.061 21.4115 15.6131 21.4117C16.1654 21.4117 16.6131 20.964 16.6131 20.4117V13.1344C16.6131 11.6282 15.3927 10.4068 13.8866 10.4065C12.3802 10.4065 11.1587 11.6281 11.1587 13.1344V20.4117C11.1587 20.964 11.6064 21.4117 12.1587 21.4117C12.711 21.4117 13.1587 20.964 13.1587 20.4117V18.0339H14.6131ZM14.6131 16.0339H13.1587V13.1344C13.1587 12.7326 13.4848 12.4065 13.8866 12.4065C14.2881 12.4068 14.6131 12.7328 14.6131 13.1344V16.0339Z" fill="black"/>
<path d="M21.2047 13.5906L22.2497 11.3393C22.4822 10.8384 23.101 10.5561 23.6317 10.7089C24.1625 10.8616 24.4042 11.3915 24.1717 11.8925L22.294 15.9373L24.1739 19.9869C24.4064 20.4878 24.1646 21.0178 23.6339 21.1705C23.1032 21.3233 22.4844 21.041 22.2519 20.54L21.2047 18.2841L20.1575 20.54C19.9249 21.041 19.3062 21.3233 18.7754 21.1705C18.2447 21.0178 18.003 20.4878 18.2355 19.9869L20.1153 15.9373L18.2377 11.8925C18.0051 11.3915 18.2469 10.8616 18.7776 10.7089C19.3084 10.5561 19.9271 10.8384 20.1597 11.3393L21.2047 13.5906Z" fill="black"/>
</svg>
