<svg width="32" height="32" viewBox="0 0 32 32" fill="none" xmlns="http://www.w3.org/2000/svg">
<path d="M25.6603 22.0208C25.6603 20.8146 24.6827 19.8375 23.4767 19.8372C22.2704 19.8372 21.2919 20.8145 21.2918 22.0208C21.2918 23.227 22.2703 24.2044 23.4767 24.2044C24.6828 24.2042 25.6603 23.2269 25.6603 22.0208ZM27.6603 22.0208C27.6603 22.4253 27.6021 22.8162 27.495 23.1862L28.2215 23.6055C28.6998 23.8816 28.8636 24.4944 28.5874 24.9727C28.3111 25.4505 27.6996 25.6146 27.2215 25.3385L26.4911 24.9167C25.9512 25.4786 25.2584 25.8915 24.4767 26.0833V26.974C24.4767 27.5261 24.0288 27.9737 23.4767 27.974C22.9245 27.974 22.4767 27.5262 22.4767 26.974V26.0833C21.6944 25.8915 21 25.4792 20.4598 24.9167L19.7307 25.3385C19.2526 25.6144 18.641 25.4505 18.3648 24.9727C18.0886 24.4944 18.2524 23.8816 18.7307 23.6055L19.4572 23.1862C19.3501 22.8163 19.2918 22.4253 19.2918 22.0208C19.2919 21.6159 19.3499 21.2245 19.4572 20.8542L18.7307 20.4362C18.2525 20.1601 18.089 19.5485 18.3648 19.0703C18.6409 18.5921 19.2524 18.4272 19.7307 18.7031L20.4598 19.1237C21 18.5614 21.6946 18.1487 22.4767 17.957V17.0677C22.4767 16.5154 22.9245 16.0677 23.4767 16.0677C24.0288 16.0679 24.4767 16.5156 24.4767 17.0677V17.957C25.2582 18.1487 25.9512 18.5621 26.4911 19.1237L27.2215 18.7031C27.6998 18.427 28.3113 18.592 28.5874 19.0703C28.8633 19.5486 28.6997 20.1601 28.2215 20.4362L27.495 20.8542C27.6023 21.2245 27.6603 21.6159 27.6603 22.0208Z" fill="black"/>
<path d="M11.3689 16.0677C11.9212 16.0677 12.3689 16.5154 12.3689 17.0677C12.3689 17.62 11.9212 18.0677 11.3689 18.0677H9.02252C8.47024 18.0677 8.02252 17.62 8.02252 17.0677C8.02252 16.5154 8.47024 16.0677 9.02252 16.0677H11.3689Z" fill="black"/>
<path fill-rule="evenodd" clip-rule="evenodd" d="M4.11193 12.5886C4.34545 12.6218 4.57908 12.6539 4.81281 12.685L4.40781 13.2423C3.67266 14.2569 3.27628 15.479 3.27761 16.7319L3.25677 23.5288C3.25278 24.805 4.28648 25.8426 5.56276 25.8426H8.15C9.42328 25.8424 10.4559 24.81 10.456 23.5366V23.0014C10.456 22.8325 10.5931 22.6954 10.762 22.6954H15.8401C16.3923 22.6953 16.8401 22.2476 16.8401 21.6954C16.84 21.1433 16.3923 20.6955 15.8401 20.6954H10.762C9.48849 20.6954 8.45599 21.728 8.45599 23.0014V23.5366C8.45594 23.7054 8.31877 23.8424 8.15 23.8426H5.56276C5.39349 23.8426 5.25624 23.7045 5.25677 23.5353L5.27761 16.7332C5.27601 15.9016 5.5386 15.0915 6.0263 14.4181L7.08744 12.9569C13.0179 13.5843 18.9982 13.5828 24.9285 12.9524L25.9807 14.3647C26.4778 15.0458 26.7469 15.8673 26.7477 16.711C26.7481 17.2632 27.1956 17.7113 27.7477 17.711C28.2999 17.7106 28.748 17.262 28.7477 16.7097C28.7466 15.4392 28.3361 14.1945 27.5849 13.1694L27.2184 12.6774C27.433 12.6486 27.6475 12.6191 27.8619 12.5886C28.4087 12.5111 28.7897 12.0053 28.7122 11.4584C28.6346 10.9119 28.1285 10.5323 27.582 10.6095C27.0254 10.6884 26.4669 10.7581 25.9091 10.8256L24.5393 7.02224C24.0733 5.70205 22.8791 4.70537 21.4964 4.48188L20.8141 4.38162C17.3961 3.91108 13.9264 3.94417 10.5159 4.48188C9.13683 4.71148 7.94347 5.71073 7.48203 7.03006L6.11615 10.8204L6.11054 10.8346C5.53751 10.7656 4.96502 10.6906 4.39318 10.6095C3.84646 10.532 3.34065 10.9118 3.26297 11.4584C3.18545 12.0052 3.56528 12.511 4.11193 12.5886ZM23.8648 11.0509C18.6417 11.5513 13.3827 11.5528 8.15946 11.0555L9.37005 7.69021C9.59039 7.06043 10.1771 6.56578 10.8349 6.45584C14.2638 5.91601 17.7562 5.91653 21.1852 6.45714C21.8447 6.56529 22.4366 7.06813 22.6578 7.69933L23.8648 11.0509Z" fill="black"/>
</svg>
