<svg width="32" height="32" viewBox="0 0 32 32" fill="none" xmlns="http://www.w3.org/2000/svg">
<path d="M26.5598 11.5867C26.5598 11.5867 26.5464 11.5067 26.5331 11.4801C26.3864 10.9067 26.0798 10.3734 25.6531 9.94674L20.8398 5.12008C20.5064 4.78674 20.1064 4.52008 19.6664 4.33341C19.5331 4.28008 19.3864 4.24008 19.2531 4.20008C19.2398 4.18674 19.2131 4.18674 19.1864 4.17341C19.1331 4.16008 19.0798 4.16008 19.0264 4.14674C19.0264 4.14674 18.9998 4.14674 18.9864 4.14674C18.7464 4.10674 18.5064 4.08008 18.2664 4.08008H11.0664C9.57311 4.08008 8.14644 4.65341 7.07978 5.65341C6.01311 6.66674 5.39978 8.02674 5.35978 9.46674V22.2934C5.33311 23.7601 5.90644 25.1734 6.95978 26.2267C8.01311 27.2801 9.45311 27.8934 10.9731 27.9201H21.0798C22.5864 27.8667 24.0131 27.2534 25.0531 26.2001C26.0931 25.1601 26.6664 23.7601 26.6398 22.3067V12.3334C26.6398 12.0801 26.6131 11.8401 26.5598 11.6001V11.5867ZM19.8531 6.78674L23.8664 10.8001H22.1464C21.5331 10.8001 20.9464 10.5734 20.5198 10.1467C20.0931 9.73341 19.8531 9.17341 19.8531 8.58674V6.78674ZM24.7331 22.3067C24.7464 23.2667 24.3731 24.2001 23.6798 24.9067C22.9998 25.6134 22.0531 26.0267 21.0398 26.0801H10.9998C10.4931 26.0667 9.99978 25.9601 9.53311 25.7601C9.06644 25.5601 8.65311 25.2801 8.30644 24.9334C7.95978 24.5867 7.69311 24.1734 7.50644 23.7201C7.33311 23.2667 7.25311 22.7867 7.26644 22.2934V9.48008C7.29311 8.52008 7.70644 7.61341 8.41311 6.94674C9.13311 6.28008 10.0798 5.89341 11.0798 5.89341H17.9464V8.58674C17.9464 9.66674 18.3864 10.6934 19.1731 11.4534C19.9598 12.2001 21.0264 12.6401 22.1331 12.6401H24.7331V22.3067Z" fill="black"/>
<path d="M18.4798 14.0039H18.4664C17.6531 13.7506 16.7598 13.8172 15.9998 14.1639C15.2398 13.8172 14.3598 13.7639 13.5464 14.0039H13.5331C11.4798 14.6439 10.8931 16.7372 11.4264 18.3639C11.8531 19.6572 12.9598 20.7106 13.8264 21.3906C14.2664 21.7372 14.6931 22.0172 15.0131 22.2172C15.1598 22.3106 15.2931 22.3906 15.3864 22.4439C15.4398 22.4706 15.4664 22.4839 15.4931 22.4972L15.5331 22.5239H15.5464C15.8264 22.6706 16.1731 22.6706 16.4531 22.5239H16.4664L16.5064 22.4972C16.5064 22.4972 16.5731 22.4706 16.6131 22.4439C16.7064 22.3906 16.8398 22.3106 16.9864 22.2172C17.3064 22.0306 17.7198 21.7506 18.1731 21.3906C19.0398 20.7239 20.1331 19.6706 20.5731 18.3772C21.1198 16.7506 20.5331 14.6439 18.4798 14.0039ZM18.7598 17.8039C18.4931 18.5906 17.7598 19.3506 16.9731 19.9772C16.6131 20.2572 16.2664 20.4839 15.9998 20.6439C15.7331 20.4839 15.3864 20.2439 15.0264 19.9639C14.2264 19.3372 13.4931 18.5772 13.2531 17.8172C12.9331 16.8572 13.3464 15.9906 14.1198 15.7506C14.5731 15.6172 15.0531 15.6972 15.4398 15.9639C15.7731 16.2172 16.2398 16.2172 16.5731 15.9639C16.9464 15.6972 17.4398 15.6172 17.8931 15.7506C18.6531 15.9906 19.0798 16.8439 18.7598 17.8039Z" fill="black"/>
</svg>
