<svg width="32" height="32" viewBox="0 0 32 32" fill="none" xmlns="http://www.w3.org/2000/svg">
<path d="M4.17383 13.7539C4.17383 15.2612 5.16209 16.5205 6.51505 16.971C5.44919 17.1244 4.60181 17.5068 3.97526 18.0638C3.14758 18.7997 2.79312 19.7649 2.79297 20.6432C2.79297 21.1955 3.24068 21.6432 3.79297 21.6432C4.34525 21.6432 4.79297 21.1955 4.79297 20.6432C4.79312 20.2979 4.93154 19.8903 5.30469 19.5586C5.67741 19.2273 6.37358 18.8958 7.61458 18.8958C8.85695 18.8959 9.55363 19.2255 9.92578 19.5547C10.2973 19.8835 10.4348 20.2879 10.4349 20.6328C10.4349 21.1851 10.8826 21.6328 11.4349 21.6328C11.9871 21.6327 12.4349 21.185 12.4349 20.6328C12.4348 19.7535 12.0791 18.7894 11.25 18.056C10.6237 17.5021 9.77774 17.1229 8.71436 16.9706C10.0672 16.5199 11.0553 15.2609 11.0553 13.7539C11.0552 11.8612 9.49621 10.3594 7.61393 10.3594C5.73215 10.3594 4.17399 11.8614 4.17383 13.7539ZM7.61393 12.3594C8.42767 12.3594 9.05517 13.0015 9.05534 13.7539C9.05534 14.5064 8.42779 15.1484 7.61393 15.1484C6.80089 15.1484 6.17383 14.5066 6.17383 13.7539C6.174 13.0014 6.80101 12.3594 7.61393 12.3594Z" fill="black"/>
<path d="M18.5875 4.35194C19.1398 4.35194 19.5875 4.79966 19.5875 5.35194C19.5875 5.90423 19.1398 6.35194 18.5875 6.35194H17.4651V25.6475H18.5875C19.1396 25.6475 19.5872 26.0955 19.5875 26.6475C19.5875 27.1998 19.1398 27.6475 18.5875 27.6475H17.1318C16.2113 27.6475 15.4651 26.9013 15.4651 25.9809L15.4651 17.0082H14.0954C13.5431 17.0082 13.0954 16.5604 13.0954 16.0082C13.0954 15.4559 13.5431 15.0082 14.0954 15.0082H15.4651L15.4651 6.01861C15.4651 5.09813 16.2113 4.35194 17.1318 4.35194H18.5875Z" fill="black"/>
<path d="M21.7072 7.02344C21.7073 8.24912 22.422 9.29402 23.4491 9.79921C22.6857 9.96789 22.0589 10.2809 21.5738 10.7122C20.8198 11.3828 20.4957 12.2644 20.4957 13.0677C20.4959 13.6198 20.9435 14.0677 21.4957 14.0677C22.0478 14.0677 22.4954 13.6198 22.4957 13.0677C22.4957 12.7974 22.6037 12.4734 22.9032 12.207C23.2022 11.9412 23.7813 11.6562 24.8485 11.6562C25.9171 11.6563 26.4966 11.9391 26.7951 12.2031C27.0934 12.467 27.2001 12.7886 27.2001 13.0586C27.2004 13.6106 27.6481 14.0585 28.2001 14.0586C28.7522 14.0586 29.1998 13.6106 29.2001 13.0586C29.2001 12.2542 28.8749 11.3741 28.1194 10.7057C27.6346 10.2769 27.0094 9.96623 26.2484 9.79868C27.2751 9.29331 27.9896 8.24878 27.9897 7.02344C27.9897 5.29281 26.5649 3.92188 24.8478 3.92188C23.1313 3.92207 21.7072 5.29309 21.7072 7.02344ZM24.8478 5.92188C25.4963 5.92188 25.9897 6.43307 25.9897 7.02344C25.9895 7.6136 25.4962 8.1237 24.8478 8.1237C24.2003 8.12351 23.7074 7.61364 23.7072 7.02344C23.7072 6.43303 24.2001 5.92207 24.8478 5.92188Z" fill="black"/>
<path d="M21.7072 20.6797C21.7073 21.9054 22.422 22.9503 23.4491 23.4555C22.6857 23.6241 22.0589 23.9372 21.5738 24.3685C20.8198 25.039 20.4957 25.9207 20.4957 26.724C20.4959 27.276 20.9435 27.724 21.4957 27.724C22.0478 27.724 22.4954 27.276 22.4957 26.724C22.4957 26.4536 22.6037 26.1297 22.9032 25.8633C23.2022 25.5974 23.7813 25.3125 24.8485 25.3125C25.9171 25.3126 26.4966 25.5953 26.7951 25.8594C27.0934 26.1233 27.2001 26.4449 27.2001 26.7148C27.2004 27.2668 27.6481 27.7148 28.2001 27.7148C28.7522 27.7148 29.1998 27.2669 29.2001 26.7148C29.2001 25.9105 28.8749 25.0304 28.1194 24.362C27.6346 23.9332 27.0094 23.6225 26.2484 23.4549C27.2751 22.9496 27.9896 21.905 27.9897 20.6797C27.9897 18.9491 26.5649 17.5781 24.8478 17.5781C23.1313 17.5783 21.7072 18.9493 21.7072 20.6797ZM24.8478 19.5781C25.4963 19.5781 25.9897 20.0893 25.9897 20.6797C25.9895 21.2698 25.4962 21.7799 24.8478 21.7799C24.2003 21.7798 23.7074 21.2699 23.7072 20.6797C23.7072 20.0893 24.2001 19.5783 24.8478 19.5781Z" fill="black"/>
</svg>
