<svg width="32" height="32" viewBox="0 0 32 32" fill="none" xmlns="http://www.w3.org/2000/svg">
<path d="M22.7574 12.7145C22.7572 8.98282 19.7313 5.95801 15.9996 5.95801C12.2679 5.9582 9.24323 8.98294 9.24307 12.7145C9.24307 15.3478 10.7492 17.6313 12.9514 18.7471C13.4441 18.9966 13.6411 19.5994 13.3915 20.0921C13.1418 20.5844 12.5403 20.7817 12.0478 20.5322C9.19897 19.0892 7.24307 16.1307 7.24307 12.7145C7.24323 7.87836 11.1634 3.9582 15.9996 3.95801C20.8359 3.95801 24.7572 7.87824 24.7574 12.7145C24.7574 15.3038 23.6318 17.6321 21.8472 19.234C21.4363 19.6029 20.8034 19.5694 20.4345 19.1585C20.0656 18.7475 20.1003 18.1147 20.5113 17.7458C21.8911 16.5071 22.7574 14.7123 22.7574 12.7145Z" fill="black"/>
<path fill-rule="evenodd" clip-rule="evenodd" d="M16.3441 11.3643H16.1388C16.1725 11.3677 16.2068 11.3695 16.2414 11.3695C16.2761 11.3695 16.3104 11.3677 16.3441 11.3643Z" fill="black"/>
<path fill-rule="evenodd" clip-rule="evenodd" d="M26.5764 26.9938C26.5772 27.0106 26.5764 27.0275 26.5764 27.0443V26.9938ZM26.3941 27.62C26.4577 27.5299 26.5068 27.4287 26.5379 27.32C26.5078 27.4256 26.4601 27.5271 26.3941 27.62Z" fill="black"/>
<path d="M14.7549 15.988L15.2416 15.9749C15.2568 16.5139 15.6988 16.9593 16.2414 16.9593C16.7937 16.9593 17.2414 16.5115 17.2414 15.9593C18.2709 15.7964 19.0582 14.9069 19.0583 13.8317C19.0583 12.641 18.0927 11.6755 16.902 11.6755H15.5817C15.4958 11.6755 15.4257 11.6064 15.4254 11.5205C15.4254 11.4343 15.4957 11.3643 15.5817 11.3643H16.1388H16.3441H17.7275C18.2798 11.3643 18.7275 10.9165 18.7275 10.3643C18.7275 9.81197 18.2798 9.36426 17.7275 9.36426H17.2411C17.2273 8.82401 16.785 8.3903 16.2414 8.3903C15.6892 8.3903 15.2414 8.83801 15.2414 9.3903C14.2124 9.55349 13.4254 10.4456 13.4254 11.5205C13.4257 12.7109 14.3912 13.6755 15.5817 13.6755H16.902C16.9881 13.6755 17.0583 13.7456 17.0583 13.8317C17.0582 13.9178 16.9881 13.9879 16.902 13.988H14.7549C14.2028 13.9882 13.7549 14.4359 13.7549 14.988C13.7552 15.5398 14.203 15.9877 14.7549 15.988Z" fill="black"/>
<path d="M7.11742 17.724C6.72036 17.3404 6.0871 17.3507 5.70336 17.7474C5.31985 18.1444 5.3301 18.7777 5.72679 19.1615L11.4221 24.6615C11.7969 25.0235 12.3866 25.0371 12.7776 24.6927L17.5211 20.513L23.1398 26.0443H21.0165C20.4643 26.0443 20.0166 26.4921 20.0165 27.0443C20.0165 27.5965 20.4642 28.0443 21.0165 28.0443H25.5764C25.9143 28.0443 26.2131 27.8766 26.3941 27.62C26.509 27.4572 26.5764 27.2586 26.5764 27.0443V26.9938V22.4844C26.5764 21.9321 26.1287 21.4844 25.5764 21.4844C25.0242 21.4845 24.5764 21.9321 24.5764 22.4844V24.6529L18.2619 18.4349C17.9347 18.1127 17.4377 18.0596 17.0549 18.2839L16.8987 18.3971L12.1474 22.582L7.11742 17.724Z" fill="black"/>
</svg>
