<svg width="32" height="32" viewBox="0 0 32 32" fill="none" xmlns="http://www.w3.org/2000/svg">
<path d="M23.2865 15.2883C23.2957 15.2974 23.3046 15.3067 23.3133 15.3161C23.3198 15.3232 23.3321 15.3367 23.3383 15.344L23.348 15.3554C23.3938 15.4103 23.4338 15.4702 23.4672 15.534C23.5414 15.676 23.5812 15.8351 23.5812 15.9979C23.5811 16.2637 23.4748 16.5187 23.2865 16.7063L17.9779 21.9927C17.5866 22.3824 16.9536 22.3813 16.5639 21.9901C16.1742 21.5989 16.1753 20.9658 16.5665 20.5761L20.1588 16.9979L9.41846 16.9979C8.86617 16.9979 8.41846 16.5502 8.41846 15.9979C8.41846 15.4457 8.86617 14.9979 9.41846 14.9979L20.1588 14.9979L16.5665 11.4198C16.1753 11.0301 16.1742 10.397 16.5639 10.0058C16.9536 9.61461 17.5866 9.61354 17.9779 10.0032L23.2865 15.2883Z" fill="black"/>
</svg>
