<svg width="32" height="32" viewBox="0 0 32 32" fill="none" xmlns="http://www.w3.org/2000/svg">
<path d="M4.28841 23.2747L4.28711 9.95964C4.28611 6.93536 6.73889 4.48464 9.76107 4.48438C10.3134 4.48438 10.7611 4.93209 10.7611 5.48438C10.7611 6.03666 10.3134 6.48438 9.76107 6.48438C7.84261 6.48464 6.28616 8.04083 6.28711 9.95964L6.28841 23.2747C6.28861 25.1942 7.84445 26.7498 9.76237 26.75H16.5853C18.5048 26.75 20.0603 25.1942 20.0605 23.2747V21.4883C20.0605 20.9362 20.5085 20.4886 21.0605 20.4883C21.6128 20.4883 22.0605 20.936 22.0605 21.4883V23.2747C22.0603 26.2988 19.6093 28.75 16.5853 28.75H9.76237C6.73955 28.7498 4.28861 26.2985 4.28841 23.2747Z" fill="black"/>
<path d="M13.4019 22.0417C14.0802 22.0417 14.6309 22.5914 14.6311 23.2695C14.6311 23.9479 14.0803 24.4987 13.4019 24.4987C12.7238 24.4985 12.1741 23.9477 12.1741 23.2695C12.1743 22.5915 12.7239 22.0419 13.4019 22.0417Z" fill="black"/>
<path fill-rule="evenodd" clip-rule="evenodd" d="M16.7533 4.98209C16.754 4.96731 16.7543 4.95244 16.7543 4.9375C16.7543 4.92256 16.754 4.90769 16.7533 4.89291V4.98209Z" fill="black"/>
<path fill-rule="evenodd" clip-rule="evenodd" d="M16.7533 4.98209V4.89291V4.25C16.7533 3.69772 16.3056 3.25 15.7533 3.25C15.281 3.25 14.8852 3.57746 14.7805 4.01773C13.1996 4.36138 12.0149 5.76862 12.0147 7.45312V9.26823C12.0148 11.7023 13.7946 13.7212 16.1236 14.0935C16.1672 16.7826 18.3621 18.9505 21.0617 18.9505C23.5684 18.9502 25.6382 17.0816 25.9567 14.6625C26.983 14.2757 27.7126 13.2847 27.7126 12.1237C27.7124 10.6264 26.4988 9.41168 25.0003 9.41146C23.5021 9.41146 22.2882 10.6265 22.2881 12.1237C22.2881 13.2435 22.9671 14.2054 23.9363 14.6192C23.6565 15.9502 22.476 16.9502 21.0617 16.9505C19.4667 16.9505 18.1674 15.678 18.124 14.0936C20.4531 13.7215 22.2334 11.7025 22.2335 9.26823V7.45312C22.2334 5.76792 21.0479 4.35999 19.4654 4.01721C19.3604 3.5772 18.9647 3.25 18.4926 3.25C17.9403 3.25 17.4926 3.69772 17.4926 4.25V5.61979C17.4926 6.17205 17.9403 6.61979 18.4926 6.61979C18.8758 6.61979 19.2086 6.40426 19.3765 6.08782C19.8836 6.33291 20.2334 6.85205 20.2335 7.45312V9.26823C20.2334 10.8623 18.941 12.1547 17.3481 12.1549H16.9001C15.307 12.1548 14.0148 10.8624 14.0147 9.26823V7.45312C14.0148 6.8529 14.3639 6.33423 14.8699 6.08874C15.038 6.40467 15.3705 6.61979 15.7533 6.61979C16.3056 6.61979 16.7533 6.17205 16.7533 5.61979V4.98209ZM25.0003 11.4115C25.3937 11.4117 25.7124 11.7305 25.7126 12.1237C25.7126 12.5171 25.3938 12.8357 25.0003 12.8359C24.6076 12.8359 24.2881 12.5175 24.2881 12.1237C24.2882 11.7301 24.6077 11.4115 25.0003 11.4115Z" fill="black"/>
</svg>
