<svg width="32" height="32" viewBox="0 0 32 32" fill="none" xmlns="http://www.w3.org/2000/svg">
<path d="M16.5487 27.9871H18.7423C19.3223 27.9871 19.8896 27.7532 20.3056 27.3591C20.7216 26.9527 20.9486 26.4109 20.9486 25.8321V20.8077H26.0922C26.6722 20.8077 27.2395 20.5737 27.6555 20.1797C28.0715 19.7733 28.2985 19.2315 28.2985 18.6527V13.3081C28.2985 12.7293 28.0715 12.1875 27.6555 11.7811C27.2395 11.3747 26.6722 11.153 26.0922 11.153H20.9486V6.12869C20.9486 5.5499 20.7216 5.00806 20.3056 4.60168C19.9022 4.20761 19.3349 3.97363 18.7423 3.97363H13.2708C12.6909 3.97363 12.1236 4.20761 11.7075 4.60168C11.2915 5.00806 11.0646 5.5499 11.0646 6.12869V11.153H5.92089C5.34096 11.153 4.77365 11.387 4.35761 11.7811C3.94158 12.1875 3.71465 12.7293 3.71465 13.3081V14.7489C3.71465 15.2538 4.14329 15.6725 4.66018 15.6725C5.17707 15.6725 5.60571 15.2538 5.60571 14.7489V13.3081C5.60571 13.2219 5.64353 13.148 5.69396 13.0864C5.74439 13.0249 5.83264 13.0002 5.92089 13.0002H12.0101C12.527 13.0002 12.9556 12.5815 12.9556 12.0766V6.12869C12.9556 6.04249 12.9935 5.96861 13.0439 5.90704C13.1069 5.84547 13.1826 5.82082 13.2708 5.82082H18.7423C18.8306 5.82082 18.9062 5.85778 18.9692 5.90704C19.0323 5.96861 19.0575 6.04249 19.0575 6.12869V12.0766C19.0575 12.5815 19.4862 13.0002 20.003 13.0002H26.0922C26.1805 13.0002 26.2561 13.0372 26.3192 13.0864C26.3822 13.148 26.4074 13.2219 26.4074 13.3081V18.6527C26.4074 18.7389 26.3696 18.8128 26.3192 18.8743C26.2687 18.9359 26.1805 18.9605 26.0922 18.9605H20.003C19.4862 18.9605 19.0575 19.3792 19.0575 19.8841V25.8321C19.0575 25.9183 19.0197 25.9922 18.9692 26.0538C18.9062 26.1153 18.8306 26.14 18.7423 26.14H16.5487C16.0318 26.14 15.6031 26.5586 15.6031 27.0635C15.6031 27.5684 16.0318 27.9871 16.5487 27.9871Z" fill="black"/>
<path d="M12.1487 27.9895C12.5521 27.9895 12.943 27.9033 13.3086 27.6817C13.8128 27.3615 14.128 26.8196 14.2415 26.0684C14.4054 25.0956 14.0776 24.0612 13.3086 23.1991C12.3126 22.0662 10.7619 21.3643 9.23648 21.3643C6.57639 21.3643 4.23147 23.4085 4.20626 25.7236C4.20626 26.5733 4.43318 27.1891 4.93747 27.5831C5.73171 28.1989 6.7781 27.9649 7.78667 27.7309C8.29095 27.6078 8.80784 27.4969 9.23648 27.4969C9.60208 27.4969 10.0685 27.6201 10.535 27.7432C11.0519 27.8787 11.6066 28.0265 12.1487 28.0265V27.9895ZM9.24909 23.1991C10.2198 23.1991 11.241 23.6671 11.884 24.3937C12.1109 24.6523 12.4891 25.1818 12.3882 25.7852C12.3378 26.0684 12.2748 26.1423 12.2748 26.1423C12.1319 26.2065 11.6069 26.0748 11.2073 25.9747C11.148 25.9598 11.0914 25.9457 11.0393 25.933C10.4846 25.7852 9.86683 25.6251 9.24909 25.6251C8.59352 25.6251 7.93795 25.7729 7.35803 25.9207C7.34217 25.9243 7.32554 25.9281 7.30885 25.9319C6.92735 26.0191 6.34041 26.1531 6.13514 26.1177C6.13514 26.1117 6.13421 26.0997 6.13306 26.0816C6.12954 26.026 6.12253 25.9125 6.12253 25.7359C6.12253 24.4306 7.6606 23.2114 9.26169 23.2114L9.24909 23.1991Z" fill="black"/>
<path d="M8.37902 18.7256C7.87765 18.2242 7.87765 17.4113 8.37902 16.9099L9.28684 16.0021L10.1947 16.9099C10.696 17.4113 10.696 18.2242 10.1947 18.7256C9.69329 19.227 8.8804 19.227 8.37902 18.7256Z" fill="black"/>
<path d="M4.56006 21.4006C3.88454 21.1851 3.5116 20.4628 3.72708 19.7873L4.11724 18.5642L5.34037 18.9543C6.01589 19.1698 6.38883 19.8921 6.17335 20.5676C5.95787 21.2432 5.23558 21.6161 4.56006 21.4006Z" fill="black"/>
<path d="M13.9889 21.4006C14.6644 21.1851 15.0374 20.4628 14.8219 19.7873L14.4317 18.5642L13.2086 18.9543C12.5331 19.1698 12.1601 19.8921 12.3756 20.5676C12.5911 21.2432 13.3134 21.6161 13.9889 21.4006Z" fill="black"/>
</svg>
