<?xml version="1.0" encoding="UTF-8"?>
<svg id="Capa_1" xmlns="http://www.w3.org/2000/svg" version="1.1" viewBox="0 0 32 32">
  <!-- Generator: Adobe Illustrator 30.0.0, SVG Export Plug-In . SVG Version: 2.1.1 Build 123)  -->
  <defs>
    <style>
      .st0 {
        fill-rule: evenodd;
      }
    </style>
  </defs>
  <path class="st0" d="M28.6,11.5l-4-5.88-.13-.18c-.69-.89-1.76-1.42-2.9-1.42h-11.13c-1.21,0-2.34.6-3.03,1.6l-4.01,5.88c-.96,1.4-.83,3.28.32,4.53l9.93,10.91c.62.69,1.47,1.03,2.33,1.04h.02s.02,0,.02,0c.85,0,1.7-.35,2.33-1.04l9.94-10.92.2-.24c.95-1.24,1.01-2.97.12-4.29ZM21.57,6.02c.55,0,1.07.27,1.38.73l3.96,5.81h-5.21c-.01-.1-.03-.19-.04-.29l-.1-.46-1.53-5.79h1.56ZM12.39,12.32l1.67-6.3h3.89l1.66,6.3.05.24h-7.33c.02-.08.03-.16.06-.24ZM9.06,6.75c.31-.45.82-.73,1.38-.73h1.55l-1.53,5.78c-.06.24-.11.49-.15.75h-5.21l3.97-5.81ZM5.2,14.68s-.07-.08-.11-.13h5.22c.05.4.14.79.26,1.13l2.84,8.01L5.2,14.68ZM16,25.04l-3.54-10.02c-.05-.14-.09-.3-.12-.47h7.34c-.03.17-.07.33-.12.47l-3.55,10.02ZM26.8,14.68l-8.21,9.02,2.83-8.01.07-.21c.09-.29.15-.6.19-.92h5.22s-.07.09-.1.13Z"/>
</svg>