<svg width="32" height="32" viewBox="0 0 32 32" fill="none" xmlns="http://www.w3.org/2000/svg">
<path d="M27.7757 18.261C27.4443 17.8196 26.8177 17.7305 26.376 18.0617L23.958 19.8755C23.7653 20.0201 23.5602 20.1478 23.3461 20.2584L23.0323 20.4211C21.9349 20.9877 20.6478 21.0582 19.4945 20.6164L15.9424 19.2571C15.4268 19.0598 14.8483 19.3171 14.6508 19.8326C14.4532 20.3483 14.7119 20.9267 15.2276 21.1242L18.7797 22.4849C20.4654 23.1304 22.3463 23.0255 23.9502 22.1972L24.264 22.0357C24.577 21.8741 24.8755 21.6858 25.1573 21.4745L27.5765 19.662C28.0184 19.3306 28.1071 18.7028 27.7757 18.261ZM9.49971 19.3026C9.40162 18.7591 8.88175 18.3973 8.33825 18.4953L8.04268 18.5487C6.67417 18.7958 5.42499 19.4873 4.48799 20.5149L4.22627 20.8013C3.85425 21.2094 3.88336 21.842 4.29138 22.2141C4.69943 22.5862 5.332 22.557 5.70414 22.149L5.96586 21.8625C6.60697 21.1594 7.46178 20.6865 8.39815 20.5175L8.69372 20.4641C9.23708 20.366 9.5976 19.846 9.49971 19.3026Z" fill="black"/>
<path d="M27.7658 23.6381C27.4139 23.2127 26.7838 23.1524 26.3582 23.504L24.7293 24.8503C24.15 25.3295 23.4767 25.6823 22.7528 25.8855C21.7541 26.1657 20.6954 26.1521 19.7046 25.8451L16.5392 24.8633L13.8817 24.0547C12.7186 23.701 11.4841 23.6503 10.2957 23.9063C9.75618 24.0227 9.41285 24.5542 9.52882 25.0938C9.64512 25.6337 10.1777 25.977 10.7176 25.8607C11.5733 25.6765 12.4622 25.7141 13.2996 25.9688L15.952 26.7761L19.1121 27.7553C20.4712 28.1765 21.9233 28.1956 23.2931 27.8112C24.286 27.5326 25.2095 27.0492 26.0041 26.392L27.6317 25.0456C28.0571 24.6938 28.1173 24.0636 27.7658 23.6381Z" fill="black"/>
<path fill-rule="evenodd" clip-rule="evenodd" d="M19.4964 13.629L19.362 13.5016V13.7642L19.4964 13.629Z" fill="black"/>
<path fill-rule="evenodd" clip-rule="evenodd" d="M19.362 13.5016L19.4964 13.629L19.362 13.7642V13.5016ZM20.362 3.96362C19.8097 3.96362 19.362 4.41134 19.362 4.96362V7.89461C19.3623 8.44669 19.8099 8.89461 20.362 8.89461C20.9142 8.89461 21.3618 8.44669 21.362 7.89461V4.96362C21.362 4.41134 20.9143 3.96362 20.362 3.96362Z" fill="black"/>
<path fill-rule="evenodd" clip-rule="evenodd" d="M19.362 13.5016V13.7642L19.4964 13.629L19.362 13.5016Z" fill="black"/>
<path d="M27.1714 4.48781C26.7797 4.09852 26.1465 4.10051 25.7572 4.49218L4.25165 26.131C3.86233 26.5227 3.86429 27.1558 4.25602 27.5452C4.64775 27.9345 5.28091 27.9325 5.67022 27.5408L18.0866 15.0475L19.5782 16.4606C19.9489 16.8119 20.525 16.8278 20.9141 16.497L23.1745 14.5739C23.5953 14.2161 23.6468 13.5858 23.2891 13.165C22.9315 12.7444 22.301 12.6931 21.8803 13.0504L21.362 13.4913L21.362 11.7518L27.1758 5.90202C27.5651 5.51029 27.5631 4.87711 27.1714 4.48781ZM19.362 13.7642V13.5016L19.4964 13.629L19.362 13.7642Z" fill="black"/>
<path d="M10.5971 4.96362L10.5971 13.5016L10.1596 13.0869C9.75877 12.7073 9.12666 12.7241 8.7468 13.1246C8.36688 13.5255 8.38371 14.1588 8.78456 14.5387L10.8132 16.4606C11.1839 16.8119 11.76 16.8278 12.1491 16.497L14.4096 14.5739C14.8303 14.2161 14.8819 13.5858 14.5241 13.165C14.1665 12.7444 13.5361 12.6931 13.1153 13.0504L12.5971 13.4913L12.5971 4.96362C12.5971 4.41134 12.1493 3.96362 11.5971 3.96362C11.0448 3.96362 10.5971 4.41134 10.5971 4.96362Z" fill="black"/>
</svg>
