<?xml version="1.0" encoding="UTF-8"?>
<svg id="Capa_1" xmlns="http://www.w3.org/2000/svg" version="1.1" viewBox="0 0 32 32">
  <!-- Generator: Adobe Illustrator 30.0.0, SVG Export Plug-In . SVG Version: 2.1.1 Build 123)  -->
  <defs>
    <style>
      .st0 {
        fill-rule: evenodd;
      }
    </style>
  </defs>
  <path class="st0" d="M25.01,11.08l-.16-.13c.76-2.04.17-4.4-1.58-5.82l-.21-.16c-2.31-1.7-5.55-1.2-7.24,1.1l-8.05,10.72c-1.6,2.18-2.13,4.97-1.45,7.59.08.3.2.58.36.83l-.86,1.16c-.33.44-.23,1.07.21,1.4.44.33,1.07.23,1.4-.21l.83-1.12c.33.11.69.16,1.06.14l.5-.04c2.51-.26,4.8-1.56,6.3-3.61l7.69-10.25c.61.47.74,1.36.27,2l-3.84,5.01c-.34.44-.25,1.07.19,1.4.44.34,1.07.25,1.4-.19l3.85-5.03v-.02c1.12-1.51.82-3.65-.69-4.78ZM14.52,21.76c-1.17,1.59-2.95,2.6-4.9,2.8l-.39.03c-.21,0-.42-.05-.58-.17-.03-.02-.05-.05-.08-.07,0,0-.02-.01-.03-.02-.13-.12-.23-.28-.28-.46-.53-2.03-.12-4.2,1.12-5.89l3.93-5.24,5.08,3.85-3.88,5.17ZM22.56,11.03l-2.97,3.96-5.08-3.85,2.91-3.88c1.04-1.42,3.04-1.72,4.45-.68l.25.21c1.2,1.08,1.4,2.91.43,4.24Z"/>
</svg>