<svg width="32" height="32" viewBox="0 0 32 32" fill="none" xmlns="http://www.w3.org/2000/svg">
<path d="M7.20052 22.5221L7.19922 9.35409C7.19774 6.3564 9.62946 3.927 12.625 3.927H13.8672C14.4193 3.92719 14.8672 4.37483 14.8672 4.927C14.8672 5.47917 14.4193 5.92682 13.8672 5.927H12.625C10.7335 5.927 9.19839 7.46108 9.19922 9.35278L9.20052 22.5208C9.20087 24.4131 10.7354 25.9478 12.6263 25.9478H19.3737C21.2658 25.9476 22.7991 24.414 22.7995 22.5221V18.4387C22.7995 17.8865 23.2473 17.4389 23.7995 17.4387C24.3518 17.4387 24.7995 17.8864 24.7995 18.4387V22.5221C24.7991 25.5187 22.3703 27.9476 19.3737 27.9478H12.6263C9.63055 27.9478 7.20087 25.5186 7.20052 22.5221Z" fill="black"/>
<path d="M16.1264 21.4802C16.7531 21.5435 17.2423 22.0725 17.2423 22.7159C17.2423 23.4018 16.6861 23.958 16.0001 23.9581C15.3568 23.9581 14.8278 23.4688 14.7645 22.8422L14.7579 22.7159L14.7645 22.5883C14.8283 21.9622 15.3572 21.4737 16.0001 21.4737L16.1264 21.4802Z" fill="black"/>
<path d="M20.9725 7.82023C20.9725 8.37252 20.5248 8.82023 19.9725 8.82023H18.0754V10.9687H19.9725C20.5248 10.9687 20.9725 11.4164 20.9725 11.9687V13.8632H23.1131V11.9687C23.1131 11.4166 23.5611 10.969 24.1131 10.9687H26.0116V8.82023H24.1131C23.5611 8.81989 23.1131 8.3723 23.1131 7.82023V5.927H20.9725V7.82023ZM25.1131 6.82023H26.2603C27.227 6.82057 28.0116 7.60596 28.0116 8.57284V11.2161C28.0116 12.1857 27.2258 12.9683 26.2603 12.9687H25.1131V14.1119C25.1129 15.0788 24.3287 15.8632 23.3618 15.8632H20.7251C19.7582 15.8632 18.9728 15.0788 18.9725 14.1119V12.9687H17.8267C16.8609 12.9684 16.0754 12.1855 16.0754 11.2161V8.57284C16.0754 7.60617 16.8596 6.82054 17.8267 6.82023H18.9725V5.6783C18.9728 4.71148 19.7582 3.927 20.7251 3.927H23.3618C24.3287 3.927 25.1128 4.71148 25.1131 5.6783V6.82023Z" fill="black"/>
</svg>
