<svg width="32" height="32" viewBox="0 0 32 32" fill="none" xmlns="http://www.w3.org/2000/svg">
<path d="M21.6201 3.88013H10.3934C9.84676 3.88013 9.39342 4.33346 9.39342 4.88013C9.39342 5.42679 9.84676 5.88013 10.3934 5.88013H10.6068V22.7201C10.6068 24.2001 11.2068 25.5601 12.1801 26.5468C13.1534 27.5068 14.5001 28.1201 15.9934 28.1201C18.9668 28.1201 21.3934 25.6935 21.3934 22.7201V5.88013H21.6068C22.1534 5.88013 22.6068 5.42679 22.6068 4.88013C22.6068 4.33346 22.1534 3.88013 21.6068 3.88013H21.6201ZM19.4068 22.7201C19.4068 24.5868 17.8734 26.1201 16.0068 26.1201C15.0734 26.1201 14.2201 25.7335 13.5934 25.1201C12.9801 24.5068 12.6068 23.6535 12.6068 22.7201V10.2401H19.4068V22.7201ZM19.4068 8.24013H12.6068V5.88013H19.4068V8.24013Z" fill="black"/>
<path d="M16.9934 23.3853C17.7268 23.3853 18.3268 22.7853 18.3268 22.052C18.3268 21.3187 17.7268 20.7187 16.9934 20.7187C16.2601 20.7187 15.6601 21.3187 15.6601 22.052C15.6601 22.7853 16.2601 23.3853 16.9934 23.3853Z" fill="black"/>
<path d="M14.6735 18.6666C15.4068 18.6666 16.0068 18.0666 16.0068 17.3333C16.0068 16.5999 15.4068 15.9999 14.6735 15.9999C13.9401 15.9999 13.3401 16.5999 13.3401 17.3333C13.3401 18.0666 13.9401 18.6666 14.6735 18.6666Z" fill="black"/>
<path d="M17.3401 13.9478C18.0735 13.9478 18.6735 13.3478 18.6735 12.6145C18.6735 11.8812 18.0735 11.2812 17.3401 11.2812C16.6068 11.2812 16.0068 11.8812 16.0068 12.6145C16.0068 13.3478 16.6068 13.9478 17.3401 13.9478Z" fill="black"/>
<path d="M25.9661 6.78638C24.1261 6.78638 22.6328 8.27971 22.6328 10.1197C22.6328 11.9597 24.1261 13.453 25.9661 13.453C27.8061 13.453 29.2994 11.9597 29.2994 10.1197C29.2994 8.27971 27.8061 6.78638 25.9661 6.78638ZM25.9661 11.453C25.2194 11.453 24.6328 10.8664 24.6328 10.1197C24.6328 9.37304 25.2194 8.78638 25.9661 8.78638C26.7128 8.78638 27.2994 9.38638 27.2994 10.1197C27.2994 10.853 26.6994 11.453 25.9661 11.453Z" fill="black"/>
<path d="M9.05342 16.7733C9.05342 17.3333 8.60009 17.7733 8.05342 17.7733H6.68009V19.0799C6.68009 19.6399 6.22676 20.0799 5.68009 20.0799C5.13342 20.0799 4.68009 19.6399 4.68009 19.0799V17.7733H3.42676C2.86676 17.7733 2.42676 17.3333 2.42676 16.7733C2.42676 16.2133 2.86676 15.7733 3.42676 15.7733H4.68009V14.4533C4.68009 13.9066 5.13342 13.4533 5.68009 13.4533C6.22676 13.4533 6.68009 13.9066 6.68009 14.4533V15.7733H8.05342C8.60009 15.7733 9.05342 16.2266 9.05342 16.7733Z" fill="black"/>
</svg>
