<svg width="32" height="32" viewBox="0 0 32 32" fill="none" xmlns="http://www.w3.org/2000/svg">
<path fill-rule="evenodd" clip-rule="evenodd" d="M25.7372 10.6882C25.7789 10.8675 25.8063 11.0509 25.8188 11.2369C25.8246 11.1934 25.8275 11.1491 25.8275 11.1041C25.8275 10.9557 25.7952 10.8149 25.7372 10.6882Z" fill="black"/>
<path d="M15.8101 19.9635C15.2578 19.9635 14.8101 19.5158 14.8101 18.9635C14.8101 18.4113 15.2578 17.9635 15.8101 17.9635H21.0211C21.5733 17.9635 22.0211 18.4113 22.0211 18.9635C22.0211 19.5158 21.5733 19.9635 21.0211 19.9635H15.8101ZM11.025 23.849C10.4727 23.849 10.025 23.4012 10.025 22.849C10.025 22.2967 10.4727 21.849 11.025 21.849H21.0211C21.5733 21.849 22.0211 22.2967 22.0211 22.849C22.0211 23.4012 21.5733 23.849 21.0211 23.849H11.025Z" fill="black"/>
<path fill-rule="evenodd" clip-rule="evenodd" d="M12.5955 10.5912H12.2883C12.3384 10.599 12.3897 10.603 12.4419 10.603C12.4941 10.603 12.5454 10.599 12.5955 10.5912Z" fill="black"/>
<path d="M13.9944 8.59124L13.4419 8.58082C13.4419 8.02854 12.9942 7.58082 12.4419 7.58082C11.8896 7.58082 11.4419 8.02854 11.4419 8.58082V8.61289C10.3699 8.76374 9.54524 9.68461 9.54516 10.7983C9.54516 12.0172 10.5332 13.0053 11.7522 13.0053H13.1324C13.2465 13.0056 13.3392 13.0982 13.3394 13.2123C13.3394 13.3266 13.2466 13.419 13.1324 13.4194H10.8902C10.3381 13.4194 9.89046 13.8673 9.89022 14.4194C9.89022 14.9717 10.3379 15.4194 10.8902 15.4194H11.4419V15.4415C11.4419 15.9938 11.8896 16.4415 12.4419 16.4415C12.9942 16.4415 13.4419 15.9938 13.4419 15.4415V15.3978C14.5142 15.247 15.3394 14.3262 15.3394 13.2123C15.3392 11.9936 14.3511 11.0056 13.1324 11.0053H11.7522C11.6378 11.0053 11.5452 10.9127 11.5452 10.7983C11.5452 10.6838 11.6379 10.5913 11.7522 10.5912H12.2883H12.5955H13.9944C14.5466 10.5912 14.9944 10.1435 14.9944 9.59124C14.9944 9.039 14.5466 8.59132 13.9944 8.59124Z" fill="black"/>
<path d="M6.17285 7.35807V24.5221C6.17293 26.4285 7.71834 27.9739 9.62467 27.974H22.3747C24.2798 27.974 25.8263 26.4323 25.8265 24.5247V11.4674C25.8265 11.3902 25.8239 11.3133 25.8188 11.2369C25.8063 11.0509 25.7789 10.8675 25.7372 10.6882C25.5924 10.0651 25.2752 9.49167 24.8161 9.03255L20.7002 4.91667C20.0542 4.27092 19.1808 3.90636 18.264 3.90625H9.62337C7.71633 3.90633 6.17293 5.45241 6.17285 7.35807ZM19.7442 6.78997L23.0593 10.1041H20.5828C20.1198 10.1038 19.7445 9.72846 19.7442 9.26551V6.78997ZM9.62337 5.90625H17.7442V9.26551C17.7445 10.8331 19.0153 12.1038 20.5828 12.1041H23.8265V24.5247C23.8263 25.3252 23.1777 25.974 22.3747 25.974H9.62467C8.82289 25.9739 8.17293 25.3239 8.17285 24.5221V7.35807C8.17293 6.5556 8.82228 5.90633 9.62337 5.90625Z" fill="black"/>
</svg>
