<svg width="32" height="32" viewBox="0 0 32 32" fill="none" xmlns="http://www.w3.org/2000/svg">
<path d="M16.5365 14.3072V12.6614C16.5365 12.1091 16.0887 11.6614 15.5365 11.6614C14.9842 11.6614 14.5365 12.1091 14.5365 12.6614V14.3072H12.8922C12.3399 14.3072 11.8922 14.7549 11.8922 15.3072C11.8922 15.8595 12.3399 16.3072 12.8922 16.3072H14.5365V17.9491C14.5365 18.5014 14.9842 18.9491 15.5365 18.9491C16.0887 18.9491 16.5364 18.5014 16.5365 17.9491V16.3072H18.1799C18.7322 16.3072 19.1799 15.8595 19.1799 15.3072C19.1799 14.7549 18.7322 14.3072 18.1799 14.3072H16.5365Z" fill="black"/>
<path d="M23.815 22.6671C25.5612 20.7109 26.6225 18.1303 26.6226 15.302C26.6226 9.19223 21.6698 4.23959 15.5601 4.2395C9.4503 4.2395 4.49756 9.19219 4.49756 15.302C4.49762 21.4116 9.45019 26.3658 15.5601 26.3658C18.1211 26.3658 20.4789 25.4953 22.3537 24.0341L25.796 27.4687C26.1868 27.8586 26.8199 27.858 27.21 27.4674C27.6 27.0765 27.5995 26.4434 27.2087 26.0533L23.815 22.6671ZM15.5601 6.2395C20.5652 6.23959 24.6226 10.2968 24.6226 15.302C24.6225 20.3072 20.565 24.3657 15.5601 24.3658C10.5551 24.3658 6.49762 20.3073 6.49756 15.302C6.49756 10.2968 10.5549 6.2395 15.5601 6.2395Z" fill="black"/>
</svg>
