<svg width="32" height="32" viewBox="0 0 32 32" fill="none" xmlns="http://www.w3.org/2000/svg">
<path fill-rule="evenodd" clip-rule="evenodd" d="M13.6514 20.6082C13.6494 20.6123 13.6473 20.6164 13.6453 20.6206L13.6514 20.6082Z" fill="black"/>
<path fill-rule="evenodd" clip-rule="evenodd" d="M16.1096 4.27873C16.4155 4.06525 16.8156 4.03957 17.1461 4.21232C20.4092 5.91779 23.2509 8.3334 24.9352 11.823C26.5521 14.9706 26.717 18.6578 25.5315 21.7332C24.3366 24.8324 21.7578 27.3249 17.9508 27.9532C8.06788 30.0695 1.43321 17.9873 8.88047 10.8686C9.23779 10.5148 10.2795 9.54442 10.7646 9.1967C10.9829 9.04025 11.2553 8.97857 11.5198 9.02482C11.7844 9.0712 12.02 9.22264 12.1721 9.44409C13.0854 10.7737 13.6183 12.1939 13.7398 13.6928C13.8791 13.593 14.0151 13.4717 14.1461 13.3243C14.5852 12.8302 14.9593 12.0856 15.2411 11.1524C15.8048 9.28588 15.9147 6.94946 15.6904 5.22795C15.6423 4.85828 15.804 4.49214 16.1096 4.27873ZM13.6514 20.6082L13.6453 20.6206C13.0822 21.7166 13.0275 23.0063 13.4261 24.0404C13.7911 24.987 14.5197 25.7165 15.5993 25.9675L15.8207 26.0118L15.8649 26.0196C17.2333 26.3081 18.6097 25.6012 19.3076 24.4597C19.6485 23.9021 19.8054 23.271 19.7308 22.6433C19.688 22.2839 19.5639 21.9031 19.3311 21.5144L19.2292 21.6425C19.1122 21.7899 18.9928 21.9404 18.8727 22.0808C18.6472 22.3445 18.3779 22.6386 18.1149 22.8438C17.9936 22.9385 17.7857 23.0858 17.5212 23.1563C17.3774 23.1946 17.1727 23.2225 16.9417 23.1681C16.6956 23.1099 16.4877 22.9739 16.3363 22.7944C15.378 21.6562 15.1145 20.1313 15.0589 18.9858C14.4244 19.5527 13.8752 20.142 13.6514 20.6082ZM17.7932 6.89592C17.8041 8.4747 17.6148 10.2128 17.1565 11.7306C16.8284 12.8172 16.3434 13.8619 15.6409 14.6524C14.9189 15.4648 13.9496 16.0207 12.7385 16.0209C12.4579 16.0209 12.1897 15.9024 12.0003 15.6954C11.811 15.4884 11.7177 15.2117 11.7424 14.9324C11.8469 13.7576 11.632 12.6322 11.0888 11.5378C10.7747 11.8223 10.4628 12.1174 10.288 12.2904C10.2856 12.2929 10.2764 12.3011 10.2737 12.3035C5.96084 16.4132 7.50999 22.6305 11.712 25.1154C11.6573 24.9985 11.6067 24.8797 11.5602 24.7592C10.9539 23.186 11.0409 21.3139 11.861 19.7175C12.3316 18.7573 13.3327 17.8139 14.0889 17.1759C14.4918 16.8359 14.8684 16.5464 15.1449 16.3425C15.2834 16.2404 15.3977 16.1582 15.4782 16.1016C15.5046 16.0831 15.5278 16.0674 15.5469 16.0545L15.5733 16.0365L15.5993 16.0183L15.611 16.0105L15.7399 15.9363C16.0515 15.7872 16.4226 15.8088 16.7178 16.0014C17.0549 16.2214 17.2275 16.6223 17.1553 17.0183L17.1514 17.0404C17.1481 17.0602 17.1432 17.092 17.1371 17.1342C17.1248 17.219 17.1085 17.3459 17.0928 17.5053C17.0612 17.8266 17.033 18.2723 17.0498 18.7657C17.073 19.4464 17.1807 20.1313 17.4092 20.7097C17.5986 20.4849 17.7973 20.2371 17.9925 19.991C18.1964 19.734 18.4147 19.4606 18.5915 19.267L18.7399 19.1329C18.8999 19.0161 19.0924 18.9488 19.2933 18.9415C19.5614 18.9317 19.8224 19.0306 20.0173 19.2149C21.0291 20.1724 21.5821 21.2774 21.7165 22.4076C21.7849 22.9833 21.7426 23.547 21.6112 24.0806C22.5251 23.2415 23.2125 22.1885 23.6656 21.0131C24.6434 18.4766 24.5163 15.3841 23.1565 12.7371C23.1525 12.7293 23.1486 12.7215 23.1448 12.7136C21.9611 10.2495 20.0874 8.3627 17.7932 6.89592Z" fill="black"/>
</svg>
