<svg width="32" height="32" viewBox="0 0 32 32" fill="none" xmlns="http://www.w3.org/2000/svg">
<path d="M29.8265 25.285C29.5548 26.1257 29.0851 26.7505 28.3533 27.1172C27.6911 27.449 26.9223 27.5087 26.197 27.5168C25.8213 27.5211 25.4131 27.5111 24.9927 27.5003C24.5665 27.4893 24.117 27.4782 23.6319 27.4782C22.3597 27.4781 21.4738 27.0787 20.8495 26.3549C20.5657 26.0257 20.3663 25.6644 20.2106 25.3403C20.1323 25.1773 20.06 25.0119 19.9933 24.8597C19.9245 24.7027 19.8616 24.5596 19.7953 24.4168C19.5351 23.8566 19.2696 23.4349 18.8 23.1214C18.3221 22.8024 17.5061 22.5136 15.9974 22.5137C14.4883 22.5139 13.6722 22.8023 13.1947 23.1214C12.7256 23.4349 12.46 23.8573 12.2004 24.4177C12.1343 24.5604 12.0728 24.7038 12.0043 24.8606C11.9377 25.013 11.8651 25.1781 11.787 25.3412C11.6315 25.6655 11.4325 26.0273 11.1489 26.3567C10.5253 27.0811 9.63951 27.4803 8.36744 27.4809C7.88187 27.481 7.43136 27.4923 7.00479 27.503C6.58424 27.5136 6.17636 27.5243 5.8005 27.5196C5.07446 27.5106 4.30606 27.449 3.64419 27.1163C2.9133 26.749 2.44361 26.1249 2.17197 25.285C1.91511 24.4908 1.81936 23.4609 1.81934 22.1666C1.81934 22.1299 1.82084 22.0925 1.82486 22.0561C1.82055 22.0951 1.82409 22.1144 1.82302 22.0193C1.82227 21.953 1.81908 21.8511 1.8221 21.7329C1.82823 21.4925 1.85392 21.1747 1.93995 20.8104C2.11566 20.0664 2.53337 19.1912 3.45544 18.3742C5.25521 16.7797 8.851 15.5089 15.9965 15.508C23.1421 15.5071 26.7391 16.7762 28.5402 18.3696C29.4632 19.1861 29.8821 20.0609 30.0585 20.8048C30.1448 21.169 30.1701 21.4869 30.1763 21.7274V22.0828C30.1763 22.088 30.1758 22.073 30.1736 22.0524C30.1775 22.0884 30.1791 22.1248 30.1791 22.1611C30.1791 23.4587 30.0833 24.49 29.8265 25.285ZM27.4575 25.3301C27.6124 25.2525 27.7797 25.1151 27.9234 24.6709C28.0818 24.1805 28.1793 23.4023 28.1793 22.1611C28.1765 22.0868 28.1772 22.0201 28.1775 21.9916C28.1783 21.9208 28.1785 21.8544 28.1766 21.779C28.1727 21.6322 28.1576 21.4593 28.1121 21.267C28.0244 20.8971 27.8082 20.3938 27.2144 19.8685C25.9815 18.7778 23.0176 17.5069 15.9965 17.5078C8.97597 17.5087 6.01371 18.7794 4.78219 19.8703C4.18913 20.3957 3.97287 20.8995 3.88541 21.2698C3.8399 21.4626 3.82658 21.6363 3.82281 21.7836C3.82088 21.8591 3.82109 21.9253 3.82188 21.9962C3.82221 22.0248 3.82014 22.0921 3.81728 22.1666C3.81731 23.4038 3.9168 24.1795 4.07508 24.6691C4.21854 25.1127 4.38608 25.2508 4.54188 25.3292C4.76693 25.4423 5.13636 25.5103 5.82535 25.5189C6.15677 25.523 6.52582 25.514 6.95507 25.5032C7.37856 25.4926 7.85239 25.4803 8.36652 25.4802C9.16632 25.4798 9.45652 25.2587 9.63434 25.0521C9.75145 24.916 9.8599 24.7341 9.98329 24.4766C10.0445 24.3489 10.1043 24.2134 10.1711 24.0605C10.236 23.9119 10.3089 23.7437 10.3866 23.5762C10.702 22.8954 11.1603 22.076 12.0844 21.4586C13.0005 20.8465 14.2499 20.5141 15.9974 20.5139C17.7446 20.5138 18.9931 20.8461 19.9095 21.4576C20.8341 22.0747 21.2939 22.8937 21.61 23.5743C21.6878 23.7417 21.7596 23.9094 21.8246 24.0577C21.8914 24.2104 21.952 24.3454 22.0133 24.473C22.137 24.7305 22.2458 24.9132 22.3632 25.0493C22.5415 25.2561 22.8327 25.4775 23.6328 25.4775C24.147 25.4775 24.6207 25.4896 25.0443 25.5005C25.4738 25.5115 25.8432 25.5208 26.1749 25.5171C26.8642 25.5093 27.2328 25.4427 27.4575 25.3301Z" fill="black"/>
<path d="M14.9153 4.96362C14.9153 4.41134 15.363 3.96362 15.9153 3.96362C16.4676 3.96362 16.9153 4.41134 16.9153 4.96362V12.4324C16.9153 12.9847 16.4676 13.4324 15.9153 13.4324C15.363 13.4324 14.9153 12.9847 14.9153 12.4324V4.96362Z" fill="black"/>
<path d="M6.6474 7.6827C6.51802 7.14604 6.84788 6.60548 7.38454 6.4758C7.9212 6.34612 8.4615 6.67642 8.59145 7.21294L9.85944 12.4603C9.98916 12.9972 9.65913 13.5375 9.1223 13.6673C8.58547 13.797 8.04512 13.4669 7.91539 12.9301L6.6474 7.6827Z" fill="black"/>
<path d="M25.426 7.95207C25.5554 7.41541 25.2255 6.87484 24.6889 6.74516C24.1522 6.61548 23.6119 6.94579 23.4819 7.48231L22.214 12.7297C22.0842 13.2666 22.4143 13.8069 22.9511 13.9366C23.4879 14.0663 24.0283 13.7363 24.158 13.1995L25.426 7.95207Z" fill="black"/>
</svg>
