<?xml version="1.0" encoding="UTF-8"?>
<svg id="Capa_1" xmlns="http://www.w3.org/2000/svg" version="1.1" viewBox="0 0 32 32">
  <!-- Generator: Adobe Illustrator 30.0.0, SVG Export Plug-In . SVG Version: 2.1.1 Build 123)  -->
  <defs>
    <style>
      .st0 {
        fill-rule: evenodd;
      }
    </style>
  </defs>
  <path class="st0" d="M7.64,9.59c.49-1.06,1.27-2.07,2.3-2.87.44-.34.51-.97.17-1.4-.34-.44-.97-.51-1.4-.17-1.27.99-2.26,2.26-2.89,3.62-.23.5,0,1.1.49,1.33.5.23,1.1.01,1.33-.49Z"/>
  <path class="st0" d="M26.18,8.76c-.62-1.36-1.61-2.62-2.89-3.62-.44-.34-1.06-.26-1.4.17-.34.44-.26,1.06.17,1.4,1.02.8,1.81,1.81,2.3,2.87.23.5.82.72,1.33.49.5-.23.72-.82.49-1.33Z"/>
  <path class="st0" d="M24.95,17.6c-.32-.67-.48-1.4-.48-2.14v-1.5c0-4.34-3.27-7.92-7.47-8.41v-.64c0-.55-.45-1-1-1s-1,.45-1,1v.64c-4.21.49-7.47,4.07-7.47,8.41v1.5c0,.65-.13,1.29-.37,1.89l-.11.25-.53,1.13c-1.12,2.39.62,5.13,3.26,5.13h1.72c.21,2.3,2.15,4.11,4.51,4.11,2.36,0,4.3-1.81,4.51-4.11h1.72c2.64,0,4.38-2.74,3.25-5.13l-.53-1.13ZM16,25.97c-1.25,0-2.29-.91-2.49-2.11h4.98c-.2,1.2-1.24,2.11-2.49,2.11ZM22.23,21.86h-12.45c-1.17,0-1.94-1.22-1.45-2.28l.53-1.13c.39-.82.61-1.7.66-2.61v-.39s.01-1.5.01-1.5c0-3.57,2.9-6.47,6.47-6.47,3.46,0,6.29,2.72,6.46,6.14v.33s.01,1.5.01,1.5c0,1.03.23,2.06.67,2.99l.53,1.13c.5,1.06-.28,2.28-1.45,2.28Z"/>
</svg>