<svg width="32" height="32" viewBox="0 0 32 32" fill="none" xmlns="http://www.w3.org/2000/svg">
<path fill-rule="evenodd" clip-rule="evenodd" d="M15.345 6.62232C15.1658 6.80174 15.0689 7.03241 15.0543 7.26721C15.067 6.94577 15.2313 6.66332 15.4778 6.48948L15.345 6.62232Z" fill="black"/>
<path fill-rule="evenodd" clip-rule="evenodd" d="M16.7953 24.142C16.7551 24.0769 16.7074 24.0169 16.6533 23.9635C16.7084 24.0186 16.7558 24.0786 16.7953 24.142ZM16.9461 24.6615L16.9463 24.6796C16.9463 24.8618 16.8955 25.0306 16.809 25.1764C16.9019 25.018 16.9476 24.8396 16.9461 24.6615ZM16.6533 25.3775C16.6444 25.3865 16.6358 25.3958 16.6272 25.4051C16.6084 25.4254 16.5896 25.4457 16.5679 25.463L16.6533 25.3775Z" fill="black"/>
<path d="M8.1377 11.9218V20.0624C8.13772 21.2385 8.54521 22.1175 9.17806 22.707C9.81893 23.3038 10.7733 23.6796 11.988 23.6796H13.5413L12.9541 23.0924C12.5636 22.7018 12.5636 22.0688 12.9541 21.6783C13.3446 21.288 13.9777 21.2879 14.3682 21.6783L16.6533 23.9635C16.8441 24.1543 16.9418 24.4114 16.9461 24.6615C16.9505 24.9231 16.8529 25.1779 16.6533 25.3775L16.5679 25.463L14.3551 27.6757C13.9646 28.066 13.3315 28.0661 12.9411 27.6757C12.5509 27.2852 12.5509 26.6521 12.9411 26.2616L13.5231 25.6796H11.988C10.3601 25.6796 8.88856 25.1706 7.81478 24.1705C6.73295 23.1629 6.13772 21.7323 6.1377 20.0624V11.9218C6.13781 10.2527 6.73323 8.82342 7.81478 7.81633C8.8886 6.81667 10.3602 6.30724 11.988 6.30721C12.5402 6.30721 12.988 6.75493 12.988 7.30721C12.988 7.8595 12.5402 8.30721 11.988 8.30721C10.773 8.30724 9.8189 8.68328 9.17806 9.27987C8.54536 9.86888 8.13781 10.7466 8.1377 11.9218Z" fill="black"/>
<path d="M19.0572 5.7382L18.4882 6.30721H20.0119C21.6407 6.30734 23.112 6.81988 24.1851 7.82023C25.2657 8.82784 25.862 10.2565 25.8621 11.9218V20.0637C25.8621 21.7331 25.2655 23.1631 24.1838 24.1705C23.1101 25.1701 21.6393 25.6795 20.0119 25.6796C19.4596 25.6796 19.0119 25.2319 19.0119 24.6796C19.0119 24.1273 19.4596 23.6796 20.0119 23.6796C21.2264 23.6795 22.1809 23.3037 22.8218 22.707C23.4546 22.1176 23.8621 21.239 23.8621 20.0637V11.9218C23.862 10.7517 23.4541 9.87316 22.8205 9.28247C22.1791 8.68471 21.2251 8.30734 20.0119 8.30721H18.4449L19.0442 8.90747C19.4346 9.29802 19.4346 9.93109 19.0442 10.3215C18.6537 10.7119 18.0206 10.7119 17.6301 10.3215L15.345 8.03638C15.1341 7.82537 15.0372 7.54342 15.0543 7.26721C15.0689 7.03241 15.1658 6.80174 15.345 6.62232L15.4778 6.48948L17.6431 4.32414C18.0337 3.93362 18.6667 3.93362 19.0572 4.32414C19.4477 4.71467 19.4477 5.34768 19.0572 5.7382Z" fill="black"/>
</svg>
