<svg width="32" height="32" viewBox="0 0 32 32" fill="none" xmlns="http://www.w3.org/2000/svg">
<path fill-rule="evenodd" clip-rule="evenodd" d="M27.9486 22.3152C27.9482 25.2201 25.5931 27.5743 22.6882 27.5743H9.31315C6.40817 27.5743 4.05307 25.2202 4.05273 22.3152V14.2683C4.0528 12.825 4.7028 11.4586 5.82096 10.547L12.9681 4.72407C14.7332 3.287 17.2668 3.28693 19.0319 4.72407L22.4342 7.4949V5.82823C22.4342 5.27614 22.8822 4.82855 23.4342 4.82823C23.9865 4.82823 24.4342 5.27595 24.4342 5.82823V9.12381L26.1803 10.547L26.3848 10.7228C27.3775 11.6294 27.9485 12.9153 27.9486 14.2683V22.3152ZM24.916 12.0965C25.5687 12.6285 25.9485 13.4265 25.9486 14.2683V22.3152C25.9482 24.1156 24.4885 25.5743 22.6882 25.5743H19.1593L19.1515 21.4119C21.1324 20.304 22.478 18.1913 22.478 15.756C22.4779 13.0722 20.8474 10.7687 18.5245 9.79347C18.2158 9.66392 17.8623 9.69658 17.5835 9.88186C17.3047 10.0672 17.1369 10.3803 17.1369 10.7151V14.5747C17.1369 14.5916 17.1278 14.6062 17.1158 14.6143L16.0256 15.3454C16.0184 15.3501 16.01 15.3526 16.0017 15.3527L15.9769 15.3444L14.8803 14.6125L14.8646 14.5968C14.8615 14.5908 14.86 14.5832 14.86 14.5757L14.8609 10.7151C14.8609 10.3798 14.692 10.0671 14.4126 9.88186C14.133 9.69671 13.7794 9.66373 13.4707 9.79439C11.1524 10.7766 9.5199 13.0698 9.5199 15.756C9.51991 18.1923 10.8655 20.3068 12.8529 21.4147L12.859 25.5743H9.31315C7.51275 25.5743 6.05307 24.1156 6.05273 22.3152V14.2683C6.0528 13.4266 6.43144 12.6285 7.08398 12.0965L14.2311 6.27354C15.2608 5.43536 16.7392 5.43667 17.7689 6.27485L24.916 12.0965ZM17.1526 20.7978L17.159 25.5743H14.8597L14.8527 20.796C14.8521 20.3963 14.6134 20.0353 14.2459 19.878C12.6374 19.1902 11.5197 17.6026 11.5197 15.756C11.5197 14.5052 12.0325 13.377 12.8593 12.5657L12.8602 14.5757C12.8603 15.2565 13.2001 15.8962 13.769 16.2762L14.8665 17.0091C15.5546 17.4682 16.452 17.467 17.1388 17.0073L18.2317 16.2753C18.7979 15.895 19.1355 15.2578 19.1367 14.5784L19.1358 12.5611C19.9628 13.3715 20.4782 14.5027 20.4782 15.756C20.4782 17.6029 19.3598 19.1901 17.7584 19.8771C17.4365 20.0152 17.2131 20.3099 17.1627 20.6496L17.1526 20.7978Z" fill="black"/>
</svg>
