<svg width="32" height="32" viewBox="0 0 32 32" fill="none" xmlns="http://www.w3.org/2000/svg">
<path d="M9.90596 11.8366C10.027 11.8485 10.1381 11.8764 10.2172 11.8991C10.3832 11.9467 10.5719 12.0196 10.7588 12.0996C11.1406 12.2631 11.6208 12.5014 12.1169 12.7793C13.0702 13.3132 14.2628 14.0892 14.9047 14.8457C15.1479 15.1326 15.2839 15.4861 15.2836 15.8652C15.2831 16.2262 15.1602 16.5403 15.0101 16.7845C14.7188 17.2583 14.2395 17.6211 13.7575 17.8665C12.808 18.35 11.3491 18.614 10.1143 17.8926C9.54138 17.5574 9.16981 17.0275 8.9333 16.5189C8.69373 16.0036 8.55627 15.4356 8.48929 14.9121C8.42234 14.3884 8.42073 13.8635 8.48017 13.4173C8.50975 13.1954 8.55812 12.9649 8.63642 12.7532C8.70446 12.5694 8.84215 12.271 9.12601 12.0514C9.33051 11.8931 9.53885 11.8519 9.63903 11.8392C9.75068 11.825 9.84563 11.8306 9.90596 11.8366ZM10.4372 14.1556C10.4394 14.3127 10.4512 14.4836 10.4737 14.6595C10.5218 15.0353 10.6156 15.3922 10.7471 15.6751C10.8816 15.9642 11.0219 16.1066 11.1234 16.166C11.5672 16.4253 12.2622 16.3833 12.85 16.084C12.9746 16.0205 13.0687 15.954 13.1403 15.8978C12.6825 15.4746 11.9224 14.9641 11.139 14.5254C10.89 14.3859 10.6514 14.2614 10.4372 14.1556Z" fill="black"/>
<path d="M12.9647 22.3117C14.8612 21.4922 16.9185 21.6595 18.94 22.2726C19.4683 22.4329 19.7667 22.9916 19.6066 23.52C19.4463 24.0485 18.8877 24.347 18.3592 24.1867C16.5747 23.6454 15.051 23.5896 13.759 24.1476C13.252 24.3667 12.6629 24.1338 12.4439 23.6268C12.2249 23.1199 12.4579 22.5308 12.9647 22.3117Z" fill="black"/>
<path d="M22.3734 11.8392C22.4737 11.852 22.6822 11.892 22.8864 12.0501C23.1704 12.2696 23.3066 12.5693 23.3747 12.7532C23.453 12.9649 23.5027 13.1954 23.5323 13.4173C23.5917 13.8635 23.5888 14.3884 23.5218 14.9121C23.4548 15.4357 23.3174 16.0036 23.0778 16.5189C22.8412 17.0277 22.4702 17.5575 21.8968 17.8926C20.6619 18.6141 19.2031 18.3501 18.2536 17.8665C17.7718 17.6211 17.2936 17.258 17.0023 16.7845C16.8522 16.5403 16.728 16.2262 16.7276 15.8652C16.7272 15.4859 16.8643 15.1327 17.1078 14.8457L17.3721 14.5618C18.0433 13.8993 19.06 13.2466 19.8942 12.7793C20.3902 12.5015 20.8706 12.2631 21.2523 12.0996C21.4392 12.0196 21.6279 11.9467 21.794 11.8991C21.873 11.8764 21.984 11.8485 22.1052 11.8366C22.1656 11.8306 22.2613 11.8249 22.3734 11.8392ZM21.5726 14.1556C21.3588 14.2613 21.1206 14.3862 20.8721 14.5254C20.0883 14.9644 19.3271 15.4745 18.8695 15.8978C18.9412 15.9542 19.036 16.0202 19.1612 16.084C19.7489 16.3833 20.444 16.4253 20.8877 16.166L20.9711 16.1048C21.0596 16.0263 21.1633 15.8918 21.264 15.6751C21.3955 15.3922 21.4893 15.0354 21.5375 14.6595C21.56 14.4836 21.5705 14.3127 21.5726 14.1556Z" fill="black"/>
<path fill-rule="evenodd" clip-rule="evenodd" d="M26.0293 20.4464V26.7343C26.0293 27.2866 26.477 27.7343 27.0293 27.7343C27.5815 27.7342 28.0293 27.2865 28.0293 26.7343V15.7187C28.0293 9.2754 22.8059 4.05209 16.3626 4.052H15.6491C9.20577 4.052 3.98242 9.27535 3.98242 15.7187V26.7343C3.98242 27.2866 4.43014 27.7343 4.98242 27.7343C5.53471 27.7343 5.98242 27.2866 5.98242 26.7343V20.4457L9.44076 20.7356C13.9636 21.1139 18.5106 21.1055 23.0319 20.7096L26.0293 20.4464ZM26.0293 18.4427C26.0004 18.4427 25.9713 18.444 25.9421 18.4465L22.8574 18.7161C18.4495 19.1021 14.0168 19.111 9.60742 18.7421L6.06576 18.4465C6.03779 18.4442 6.00999 18.443 5.98242 18.443V15.7187C5.98242 14.0457 6.40739 12.4721 7.15526 11.0997L10.1264 11.3346C14.1756 11.6558 18.2447 11.6507 22.2931 11.3189L24.861 11.1082C25.6061 12.4785 26.0293 14.0492 26.0293 15.7187V18.4427ZM16.3626 6.052C19.1957 6.05205 21.7441 7.2708 23.5122 9.2126L22.1303 9.32544C18.189 9.64849 14.2274 9.65384 10.2852 9.34106L8.51089 9.2001C10.2785 7.26554 12.8221 6.052 15.6491 6.052H16.3626Z" fill="black"/>
</svg>
