<svg width="32" height="32" viewBox="0 0 32 32" fill="none" xmlns="http://www.w3.org/2000/svg">
<path d="M24.292 22.8073C24.0676 22.3027 23.4763 22.0751 22.9717 22.2995C22.4672 22.5239 22.2409 23.1152 22.4652 23.6198L24.7464 28.7526C24.9708 29.2573 25.5621 29.4848 26.0667 29.2604C26.5713 29.036 26.7989 28.4447 26.5745 27.9401L24.292 22.8073Z" fill="black"/>
<path d="M18.6265 6.36589C18.6265 5.44021 19.3815 4.68767 20.3035 4.6875C21.2259 4.6875 21.9819 5.44018 21.9819 6.36589C21.9817 7.29079 21.2265 8.04167 20.3035 8.04167C19.381 8.0415 18.6267 7.29075 18.6265 6.36589ZM16.6265 6.36589C16.6267 8.39975 18.2808 10.0415 20.3035 10.0417C22.3265 10.0417 23.9817 8.39992 23.9819 6.36589C23.9819 4.33234 22.3272 2.6875 20.3035 2.6875C18.28 2.68767 16.6265 4.33251 16.6265 6.36589Z" fill="black"/>
<path d="M9.84766 27.3021C9.51539 27.302 9.2337 27.0569 9.1875 26.7279L8.7474 23.5872C8.69119 23.1862 9.00256 22.8281 9.40755 22.8281H11.6966C12.0994 22.8281 12.4108 23.1827 12.3581 23.582L11.944 26.7227C11.9003 27.0543 11.617 27.3021 11.2826 27.3021H9.84766ZM7.2526 27.2487C7.53343 28.4412 8.60128 29.302 9.84766 29.3021H11.2826L11.5313 29.2904C12.6764 29.184 13.6277 28.3506 13.8828 27.2292L13.9258 26.9844L14.3411 23.8438C14.4943 22.6832 13.8795 21.6172 12.9139 21.121L14.4889 15.2429C14.5473 15.2598 14.6069 15.2747 14.6677 15.2878C15.1053 15.3815 15.5554 15.36 15.962 15.3359C16.7022 15.292 17.4489 15.0484 18.0408 14.8553C18.177 14.8109 18.3051 14.7691 18.4229 14.7331C19.0443 14.5431 19.5137 14.4546 19.9464 14.5234L20.13 14.5625C20.9922 14.7964 21.5473 15.4748 21.6586 16.3854L21.6755 16.5703C21.7268 17.499 21.2858 18.1544 20.4698 18.9375C20.2656 19.1335 20.0488 19.3274 19.8162 19.5352L19.7916 19.5571C19.5709 19.7541 19.3358 19.9641 19.1078 20.1823C18.6361 20.6338 18.148 21.1641 17.7823 21.8099C16.6957 23.729 16.6554 26.0973 16.6241 27.9311C16.6218 28.0656 16.6195 28.1972 16.6169 28.3255C16.6058 28.8776 17.044 29.3338 17.5961 29.3451C18.1483 29.3563 18.6044 28.9181 18.6156 28.3659L18.621 28.0961C18.6592 26.1291 18.6957 24.2525 19.5206 22.7956C19.7454 22.3983 20.0739 22.0264 20.4906 21.6276C20.6962 21.4309 20.9217 21.2295 21.152 21.0239C21.3792 20.8209 21.622 20.6041 21.8552 20.3802C22.7933 19.4798 23.7736 18.2846 23.6729 16.4596C23.5757 14.6932 22.4956 13.1311 20.6534 12.6315L20.4542 12.5846C19.4665 12.3744 18.5601 12.5997 17.8383 12.8203C17.6441 12.8797 17.4656 12.9371 17.2987 12.9909C16.7353 13.1722 16.3036 13.3112 15.8435 13.3385C15.4082 13.3643 15.2208 13.3607 15.087 13.332C15.0378 13.3215 14.9825 13.3051 14.9072 13.26C14.831 12.9045 14.5631 12.6034 14.1879 12.5028C13.6544 12.36 13.106 12.6765 12.9631 13.2099L10.9218 20.8281H9.40755L9.10807 20.8451C7.63696 21.0083 6.55445 22.3617 6.76563 23.8659L7.20703 27.0065L7.2526 27.2487Z" fill="black"/>
</svg>
