<svg width="32" height="32" viewBox="0 0 32 32" fill="none" xmlns="http://www.w3.org/2000/svg">
<path d="M25.9894 16.0052C25.9894 10.4877 21.5173 6.01562 15.9998 6.01562C10.4823 6.01562 6.01025 10.4877 6.01025 16.0052C6.01025 21.5216 10.4824 25.9948 15.9998 25.9948C21.5173 25.9948 25.9894 21.5216 25.9894 16.0052ZM27.9894 16.0052C27.9894 22.626 22.622 27.9948 15.9998 27.9948C9.37766 27.9948 4.01025 22.626 4.01025 16.0052C4.01025 9.38311 9.37774 4.01562 15.9998 4.01562C22.6219 4.01563 27.9894 9.38311 27.9894 16.0052Z" fill="black"/>
<path d="M21.0206 11.2048C21.4063 10.8096 22.0394 10.8009 22.4346 11.1866C22.8297 11.5722 22.8369 12.2054 22.4516 12.6006L14.4542 20.7959C14.2663 20.9884 14.0083 21.0964 13.7393 21.0967C13.4704 21.097 13.2128 20.9892 13.0245 20.7973L9.55052 17.2556C9.16377 16.8613 9.1693 16.2283 9.56354 15.8415C9.9578 15.4548 10.5909 15.4616 10.9776 15.8558L13.7354 18.667L21.0206 11.2048Z" fill="black"/>
</svg>
