<svg width="32" height="32" viewBox="0 0 32 32" fill="none" xmlns="http://www.w3.org/2000/svg">
<path d="M10.6466 16.0001C10.6466 17.841 9.15426 19.3334 7.31331 19.3334C5.47236 19.3334 3.97998 17.841 3.97998 16.0001C3.97998 14.1591 5.47236 12.6667 7.31331 12.6667C9.15426 12.6667 10.6466 14.1591 10.6466 16.0001Z" fill="black"/>
<path d="M19.3333 16.0001C19.3333 17.841 17.8409 19.3334 16 19.3334C14.159 19.3334 12.6667 17.841 12.6667 16.0001C12.6667 14.1591 14.159 12.6667 16 12.6667C17.8409 12.6667 19.3333 14.1591 19.3333 16.0001Z" fill="black"/>
<path d="M28.02 16.0001C28.02 17.841 26.5276 19.3334 24.6867 19.3334C22.8457 19.3334 21.3533 17.841 21.3533 16.0001C21.3533 14.1591 22.8457 12.6667 24.6867 12.6667C26.5276 12.6667 28.02 14.1591 28.02 16.0001Z" fill="black"/>
</svg>
