<svg width="32" height="32" viewBox="0 0 32 32" fill="none" xmlns="http://www.w3.org/2000/svg">
<path d="M8.00455 4.54294C8.78775 4.14235 9.55857 4.03312 10.3327 4.29034C11.0329 4.52307 11.6163 5.02193 12.1322 5.52602C12.3993 5.78714 12.6789 6.08122 12.9668 6.38409L13.9082 7.35544C14.8036 8.25125 15.1475 9.15696 15.0775 10.1067C15.0455 10.5385 14.9303 10.9331 14.8118 11.2708C14.7522 11.4407 14.6884 11.6089 14.6282 11.763C14.5663 11.9215 14.5087 12.0654 14.4551 12.2122C14.2442 12.789 14.1346 13.2723 14.2441 13.8216C14.3557 14.3803 14.7259 15.1551 15.7858 16.2148C16.8462 17.275 17.6219 17.6441 18.1803 17.7552C18.729 17.8642 19.2108 17.7556 19.7871 17.5442C19.9338 17.4904 20.0779 17.4332 20.2363 17.3711C20.3903 17.3107 20.5575 17.2446 20.7272 17.1849C21.0648 17.066 21.4594 16.9516 21.8913 16.9192C22.8412 16.8482 23.7465 17.1919 24.6426 18.0872C24.9838 18.4284 25.3079 18.7363 25.6152 19.0286C25.9184 19.3171 26.2135 19.5968 26.4746 19.8646C26.9787 20.3815 27.4758 20.9661 27.7077 21.6666C27.9638 22.4404 27.8549 23.2108 27.4551 23.9935C27.0769 24.7335 26.4198 25.5257 25.5098 26.4362C25.4836 26.4624 25.4554 26.4873 25.4264 26.5104C25.4575 26.4855 25.4701 26.4705 25.4043 26.5377C25.3584 26.5846 25.2875 26.6575 25.2025 26.7383C25.029 26.903 24.7877 27.1102 24.4707 27.306C23.8231 27.7059 22.9124 28.0272 21.6881 27.9531C19.2996 27.8084 15.8768 26.1731 10.8522 21.1497C5.82729 16.126 4.18977 12.7026 4.04361 10.3138C3.96877 9.08967 4.28988 8.17913 4.68944 7.53123C4.88491 7.21434 5.09102 6.97308 5.25585 6.79945C5.33696 6.71405 5.41038 6.64254 5.45767 6.59633C5.52539 6.53014 5.51064 6.54263 5.48632 6.57289C5.50884 6.54487 5.53252 6.5176 5.55793 6.49216C6.47039 5.5797 7.26417 4.92169 8.00455 4.54294ZM9.70246 6.18748C9.54048 6.13364 9.32724 6.11189 8.9147 6.32289C8.45938 6.55589 7.84427 7.03395 6.97199 7.90623C6.92175 7.96035 6.87485 8.00773 6.85481 8.02732C6.80466 8.07632 6.75775 8.12165 6.70637 8.17576C6.60592 8.28154 6.49437 8.41355 6.39127 8.5807C6.19348 8.90142 5.99304 9.40609 6.04101 10.1914C6.14083 11.8229 7.32963 14.7988 12.2663 19.7344C17.2032 24.67 20.1785 25.8583 21.8092 25.957C22.5945 26.0045 23.0991 25.8023 23.4199 25.6041C23.587 25.5009 23.7189 25.3897 23.8249 25.289C23.8793 25.2373 23.9251 25.1899 23.9746 25.1393C23.9942 25.1193 24.0428 25.0749 24.097 25.0247C24.967 24.1544 25.4414 23.5382 25.6738 23.0833C25.8841 22.6717 25.8631 22.4587 25.8092 22.2955C25.7309 22.059 25.5204 21.752 25.0423 21.2617C24.8123 21.0258 24.5469 20.7721 24.2376 20.4778C23.9324 20.1875 23.5901 19.8629 23.2285 19.5013C22.6673 18.9407 22.3093 18.8941 22.041 18.914C21.8636 18.9273 21.659 18.9773 21.3913 19.0716C21.2584 19.1184 21.1214 19.1724 20.9668 19.233C20.8168 19.2918 20.6483 19.3586 20.4759 19.4219C19.775 19.6789 18.8752 19.9333 17.7897 19.7174C16.7138 19.5035 15.6009 18.8578 14.3717 17.6289C13.1428 16.4002 12.4978 15.2879 12.2832 14.2122C12.0667 13.1269 12.3198 12.2272 12.5762 11.526C12.6392 11.3536 12.7063 11.1852 12.765 11.0351C12.8254 10.8804 12.8785 10.7423 12.9251 10.6094C13.0191 10.3415 13.0695 10.1372 13.0827 9.95961C13.1025 9.69052 13.0557 9.3313 12.4941 8.76951C12.1325 8.40817 11.8078 8.067 11.5176 7.76169C11.2232 7.45202 10.9695 7.18614 10.7337 6.9557C10.2437 6.47693 9.93833 6.2659 9.70246 6.18748Z" fill="black"/>
<path fill-rule="evenodd" clip-rule="evenodd" d="M19.1555 10.2217V8.75293H20.5073C21.2437 8.75293 21.8406 8.15598 21.8406 7.4196V6.06543H23.3094V7.4196C23.3094 8.15598 23.9063 8.75293 24.6427 8.75293H25.994V10.2217H24.6427C23.9063 10.2217 23.3094 10.8186 23.3094 11.555V12.904H21.8406V11.555C21.8406 10.8186 21.2437 10.2217 20.5073 10.2217H19.1555ZM19.8406 12.2217V13.5706L19.8471 13.7074C19.911 14.3346 20.41 14.8336 21.0372 14.8975L21.1739 14.904H23.976L24.1114 14.8975C24.739 14.8339 25.2376 14.3348 25.3015 13.7074L25.3094 13.5706V12.2217H26.6607C27.3512 12.2217 27.9194 11.6963 27.9875 11.0238L27.994 10.8883V8.08626C27.994 7.34988 27.3971 6.75293 26.6607 6.75293H25.3094V5.39876C25.3094 4.70828 24.784 4.14005 24.1114 4.07194L23.976 4.06543H21.1739C20.4376 4.06543 19.8406 4.66238 19.8406 5.39876V6.75293H18.4888L18.3521 6.75944C17.7248 6.82331 17.2258 7.32231 17.162 7.94954L17.1555 8.08626V10.8883L17.162 11.0238C17.2255 11.6513 17.7246 12.1499 18.3521 12.2139L18.4888 12.2217H19.8406Z" fill="black"/>
</svg>
