<svg width="32" height="32" viewBox="0 0 32 32" fill="none" xmlns="http://www.w3.org/2000/svg">
<path d="M25.9961 11.1448C25.996 9.55235 25.5018 8.27546 24.6927 7.40649C23.891 6.54568 22.706 6.00421 21.1523 6.00415H10.8464C9.29861 6.00422 8.11314 6.54604 7.3099 7.4078C6.49965 8.27731 6.00401 9.55372 6.00391 11.1448V20.8557C6.00404 22.4482 6.49722 23.7251 7.30599 24.594C8.10734 25.4549 9.29261 25.9963 10.8464 25.9963H21.151C22.7054 25.9963 23.8909 25.4548 24.6927 24.594C25.5019 23.7251 25.996 22.4481 25.9961 20.8557V11.1448ZM27.9961 20.8557C27.996 22.8611 27.3684 24.6542 26.1562 25.956C24.9363 27.2659 23.1995 27.9963 21.151 27.9963H10.8464C8.79844 27.9963 7.06187 27.266 5.84245 25.956C4.63081 24.6542 4.00404 22.8609 4.00391 20.8557V11.1448C4.00402 9.13816 4.63477 7.34446 5.84766 6.04321C7.06784 4.7344 8.80338 4.00423 10.8464 4.00415H21.1523C23.2003 4.00421 24.9365 4.7346 26.1562 6.04452C27.3683 7.3463 27.996 9.13935 27.9961 11.1448V20.8557Z" fill="black"/>
<path d="M13.3515 11.0483C14.1126 10.6453 15.0139 10.6496 15.8307 10.9936C17.4164 11.6493 18.8532 12.5438 20.1041 13.6993C20.7717 14.3111 21.1725 15.1119 21.177 15.9819C21.1816 16.8542 20.7864 17.6671 20.1067 18.2983C18.9279 19.3754 17.452 20.3495 15.8268 21.0105C14.9621 21.3546 14.0384 21.3567 13.2747 20.9233C12.5072 20.4877 12.0502 19.7036 11.9388 18.8048C11.9379 18.7976 11.9369 18.7899 11.9362 18.7827C11.7376 16.8344 11.7408 14.9607 11.9375 13.2019L11.9401 13.185C12.0639 12.2328 12.5741 11.46 13.3515 11.0483ZM15.0586 12.836C14.7168 12.6911 14.4494 12.7309 14.2877 12.8165C14.1422 12.8937 13.9774 13.0622 13.9257 13.4246L13.8658 14.0327C13.7475 15.4612 13.7647 16.9808 13.9257 18.5678C13.974 18.9389 14.132 19.1101 14.2617 19.1837C14.3961 19.26 14.6602 19.3218 15.0794 19.1551C16.4688 18.589 17.737 17.755 18.7513 16.8282C19.0799 16.5209 19.1782 16.2227 19.177 15.9923C19.1758 15.759 19.0719 15.4653 18.7513 15.172C17.6853 14.1872 16.4408 13.4075 15.0586 12.836Z" fill="black"/>
</svg>
