<?xml version="1.0" encoding="UTF-8"?>
<svg id="Capa_1" xmlns="http://www.w3.org/2000/svg" version="1.1" viewBox="0 0 32 32">
  <!-- Generator: Adobe Illustrator 30.0.0, SVG Export Plug-In . SVG Version: 2.1.1 Build 123)  -->
  <defs>
    <style>
      .st0 {
        fill-rule: evenodd;
      }
    </style>
  </defs>
  <path class="st0" d="M23.75,4.71l-.22.02-3.54.55c-.89.14-1.57.86-1.67,1.75h-.9v-.87c0-1.23-1-2.23-2.23-2.23h-1.27c-1.23,0-2.23,1-2.23,2.23v.87h-.19c-2.93,0-5.31,2.38-5.31,5.31,0,.55.45,1,1,1s1-.45,1-1c0-1.83,1.48-3.31,3.31-3.31h.19v1.27c-1.68.98-2.81,2.81-2.81,4.9v8.48s0,.07,0,.1,0,.07,0,.1v1.94c0,1.23,1,2.23,2.23,2.23h6.89c1.23,0,2.23-1,2.23-2.23v-10.62c0-2.09-1.13-3.91-2.81-4.9v-1.27h.9c.09.9.77,1.63,1.68,1.77l3.54.54c1.2.18,2.28-.75,2.28-1.96v-2.69c0-1.14-.95-2.03-2.06-1.98ZM13.7,6.17c0-.13.1-.23.23-.23h1.27c.13,0,.23.1.23.23v3.43c-.28-.04-.57-.06-.86-.06s-.58.02-.86.06v-3.43ZM18.23,25.82c0,.13-.1.23-.23.23h-6.89c-.13,0-.23-.1-.23-.23v-1.04h7.34v1.04ZM18.23,19.53h-2.18c-.13,0-.23-.1-.23-.23v-1.99c0-.13.1-.23.23-.23h2.18v2.45ZM18.23,15.08h-2.18c-1.23,0-2.23,1-2.23,2.23v1.99c0,1.23,1,2.23,2.23,2.23h2.18v1.25h-7.34v-7.58c0-2.03,1.64-3.67,3.67-3.67,1.99,0,3.61,1.58,3.67,3.55ZM23.81,9.35l-3.5-.53v-.73s0-.04,0-.07,0-.04,0-.07v-.71l3.5-.55v2.64Z"/>
</svg>