<svg width="32" height="32" viewBox="0 0 32 32" fill="none" xmlns="http://www.w3.org/2000/svg">
<path fill-rule="evenodd" clip-rule="evenodd" d="M20.6274 4.0625H18.897C18.324 4.0625 17.8151 4.42856 17.6329 4.97178L16.3699 8.73684C16.3643 8.75345 16.3589 8.77014 16.3542 8.78702C16.2266 9.24583 16.292 9.72599 16.5066 10.1115C16.7194 10.4937 17.1508 10.8826 17.7657 10.8826H20.7683L15.3021 18.8082L16.2045 14.514C16.2973 14.0716 16.2179 13.6156 15.9962 13.2489C15.7753 12.8839 15.3521 12.5293 14.767 12.5293H12.1915L14.3602 5.80511C14.6379 4.94417 13.9959 4.0625 13.0912 4.0625H11.3709C9.51064 4.0626 7.92298 4.72863 6.80583 5.92708C5.69621 7.11778 5.12354 8.75502 5.12354 10.5781V21.5417C5.12354 23.3641 5.69311 25.0015 6.80192 26.1927C7.91851 27.3919 9.50668 28.0572 11.3709 28.0573H20.6261C22.4906 28.0572 24.0784 27.3929 25.1952 26.194C26.3045 25.0027 26.8748 23.3644 26.8748 21.5417V10.5781C26.8748 8.75609 26.3054 7.1184 25.1965 5.92708C24.0799 4.72775 22.4918 4.06259 20.6274 4.0625ZM19.3793 6.0625H20.6274C21.9976 6.06259 23.0331 6.54005 23.7316 7.29036C24.4377 8.04883 24.8748 9.16889 24.8748 10.5781V21.5417C24.8748 22.9516 24.4377 24.0725 23.7316 24.8307C23.0331 25.5806 21.997 26.0572 20.6261 26.0573H11.3709C10.0008 26.0572 8.96517 25.5806 8.26676 24.8307C7.56077 24.0725 7.12354 22.9516 7.12354 21.5417V10.5781C7.12354 9.17013 7.56184 8.04942 8.26937 7.29036C8.9696 6.53918 10.0061 6.0626 11.3709 6.0625H12.1728L10.1238 12.4157L10.1146 12.4461C9.98155 12.9071 10.0433 13.3903 10.2566 13.7785C10.4681 14.1632 10.9015 14.5576 11.5209 14.5576H14.1511L12.8464 20.7718C12.7036 21.4525 12.9575 22.1442 13.504 22.5148C13.7789 22.7012 14.1429 22.8099 14.5339 22.738C14.9342 22.6642 15.2512 22.4228 15.461 22.1187L22.8165 11.4518C23.1645 10.947 23.1775 10.342 23.0118 9.87774C22.8507 9.42657 22.4041 8.85461 21.6394 8.85436H18.4428L19.3793 6.0625Z" fill="black"/>
</svg>
