<svg width="32" height="32" viewBox="0 0 32 32" fill="none" xmlns="http://www.w3.org/2000/svg">
<path d="M18.5401 11.9661C18.5613 11.4144 18.1308 10.9498 17.5791 10.9283C15.6198 10.8527 13.7796 11.8781 12.8083 13.5807C12.7676 13.6528 12.7288 13.7258 12.692 13.7994H12.4445C11.8922 13.7994 11.4445 14.2471 11.4445 14.7994C11.4445 15.2594 11.7552 15.6469 12.1781 15.7635C12.1706 15.9185 12.1704 16.0737 12.1775 16.2287C11.755 16.3456 11.4447 16.733 11.4445 17.1926C11.4445 17.7449 11.8922 18.1926 12.4445 18.1926H12.6847C12.7241 18.272 12.7657 18.3506 12.8096 18.4283C13.781 20.1327 15.62 21.1524 17.5791 21.0768C18.1308 21.0553 18.5614 20.5908 18.5401 20.039C18.5188 19.4874 18.0539 19.0571 17.5023 19.0781C16.615 19.1123 15.7672 18.784 15.1402 18.1926H17.1997C17.7518 18.1923 18.1997 17.7447 18.1997 17.1926C18.1996 16.6407 17.7517 16.1929 17.1997 16.1926H14.177C14.174 16.1477 14.1722 16.1026 14.1714 16.0576C14.1698 15.9715 14.1719 15.8854 14.1779 15.7994H17.1997C17.7518 15.7991 18.1997 15.3515 18.1997 14.7994C18.1997 14.2473 17.7518 13.7997 17.1997 13.7994H15.154C15.7797 13.2163 16.6217 12.893 17.5023 12.927C18.0539 12.948 18.5188 12.5177 18.5401 11.9661Z" fill="black"/>
<path d="M25.8984 16C25.8984 10.5332 21.4668 6.10156 16 6.10156C10.5332 6.10156 6.10156 10.5332 6.10156 16C6.10156 21.4668 10.5332 25.8984 16 25.8984C21.4668 25.8984 25.8984 21.4668 25.8984 16ZM27.8984 16C27.8984 22.5713 22.5713 27.8984 16 27.8984C9.42867 27.8984 4.10156 22.5713 4.10156 16C4.10156 9.42867 9.42867 4.10156 16 4.10156C22.5713 4.10156 27.8984 9.42867 27.8984 16Z" fill="black"/>
</svg>
