<svg width="32" height="32" viewBox="0 0 32 32" fill="none" xmlns="http://www.w3.org/2000/svg">
<path fill-rule="evenodd" clip-rule="evenodd" d="M15.0764 16.526H14.5886C14.6667 16.5455 14.7484 16.5559 14.8325 16.5559C14.9166 16.5559 14.9983 16.5455 15.0764 16.526Z" fill="black"/>
<path d="M18.1896 19.7629C18.0428 18.516 16.9828 17.5483 15.6965 17.5481H13.9686C13.6869 17.5478 13.4585 17.3195 13.4582 17.0377C13.4582 16.7554 13.6866 16.5263 13.9686 16.526H14.5886H15.0764H16.7759C17.3281 16.5258 17.7759 16.0782 17.7759 15.526C17.7759 14.9737 17.3281 14.5261 16.7759 14.526H15.8325V14.276C15.8325 13.7237 15.3848 13.276 14.8325 13.276C14.2802 13.276 13.8325 13.7237 13.8325 14.276V14.5296C12.5092 14.6007 11.4582 15.6966 11.4582 17.0377C11.4585 18.424 12.5822 19.5478 13.9686 19.5481H15.6965C15.8681 19.5482 16.0197 19.633 16.1122 19.7629C16.1718 19.8467 16.2069 19.9492 16.2069 20.0598C16.2066 20.3418 15.9785 20.57 15.6965 20.5702H12.8892C12.3371 20.5705 11.8892 21.0181 11.8892 21.5702C11.8892 21.6362 11.8956 21.7006 11.9078 21.7629C11.9976 22.2229 12.403 22.57 12.8892 22.5702H13.8325V22.8645C13.8326 23.4167 14.2803 23.8645 14.8325 23.8645C15.3847 23.8645 15.8324 23.4167 15.8325 22.8645V22.5666C16.5071 22.5305 17.1108 22.2282 17.5407 21.7629C17.9541 21.3155 18.2068 20.7172 18.2069 20.0598C18.2069 20.0005 18.205 19.9415 18.201 19.8832C18.1982 19.8429 18.1942 19.8028 18.1896 19.7629Z" fill="black"/>
<path d="M24.5968 24.039C24.5968 24.407 24.2982 24.7054 23.9302 24.7056H5.29606C4.92787 24.7056 4.62939 24.4072 4.62939 24.039V12.9036C4.62939 12.5354 4.92787 12.2369 5.29606 12.2369H23.9302C24.2982 12.2371 24.5968 12.5355 24.5968 12.9036V24.039ZM26.5968 24.039V21.7629H26.7039L26.9761 21.7486C28.2313 21.6212 29.229 20.6237 29.3563 19.3684L29.3706 19.0963V7.96086C29.3706 6.58013 28.3208 5.44505 26.9761 5.30851L26.7039 5.29419H8.06982L7.79769 5.30851C6.45279 5.44486 5.40316 6.57999 5.40316 7.96086V10.2369H5.29606L5.02393 10.2512C3.67902 10.3876 2.62939 11.5227 2.62939 12.9036V24.039C2.62939 25.5117 3.8233 26.7056 5.29606 26.7056H23.9302L24.2023 26.6913C25.4575 26.5639 26.4553 25.5664 26.5825 24.3111L26.5968 24.039ZM26.5968 19.7629V12.9036C26.5968 11.5228 25.547 10.3878 24.2023 10.2512L23.9302 10.2369H7.40316V7.96086C7.40316 7.59267 7.70163 7.29419 8.06982 7.29419H26.7039C27.0719 7.29441 27.3706 7.5928 27.3706 7.96086V19.0963C27.3706 19.4643 27.0719 19.7627 26.7039 19.7629H26.5968Z" fill="black"/>
</svg>
