<?xml version="1.0" encoding="UTF-8"?>
<svg id="Capa_1" xmlns="http://www.w3.org/2000/svg" version="1.1" viewBox="0 0 32 32">
  <!-- Generator: Adobe Illustrator 30.0.0, SVG Export Plug-In . SVG Version: 2.1.1 Build 123)  -->
  <defs>
    <style>
      .st0 {
        fill-rule: evenodd;
      }
    </style>
  </defs>
  <path class="st0" d="M25.54,11.61c-.19-1.41-1.09-2.73-2.59-4.04-.26-.23-.62-.3-.95-.2-.29.09-.52.3-.63.58l-.04.12c-.12.47-.5.92-.96,1.29-.1.08-.19.15-.28.21-.97-.87-1.5-1.93-1.79-2.83-.17-.52-.25-.99-.29-1.31-.02-.16-.03-.29-.03-.37,0-.04,0-.07,0-.09,0,0,0-.01,0-.01,0-.55-.45-1-1-1-1.35,0-2.42.33-3.23.95-.81.61-1.26,1.43-1.51,2.24-.28.9-.33,1.89-.32,2.64-.49-.12-.85-.32-1.17-.53-.14-.09-.26-.18-.4-.28-.13-.09-.28-.2-.44-.3-.31-.19-.74-.4-1.27-.4-.31,0-.61.15-.79.4l-.07.11c-.93,1.68-1.57,4.31-.4,6.7.24.5.84.7,1.34.46.5-.24.7-.84.46-1.34-.63-1.29-.5-2.8-.02-4.04.01,0,.03.02.04.03.13.09.29.2.46.32.73.48,1.74.98,3.3.98.27,0,.52-.1.71-.29.19-.19.29-.44.29-.71,0-.82-.16-2.03.2-3.16.16-.52.42-.95.82-1.24.26-.2.62-.37,1.13-.46.06.37.16.83.32,1.32.42,1.32,1.29,2.99,3.03,4.25.3.22.7.25,1.03.08h.01s.02-.01.02-.02c.02-.01.05-.02.08-.04.06-.04.15-.09.26-.15.21-.13.5-.32.8-.57.29-.24.62-.55.92-.93.66.75.94,1.37,1.01,1.9.1.7-.15,1.46-.85,2.4-.33.44-.24,1.07.2,1.4.44.33,1.07.24,1.4-.2.86-1.15,1.42-2.44,1.23-3.87Z"/>
  <path class="st0" d="M17.81,12.81c-1.06-.84-2.57-.84-3.63,0l-6.1,4.83c-.43.34-.51.97-.16,1.4.24.31.64.44,1,.36v5.1c0,1.92,1.56,3.48,3.48,3.48h7.2c1.92,0,3.48-1.56,3.48-3.48v-5.1c.36.08.75-.05,1-.36.34-.43.27-1.06-.16-1.4l-6.1-4.83ZM16.91,25.98h-1.82v-2.01c0-.34,0-.54.01-.68,0-.06.01-.1.01-.11.02-.04.05-.07.08-.09.01,0,.05-.01.12-.02.15-.01.34-.01.68-.01s.54,0,.68.01c.07,0,.1.01.12.01.04.02.06.05.08.09,0,.02,0,.05.01.11.01.15.01.34.01.68v2.01ZM21.08,24.5c0,.82-.66,1.48-1.48,1.48h-.69v-2.04c0-.3,0-.58-.02-.81-.02-.25-.07-.54-.2-.82-.22-.45-.58-.82-1.03-1.03-.28-.14-.57-.18-.82-.2-.23-.02-.51-.02-.81-.02h-.05c-.3,0-.58,0-.81.02-.25.02-.54.07-.82.2-.45.22-.82.58-1.03,1.03-.14.28-.18.57-.2.82-.02.23-.02.51-.02.81v2.04h-.69c-.82,0-1.48-.66-1.48-1.48v-6.55l4.51-3.57.13-.09c.32-.17.72-.15,1.02.09l4.51,3.57v6.55Z"/>
</svg>