<svg width="32" height="32" viewBox="0 0 32 32" fill="none" xmlns="http://www.w3.org/2000/svg">
<path fill-rule="evenodd" clip-rule="evenodd" d="M27.3754 15.2457L27.3767 15.519C27.3824 15.4757 27.3853 15.4316 27.3853 15.3868C27.3853 15.3389 27.382 15.2918 27.3754 15.2457Z" fill="black"/>
<path d="M21.7356 17.2462L21.8371 17.2514C22.3416 17.3024 22.7356 17.7283 22.7356 18.2462C22.7356 18.7641 22.3416 19.1899 21.8371 19.241L21.7356 19.2462C21.1833 19.2462 20.7317 18.7985 20.7317 18.2462C20.7317 17.6939 21.1833 17.2462 21.7356 17.2462Z" fill="black"/>
<path fill-rule="evenodd" clip-rule="evenodd" d="M27.3767 15.519L27.3754 15.2457L27.3721 14.5066C27.3613 12.1202 26.1038 10.0313 24.2195 8.85373L24.1912 8.68367C23.9863 7.31597 23.4272 6.05835 22.4855 5.18367C21.5156 4.28284 20.2119 3.85813 18.7186 4.0795L10.2563 5.29565C8.88627 5.49801 7.8355 6.18167 7.15087 7.18237C6.55495 8.05362 6.26992 9.11247 6.22368 10.2046C5.20464 11.385 4.59116 12.9247 4.5987 14.6068L4.62865 21.3113C4.64401 25.0086 7.65582 27.9946 11.3539 27.9779L20.7354 27.9376C24.4333 27.9207 27.4172 24.91 27.4021 21.2123L27.3767 15.519ZM25.3977 20.2292H21.9921C20.9305 20.2292 20.0703 19.3689 20.0702 18.3074C20.0702 17.2472 20.9302 16.3868 21.9921 16.3868H25.3805L25.3977 20.2292ZM25.2977 22.2292C24.8451 24.3403 22.9736 25.9273 20.7263 25.9376L11.3448 25.9779C8.75119 25.9896 6.63949 23.8954 6.62865 21.3035L6.5987 14.5977C6.58716 12.0046 8.68057 9.89336 11.2745 9.88158L20.6547 9.83992C23.2054 9.82933 25.29 11.853 25.3698 14.3868H21.9921C19.8262 14.3868 18.0702 16.1421 18.0702 18.3074C18.0703 20.4735 19.826 22.2292 21.9921 22.2292H25.2977ZM21.1235 6.64981C21.4648 6.96675 21.7539 7.4101 21.9581 7.96268C21.5339 7.88034 21.0954 7.83807 20.6469 7.83992L11.2654 7.88158C10.378 7.88562 9.53168 8.06202 8.758 8.37894C8.77238 8.35647 8.78702 8.33435 8.80191 8.31257C9.16383 7.78343 9.71587 7.39838 10.5454 7.27481L19.0115 6.05867C19.927 5.92292 20.6152 6.17767 21.1235 6.64981Z" fill="black"/>
</svg>
