<svg width="32" height="32" viewBox="0 0 32 32" fill="none" xmlns="http://www.w3.org/2000/svg">
<path d="M16.5488 27.9871H18.7425C19.3225 27.9871 19.8898 27.7532 20.3058 27.3591C20.7218 26.9527 20.9488 26.4109 20.9488 25.8321V20.8077H26.0924C26.6724 20.8077 27.2397 20.5737 27.6557 20.1797C28.0717 19.7733 28.2987 19.2315 28.2987 18.6527V13.3081C28.2987 12.7293 28.0717 12.1875 27.6557 11.7811C27.2397 11.3747 26.6724 11.153 26.0924 11.153H20.9488V6.12869C20.9488 5.5499 20.7218 5.00806 20.3058 4.60168C19.9024 4.20761 19.3351 3.97363 18.7425 3.97363H13.271C12.6911 3.97363 12.1238 4.20761 11.7077 4.60168C11.2917 5.00806 11.0648 5.5499 11.0648 6.12869V11.153H5.92108C5.34116 11.153 4.77384 11.387 4.3578 11.7811C3.94177 12.1875 3.71484 12.7293 3.71484 13.3081V14.7489C3.71484 15.2538 4.14348 15.6725 4.66037 15.6725C5.17726 15.6725 5.6059 15.2538 5.6059 14.7489V13.3081C5.6059 13.2219 5.64373 13.148 5.69415 13.0864C5.74458 13.0249 5.83283 13.0002 5.92108 13.0002H12.0103C12.5272 13.0002 12.9558 12.5815 12.9558 12.0766V6.12869C12.9558 6.04249 12.9937 5.96861 13.0441 5.90704C13.1071 5.84547 13.1828 5.82082 13.271 5.82082H18.7425C18.8308 5.82082 18.9064 5.85778 18.9694 5.90704C19.0325 5.96861 19.0577 6.04249 19.0577 6.12869V12.0766C19.0577 12.5815 19.4863 13.0002 20.0032 13.0002H26.0924C26.1807 13.0002 26.2563 13.0372 26.3194 13.0864C26.3824 13.148 26.4076 13.2219 26.4076 13.3081V18.6527C26.4076 18.7389 26.3698 18.8128 26.3194 18.8743C26.2689 18.9359 26.1807 18.9605 26.0924 18.9605H20.0032C19.4863 18.9605 19.0577 19.3792 19.0577 19.8841V25.8321C19.0577 25.9183 19.0199 25.9922 18.9694 26.0538C18.9064 26.1153 18.8308 26.14 18.7425 26.14H16.5488C16.032 26.14 15.6033 26.5587 15.6033 27.0635C15.6033 27.5684 16.032 27.9871 16.5488 27.9871Z" fill="black"/>
<path d="M9.29964 19.2333C9.98042 19.2333 10.5477 18.6915 10.5477 18.0142C10.5477 17.694 10.4217 17.3861 10.1821 17.1645C9.9426 16.9305 9.62742 16.8073 9.29964 16.8073C8.61886 16.8073 8.05154 17.3492 8.05154 18.0265C8.05154 18.7038 8.60625 19.2456 9.29964 19.2456V19.2333Z" fill="black"/>
<path d="M4.96297 21.3844C5.64376 21.3844 6.21107 20.8425 6.21107 20.1652C6.21107 19.845 6.085 19.5372 5.84547 19.3155C5.60594 19.0815 5.30336 18.9584 4.96297 18.9584C4.28219 18.9584 3.71487 19.5002 3.71487 20.1775C3.71487 20.8548 4.26958 21.3967 4.96297 21.3967V21.3844Z" fill="black"/>
<path d="M13.6116 21.3844C14.2924 21.3844 14.8597 20.8425 14.8597 20.1652C14.8597 19.845 14.7336 19.5372 14.4941 19.3155C14.2545 19.0815 13.9394 18.9584 13.6116 18.9584C12.9308 18.9584 12.3635 19.5002 12.3635 20.1775C12.3635 20.8548 12.9182 21.3967 13.6116 21.3967V21.3844Z" fill="black"/>
<path d="M12.1616 27.9899C12.565 27.9899 12.9558 27.9037 13.3214 27.682C13.8257 27.3618 14.1409 26.82 14.2543 26.0688C14.4182 25.096 14.0904 24.0615 13.3214 23.1995C12.3255 22.0666 10.7748 21.3646 9.24933 21.3646C6.58924 21.3646 4.24432 23.4089 4.21911 25.724C4.21911 26.5737 4.44603 27.1894 4.95032 27.5835C5.74456 28.1992 6.79095 27.9653 7.79952 27.7313C8.3038 27.6081 8.82069 27.4973 9.24933 27.4973C9.61493 27.4973 10.0814 27.6205 10.5479 27.7436C11.0647 27.8791 11.6195 28.0268 12.1616 28.0268V27.9899ZM9.26194 23.1995C10.2327 23.1995 11.2539 23.6675 11.8968 24.394C12.1237 24.6526 12.502 25.1822 12.4011 25.7856C12.3507 26.0688 12.2876 26.1427 12.2876 26.1427C12.1237 26.2166 11.4556 26.0319 11.0521 25.9333C10.4974 25.7856 9.87968 25.6255 9.26194 25.6255C8.60637 25.6255 7.9508 25.7733 7.37088 25.921C7.354 25.9249 7.33662 25.9288 7.3188 25.9329C6.93724 26.02 6.35275 26.1534 6.14799 26.1181C6.14797 26.1079 6.14647 26.0814 6.144 26.0379C6.14039 25.9745 6.13538 25.8749 6.13538 25.7363C6.13538 24.431 7.67345 23.2118 9.27454 23.2118L9.26194 23.1995Z" fill="black"/>
</svg>
