<svg width="32" height="32" viewBox="0 0 32 32" fill="none" xmlns="http://www.w3.org/2000/svg">
<path d="M12.6074 4.01367C13.0407 4.0138 13.4242 4.293 13.5579 4.70508C14.6257 7.99834 17.2075 10.5798 20.5007 11.6478C20.913 11.7815 21.1921 12.1661 21.1921 12.5996C21.1919 13.033 20.9129 13.4165 20.5007 13.5501C17.2076 14.6178 14.6258 17.1994 13.5579 20.4941C13.4243 20.9064 13.0408 21.1867 12.6074 21.1868C12.1739 21.1868 11.7892 20.9065 11.6556 20.4941C10.5876 17.1995 8.00601 14.6177 4.71289 13.5501C4.30081 13.4164 4.0216 13.0329 4.02148 12.5996C4.02147 12.1662 4.30059 11.7815 4.71289 11.6478C8.00633 10.5799 10.5878 7.99851 11.6556 4.70508L11.7168 4.55664C11.8858 4.22706 12.2282 4.01367 12.6074 4.01367ZM12.6061 7.52409C11.4335 9.66441 9.67222 11.4257 7.5319 12.5983C9.67224 13.7707 11.4333 15.5331 12.6061 17.6738C13.7788 15.5329 15.5413 13.7709 17.6816 12.5983C15.5413 11.4255 13.7786 9.66462 12.6061 7.52409Z" fill="black"/>
<path d="M22.7958 17.5866C23.2292 17.5866 23.6139 17.8657 23.7476 18.278C24.2921 19.9573 25.6088 21.2739 27.288 21.8184C27.6999 21.9521 27.9791 22.3358 27.9794 22.7689C27.9794 23.2022 27.7001 23.5869 27.288 23.7207C25.609 24.265 24.2922 25.5811 23.7476 27.2611C23.614 27.6735 23.2293 27.9538 22.7958 27.9538C22.3625 27.9536 21.9789 27.6733 21.8453 27.2611C21.3009 25.5811 19.984 24.265 18.3049 23.7207C17.8927 23.587 17.6135 23.2023 17.6135 22.7689C17.6138 22.3357 17.8929 21.952 18.3049 21.8184C19.9842 21.2739 21.3009 19.9572 21.8453 18.278L21.9065 18.1296C22.0755 17.8002 22.4169 17.5868 22.7958 17.5866ZM22.7958 20.8249C22.273 21.5871 21.614 22.246 20.8518 22.7689C21.6139 23.2916 22.273 23.9508 22.7958 24.7129C23.3186 23.9508 23.9779 23.2916 24.7398 22.7689C23.9778 22.246 23.3185 21.587 22.7958 20.8249Z" fill="black"/>
</svg>
