<?xml version="1.0" encoding="UTF-8"?>
<svg id="Capa_1" xmlns="http://www.w3.org/2000/svg" version="1.1" viewBox="0 0 32 32">
  <!-- Generator: Adobe Illustrator 30.0.0, SVG Export Plug-In . SVG Version: 2.1.1 Build 123)  -->
  <defs>
    <style>
      .st0 {
        fill-rule: evenodd;
      }
    </style>
  </defs>
  <path class="st0" d="M15.83,20.85h-1.19c-.55,0-1,.45-1,1s.45,1,1,1h1.19c.55,0,1-.45,1-1s-.45-1-1-1Z"/>
  <path class="st0" d="M23.51,16.76h-1.03v-1.03c0-.55-.45-1-1-1-.55,0-1,.45-1,1v1.03h-1.02c-.55,0-1,.45-1,1,0,.55.45,1,1,1h1.02v1.02c0,.55.45,1,1,1,.55,0,1-.45,1-1v-1.02h1.03c.55,0,1-.45,1-1,0-.55-.45-1-1-1Z"/>
  <path class="st0" d="M19.04,7.19c.55,0,1-.45,1-1v-2.51c0-.55-.45-1-1-1s-1,.45-1,1v2.51c0,.55.45,1,1,1Z"/>
  <path class="st0" d="M14.97,7.67c.28.48.89.64,1.37.37.48-.28.64-.89.37-1.37l-1.26-2.17c-.28-.48-.89-.64-1.37-.37-.48.28-.64.89-.37,1.37l1.26,2.17Z"/>
  <path class="st0" d="M21.79,8.04c.48.28,1.09.11,1.37-.37l1.26-2.17c.28-.48.11-1.09-.37-1.37-.48-.28-1.09-.11-1.37.37l-1.26,2.17c-.28.48-.11,1.09.37,1.37Z"/>
  <path class="st0" d="M27.08,11.89c-.64-.64-1.5-1-2.4-1h-2.27c-.31-1.5-1.64-2.63-3.24-2.63s-2.93,1.13-3.25,2.63h-3.52l-.2.02c-.47.05-.9.26-1.24.59l-.13.15c-.3.37-.46.83-.46,1.3v1.22c-.08.1-.16.22-.23.34l-2.15,4.07h-.67c-.9,0-1.76.36-2.4.99-.64.64-1,1.51-1,2.41v1.85c0,.9.36,1.77,1,2.4.54.54,1.24.88,1.98.97.21.54.56,1.02,1.02,1.38.55.44,1.22.68,1.92.68s1.38-.24,1.93-.68c.48-.37.84-.88,1.04-1.46l.07-.22h5.7c.19.67.57,1.26,1.11,1.68.55.44,1.23.68,1.93.68s1.37-.24,1.92-.68c.45-.35.79-.81,1-1.33h.13c.9,0,1.76-.36,2.4-.99.64-.64.99-1.5.99-2.4v-4.14s.01-.1.01-.15v-5.28c0-.9-.35-1.76-.99-2.4ZM19.17,10.26c.47,0,.89.25,1.12.63h-2.25c.23-.38.65-.63,1.13-.63ZM11.9,15.46l.06-.07s.04-.04.07-.06c.05-.03.11-.04.17-.04h2.88v3.29h-4.83l1.65-3.12ZM10.96,26.36l-.07.19c-.09.18-.21.34-.36.46-.2.16-.44.25-.69.25s-.48-.09-.68-.25c-.21-.16-.36-.39-.43-.65l-.04-.18v-.15c.03-.3.16-.58.37-.78.22-.21.5-.33.78-.33.29.01.57.12.78.33.21.2.35.47.38.78,0,.11-.02.22-.04.33ZM22.77,26.18l-.04.18c-.07.26-.22.49-.43.65-.2.16-.44.25-.68.25s-.49-.09-.69-.25c-.2-.16-.35-.39-.42-.65l-.04-.18s0-.08,0-.12v-.03c.03-.3.17-.58.38-.78.21-.21.49-.32.78-.33.28,0,.56.12.78.33.21.2.35.48.38.78,0,.05-.01.1-.01.15ZM26.07,19.53s-.01.09-.01.14v4.19c0,.37-.14.72-.41.98-.26.26-.62.41-.99.41-.16-.54-.46-1.05-.87-1.44-.59-.57-1.36-.89-2.17-.89-.81.01-1.59.32-2.17.89-.33.31-.58.68-.75,1.09h-5.94c-.17-.41-.42-.78-.75-1.09-.58-.57-1.36-.88-2.17-.89-.81,0-1.58.32-2.17.89-.38.37-.67.83-.83,1.33-.19-.07-.36-.18-.51-.32-.26-.26-.41-.62-.41-.99v-1.85c0-.37.15-.73.41-.99s.62-.41.99-.41h8.76c.55,0,1-.45,1-1v-4.44c0-.24-.05-.48-.14-.7-.09-.22-.22-.43-.39-.6-.17-.18-.38-.32-.6-.41l-.17-.06c-.18-.05-.36-.08-.54-.08h-2.87v-.34s.01-.03.02-.04l.03-.02h12.26c.37,0,.72.15.99.41.26.26.4.62.4.99v5.24Z"/>
</svg>