<svg width="32" height="32" viewBox="0 0 32 32" fill="none" xmlns="http://www.w3.org/2000/svg">
<path d="M11.771 4.86096C15.2208 3.67611 19.3498 3.54394 22.7567 5.35575C28.9247 8.37404 30.8685 16.3852 26.6864 21.7672C26.6755 21.7812 26.6642 21.7954 26.6525 21.8089C26.5397 21.9392 26.4579 22.1261 26.4117 22.4378C26.3624 22.7708 26.3662 23.1362 26.3648 23.6253C26.3622 24.4735 26.3678 25.8419 25.2984 26.8024C23.9837 27.9829 22.4082 28.3172 20.8075 27.8636C20.7833 27.8567 20.7595 27.8488 20.7359 27.8401C20.3933 27.7144 20.0972 27.5295 19.857 27.3623C19.6465 27.2157 19.3617 26.9943 19.2072 26.8818C18.7936 26.5806 18.5871 26.5023 18.4273 26.5042C17.0573 26.5153 16.2661 26.4161 15.0601 26.5016C15.0601 26.5016 15.0038 26.5088 14.8687 26.5784C14.7348 26.6474 14.5794 26.7486 14.3843 26.8857C14.0562 27.1163 13.5094 27.5401 12.9846 27.7529C12.9662 27.7603 12.9474 27.7674 12.9286 27.7737C11.3008 28.3227 9.00826 28.0972 7.90515 26.2568C7.88649 26.2256 7.86953 26.1935 7.85437 26.1604C7.68777 25.7974 7.6074 25.4017 7.5588 25.0524C7.50975 24.6997 7.48419 24.3194 7.45984 23.9847C7.40936 23.291 7.35369 22.7728 7.20723 22.3974C6.99388 22.0803 6.68711 21.9471 6.03145 21.7229C5.40852 21.5099 4.39188 21.1922 3.77364 20.1227C3.73737 20.0599 3.70829 19.9926 3.6864 19.9235C3.37179 18.9301 3.14305 17.6394 3.04838 16.3688C2.95447 15.1078 2.98595 13.7741 3.24369 12.7203C3.27567 12.5898 3.33377 12.4673 3.41427 12.3597C3.82586 11.8093 4.3684 11.3946 4.82833 11.0784C5.26806 10.7761 5.56626 10.5972 5.83093 10.4078C6.18085 9.77426 6.62885 9.17934 6.98588 8.74377C7.12936 8.56872 7.26426 8.41606 7.3765 8.28934L6.88041 5.17866C6.8283 4.85191 6.94041 4.52023 7.18119 4.29325C7.42207 4.06624 7.76034 3.97312 8.08354 4.04455L11.771 4.86096ZM21.8179 7.12137C18.9529 5.59776 15.3061 5.69445 12.1708 6.83622C11.9922 6.90122 11.7991 6.91362 11.6135 6.87267L9.08614 6.31408L9.42729 8.4482C9.47706 8.76028 9.37707 9.0774 9.15645 9.30366L9.14734 9.31278C9.14027 9.32014 9.1296 9.33226 9.11479 9.34793C9.08462 9.37985 9.0387 9.42878 8.98197 9.49116C8.86828 9.61621 8.70965 9.79619 8.53275 10.012C8.17086 10.4535 7.76497 11.0069 7.4989 11.5315C7.43295 11.6616 7.33884 11.7761 7.22416 11.8662C6.86709 12.1465 6.30748 12.4887 5.96114 12.7268C5.6202 12.9613 5.34418 13.1833 5.13953 13.4104C4.9933 14.1571 4.96423 15.1603 5.04317 16.2203C5.12502 17.3188 5.31634 18.3965 5.55619 19.1982C5.75271 19.4834 6.04441 19.6128 6.67859 19.8297C6.70004 19.837 6.72199 19.8444 6.74435 19.852C7.32975 20.0511 8.21477 20.3518 8.83093 21.2242L8.95463 21.413L9.01453 21.5289C9.34044 22.2714 9.40579 23.1597 9.45333 23.8137C9.45397 23.8225 9.45399 23.8314 9.45463 23.8401C9.4659 23.995 9.47604 24.1393 9.48702 24.2751C9.50161 24.4554 9.51765 24.6209 9.53927 24.7763C9.57279 25.0174 9.61681 25.1777 9.65775 25.2828C10.1083 25.959 11.1624 26.2422 12.2528 25.8883C12.4532 25.8026 12.6722 25.6476 13.0056 25.4111C13.0765 25.3608 13.1524 25.3067 13.2346 25.249C13.4441 25.1018 13.6921 24.9344 13.9533 24.7998C14.211 24.667 14.5423 24.5335 14.9182 24.5068C15.8562 24.4403 16.7387 24.4775 17.5796 24.4964L18.4078 24.5042C19.2752 24.4953 19.9491 24.949 20.3843 25.2659C20.6542 25.4624 20.7863 25.5723 20.9989 25.7203C21.1657 25.8365 21.293 25.9062 21.396 25.9482C22.3251 26.1991 23.1747 26.0215 23.9624 25.3141C24.2839 25.025 24.3619 24.5876 24.3648 23.6201C24.3649 23.5752 24.3649 23.5288 24.365 23.4812C24.365 23.0848 24.3647 22.6009 24.4325 22.1435C24.5096 21.6238 24.6857 21.0476 25.1083 20.5406L25.4104 20.1253C28.3945 15.7729 26.7723 9.52729 21.8505 7.1383C21.8396 7.13301 21.8286 7.12706 21.8179 7.12137Z" fill="black"/>
<path d="M13.4194 8.94771C15.6394 7.71899 18.2056 7.70242 20.3335 8.96203C20.8086 9.24332 20.9661 9.85665 20.6851 10.3318C20.4037 10.807 19.7905 10.9647 19.3153 10.6834C17.8356 9.80733 16.0272 9.7906 14.3882 10.6977C13.905 10.9652 13.2963 10.7903 13.0288 10.3071C12.7615 9.8239 12.9363 9.21513 13.4194 8.94771Z" fill="black"/>
</svg>
