<svg width="32" height="32" viewBox="0 0 32 32" fill="none" xmlns="http://www.w3.org/2000/svg">
<path d="M23.34 10.9369C23.34 8.03949 20.518 4.51636 16.0002 4.51636C11.4826 4.51668 8.66162 8.03962 8.66162 10.9369C8.66157 12.1359 8.50859 13.06 8.25928 13.8328C8.01053 14.6037 7.67856 15.1835 7.38558 15.6739C7.08537 16.1764 6.85584 16.5412 6.68115 16.9981C6.51814 17.4247 6.39666 17.9556 6.39209 18.7234C6.4621 19.4627 6.67156 19.994 6.98454 20.3992C7.30588 20.8151 7.79481 21.1734 8.53923 21.4643C10.0776 22.0652 12.4774 22.295 16.0002 22.295C19.5228 22.295 21.9239 22.0629 23.4624 21.4604C24.2073 21.1686 24.6969 20.8085 25.0184 20.3927C25.3313 19.9877 25.5387 19.4577 25.6082 18.7221C25.6035 17.955 25.4834 17.4244 25.3205 16.9981C25.1458 16.5412 24.9163 16.1764 24.616 15.6739C24.3231 15.1835 23.9911 14.6036 23.7423 13.8328C23.493 13.06 23.3401 12.1359 23.34 10.9369ZM25.34 10.9369C25.3401 11.959 25.4698 12.6719 25.646 13.2182C25.8229 13.7664 26.059 14.1884 26.3335 14.6479C26.6005 15.0948 26.9381 15.6283 27.189 16.2846C27.4484 16.9635 27.6095 17.7505 27.6095 18.769C27.6095 18.7977 27.6081 18.8263 27.6056 18.8549C27.5141 19.9101 27.2005 20.8404 26.6004 21.6166C26.0031 22.3892 25.1794 22.9354 24.1916 23.3223C22.2639 24.0773 19.5157 24.295 16.0002 24.295C12.4868 24.295 9.74021 24.0804 7.81266 23.3276C6.82446 22.9415 6.00025 22.3955 5.40251 21.6218C4.80212 20.8447 4.48781 19.9129 4.396 18.8549C4.39352 18.8263 4.3921 18.7977 4.39209 18.769C4.39209 17.7505 4.55322 16.9635 4.81266 16.2846C5.06349 15.6283 5.4011 15.0948 5.66813 14.6479C5.94264 14.1884 6.17875 13.7664 6.35563 13.2182C6.53185 12.6719 6.66157 11.959 6.66162 10.9369C6.66162 6.89277 10.4208 2.51668 16.0002 2.51636C21.5798 2.51636 25.34 6.89262 25.34 10.9369Z" fill="black"/>
<path d="M18.2396 26.3815C18.609 25.9714 19.2407 25.9381 19.651 26.3072C20.0614 26.6768 20.0948 27.3096 19.7252 27.72C17.6293 30.0472 14.2814 30.0781 12.1614 27.7187C11.7923 27.3079 11.8262 26.6764 12.2369 26.3072C12.6478 25.9382 13.2793 25.972 13.6484 26.3828C14.9661 27.8491 16.9303 27.8352 18.2396 26.3815Z" fill="black"/>
</svg>
