<svg width="32" height="32" viewBox="0 0 32 32" fill="none" xmlns="http://www.w3.org/2000/svg">
<path fill-rule="evenodd" clip-rule="evenodd" d="M22.8769 10.7069C24.2112 11.5661 25.975 11.4853 27.228 10.4636L27.5106 10.2085C28.1905 9.52856 28.2329 8.45191 27.6377 7.7226L27.5106 7.58265L24.4806 4.55259C23.7554 3.82752 22.5798 3.82752 21.8547 4.55259C20.5585 5.84877 20.4209 7.86463 21.4416 9.31377L14.7147 16.0406L12.9377 14.2636C11.8963 13.2222 10.2079 13.2222 9.16648 14.2636L6.18157 17.2485L5.96429 17.4768C3.86351 19.8021 3.86343 23.3514 5.96428 25.6766L6.18157 25.9049C8.4972 28.2205 12.2069 28.293 14.6096 26.1222L14.838 25.9049L17.8229 22.92C18.7993 21.9436 18.8596 20.3988 18.0052 19.3514L17.8229 19.1488L16.1289 17.4549L22.8769 10.7069ZM25.9896 8.89006C25.53 9.27941 24.9142 9.38833 24.3676 9.21623C24.1136 9.13627 23.8746 8.99565 23.6731 8.79431L23.2689 8.39012C23.1091 8.23031 22.9876 8.04689 22.9042 7.85113C22.6563 7.26888 22.7463 6.57747 23.1731 6.0736L25.9896 8.89006ZM11.5235 15.6778L13.3005 17.4548L10.8216 19.9338C10.4311 20.3243 10.4311 20.9574 10.8216 21.348C11.2121 21.7385 11.8453 21.7385 12.2358 21.348L14.7147 18.8691L16.4087 20.563C16.6689 20.8234 16.669 21.2455 16.4087 21.5058L13.4238 24.4907C11.8145 26.1 9.20508 26.1 7.59576 24.4907C5.98645 22.8814 5.98649 20.272 7.59577 18.6627L10.5807 15.6778C10.841 15.4174 11.2631 15.4174 11.5235 15.6778Z" fill="black"/>
</svg>
