<svg width="32" height="32" viewBox="0 0 32 32" fill="none" xmlns="http://www.w3.org/2000/svg">
<path d="M23.2701 17.7084C23.8164 17.7642 24.2415 18.2269 24.2415 18.7865C24.2411 19.3831 23.7577 19.8683 23.1594 19.8686C22.5991 19.8686 22.137 19.4429 22.0813 18.8972L22.0761 18.7865L22.0813 18.6759C22.1365 18.1296 22.5987 17.7032 23.1594 17.7032L23.2701 17.7084Z" fill="black"/>
<path d="M19.9645 17.5418C20.5116 17.5975 20.9359 18.061 20.9359 18.6199C20.9356 19.2165 20.4521 19.7016 19.8539 19.7019C19.2951 19.7019 18.8315 19.2777 18.7757 18.7306L18.7705 18.6199L18.7757 18.5079C18.8315 17.9614 19.2943 17.5365 19.8539 17.5365L19.9645 17.5418Z" fill="black"/>
<path d="M21.2678 20.5418C21.8156 20.5975 22.2392 21.0619 22.2392 21.6199C22.2389 22.2157 21.7563 22.7016 21.1572 22.7019C20.5976 22.7019 20.1348 22.2771 20.079 21.7306L20.0738 21.6199L20.079 21.5092C20.1342 20.9629 20.5963 20.5365 21.1572 20.5365L21.2678 20.5418Z" fill="black"/>
<path fill-rule="evenodd" clip-rule="evenodd" d="M14.7091 15.6121C14.2935 14.9917 13.9645 14.4869 13.7078 14.0522C15.0066 12.657 16.8571 11.7865 18.9113 11.7865C22.8367 11.7866 26.0194 14.9692 26.0194 18.8946C26.0192 22.8199 22.8366 26.0013 18.9113 26.0014C17.5015 26.0014 16.1891 25.5917 15.0846 24.8846C15.4386 24.2438 15.744 23.534 15.9565 22.7683C16.5422 20.6572 16.4093 18.1503 14.7091 15.6121ZM12.9297 12.0262C12.9099 11.8348 12.905 11.638 12.9122 11.4272C12.9207 11.1812 13.0026 10.8654 13.1583 10.4207C13.1988 10.305 13.2465 10.175 13.2974 10.0363C13.4188 9.70582 13.5584 9.32554 13.6622 8.97014C13.976 7.89573 14.1392 6.48754 12.9734 5.24228L12.9435 5.21103L12.6518 4.95061C11.142 3.71783 8.85412 3.53628 7.27419 5.24749C6.71682 5.85119 6.4423 6.51837 6.37575 7.20452C6.31197 7.8631 6.44488 8.48641 6.60492 9.01311C6.70649 9.34738 6.8448 9.71654 6.96414 10.0351C7.0208 10.1863 7.07318 10.3261 7.11534 10.4454C7.26917 10.8807 7.34047 11.1741 7.3406 11.392C7.3406 12.6689 6.96184 13.4951 5.54372 15.6121C3.8435 18.1503 3.71056 20.6572 4.29633 22.7683C4.87106 24.8393 6.12473 26.5024 7.18304 27.4936C7.55968 27.8464 8.04129 28.0053 8.50205 28.0053H11.7508C12.2114 28.0053 12.6919 27.8463 13.0685 27.4936C13.3569 27.2235 13.6598 26.9036 13.9597 26.5391C15.3852 27.4638 17.0867 28.0014 18.9113 28.0014C23.9412 28.0013 28.0192 23.9244 28.0194 18.8946C28.0194 13.8647 23.9413 9.78661 18.9113 9.78655C16.6217 9.78655 14.5292 10.6323 12.9297 12.0262ZM9.3406 11.392C9.3406 13.3182 8.64008 14.5833 7.20518 16.7253C5.85796 18.7366 5.77925 20.6323 6.22341 22.2332C6.6733 23.8546 7.67242 25.2007 8.52159 26.0053H11.7299C12.5792 25.2008 13.5794 23.855 14.0294 22.2332C14.4735 20.6324 14.3948 18.7365 13.0476 16.7253C11.6353 14.617 10.8435 13.3553 10.9122 11.3582C10.9319 10.7865 11.1074 10.2245 11.2703 9.7592C11.3325 9.58137 11.3923 9.41883 11.4492 9.26415C11.5582 8.96769 11.6566 8.70008 11.7416 8.40894C11.979 7.59621 11.9549 7.09182 11.5255 6.62379C10.6808 5.81274 9.51636 5.76804 8.74424 6.60426C8.48503 6.88518 8.39135 7.14314 8.36664 7.39722C8.33932 7.67932 8.39064 8.0128 8.51768 8.43108C8.60211 8.70896 8.6952 8.9548 8.79771 9.22552C8.86204 9.39541 8.93009 9.57511 9.00205 9.77874C9.16549 10.2412 9.34048 10.8097 9.3406 11.392Z" fill="black"/>
</svg>
