<svg width="32" height="32" viewBox="0 0 32 32" fill="none" xmlns="http://www.w3.org/2000/svg">
<path fill-rule="evenodd" clip-rule="evenodd" d="M15.0004 24.6025C9.95151 24.0896 6.01717 19.821 6.02932 14.6399C6.01717 19.8192 9.9534 24.0873 15.0004 24.6025Z" fill="black"/>
<path d="M19.5551 9.35254C19.5549 7.38949 17.9623 5.79785 15.9991 5.79785C14.0362 5.79806 12.4446 7.38961 12.4444 9.35254V14.6117C12.4397 16.5792 14.0319 18.1776 16.0004 18.182C17.9681 18.1767 19.5598 16.5794 19.5551 14.6117V9.35254ZM21.5551 14.6064L21.5486 14.8929C21.4067 17.8329 18.981 20.1761 16.0043 20.1833C12.9302 20.1773 10.4371 17.6791 10.4444 14.6064V9.35254C10.4446 6.28504 12.9316 3.79806 15.9991 3.79785C19.0668 3.79785 21.5549 6.2849 21.5551 9.35254V14.6064Z" fill="black"/>
<path d="M16.0007 22.6533C11.587 22.6414 8.01865 19.0565 8.02933 14.6442C8.03067 14.092 7.58415 13.643 7.03193 13.6416C6.4797 13.6403 6.03076 14.0877 6.02932 14.6399C6.01717 19.8192 9.9534 24.0873 15.0004 24.6025V27.2028C15.0008 27.7548 15.4483 28.2028 16.0004 28.2028C16.5525 28.2028 17.0001 27.7548 17.0004 27.2028V24.603C22.0487 24.0901 25.9833 19.8204 25.9707 14.639C25.9693 14.0868 25.5204 13.6403 24.9681 13.6416C24.4161 13.6432 23.9694 14.0921 23.9707 14.6442C23.9814 19.0564 20.413 22.6411 16.0007 22.6533Z" fill="black"/>
</svg>
