<svg width="32" height="32" viewBox="0 0 32 32" fill="none" xmlns="http://www.w3.org/2000/svg">
<path d="M11.3689 16.0677C11.9212 16.0677 12.3689 16.5154 12.3689 17.0677C12.3689 17.62 11.9212 18.0677 11.3689 18.0677H9.02252C8.47024 18.0677 8.02252 17.62 8.02252 17.0677C8.02252 16.5154 8.47024 16.0677 9.02252 16.0677H11.3689Z" fill="black"/>
<path d="M26.7217 19.0535C26.7217 18.3656 26.5096 17.8597 26.2087 17.5366C25.9153 17.2217 25.4647 17.0001 24.8168 17.0001H19.6944C19.0495 17.0001 18.5983 17.2219 18.3038 17.5379C18.0021 17.8616 17.7895 18.3669 17.7895 19.0535V23.879C17.7895 24.567 18.0017 25.0728 18.3025 25.3959C18.5957 25.7108 19.0465 25.9324 19.6944 25.9324H24.8155C25.4641 25.9324 25.9153 25.7097 26.2087 25.3946C26.5095 25.0715 26.7217 24.5667 26.7217 23.879V19.0535ZM28.7217 23.879C28.7217 24.9799 28.3763 26.0019 27.6723 26.7579C26.9607 27.522 25.958 27.9324 24.8155 27.9324H19.6944C18.5521 27.9324 17.549 27.5221 16.8376 26.7579C16.1341 26.0019 15.7895 24.9796 15.7895 23.879V19.0535C15.7895 17.9515 16.1361 16.9288 16.8402 16.1733C17.5517 15.4101 18.5541 15.0001 19.6944 15.0001H24.8168C25.9591 15.0001 26.9608 15.4105 27.6723 16.1746C28.3762 16.9306 28.7217 17.9526 28.7217 19.0535V23.879Z" fill="black"/>
<path d="M23.6512 19.3556C24.0417 18.9651 24.6747 18.9653 25.0653 19.3556C25.4558 19.7461 25.4558 20.3791 25.0653 20.7696L22.2606 23.5743C21.8701 23.9645 21.2369 23.9646 20.8465 23.5743L19.4442 22.172C19.0537 21.7815 19.0538 21.1485 19.4442 20.7579C19.8346 20.3674 20.4677 20.3675 20.8582 20.7579L21.5535 21.4532L23.6512 19.3556Z" fill="black"/>
<path fill-rule="evenodd" clip-rule="evenodd" d="M4.11193 12.5886C4.34545 12.6218 4.57908 12.6539 4.81281 12.685L4.40782 13.2423C3.67267 14.2569 3.27628 15.479 3.27761 16.7319L3.25677 23.5288C3.25278 24.805 4.28649 25.8426 5.56276 25.8426H8.15C9.42328 25.8424 10.4559 24.81 10.456 23.5366V23.0014C10.456 22.8325 10.5931 22.6954 10.762 22.6954H12.8102C13.3622 22.6951 13.8102 22.2475 13.8102 21.6954C13.8101 21.1434 13.3622 20.6957 12.8102 20.6954H10.762C9.48849 20.6954 8.45599 21.728 8.45599 23.0014V23.5366C8.45595 23.7054 8.31877 23.8424 8.15 23.8426H5.56276C5.39349 23.8426 5.25624 23.7045 5.25677 23.5353L5.27761 16.7332C5.27601 15.9016 5.5386 15.0915 6.0263 14.4181L7.08744 12.9569C13.0179 13.5843 18.9982 13.5828 24.9285 12.9524L25.9807 14.3647C26.3107 14.8075 26.9376 14.8989 27.3805 14.5691C27.8233 14.2391 27.9149 13.6122 27.5849 13.1694L27.2184 12.6774C27.433 12.6486 27.6475 12.6191 27.8619 12.5886C28.4087 12.5111 28.7897 12.0053 28.7122 11.4584C28.6346 10.9119 28.1285 10.5323 27.582 10.6095C27.0254 10.6884 26.4669 10.7581 25.9091 10.8256L24.5393 7.02224C24.0733 5.70205 22.8791 4.70537 21.4964 4.48188L20.8141 4.38162C17.3961 3.91108 13.9264 3.94417 10.5159 4.48188C9.13683 4.71148 7.94347 5.71073 7.48203 7.03006L6.11615 10.8204L6.11054 10.8346C5.53751 10.7656 4.96502 10.6906 4.39318 10.6095C3.84646 10.532 3.34065 10.9118 3.26297 11.4584C3.18545 12.0052 3.56528 12.511 4.11193 12.5886ZM8.15946 11.0555C13.3827 11.5528 18.6417 11.5513 23.8648 11.0509L22.6578 7.69933C22.4366 7.06813 21.8447 6.56529 21.1852 6.45714C17.7562 5.91653 14.2638 5.91601 10.8349 6.45584C10.1771 6.56578 9.59039 7.06043 9.37006 7.69021L8.15946 11.0555Z" fill="black"/>
</svg>
