<svg width="32" height="32" viewBox="0 0 32 32" fill="none" xmlns="http://www.w3.org/2000/svg">
<path fill-rule="evenodd" clip-rule="evenodd" d="M25.7372 10.6882C25.7789 10.8675 25.8063 11.0509 25.8188 11.2369C25.8246 11.1934 25.8275 11.1491 25.8275 11.1041C25.8275 10.9557 25.7952 10.8148 25.7372 10.6882Z" fill="black"/>
<path d="M21.2214 21.2604C21.7737 21.2604 22.2214 21.7081 22.2214 22.2604C22.2214 22.8127 21.7737 23.2604 21.2214 23.2604H17.4909C16.9387 23.2604 16.4909 22.8127 16.4909 22.2604C16.4909 21.7081 16.9387 21.2604 17.4909 21.2604H21.2214Z" fill="black"/>
<path d="M13.0327 19.5722C13.4233 19.1819 14.0563 19.1817 14.4467 19.5722C14.837 19.9628 14.837 20.5959 14.4467 20.9863L12.3087 23.123C11.9182 23.5133 11.2851 23.5134 10.8946 23.123L9.79698 22.0254C9.40653 21.6348 9.40649 21.0018 9.79698 20.6113C10.1875 20.2209 10.8205 20.2209 11.211 20.6113L11.6017 21.0019L13.0327 19.5722Z" fill="black"/>
<path d="M13.0327 13.1563C13.4233 12.766 14.0563 12.7658 14.4468 13.1563C14.837 13.5469 14.8371 14.18 14.4468 14.5704L12.3087 16.7071C11.9182 17.0974 11.2851 17.0974 10.8947 16.7071L9.79701 15.6095C9.40653 15.2189 9.40651 14.5859 9.79701 14.1954C10.1875 13.8049 10.8206 13.8049 11.2111 14.1954L11.6017 14.586L13.0327 13.1563Z" fill="black"/>
<path d="M21.2214 14.8477C21.7737 14.8477 22.2214 15.2955 22.2214 15.8477C22.2214 16.4 21.7737 16.8477 21.2214 16.8477H17.4909C16.9387 16.8477 16.4909 16.4 16.4909 15.8477C16.4909 15.2955 16.9387 14.8477 17.4909 14.8477H21.2214Z" fill="black"/>
<path d="M20.5828 12.1041H23.8265V24.5247C23.8263 25.3252 23.1777 25.974 22.3747 25.974H9.62467C8.82289 25.9739 8.17293 25.3239 8.17285 24.5221V7.35807C8.17293 6.5556 8.82228 5.90633 9.62337 5.90625H17.7442V9.26551C17.7445 10.8331 19.0153 12.1038 20.5828 12.1041ZM23.0593 10.1041H20.5828C20.1198 10.1038 19.7445 9.72846 19.7442 9.26551V6.78997L23.0593 10.1041ZM25.7372 10.6882C25.5924 10.0651 25.2752 9.49167 24.8161 9.03255L20.7002 4.91667C20.0542 4.27092 19.1808 3.90636 18.264 3.90625H9.62337C7.71633 3.90633 6.17293 5.45241 6.17285 7.35807V24.5221C6.17293 26.4285 7.71834 27.9739 9.62467 27.974H22.3747C24.2798 27.974 25.8263 26.4323 25.8265 24.5247V11.4674C25.8265 11.3902 25.8239 11.3133 25.8188 11.2369C25.8063 11.0509 25.7789 10.8675 25.7372 10.6882Z" fill="black"/>
</svg>
