<svg width="32" height="32" viewBox="0 0 32 32" fill="none" xmlns="http://www.w3.org/2000/svg">
<path d="M9.96232 5.4127C9.57179 5.02231 8.93874 5.02222 8.54826 5.4127L4.31389 9.64838C3.92337 10.0389 3.92337 10.6719 4.31389 11.0624L8.54826 15.2968C8.93878 15.6873 9.5718 15.6873 9.96232 15.2968C10.3528 14.9063 10.3528 14.2732 9.96232 13.8828L7.43498 11.3554H19.1381C19.6902 11.3554 20.1379 10.9075 20.1381 10.3554C20.1381 9.80312 19.6904 9.35541 19.1381 9.35541H7.43498L9.96232 6.82676C10.3528 6.43624 10.3528 5.80322 9.96232 5.4127Z" fill="black"/>
<path d="M23.3887 16.7044C22.9981 16.3141 22.3651 16.3139 21.9746 16.7044C21.5844 17.0948 21.5844 17.728 21.9746 18.1184L24.5033 20.6471H12.8001C12.2478 20.6471 11.8001 21.0948 11.8001 21.6471C11.8003 22.1992 12.248 22.6471 12.8001 22.6471H24.5033L21.9746 25.1744C21.5842 25.5648 21.5846 26.1979 21.9746 26.5885C22.3651 26.979 22.9982 26.979 23.3887 26.5885L27.6244 22.3541C28.0148 21.9636 28.0147 21.3306 27.6244 20.94L23.3887 16.7044Z" fill="black"/>
</svg>
