<svg width="32" height="32" viewBox="0 0 32 32" fill="none" xmlns="http://www.w3.org/2000/svg">
<path d="M4.04932 16.0391C4.04946 8.72069 10.7142 2.88451 18.2707 4.30214C23.0289 5.19504 26.844 9.01142 27.7368 13.7683C29.1544 21.3247 23.3182 27.9895 15.9998 27.9896C14.128 27.9896 12.2599 27.5385 10.6222 26.711C10.5394 26.6694 10.4868 26.6718 10.453 26.6797C9.96431 26.7947 9.32279 26.9508 8.65999 27.1146L6.73161 27.5964C5.35128 27.9437 4.08709 26.7123 4.40869 25.3204L5.28239 21.4818C5.2914 21.4408 5.28866 21.3851 5.25895 21.3217V21.3191C4.51158 19.7185 4.04932 17.9306 4.04932 16.0391ZM6.04932 16.0391C6.04932 17.6012 6.42951 19.1015 7.06885 20.4714C7.27342 20.9074 7.34488 21.4103 7.23551 21.9089C7.05208 22.7492 6.67547 24.3875 6.39176 25.6185C7.53328 25.3318 9.03911 24.9574 9.99202 24.7331C10.4699 24.6201 10.9369 24.6788 11.3475 24.8464L11.5207 24.9245L11.522 24.9258C12.8813 25.613 14.4418 25.9896 15.9998 25.9896C21.903 25.9895 26.6478 20.7773 25.8644 14.7253L25.772 14.1368C25.0312 10.1903 21.8496 7.00773 17.9022 6.26698C11.6036 5.08526 6.04946 9.94535 6.04932 16.0391Z" fill="black"/>
<path d="M11.3141 10.8673C12.4318 9.7516 14.2912 9.90922 15.1969 11.2097L15.7568 12.0105L15.7581 12.0118C16.3752 12.8934 16.3675 14.0619 15.766 14.9285C16.1844 15.4954 16.5689 15.9003 17.0824 16.2775C17.9507 15.661 19.132 15.6514 20.0199 16.2748C20.3049 16.474 20.566 16.6575 20.818 16.8321L20.8206 16.8347C22.0375 17.6837 22.2578 19.3709 21.3571 20.5001L21.1631 20.7176L21.0055 20.8751C19.819 22.0557 18.3031 22.1548 16.8988 21.6941C15.5356 21.2468 14.1794 20.2573 12.9977 19.0756C11.8158 17.8937 10.8178 16.5292 10.3597 15.159C9.88941 13.7522 9.96717 12.2188 11.1553 11.0248L11.3141 10.8673ZM13.555 12.353C13.3644 12.0795 12.9681 12.0419 12.7269 12.2827L12.7256 12.2814L12.5719 12.435C12.0731 12.9363 11.9473 13.5989 12.2568 14.5248C12.5786 15.4873 13.3445 16.5943 14.4118 17.6616C15.4793 18.7291 16.5743 19.4819 17.5225 19.7931C18.4291 20.0905 19.0856 19.9631 19.5941 19.4571L19.749 19.3035C19.9872 19.0657 19.9539 18.6687 19.6787 18.4754C19.4225 18.2978 19.1527 18.1084 18.8727 17.9129L18.8701 17.9116C18.6492 17.7567 18.3526 17.7855 18.1722 17.965L18.1709 17.9663L17.8844 18.2501C17.5606 18.5715 17.0603 18.6333 16.6683 18.3998C15.2679 17.5656 14.5424 16.7336 13.6579 15.4051C13.3952 15.01 13.4464 14.4843 13.7803 14.1472L14.0641 13.8608C14.2449 13.6784 14.2736 13.38 14.1188 13.159C13.9195 12.8755 13.7331 12.6077 13.5563 12.3543L13.555 12.353Z" fill="black"/>
</svg>
