<?xml version="1.0" encoding="UTF-8"?>
<svg id="Capa_1" xmlns="http://www.w3.org/2000/svg" version="1.1" viewBox="0 0 32 32">
  <!-- Generator: Adobe Illustrator 30.0.0, SVG Export Plug-In . SVG Version: 2.1.1 Build 123)  -->
  <defs>
    <style>
      .st0 {
        fill-rule: evenodd;
      }
    </style>
  </defs>
  <path class="st0" d="M19.77,9.4h-2.18c-.55,0-1,.45-1,1s.45,1,1,1h2.18c.55,0,1-.45,1-1s-.45-1-1-1Z"/>
  <path class="st0" d="M24.37,13.48v-5.04c0-1.25-.39-2.41-1.18-3.26-.75-.8-1.79-1.26-2.98-1.32h-.24s-7.93,0-7.93,0c-1.29,0-2.42.47-3.22,1.32-.79.85-1.19,2-1.19,3.26v5.04s0,.02,0,.04,0,.02,0,.04v10.03c0,1.25.39,2.41,1.18,3.26.8.86,1.92,1.32,3.22,1.32h7.93c1.3,0,2.42-.46,3.22-1.32.79-.85,1.18-2,1.18-3.26v-10.03s0-.02,0-.04,0-.02,0-.04ZM22.37,23.58c0,.84-.26,1.48-.65,1.89-.38.41-.95.68-1.76.68h-7.93c-.8,0-1.38-.28-1.76-.68-.39-.42-.65-1.05-.65-1.89v-9.07h12.74v9.07ZM22.37,12.52h-12.74v-4.08c0-.84.26-1.48.65-1.89.38-.41.96-.68,1.76-.68h8.22c.65.07,1.13.33,1.47.68.39.42.65,1.05.65,1.89v4.08Z"/>
  <path class="st0" d="M17.59,17.63h2.18c.55,0,1-.45,1-1s-.45-1-1-1h-2.18c-.55,0-1,.45-1,1s.45,1,1,1Z"/>
</svg>