<svg width="32" height="32" viewBox="0 0 32 32" fill="none" xmlns="http://www.w3.org/2000/svg">
<path d="M5.20101 22.6746L5.19971 9.3256C5.19859 6.2948 7.65669 3.83878 10.6854 3.83862H11.9445C12.4968 3.83862 12.9445 4.28634 12.9445 4.83862C12.9445 5.39091 12.4968 5.83862 11.9445 5.83862H10.6854C8.76048 5.83878 7.19876 7.40037 7.19971 9.3256L7.20101 22.6746C7.2011 24.6006 8.76225 26.1614 10.6867 26.1615H17.5265C19.4525 26.1615 21.0147 24.6004 21.0148 22.6746V21.7253C21.0148 21.1731 21.4625 20.7253 22.0148 20.7253C22.5669 20.7256 23.0148 21.1732 23.0148 21.7253V22.6746C23.0147 25.7051 20.557 28.1615 17.5265 28.1615H10.6867C7.65735 28.1614 5.2011 25.7048 5.20101 22.6746Z" fill="black"/>
<path d="M14.2224 21.4441C14.8421 21.5069 15.3253 22.0305 15.3253 22.6667C15.3251 23.345 14.7757 23.8944 14.0974 23.8946C13.4611 23.8946 12.9376 23.4114 12.8748 22.7917L12.8682 22.6667L12.8748 22.5404C12.9378 21.921 13.4613 21.4376 14.0974 21.4376L14.2224 21.4441Z" fill="black"/>
<path d="M16.5221 5.13159C17.479 3.46056 19.8431 3.40997 20.8866 4.97664L20.983 5.13289L26.4583 14.7058C27.4387 16.4197 26.2004 18.5519 24.2278 18.5522H13.2694C11.295 18.5522 10.0589 16.4178 11.039 14.7045L16.5221 5.13159ZM19.2473 6.12638C19.0284 5.74369 18.4769 5.74269 18.2577 6.12508L12.7747 15.698C12.557 16.0784 12.8317 16.5522 13.2694 16.5522H24.2278C24.6654 16.5519 24.9395 16.0788 24.7226 15.6993L19.2473 6.12638Z" fill="black"/>
<path d="M17.7461 11.1954V8.83341C17.7461 8.28113 18.1938 7.83341 18.7461 7.83341C19.2984 7.83341 19.7461 8.28113 19.7461 8.83341V11.1954C19.746 11.7476 19.2983 12.1954 18.7461 12.1954C18.1938 12.1954 17.7462 11.7476 17.7461 11.1954Z" fill="black"/>
<path d="M18.7481 13.224C19.4844 13.2242 20.0815 13.8211 20.0815 14.5574C20.0815 15.2937 19.4844 15.8906 18.7481 15.8907H18.7403C18.0039 15.8907 17.407 15.2938 17.407 14.5574C17.407 13.821 18.0039 13.224 18.7403 13.224H18.7481Z" fill="black"/>
</svg>
