<svg width="32" height="32" viewBox="0 0 32 32" fill="none" xmlns="http://www.w3.org/2000/svg">
<path d="M20.5232 4.04564C21.075 4.06694 21.5053 4.53163 21.4841 5.08341C21.4628 5.63525 20.9982 6.06559 20.4464 6.04434C16.5544 5.89417 12.9036 7.92277 10.9737 11.3061C10.6831 11.8213 10.4439 12.3566 10.256 12.905H19.5687C20.1207 12.9053 20.5687 13.3529 20.5687 13.905C20.5687 14.4571 20.1207 14.9046 19.5687 14.905H9.8036C9.71961 15.6326 9.71954 16.3676 9.80337 17.0951H19.5687C20.1207 17.0954 20.5687 17.543 20.5687 18.0951C20.5685 18.6471 20.1206 19.0948 19.5687 19.0951H10.2556C10.4436 19.6436 10.6829 20.179 10.9737 20.6941L11.1599 21.0066C13.132 24.2035 16.6755 26.1013 20.4464 25.9558C20.9982 25.9346 21.4628 26.3649 21.4841 26.9167C21.5051 27.4684 21.0749 27.9332 20.5232 27.9545C15.8856 28.1334 11.5347 25.718 9.23544 21.6837C8.76861 20.8574 8.41116 19.9877 8.16312 19.0951H6.78613C6.23393 19.0951 5.78627 18.6473 5.78613 18.0951C5.78613 17.5428 6.23385 17.0951 6.78613 17.0951H7.79328C7.724 16.3668 7.72408 15.6334 7.79337 14.905H6.78613C6.23385 14.905 5.78613 14.4573 5.78613 13.905C5.78613 13.3527 6.23385 12.905 6.78613 12.905H8.16335C8.41114 12.0134 8.76806 11.1447 9.23414 10.3191C11.5334 6.28842 15.8855 3.86678 20.5232 4.04564Z" fill="black"/>
</svg>
