<svg width="32" height="32" viewBox="0 0 32 32" fill="none" xmlns="http://www.w3.org/2000/svg">
<path d="M9.07551 8.30702C9.62779 8.30702 10.0755 8.75473 10.0755 9.30702C10.0755 9.8593 9.62779 10.307 9.07551 10.307H9.0078C8.45551 10.307 8.0078 9.8593 8.0078 9.30702C8.0078 8.75473 8.45551 8.30702 9.0078 8.30702H9.07551ZM12.1185 8.30702C12.6708 8.30702 13.1185 8.75473 13.1185 9.30702C13.1185 9.8593 12.6708 10.307 12.1185 10.307H12.0508C11.4985 10.307 11.0508 9.85927 11.0508 9.30702C11.0508 8.75476 11.4985 8.30706 12.0508 8.30702H12.1185ZM15.1627 8.30702C15.715 8.30702 16.1627 8.75473 16.1627 9.30702C16.1627 9.8593 15.715 10.307 15.1627 10.307H15.095C14.5428 10.307 14.095 9.8593 14.095 9.30702C14.095 8.75473 14.5428 8.30702 15.095 8.30702H15.1627Z" fill="black"/>
<path fill-rule="evenodd" clip-rule="evenodd" d="M5.98096 20.8411V13.9062H26.0174V20.8411C26.0174 22.4375 25.5225 23.7173 24.7114 24.5885C23.9079 25.4515 22.7201 25.9947 21.1619 25.9947H10.8364C9.27899 25.9946 8.09066 25.4516 7.28695 24.5885C6.47582 23.7172 5.98096 22.4373 5.98096 20.8411ZM3.98096 20.8411C3.98096 22.8505 4.60909 24.6476 5.82341 25.9517C7.04516 27.2638 8.78492 27.9946 10.8364 27.9947H21.1619C23.2138 27.9947 24.9533 27.2637 26.175 25.9517C27.3892 24.6476 28.0174 22.8503 28.0174 20.8411V11.1119C28.0174 9.10268 27.389 7.30537 26.175 6.00122C24.9535 4.68938 23.2145 3.95835 21.1632 3.95825H10.8364C8.78969 3.95832 7.05114 4.69013 5.82861 6.00122C4.61326 7.30472 3.98096 9.1013 3.98096 11.1119V20.8411ZM5.98096 11.9062V11.1119C5.98096 9.51685 6.47795 8.23636 7.29085 7.3645C8.09647 6.50058 9.28515 5.95832 10.8364 5.95825H21.1632C22.7206 5.95834 23.908 6.50147 24.7114 7.3645C25.5224 8.23571 26.0174 9.51547 26.0174 11.1119V11.9062H5.98096Z" fill="black"/>
</svg>
