<svg width="32" height="32" viewBox="0 0 32 32" fill="none" xmlns="http://www.w3.org/2000/svg">
<path d="M13.6843 5.45564C14.6348 3.55711 17.3653 3.55711 18.3158 5.45564L20.6687 10.1549C20.7512 10.3196 20.9131 10.4407 21.1075 10.4687L26.3705 11.2252C28.4744 11.5292 29.3544 14.1102 27.7976 15.6041L23.9929 19.2603C23.8567 19.3914 23.798 19.574 23.8288 19.7512L24.7273 24.914C25.0944 27.0351 22.8512 28.5914 20.9812 27.6197L16.278 25.1809C16.1063 25.092 15.8965 25.0921 15.7221 25.1822L11.0189 27.621C9.14948 28.5917 6.90435 27.0362 7.27414 24.914L8.17127 19.7512C8.19437 19.6183 8.16683 19.4822 8.09445 19.3671L8.00721 19.2603L4.20122 15.6028C2.64555 14.1087 3.5246 11.5289 5.6283 11.2252L10.8913 10.4687C11.0867 10.4404 11.2508 10.3198 11.3327 10.1562L13.6843 5.45564ZM16.5267 6.35017C16.3268 5.95149 15.763 5.9269 15.5176 6.27595L15.4721 6.35017L13.1218 11.0494C12.79 11.7134 12.1891 12.1939 11.4838 12.384L11.1765 12.4478L5.91346 13.2056C5.41774 13.2777 5.26213 13.8481 5.58664 14.1601L9.39263 17.8176C10.0042 18.4057 10.2874 19.257 10.1413 20.095L9.24419 25.2564C9.16936 25.6877 9.64248 26.0825 10.0971 25.8463L14.8028 23.4062C15.553 23.018 16.4483 23.0168 17.1986 23.4062L21.9017 25.845C22.3559 26.0807 22.8309 25.6891 22.7559 25.2564L21.8588 20.095C21.7127 19.257 21.9945 18.4057 22.6062 17.8176L26.4135 14.1601C26.7379 13.8479 26.5815 13.2773 26.0853 13.2056L20.8236 12.4478C19.9861 12.3276 19.2582 11.8071 18.8796 11.0494L16.5267 6.35017Z" fill="black"/>
</svg>
