<svg width="32" height="32" viewBox="0 0 32 32" fill="none" xmlns="http://www.w3.org/2000/svg">
<path fill-rule="evenodd" clip-rule="evenodd" d="M8.13756 17.9686L7.9738 17.966C8.02859 17.966 8.08318 17.9669 8.13756 17.9686ZM7.9738 17.966L7.80952 17.9686C7.86407 17.9669 7.91883 17.966 7.9738 17.966Z" fill="black"/>
<path fill-rule="evenodd" clip-rule="evenodd" d="M23.4305 20.0795C23.4093 20.0875 23.3876 20.0948 23.3656 20.1014C23.345 20.1076 23.3243 20.1131 23.3036 20.1179C23.3456 20.1042 23.3878 20.0914 23.4305 20.0795Z" fill="black"/>
<path fill-rule="evenodd" clip-rule="evenodd" d="M22.9631 15.2868L22.9175 15.1351C22.9367 15.1845 22.9519 15.2352 22.9631 15.2868Z" fill="black"/>
<path fill-rule="evenodd" clip-rule="evenodd" d="M8.10117 19.9686C8.05893 19.9669 8.01646 19.966 7.9738 19.966C7.93096 19.966 7.88832 19.9669 7.84591 19.9686L7.9738 19.966L8.10117 19.9686Z" fill="black"/>
<path d="M23.8512 11.6847C24.3859 11.5468 24.9319 11.8688 25.07 12.4035L25.6481 14.6418C25.7862 15.1765 25.4641 15.7224 24.9294 15.8605C24.3948 15.9985 23.8489 15.6775 23.7106 15.1431L23.1325 12.9035C22.9945 12.3688 23.3166 11.8228 23.8512 11.6847Z" fill="black"/>
<path fill-rule="evenodd" clip-rule="evenodd" d="M18.6037 22.2238L21.6281 17.7948L21.8604 18.568C20.2635 19.4256 19.1776 21.1114 19.1776 23.0506C19.1778 25.8584 21.4545 28.134 24.2622 28.134C27.0697 28.1337 29.3453 25.8582 29.3455 23.0506C29.3455 20.2429 27.0699 17.9662 24.2622 17.966C24.0978 17.966 23.9351 17.9738 23.7747 17.9891L22.9631 15.2868L22.9175 15.1351L21.8304 11.5155L21.7562 11.3058C21.3398 10.2774 20.3135 9.60027 19.1781 9.6561L17.5856 9.74334C17.0345 9.77353 16.6119 10.2443 16.6416 10.7954C16.6715 11.3469 17.1435 11.7707 17.695 11.7407L19.2757 11.6548C19.5655 11.6405 19.8326 11.8259 19.9202 12.1079L20.3737 13.6177C19.4953 13.3738 18.3732 13.2371 17.016 13.4035C16.1497 13.5118 15.1801 13.8482 14.2801 14.2405C14.8743 12.9301 14.8597 11.5166 14.5779 10.2943C14.3593 9.34585 13.9777 8.47811 13.5675 7.7891C13.1756 7.1309 12.6943 6.52889 12.2199 6.20967C11.9556 6.032 11.6223 5.99108 11.3227 6.099C11.0234 6.20688 10.7894 6.46194 10.699 6.76697C10.6968 6.77406 10.6934 6.78381 10.6892 6.79606L10.6782 6.82816C10.6592 6.88452 10.6294 6.96981 10.5883 7.07426C10.5054 7.28518 10.3814 7.56526 10.2172 7.8503C10.2044 7.87256 10.1906 7.89414 10.177 7.91551C10.1681 7.92941 10.1593 7.94322 10.1508 7.95707C9.96357 6.87611 9.52936 5.47798 8.51412 4.26827C8.30449 4.01868 7.986 3.88712 7.66126 3.9154C7.37714 3.94023 7.11974 4.08516 6.95032 4.30993L6.88261 4.4102C6.25821 5.48952 5.67415 6.20722 5.11162 6.89847C4.92331 7.12987 4.73738 7.35834 4.55319 7.59639C3.80787 8.55966 3.19661 9.57176 2.95423 11.2201C2.74495 12.6435 3.04809 13.8953 3.67427 14.9051C3.32603 15.1355 3.09612 15.4484 2.94889 15.7733C2.6683 16.3925 2.65332 17.1512 2.65332 17.7264V17.923C2.65332 18.8155 3.22367 19.5737 4.02009 19.8534C3.31285 20.7269 2.88916 21.8394 2.88916 23.0506C2.88941 25.8583 5.16608 28.134 7.9738 28.134C10.439 28.1337 12.4941 26.3792 12.9587 24.0506H15.1584C16.5465 24.0505 17.8269 23.3701 18.6037 22.2238ZM20.5641 15.8059L19.0877 17.9686H12.8421L12.4079 17.4693C12.7585 17.2597 13.2159 16.9958 13.7283 16.7264C14.9221 16.0989 16.2758 15.5113 17.2608 15.3879C18.6841 15.2136 19.7222 15.4616 20.3845 15.729C20.4476 15.7545 20.5074 15.7802 20.5641 15.8059ZM17.7225 19.9686L16.95 21.1001C16.5458 21.6981 15.8843 22.0505 15.1584 22.0506H12.9588C12.805 21.2794 12.4768 20.5711 12.017 19.9686H17.7225ZM8.13756 17.9686L7.9738 17.966L7.80952 17.9686H4.69889C4.6731 17.9686 4.65332 17.949 4.65332 17.923V17.7264C4.65332 17.4347 4.66046 17.193 4.68327 16.9894C4.70646 16.7826 4.74146 16.6629 4.77051 16.5988C4.77669 16.5852 4.78135 16.5759 4.78483 16.5702C4.80647 16.5628 4.86187 16.5493 4.96973 16.5493H8.63509C8.83841 16.5493 9.03119 16.6332 9.17285 16.7954L10.1924 17.9686H8.13756ZM7.9738 19.966C8.01646 19.966 8.05893 19.9669 8.10117 19.9686C9.74516 20.0357 11.0571 21.3901 11.0571 23.0506C11.0569 24.7535 9.67676 26.1337 7.9738 26.134C6.2706 26.134 4.88941 24.7537 4.88916 23.0506C4.88916 21.3901 6.20188 20.0357 7.84591 19.9686C7.88832 19.9669 7.93096 19.966 7.9738 19.966ZM11.3969 14.7331C11.1104 14.9609 10.8043 15.1434 10.4868 15.283L10.4749 15.2707C9.97206 14.805 9.31792 14.5493 8.63509 14.5493H5.94574C5.17544 13.8277 4.74627 12.7854 4.9334 11.5118C5.1101 10.3099 5.52243 9.61233 6.13522 8.82035C6.27618 8.63817 6.43277 8.44547 6.60122 8.23816C6.93883 7.82268 7.3246 7.34794 7.73027 6.77868C7.97081 7.32639 8.11556 7.88189 8.19642 8.38285C8.26712 8.82116 8.28911 9.20098 8.29277 9.46749C8.29458 9.60015 8.29161 9.70391 8.28886 9.77087C8.2875 9.80402 8.28588 9.84 8.28496 9.85421C8.25722 10.1726 8.38257 10.4854 8.6235 10.6954C8.86459 10.9053 9.19206 10.9867 9.50371 10.9154C10.7098 10.6395 11.4767 9.64459 11.9061 8.91931C12.201 9.43645 12.4745 10.0691 12.63 10.7435C12.9598 12.174 12.7654 13.6448 11.3969 14.7331ZM24.2622 19.966C25.9653 19.9662 27.3455 21.3474 27.3455 23.0506C27.3453 24.7536 25.9652 26.1337 24.2622 26.134C22.559 26.134 21.1778 24.7537 21.1776 23.0506C21.1776 21.6819 22.0695 20.5212 23.3036 20.1179C23.3456 20.1042 23.3878 20.0914 23.4305 20.0795C23.6951 20.0055 23.9741 19.966 24.2622 19.966Z" fill="black"/>
</svg>
