<svg width="32" height="32" viewBox="0 0 32 32" fill="none" xmlns="http://www.w3.org/2000/svg">
<path fill-rule="evenodd" clip-rule="evenodd" d="M16.2262 20.0266C18.1659 20.0475 19.9407 20.2854 21.2624 20.9561C21.9398 21.2998 22.5325 21.7743 22.9513 22.422C23.3743 23.0763 23.5759 23.8391 23.5716 24.6797L23.5714 24.7028L23.5703 24.7258C23.5307 25.5685 23.2587 26.3826 22.7022 26.9999C22.1321 27.6323 21.3375 27.9736 20.4354 27.9736H11.9947C11.0925 27.9736 10.2961 27.6331 9.72497 27.0006C9.16679 26.3823 8.89478 25.5662 8.85942 24.7201L8.85846 24.697V24.674C8.85846 23.8328 9.06229 23.0698 9.48569 22.4158C9.90519 21.7678 10.4974 21.2926 11.175 20.9486C12.497 20.2774 14.2694 20.0423 16.2066 20.0267L16.2262 20.0266ZM10.9737 24.6507C10.9959 25.0836 11.1302 25.37 11.2797 25.5357C11.4189 25.6896 11.6348 25.8129 11.9947 25.8129H20.4354C20.793 25.8129 21.0073 25.6905 21.1463 25.5362C21.2965 25.3697 21.4319 25.0813 21.4564 24.6449C21.4553 24.1881 21.3478 23.8624 21.1864 23.6128C21.0182 23.3527 20.7464 23.1067 20.3214 22.8912C19.4401 22.4439 18.0619 22.208 16.2136 22.1874C14.3697 22.2031 12.9959 22.4369 12.1164 22.8834C11.6926 23.0986 11.4199 23.345 11.25 23.6076C11.0866 23.8599 10.9773 24.1894 10.9737 24.6507Z" fill="black"/>
<path fill-rule="evenodd" clip-rule="evenodd" d="M16.216 12.1299C14.9818 12.1299 13.9812 13.1521 13.9812 14.413C13.9812 15.6738 14.9818 16.696 16.216 16.696C17.4505 16.696 18.4511 15.6738 18.4511 14.413C18.4511 13.1521 17.4505 12.1299 16.216 12.1299ZM11.8659 14.413C11.8659 11.9588 13.8135 9.96929 16.216 9.96929C18.6186 9.96929 20.5662 11.9588 20.5662 14.413C20.5662 16.8671 18.6186 18.8566 16.216 18.8566C13.8135 18.8566 11.8659 16.8671 11.8659 14.413Z" fill="black"/>
<path fill-rule="evenodd" clip-rule="evenodd" d="M10.0344 14.3844C10.039 14.9811 9.56926 15.4685 8.9852 15.4733C7.4575 15.4856 6.34761 15.6797 5.6535 16.032C5.3231 16.1998 5.12378 16.3851 5.00382 16.5704C4.89028 16.7457 4.80779 16.9823 4.80425 17.3313C4.82179 17.6538 4.92093 17.8464 5.01076 17.9459C5.08965 18.0333 5.21975 18.1172 5.47254 18.1172H9.54375C10.1278 18.1172 10.6013 18.6009 10.6013 19.1975C10.6013 19.7941 10.1278 20.2778 9.54375 20.2778H5.47254C4.67741 20.2778 3.96691 19.9766 3.45599 19.4108C2.95808 18.8594 2.72071 18.1373 2.68992 17.4008C2.68929 17.3856 2.68896 17.3702 2.68896 17.3547C2.68896 16.625 2.86616 15.9554 3.23955 15.3786C3.60904 14.8078 4.12785 14.3938 4.71204 14.0972C5.84713 13.5209 7.35239 13.3257 8.96847 13.3126C9.55254 13.308 10.0298 13.7878 10.0344 14.3844Z" fill="black"/>
<path fill-rule="evenodd" clip-rule="evenodd" d="M21.9653 14.3844C21.9607 14.9811 22.4304 15.4685 23.0145 15.4733C24.5422 15.4856 25.6521 15.6797 26.3461 16.032C26.6765 16.1998 26.8759 16.3851 26.9959 16.5704C27.1094 16.7457 27.1919 16.9823 27.1954 17.3313C27.1779 17.6538 27.0787 17.8464 26.9888 17.9459C26.91 18.0333 26.7799 18.1172 26.5272 18.1172H22.4559C21.8719 18.1172 21.3983 18.6009 21.3983 19.1975C21.3983 19.7941 21.8719 20.2778 22.4559 20.2778H26.5272C27.3223 20.2778 28.0327 19.9766 28.5436 19.4108C29.0415 18.8594 29.279 18.1373 29.3097 17.4008C29.3104 17.3856 29.3107 17.3702 29.3107 17.3547C29.3107 16.625 29.1335 15.9554 28.7601 15.3786C28.3906 14.8078 27.8718 14.3938 27.2876 14.0972C26.1525 13.5209 24.6472 13.3257 23.0312 13.3126C22.4472 13.308 21.9699 13.7878 21.9653 14.3844Z" fill="black"/>
<path fill-rule="evenodd" clip-rule="evenodd" d="M8.60376 6.18677C7.67794 6.18677 6.92741 6.95344 6.92741 7.89916C6.92741 8.84489 7.67794 9.61155 8.60376 9.61155C9.52958 9.61155 10.2801 8.84489 10.2801 7.89916C10.2801 6.95344 9.52958 6.18677 8.60376 6.18677ZM4.81226 7.89916C4.81226 5.76014 6.50977 4.02612 8.60376 4.02612C10.6977 4.02612 12.3952 5.76014 12.3952 7.89916C12.3952 10.0382 10.6977 11.7722 8.60376 11.7722C6.50977 11.7722 4.81226 10.0382 4.81226 7.89916Z" fill="black"/>
<path fill-rule="evenodd" clip-rule="evenodd" d="M23.3958 6.18677C24.3217 6.18677 25.0721 6.95344 25.0721 7.89916C25.0721 8.84489 24.3217 9.61155 23.3958 9.61155C22.4701 9.61155 21.7195 8.84489 21.7195 7.89916C21.7195 6.95344 22.4701 6.18677 23.3958 6.18677ZM27.1873 7.89916C27.1873 5.76014 25.4898 4.02612 23.3958 4.02612C21.3018 4.02612 19.6043 5.76014 19.6043 7.89916C19.6043 10.0382 21.3018 11.7722 23.3958 11.7722C25.4898 11.7722 27.1873 10.0382 27.1873 7.89916Z" fill="black"/>
</svg>
