<svg width="32" height="32" viewBox="0 0 32 32" fill="none" xmlns="http://www.w3.org/2000/svg">
<path d="M15.9998 10.6466C14.1589 10.6466 12.6665 9.15426 12.6665 7.31331C12.6665 5.47236 14.1589 3.97998 15.9998 3.97998C17.8408 3.97998 19.3332 5.47236 19.3332 7.31331C19.3332 9.15426 17.8408 10.6466 15.9998 10.6466Z" fill="black"/>
<path d="M15.9998 19.3333C14.1589 19.3333 12.6665 17.8409 12.6665 16C12.6665 14.159 14.1589 12.6667 15.9998 12.6667C17.8408 12.6667 19.3332 14.159 19.3332 16C19.3332 17.8409 17.8408 19.3333 15.9998 19.3333Z" fill="black"/>
<path d="M15.9998 28.02C14.1589 28.02 12.6665 26.5276 12.6665 24.6867C12.6665 22.8457 14.1589 21.3533 15.9998 21.3533C17.8408 21.3533 19.3332 22.8457 19.3332 24.6867C19.3332 26.5276 17.8408 28.02 15.9998 28.02Z" fill="black"/>
</svg>
