<?xml version="1.0" encoding="UTF-8"?>
<svg id="Capa_1" xmlns="http://www.w3.org/2000/svg" version="1.1" viewBox="0 0 32 32">
  <!-- Generator: Adobe Illustrator 30.0.0, SVG Export Plug-In . SVG Version: 2.1.1 Build 123)  -->
  <defs>
    <style>
      .st0 {
        fill-rule: evenodd;
      }
    </style>
  </defs>
  <path class="st0" d="M22.56,19.4c-1.21,0-2.31.51-3.09,1.32l-5.93-3.46c.12-.39.18-.8.18-1.23s-.06-.84-.18-1.24l5.93-3.46c.78.81,1.88,1.32,3.09,1.32,2.36,0,4.28-1.92,4.28-4.28,0-2.36-1.92-4.28-4.28-4.28s-4.28,1.92-4.28,4.28c0,.43.06.84.18,1.23l-5.93,3.46c-.78-.81-1.88-1.32-3.09-1.32-2.36,0-4.28,1.92-4.28,4.28s1.92,4.28,4.28,4.28c1.22,0,2.31-.51,3.09-1.32l5.93,3.46c-.12.39-.18.81-.18,1.24,0,2.36,1.92,4.28,4.28,4.28s4.28-1.92,4.28-4.28c0-2.36-1.92-4.28-4.28-4.28ZM22.56,6.08c1.26,0,2.28,1.02,2.28,2.28,0,1.26-1.02,2.28-2.28,2.28-.82,0-1.54-.43-1.94-1.08-.02-.03-.04-.07-.06-.1-.18-.33-.28-.7-.28-1.1,0-1.26,1.02-2.28,2.28-2.28ZM11.45,17.1s-.03.04-.04.07c-.01.02-.03.04-.04.07-.4.64-1.12,1.07-1.93,1.07-1.26,0-2.28-1.02-2.28-2.28s1.02-2.28,2.28-2.28c.82,0,1.53.43,1.93,1.07,0,.02.02.03.02.04,0,0,0,.01,0,.02.01.02.02.04.04.06.18.32.28.69.28,1.09s-.1.76-.27,1.08ZM22.56,25.96c-1.26,0-2.28-1.02-2.28-2.28,0-.37.09-.73.25-1.04.04-.08.08-.15.13-.22.41-.61,1.11-1.02,1.9-1.02,1.26,0,2.28,1.02,2.28,2.28,0,1.26-1.02,2.28-2.28,2.28Z"/>
</svg>