<svg width="32" height="32" viewBox="0 0 32 32" fill="none" xmlns="http://www.w3.org/2000/svg">
<path fill-rule="evenodd" clip-rule="evenodd" d="M15.0563 12.3333V14.0523C15.0563 14.6046 14.6086 15.0523 14.0563 15.0523H12.3335V16.9487H14.0563C14.6086 16.9487 15.0563 17.3965 15.0563 17.9487V19.6666H16.9452V17.9487C16.9452 17.3965 17.393 16.9487 17.9452 16.9487H19.6667V15.0523H17.9452C17.393 15.0523 16.9452 14.6046 16.9452 14.0523V12.3333H15.0563ZM13.0563 11.9357C13.0563 11.0503 13.7735 10.3333 14.6587 10.3333H17.3428C18.228 10.3333 18.9452 11.0502 18.9452 11.9357V13.0523H20.0644C20.95 13.0523 21.6667 13.7697 21.6667 14.6547V17.3451C21.6667 18.2277 20.9524 18.9487 20.0644 18.9487H18.9452V20.0641C18.9452 20.9494 18.2282 21.6666 17.3428 21.6666H14.6587C13.7735 21.6666 13.0563 20.9494 13.0563 20.0641V18.9487H11.9359C11.0506 18.9487 10.3335 18.2291 10.3335 17.3451V14.6547C10.3335 13.7682 11.0531 13.0523 11.9359 13.0523H13.0563V11.9357Z" fill="black"/>
<path d="M8.41699 7.33498C12.5742 3.17775 19.3433 3.20607 23.501 7.36354L23.8813 7.76418C27.6865 11.9761 27.5869 18.5025 23.5293 22.5598L17.2163 28.8733L17.0908 28.9856C16.4902 29.4754 15.6235 29.4756 15.0229 28.9856L14.8994 28.8733L8.41699 22.3906C4.25927 18.2329 4.25927 11.4924 8.41699 7.33498ZM9.83105 8.74929C6.45458 12.1258 6.45458 17.5999 9.83105 20.9763L16.0581 27.2031L22.1152 21.1458C25.5156 17.7451 25.5005 12.1922 22.0869 8.77785C18.7036 5.39455 13.2007 5.37966 9.83105 8.74929Z" fill="black"/>
</svg>
