<svg width="32" height="32" viewBox="0 0 32 32" fill="none" xmlns="http://www.w3.org/2000/svg">
<path d="M12.9299 10.2163C12.9299 9.66398 13.3776 9.20324 13.9299 9.20324C14.4822 9.20324 14.9299 9.65096 14.9299 10.2032C14.9299 10.7555 14.4822 11.2163 13.9299 11.2163C13.3776 11.2163 12.9299 10.7685 12.9299 10.2163Z" fill="black"/>
<path d="M25.152 19.9545C25.0484 20.1836 24.9393 20.3956 24.8276 20.5912C25.2686 21.5559 26.4411 23.3861 28.2169 24.3374C28.7035 24.5982 28.8864 25.2048 28.6257 25.6915C28.365 26.1784 27.7584 26.3612 27.2716 26.1004C25.4541 25.1267 24.1823 23.5131 23.4549 22.2733C23.3955 22.3229 23.3406 22.3663 23.2913 22.4038C23.2217 22.4567 23.1634 22.4986 23.1181 22.5288C23.0954 22.5439 23.0751 22.5568 23.0595 22.5665L23.0463 22.5745L23.0283 22.5861C22.9111 22.6547 22.7776 22.7008 22.6429 22.7176C21.0562 22.9145 19.7732 22.5263 18.8278 21.6551C17.9205 20.8189 17.4388 19.642 17.1871 18.4702C16.6857 16.135 17.003 13.3596 17.3082 11.7371C17.4106 11.1948 17.9325 10.8384 18.4749 10.9402C19.0175 11.0423 19.3749 11.5643 19.2731 12.1069C18.9831 13.6486 18.7258 16.1092 19.1429 18.0509C19.3505 19.0172 19.7007 19.7404 20.1832 20.185C20.5944 20.5639 21.1946 20.8222 22.1546 20.7514C22.2194 20.6977 22.3025 20.626 22.3955 20.5314C22.6618 20.2604 23.0212 19.8108 23.3291 19.1303C23.9377 17.7846 24.3955 15.4187 23.3382 11.547C22.7096 9.24537 21.6745 7.8321 20.5361 7.01574C19.3964 6.19848 18.0634 5.91484 16.7236 6.03006L14.0022 6.24491C12.5508 6.34128 11.8358 6.9581 11.471 7.57954C11.0686 8.26521 11.016 9.06887 11.0856 9.50663C11.1577 9.9602 10.9119 10.4052 10.4892 10.5848L5.30302 12.7866C5.4 13.6859 5.65351 14.7607 6.13635 15.6251C6.43571 16.161 6.79808 16.5737 7.22099 16.8335C7.62886 17.0838 8.14877 17.2279 8.84729 17.1486C10.6536 16.9433 11.835 16.7655 12.5725 16.629C12.9425 16.5606 13.1903 16.5046 13.3434 16.4637C13.4041 16.4474 13.4422 16.4342 13.4633 16.4268C13.6951 16.3088 13.9726 16.2824 14.2249 16.3621C14.5322 16.4595 14.7734 16.6988 14.8733 17.0053C15.2946 18.2995 15.39 20.0096 15.1481 21.7736C14.9614 23.1343 14.5668 24.5727 13.9293 25.9324C15.4625 26.1556 17.638 26.1317 19.6194 25.2436C20.1234 25.0177 20.7151 25.2435 20.941 25.7475C21.1669 26.2514 20.9423 26.8432 20.4384 27.0691C17.2758 28.4869 13.8236 28.0975 12.135 27.5874C11.8388 27.4978 11.5997 27.2762 11.4892 26.9871C11.379 26.6983 11.4092 26.3748 11.5699 26.1108C12.437 24.688 12.954 23.0498 13.1663 21.5027C13.3179 20.3973 13.3051 19.3769 13.1793 18.5457C13.1482 18.5518 13.1161 18.5586 13.0836 18.5655C13.0365 18.5755 12.9875 18.5858 12.9371 18.5952C12.1377 18.743 10.9063 18.9273 9.07385 19.1355C7.95312 19.2629 6.98126 19.0323 6.17411 18.5366C5.3819 18.05 4.80557 17.3439 4.39026 16.6004C3.57062 15.133 3.28439 13.3552 3.25614 12.1694C3.24639 11.7596 3.48828 11.3856 3.86552 11.2254L9.06474 9.01574C9.0839 8.27716 9.26585 7.38769 9.74703 6.56782C10.4586 5.35561 11.7651 4.39288 13.8447 4.25142L16.553 4.03657C18.2912 3.88721 20.1161 4.25392 21.7015 5.39074C23.2881 6.52857 24.5451 8.3743 25.2679 11.021C26.4225 15.2492 25.9884 18.105 25.152 19.9545Z" fill="black"/>
</svg>
