<svg width="32" height="32" viewBox="0 0 32 32" fill="none" xmlns="http://www.w3.org/2000/svg">
<path d="M17.1315 7.9206C17.1313 8.4727 16.6837 8.92059 16.1315 8.9206C15.5794 8.9206 15.1317 8.47271 15.1315 7.9206C15.1315 7.36832 15.5792 6.9167 16.1315 6.91669C16.6838 6.91669 17.1315 7.36832 17.1315 7.9206Z" fill="black"/>
<path d="M10.7658 13.1354C10.7658 12.5832 11.2135 12.1354 11.7658 12.1354C12.3181 12.1354 12.7658 12.5832 12.7658 13.1354C12.7658 14.9217 14.2139 16.3698 16.0002 16.3698C17.7865 16.3698 19.2345 14.9217 19.2345 13.1354C19.2345 12.5832 19.6823 12.1354 20.2345 12.1354C20.7868 12.1354 21.2345 12.5832 21.2345 13.1354C21.2345 16.0263 18.891 18.3698 16.0002 18.3698C13.1093 18.3698 10.7658 16.0263 10.7658 13.1354Z" fill="black"/>
<path d="M22.9544 28.0677C23.5067 28.0677 23.9544 27.62 23.9544 27.0677C23.9544 22.7473 20.452 19.2448 16.1315 19.2448C11.811 19.2448 8.3086 22.7473 8.3086 27.0677C8.30859 27.62 8.75631 28.0677 9.30859 28.0677C9.86088 28.0677 10.3086 27.62 10.3086 27.0677C10.3086 25.6606 10.8077 24.37 11.6386 23.3634L11.5336 23.7057C11.3293 24.372 11.4345 25.0944 11.8187 25.6758L13.1026 27.6185C13.4071 28.0793 14.0272 28.2069 14.488 27.9024C14.9486 27.5979 15.0748 26.9777 14.7705 26.5169L13.4867 24.5729C13.432 24.49 13.4172 24.3867 13.4463 24.2917L13.8246 23.057L14.1012 23.543C14.972 25.0715 17.1576 25.1235 18.0999 23.638L18.46 23.0699L18.8343 24.2917C18.8634 24.3867 18.8486 24.49 18.7939 24.5729L17.5101 26.5169C17.2058 26.9777 17.332 27.5979 17.7926 27.9024C18.2534 28.2069 18.8735 28.0793 19.178 27.6185L20.4619 25.6758C20.8461 25.0944 20.9513 24.372 20.747 23.7057L20.6526 23.3978C21.4666 24.3993 21.9544 25.6765 21.9544 27.0677C21.9544 27.62 22.4021 28.0677 22.9544 28.0677ZM15.8395 22.5534L15.1416 21.3286C15.4633 21.2735 15.7941 21.2448 16.1315 21.2448C16.4925 21.2448 16.8457 21.2777 17.1885 21.3405L16.4111 22.5664C16.2766 22.7785 15.9641 22.7713 15.8395 22.5534Z" fill="black"/>
<path d="M19.658 9.52606L12.6046 9.52606V7.65758C12.6048 7.52195 12.6871 7.39982 12.8129 7.34898L16.0069 6.06122C16.0868 6.029 16.1757 6.0291 16.2556 6.06122L19.4496 7.34898C19.5755 7.39976 19.6577 7.52187 19.658 7.65758V9.52606ZM21.658 9.52606V7.65758C21.6577 6.70637 21.0804 5.85087 20.1983 5.49482L17.0043 4.20575C16.4444 3.97993 15.8182 3.9799 15.2582 4.20575L12.0655 5.49482C11.1831 5.85073 10.6048 6.70616 10.6046 7.65758V9.52606H8.98535C8.43307 9.52606 7.98535 9.97378 7.98535 10.5261C7.98535 11.0784 8.43307 11.5261 8.98535 11.5261L23.0153 11.5261C23.5674 11.5258 24.0153 11.0782 24.0153 10.5261C24.0153 9.97391 23.5674 9.52628 23.0153 9.52606H21.658Z" fill="black"/>
</svg>
