<svg width="32" height="32" viewBox="0 0 32 32" fill="none" xmlns="http://www.w3.org/2000/svg">
<path d="M20.8507 6.25651C21.2426 5.14756 20.4201 3.98438 19.2439 3.98438H13.1658C12.4635 3.98461 11.8352 4.41532 11.5798 5.06641L9.94354 9.05892L6.0296 5.02475C5.645 4.62862 5.01185 4.61887 4.61555 5.00336C4.21925 5.38784 4.20985 6.02101 4.59416 6.41741L9.11599 11.0781L7.04598 16.1289C7.04272 16.1369 7.03974 16.1452 7.0368 16.1534C6.62863 17.2661 7.44872 18.4557 8.63322 18.4557H13.0577L11.0798 25.8737C10.6156 27.6153 12.82 28.7918 14.0082 27.4362L19.2178 21.4902L25.2384 27.6958C25.6229 28.0922 26.256 28.1017 26.6524 27.7172C27.0488 27.3326 27.0584 26.6995 26.6738 26.3031L20.5401 19.981L24.9054 14.9987C25.8705 13.897 25.0884 12.1711 23.6241 12.1706H18.3324L20.8285 6.3151C20.8367 6.29591 20.8437 6.27618 20.8507 6.25651ZM19.1432 18.5412L11.463 10.6251L13.365 5.98438H18.796L16.2999 11.8398L16.2778 11.8984C15.8857 13.0076 16.7084 14.1705 17.8845 14.1706H22.9731L19.1432 18.5412ZM17.8208 20.0504L13.3376 25.1667L15.0903 18.599C15.3785 17.5174 14.5629 16.456 13.4431 16.4557H9.07333L10.6354 12.6443L17.8208 20.0504Z" fill="black"/>
</svg>
