<svg width="32" height="32" viewBox="0 0 32 32" fill="none" xmlns="http://www.w3.org/2000/svg">
<path d="M19.5032 6.73315C19.5032 6.36858 19.2077 6.073 18.843 6.073H13.1568C12.7922 6.073 12.4967 6.36857 12.4967 6.73315V7.43368C12.4967 7.79827 12.7922 8.09383 13.1568 8.09383H18.843C19.2076 8.09383 19.5032 7.79826 19.5032 7.43368V6.73315ZM21.5032 7.43368C21.5032 8.90283 20.3122 10.0938 18.843 10.0938H13.1568C11.6876 10.0938 10.4967 8.90283 10.4967 7.43368V6.73315C10.4967 5.26399 11.6876 4.073 13.1568 4.073H18.843C20.3122 4.073 21.5032 5.26399 21.5032 6.73315V7.43368Z" fill="black"/>
<path d="M5.90234 22.5105V11.6212C5.90236 8.53143 8.40765 6.02613 11.4974 6.02612C12.0497 6.02612 12.4974 6.47384 12.4974 7.02612C12.4974 7.57841 12.0497 8.02612 11.4974 8.02612C9.51222 8.02613 7.90236 9.636 7.90234 11.6212V22.5105C7.90234 24.4957 9.51223 26.1055 11.4974 26.1056H20.5039C22.489 26.1056 24.099 24.4957 24.099 22.5105V11.6212C24.0989 9.63598 22.489 8.02612 20.5039 8.02612C19.9518 8.02594 19.5039 7.5783 19.5039 7.02612C19.5039 6.47395 19.9518 6.0263 20.5039 6.02612C23.5936 6.02612 26.0989 8.53144 26.099 11.6212V22.5105C26.099 25.6002 23.5937 28.1056 20.5039 28.1056H11.4974C8.40763 28.1055 5.90234 25.6002 5.90234 22.5105Z" fill="black"/>
<path d="M20.7445 12.9116C21.2968 12.9116 21.7445 13.3593 21.7445 13.9116C21.7445 14.4639 21.2968 14.9116 20.7445 14.9116H11.255C10.7027 14.9116 10.255 14.4639 10.255 13.9116C10.255 13.3593 10.7027 12.9116 11.255 12.9116H20.7445Z" fill="black"/>
<path d="M20.7445 17.021C21.2968 17.021 21.7445 17.4687 21.7445 18.021C21.7445 18.5732 21.2968 19.021 20.7445 19.021H11.255C10.7027 19.021 10.255 18.5732 10.255 18.021C10.255 17.4687 10.7027 17.021 11.255 17.021H20.7445Z" fill="black"/>
<path d="M16.5909 21.0782C17.1432 21.0782 17.5909 21.526 17.5909 22.0782C17.5909 22.6305 17.1432 23.0782 16.5909 23.0782H11.255C10.7027 23.0782 10.255 22.6305 10.255 22.0782C10.255 21.526 10.7027 21.0782 11.255 21.0782H16.5909Z" fill="black"/>
</svg>
