<svg width="32" height="32" viewBox="0 0 32 32" fill="none" xmlns="http://www.w3.org/2000/svg">
<path d="M17.7399 11.1294C17.7399 10.1687 16.961 9.38985 16.0003 9.38985C15.0395 9.38985 14.2607 10.1687 14.2607 11.1294C14.2607 12.0902 15.0395 12.869 16.0003 12.869C16.961 12.869 17.7399 12.0902 17.7399 11.1294ZM19.7399 11.1294C19.7399 13.1947 18.0656 14.869 16.0003 14.869C13.935 14.869 12.2607 13.1947 12.2607 11.1294C12.2607 9.06412 13.935 7.38985 16.0003 7.38985C18.0656 7.38985 19.7399 9.06412 19.7399 11.1294Z" fill="black"/>
<path d="M23.8369 19.6705L23.8473 19.4296V7.13017C23.8473 5.89871 23.0039 4.82701 21.807 4.53772L21.3226 4.42053C17.8248 3.57564 14.1758 3.57565 10.6781 4.42053L10.1937 4.53772C8.9966 4.82693 8.15332 5.89863 8.15332 7.13017V19.4296L8.16374 19.6705C8.26739 20.8199 9.10468 21.7798 10.2394 22.0323C10.2917 23.5771 11.3019 24.8888 12.7078 25.3734V27.0364C12.7078 27.5887 13.1555 28.0364 13.7078 28.0364C14.2601 28.0364 14.7078 27.5887 14.7078 27.0364V25.6231L15.9456 25.6914L16.0003 25.694L16.055 25.6914L17.1022 25.6336V27.0364C17.1022 27.5887 17.55 28.0364 18.1022 28.0364C18.6545 28.0364 19.1022 27.5887 19.1022 27.0364V25.4333C20.6066 25.0054 21.7065 23.646 21.7612 22.0323C22.8959 21.7797 23.7333 20.8198 23.8369 19.6705ZM13.8128 23.5703C13.0949 23.5307 12.5034 23.041 12.3069 22.3841C14.756 22.745 17.2446 22.745 19.6937 22.3841C19.4972 23.041 18.9057 23.5307 18.1878 23.5703L16.0003 23.6901L13.8128 23.5703ZM21.3369 6.48173C21.6362 6.55402 21.8473 6.82227 21.8473 7.13017V19.4296C21.8471 19.7538 21.6134 20.0307 21.2939 20.0859L19.9762 20.3138C17.3452 20.7687 14.6555 20.7687 12.0244 20.3138L10.7067 20.0859C10.3872 20.0307 10.1536 19.7538 10.1533 19.4296V7.13017C10.1533 6.82227 10.3645 6.55402 10.6637 6.48173L11.1481 6.36454C14.337 5.59434 17.6636 5.59431 20.8525 6.36454L21.3369 6.48173Z" fill="black"/>
</svg>
