<?xml version="1.0" encoding="UTF-8"?>
<svg id="Capa_1" xmlns="http://www.w3.org/2000/svg" version="1.1" viewBox="0 0 32 32">
  <!-- Generator: Adobe Illustrator 30.0.0, SVG Export Plug-In . SVG Version: 2.1.1 Build 123)  -->
  <defs>
    <style>
      .st0 {
        fill-rule: evenodd;
      }
    </style>
  </defs>
  <path class="st0" d="M15,26.09H5.7c-.55,0-1,.45-1,1s.45,1,1,1h9.3c.55,0,1-.45,1-1s-.45-1-1-1Z"/>
  <path class="st0" d="M26.92,20.16l-6.96-6.38c-.11-.1-.23-.19-.35-.27l1.99-1.66.21-.2c1-1.03,1-2.7-.04-3.74l-3.14-3.14c-1.09-1.09-2.88-1.03-3.89.13l-3.54,4.05-4.05,3.54c-1.16,1.02-1.22,2.8-.13,3.89l3.14,3.14c1.04,1.04,2.71,1.03,3.74.03l.2-.21,1.68-2.01c.08.12.17.24.27.35l6.36,6.97.24.24c1.25,1.11,3.17,1.07,4.37-.13,1.28-1.28,1.24-3.38-.1-4.61ZM15.51,14.54l-2.95,3.54c-.25.3-.71.32-.98.04l-3.14-3.14c-.27-.27-.26-.72.03-.97l4.05-3.54.1-.09.09-.1,3.54-4.05c.25-.29.7-.3.97-.03l3.14,3.14c.28.28.26.73-.04.98l-3.53,2.95c-.47.39-.89.82-1.28,1.28ZM25.61,23.36c-.48.48-1.26.46-1.72-.04l-6.36-6.97c-.28-.3-.27-.77.02-1.06.29-.29.76-.3,1.06-.02l6.96,6.38c.5.46.52,1.24.04,1.72Z"/>
</svg>