<?xml version="1.0" encoding="UTF-8"?>
<svg id="Capa_1" xmlns="http://www.w3.org/2000/svg" version="1.1" viewBox="0 0 32 32">
  <!-- Generator: Adobe Illustrator 30.0.0, SVG Export Plug-In . SVG Version: 2.1.1 Build 123)  -->
  <defs>
    <style>
      .st0 {
        fill-rule: evenodd;
      }
    </style>
  </defs>
  <path class="st0" d="M29.33,12.05c-.06-1.25-.75-2.48-2.06-3.12l-8.98-4.39c-1.45-.71-3.15-.71-4.61,0l-8.97,4.38c-2.75,1.35-2.75,5.27,0,6.62l2.7,1.32v6.22c0,1.56.93,3.02,2.4,3.63,4.05,1.67,8.12,1.7,12.14,0,1.46-.61,2.38-2.07,2.38-3.62v-6.12l2.93-1.43h.03s.03-.03.03-.03l-.03,4.14c0,.55.44,1,.99,1.01.55,0,1-.44,1.01-.99l.05-7.43c0-.07,0-.13-.02-.2ZM22.34,23.11c0,.78-.46,1.49-1.15,1.78-3.31,1.38-6.6,1.46-9.94.25l-.67-.26c-.7-.29-1.16-.99-1.16-1.78v-5.23l4.26,2.08c.1.05.2.1.31.14l.12.06c.09.04.18.07.27.08,1.28.41,2.69.32,3.92-.28l4.05-1.98v5.14ZM26.39,13.76l-8.98,4.39c-.82.4-1.78.44-2.62.1l-9.2-4.49c-1.26-.62-1.26-2.41,0-3.03l8.97-4.38.17-.08c.86-.36,1.84-.34,2.68.08l8.98,4.39.22.13c1.03.71.96,2.32-.22,2.9Z"/>
</svg>