<svg width="32" height="32" viewBox="0 0 32 32" fill="none" xmlns="http://www.w3.org/2000/svg">
<path d="M10.1687 16.0678C10.721 16.0678 11.1687 16.5155 11.1687 17.0678C11.1687 17.6201 10.721 18.0678 10.1687 18.0678H7.82237C7.27008 18.0678 6.82237 17.6201 6.82237 17.0678C6.82237 16.5155 7.27008 16.0678 7.82237 16.0678H10.1687Z" fill="black"/>
<path fill-rule="evenodd" clip-rule="evenodd" d="M11.9968 16.3074L10.0633 20.8032C9.1313 21.0992 8.45599 21.9716 8.45599 23.0014V23.5366C8.45595 23.7054 8.31877 23.8424 8.15 23.8426H5.56276C5.39349 23.8426 5.25624 23.7045 5.25677 23.5353L5.27761 16.7332C5.27601 15.9016 5.5386 15.0915 6.0263 14.4181L7.08744 12.9569C8.10485 13.0645 9.12372 13.1536 10.1436 13.2243L11.9968 16.3074ZM12.2859 20.6954L13.8455 17.0717L16.3827 16.4571C16.5877 16.4074 16.772 16.2935 16.9087 16.1329L19.2681 13.3621C21.158 13.2887 23.0455 13.1526 24.9285 12.9524L25.9807 14.3647C26.3107 14.8075 26.9376 14.8989 27.3805 14.5691C27.8233 14.2391 27.9149 13.6122 27.5849 13.1694L27.2184 12.6774C27.433 12.6486 27.6475 12.6191 27.8619 12.5886C28.4087 12.5111 28.7897 12.0053 28.7122 11.4584C28.6346 10.9119 28.1285 10.5323 27.582 10.6095C27.0254 10.6884 26.4669 10.7581 25.9091 10.8256L24.5393 7.02224C24.0733 5.70205 22.8791 4.70537 21.4964 4.48188L20.8141 4.38162C17.3961 3.91108 13.9264 3.94417 10.5159 4.48188C9.13683 4.71148 7.94347 5.71073 7.48203 7.03006L6.11615 10.8204L6.11054 10.8346C5.53751 10.7656 4.96502 10.6906 4.39318 10.6095C3.84646 10.532 3.34065 10.9118 3.26297 11.4584C3.18545 12.0052 3.56528 12.511 4.11193 12.5886C4.34545 12.6218 4.57908 12.6539 4.81281 12.685L4.40782 13.2423C3.67267 14.2569 3.27628 15.479 3.27761 16.7319L3.25677 23.5288C3.25278 24.805 4.28649 25.8426 5.56276 25.8426H8.15C9.42328 25.8424 10.4559 24.81 10.456 23.5366V23.0014C10.456 22.8325 10.5931 22.6954 10.762 22.6954H12.8102C13.3622 22.6951 13.8102 22.2475 13.8102 21.6954C13.8101 21.1434 13.3622 20.6957 12.8102 20.6954H12.2859ZM13.5894 15.0753L15.5962 14.5886L16.5876 13.4242C15.2437 13.4337 13.8996 13.4113 12.5565 13.3567L13.5894 15.0753ZM8.15946 11.0555C13.3827 11.5528 18.6417 11.5513 23.8648 11.0509L22.6578 7.69933C22.4366 7.06813 21.8447 6.56529 21.1852 6.45714C17.7562 5.91653 14.2638 5.91601 10.8349 6.45584C10.1771 6.56578 9.59039 7.06043 9.37006 7.69021L8.15946 11.0555Z" fill="black"/>
<path fill-rule="evenodd" clip-rule="evenodd" d="M18.5883 21.4668C18.5883 21.8796 18.8383 22.2339 19.1952 22.3866C19.2742 22.6341 19.3858 22.8747 19.5298 23.1027C20.2394 24.2159 21.5384 24.8295 22.8645 24.7837C23.4162 24.7644 23.8483 24.3017 23.8293 23.7499C23.81 23.1983 23.3471 22.7662 22.7955 22.785C22.3578 22.8001 21.9585 22.6758 21.6505 22.4668H22.613C23.1651 22.4666 23.613 22.019 23.613 21.4668C23.613 20.9146 23.1651 20.467 22.613 20.4668H21.6503C21.9584 20.2577 22.3578 20.1332 22.7955 20.1483C23.3472 20.1671 23.8102 19.7352 23.8293 19.1835C23.8483 18.6317 23.4162 18.1689 22.8645 18.1496C21.538 18.1038 20.2366 18.7224 19.5272 19.8345C19.3839 20.0616 19.273 20.301 19.1944 20.5474C18.8379 20.7003 18.5883 21.0544 18.5883 21.4668Z" fill="black"/>
<path d="M26.3035 21.4673C26.3031 18.8856 24.2095 16.7929 21.6277 16.7929C19.0463 16.7932 16.9536 18.8858 16.9533 21.4673C16.9533 24.049 19.0461 26.1427 21.6277 26.143C24.2097 26.143 26.3035 24.0492 26.3035 21.4673ZM28.2943 21.8111C28.1157 25.3381 25.1991 28.143 21.6277 28.143L21.2853 28.1339C17.7582 27.9554 14.9533 25.0387 14.9533 21.4673C14.9536 17.7813 17.9417 14.7932 21.6277 14.7929C25.314 14.7929 28.3031 17.7811 28.3034 21.4673L28.2943 21.8111Z" fill="black"/>
</svg>
