<?xml version="1.0" encoding="UTF-8"?>
<svg id="Capa_1" xmlns="http://www.w3.org/2000/svg" version="1.1" viewBox="0 0 32 32">
  <!-- Generator: Adobe Illustrator 30.0.0, SVG Export Plug-In . SVG Version: 2.1.1 Build 123)  -->
  <defs>
    <style>
      .st0 {
        fill-rule: evenodd;
      }
    </style>
  </defs>
  <path class="st0" d="M9.1,5.94h7.34c.55,0,1-.45,1-1s-.45-1-1-1h-7.34c-.55,0-1,.45-1,1s.45,1,1,1Z"/>
  <path class="st0" d="M10.51,18.3c-1.45,0-2.63,1.18-2.63,2.63,0,.3.05.58.14.85.35,1.04,1.33,1.78,2.49,1.78.86,0,1.63-.42,2.11-1.06.32-.44.52-.98.52-1.57,0-1.45-1.18-2.63-2.63-2.63ZM10.51,21.56c-.35,0-.63-.28-.63-.63,0-.35.28-.63.63-.63.35,0,.63.28.63.63,0,.35-.28.63-.63.63Z"/>
  <path class="st0" d="M23.96,22.96c-.55,0-1,.45-1,1,0,.2.06.38.15.53.18.28.49.47.85.47.55,0,1-.45,1-1v-.02c-.01-.54-.46-.98-1-.98Z"/>
  <path class="st0" d="M26.68,20.98c0-.05,0-.1,0-.16v-3.78c0-1.89-1.53-3.42-3.42-3.42-.47,0-.9-.23-1.17-.61l-3.01-4.36c-.68-.99-1.81-1.58-3.02-1.58h-5.39c-1.85,0-3.4,1.37-3.64,3.2l-.73,5.76c-.63.09-1.22.46-1.57,1.05l-.41.68v.02c-.61,1.04-.25,2.37.78,2.98.06.03.09.09.09.16,0,.06-.04.13-.09.16-1.04.6-1.39,1.93-.79,2.97l.39.67c.28.5.75.87,1.3,1.02.56.16,1.16.09,1.66-.2h.01s.09-.04.13-.03c.04.01.08.04.1.08h0s.02.06.02.08c0,1.2.98,2.17,2.18,2.17h.77c1.2,0,2.17-.98,2.18-2.18,0-.05.02-.09.05-.12.03-.03.07-.05.12-.05.03,0,.06.01.08.02,1.04.6,2.37.24,2.97-.8l.14-.24h3.52c.26,1.98,1.95,3.5,4,3.5,2.23,0,4.03-1.81,4.04-4.04,0-1.18-.51-2.24-1.31-2.98ZM14.98,23.05l-.4.67h0c-.05.1-.16.13-.25.08l-.24-.12c-.25-.1-.52-.16-.79-.17h-.02c-.58,0-1.14.23-1.55.64-.11.11-.2.23-.29.35-.23.35-.35.76-.35,1.18,0,.1-.08.18-.18.18h-.77c-.1,0-.18-.09-.18-.19,0-.37-.1-.73-.29-1.05-.02-.04-.05-.08-.08-.12-.29-.44-.73-.76-1.25-.9-.42-.11-.87-.09-1.28.05-.12.04-.24.1-.36.16-.04.02-.09.03-.14.02-.05-.01-.09-.04-.11-.09v-.02s-.4-.67-.4-.67c-.05-.08-.02-.19.06-.24.05-.03.1-.06.15-.09.59-.4.94-1.08.94-1.8,0-.78-.41-1.5-1.09-1.89-.09-.05-.12-.16-.07-.25l.41-.67h0c.05-.1.16-.13.25-.08.32.19.69.29,1.06.29.09,0,.18,0,.27-.02,1.07-.13,1.9-1.03,1.91-2.13,0,0,0-.02,0-.02,0-.05.02-.09.05-.12.03-.03.08-.05.12-.05h.77s.1.02.13.05c.03.04.05.08.05.13h0s0,.03,0,.04c0,.37.11.74.3,1.06.29.5.77.86,1.33,1.01.55.14,1.14.06,1.64-.23.09-.05.2-.02.25.07l.37.64s0,.02.01.03c.05.09.02.19-.06.24-.33.19-.6.46-.79.79-.29.5-.37,1.1-.22,1.65.1.39.31.74.6,1.01.13.12.27.23.42.32.04.02.07.06.08.11.01.04,0,.09-.02.13ZM20.2,22.5h-3.25s-.01-.06-.02-.09c-.15-.56-.52-1.04-1.02-1.32-.04-.02-.07-.06-.08-.11-.01-.05,0-.1.02-.14.01-.02.04-.05.07-.06.99-.58,1.36-1.83.85-2.85-.02-.04-.04-.08-.06-.12l-.38-.67c-.6-1.04-1.94-1.4-2.98-.8-.04.02-.09.03-.13.02-.05-.01-.09-.05-.11-.09l-.02-.07c0-.58-.21-1.13-.61-1.54-.41-.42-.97-.66-1.56-.66h-.77c-.58,0-1.13.23-1.54.64-.03.03-.06.06-.09.09l.53-4.2c.11-.83.81-1.46,1.65-1.46h5.39c.55,0,1.06.27,1.37.72l3.01,4.36c.64.92,1.69,1.48,2.82,1.48.78,0,1.42.64,1.42,1.42v2.94c-.24-.04-.48-.07-.72-.07-1.71,0-3.17,1.07-3.76,2.57ZM23.96,26c-.94,0-1.73-.64-1.97-1.5-.05-.17-.07-.35-.07-.53,0-.58.24-1.1.63-1.47.37-.35.86-.57,1.41-.57.1,0,.2,0,.29.02.72.1,1.31.58,1.58,1.23.1.24.16.51.16.79,0,1.12-.91,2.03-2.04,2.04Z"/>
</svg>