<svg width="32" height="32" viewBox="0 0 32 32" fill="none" xmlns="http://www.w3.org/2000/svg">
<path fill-rule="evenodd" clip-rule="evenodd" d="M7.3915 21.3051C7.86488 21.3051 8.27811 21.3052 8.6198 21.2778C8.98625 21.2483 9.35711 21.1824 9.71615 21.003C10.1453 20.7886 10.5121 20.4711 10.7846 20.0815C10.8281 20.1226 10.8735 20.1671 10.9208 20.2153C11.3458 20.648 11.8246 21.2753 12.3167 22.0108C13.2962 23.4751 14.2371 25.2266 14.8023 26.3298L14.841 26.4055C15.0031 26.7238 15.1775 27.0663 15.456 27.3376L15.6526 27.5069C15.8624 27.6679 16.1076 27.8005 16.3492 27.8806C16.7169 28.0025 17.0545 28.0002 17.3601 27.9982L17.4221 27.9978C17.7096 27.9964 18.0572 27.981 18.3557 27.9197C19.604 27.6631 20.6462 26.7591 21.0706 25.1801C21.4379 23.8132 21.3403 21.9719 20.6526 19.5746H21.317C22.5774 19.5746 23.59 19.5746 24.3948 19.5043C25.2167 19.4325 25.9407 19.2797 26.5745 18.8988C27.6022 18.281 28.3564 17.2958 28.6852 16.1423C28.8878 15.4312 28.8467 14.6929 28.7021 13.8806C28.5596 13.0809 28.2943 12.0971 27.9636 10.8709L27.2745 8.31549C27.0055 7.31533 26.7981 6.5443 26.4221 5.92879L26.2385 5.65926C25.7827 5.05872 25.173 4.59145 24.4742 4.3077C23.7128 3.99875 22.8371 3.99942 21.6493 4.00031L15.7573 4.00038C15.3787 4.00017 15.0946 4.00001 14.8115 4.03947C14.5446 4.07675 14.2821 4.14081 14.0276 4.22827C13.7509 4.32345 13.4921 4.45496 13.142 4.63287L11.0521 5.6934C11.0355 5.65499 11.0178 5.6167 10.9987 5.57853C10.7215 5.02377 10.2709 4.57315 9.71615 4.29598C9.35717 4.11667 8.98619 4.05198 8.6198 4.02254C8.2648 3.99405 7.83266 3.9939 7.33594 3.9939H7.13933C6.64242 3.9939 6.21055 3.99401 5.85548 4.02254C5.48903 4.05199 5.11815 4.1166 4.75912 4.29598C4.20443 4.57317 3.75504 5.02386 3.47787 5.57853C3.29864 5.93735 3.23259 6.30736 3.20313 6.67358C3.1757 7.01493 3.17574 7.42767 3.17578 7.90053L3.17578 17.3989C3.17574 17.8717 3.1757 18.2841 3.20313 18.6254C3.23258 18.9919 3.29847 19.3627 3.47787 19.7218C3.75503 20.2762 4.20466 20.7259 4.75912 21.003C5.11818 21.1824 5.489 21.2483 5.85548 21.2778C6.1968 21.3052 6.60908 21.3051 7.08188 21.3051H7.3915ZM9.27865 18.4653C9.29925 18.2089 9.29949 17.8709 9.29949 17.3416V7.95744C9.29949 7.42838 9.29925 7.09006 9.27865 6.83374C9.25896 6.58913 9.22546 6.50603 9.20834 6.47176C9.12475 6.30478 8.98996 6.16856 8.82292 6.08504C8.78861 6.0679 8.70467 6.03572 8.45964 6.01603C8.20329 5.99547 7.865 5.9939 7.33594 5.9939H7.13933C6.61 5.9939 6.27202 5.99543 6.01563 6.01603C5.77143 6.03566 5.68816 6.06785 5.65365 6.08504C5.48643 6.16858 5.35057 6.30458 5.26693 6.47176C5.24981 6.50603 5.21632 6.58911 5.19662 6.83374C5.17602 7.09006 5.17579 7.42838 5.17579 7.95744V17.3416C5.17579 17.8709 5.17602 18.2089 5.19662 18.4653C5.2163 18.71 5.24978 18.7929 5.26693 18.8272C5.35056 18.9946 5.4863 19.1303 5.65365 19.2139C5.68802 19.2311 5.77085 19.2646 6.01563 19.2843C6.27202 19.3049 6.61 19.3051 7.13933 19.3051H7.33594C7.86496 19.3051 8.2033 19.3048 8.45964 19.2843C8.70466 19.2646 8.78862 19.2311 8.82292 19.2139C8.99 19.1303 9.1248 18.9943 9.20834 18.8272C9.22549 18.7929 9.25896 18.7102 9.27865 18.4653Z" fill="black"/>
</svg>
