<svg width="32" height="32" viewBox="0 0 32 32" fill="none" xmlns="http://www.w3.org/2000/svg">
<path d="M10.7723 6.36003C10.9824 6.41303 11.1749 6.50738 11.3532 6.63233C11.6874 6.86659 12.0166 7.2378 12.3832 7.75545C12.7498 8.2732 12.9906 8.70688 13.1006 9.09991C13.1592 9.30955 13.1844 9.52246 13.1645 9.73829C13.1466 9.93244 13.0924 10.0871 13.0445 10.2012C13.041 10.2101 13.0382 10.2199 13.0345 10.2286C13.0322 10.2339 13.0314 10.2398 13.0291 10.2449C12.9072 10.5229 12.6911 10.7438 12.5713 10.8601C12.4078 11.0188 12.2137 11.1779 12.0173 11.319C11.8214 11.4597 11.6012 11.5983 11.383 11.7072C11.2008 11.7982 10.8879 11.9379 10.5472 11.9449C9.8094 11.9601 9.32332 11.5318 9.10725 11.2959C9.09482 11.2824 9.08132 11.2665 9.0674 11.2508L7.83361 12.1245C7.85122 12.1626 7.85995 12.1814 7.85865 12.179C8.01047 12.4631 8.25236 13.0624 7.99393 13.7529C7.87411 14.0712 7.63852 14.3209 7.49227 14.4624C7.31708 14.6319 7.11318 14.7938 6.91538 14.9318C6.71712 15.0702 6.50257 15.2004 6.29865 15.302C6.14864 15.3767 5.86709 15.5054 5.56392 15.5278C5.55517 15.5286 5.5464 15.5292 5.53715 15.5299C5.53179 15.5301 5.52625 15.5322 5.52087 15.5324C5.39756 15.5395 5.23281 15.5369 5.04347 15.4891C4.83356 15.4361 4.64077 15.3417 4.46255 15.2168C4.12849 14.9826 3.79925 14.6115 3.43257 14.0937C3.06601 13.576 2.82518 13.1422 2.71517 12.7492C2.65649 12.5396 2.63142 12.3267 2.6512 12.1108C2.66914 11.9154 2.72341 11.7599 2.77169 11.6453C2.77586 11.6348 2.77916 11.6247 2.78359 11.6143C2.78502 11.6111 2.78219 11.6175 2.78359 11.6143C2.9055 11.337 3.12442 11.1055 3.24446 10.989C3.40791 10.8304 3.60212 10.6713 3.7984 10.5302C3.99426 10.3894 4.21459 10.2509 4.43276 10.1419C4.61475 10.051 4.92694 9.9112 5.26729 9.90405L5.53182 9.91754C6.07692 9.98632 6.45267 10.2964 6.6571 10.5061L7.92695 9.60687C7.77504 9.30112 7.58034 8.738 7.82203 8.09495C7.94179 7.77626 8.1773 7.52821 8.32347 7.38673C8.49873 7.2171 8.70252 7.05533 8.90036 6.91729C9.09865 6.77896 9.31317 6.64866 9.51709 6.54713C9.6664 6.47279 9.9469 6.34372 10.2493 6.32086C10.2544 6.32042 10.26 6.32004 10.2653 6.31964C10.2752 6.31902 10.285 6.31714 10.2949 6.31676C10.4189 6.30937 10.5826 6.3122 10.7723 6.36003ZM5.28439 11.9531C5.19207 12.0026 5.08088 12.0712 4.96612 12.1537C4.86754 12.2245 4.77848 12.2973 4.70604 12.3616C4.7648 12.479 4.8711 12.6647 5.0646 12.938C5.2569 13.2095 5.39717 13.3701 5.48843 13.4648C5.57292 13.4179 5.67242 13.3606 5.7717 13.2913C5.88722 13.2107 5.98794 13.128 6.06528 13.0575C6.00348 12.9316 5.90769 12.7204 5.83222 12.5196C5.8166 12.4781 5.79986 12.4311 5.78312 12.3818C5.75718 12.3628 5.73235 12.3454 5.71035 12.3284C5.55537 12.209 5.38972 12.0588 5.28439 11.9531ZM10.3265 8.38153C10.2419 8.4285 10.1435 8.48841 10.044 8.55783C9.92952 8.63776 9.82919 8.71924 9.75218 8.78933C9.79912 8.87631 9.88565 9.03752 9.95646 9.1941C9.97828 9.24238 10.0044 9.30178 10.0298 9.36779C10.0956 9.42664 10.1562 9.48451 10.2049 9.53376C10.2982 9.62813 10.3862 9.7256 10.4538 9.80086C10.4846 9.83514 10.5127 9.86634 10.5348 9.89131C10.6263 9.84193 10.7368 9.77536 10.8498 9.69416C10.948 9.62358 11.0351 9.54988 11.1074 9.48586C11.0484 9.36839 10.9435 9.18277 10.7511 8.91114C10.5576 8.6379 10.4177 8.47594 10.3265 8.38153Z" fill="black"/>
<path d="M23.7132 14.0479C23.6927 14.0442 23.6724 14.0399 23.652 14.0349C23.5957 14.021 23.5396 14.0042 23.4853 13.9802C22.3802 13.4903 21.1279 12.7257 20.1377 11.7185C19.1496 10.7133 18.3436 9.38104 18.3512 7.78618C18.3575 6.20399 19.2069 4.58332 20.9892 4.00883L21.3239 3.91769C22.1185 3.74121 23.0067 3.82702 23.8148 4.40727C23.8148 4.40727 23.8412 4.4229 23.8916 4.4229C23.9415 4.42282 23.9671 4.40727 23.9671 4.40727C24.8907 3.74392 25.919 3.72699 26.7926 4.00883L27.1155 4.12863C28.6776 4.78547 29.4243 6.30175 29.4307 7.78488C29.4385 9.37999 28.6336 10.7131 27.6455 11.7185C26.6553 12.7258 25.403 13.4903 24.2978 13.9802C24.2446 14.0038 24.189 14.0198 24.1338 14.0336C24.1212 14.0367 24.1087 14.04 24.096 14.0427C24.0856 14.0449 24.0753 14.0474 24.0648 14.0492C24.0389 14.0538 24.0129 14.0571 23.9866 14.0596C23.9585 14.0622 23.9238 14.0647 23.8955 14.0648C23.8803 14.0648 23.8613 14.0629 23.846 14.0622C23.8595 14.0628 23.882 14.0648 23.8955 14.0648C23.8372 14.0645 23.7704 14.0583 23.7132 14.0479ZM24.1885 14.0193C24.1949 14.0172 24.2016 14.0162 24.208 14.014C24.2003 14.0166 24.1962 14.0168 24.1885 14.0193ZM23.945 12.0687C23.9419 12.0686 23.9311 12.0675 23.928 12.0674C23.9337 12.0676 23.9393 12.0684 23.945 12.0687ZM26.1794 5.91248C25.7712 5.78076 25.4338 5.81673 25.1338 6.03227C24.4082 6.55327 23.3736 6.55341 22.6481 6.03227C22.3481 5.81678 22.0119 5.78082 21.6038 5.91248C20.8124 6.1677 20.3549 6.88754 20.3512 7.79399C20.347 8.67438 20.7898 9.52903 21.5635 10.3161C22.2248 10.9889 23.0716 11.5506 23.8903 11.9594C24.7095 11.5505 25.558 10.9894 26.2197 10.3161C26.9933 9.52903 27.435 8.67569 27.4307 7.79529C27.427 6.88866 26.9711 6.16757 26.1794 5.91248Z" fill="black"/>
<path fill-rule="evenodd" clip-rule="evenodd" d="M15.314 21.2173V25.9428H3.88572C3.33374 25.9432 2.88572 26.3908 2.88572 26.9428C2.88572 27.4949 3.33374 27.9425 3.88572 27.9428H28.0954C28.6476 27.9428 29.0954 27.4951 29.0954 26.9428C29.0954 26.3905 28.6476 25.9428 28.0954 25.9428H17.314V21.2644C19.5062 21.4106 20.8992 21.9235 21.755 22.5092C22.7448 23.1868 23.0693 23.9938 23.1144 24.6238C23.1539 25.1746 23.6326 25.589 24.1834 25.5496C24.7342 25.5101 25.1486 25.0314 25.1092 24.4806C25.0201 23.2366 24.373 21.8781 22.8852 20.8595C21.6302 20.0003 19.8215 19.4108 17.314 19.2605V18.4741C19.1542 17.9987 20.5135 16.3274 20.5135 14.3387C20.5134 11.98 18.6013 10.0678 16.2426 10.0678C13.8838 10.0678 11.9717 11.98 11.9717 14.3387C11.9717 16.3785 13.4017 18.0844 15.314 18.5083V19.2169C13.0648 19.1656 11.7271 18.5163 10.9396 17.7618C10.11 16.9671 9.77292 15.943 9.72601 15.0275C9.6978 14.476 9.22796 14.0515 8.67653 14.0795C8.12507 14.1078 7.70058 14.5776 7.72862 15.129C7.79564 16.4391 8.28261 17.9862 9.55544 19.2058C10.7928 20.3913 12.6651 21.1649 15.314 21.2173ZM18.5134 14.3387C18.5134 13.0845 17.4967 12.0678 16.2426 12.0678C14.9884 12.0679 13.9717 13.0846 13.9717 14.3387C13.9717 15.5929 14.9884 16.6095 16.2426 16.6096C17.4968 16.6096 18.5134 15.5929 18.5134 14.3387Z" fill="black"/>
</svg>
