<svg width="32" height="32" viewBox="0 0 32 32" fill="none" xmlns="http://www.w3.org/2000/svg">
<path d="M16.0015 14.0564C16.5528 14.0565 16.9988 14.5028 17.0002 15.0538C17.2 15.1373 17.3913 15.2463 17.5692 15.3819C18.0466 15.1072 18.6573 15.271 18.9338 15.7478C19.2107 16.2256 19.047 16.838 18.5692 17.115C18.5968 17.3327 18.5942 17.5523 18.5666 17.77C19.0442 18.0468 19.2103 18.6594 18.9338 19.1371C18.6568 19.6149 18.0444 19.7787 17.5666 19.5017C17.389 19.6371 17.1996 19.7478 17.0002 19.8312C16.999 20.3824 16.553 20.8284 16.0015 20.8286C15.4504 20.8286 15.0034 20.3832 15.0015 19.8325C14.8016 19.749 14.6118 19.6375 14.4338 19.5017L14.3426 19.5486C13.8806 19.757 13.3261 19.5852 13.0666 19.1371C12.7901 18.6594 12.9536 18.0481 13.4312 17.7713C13.4036 17.5536 13.4062 17.3326 13.4338 17.115C12.9559 16.8382 12.7898 16.2257 13.0666 15.7478C13.343 15.2707 13.9536 15.1083 14.4312 15.3832C14.6097 15.247 14.8009 15.1362 15.0015 15.0525C15.0036 14.502 15.4505 14.0564 16.0015 14.0564ZM16.3257 16.9496C16.0963 16.7986 15.7839 16.8237 15.5822 17.0252C15.3526 17.2557 15.3534 17.6297 15.5835 17.8598C15.814 18.0903 16.1876 18.0903 16.4182 17.8598C16.6481 17.6297 16.6489 17.2557 16.4195 17.0252L16.3257 16.9496Z" fill="black"/>
<path d="M5.35292 14.4922C5.35292 12.7282 5.99793 11.0477 6.96099 9.73438C7.91706 8.43076 9.25323 7.4024 10.7214 7.05599C11.2588 6.92936 11.7964 7.26206 11.9232 7.79948C12.0499 8.3369 11.7172 8.8745 11.1797 9.0013C10.2888 9.21161 9.32578 9.89133 8.57297 10.918C7.82725 11.9351 7.35292 13.2085 7.35292 14.4922C7.35292 15.0445 6.9052 15.4922 6.35292 15.4922C5.80064 15.4922 5.35292 15.0445 5.35292 14.4922Z" fill="black"/>
<path d="M26.5749 14.4948C26.5749 12.7308 25.9299 11.0503 24.9669 9.73698C24.0108 8.43337 22.6746 7.40501 21.2064 7.05859C20.669 6.93197 20.1314 7.26466 20.0046 7.80208C19.878 8.33951 20.2107 8.8771 20.7481 9.00391C21.639 9.21422 22.6021 9.89393 23.3549 10.9206C24.1006 11.9377 24.5749 13.2111 24.5749 14.4948C24.5749 15.0471 25.0226 15.4948 25.5749 15.4948C26.1272 15.4948 26.5749 15.0471 26.5749 14.4948Z" fill="black"/>
<path d="M12.8741 23.3024C14.8743 24.6721 17.569 24.4658 19.1586 23.2787C19.601 22.9482 19.6917 22.3213 19.3612 21.8788C19.0307 21.4363 18.4038 21.3456 17.9614 21.6761C17.044 22.3611 15.2846 22.5291 14.0041 21.6522C13.5484 21.3406 12.9259 21.4568 12.614 21.9123C12.302 22.3679 12.4188 22.9903 12.8741 23.3024Z" fill="black"/>
<path d="M12.6651 7.19271C12.6652 8.64087 13.5828 9.87992 14.8714 10.3452C13.8724 10.5036 13.0741 10.8785 12.4806 11.4193C11.6815 12.1476 11.3439 13.0975 11.3439 13.9557C11.344 14.5079 11.7917 14.9557 12.3439 14.9557C12.8961 14.9557 13.3438 14.5079 13.3439 13.9557C13.3439 13.6136 13.478 13.2163 13.8283 12.8971C14.1755 12.5809 14.8267 12.2604 16.0001 12.2604C17.1755 12.2604 17.8279 12.5789 18.1746 12.8932C18.5233 13.2095 18.6564 13.6036 18.6564 13.9453C18.6564 14.4976 19.1041 14.9453 19.6564 14.9453C20.2085 14.9451 20.6564 14.4975 20.6564 13.9453C20.6564 13.0861 20.3176 12.1373 19.5171 11.4115C18.9238 10.8737 18.1266 10.502 17.1299 10.3447C18.4182 9.87922 19.3356 8.64055 19.3357 7.19271C19.3357 5.34848 17.8473 3.84375 15.9997 3.84375C14.1527 3.84396 12.6651 5.34876 12.6651 7.19271ZM15.9997 5.84375C16.7321 5.84375 17.3357 6.44238 17.3357 7.19271C17.3356 7.94294 16.7321 8.54167 15.9997 8.54167C15.2683 8.54146 14.6652 7.94297 14.6651 7.19271C14.6651 6.44235 15.2682 5.84396 15.9997 5.84375Z" fill="black"/>
<path d="M5.35295 19.7917C5.35301 21.2398 6.27064 22.4789 7.55927 22.9441C6.56026 23.1026 5.76197 23.4774 5.16846 24.0182C4.36936 24.7465 4.03174 25.6965 4.03174 26.5547C4.03183 27.1069 4.47951 27.5547 5.03174 27.5547C5.58397 27.5547 6.03164 27.1069 6.03174 26.5547C6.03174 26.2126 6.16588 25.8152 6.51611 25.4961C6.86338 25.1798 7.51455 24.8594 8.68799 24.8594C9.86339 24.8594 10.5158 25.1779 10.8625 25.4922C11.2111 25.8084 11.3442 26.2025 11.3442 26.5443C11.3443 27.0965 11.792 27.5443 12.3442 27.5443C12.8963 27.5441 13.3442 27.0964 13.3442 26.5443C13.3442 25.6851 13.0055 24.7363 12.2049 24.0104C11.6116 23.4726 10.8144 23.101 9.81772 22.9437C11.1061 22.4782 12.0235 21.2395 12.0235 19.7917C12.0235 17.9474 10.5352 16.4427 8.68758 16.4427C6.84058 16.4429 5.35295 17.9477 5.35295 19.7917ZM8.68758 18.4427C9.41996 18.4427 10.0235 19.0413 10.0235 19.7917C10.0234 20.5419 9.41992 21.1406 8.68758 21.1406C7.95614 21.1404 7.35303 20.5419 7.35295 19.7917C7.35295 19.0413 7.9561 18.4429 8.68758 18.4427Z" fill="black"/>
<path d="M19.9773 19.7917C19.9773 21.2398 20.895 22.4789 22.1836 22.9441C21.1846 23.1026 20.3863 23.4774 19.7928 24.0182C18.9937 24.7465 18.6561 25.6965 18.6561 26.5547C18.6562 27.1069 19.1038 27.5547 19.6561 27.5547C20.2083 27.5547 20.656 27.1069 20.6561 26.5547C20.6561 26.2126 20.7902 25.8152 21.1404 25.4961C21.4877 25.1798 22.1389 24.8594 23.3123 24.8594C24.4877 24.8594 25.1401 25.1779 25.4868 25.4922C25.8355 25.8084 25.9686 26.2025 25.9686 26.5443C25.9686 27.0965 26.4163 27.5443 26.9686 27.5443C27.5207 27.5441 27.9685 27.0964 27.9686 26.5443C27.9686 25.6851 27.6298 24.7363 26.8292 24.0104C26.2359 23.4726 25.4388 23.101 24.442 22.9437C25.7304 22.4782 26.6478 21.2395 26.6478 19.7917C26.6478 17.9474 25.1595 16.4427 23.3119 16.4427C21.4649 16.4429 19.9773 17.9477 19.9773 19.7917ZM23.3119 18.4427C24.0443 18.4427 24.6478 19.0413 24.6478 19.7917C24.6478 20.5419 24.0442 21.1406 23.3119 21.1406C22.5805 21.1404 21.9773 20.5419 21.9773 19.7917C21.9773 19.0413 22.5804 18.4429 23.3119 18.4427Z" fill="black"/>
</svg>
