<?xml version="1.0" encoding="UTF-8"?>
<svg id="Capa_1" xmlns="http://www.w3.org/2000/svg" version="1.1" viewBox="0 0 32 32">
  <!-- Generator: Adobe Illustrator 30.0.0, SVG Export Plug-In . SVG Version: 2.1.1 Build 123)  -->
  <defs>
    <style>
      .st0 {
        fill-rule: evenodd;
      }
    </style>
  </defs>
  <path class="st0" d="M19.63,22.54c-.5-.22-1.09,0-1.32.51l-1.61,3.61c-.22.5,0,1.1.51,1.32.5.22,1.1,0,1.32-.51l1.61-3.61c.22-.5,0-1.1-.51-1.32Z"/>
  <path class="st0" d="M21.39,14.48c1.59,0,2.89-1.29,2.89-2.88,0-1.59-1.3-2.88-2.89-2.88-1.59,0-2.88,1.29-2.88,2.88,0,1.6,1.3,2.88,2.88,2.88ZM21.39,10.71c.49,0,.89.4.89.88,0,.49-.4.88-.89.88-.49,0-.88-.4-.88-.88,0-.49.4-.88.88-.88Z"/>
  <path class="st0" d="M27.94,15.79c-.25-.49-.85-.69-1.34-.45-.21.11-.42.22-.6.33l-.05.03c-.2.12-.38.21-.55.3-.26.12-.47.19-.66.21h-.18c-.28-.01-.54-.09-.92-.22-.12-.04-.26-.08-.41-.13-.55-.17-1.31-.36-2.15-.13-.4.11-.76.28-1.07.51h-.02s-5.2,2.11-5.2,2.11c-1.84.74-2.37,3.09-1.03,4.55,1.27,1.38,3.51,1.17,4.5-.43l1.05-1.7c.24.35.52.65.79.91.17.16.34.31.5.45h.01c.16.16.31.29.46.43.28.27.49.51.63.75.54.96.57,2.21.6,3.63v.15c.01.55.47.99,1.02.98.55-.01.99-.47.98-1.02,0-.09,0-.19,0-.29-.02-1.28-.05-3.02-.85-4.43-.28-.49-.65-.89-.99-1.21-.17-.16-.35-.32-.51-.46-.16-.15-.31-.28-.45-.41-.56-.53-.79-.92-.76-1.44.01-.18.05-.35.11-.5.05-.11.11-.2.18-.29.15-.17.34-.3.58-.36.26-.07.55-.03,1.04.12.07.02.16.05.24.08.42.14.99.32,1.56.36.72.04,1.33-.18,1.82-.41.24-.12.47-.25.68-.36l.05-.03c.19-.11.35-.2.51-.28.49-.25.69-.85.45-1.34ZM16.55,21.41c-.29.47-.95.53-1.33.13-.4-.43-.24-1.12.3-1.34l2.37-.96-1.34,2.17Z"/>
  <path class="st0" d="M16.99,14.28v-4c.29,0,.58-.13.78-.38.34-.43.27-1.06-.16-1.4l-1.84-1.46v-1.1c0-.55-.45-1-1-1-.4,0-.75.24-.91.59l-1.27-1c-.88-.7-2.1-.74-3.02-.13l-.18.13-5.02,3.97c-.43.34-.51.97-.16,1.4.2.25.49.38.78.38v4c0,1.68,1.36,3.04,3.04,3.04h1.34s.03,0,.05,0,.03,0,.05,0h3.04s.03,0,.05,0,.03,0,.05,0h1.34c1.68,0,3.04-1.36,3.04-3.04ZM11.56,15.33h-1.14v-1.48c0-.28,0-.44,0-.55,0,0,.01-.01.01-.01.11,0,.27,0,.55,0s.44,0,.55,0c0,0,.01.01.01.01,0,.11,0,.27,0,.55v1.48ZM13.55,13.14c-.01-.16-.04-.35-.1-.54l-.08-.19-.08-.15c-.2-.34-.5-.61-.85-.78-.26-.13-.52-.17-.74-.18-.2-.02-.44-.02-.68-.02h-.04c-.24,0-.48,0-.68.02-.22.02-.48.06-.74.18-.41.2-.74.53-.93.93-.13.26-.17.52-.18.74-.02.2-.02.44-.02.68v1.5h-.39c-.58,0-1.04-.47-1.04-1.04v-5.3l3.64-2.88c.21-.17.51-.17.72,0l3.64,2.88v5.3c0,.58-.47,1.04-1.04,1.04h-.39v-1.5c0-.24,0-.48-.02-.68Z"/>
</svg>