<svg width="32" height="32" viewBox="0 0 32 32" fill="none" xmlns="http://www.w3.org/2000/svg">
<path d="M16.9799 7.40932C19.6081 5.64148 23.1378 6.08691 25.2442 8.45229L27.782 11.3013C28.1492 11.7137 28.1124 12.3468 27.7 12.714C27.2875 13.0813 26.6545 13.0445 26.2872 12.632L23.7508 9.78302C22.3096 8.16429 19.8941 7.85853 18.0958 9.06818L14.4343 11.5317C12.2334 13.0122 9.34286 12.9645 7.19216 11.4119L4.37966 9.38198C3.93239 9.05865 3.83144 8.43375 4.1544 7.98615C4.47766 7.53835 5.10374 7.43763 5.55154 7.76089L8.36274 9.79084C9.83405 10.8528 11.8114 10.8854 13.3172 9.87287L16.9799 7.40932Z" fill="black"/>
<path d="M16.9799 13.8572C19.6081 12.0894 23.1378 12.5348 25.2442 14.9002L27.782 17.7492C28.1492 18.1616 28.1124 18.7947 27.7 19.1619C27.2875 19.5292 26.6545 19.4924 26.2872 19.0799L23.7508 16.2309C22.3096 14.6122 19.8941 14.3064 18.0958 15.5161L14.4343 17.9796C12.2334 19.4602 9.34286 19.4124 7.19216 17.8598L4.37966 15.8299C3.93239 15.5066 3.83144 14.8817 4.1544 14.4341C4.47766 13.9863 5.10374 13.8855 5.55154 14.2088L8.36274 16.2388C9.83405 17.3008 11.8114 17.3333 13.3172 16.3208L16.9799 13.8572Z" fill="black"/>
<path d="M16.9799 20.9927C19.6081 19.2248 23.1378 19.6702 25.2442 22.0356L27.782 24.8846C28.1492 25.2971 28.1124 25.9301 27.7 26.2973C27.2875 26.6646 26.6545 26.6278 26.2872 26.2153L23.7508 23.3664C22.3096 21.7476 19.8941 21.4419 18.0958 22.6515L14.4343 25.1151C12.2334 26.5956 9.34286 26.5478 7.19216 24.9953L4.37966 22.9653C3.93239 22.642 3.83144 22.0171 4.1544 21.5695C4.47766 21.1217 5.10374 21.021 5.55154 21.3442L8.36274 23.3742C9.83405 24.4362 11.8114 24.4687 13.3172 23.4562L16.9799 20.9927Z" fill="black"/>
</svg>
