<svg width="32" height="32" viewBox="0 0 32 32" fill="none" xmlns="http://www.w3.org/2000/svg">
<path d="M16.7776 12.9156C17.3296 12.9159 17.7776 13.3635 17.7776 13.9156C17.7776 14.4678 17.3296 14.9154 16.7776 14.9156H15.2984C14.7461 14.9156 14.2984 14.4679 14.2984 13.9156C14.2984 13.3634 14.7461 12.9156 15.2984 12.9156H16.7776Z" fill="black"/>
<path d="M17.2722 22.4297L17.4779 22.4245C19.5232 22.3208 21.1633 20.6808 21.2669 18.6354L21.2721 18.4297V13.5703C21.2721 11.4302 19.5913 9.68268 17.4779 9.57552L17.2722 9.57031H14.8034L14.5977 9.57552C12.4842 9.6826 10.8035 11.4302 10.8035 13.5703V18.4297L10.8087 18.6354C10.9158 20.7489 12.6633 22.4297 14.8034 22.4297H17.2722ZM19.2721 18.4297C19.2721 19.5342 18.3766 20.4296 17.2722 20.4297H14.8034C13.6989 20.4297 12.8035 19.5343 12.8035 18.4297V13.5703C12.8035 12.4657 13.6989 11.5703 14.8034 11.5703H17.2722C18.3766 11.5704 19.2721 12.4658 19.2721 13.5703V18.4297Z" fill="black"/>
<path d="M24.0356 27.9479C26.1758 27.9479 27.9233 26.2672 28.0304 24.1536L28.0356 23.9479V8.0625C28.0356 5.85336 26.2448 4.0625 24.0356 4.0625H8.03955C5.83041 4.0625 4.03955 5.85336 4.03955 8.0625V23.9479L4.04476 24.1536C4.14838 26.199 5.78843 27.8391 7.83382 27.9427L8.03955 27.9479H24.0356ZM26.0356 23.9479C26.0356 25.0525 25.1402 25.9479 24.0356 25.9479H8.03955C6.93498 25.9479 6.03955 25.0525 6.03955 23.9479V8.0625L6.04997 7.85807C6.15236 6.84954 7.004 6.0625 8.03955 6.0625H24.0356C25.1402 6.0625 26.0356 6.95793 26.0356 8.0625V23.9479Z" fill="black"/>
</svg>
