<svg width="32" height="32" viewBox="0 0 32 32" fill="none" xmlns="http://www.w3.org/2000/svg">
<path d="M13.5228 9.05871C13.5211 9.05513 13.5175 9.05027 13.5124 9.04569C13.5072 9.0411 13.5024 9.03887 13.4994 9.03787C13.4973 9.03722 13.4944 9.03592 13.4889 9.03657C8.74228 9.61276 5.20087 14.1008 6.18946 19.1928C6.81214 22.3941 9.34039 25.002 12.502 25.7449L12.8093 25.8113L13.2858 25.8907C18.179 26.578 22.408 23.1106 22.9655 18.5118C22.966 18.5069 22.9661 18.5138 22.9655 18.5118C22.9645 18.5088 22.9609 18.4948 22.9564 18.4897C22.9518 18.4845 22.9469 18.4809 22.9434 18.4793C22.9408 18.4781 22.9376 18.4767 22.9317 18.4767H15.5514C14.4313 18.4767 13.5254 17.5694 13.5254 16.4493V9.07043C13.5254 9.06448 13.5239 9.06126 13.5228 9.05871ZM15.5254 16.4493C15.5254 16.4662 15.5373 16.4767 15.5514 16.4767H22.9317C24.1457 16.4767 25.0965 17.5411 24.9512 18.7514C24.24 24.6176 18.692 28.9923 12.4277 27.7749C8.32283 26.9778 5.02411 23.6789 4.22592 19.5743C3.01021 13.3105 7.38336 7.76214 13.2494 7.05089C14.4598 6.90547 15.5254 7.85661 15.5254 9.07043V16.4493Z" fill="black"/>
<path d="M19.4744 4.04308C23.888 4.62303 27.3812 8.11654 27.9614 12.5301C28.1204 13.7478 27.168 14.8269 25.9444 14.8269H19.2036C18.085 14.8267 17.1776 13.921 17.1775 12.8022V6.06001C17.1777 4.83819 18.2572 3.88359 19.4744 4.04308ZM19.1775 12.8022C19.1785 12.8044 19.1823 12.8161 19.1853 12.8191C19.1882 12.822 19.1907 12.8246 19.1931 12.8256C19.1931 12.8256 19.1981 12.8269 19.2036 12.8269H25.9444C25.9511 12.8269 25.9549 12.8255 25.9575 12.8243C25.9608 12.8227 25.965 12.8198 25.9692 12.8152C25.9736 12.8102 25.9772 12.8054 25.9783 12.8022V12.7905C25.5304 9.38462 22.901 6.66358 19.5408 6.07694L19.214 6.02616C19.2092 6.02554 19.216 6.02554 19.214 6.02616C19.2108 6.02717 19.196 6.0305 19.1905 6.03527C19.185 6.04015 19.1818 6.04595 19.1801 6.04959C19.179 6.05211 19.1775 6.05472 19.1775 6.06001V12.8022Z" fill="black"/>
</svg>
