<svg width="32" height="32" viewBox="0 0 32 32" fill="none" xmlns="http://www.w3.org/2000/svg">
<path d="M16.6099 8.54891V6.00854C16.6099 5.45626 17.0576 5.00854 17.6099 5.00854C18.1621 5.00854 18.6099 5.45626 18.6099 6.00854V8.54891C18.6099 9.10119 18.1621 9.54891 17.6099 9.54891C17.0576 9.54891 16.6099 9.10119 16.6099 8.54891Z" fill="black"/>
<path d="M27.1214 15.1127C27.6737 15.1127 28.1214 15.5604 28.1214 16.1127C28.1214 16.665 27.6737 17.1127 27.1214 17.1127H24.5811C24.0288 17.1127 23.5811 16.665 23.5811 16.1127C23.5811 15.5604 24.0288 15.1127 24.5811 15.1127H27.1214Z" fill="black"/>
<path d="M14.3703 11.1438C14.7387 10.7325 15.3704 10.6974 15.7818 11.0656L16.7492 11.9328H18.6893L18.8729 11.9497C19.2902 12.0275 19.6217 12.3646 19.6802 12.7987L19.9029 14.455L21.3078 15.2779C21.5503 15.4199 21.7218 15.658 21.7805 15.9328C21.839 16.2075 21.7797 16.4947 21.6164 16.7232L20.4419 18.3651L20.7648 19.3886C20.9309 19.9151 20.639 20.4762 20.1125 20.6425C19.5858 20.8088 19.0236 20.5168 18.8573 19.9901L18.3846 18.4914C18.2902 18.192 18.3416 17.8655 18.5239 17.6099L19.3521 16.4498L18.4706 15.9341C18.2052 15.7786 18.0259 15.5098 17.9849 15.205L17.8143 13.9328H16.3677C16.1215 13.9328 15.8831 13.8419 15.6997 13.6776L14.4484 12.5552C14.0372 12.1868 14.0021 11.5551 14.3703 11.1438Z" fill="black"/>
<path d="M22.0772 21.2182C22.4678 20.8277 23.1008 20.8277 23.4913 21.2182L25.2882 23.0151C25.6784 23.4056 25.6786 24.0387 25.2882 24.4291C24.8977 24.8195 24.2647 24.8193 23.8741 24.4291L22.0772 22.6322C21.6867 22.2417 21.6867 21.6087 22.0772 21.2182Z" fill="black"/>
<path d="M23.6314 8.03068C24.022 7.64038 24.655 7.64024 25.0455 8.03068C25.4357 8.42115 25.4357 9.05427 25.0455 9.44474L23.2486 11.2416C22.8581 11.6319 22.225 11.6319 21.8346 11.2416C21.4441 10.8512 21.4442 10.2181 21.8346 9.82756L23.6314 8.03068Z" fill="black"/>
<path fill-rule="evenodd" clip-rule="evenodd" d="M14.6095 22.1153C14.4496 22.2752 14.2657 22.406 14.0661 22.5041C13.9199 21.7931 13.5688 21.1336 13.0479 20.6127C12.3458 19.9107 11.394 19.519 10.4033 19.519C9.41298 19.519 8.46091 19.9106 7.75879 20.6127C7.29818 21.0733 6.97054 21.642 6.7997 22.2585H4.75928C4.20699 22.2585 3.75928 22.7063 3.75928 23.2585C3.75928 23.8108 4.20699 24.2585 4.75928 24.2585L6.79655 24.269C7.0177 25.0536 7.48955 25.7446 8.139 26.2364C8.78885 26.7285 9.58201 26.9942 10.3968 26.9942C11.2109 26.9941 12.0035 26.7283 12.6533 26.2364C13.1947 25.8265 13.6133 25.2788 13.8652 24.6532C14.6767 24.5095 15.432 24.1209 16.0236 23.5294C16.7842 22.7687 17.2097 21.7369 17.2098 20.6622V18.2911C17.2097 17.2159 16.7839 16.1855 16.0236 15.4252C15.2634 14.665 14.2316 14.2379 13.1564 14.2377H11.2061L8.3374 8.93042C8.10857 8.50695 7.76972 8.15442 7.35824 7.90828C6.99726 7.69241 6.59173 7.56516 6.17464 7.53589L5.99495 7.52938H4.75928C4.20699 7.52938 3.75928 7.97709 3.75928 8.52938C3.75928 9.08166 4.20699 9.52938 4.75928 9.52938H5.98975L6.07959 9.53589C6.16884 9.5482 6.2549 9.5782 6.33219 9.62443C6.43651 9.68687 6.52136 9.7756 6.57829 9.88094L8.93167 14.2377H4.75928C4.20699 14.2377 3.75928 14.6854 3.75928 15.2377C3.75928 15.79 4.20699 16.2377 4.75928 16.2377H13.1564C13.7011 16.2379 14.2243 16.4541 14.6095 16.8393C14.9947 17.2245 15.2097 17.7463 15.2098 18.2911V20.6622C15.2097 21.2074 14.9943 21.7304 14.6095 22.1153ZM9.17285 22.0268C9.49812 21.7016 9.94088 21.519 10.4033 21.519C10.8656 21.519 11.3083 21.7013 11.6338 22.0268C11.9191 22.3121 12.0955 22.688 12.1351 23.0867L12.1429 23.2585C12.142 23.4118 12.1192 23.5644 12.0752 23.7117L12.0713 23.7273C11.9685 24.0918 11.7487 24.4124 11.4463 24.6414C11.1446 24.8698 10.7761 24.9941 10.3968 24.9942C10.0176 24.9942 9.64814 24.8701 9.34603 24.6414C9.08159 24.441 8.88145 24.17 8.7666 23.8614L8.72233 23.7273C8.68136 23.5801 8.66145 23.4269 8.66374 23.2729V23.2585C8.66374 22.7964 8.84727 22.3523 9.17285 22.0268Z" fill="black"/>
</svg>
