<svg width="32" height="32" viewBox="0 0 32 32" fill="none" xmlns="http://www.w3.org/2000/svg">
<path d="M16.3923 17.2696V15.1563C16.3923 14.604 15.9446 14.1563 15.3923 14.1563C14.84 14.1563 14.3923 14.604 14.3923 15.1563V17.2696C14.3923 17.8219 14.84 18.2696 15.3923 18.2696C15.9446 18.2696 16.3923 17.8219 16.3923 17.2696Z" fill="black"/>
<path fill-rule="evenodd" clip-rule="evenodd" d="M16.3923 17.2696V15.1563C16.3923 14.604 15.9446 14.1563 15.3923 14.1563C14.84 14.1563 14.3923 14.604 14.3923 15.1563V17.2696C14.3923 17.8219 14.84 18.2696 15.3923 18.2696C15.9446 18.2696 16.3923 17.8219 16.3923 17.2696Z" fill="black"/>
<path fill-rule="evenodd" clip-rule="evenodd" d="M22.6881 23.8021H20.0822V8.61985H22.6881C23.7702 8.61985 24.6462 9.49614 24.6464 10.5756V21.8451C24.6464 22.9247 23.7703 23.8021 22.6881 23.8021ZM19.7479 25.8021H22.6881C24.8734 25.8021 26.6464 24.0306 26.6464 21.8451V10.5756C26.6462 8.39016 24.8733 6.61985 22.6881 6.61985H19.7479C18.9895 4.8413 17.0476 3.72285 15.0093 4.14589L8.7124 5.45318C6.75705 5.85905 5.35328 7.5813 5.35303 9.57818V22.8438C5.35328 24.8407 6.75703 26.563 8.7124 26.9688L15.0093 28.2748C17.0476 28.698 18.9894 27.5803 19.7479 25.8021ZM18.0679 24.4089L18.0822 24.1498V8.27219C18.0822 6.86981 16.792 5.81855 15.4155 6.10423L9.11865 7.41152C8.09048 7.62493 7.35328 8.53016 7.35303 9.57818V22.8438C7.35328 23.8918 8.0905 24.7971 9.11865 25.0105L15.4155 26.3178C16.7059 26.5857 17.9212 25.6789 18.0679 24.4089Z" fill="black"/>
</svg>
