<svg width="32" height="32" viewBox="0 0 32 32" fill="none" xmlns="http://www.w3.org/2000/svg">
<path d="M25.9095 16.7839C25.9095 20.8258 24.2118 23.638 22.1114 25.422C20.0536 27.1697 17.5957 27.9426 15.9799 27.9428C14.3647 27.9428 11.9064 27.1696 9.84835 25.422C7.74777 23.638 6.04887 20.8258 6.04887 16.7839C6.04887 14.9281 6.02888 13.5001 6.00981 12.3894L5.99939 11.7991C5.98488 10.9892 5.97361 10.3598 5.97725 9.87248C5.98163 9.28883 6.00551 8.80475 6.11007 8.40112C6.23293 7.9271 6.45341 7.60473 6.73507 7.323L6.95121 7.12638C7.53536 6.63494 8.65978 5.93211 10.0476 5.3269C11.6622 4.6228 13.7577 3.99487 15.9799 3.99487C18.2018 3.99499 20.2963 4.62288 21.9108 5.3269C23.2995 5.9324 24.4243 6.63526 25.0085 7.12638L25.2247 7.323L25.4239 7.54435C25.61 7.77608 25.7564 8.0459 25.8483 8.40112C25.9527 8.8046 25.9782 9.28875 25.9825 9.87248C25.9859 10.3393 25.975 10.9365 25.961 11.698C25.957 11.9149 25.9528 12.1451 25.9486 12.3894C25.9295 13.5001 25.9095 14.9281 25.9095 16.7839ZM15.9794 15.8736C15.9565 15.8736 15.5215 15.0199 15.0103 13.9757L14.0793 12.0703H11.1721V19.8445H14.0717L14.087 17.9619L14.1099 16.0717L15.0484 17.9695L15.9794 19.8674L16.9179 17.9695L17.8488 16.0717L17.8717 17.9543L17.887 19.8445H20.7866V12.0703H19.3215L17.8488 12.0779L16.9332 13.9757C16.4296 15.0199 16.0022 15.8736 15.9794 15.8736Z" fill="black"/>
</svg>
