<?xml version="1.0" encoding="UTF-8"?>
<svg id="Capa_1" xmlns="http://www.w3.org/2000/svg" version="1.1" viewBox="0 0 32 32">
  <!-- Generator: Adobe Illustrator 30.0.0, SVG Export Plug-In . SVG Version: 2.1.1 Build 123)  -->
  <defs>
    <style>
      .st0 {
        fill-rule: evenodd;
      }
    </style>
  </defs>
  <path class="st0" d="M7.49,15.71c-.39.39-.38,1.03,0,1.42.39.39,1.02.39,1.41,0,.39-.39.39-1.02,0-1.41-.39-.39-1.03-.4-1.42,0Z"/>
  <path class="st0" d="M29.23,16.22l-1.37-1.08-.09-.07-1.31-1.03v-1.75c0-.55-.45-1-1-1s-1,.45-1,1v.17l-2.33-1.85-.23-.16c-1.16-.76-2.69-.71-3.79.16l-5.66,4.48-.04.03-1.39,1.1c-.43.34-.51.97-.16,1.4.29.37.79.47,1.19.29v2.12h-1.97c-1.27,0-2.31,1.03-2.31,2.31v.54c0,.17-.14.31-.31.31h-2.59c-.17,0-.31-.14-.31-.31l.02-6.8c0-.83.26-1.64.75-2.32l.96-1.33c1.36.22,2.51.34,4.66.34.55,0,1-.45,1-1,0-.55-.45-1-1-1-1.6,0-2.57-.06-3.55-.19l1.28-3.55c.21-.61.78-1.09,1.41-1.22h5.14c.55,0,1-.45,1-1s-.45-1-1-1h-5.42c-1.38.24-2.56,1.24-3.03,2.56l-1.37,3.79s-.02.06-.04.08c-.48-.09-1.03-.18-1.66-.29-.54-.09-1.06.27-1.15.82-.09.54.27,1.06.82,1.15.25.04.49.08.71.12l-.39.53c-.74,1.01-1.13,2.24-1.13,3.49l-.02,6.8c0,1.28,1.03,2.31,2.31,2.31h2.59c1.27,0,2.31-1.03,2.31-2.31v-.54c0-.17.14-.31.31-.31h1.97v2.02c0,2.15,1.74,3.89,3.89,3.89h1.83s.09,0,.14,0,.09,0,.14,0h4.17s.09,0,.14,0,.09,0,.14,0h1.82c2.15,0,3.89-1.74,3.89-3.89v-6.14c.41.18.9.08,1.19-.29.34-.43.27-1.06-.16-1.4ZM21.35,25.95h-2.44v-2.49c0-.39,0-.63.01-.81,0-.12.02-.17.03-.18.04-.08.11-.15.19-.19.01,0,.06-.02.18-.03.18-.01.41-.01.81-.01s.63,0,.81.01c.12,0,.17.02.18.03.08.04.15.11.19.19,0,.01.02.06.03.18.01.18.01.42.01.81v2.49ZM26.2,24.07c0,1.04-.85,1.89-1.89,1.89h-.96v-2.52c0-.35,0-.67-.02-.94-.02-.28-.07-.59-.22-.89-.21-.43-.54-.79-.94-1.03l-.18-.1c-.3-.15-.61-.2-.89-.22-.27-.02-.59-.02-.94-.02h-.04c-.35,0-.67,0-.94.02-.28.02-.59.07-.89.22-.43.21-.79.54-1.03.95l-.1.18c-.15.3-.2.61-.22.89-.02.27-.02.59-.02.94v2.52h-.96c-1.04,0-1.89-.84-1.89-1.89v-7.69l5.3-4.2.18-.12c.43-.23.97-.19,1.36.12l5.3,4.2v7.69Z"/>
</svg>