<svg width="32" height="32" viewBox="0 0 32 32" fill="none" xmlns="http://www.w3.org/2000/svg">
<path fill-rule="evenodd" clip-rule="evenodd" d="M16.7541 27.8402L16.7106 27.8839L16.7249 27.87C16.7349 27.8603 16.7449 27.8507 16.7541 27.8402ZM15.2937 27.8849L15.2504 27.8414C15.2596 27.8518 15.2696 27.8615 15.2796 27.8711L15.2937 27.8849ZM15.4953 28.041C15.6299 28.1202 15.7847 28.1689 15.9507 28.1772C15.7891 28.169 15.633 28.1219 15.4953 28.041ZM16.6014 4.50931C16.4289 4.37925 16.2176 4.30762 15.9991 4.30762C16.2253 4.30762 16.4339 4.3827 16.6014 4.50931Z" fill="black"/>
<path fill-rule="evenodd" clip-rule="evenodd" d="M27.6067 16.9895C27.6157 16.9814 27.6242 16.9727 27.6327 16.9639C27.6364 16.9601 27.6401 16.9563 27.6439 16.9525L27.6067 16.9895Z" fill="black"/>
<path fill-rule="evenodd" clip-rule="evenodd" d="M4.27171 15.6305C4.23553 15.6773 4.2037 15.727 4.17649 15.779C4.20448 15.7255 4.23423 15.6784 4.27171 15.6305Z" fill="black"/>
<path fill-rule="evenodd" clip-rule="evenodd" d="M4.27171 15.6305C4.23553 15.6773 4.2037 15.727 4.17649 15.779C4.20448 15.7255 4.23423 15.6784 4.27171 15.6305Z" fill="black"/>
<path fill-rule="evenodd" clip-rule="evenodd" d="M16.5193 28.0342C16.5889 27.9922 16.6524 27.9425 16.7106 27.8839C16.6535 27.9414 16.5875 27.9927 16.5193 28.0342Z" fill="black"/>
<path d="M16.7541 27.8402L16.7106 27.8839C16.6535 27.9414 16.5875 27.9927 16.5193 28.0342C16.3782 28.1194 16.213 28.1718 16.0371 28.1779C16.0254 28.1784 16.0136 28.1786 16.0017 28.1786C15.9847 28.1786 15.9676 28.1781 15.9507 28.1772C15.7847 28.1689 15.6299 28.1202 15.4953 28.041C15.431 28.0034 15.3717 27.959 15.3169 27.9074C15.309 27.9001 15.3013 27.8925 15.2937 27.8849L15.2504 27.8414L12.4247 25.0049C12.0354 24.6135 12.0372 23.9803 12.4284 23.5907C12.8197 23.2012 13.453 23.2031 13.8426 23.5943L15.0017 24.7574L15.0008 17.2453L7.4851 17.244L8.64673 18.4017C9.03795 18.7914 9.0399 19.4246 8.65041 19.8159C8.26067 20.2072 7.62658 20.2084 7.23527 19.8187L4.35713 16.9516C4.1687 16.7639 4.06248 16.5086 4.0625 16.2426C4.06253 16.0752 4.10372 15.9175 4.17649 15.779C4.2037 15.727 4.23553 15.6773 4.27171 15.6305C4.29706 15.5981 4.32766 15.563 4.35713 15.5337L7.23619 12.6675C7.62745 12.2783 8.25988 12.2794 8.64949 12.6703C9.03916 13.0616 9.0381 13.6957 8.64673 14.0854L7.48195 15.2442L15.0005 15.2455L14.9996 7.72827L13.841 8.89276C13.4513 9.28408 12.8172 9.28518 12.4259 8.89552C12.0349 8.50582 12.0345 7.87254 12.424 7.48131L15.2902 4.60225C15.3259 4.56637 15.3641 4.53348 15.4043 4.50374C15.5729 4.37906 15.7872 4.30962 15.9991 4.30762C16.2176 4.30762 16.4289 4.37925 16.6014 4.50931C16.6389 4.53757 16.6746 4.5686 16.7081 4.60225L19.5743 7.48131C19.9638 7.87254 19.9634 8.50582 19.5724 8.89552C19.1811 9.28518 18.547 9.28408 18.1573 8.89276L16.9993 7.72888L17.0003 15.2458L24.521 15.2471L23.3533 14.0854C22.962 13.6957 22.9609 13.0616 23.3506 12.6703C23.7402 12.2794 24.3726 12.2783 24.7639 12.6675L27.6439 15.5346C27.6897 15.5802 27.7306 15.6298 27.7663 15.6826C27.7934 15.7225 27.8174 15.7642 27.8383 15.8074C27.9036 15.9422 27.9385 16.0935 27.9385 16.2459C27.9378 16.5109 27.8317 16.7655 27.6439 16.9525L27.6067 16.9895L24.7648 19.8187C24.3734 20.2084 23.7393 20.2073 23.3497 19.8159C22.9601 19.4246 22.9621 18.7913 23.3533 18.4017L24.5131 17.2469L17.0005 17.2456L17.0015 24.7567L18.1589 23.5943C18.5485 23.2029 19.1817 23.2011 19.5731 23.5907C19.9645 23.9802 19.9662 24.6134 19.5768 25.0049L16.7541 27.8402Z" fill="black"/>
</svg>
