<svg width="32" height="32" viewBox="0 0 32 32" fill="none" xmlns="http://www.w3.org/2000/svg">
<path fill-rule="evenodd" clip-rule="evenodd" d="M24.6811 11.413L24.9216 11.4184C24.8406 11.4265 24.7599 11.4244 24.6811 11.413Z" fill="black"/>
<path d="M18.7437 12.0065C19.1342 11.616 19.7673 11.616 20.1578 12.0065L20.1695 12.0182C20.5601 12.4087 20.56 13.0417 20.1695 13.4323C19.779 13.8228 19.146 13.8228 18.7555 13.4323L18.7437 13.4206C18.3532 13.0301 18.3532 12.397 18.7437 12.0065Z" fill="black"/>
<path fill-rule="evenodd" clip-rule="evenodd" d="M10.2286 17.9017C9.61163 18.1838 9.08032 18.6455 8.71471 19.2415C9.08005 18.6442 9.6115 18.1834 10.2286 17.9017Z" fill="black"/>
<path d="M11.7952 17.5917C11.2456 17.5705 10.711 17.6816 10.2286 17.9017C9.61163 18.1838 9.08032 18.6455 8.71471 19.2415C8.69637 19.2715 8.676 19.3058 8.65851 19.3365C8.54822 19.5318 8.45985 19.7358 8.39279 19.9449C8.05269 20.1046 7.81718 20.4501 7.81718 20.8507C7.81718 21.2275 8.02567 21.5557 8.3336 21.7262C8.40376 22.0097 8.51364 22.289 8.66111 22.55C9.29968 23.6704 10.5075 24.3417 11.7952 24.2922C12.3471 24.2709 12.7774 23.8063 12.7562 23.2544C12.7349 22.7026 12.2703 22.2722 11.7184 22.2935C11.2987 22.3097 10.9 22.1446 10.6164 21.8507H11.5607C11.9447 21.8505 12.2783 21.6339 12.4458 21.3162C12.5192 21.1772 12.5607 21.0188 12.5607 20.8507C12.5607 20.2985 12.1128 19.8509 11.5607 19.8507H10.8303C11.0857 19.6727 11.3961 19.5779 11.7184 19.5904C12.0122 19.6017 12.2813 19.485 12.4719 19.2901C12.6393 19.119 12.7462 18.8875 12.7562 18.6294C12.7774 18.0776 12.3471 17.613 11.7952 17.5917Z" fill="black"/>
<path fill-rule="evenodd" clip-rule="evenodd" d="M10.2286 17.9017C9.61163 18.1838 9.08032 18.6455 8.71471 19.2415C8.69637 19.2715 8.676 19.3058 8.65851 19.3365C8.54822 19.5318 8.45985 19.7358 8.39279 19.9449C8.05269 20.1046 7.81718 20.4501 7.81718 20.8507C7.81718 21.2275 8.02567 21.5557 8.3336 21.7262C8.40376 22.0097 8.51364 22.289 8.66111 22.55C9.29968 23.6704 10.5075 24.3417 11.7952 24.2922C12.3471 24.2709 12.7774 23.8063 12.7562 23.2544C12.7349 22.7026 12.2703 22.2722 11.7184 22.2935C11.2987 22.3097 10.9 22.1446 10.6164 21.8507H11.5607C11.9447 21.8505 12.2783 21.6339 12.4458 21.3162C12.5192 21.1772 12.5607 21.0188 12.5607 20.8507C12.5607 20.2985 12.1128 19.8509 11.5607 19.8507H10.8303C11.0857 19.6727 11.3961 19.5779 11.7184 19.5904C12.0122 19.6017 12.2813 19.485 12.4719 19.2901C12.6393 19.119 12.7462 18.8875 12.7562 18.6294C12.7774 18.0776 12.3471 17.613 11.7952 17.5917C11.2456 17.5705 10.711 17.6816 10.2286 17.9017Z" fill="black"/>
<path fill-rule="evenodd" clip-rule="evenodd" d="M23.198 9.37884C22.7404 8.65187 22.1602 8.00561 21.4806 7.47005L21.2593 7.30208C20.0665 6.43136 18.6451 5.92785 17.1707 5.85677C16.1147 5.82472 15.0623 6.00579 14.077 6.38802C13.0919 6.7702 12.1933 7.34746 11.4351 8.08333C10.6769 8.81925 10.0743 9.70009 9.66292 10.6732C9.25171 11.6462 9.04006 12.6922 9.04053 13.7487C9.04022 13.9393 9.04692 14.1294 9.06048 14.3187C9.63653 14.1619 10.2427 14.0781 10.8685 14.0781C14.4194 14.0781 17.3406 16.7742 17.6966 20.231L19.7254 20.5964C20.1252 20.6727 20.5489 20.5967 20.8921 20.3815C21.7653 19.8146 22.5143 19.0831 23.0991 18.2313L19.1085 17.2396C18.539 17.0987 18.0044 16.845 17.5369 16.4922L17.3402 16.3346C16.8293 15.9002 16.4257 15.3526 16.1619 14.7357L15.503 13.1966C15.3179 12.7657 15.2426 12.2934 15.2856 11.8255C15.3286 11.357 15.4889 10.9077 15.7504 10.5169C16.0125 10.1253 16.368 9.80532 16.7843 9.58724C17.2001 9.3694 17.6712 9.25826 18.1423 9.26562L23.198 9.37884ZM10.8685 27.8073C14.2134 27.8073 16.9996 25.4148 17.6092 22.2478L19.3608 22.5638C20.2622 22.7362 21.2045 22.5541 21.9806 22.0612C23.2837 21.2154 24.3656 20.076 25.1428 18.7391L25.6215 18.8581C25.9165 18.9313 26.2291 18.867 26.4705 18.6823C27.0819 18.2139 27.4299 17.4326 27.6384 16.7253C27.8594 15.9755 27.9798 15.1092 28.0121 14.2617C28.0444 13.4133 27.991 12.5414 27.8376 11.7786C27.693 11.0593 27.4277 10.2665 26.9145 9.74479C26.7775 9.60567 26.6038 9.51127 26.4158 9.47005L26.2244 9.44661L25.4942 9.43026C24.8151 7.94452 23.7645 6.65391 22.439 5.6862C20.9255 4.58136 19.1199 3.94581 17.2476 3.85937L17.2306 3.85807L16.7345 3.85547C15.5786 3.8785 14.4344 4.10449 13.3543 4.52344C12.1195 5.00247 10.9923 5.72595 10.0418 6.64844C9.09171 7.57074 8.3361 8.67476 7.82048 9.89453C7.30521 11.1137 7.04024 12.4241 7.04053 13.7474C7.03974 14.2278 7.07428 14.7052 7.14292 15.1761C5.25391 16.399 4.00391 18.5249 4.00391 20.9427C4.00391 24.7339 7.07728 27.8073 10.8685 27.8073ZM24.6811 11.413L24.9216 11.4184L25.6567 11.4349C25.7298 11.6033 25.8106 11.8446 25.8767 12.1732C25.993 12.7521 26.0423 13.4618 26.0147 14.1849C25.9871 14.9092 25.8839 15.6056 25.7205 16.1602C25.6435 16.4211 25.5593 16.6172 25.4848 16.763L19.5889 15.2982C19.2373 15.2112 18.9109 15.0451 18.6358 14.8112C18.3604 14.577 18.1425 14.2803 18.0004 13.9479L17.3402 12.4076C17.2861 12.2818 17.2654 12.1446 17.2777 12.0091C17.2902 11.8733 17.3359 11.7426 17.4119 11.6289C17.4874 11.516 17.5911 11.4231 17.7126 11.3594C17.8336 11.2961 17.9673 11.2639 18.102 11.2656L24.6811 11.413ZM15.6404 21.8926C15.1986 24.1245 13.2301 25.8073 10.8685 25.8073C8.18185 25.8073 6.00391 23.6293 6.00391 20.9427C6.00391 19.4726 6.65604 18.1548 7.68681 17.2628C8.19628 16.8219 8.79824 16.4851 9.45968 16.2853C9.90563 16.1505 10.3786 16.0781 10.8685 16.0781C13.1814 16.0781 15.1172 17.6922 15.6111 19.8554C15.6909 20.205 15.7331 20.5689 15.7331 20.9427C15.7331 21.2678 15.7012 21.5854 15.6404 21.8926Z" fill="black"/>
</svg>
