<?xml version="1.0" encoding="UTF-8"?>
<svg id="Capa_1" xmlns="http://www.w3.org/2000/svg" version="1.1" viewBox="0 0 32 32">
  <!-- Generator: Adobe Illustrator 30.0.0, SVG Export Plug-In . SVG Version: 2.1.1 Build 123)  -->
  <defs>
    <style>
      .st0 {
        fill-rule: evenodd;
      }
    </style>
  </defs>
  <path class="st0" d="M28.26,12.57l-3.93-3.11v-2.58c0-.55-.45-1-1-1s-1,.45-1,1v1l-3.8-3.01c-1.48-1.17-3.57-1.17-5.05,0L3.74,12.57c-.43.34-.51.97-.16,1.41.34.43.97.51,1.4.16l.31-.25v9.16c0,2.74,2.22,4.96,4.96,4.96h11.48c2.74,0,4.96-2.22,4.96-4.96v-9.16l.31.25c.43.34,1.06.27,1.4-.16.34-.43.27-1.06-.16-1.41ZM21.74,26.01h-11.48c-1.29,0-2.38-.82-2.79-1.96,1.09.12,2.08-.2,2.87-.46l.09-.03c1.29-.42,2.1-.64,2.99-.1,1.73,1.05,3.37.51,4.56.13l.09-.03c1.29-.42,2.1-.64,2.99-.1,1.05.64,2.31.82,3.48.56-.4,1.16-1.5,1.99-2.8,1.99ZM24.7,21.85c-.82.41-1.82.38-2.6-.1-1.73-1.05-3.37-.51-4.56-.13l-.09.03c-1.29.42-2.1.64-2.99.1-1.73-1.05-3.37-.51-4.56-.13l-.09.03c-1.06.35-1.79.55-2.51.32v-2.93c1.15.18,2.21-.17,3.04-.44l.09-.03c1.29-.42,2.1-.64,2.99-.1,1.73,1.05,3.37.51,4.56.13l.09-.03c1.29-.42,2.1-.64,2.99-.1,1.1.67,2.43.84,3.64.52v2.85ZM24.7,16.87c-.82.41-1.82.38-2.6-.1-1.73-1.05-3.37-.51-4.56-.13l-.09.03c-1.29.42-2.1.64-2.99.1-1.73-1.05-3.37-.51-4.56-.13l-.09.03c-1.06.35-1.79.55-2.51.32v-4.68l7.41-5.87c.75-.6,1.82-.59,2.57,0l7.42,5.87v4.56Z"/>
</svg>