<svg width="32" height="32" viewBox="0 0 32 32" fill="none" xmlns="http://www.w3.org/2000/svg">
<path d="M21.6504 18.0313C22.5782 17.044 24.1353 16.9857 25.1361 17.8985L26.1243 18.7996L26.3014 18.9792C27.1333 19.9105 27.134 21.3336 26.2637 22.2683L22.0931 26.797C21.5496 27.396 20.8203 27.792 20.0241 27.9246L18.9486 28.1029C17.5283 28.3369 16.2372 27.1666 16.3978 25.7084L16.5176 24.6173C16.5981 23.8787 16.9108 23.185 17.4121 22.6342L21.6504 18.0313ZM23.7884 19.3751C23.5937 19.1979 23.2865 19.2113 23.1087 19.3998L18.89 23.9792C18.6727 24.2181 18.5403 24.5181 18.5059 24.8347L18.3861 25.9272C18.375 26.0312 18.472 26.154 18.623 26.129L19.696 25.9519L19.8275 25.9246C20.1315 25.8475 20.4045 25.6838 20.6126 25.4545L24.7936 20.9141C24.9432 20.7545 24.9609 20.5136 24.8366 20.3438L24.7754 20.2761L23.7884 19.3751Z" fill="black"/>
<path d="M19.7444 10.6472C19.7443 8.10011 17.6454 6.0105 15.0282 6.0105C12.411 6.01056 10.3122 8.10014 10.3121 10.6472C10.3121 13.1954 12.4108 15.2839 15.0282 15.2839C17.6456 15.2839 19.7444 13.1955 19.7444 10.6472ZM21.7444 10.6472C21.7444 14.3266 18.7235 17.2839 15.0282 17.2839C11.3329 17.2839 8.31208 14.3265 8.31208 10.6472C8.3122 6.96932 11.3328 4.01056 15.0282 4.0105C18.7235 4.0105 21.7443 6.96929 21.7444 10.6472Z" fill="black"/>
<path d="M5.07812 26.8686C5.07821 25.1633 5.7612 23.268 7.39453 21.8087C9.02919 20.3483 11.527 19.4011 15.0273 19.4011C15.5794 19.4014 16.0273 19.849 16.0273 20.4011C16.0273 20.9533 15.5794 21.4009 15.0273 21.4011C11.8841 21.4011 9.90669 22.2477 8.72786 23.3009C7.54805 24.3549 7.07821 25.6928 7.07812 26.8686C7.07812 27.4209 6.63041 27.8686 6.07812 27.8686C5.52584 27.8686 5.07812 27.4209 5.07812 26.8686Z" fill="black"/>
</svg>
