<svg width="33" height="32" viewBox="0 0 33 32" fill="none" xmlns="http://www.w3.org/2000/svg">
<path fill-rule="evenodd" clip-rule="evenodd" d="M6.81918 6.1267C8.02165 4.83663 9.73409 4.11456 11.7561 4.11456H22.0585C24.0852 4.11456 25.7984 4.83623 27.0004 6.12704C28.1954 7.41046 28.8167 9.1821 28.8167 11.17V20.8769C28.8167 22.8647 28.1954 24.6364 27.0001 25.9199C25.798 27.2107 24.0845 27.9323 22.0573 27.9323H11.7561C9.72934 27.9323 8.0164 27.2105 6.81475 25.9197C5.62002 24.6363 4.99902 22.8646 4.99902 20.8769V11.17C4.99902 9.18109 5.62338 7.4096 6.81918 6.1267ZM8.15939 7.3759C7.33223 8.26331 6.83115 9.5615 6.83115 11.17V20.8769C6.83115 22.4864 7.33024 23.7844 8.1558 24.6713C8.97444 25.5509 10.182 26.1001 11.7561 26.1001H22.0573C23.632 26.1001 24.8403 25.5507 25.6594 24.6712C26.4853 23.7843 26.9846 22.4863 26.9846 20.8769V11.17C26.9846 9.56049 26.4853 8.26247 25.6595 7.37556C24.8405 6.49603 23.6325 5.94669 22.0585 5.94669H11.7561C10.188 5.94669 8.97989 6.49564 8.15939 7.3759Z" fill="black"/>
<path fill-rule="evenodd" clip-rule="evenodd" d="M17.8136 8.80727C18.2571 8.7353 18.6874 8.99559 18.8295 9.42183C18.9622 9.82001 19.3072 10.4758 19.8801 11.0197C20.4376 11.5488 21.1857 11.9519 22.1698 11.9519C22.6757 11.9519 23.0859 12.362 23.0859 12.8679C23.0859 13.3739 22.6757 13.784 22.1698 13.784C20.7817 13.784 19.6857 13.2574 18.8765 12.5785V19.1831C18.8765 21.4371 17.0509 23.2556 14.8028 23.2556C12.5546 23.2556 10.7291 21.4371 10.7291 19.1831C10.7291 16.9296 12.5541 15.1094 14.8028 15.1094C15.3087 15.1094 15.7189 15.5196 15.7189 16.0255C15.7189 16.5315 15.3087 16.9415 14.8028 16.9415C13.5647 16.9415 12.5613 17.9427 12.5613 19.1831C12.5613 20.4231 13.5642 21.4234 14.8028 21.4234C16.0414 21.4234 17.0444 20.4231 17.0444 19.1831V9.71151C17.0444 9.26222 17.3702 8.87923 17.8136 8.80727Z" fill="black"/>
</svg>
