<svg width="32" height="32" viewBox="0 0 32 32" fill="none" xmlns="http://www.w3.org/2000/svg">
<path fill-rule="evenodd" clip-rule="evenodd" d="M19.1631 7.95173L19.1634 9.21094C19.1392 9.20918 19.1147 9.20829 19.09 9.20828H17.6851C17.1328 9.20828 16.6851 9.656 16.6851 10.2083C16.6851 10.7606 17.1328 11.2083 17.6851 11.2083H19.09C19.1149 11.2083 19.1395 11.2074 19.164 11.2056L19.1644 12.66C19.1435 14.1317 20.3127 15.3463 21.7868 15.3788C21.7901 15.3789 21.7833 15.3785 21.7868 15.3788" fill="black"/>
<path fill-rule="evenodd" clip-rule="evenodd" d="M5.72705 20.9087C5.72705 20.3564 6.17477 19.9087 6.72705 19.9087C7.27934 19.9087 7.72705 20.3564 7.72705 20.9087V22.0936H8.98096C9.53314 22.0937 9.98096 22.5414 9.98096 23.0936C9.98096 23.6458 9.53314 24.0935 8.98096 24.0936H7.39372C6.47324 24.0936 5.72705 23.3474 5.72705 22.4269V20.9087ZM15.3286 22.0936C15.8809 22.0936 16.3286 22.5413 16.3286 23.0936C16.3286 23.6459 15.8809 24.0936 15.3286 24.0936H12.1554C11.6032 24.0936 11.1554 23.6459 11.1554 23.0936C11.1554 22.5413 11.6032 22.0936 12.1554 22.0936H15.3286ZM5.72705 17.8723V14.8358C5.72705 14.2835 6.17477 13.8358 6.72705 13.8358C7.27934 13.8358 7.72705 14.2835 7.72705 14.8358V17.8723C7.72705 18.4246 7.27934 18.8723 6.72705 18.8723C6.17477 18.8723 5.72705 18.4246 5.72705 17.8723ZM5.72705 5.72647V4.20825C5.72705 3.65597 6.17477 3.20825 6.72705 3.20825C7.27934 3.20825 7.72705 3.65597 7.72705 4.20825V5.72647C7.72705 6.27876 7.27934 6.72647 6.72705 6.72647C6.17477 6.72647 5.72705 6.27876 5.72705 5.72647Z" fill="black"/>
<path fill-rule="evenodd" clip-rule="evenodd" d="M14.8739 9.20828C15.426 9.2084 15.8739 9.65607 15.8739 10.2083C15.8739 10.7605 15.426 11.2082 14.8739 11.2083H12.0627C11.5104 11.2082 11.0627 10.7605 11.0627 10.2083C11.0627 9.65604 11.5104 9.20836 12.0627 9.20828H14.8739Z" fill="black"/>
<path d="M5.72705 8.76292V11.7994C5.72705 12.3517 6.17477 12.7994 6.72705 12.7994C7.27934 12.7994 7.72705 12.3517 7.72705 11.7994V11.2012C7.76622 11.2059 7.80609 11.2083 7.84651 11.2083H9.25146C9.80374 11.2083 10.2515 10.7606 10.2515 10.2083C10.2515 9.656 9.80374 9.20828 9.25146 9.20828H7.84651C7.80609 9.20828 7.76622 9.21068 7.72705 9.21535V8.76292C7.72705 8.21064 7.27934 7.76293 6.72705 7.76293C6.17477 7.76293 5.72705 8.21064 5.72705 8.76292Z" fill="black"/>
<path fill-rule="evenodd" clip-rule="evenodd" d="M24.3818 5.31241C24.9029 5.31241 25.4033 5.52429 25.7659 5.90225L27.4638 7.67178L27.5862 7.8111C27.8535 8.14891 28.0003 8.56819 28.0003 9.0012V12.6535L27.9886 12.9244C27.8654 14.2607 26.7693 15.323 25.4013 15.3788C25.3908 15.3793 25.3715 15.3801 25.361 15.3801L21.804 15.3799L21.7868 15.3788C21.7901 15.3789 21.7833 15.3785 21.7868 15.3788C20.3127 15.3463 19.1435 14.1317 19.1644 12.66L19.164 11.2056C19.1395 11.2074 19.1149 11.2083 19.09 11.2083H17.6851C17.1328 11.2083 16.6851 10.7606 16.6851 10.2083C16.6851 9.656 17.1328 9.20828 17.6851 9.20828H19.09C19.1147 9.20829 19.1392 9.20918 19.1634 9.21094L19.1631 7.95173L19.1637 7.93811C19.1988 6.48167 20.3916 5.30942 21.8493 5.31371L24.3818 5.31241ZM21.8441 7.31241C21.475 7.31098 21.1719 7.60538 21.1631 7.97516V12.6822C21.1547 13.0592 21.454 13.3718 21.831 13.3801H25.3297C25.7067 13.3596 26.0028 13.0471 26.0003 12.6679V9.03376L24.3467 7.31241H21.8441Z" fill="black"/>
<path fill-rule="evenodd" clip-rule="evenodd" d="M24.3818 17.8681C24.9029 17.8681 25.4033 18.08 25.7659 18.458L27.4638 20.2275L27.5862 20.3668C27.8535 20.7046 28.0003 21.1239 28.0003 21.5569V25.2092L27.9886 25.4801C27.8654 26.8164 26.7693 27.8787 25.4013 27.9345C25.3908 27.935 25.3715 27.9358 25.361 27.9358H21.8089C21.8055 27.9355 21.7901 27.9346 21.7868 27.9345C20.3127 27.902 19.1435 26.6874 19.1644 25.2157L19.1641 24.0936H18.5031C17.9508 24.0936 17.5031 23.6459 17.5031 23.0936C17.5031 22.5413 17.9508 22.0936 18.5031 22.0936H19.1635L19.1631 20.5074C19.1631 20.5031 19.1634 20.4984 19.1637 20.4938C19.1988 19.0374 20.3916 17.8651 21.8493 17.8694L24.3818 17.8681ZM21.8441 19.8681C21.475 19.8667 21.1719 20.1611 21.1631 20.5309V25.2379C21.1547 25.6149 21.454 25.9275 21.831 25.9358H25.3297C25.7067 25.9153 26.0028 25.6028 26.0003 25.2236V21.5895L24.3467 19.8681H21.8441Z" fill="black"/>
</svg>
