<svg width="32" height="32" viewBox="0 0 32 32" fill="none" xmlns="http://www.w3.org/2000/svg">
<path d="M25.4201 16C25.4201 10.4804 20.9739 6.01585 15.5008 6.01562C11.8331 6.01562 8.62644 8.01901 6.90837 11.0065C6.63304 11.4853 6.02124 11.6503 5.54248 11.375C5.06372 11.0997 4.89867 10.4879 5.17399 10.0091C7.23221 6.43014 11.0845 4.01562 15.5008 4.01562C22.0895 4.01585 27.4201 9.38689 27.4201 16C27.4201 22.6131 22.0895 27.9841 15.5008 27.9844C11.0845 27.9844 7.23222 25.5699 5.17399 21.9909C4.89867 21.5121 5.06372 20.9003 5.54248 20.625C6.02124 20.3497 6.63304 20.5147 6.90837 20.9935C8.62644 23.981 11.8331 25.9844 15.5008 25.9844C20.9739 25.9841 25.4201 21.5196 25.4201 16Z" fill="black"/>
<path d="M13.5041 10.8997C13.8958 10.5109 14.5289 10.5135 14.9181 10.9049L19.2853 15.2982C19.6731 15.6882 19.6731 16.3183 19.2853 16.7083L14.9181 21.1016C14.5288 21.4932 13.8957 21.4948 13.5041 21.1055C13.1124 20.7161 13.1095 20.0831 13.4989 19.6914L16.172 17.0026H4.38037C3.82809 17.0026 3.38037 16.5549 3.38037 16.0026C3.38065 15.4506 3.82826 15.0026 4.38037 15.0026H16.172L13.4989 12.3138C13.11 11.9221 13.1126 11.2889 13.5041 10.8997Z" fill="black"/>
</svg>
