<svg width="32" height="32" viewBox="0 0 32 32" fill="none" xmlns="http://www.w3.org/2000/svg">
<path fill-rule="evenodd" clip-rule="evenodd" d="M27.8699 7.82812C28.5313 5.57549 26.439 3.48207 24.185 4.14322L6.1407 9.43619C3.67545 10.1602 3.23128 13.4631 5.41935 14.8125L12.7071 19.3047L17.2006 26.5937C18.55 28.7819 21.8528 28.3377 22.5769 25.8724L27.8699 7.82812ZM25.9506 7.26431C26.1661 6.5297 25.4844 5.84714 24.7488 6.06249L6.70451 11.3555C5.89965 11.5918 5.75516 12.6691 6.46883 13.1094L13.3074 17.3264L19.9338 10.6302C20.3222 10.2377 20.9552 10.234 21.3478 10.6224C21.7403 11.0108 21.7438 11.6439 21.3556 12.0364L14.7133 18.7488L18.9037 25.5443C19.3441 26.258 20.4213 26.1135 20.6576 25.3086L25.9506 7.26431Z" fill="black"/>
</svg>
