<svg width="32" height="32" viewBox="0 0 32 32" fill="none" xmlns="http://www.w3.org/2000/svg">
<path d="M13.8589 20.1669C13.8589 19.6146 14.3066 19.1669 14.8589 19.1669C15.4112 19.1669 15.8589 19.6146 15.8589 20.1669V26.0249H18.424C18.9759 26.0252 19.4237 26.4731 19.424 27.0249C19.424 27.5771 18.9761 28.0247 18.424 28.0249H15.5255C14.6051 28.0249 13.8589 27.2787 13.8589 26.3583V20.1669Z" fill="black"/>
<path d="M25.2802 19.1669C25.8325 19.1669 26.2802 19.6146 26.2802 20.1669C26.2802 20.7191 25.8325 21.1669 25.2802 21.1669H24.0797C23.8133 21.1669 23.6544 21.4636 23.8023 21.6851L25.6148 24.3947C26.6523 25.9451 25.5415 28.0249 23.676 28.0249H22.1552C21.6031 28.0247 21.1552 27.5771 21.1552 27.0249C21.1555 26.4731 21.6033 26.0252 22.1552 26.0249H23.676C23.9425 26.0249 24.1015 25.7282 23.9534 25.5067L22.1396 22.7984C21.1019 21.248 22.2141 19.1669 24.0797 19.1669H25.2802Z" fill="black"/>
<path d="M22.0288 12.9309H24.5402V17.1588C24.5402 17.7111 24.9879 18.1588 25.5402 18.1588C26.0922 18.1584 26.5402 17.7109 26.5402 17.1588V12.5416C26.5402 11.6209 26.1828 10.7348 25.5467 10.0715L20.8032 5.13143C20.1313 4.43216 19.2027 4.03652 18.2329 4.03638L11.1626 4.03768C8.06873 4.02817 5.53239 6.49307 5.45947 9.58846V17.1588C5.45947 17.7111 5.90719 18.1588 6.45947 18.1588C7.01176 18.1588 7.45947 17.7111 7.45947 17.1588V9.63534C7.50675 7.62849 9.15216 6.02865 11.16 6.03638H17.8361V8.72648C17.8345 11.045 19.7105 12.9261 22.0288 12.9309ZM23.5989 10.9309H22.0327C20.8938 10.9284 19.9596 10.0621 19.8478 8.95304L19.8361 8.72778V7.01214L23.5989 10.9309Z" fill="black"/>
<path fill-rule="evenodd" clip-rule="evenodd" d="M7.8213 27.3604L8.44795 26.1419L9.07461 27.3604C9.32718 27.8516 9.9616 28.1239 10.4916 27.9686C11.0216 27.8134 11.2465 27.2893 10.9939 26.7982L9.5522 23.9947L11.2429 20.7069C11.4955 20.2158 11.2706 19.6918 10.7406 19.5365C10.2106 19.3812 9.57618 19.6535 9.3236 20.1447L8.44795 21.8474L7.57231 20.1447C7.31973 19.6535 6.68532 19.3812 6.15531 19.5365C5.6253 19.6918 5.40039 20.2158 5.65297 20.7069L7.34371 23.9946L5.90196 26.7982C5.64938 27.2893 5.87429 27.8134 6.4043 27.9686C6.93431 28.1239 7.56873 27.8516 7.8213 27.3604Z" fill="black"/>
</svg>
