<svg width="33" height="32" viewBox="0 0 33 32" fill="none" xmlns="http://www.w3.org/2000/svg">
<path fill-rule="evenodd" clip-rule="evenodd" d="M9.23153 5.99295C10.3664 5.18835 11.7943 5.179 13.3244 5.67543C13.3444 5.68194 13.3643 5.68916 13.3839 5.69704C16.8869 7.10857 21.4514 10.039 24.0023 12.3466C25.2231 13.4208 26.0005 14.64 26.0005 16.0033C26.0005 17.3665 25.2231 18.5853 24.0023 19.6591C21.4513 21.968 16.8869 24.8983 13.3839 26.3098C13.3625 26.3185 13.3408 26.3263 13.3188 26.3332C11.7941 26.8172 10.3654 26.8102 9.22961 26.0127C8.12186 25.235 7.53298 23.8683 7.27457 22.2033C7.2726 22.1906 7.27089 22.1778 7.26947 22.165C7.04645 20.1773 6.94135 18.1172 6.94968 16.0028C6.94135 13.8885 7.04645 11.8295 7.26947 9.84178C7.27109 9.82725 7.27307 9.81276 7.27539 9.79834C7.54207 8.14266 8.12979 6.77405 9.23153 5.99295ZM9.08332 10.0677C8.87034 11.9743 8.76924 13.9563 8.7774 15.9991L8.77743 16.0064C8.76925 18.0502 8.87043 20.0344 9.08361 21.9418C9.31162 23.3923 9.77031 24.1592 10.2799 24.5169C10.7593 24.8535 11.5113 24.9829 12.7334 24.6014C16.0271 23.2672 20.3915 20.4634 22.7805 18.2997L22.7909 18.2904C23.8239 17.3831 24.1727 16.621 24.1727 16.0033C24.1727 15.3855 23.8239 14.623 22.7907 13.7151L22.7805 13.7062C20.3908 11.543 16.0246 8.73798 12.7307 7.40441C11.5099 7.01426 10.7646 7.14648 10.2886 7.48396C9.77814 7.84589 9.31971 8.62007 9.08332 10.0677Z" fill="black"/>
</svg>
